<svg width="15" height="15" viewBox="0 0 15 15" fill="none" xmlns="http://www.w3.org/2000/svg">
<path d="M6.9643 11.25H8.03569V6.51099H6.9643V11.25ZM7.49565 5.26522C7.65969 5.26522 7.79863 5.20975 7.91248 5.0988C8.02633 4.98784 8.08325 4.85034 8.08325 4.68632C8.08325 4.52229 8.02777 4.38335 7.91681 4.26949C7.80586 4.15564 7.66837 4.09872 7.50435 4.09872C7.34031 4.09872 7.20136 4.1542 7.08752 4.26516C6.97367 4.37612 6.91675 4.51362 6.91675 4.67764C6.91675 4.84167 6.97223 4.9806 7.08319 5.09445C7.19414 5.2083 7.33163 5.26522 7.49565 5.26522ZM7.50707 15C6.47531 15 5.5036 14.8048 4.59195 14.4144C3.68028 14.024 2.88233 13.4869 2.19808 12.8029C1.51382 12.119 0.976411 11.3217 0.585846 10.411C0.195282 9.50037 0 8.52734 0 7.49194C0 6.45653 0.195193 5.48643 0.585579 4.58165C0.975964 3.67685 1.51312 2.88233 2.19705 2.19808C2.881 1.51382 3.6783 0.976411 4.58896 0.585846C5.49962 0.195282 6.47265 0 7.50806 0C8.54347 0 9.51357 0.195193 10.4184 0.585578C11.3231 0.975964 12.1177 1.51312 12.8019 2.19705C13.4862 2.881 14.0236 3.67669 14.4142 4.58414C14.8047 5.49159 15 6.46118 15 7.49293C15 8.52469 14.8048 9.4964 14.4144 10.408C14.024 11.3197 13.4869 12.1177 12.8029 12.8019C12.119 13.4862 11.3233 14.0236 10.4159 14.4142C9.50841 14.8047 8.53881 15 7.50707 15ZM7.5 13.9286C9.28572 13.9286 10.8036 13.3036 12.0536 12.0536C13.3036 10.8036 13.9286 9.28572 13.9286 7.5C13.9286 5.71428 13.3036 4.19642 12.0536 2.94642C10.8036 1.69641 9.28572 1.07141 7.5 1.07141C5.71428 1.07141 4.19642 1.69641 2.94642 2.94642C1.69641 4.19642 1.07141 5.71428 1.07141 7.5C1.07141 9.28572 1.69641 10.8036 2.94642 12.0536C4.19642 13.3036 5.71428 13.9286 7.5 13.9286Z" fill="#000000"/>
</svg>
