<svg width="42" height="42" viewBox="0 0 42 42" fill="none" xmlns="http://www.w3.org/2000/svg">
<rect width="42" height="42" fill="#F5F5F5"/>
<g clip-path="url(#clip0_218_66)">
<rect width="1920" height="5793" transform="translate(-658 -2945)" fill="white"/>
<rect x="-668" y="-1160" width="1930" height="1501" fill="#F7F7F7"/>
<rect x="-401" y="-209" width="1406" height="770" fill="black"/>
<g clip-path="url(#clip1_218_66)">
<path d="M39.8001 23.8994L21.0001 38.3994L2.2001 23.9994L0.100098 25.6994L20.9001 41.7994L21.0001 41.8994L41.9001 25.7994V25.6994L39.8001 23.8994Z" fill="white"/>
<path d="M21 32.3996L42 16.2996L21.2 0.299609L21 0.0996094L0 16.1996L21 32.3996ZM21 28.8996L4.6 16.2996L21 3.69961L37.4 16.2996L21 28.8996Z" fill="white"/>
</g>
</g>
<defs>
<clipPath id="clip0_218_66">
<rect width="1920" height="5793" fill="white" transform="translate(-658 -2945)"/>
</clipPath>
<clipPath id="clip1_218_66">
<rect width="42" height="42" fill="white"/>
</clipPath>
</defs>
</svg>
