<svg width="39" height="42" viewBox="0 0 39 42" fill="none" xmlns="http://www.w3.org/2000/svg">
<g clip-path="url(#clip0_1275_864)">
<path d="M28.5073 13.9998C29.2502 13.9998 29.8073 13.7998 30.2716 13.2998C30.7359 12.7998 30.9216 12.1998 30.9216 11.3998C30.9216 10.5998 30.7359 9.9998 30.2716 9.4998C29.8073 8.9998 29.2502 8.7998 28.5073 8.7998C27.7644 8.7998 27.2073 8.9998 26.743 9.4998C26.2787 9.9998 26.093 10.5998 26.093 11.3998C26.093 12.1998 26.2787 12.7998 26.743 13.2998C27.2073 13.7998 27.7644 13.9998 28.5073 13.9998Z" fill="white"/>
<path d="M18.5715 28.7002L23.1215 28.0002L23.5858 23.6002L25.1643 21.9002C26.8358 22.6002 28.6929 22.9002 30.55 22.5002C32.5 22.2002 34.2643 21.1002 35.8429 19.3002C37.8858 17.2002 38.9072 14.5002 38.9072 11.4002C38.9072 8.2002 37.8858 5.7002 35.75 3.5002C33.8 1.3002 31.2929 0.200195 28.4143 0.200195C25.5358 0.200195 23.1215 1.3002 21.0786 3.5002C19.5 5.1002 18.5715 6.9002 18.2 8.8002C17.8286 10.7002 18.0143 12.9002 18.7572 15.0002L8.07861 26.6002V34.0002L17.8286 33.6002L18.5715 28.7002ZM16.1572 26.3002L15.5072 31.0002H15.4143L10.5858 31.2002V27.9002L21.9143 15.7002C20.9858 14.2002 20.6143 12.5002 20.7072 10.5002C20.8929 8.4002 21.6358 6.8002 22.8429 5.5002C24.3286 3.9002 26.2786 3.0002 28.4143 3.0002C30.4572 3.0002 32.3143 3.8002 33.8929 5.5002C35.4715 7.2002 36.2143 9.10019 36.2143 11.4002C36.2143 13.8002 35.3786 15.7002 33.8 17.4002C32.6858 18.7002 31.2 19.5002 29.3429 19.7002C27.5786 19.9002 25.9072 19.5002 24.4215 18.4002L20.8929 22.2002L20.7072 25.5002H20.6143L16.1572 26.3002Z" fill="white"/>
<path d="M6.03564 24.2998H-0.185791" stroke="white" stroke-width="2.8" stroke-miterlimit="10"/>
<path d="M13.8357 13.2002H5.94287" stroke="white" stroke-width="2.8" stroke-miterlimit="10"/>
<path d="M0 40.5996H39" stroke="white" stroke-width="2.8" stroke-miterlimit="10"/>
</g>
<defs>
<clipPath id="clip0_1275_864">
<rect width="39" height="42" fill="white"/>
</clipPath>
</defs>
</svg>
