<svg width="39" height="42" viewBox="0 0 39 42" fill="none" xmlns="http://www.w3.org/2000/svg">
<rect width="39" height="42" fill="#F5F5F5"/>
<g clip-path="url(#clip0_218_66)">
<rect width="1920" height="5793" transform="translate(-1294 -3160)" fill="white"/>
<rect x="-1304" y="-1375" width="1930" height="1501" fill="#F7F7F7"/>
<rect x="-1037" y="-424" width="1406" height="770" fill="black"/>
<path d="M16.6396 36.2863C16.5393 36.2863 16.5394 36.2863 16.4391 36.2863C16.2386 36.2863 15.9379 36.2863 15.7374 36.2863C12.0286 36.2863 9.02146 34.9832 6.5155 32.4773C4.00954 29.9713 2.90692 26.7637 2.90692 23.0548C2.90692 20.4487 4.00954 17.4415 6.21479 14.2339C8.42003 10.926 11.6277 7.41765 15.7374 3.80906C18.9451 6.61574 21.5513 9.32218 23.556 11.9284C25.4606 14.4343 26.8639 16.7398 27.6658 18.9451C28.0668 18.9451 28.4677 18.8448 28.8687 18.8448C29.4701 18.8448 30.0715 18.9451 30.673 18.9451C29.8711 16.2386 28.167 13.2315 25.7613 10.2243C23.2553 7.01669 19.8472 3.60859 15.6372 0C10.4248 4.51073 6.5155 8.72075 3.9093 12.5298C1.3031 16.3389 0 19.9475 0 23.1551C0 27.6658 1.50358 31.5751 4.51073 34.5823C7.51789 37.5894 11.2267 39.1932 15.6372 39.1932H16.3389C16.7398 39.1932 17.3413 39.093 17.8425 38.9928C17.3413 38.1909 16.9403 37.2887 16.6396 36.2863Z" fill="white"/>
<path d="M28.8685 42.0001C23.2551 42.0001 18.7444 37.4894 18.7444 31.876C18.7444 26.2627 23.2551 21.752 28.8685 21.752C34.4818 21.752 38.9926 26.2627 38.9926 31.876C38.9926 37.4894 34.3816 42.0001 28.8685 42.0001ZM28.8685 24.4584C24.7587 24.4584 21.4508 27.7663 21.4508 31.876C21.4508 35.9858 24.7587 39.2937 28.8685 39.2937C32.9783 39.2937 36.2861 35.9858 36.2861 31.876C36.2861 27.7663 32.9783 24.4584 28.8685 24.4584Z" fill="white"/>
<path d="M32.8781 33.9817H27.5654V27.5664H30.0714V31.4757H32.8781V33.9817Z" fill="white"/>
</g>
<defs>
<clipPath id="clip0_218_66">
<rect width="1920" height="5793" fill="white" transform="translate(-1294 -3160)"/>
</clipPath>
</defs>
</svg>
