<svg width="42" height="39" viewBox="0 0 42 39" fill="none" xmlns="http://www.w3.org/2000/svg">
<rect width="42" height="39" fill="#F5F5F5"/>
<g clip-path="url(#clip0_218_66)">
<rect width="1920" height="5793" transform="translate(-340 -2945)" fill="white"/>
<rect x="-350" y="-1160" width="1930" height="1501" fill="#F7F7F7"/>
<rect x="-83" y="-209" width="1406" height="770" fill="black"/>
<path d="M39.7054 19.8002C38.209 18.4002 36.4133 17.6002 34.3183 17.7002H33.6199V15.9002C33.6199 12.4002 32.4228 9.4002 29.9287 6.9002C27.4346 4.4002 24.4418 3.2002 20.9501 3.2002C19.7529 3.2002 18.5558 3.4002 17.4584 3.7002C16.361 4.0002 15.2636 4.6002 13.9667 5.3002L13.4679 5.60019L15.4631 7.7002L15.8622 7.5002C16.6603 7.0002 17.4584 6.6002 18.3563 6.4002C19.2541 6.2002 20.152 6.0002 21.0498 6.0002C23.7434 6.0002 26.1377 7.0002 28.0332 8.9002C29.9287 10.8002 30.9263 13.1002 30.9263 15.9002V20.6002H34.6175C35.9145 20.6002 37.0118 21.0002 37.9097 22.0002C38.8076 22.9002 39.3064 24.0002 39.3064 25.3002C39.3064 26.1002 39.1069 26.7002 38.8076 27.3002C38.5083 27.9002 38.0095 28.4002 37.5107 28.9002L36.9121 29.1002L39.0071 31.1002L39.4061 30.8002C40.304 30.0002 41.0023 29.0002 41.4014 28.0002C41.8004 27.0002 42 26.0002 42 25.1002C41.9002 23.0002 41.2019 21.2002 39.7054 19.8002Z" fill="white"/>
<path d="M1.69596 1.9L9.67696 9.9C9.37767 10.5 9.07838 11.1 8.87886 11.8C8.67933 12.5 8.47981 13.1 8.47981 13.6C6.28504 13.8 4.38955 14.7 2.69359 16.4C0.897862 18.2 0 20.4 0 23.1C0 25.8 0.897862 28.1 2.79335 29.9C4.58907 31.7 6.88361 32.7 9.5772 32.7H32.5226L38.7078 39L40.7031 37L3.79097 0L1.69596 1.9ZM29.6295 29.9H9.47743C7.58195 29.9 5.98575 29.2 4.68884 27.9C3.39192 26.6 2.69359 25 2.69359 23.1C2.69359 21.2 3.29216 19.7 4.68884 18.4C6.08551 17 7.58195 16.4 9.47743 16.4H10.9739V15.9C10.9739 15.1 11.0736 14.3 11.2732 13.5C11.3729 13 11.5724 12.5 11.772 12L29.6295 29.9Z" fill="white"/>
</g>
<defs>
<clipPath id="clip0_218_66">
<rect width="1920" height="5793" fill="white" transform="translate(-340 -2945)"/>
</clipPath>
</defs>
</svg>
