<svg width="42" height="42" viewBox="0 0 42 42" fill="none" xmlns="http://www.w3.org/2000/svg">
<g clip-path="url(#clip0_1276_920)">
<path d="M35.4001 13.8C34.7001 12.5 33.3 11.9 31.9 12L29.4 16.3L32 14.8C32.3 14.6 32.8 14.7 33 15.1L37 21.9C37.2001 22.2 37.1 22.7 36.7001 22.9L28.4 27.7V27.8L25.6 23L24 25.8L26 29.2C26 29.2 22.7 31.1 20.1 32.6L17.3 37.4L38.2001 25.4C39.8001 24.4 40.4 22.3 39.5 20.6L35.4001 13.8Z" fill="white"/>
<path d="M12.0999 38.5C12.0999 38.9 11.7999 39.2 11.3999 39.2H3.4999C3.0999 39.2 2.7999 38.9 2.7999 38.5V29H12.0999V38.5ZM14.8999 3.5C14.8999 1.6 13.2999 0 11.3999 0H3.4999C1.4999 0 -0.100098 1.6 -0.100098 3.5V38.4C-0.100098 40.3 1.4999 41.9 3.3999 41.9H11.2999C13.1999 41.9 14.8999 40.3 14.8999 38.4V3.5ZM12.0999 26.1H2.6999V15.9H12.0999V26.1ZM12.0999 13.1H2.6999V3.5C2.6999 3.1 2.9999 2.8 3.3999 2.8H11.2999C11.6999 2.8 11.9999 3.1 11.9999 3.5V13.1H12.0999Z" fill="white"/>
<path d="M7.49995 35.5004C7.89995 35.5004 8.19995 35.4004 8.39995 35.1004C8.69995 34.8004 8.79995 34.5004 8.79995 34.2004C8.79995 33.9004 8.69995 33.5004 8.39995 33.3004C8.09995 33.0004 7.79995 32.9004 7.49995 32.9004C7.09995 32.9004 6.79995 33.0004 6.59995 33.3004C6.29995 33.6004 6.19995 33.9004 6.19995 34.2004C6.19995 34.5004 6.29995 34.9004 6.59995 35.1004C6.79995 35.4004 7.09995 35.5004 7.49995 35.5004Z" fill="white"/>
<path d="M28.0999 6.50034L21.2999 2.50034C19.9999 1.80034 18.4999 1.90034 17.3999 2.70034V7.60034L18.7999 5.10034C18.9999 4.80034 19.3999 4.60034 19.7999 4.80034L26.5999 8.70034C26.8999 8.90034 27.0999 9.30034 26.8999 9.70034L22.0999 18.0003L17.3999 15.3003V18.5003L20.7999 20.4003C20.7999 20.4003 18.8999 23.6003 17.3999 26.2003V32.0003L29.3999 11.2003C30.3999 9.60034 29.7999 7.40034 28.0999 6.50034Z" fill="white"/>
<path d="M39.7999 27.2998L35.3999 29.7998H38.4999C38.8999 29.7998 39.1999 30.0998 39.1999 30.4998V38.3998C39.1999 38.7998 38.8999 39.0998 38.4999 39.0998H28.9999V33.4998L26.0999 35.1998V39.1998H19.0999L14.3999 41.9998H38.5999C40.4999 41.9998 42.0999 40.3998 42.0999 38.4998V30.5998C41.9999 29.1998 41.0999 27.8998 39.7999 27.2998Z" fill="white"/>
</g>
<defs>
<clipPath id="clip0_1276_920">
<rect width="42" height="42" fill="white"/>
</clipPath>
</defs>
</svg>
