<svg width="42" height="42" viewBox="0 0 42 42" fill="none" xmlns="http://www.w3.org/2000/svg">
<g clip-path="url(#clip0_1275_891)">
<path d="M30.6 37.6998V39.0998H11.4V28.8998H25C25 27.8998 25.2 26.8998 25.5 25.9998H8.5V31.2998H2.9V15.8998C2.9 15.1998 3.1 14.5998 3.6 14.1998C4.1 13.6998 4.7 13.4998 5.3 13.4998H36.7C37.4 13.4998 38 13.6998 38.4 14.1998C38.9 14.6998 39.1 15.1998 39.1 15.8998V20.6998C39.9 21.0998 40.6 21.6998 41.2 22.2998C41.2 22.2998 41.2 22.3998 41.3 22.3998L41.4 22.4998C41.6 22.6998 41.7 22.7998 41.9 22.9998C41.9 23.0998 42 23.0998 42 23.1998V15.9998C42 14.4998 41.5 13.2998 40.5 12.1998C39.5 11.1998 38.2 10.6998 36.7 10.6998H33.5V-0.200195H8.5V10.5998H5.3C3.8 10.5998 2.5 11.0998 1.5 12.0998C0.5 13.0998 0 14.3998 0 15.8998V34.1998H8.5V41.9998H33.5C33.5 41.9998 33.5 40.4998 33.5 38.4998C32.5 38.3998 31.5 38.1998 30.6 37.6998ZM11.4 2.6998H30.6V10.5998H11.4V2.6998Z" fill="white"/>
<path d="M34.5 21.5996C32.4 21.5996 30.6 22.2996 29.2 23.7996C27.8 25.1996 27 26.8996 27 29.0996C27 31.1996 27.7 32.9996 29.2 34.3996C30.6 35.7996 32.3 36.5996 34.5 36.5996C36.6 36.5996 38.4 35.8996 39.8 34.3996C41.2 32.9996 42 31.2996 42 29.0996C42 26.8996 41.3 25.1996 39.8 23.7996C38.4 22.2996 36.7 21.5996 34.5 21.5996ZM33.7 32.2996L30.4 28.9996L31.6 27.7996L33.7 29.8996L37.6 25.9996L38.8 27.1996L33.7 32.2996Z" fill="white"/>
<path d="M7.9999 17.5004C7.5999 17.9004 7.3999 18.4004 7.3999 18.9004C7.3999 19.4004 7.5999 19.9004 7.9999 20.3004C8.3999 20.7004 8.8999 20.9004 9.3999 20.9004C9.9999 20.9004 10.3999 20.7004 10.7999 20.3004C11.1999 19.9004 11.3999 19.4004 11.3999 18.9004C11.3999 18.4004 11.1999 17.9004 10.7999 17.5004C10.3999 17.1004 9.8999 16.9004 9.3999 16.9004C8.7999 16.9004 8.3999 17.1004 7.9999 17.5004Z" fill="white"/>
</g>
<defs>
<clipPath id="clip0_1275_891">
<rect width="42" height="42" fill="white"/>
</clipPath>
</defs>
</svg>
