<svg width="42" height="42" viewBox="0 0 42 42" fill="none" xmlns="http://www.w3.org/2000/svg">
<rect width="42" height="42" fill="#F5F5F5"/>
<g clip-path="url(#clip0_218_66)">
<rect width="1920" height="5793" transform="translate(-340 -3160)" fill="white"/>
<rect x="-350" y="-1375" width="1930" height="1501" fill="#F7F7F7"/>
<rect x="-83" y="-424" width="1406" height="770" fill="black"/>
<g clip-path="url(#clip1_218_66)">
<path d="M21.7 0.0996094C16.1 0.0996094 11.2 1.99961 7.39995 5.99961C3.39995 9.99961 1.49995 14.6996 1.49995 20.2996C1.49995 22.8996 1.99995 25.2996 2.89995 27.5996C3.69995 29.8996 4.99995 31.7996 6.49995 33.6996L0.599951 39.5996C0.299951 39.8996 0.199951 40.1996 0.199951 40.4996C0.199951 40.8996 0.299951 41.1996 0.599951 41.4996C0.899951 41.7996 1.19995 41.8996 1.59995 41.8996C1.99995 41.8996 2.19995 41.7996 2.49995 41.4996L8.49995 35.5996C10.3 37.0996 12.3 38.3996 14.5 39.2996C16.8 40.1996 19.1999 40.6996 21.7999 40.6996C27.4 40.6996 32.2999 38.6996 36.0999 34.7996C40.0999 30.7996 42 26.0996 42 20.4996V0.0996094H21.7ZM25.2999 18.4996C25.5999 18.1996 25.7 17.8996 25.7 17.4996C25.7 17.0996 25.5999 16.7996 25.2999 16.5996C25 16.2996 24.6999 16.1996 24.2999 16.1996C23.9 16.1996 23.6 16.2996 23.4 16.5996L8.39995 31.7996C7.09995 30.2996 5.99995 28.4996 5.29995 26.6996C4.49995 24.6996 4.09995 22.6996 4.09995 20.3996C4.09995 15.5996 5.79995 11.3996 9.19995 7.99961C12.6 4.59961 16.7999 2.89961 21.6 2.89961H39.0999V20.3996C39.0999 25.1996 37.4 29.3996 34 32.7996C30.6 36.1996 26.4 37.8996 21.6 37.8996C19.4 37.8996 17.3 37.4996 15.4 36.6996C13.5 35.8996 11.7 34.8996 10.3 33.5996L25.2999 18.4996Z" fill="white"/>
<path d="M1.4 42C1 42 0.7 41.9 0.4 41.6C0.1 41.3 0 41 0 40.6C0 40.4 0.1 40 0.4 39.7L6.3 33.8C4.6 31.6 3.5 29.7 2.8 27.7C1.9 25.4 1.4 22.9 1.4 20.4C1.4 14.7 3.3 10 7.3 6C11.2 2 16 0 21.7 0H42V20.4C42 26.1 40.1 30.8 36.1 34.8C32.3 38.7 27.4 40.7 21.7 40.7C19.2 40.7 16.7 40.2 14.4 39.3C12.3 38.5 10.4 37.3 8.4 35.7L2.4 41.6C2.1 41.9 1.9 42 1.4 42ZM21.7 0.1C16 0.1 11.2 2.1 7.4 6C3.4 10 1.5 14.6 1.5 20.3C1.5 22.8 2 25.2 2.9 27.6C3.6 29.6 4.7 31.5 6.4 33.7L0.5 39.6C0.2 39.9 0.1 40.3 0.1 40.4C0.1 40.8 0.2 41.1 0.5 41.3C0.8 41.6 1 41.7 1.4 41.7C1.8 41.7 2 41.6 2.2 41.3L8.3 35.3C10.3 36.9 12.2 38.1 14.3 38.9C16.6 39.8 19.1 40.3 21.6 40.3C27.3 40.3 32.1 38.3 35.9 34.4C39.9 30.4 41.8 25.8 41.8 20.1V0.1H21.7ZM21.6 37.8C19.4 37.8 17.2 37.4 15.4 36.6C13.3 35.7 11.6 34.7 10.2 33.5L25.3 18.5C25.6 18.2 25.7 18 25.7 17.6C25.7 17.2 25.6 16.9 25.3 16.8C25 16.5 24.7 16.4 24.3 16.4C23.9 16.4 23.6 16.5 23.5 16.8L8.4 31.9C7.1 30.4 6 28.6 5.3 26.7C4.5 24.7 4.1 22.6 4.1 20.4C4.1 15.5 5.8 11.3 9.3 7.9C12.7 4.5 17 2.7 21.8 2.7H39.3V20.2C39.3 25.1 37.6 29.3 34.1 32.7C30.7 36.1 26.4 37.8 21.6 37.8ZM10.3 33.5C11.6 34.7 13.3 35.6 15.4 36.5C17.2 37.3 19.4 37.7 21.6 37.7C26.4 37.7 30.7 35.9 34 32.6C37.4 29.2 39.1 25 39.1 20.2V2.8H21.7C16.9 2.8 12.6 4.6 9.3 7.9C5.9 11.3 4.2 15.5 4.2 20.3C4.2 22.6 4.6 24.6 5.4 26.6C6.1 28.4 7.1 30.2 8.4 31.7L23.5 16.6C23.7 16.3 24 16.2 24.4 16.2C24.8 16.2 25.1 16.3 25.4 16.6C25.7 16.8 25.8 17.1 25.8 17.5C25.8 17.9 25.7 18.2 25.4 18.5L10.3 33.5Z" fill="white"/>
</g>
</g>
<defs>
<clipPath id="clip0_218_66">
<rect width="1920" height="5793" fill="white" transform="translate(-340 -3160)"/>
</clipPath>
<clipPath id="clip1_218_66">
<rect width="42" height="42" fill="white"/>
</clipPath>
</defs>
</svg>
