<svg width="42" height="42" viewBox="0 0 42 42" fill="none" xmlns="http://www.w3.org/2000/svg">
<rect width="42" height="42" fill="#F5F5F5"/>
<g clip-path="url(#clip0_218_66)">
<rect width="1920" height="5793" transform="translate(-658 -3160)" fill="white"/>
<rect x="-668" y="-1375" width="1930" height="1501" fill="#F7F7F7"/>
<rect x="-401" y="-424" width="1406" height="770" fill="black"/>
<path d="M40.8638 40.0092L38.3645 37.5045L35.5421 34.6759L19.7572 18.8568L16.9347 16.0283L2.19525 1.25684L0 3.24731L15.7849 19.0664L2.29978 32.2664C1.4635 33.1045 1.25443 34.6759 1.7771 35.7235C2.29978 36.8759 3.13606 37.3997 4.39049 37.3997H34.0786L38.6686 41.9996L40.8638 40.0092ZM4.39049 34.5711L17.771 21.0568L31.3606 34.6759H4.39049V34.5711Z" fill="white"/>
<path d="M14.2172 2.93333H16.9351V11.9429L19.7575 14.7714V2.93333H24.148V19.1714L41.2918 36.3524C41.3964 36.1429 41.6055 35.9333 41.71 35.7238C42.2327 34.5714 42.0236 33.1048 41.2918 32.1619L26.9705 17.9143V2.93333H29.6884C30.1066 2.93333 30.4202 2.82857 30.7338 2.51429C31.0474 2.2 31.1519 1.88571 31.1519 1.46667C31.1519 1.04762 31.0474 0.733333 30.7338 0.419048C30.4202 0.104762 30.1066 0 29.6884 0H14.2172C13.799 0 13.4854 0.104762 13.1718 0.419048C12.8582 0.733333 12.7537 1.04762 12.7537 1.46667C12.7537 1.88571 12.8582 2.2 13.1718 2.51429C13.4854 2.82857 13.799 2.93333 14.2172 2.93333Z" fill="white"/>
</g>
<defs>
<clipPath id="clip0_218_66">
<rect width="1920" height="5793" fill="white" transform="translate(-658 -3160)"/>
</clipPath>
</defs>
</svg>
