<svg width="51" height="54" viewBox="0 0 51 54" fill="none" xmlns="http://www.w3.org/2000/svg">
<g clip-path="url(#clip0_1015_2576)">
<path d="M49.1042 53.9153L43.4507 48.2617V53.7804H40.7966V43.7119H50.8652V46.3659H45.2959L50.9494 52.0195L49.0958 53.9153H49.1042ZM46.0542 11.8211V40.7714H43.1052V11.9222L6.1928 12.2002C5.35866 12.2255 4.63407 11.5767 4.63407 10.7342C4.63407 9.92533 5.28284 9.25971 6.10012 9.25128H6.16752C7.87791 9.226 9.26813 7.81893 9.26813 6.10012C9.26813 4.3813 7.85264 2.94895 6.11697 2.94895C4.3813 2.94895 2.9658 4.36445 2.9658 6.10012V46.0458H37.8308V48.9947H1.47448C0.657195 48.9947 0 48.3375 0 47.5202V6.17595C0 2.73831 2.73831 0 6.10012 0H45.0431C48.3291 0 51 2.67091 51 5.95688C51 8.89741 48.8599 11.3408 46.0542 11.8211ZM48.051 5.95688C48.051 4.29704 46.703 2.94895 45.0431 2.94895H11.3155C11.8716 3.86734 12.2002 4.94581 12.2002 6.10012C12.2002 7.25442 11.8885 8.29919 11.3492 9.20915L44.5629 8.95639C44.6471 8.95639 44.7314 8.95639 44.8241 8.98166C44.8999 8.97324 44.9673 8.95639 45.0431 8.95639C46.703 8.95639 48.051 7.60829 48.051 5.94846V5.95688Z" fill="black"/>
</g>
<defs>
<clipPath id="clip0_1015_2576">
<rect width="51" height="53.9153" fill="white"/>
</clipPath>
</defs>
</svg>
