<svg width="51" height="62" viewBox="0 0 51 62" fill="none" xmlns="http://www.w3.org/2000/svg">
<g clip-path="url(#clip0_1015_883)">
<path d="M34.7427 61.7884H25.7689C25.0928 61.7884 24.5243 61.5572 24.0633 61.0947C23.6177 60.6322 23.3872 60.0618 23.3872 59.4143V41.5314C23.3872 40.8531 23.6177 40.2827 24.0633 39.8202C24.5089 39.3731 25.0774 39.1419 25.7689 39.1419H28.4733V27.7339C28.4733 27.4564 28.3811 27.2251 28.2121 27.0555C28.0277 26.8705 27.8126 26.7935 27.536 26.7935H4.42543C3.21151 26.7935 2.18198 26.3618 1.30612 25.4831C0.43025 24.5889 0 23.5406 0 22.3382V9.61972C0 8.38642 0.43025 7.33811 1.30612 6.4748C2.18198 5.61149 3.22688 5.17983 4.42543 5.17983H9.49623V2.38949C9.49623 1.72659 9.72673 1.1716 10.1723 0.709114C10.618 0.246625 11.1865 0.0153809 11.878 0.0153809H48.6336C49.2944 0.0153809 49.8475 0.246625 50.3085 0.709114C50.7695 1.1716 51 1.742 51 2.38949V11.9013C51 12.5642 50.7695 13.1192 50.3085 13.5817C49.8475 14.0442 49.279 14.2754 48.6336 14.2754H11.878C11.2019 14.2754 10.6333 14.0442 10.1723 13.5817C9.72673 13.1192 9.49623 12.5488 9.49623 11.9013V8.66391H4.42543C4.14884 8.66391 3.91835 8.75641 3.74932 8.92599C3.56493 9.11099 3.4881 9.32681 3.4881 9.60431V22.3382C3.4881 22.6002 3.5803 22.8161 3.74932 23.0011C3.93372 23.1861 4.14884 23.2785 4.42543 23.2785H27.5206C28.7499 23.2785 29.7948 23.7102 30.6553 24.5735C31.5158 25.4368 31.9461 26.4851 31.9461 27.7184V39.1265H34.7273C35.4034 39.1265 35.972 39.3577 36.433 39.8048C36.8786 40.2519 37.1091 40.8223 37.1091 41.516V59.3989C37.1091 60.0618 36.8786 60.6168 36.433 61.0793C35.9873 61.5418 35.4188 61.773 34.7273 61.773L34.7427 61.7884ZM26.8753 58.2889H33.6363V42.6414H26.8753V58.2889ZM12.9997 10.7914H47.5119V3.49946H12.9997V10.7914Z" fill="black"/>
</g>
<defs>
<clipPath id="clip0_1015_883">
<rect width="51" height="61.7885" fill="white"/>
</clipPath>
</defs>
</svg>
