<svg width="58" height="58" viewBox="0 0 58 58" fill="none" xmlns="http://www.w3.org/2000/svg">
<path d="M29.7404 17.7169L37.8435 9.60264L37.8437 9.60248L42.8089 4.65992C43.6693 3.7983 44.7188 3.36695 45.9528 3.36695C47.1868 3.36695 48.2363 3.7983 49.0968 4.65992L49.0969 4.6601L53.3452 8.94356L53.3454 8.94374M29.7404 17.7169L53.3454 8.94374M29.7404 17.7169L12.964 0.946957L12.9107 0.893699L12.8577 0.947212L0.946723 12.9686L0.894334 13.0214L0.94681 13.0742L17.5708 29.7972L3.03889 44.349L3.01696 44.3709V44.402V54.9522V55.0272H3.09196H13.6279H13.659L13.681 55.0052L28.2598 40.4065L44.9891 57.0532L45.0419 57.1057L45.0948 57.0533L57.0528 45.2025L57.1062 45.1496L57.0532 45.0963L40.3351 28.2967L48.4092 20.1531L48.4094 20.1529L53.3446 15.211C53.3447 15.2109 53.3448 15.2108 53.3448 15.2108M29.7404 17.7169L53.3448 15.2108M53.3454 8.94374C54.2057 9.80538 54.6364 10.8562 54.6364 12.0917C54.6364 13.3272 54.2057 14.3685 53.3448 15.2108M53.3454 8.94374L53.3448 15.2108M27.1431 20.2412L20.1681 27.2257L5.98315 13.0213L12.958 6.03701L18.5637 11.6504L14.9793 15.2397L14.9264 15.2927L14.9793 15.3457L17.4237 17.7935L17.477 17.8468L17.5301 17.7933L21.1143 14.1752L27.1431 20.2412ZM51.8935 45.0727L44.9187 52.0571L30.7337 37.8528L37.7085 30.8684L43.7373 36.9054L40.1529 40.4948L40.1 40.5478L40.1529 40.6008L42.5973 43.0485L42.6504 43.1017L42.7035 43.0485L46.2877 39.4594L51.8935 45.0727ZM43.2672 20.1766L12.0808 51.4057H6.63387V45.951L37.8202 14.7221L43.2672 20.1766Z" fill="black" stroke="black" stroke-width="0.15"/>
</svg>
