<svg width="51" height="55" viewBox="0 0 51 55" fill="none" xmlns="http://www.w3.org/2000/svg">
<g clip-path="url(#clip0_1015_2574)">
<path d="M47.2808 43.8151V17.3582C46.3805 17.9178 45.3876 18.3503 44.3358 18.6216V43.4251L12.1084 43.1537C11.2417 43.1283 10.5433 43.7812 10.5433 44.6292C10.5433 45.4433 11.1912 46.1132 12.0074 46.1216H12.0747C13.6651 46.1556 14.9525 47.4699 14.9525 49.0811C14.9525 50.6923 13.6398 52.0405 12.0158 52.0405C10.3918 52.0405 9.0792 50.7177 9.0792 49.0811V10.8117H31.1335C30.9063 9.92985 30.7717 9.01403 30.7717 8.05581C30.7717 7.97949 30.7801 7.91166 30.7801 7.84382H7.60667C6.79046 7.84382 6.13414 8.50524 6.13414 9.32778V46.8679H2.94506V3.68023H31.6804C32.16 2.58634 32.808 1.58572 33.5989 0.712303H1.47253C0.656327 0.712303 0 1.37373 0 2.19627V48.3518C0 49.1744 0.656327 49.8358 1.47253 49.8358H6.18462C6.55486 52.7444 9.02029 55.0085 12.0074 55.0085H45.2613C48.4252 55.0085 51 52.4137 51 49.2253C51 46.7576 49.4517 44.6462 47.2808 43.8151ZM45.2613 52.0405H17.0982C17.603 51.1671 17.8891 50.158 17.8891 49.0811C17.8891 48.0042 17.6115 47.029 17.1234 46.164L45.2529 46.4015C46.7928 46.4015 48.0465 47.6735 48.0465 49.2253C48.0465 50.7771 46.7928 52.0405 45.2529 52.0405H45.2613ZM35.9129 13.7627C37.4696 15.3315 39.3544 16.1201 41.5674 16.1201C43.7804 16.1201 45.6652 15.34 47.2219 13.7627C48.7786 12.194 49.5611 10.2945 49.5611 8.06429C49.5611 5.8341 48.787 3.93463 47.2303 2.35739C45.6737 0.788622 43.7888 0 41.5758 0C39.3628 0 37.478 0.780142 35.9213 2.34891C34.3646 3.91767 33.5821 5.81714 33.5821 8.04733C33.5821 10.2775 34.3646 12.177 35.9213 13.7458L35.9129 13.7627ZM40.8942 3.14601H42.3247V9.46346H40.8942V3.13753V3.14601ZM40.9027 11.5071C41.1046 11.3036 41.3402 11.2018 41.6095 11.2018C41.8787 11.2018 42.1143 11.3036 42.3163 11.5071C42.5182 11.7106 42.6192 11.948 42.6192 12.2194C42.6192 12.4907 42.5182 12.7282 42.3163 12.9317C42.1143 13.1352 41.8787 13.237 41.6095 13.237C41.3402 13.237 41.1046 13.1352 40.9027 12.9317C40.7007 12.7282 40.5997 12.4907 40.5997 12.2194C40.5997 11.948 40.7007 11.7106 40.9027 11.5071Z" fill="black"/>
</g>
<defs>
<clipPath id="clip0_1015_2574">
<rect width="51" height="55" fill="white"/>
</clipPath>
</defs>
</svg>
