<svg width="51" height="49" viewBox="0 0 51 49" fill="none" xmlns="http://www.w3.org/2000/svg">
<g clip-path="url(#clip0_1015_895)">
<path d="M25.5 22.6181C22.236 22.6181 19.533 21.5613 17.408 19.4308C15.283 17.3002 14.229 14.5901 14.229 11.3005C14.229 8.01095 15.283 5.30088 17.408 3.18736C19.533 1.07385 22.236 0.0170898 25.5 0.0170898C28.764 0.0170898 31.467 1.07385 33.592 3.18736C35.717 5.30088 36.771 8.01095 36.771 11.3005C36.771 14.5901 35.717 17.3002 33.592 19.4308C31.467 21.5613 28.764 22.6181 25.5 22.6181ZM0 48.628V42.1511C0 40.3273 0.476 38.7251 1.445 37.3615C2.414 35.998 3.672 34.9583 5.219 34.2254C8.806 32.6232 12.24 31.4301 15.572 30.6119C18.887 29.8108 22.202 29.4018 25.5 29.4018C28.798 29.4018 32.096 29.8108 35.394 30.646C38.692 31.4642 42.126 32.6743 45.696 34.2424C47.311 34.9753 48.586 36.015 49.555 37.3615C50.524 38.7081 51 40.3102 51 42.134V48.6109H0V48.628ZM3.859 44.7589H47.141V42.1511C47.141 41.2647 46.869 40.4125 46.308 39.5944C45.747 38.7762 45.016 38.1456 44.115 37.6854C40.766 36.0491 37.621 34.9071 34.646 34.2595C31.688 33.6118 28.628 33.2709 25.5 33.2709C22.372 33.2709 19.295 33.5947 16.286 34.2595C13.277 34.9071 10.132 36.0491 6.834 37.6854C5.933 38.1456 5.202 38.7933 4.658 39.5944C4.114 40.4125 3.842 41.2647 3.842 42.1511V44.7589H3.859ZM25.5 18.749C27.625 18.749 29.393 18.0331 30.804 16.6184C32.215 15.2037 32.929 13.4311 32.929 11.3005C32.929 9.16998 32.215 7.39735 30.804 5.98266C29.393 4.56797 27.625 3.8521 25.5 3.8521C23.375 3.8521 21.607 4.56797 20.196 5.98266C18.785 7.39735 18.071 9.16998 18.071 11.3005C18.071 13.4311 18.785 15.2037 20.196 16.6184C21.607 18.0331 23.375 18.749 25.5 18.749Z" fill="black"/>
</g>
<defs>
<clipPath id="clip0_1015_895">
<rect width="51" height="48.6279" fill="white"/>
</clipPath>
</defs>
</svg>
