<svg width="43" height="41" viewBox="0 0 43 41" fill="none" xmlns="http://www.w3.org/2000/svg">
<g clip-path="url(#clip0_1583_3543)">
<path d="M21.5 19.0694C18.748 19.0694 16.469 18.1784 14.6773 16.3821C12.8857 14.5857 11.997 12.3007 11.997 9.52717C11.997 6.75359 12.8857 4.46863 14.6773 2.68665C16.469 0.904664 18.748 0.0136719 21.5 0.0136719C24.252 0.0136719 26.531 0.904664 28.3227 2.68665C30.1143 4.46863 31.003 6.75359 31.003 9.52717C31.003 12.3007 30.1143 14.5857 28.3227 16.3821C26.531 18.1784 24.252 19.0694 21.5 19.0694ZM0 40.9993V35.5384C0 34.0007 0.401333 32.6498 1.21833 31.5002C2.03533 30.3505 3.096 29.4739 4.40033 28.8559C7.42467 27.5051 10.32 26.4991 13.1293 25.8093C15.9243 25.1339 18.7193 24.789 21.5 24.789C24.2807 24.789 27.0613 25.1339 29.842 25.8381C32.6227 26.5279 35.518 27.5482 38.528 28.8703C39.8897 29.4883 40.9647 30.3649 41.7817 31.5002C42.5987 32.6355 43 33.9863 43 35.524V40.9849H0V40.9993ZM3.25367 37.7371H39.7463V35.5384C39.7463 34.7911 39.517 34.0726 39.044 33.3828C38.571 32.693 37.9547 32.1612 37.195 31.7732C34.3713 30.3936 31.7197 29.4308 29.2113 28.8847C26.7173 28.3386 24.1373 28.0512 21.5 28.0512C18.8627 28.0512 16.2683 28.3242 13.7313 28.8847C11.1943 29.4308 8.54267 30.3936 5.762 31.7732C5.00233 32.1612 4.386 32.7073 3.92733 33.3828C3.46867 34.0726 3.23933 34.7911 3.23933 35.5384V37.7371H3.25367ZM21.5 15.8072C23.2917 15.8072 24.7823 15.2036 25.972 14.0109C27.1617 12.8181 27.7637 11.3235 27.7637 9.52717C27.7637 7.73081 27.1617 6.23624 25.972 5.04346C24.7823 3.85069 23.2917 3.24711 21.5 3.24711C19.7083 3.24711 18.2177 3.85069 17.028 5.04346C15.8383 6.23624 15.2363 7.73081 15.2363 9.52717C15.2363 11.3235 15.8383 12.8181 17.028 14.0109C18.2177 15.2036 19.7083 15.8072 21.5 15.8072Z" fill="black"/>
</g>
<defs>
<clipPath id="clip0_1583_3543">
<rect width="43" height="41" fill="white"/>
</clipPath>
</defs>
</svg>
