<svg width="198" height="202" viewBox="0 0 198 202" fill="none" xmlns="http://www.w3.org/2000/svg">
<g clip-path="url(#clip0_1015_1861)">
<path d="M11.1409 8.02C13.3555 8.02 15.1509 6.22466 15.1509 4.01C15.1509 1.79534 13.3555 0 11.1409 0C8.9262 0 7.13086 1.79534 7.13086 4.01C7.13086 6.22466 8.9262 8.02 11.1409 8.02Z" fill="#DDDBDB"/>
<path d="M25.4104 8.02C27.6251 8.02 29.4204 6.22466 29.4204 4.01C29.4204 1.79534 27.6251 0 25.4104 0C23.1957 0 21.4004 1.79534 21.4004 4.01C21.4004 6.22466 23.1957 8.02 25.4104 8.02Z" fill="#DDDBDB"/>
<path d="M39.6702 8.02C41.8848 8.02 43.6802 6.22466 43.6802 4.01C43.6802 1.79534 41.8848 0 39.6702 0C37.4555 0 35.6602 1.79534 35.6602 4.01C35.6602 6.22466 37.4555 8.02 39.6702 8.02Z" fill="#DDDBDB"/>
<path d="M53.9299 8.02C56.1446 8.02 57.9399 6.22466 57.9399 4.01C57.9399 1.79534 56.1446 0 53.9299 0C51.7153 0 49.9199 1.79534 49.9199 4.01C49.9199 6.22466 51.7153 8.02 53.9299 8.02Z" fill="#DDDBDB"/>
<path d="M68.1897 8.02C70.4044 8.02 72.1997 6.22466 72.1997 4.01C72.1997 1.79534 70.4044 0 68.1897 0C65.975 0 64.1797 1.79534 64.1797 4.01C64.1797 6.22466 65.975 8.02 68.1897 8.02Z" fill="#DDDBDB"/>
<path d="M82.4494 8.02C84.6641 8.02 86.4594 6.22466 86.4594 4.01C86.4594 1.79534 84.6641 0 82.4494 0C80.2348 0 78.4395 1.79534 78.4395 4.01C78.4395 6.22466 80.2348 8.02 82.4494 8.02Z" fill="#DDDBDB"/>
<path d="M96.7209 8.02C98.9356 8.02 100.731 6.22466 100.731 4.01C100.731 1.79534 98.9356 0 96.7209 0C94.5063 0 92.7109 1.79534 92.7109 4.01C92.7109 6.22466 94.5063 8.02 96.7209 8.02Z" fill="#DDDBDB"/>
<path d="M110.981 8.02C113.195 8.02 114.991 6.22466 114.991 4.01C114.991 1.79534 113.195 0 110.981 0C108.766 0 106.971 1.79534 106.971 4.01C106.971 6.22466 108.766 8.02 110.981 8.02Z" fill="#DDDBDB"/>
<path d="M125.24 8.02C127.455 8.02 129.25 6.22466 129.25 4.01C129.25 1.79534 127.455 0 125.24 0C123.026 0 121.23 1.79534 121.23 4.01C121.23 6.22466 123.026 8.02 125.24 8.02Z" fill="#DDDBDB"/>
<path d="M4.01 17.0801C6.22466 17.0801 8.02 15.2847 8.02 13.0701C8.02 10.8554 6.22466 9.06006 4.01 9.06006C1.79534 9.06006 0 10.8554 0 13.0701C0 15.2847 1.79534 17.0801 4.01 17.0801Z" fill="#DDDBDB"/>
<path d="M18.2795 17.0801C20.4942 17.0801 22.2895 15.2847 22.2895 13.0701C22.2895 10.8554 20.4942 9.06006 18.2795 9.06006C16.0649 9.06006 14.2695 10.8554 14.2695 13.0701C14.2695 15.2847 16.0649 17.0801 18.2795 17.0801Z" fill="#DDDBDB"/>
<path d="M32.5393 17.0801C34.754 17.0801 36.5493 15.2847 36.5493 13.0701C36.5493 10.8554 34.754 9.06006 32.5393 9.06006C30.3246 9.06006 28.5293 10.8554 28.5293 13.0701C28.5293 15.2847 30.3246 17.0801 32.5393 17.0801Z" fill="#DDDBDB"/>
<path d="M46.7991 17.0801C49.0137 17.0801 50.8091 15.2847 50.8091 13.0701C50.8091 10.8554 49.0137 9.06006 46.7991 9.06006C44.5844 9.06006 42.7891 10.8554 42.7891 13.0701C42.7891 15.2847 44.5844 17.0801 46.7991 17.0801Z" fill="#DDDBDB"/>
<path d="M61.0608 17.0801C63.2754 17.0801 65.0708 15.2847 65.0708 13.0701C65.0708 10.8554 63.2754 9.06006 61.0608 9.06006C58.8461 9.06006 57.0508 10.8554 57.0508 13.0701C57.0508 15.2847 58.8461 17.0801 61.0608 17.0801Z" fill="#DDDBDB"/>
<path d="M75.3205 17.0801C77.5352 17.0801 79.3306 15.2847 79.3306 13.0701C79.3306 10.8554 77.5352 9.06006 75.3205 9.06006C73.1059 9.06006 71.3105 10.8554 71.3105 13.0701C71.3105 15.2847 73.1059 17.0801 75.3205 17.0801Z" fill="#DDDBDB"/>
<path d="M89.5803 17.0801C91.795 17.0801 93.5903 15.2847 93.5903 13.0701C93.5903 10.8554 91.795 9.06006 89.5803 9.06006C87.3657 9.06006 85.5703 10.8554 85.5703 13.0701C85.5703 15.2847 87.3657 17.0801 89.5803 17.0801Z" fill="#DDDBDB"/>
<path d="M103.85 17.0801C106.065 17.0801 107.86 15.2847 107.86 13.0701C107.86 10.8554 106.065 9.06006 103.85 9.06006C101.635 9.06006 99.8398 10.8554 99.8398 13.0701C99.8398 15.2847 101.635 17.0801 103.85 17.0801Z" fill="#DDDBDB"/>
<path d="M118.11 17.0801C120.324 17.0801 122.12 15.2847 122.12 13.0701C122.12 10.8554 120.324 9.06006 118.11 9.06006C115.895 9.06006 114.1 10.8554 114.1 13.0701C114.1 15.2847 115.895 17.0801 118.11 17.0801Z" fill="#DDDBDB"/>
<path d="M132.369 17.0801C134.584 17.0801 136.379 15.2847 136.379 13.0701C136.379 10.8554 134.584 9.06006 132.369 9.06006C130.155 9.06006 128.359 10.8554 128.359 13.0701C128.359 15.2847 130.155 17.0801 132.369 17.0801Z" fill="#DDDBDB"/>
<path d="M11.1409 26.54C13.3555 26.54 15.1509 24.7447 15.1509 22.53C15.1509 20.3154 13.3555 18.52 11.1409 18.52C8.9262 18.52 7.13086 20.3154 7.13086 22.53C7.13086 24.7447 8.9262 26.54 11.1409 26.54Z" fill="#DDDBDB"/>
<path d="M25.4104 26.54C27.6251 26.54 29.4204 24.7447 29.4204 22.53C29.4204 20.3154 27.6251 18.52 25.4104 18.52C23.1957 18.52 21.4004 20.3154 21.4004 22.53C21.4004 24.7447 23.1957 26.54 25.4104 26.54Z" fill="#DDDBDB"/>
<path d="M39.6702 26.54C41.8848 26.54 43.6802 24.7447 43.6802 22.53C43.6802 20.3154 41.8848 18.52 39.6702 18.52C37.4555 18.52 35.6602 20.3154 35.6602 22.53C35.6602 24.7447 37.4555 26.54 39.6702 26.54Z" fill="#DDDBDB"/>
<path d="M53.9299 26.54C56.1446 26.54 57.9399 24.7447 57.9399 22.53C57.9399 20.3154 56.1446 18.52 53.9299 18.52C51.7153 18.52 49.9199 20.3154 49.9199 22.53C49.9199 24.7447 51.7153 26.54 53.9299 26.54Z" fill="#DDDBDB"/>
<path d="M68.1897 26.54C70.4044 26.54 72.1997 24.7447 72.1997 22.53C72.1997 20.3154 70.4044 18.52 68.1897 18.52C65.975 18.52 64.1797 20.3154 64.1797 22.53C64.1797 24.7447 65.975 26.54 68.1897 26.54Z" fill="#DDDBDB"/>
<path d="M82.4494 26.54C84.6641 26.54 86.4594 24.7447 86.4594 22.53C86.4594 20.3154 84.6641 18.52 82.4494 18.52C80.2348 18.52 78.4395 20.3154 78.4395 22.53C78.4395 24.7447 80.2348 26.54 82.4494 26.54Z" fill="#DDDBDB"/>
<path d="M96.7209 26.54C98.9356 26.54 100.731 24.7447 100.731 22.53C100.731 20.3154 98.9356 18.52 96.7209 18.52C94.5063 18.52 92.7109 20.3154 92.7109 22.53C92.7109 24.7447 94.5063 26.54 96.7209 26.54Z" fill="#DDDBDB"/>
<path d="M110.981 26.54C113.195 26.54 114.991 24.7447 114.991 22.53C114.991 20.3154 113.195 18.52 110.981 18.52C108.766 18.52 106.971 20.3154 106.971 22.53C106.971 24.7447 108.766 26.54 110.981 26.54Z" fill="#DDDBDB"/>
<path d="M125.24 26.54C127.455 26.54 129.25 24.7447 129.25 22.53C129.25 20.3154 127.455 18.52 125.24 18.52C123.026 18.52 121.23 20.3154 121.23 22.53C121.23 24.7447 123.026 26.54 125.24 26.54Z" fill="#DDDBDB"/>
<path d="M4.01 35.6001C6.22466 35.6001 8.02 33.8047 8.02 31.5901C8.02 29.3754 6.22466 27.5801 4.01 27.5801C1.79534 27.5801 0 29.3754 0 31.5901C0 33.8047 1.79534 35.6001 4.01 35.6001Z" fill="#DDDBDB"/>
<path d="M18.2795 35.6001C20.4942 35.6001 22.2895 33.8047 22.2895 31.5901C22.2895 29.3754 20.4942 27.5801 18.2795 27.5801C16.0649 27.5801 14.2695 29.3754 14.2695 31.5901C14.2695 33.8047 16.0649 35.6001 18.2795 35.6001Z" fill="#DDDBDB"/>
<path d="M32.5393 35.6001C34.754 35.6001 36.5493 33.8047 36.5493 31.5901C36.5493 29.3754 34.754 27.5801 32.5393 27.5801C30.3246 27.5801 28.5293 29.3754 28.5293 31.5901C28.5293 33.8047 30.3246 35.6001 32.5393 35.6001Z" fill="#DDDBDB"/>
<path d="M46.7991 35.6001C49.0137 35.6001 50.8091 33.8047 50.8091 31.5901C50.8091 29.3754 49.0137 27.5801 46.7991 27.5801C44.5844 27.5801 42.7891 29.3754 42.7891 31.5901C42.7891 33.8047 44.5844 35.6001 46.7991 35.6001Z" fill="#DDDBDB"/>
<path d="M61.0608 35.6001C63.2754 35.6001 65.0708 33.8047 65.0708 31.5901C65.0708 29.3754 63.2754 27.5801 61.0608 27.5801C58.8461 27.5801 57.0508 29.3754 57.0508 31.5901C57.0508 33.8047 58.8461 35.6001 61.0608 35.6001Z" fill="#DDDBDB"/>
<path d="M89.5803 35.6001C91.795 35.6001 93.5903 33.8047 93.5903 31.5901C93.5903 29.3754 91.795 27.5801 89.5803 27.5801C87.3657 27.5801 85.5703 29.3754 85.5703 31.5901C85.5703 33.8047 87.3657 35.6001 89.5803 35.6001Z" fill="#DDDBDB"/>
<path d="M103.85 35.6001C106.065 35.6001 107.86 33.8047 107.86 31.5901C107.86 29.3754 106.065 27.5801 103.85 27.5801C101.635 27.5801 99.8398 29.3754 99.8398 31.5901C99.8398 33.8047 101.635 35.6001 103.85 35.6001Z" fill="#DDDBDB"/>
<path d="M118.11 35.6001C120.324 35.6001 122.12 33.8047 122.12 31.5901C122.12 29.3754 120.324 27.5801 118.11 27.5801C115.895 27.5801 114.1 29.3754 114.1 31.5901C114.1 33.8047 115.895 35.6001 118.11 35.6001Z" fill="#DDDBDB"/>
<path d="M132.369 35.6001C134.584 35.6001 136.379 33.8047 136.379 31.5901C136.379 29.3754 134.584 27.5801 132.369 27.5801C130.155 27.5801 128.359 29.3754 128.359 31.5901C128.359 33.8047 130.155 35.6001 132.369 35.6001Z" fill="#DDDBDB"/>
<path d="M11.1409 45.0498C13.3555 45.0498 15.1509 43.2544 15.1509 41.0398C15.1509 38.8251 13.3555 37.0298 11.1409 37.0298C8.9262 37.0298 7.13086 38.8251 7.13086 41.0398C7.13086 43.2544 8.9262 45.0498 11.1409 45.0498Z" fill="#DDDBDB"/>
<path d="M25.4104 45.0498C27.6251 45.0498 29.4204 43.2544 29.4204 41.0398C29.4204 38.8251 27.6251 37.0298 25.4104 37.0298C23.1957 37.0298 21.4004 38.8251 21.4004 41.0398C21.4004 43.2544 23.1957 45.0498 25.4104 45.0498Z" fill="#DDDBDB"/>
<path d="M39.6702 45.0498C41.8848 45.0498 43.6802 43.2544 43.6802 41.0398C43.6802 38.8251 41.8848 37.0298 39.6702 37.0298C37.4555 37.0298 35.6602 38.8251 35.6602 41.0398C35.6602 43.2544 37.4555 45.0498 39.6702 45.0498Z" fill="#DDDBDB"/>
<path d="M53.9299 45.0498C56.1446 45.0498 57.9399 43.2544 57.9399 41.0398C57.9399 38.8251 56.1446 37.0298 53.9299 37.0298C51.7153 37.0298 49.9199 38.8251 49.9199 41.0398C49.9199 43.2544 51.7153 45.0498 53.9299 45.0498Z" fill="#DDDBDB"/>
<path d="M96.7209 45.0498C98.9356 45.0498 100.731 43.2544 100.731 41.0398C100.731 38.8251 98.9356 37.0298 96.7209 37.0298C94.5063 37.0298 92.7109 38.8251 92.7109 41.0398C92.7109 43.2544 94.5063 45.0498 96.7209 45.0498Z" fill="#DDDBDB"/>
<path d="M110.981 45.0498C113.195 45.0498 114.991 43.2544 114.991 41.0398C114.991 38.8251 113.195 37.0298 110.981 37.0298C108.766 37.0298 106.971 38.8251 106.971 41.0398C106.971 43.2544 108.766 45.0498 110.981 45.0498Z" fill="#DDDBDB"/>
<path d="M125.24 45.0498C127.455 45.0498 129.25 43.2544 129.25 41.0398C129.25 38.8251 127.455 37.0298 125.24 37.0298C123.026 37.0298 121.23 38.8251 121.23 41.0398C121.23 43.2544 123.026 45.0498 125.24 45.0498Z" fill="#DDDBDB"/>
<path d="M4.01 54.1098C6.22466 54.1098 8.02 52.3145 8.02 50.0998C8.02 47.8852 6.22466 46.0898 4.01 46.0898C1.79534 46.0898 0 47.8852 0 50.0998C0 52.3145 1.79534 54.1098 4.01 54.1098Z" fill="#DDDBDB"/>
<path d="M18.2795 54.1098C20.4942 54.1098 22.2895 52.3145 22.2895 50.0998C22.2895 47.8852 20.4942 46.0898 18.2795 46.0898C16.0649 46.0898 14.2695 47.8852 14.2695 50.0998C14.2695 52.3145 16.0649 54.1098 18.2795 54.1098Z" fill="#DDDBDB"/>
<path d="M32.5393 54.1098C34.754 54.1098 36.5493 52.3145 36.5493 50.0998C36.5493 47.8852 34.754 46.0898 32.5393 46.0898C30.3246 46.0898 28.5293 47.8852 28.5293 50.0998C28.5293 52.3145 30.3246 54.1098 32.5393 54.1098Z" fill="#DDDBDB"/>
<path d="M46.7991 54.1098C49.0137 54.1098 50.8091 52.3145 50.8091 50.0998C50.8091 47.8852 49.0137 46.0898 46.7991 46.0898C44.5844 46.0898 42.7891 47.8852 42.7891 50.0998C42.7891 52.3145 44.5844 54.1098 46.7991 54.1098Z" fill="#DDDBDB"/>
<path d="M103.85 54.1098C106.065 54.1098 107.86 52.3145 107.86 50.0998C107.86 47.8852 106.065 46.0898 103.85 46.0898C101.635 46.0898 99.8398 47.8852 99.8398 50.0998C99.8398 52.3145 101.635 54.1098 103.85 54.1098Z" fill="#DDDBDB"/>
<path d="M118.11 54.1098C120.324 54.1098 122.12 52.3145 122.12 50.0998C122.12 47.8852 120.324 46.0898 118.11 46.0898C115.895 46.0898 114.1 47.8852 114.1 50.0998C114.1 52.3145 115.895 54.1098 118.11 54.1098Z" fill="#DDDBDB"/>
<path d="M132.369 54.1098C134.584 54.1098 136.379 52.3145 136.379 50.0998C136.379 47.8852 134.584 46.0898 132.369 46.0898C130.155 46.0898 128.359 47.8852 128.359 50.0998C128.359 52.3145 130.155 54.1098 132.369 54.1098Z" fill="#DDDBDB"/>
<path d="M11.1409 63.5698C13.3555 63.5698 15.1509 61.7745 15.1509 59.5598C15.1509 57.3451 13.3555 55.5498 11.1409 55.5498C8.9262 55.5498 7.13086 57.3451 7.13086 59.5598C7.13086 61.7745 8.9262 63.5698 11.1409 63.5698Z" fill="#DDDBDB"/>
<path d="M25.4104 63.5698C27.6251 63.5698 29.4204 61.7745 29.4204 59.5598C29.4204 57.3451 27.6251 55.5498 25.4104 55.5498C23.1957 55.5498 21.4004 57.3451 21.4004 59.5598C21.4004 61.7745 23.1957 63.5698 25.4104 63.5698Z" fill="#DDDBDB"/>
<path d="M39.6702 63.5698C41.8848 63.5698 43.6802 61.7745 43.6802 59.5598C43.6802 57.3451 41.8848 55.5498 39.6702 55.5498C37.4555 55.5498 35.6602 57.3451 35.6602 59.5598C35.6602 61.7745 37.4555 63.5698 39.6702 63.5698Z" fill="#DDDBDB"/>
<path d="M57.9099 59.7301C58.1899 59.4001 54.8799 59.9301 52.8299 58.1901C52.2299 57.6801 51.7999 57.0501 51.5099 56.3701C50.5499 57.1001 49.9199 58.2501 49.9199 59.5501C49.9199 61.7701 51.7199 63.5601 53.9299 63.5601C56.1399 63.5601 57.8199 61.8601 57.9199 59.7401H57.8999L57.9099 59.7301Z" fill="#DDDBDB"/>
<path d="M96.7209 63.5698C98.9356 63.5698 100.731 61.7745 100.731 59.5598C100.731 57.3451 98.9356 55.5498 96.7209 55.5498C94.5063 55.5498 92.7109 57.3451 92.7109 59.5598C92.7109 61.7745 94.5063 63.5698 96.7209 63.5698Z" fill="#DDDBDB"/>
<path d="M110.981 63.5698C113.195 63.5698 114.991 61.7745 114.991 59.5598C114.991 57.3451 113.195 55.5498 110.981 55.5498C108.766 55.5498 106.971 57.3451 106.971 59.5598C106.971 61.7745 108.766 63.5698 110.981 63.5698Z" fill="#DDDBDB"/>
<path d="M125.24 63.5698C127.455 63.5698 129.25 61.7745 129.25 59.5598C129.25 57.3451 127.455 55.5498 125.24 55.5498C123.026 55.5498 121.23 57.3451 121.23 59.5598C121.23 61.7745 123.026 63.5698 125.24 63.5698Z" fill="#DDDBDB"/>
<path d="M4.01 72.6201C6.22466 72.6201 8.02 70.8248 8.02 68.6101C8.02 66.3954 6.22466 64.6001 4.01 64.6001C1.79534 64.6001 0 66.3954 0 68.6101C0 70.8248 1.79534 72.6201 4.01 72.6201Z" fill="#DDDBDB"/>
<path d="M18.2795 72.6201C20.4942 72.6201 22.2895 70.8248 22.2895 68.6101C22.2895 66.3954 20.4942 64.6001 18.2795 64.6001C16.0649 64.6001 14.2695 66.3954 14.2695 68.6101C14.2695 70.8248 16.0649 72.6201 18.2795 72.6201Z" fill="#DDDBDB"/>
<path d="M32.5393 72.6201C34.754 72.6201 36.5493 70.8248 36.5493 68.6101C36.5493 66.3954 34.754 64.6001 32.5393 64.6001C30.3246 64.6001 28.5293 66.3954 28.5293 68.6101C28.5293 70.8248 30.3246 72.6201 32.5393 72.6201Z" fill="#DDDBDB"/>
<path d="M46.7991 72.6201C49.0137 72.6201 50.8091 70.8248 50.8091 68.6101C50.8091 66.3954 49.0137 64.6001 46.7991 64.6001C44.5844 64.6001 42.7891 66.3954 42.7891 68.6101C42.7891 70.8248 44.5844 72.6201 46.7991 72.6201Z" fill="#DDDBDB"/>
<path d="M61.0608 72.6201C63.2754 72.6201 65.0708 70.8248 65.0708 68.6101C65.0708 66.3954 63.2754 64.6001 61.0608 64.6001C58.8461 64.6001 57.0508 66.3954 57.0508 68.6101C57.0508 70.8248 58.8461 72.6201 61.0608 72.6201Z" fill="#DDDBDB"/>
<path d="M89.5803 72.6201C91.795 72.6201 93.5903 70.8248 93.5903 68.6101C93.5903 66.3954 91.795 64.6001 89.5803 64.6001C87.3657 64.6001 85.5703 66.3954 85.5703 68.6101C85.5703 70.8248 87.3657 72.6201 89.5803 72.6201Z" fill="#DDDBDB"/>
<path d="M103.85 72.6201C106.065 72.6201 107.86 70.8248 107.86 68.6101C107.86 66.3954 106.065 64.6001 103.85 64.6001C101.635 64.6001 99.8398 66.3954 99.8398 68.6101C99.8398 70.8248 101.635 72.6201 103.85 72.6201Z" fill="#DDDBDB"/>
<path d="M118.11 72.6201C120.324 72.6201 122.12 70.8248 122.12 68.6101C122.12 66.3954 120.324 64.6001 118.11 64.6001C115.895 64.6001 114.1 66.3954 114.1 68.6101C114.1 70.8248 115.895 72.6201 118.11 72.6201Z" fill="#DDDBDB"/>
<path d="M132.369 72.6201C134.584 72.6201 136.379 70.8248 136.379 68.6101C136.379 66.3954 134.584 64.6001 132.369 64.6001C130.155 64.6001 128.359 66.3954 128.359 68.6101C128.359 70.8248 130.155 72.6201 132.369 72.6201Z" fill="#DDDBDB"/>
<path d="M11.1409 82.0801C13.3555 82.0801 15.1509 80.2847 15.1509 78.0701C15.1509 75.8554 13.3555 74.0601 11.1409 74.0601C8.9262 74.0601 7.13086 75.8554 7.13086 78.0701C7.13086 80.2847 8.9262 82.0801 11.1409 82.0801Z" fill="#DDDBDB"/>
<path d="M25.4104 82.0801C27.6251 82.0801 29.4204 80.2847 29.4204 78.0701C29.4204 75.8554 27.6251 74.0601 25.4104 74.0601C23.1957 74.0601 21.4004 75.8554 21.4004 78.0701C21.4004 80.2847 23.1957 82.0801 25.4104 82.0801Z" fill="#DDDBDB"/>
<path d="M39.6702 82.0801C41.8848 82.0801 43.6802 80.2847 43.6802 78.0701C43.6802 75.8554 41.8848 74.0601 39.6702 74.0601C37.4555 74.0601 35.6602 75.8554 35.6602 78.0701C35.6602 80.2847 37.4555 82.0801 39.6702 82.0801Z" fill="#DDDBDB"/>
<path d="M53.9299 82.0801C56.1446 82.0801 57.9399 80.2847 57.9399 78.0701C57.9399 75.8554 56.1446 74.0601 53.9299 74.0601C51.7153 74.0601 49.9199 75.8554 49.9199 78.0701C49.9199 80.2847 51.7153 82.0801 53.9299 82.0801Z" fill="#DDDBDB"/>
<path d="M68.1897 82.0801C70.4044 82.0801 72.1997 80.2847 72.1997 78.0701C72.1997 75.8554 70.4044 74.0601 68.1897 74.0601C65.975 74.0601 64.1797 75.8554 64.1797 78.0701C64.1797 80.2847 65.975 82.0801 68.1897 82.0801Z" fill="#DDDBDB"/>
<path d="M82.4494 82.0801C84.6641 82.0801 86.4594 80.2847 86.4594 78.0701C86.4594 75.8554 84.6641 74.0601 82.4494 74.0601C80.2348 74.0601 78.4395 75.8554 78.4395 78.0701C78.4395 80.2847 80.2348 82.0801 82.4494 82.0801Z" fill="#DDDBDB"/>
<path d="M96.7209 82.0801C98.9356 82.0801 100.731 80.2847 100.731 78.0701C100.731 75.8554 98.9356 74.0601 96.7209 74.0601C94.5063 74.0601 92.7109 75.8554 92.7109 78.0701C92.7109 80.2847 94.5063 82.0801 96.7209 82.0801Z" fill="#DDDBDB"/>
<path d="M110.981 82.0801C113.195 82.0801 114.991 80.2847 114.991 78.0701C114.991 75.8554 113.195 74.0601 110.981 74.0601C108.766 74.0601 106.971 75.8554 106.971 78.0701C106.971 80.2847 108.766 82.0801 110.981 82.0801Z" fill="#DDDBDB"/>
<path d="M125.24 82.0801C127.455 82.0801 129.25 80.2847 129.25 78.0701C129.25 75.8554 127.455 74.0601 125.24 74.0601C123.026 74.0601 121.23 75.8554 121.23 78.0701C121.23 80.2847 123.026 82.0801 125.24 82.0801Z" fill="#DDDBDB"/>
<path d="M4.01 91.1401C6.22466 91.1401 8.02 89.3448 8.02 87.1301C8.02 84.9154 6.22466 83.1201 4.01 83.1201C1.79534 83.1201 0 84.9154 0 87.1301C0 89.3448 1.79534 91.1401 4.01 91.1401Z" fill="#DDDBDB"/>
<path d="M18.2795 91.1401C20.4942 91.1401 22.2895 89.3448 22.2895 87.1301C22.2895 84.9154 20.4942 83.1201 18.2795 83.1201C16.0649 83.1201 14.2695 84.9154 14.2695 87.1301C14.2695 89.3448 16.0649 91.1401 18.2795 91.1401Z" fill="#DDDBDB"/>
<path d="M32.5393 91.1401C34.754 91.1401 36.5493 89.3448 36.5493 87.1301C36.5493 84.9154 34.754 83.1201 32.5393 83.1201C30.3246 83.1201 28.5293 84.9154 28.5293 87.1301C28.5293 89.3448 30.3246 91.1401 32.5393 91.1401Z" fill="#DDDBDB"/>
<path d="M46.7991 91.1401C49.0137 91.1401 50.8091 89.3448 50.8091 87.1301C50.8091 84.9154 49.0137 83.1201 46.7991 83.1201C44.5844 83.1201 42.7891 84.9154 42.7891 87.1301C42.7891 89.3448 44.5844 91.1401 46.7991 91.1401Z" fill="#DDDBDB"/>
<path d="M61.0608 91.1401C63.2754 91.1401 65.0708 89.3448 65.0708 87.1301C65.0708 84.9154 63.2754 83.1201 61.0608 83.1201C58.8461 83.1201 57.0508 84.9154 57.0508 87.1301C57.0508 89.3448 58.8461 91.1401 61.0608 91.1401Z" fill="#DDDBDB"/>
<path d="M75.3205 91.1401C77.5352 91.1401 79.3306 89.3448 79.3306 87.1301C79.3306 84.9154 77.5352 83.1201 75.3205 83.1201C73.1059 83.1201 71.3105 84.9154 71.3105 87.1301C71.3105 89.3448 73.1059 91.1401 75.3205 91.1401Z" fill="#DDDBDB"/>
<path d="M89.5803 91.1401C91.795 91.1401 93.5903 89.3448 93.5903 87.1301C93.5903 84.9154 91.795 83.1201 89.5803 83.1201C87.3657 83.1201 85.5703 84.9154 85.5703 87.1301C85.5703 89.3448 87.3657 91.1401 89.5803 91.1401Z" fill="#DDDBDB"/>
<path d="M103.85 91.1401C106.065 91.1401 107.86 89.3448 107.86 87.1301C107.86 84.9154 106.065 83.1201 103.85 83.1201C101.635 83.1201 99.8398 84.9154 99.8398 87.1301C99.8398 89.3448 101.635 91.1401 103.85 91.1401Z" fill="#DDDBDB"/>
<path d="M118.11 91.1401C120.324 91.1401 122.12 89.3448 122.12 87.1301C122.12 84.9154 120.324 83.1201 118.11 83.1201C115.895 83.1201 114.1 84.9154 114.1 87.1301C114.1 89.3448 115.895 91.1401 118.11 91.1401Z" fill="#DDDBDB"/>
<path d="M132.369 91.1401C134.584 91.1401 136.379 89.3448 136.379 87.1301C136.379 84.9154 134.584 83.1201 132.369 83.1201C130.155 83.1201 128.359 84.9154 128.359 87.1301C128.359 89.3448 130.155 91.1401 132.369 91.1401Z" fill="#DDDBDB"/>
<path d="M11.1409 100.59C13.3555 100.59 15.1509 98.7945 15.1509 96.5798C15.1509 94.3652 13.3555 92.5698 11.1409 92.5698C8.9262 92.5698 7.13086 94.3652 7.13086 96.5798C7.13086 98.7945 8.9262 100.59 11.1409 100.59Z" fill="#DDDBDB"/>
<path d="M25.4104 100.59C27.6251 100.59 29.4204 98.7945 29.4204 96.5798C29.4204 94.3652 27.6251 92.5698 25.4104 92.5698C23.1957 92.5698 21.4004 94.3652 21.4004 96.5798C21.4004 98.7945 23.1957 100.59 25.4104 100.59Z" fill="#DDDBDB"/>
<path d="M39.6702 100.59C41.8848 100.59 43.6802 98.7945 43.6802 96.5798C43.6802 94.3652 41.8848 92.5698 39.6702 92.5698C37.4555 92.5698 35.6602 94.3652 35.6602 96.5798C35.6602 98.7945 37.4555 100.59 39.6702 100.59Z" fill="#DDDBDB"/>
<path d="M53.9299 100.59C56.1446 100.59 57.9399 98.7945 57.9399 96.5798C57.9399 94.3652 56.1446 92.5698 53.9299 92.5698C51.7153 92.5698 49.9199 94.3652 49.9199 96.5798C49.9199 98.7945 51.7153 100.59 53.9299 100.59Z" fill="#DDDBDB"/>
<path d="M68.1897 100.59C70.4044 100.59 72.1997 98.7945 72.1997 96.5798C72.1997 94.3652 70.4044 92.5698 68.1897 92.5698C65.975 92.5698 64.1797 94.3652 64.1797 96.5798C64.1797 98.7945 65.975 100.59 68.1897 100.59Z" fill="#DDDBDB"/>
<path d="M82.4494 100.59C84.6641 100.59 86.4594 98.7945 86.4594 96.5798C86.4594 94.3652 84.6641 92.5698 82.4494 92.5698C80.2348 92.5698 78.4395 94.3652 78.4395 96.5798C78.4395 98.7945 80.2348 100.59 82.4494 100.59Z" fill="#DDDBDB"/>
<path d="M96.7209 100.59C98.9356 100.59 100.731 98.7945 100.731 96.5798C100.731 94.3652 98.9356 92.5698 96.7209 92.5698C94.5063 92.5698 92.7109 94.3652 92.7109 96.5798C92.7109 98.7945 94.5063 100.59 96.7209 100.59Z" fill="#DDDBDB"/>
<path d="M110.981 100.59C113.195 100.59 114.991 98.7945 114.991 96.5798C114.991 94.3652 113.195 92.5698 110.981 92.5698C108.766 92.5698 106.971 94.3652 106.971 96.5798C106.971 98.7945 108.766 100.59 110.981 100.59Z" fill="#DDDBDB"/>
<path d="M125.24 100.59C127.455 100.59 129.25 98.7945 129.25 96.5798C129.25 94.3652 127.455 92.5698 125.24 92.5698C123.026 92.5698 121.23 94.3652 121.23 96.5798C121.23 98.7945 123.026 100.59 125.24 100.59Z" fill="#DDDBDB"/>
<path d="M4.01 109.65C6.22466 109.65 8.02 107.855 8.02 105.64C8.02 103.425 6.22466 101.63 4.01 101.63C1.79534 101.63 0 103.425 0 105.64C0 107.855 1.79534 109.65 4.01 109.65Z" fill="#DDDBDB"/>
<path d="M18.2795 109.65C20.4942 109.65 22.2895 107.855 22.2895 105.64C22.2895 103.425 20.4942 101.63 18.2795 101.63C16.0649 101.63 14.2695 103.425 14.2695 105.64C14.2695 107.855 16.0649 109.65 18.2795 109.65Z" fill="#DDDBDB"/>
<path d="M32.5393 109.65C34.754 109.65 36.5493 107.855 36.5493 105.64C36.5493 103.425 34.754 101.63 32.5393 101.63C30.3246 101.63 28.5293 103.425 28.5293 105.64C28.5293 107.855 30.3246 109.65 32.5393 109.65Z" fill="#DDDBDB"/>
<path d="M46.7991 109.65C49.0137 109.65 50.8091 107.855 50.8091 105.64C50.8091 103.425 49.0137 101.63 46.7991 101.63C44.5844 101.63 42.7891 103.425 42.7891 105.64C42.7891 107.855 44.5844 109.65 46.7991 109.65Z" fill="#DDDBDB"/>
<path d="M61.0608 109.65C63.2754 109.65 65.0708 107.855 65.0708 105.64C65.0708 103.425 63.2754 101.63 61.0608 101.63C58.8461 101.63 57.0508 103.425 57.0508 105.64C57.0508 107.855 58.8461 109.65 61.0608 109.65Z" fill="#DDDBDB"/>
<path d="M75.3205 109.65C77.5352 109.65 79.3306 107.855 79.3306 105.64C79.3306 103.425 77.5352 101.63 75.3205 101.63C73.1059 101.63 71.3105 103.425 71.3105 105.64C71.3105 107.855 73.1059 109.65 75.3205 109.65Z" fill="#DDDBDB"/>
<path d="M89.5803 109.65C91.795 109.65 93.5903 107.855 93.5903 105.64C93.5903 103.425 91.795 101.63 89.5803 101.63C87.3657 101.63 85.5703 103.425 85.5703 105.64C85.5703 107.855 87.3657 109.65 89.5803 109.65Z" fill="#DDDBDB"/>
<path d="M103.85 109.65C106.065 109.65 107.86 107.855 107.86 105.64C107.86 103.425 106.065 101.63 103.85 101.63C101.635 101.63 99.8398 103.425 99.8398 105.64C99.8398 107.855 101.635 109.65 103.85 109.65Z" fill="#DDDBDB"/>
<path d="M118.11 109.65C120.324 109.65 122.12 107.855 122.12 105.64C122.12 103.425 120.324 101.63 118.11 101.63C115.895 101.63 114.1 103.425 114.1 105.64C114.1 107.855 115.895 109.65 118.11 109.65Z" fill="#DDDBDB"/>
<path d="M132.369 109.65C134.584 109.65 136.379 107.855 136.379 105.64C136.379 103.425 134.584 101.63 132.369 101.63C130.155 101.63 128.359 103.425 128.359 105.64C128.359 107.855 130.155 109.65 132.369 109.65Z" fill="#DDDBDB"/>
<path d="M11.1409 119.11C13.3555 119.11 15.1509 117.315 15.1509 115.1C15.1509 112.885 13.3555 111.09 11.1409 111.09C8.9262 111.09 7.13086 112.885 7.13086 115.1C7.13086 117.315 8.9262 119.11 11.1409 119.11Z" fill="#DDDBDB"/>
<path d="M25.4104 119.11C27.6251 119.11 29.4204 117.315 29.4204 115.1C29.4204 112.885 27.6251 111.09 25.4104 111.09C23.1957 111.09 21.4004 112.885 21.4004 115.1C21.4004 117.315 23.1957 119.11 25.4104 119.11Z" fill="#DDDBDB"/>
<path d="M39.6702 119.11C41.8848 119.11 43.6802 117.315 43.6802 115.1C43.6802 112.885 41.8848 111.09 39.6702 111.09C37.4555 111.09 35.6602 112.885 35.6602 115.1C35.6602 117.315 37.4555 119.11 39.6702 119.11Z" fill="#DDDBDB"/>
<path d="M53.9299 119.11C56.1446 119.11 57.9399 117.315 57.9399 115.1C57.9399 112.885 56.1446 111.09 53.9299 111.09C51.7153 111.09 49.9199 112.885 49.9199 115.1C49.9199 117.315 51.7153 119.11 53.9299 119.11Z" fill="#DDDBDB"/>
<path d="M68.1897 119.11C70.4044 119.11 72.1997 117.315 72.1997 115.1C72.1997 112.885 70.4044 111.09 68.1897 111.09C65.975 111.09 64.1797 112.885 64.1797 115.1C64.1797 117.315 65.975 119.11 68.1897 119.11Z" fill="#DDDBDB"/>
<path d="M82.4494 119.11C84.6641 119.11 86.4594 117.315 86.4594 115.1C86.4594 112.885 84.6641 111.09 82.4494 111.09C80.2348 111.09 78.4395 112.885 78.4395 115.1C78.4395 117.315 80.2348 119.11 82.4494 119.11Z" fill="#DDDBDB"/>
<path d="M96.7209 119.11C98.9356 119.11 100.731 117.315 100.731 115.1C100.731 112.885 98.9356 111.09 96.7209 111.09C94.5063 111.09 92.7109 112.885 92.7109 115.1C92.7109 117.315 94.5063 119.11 96.7209 119.11Z" fill="#DDDBDB"/>
<path d="M110.981 119.11C113.195 119.11 114.991 117.315 114.991 115.1C114.991 112.885 113.195 111.09 110.981 111.09C108.766 111.09 106.971 112.885 106.971 115.1C106.971 117.315 108.766 119.11 110.981 119.11Z" fill="#DDDBDB"/>
<path d="M125.24 119.11C127.455 119.11 129.25 117.315 129.25 115.1C129.25 112.885 127.455 111.09 125.24 111.09C123.026 111.09 121.23 112.885 121.23 115.1C121.23 117.315 123.026 119.11 125.24 119.11Z" fill="#DDDBDB"/>
<path d="M4.01 128.17C6.22466 128.17 8.02 126.375 8.02 124.16C8.02 121.945 6.22466 120.15 4.01 120.15C1.79534 120.15 0 121.945 0 124.16C0 126.375 1.79534 128.17 4.01 128.17Z" fill="#DDDBDB"/>
<path d="M18.2795 128.17C20.4942 128.17 22.2895 126.375 22.2895 124.16C22.2895 121.945 20.4942 120.15 18.2795 120.15C16.0649 120.15 14.2695 121.945 14.2695 124.16C14.2695 126.375 16.0649 128.17 18.2795 128.17Z" fill="#DDDBDB"/>
<path d="M32.5393 128.17C34.754 128.17 36.5493 126.375 36.5493 124.16C36.5493 121.945 34.754 120.15 32.5393 120.15C30.3246 120.15 28.5293 121.945 28.5293 124.16C28.5293 126.375 30.3246 128.17 32.5393 128.17Z" fill="#DDDBDB"/>
<path d="M46.7991 128.17C49.0137 128.17 50.8091 126.375 50.8091 124.16C50.8091 121.945 49.0137 120.15 46.7991 120.15C44.5844 120.15 42.7891 121.945 42.7891 124.16C42.7891 126.375 44.5844 128.17 46.7991 128.17Z" fill="#DDDBDB"/>
<path d="M61.0608 128.17C63.2754 128.17 65.0708 126.375 65.0708 124.16C65.0708 121.945 63.2754 120.15 61.0608 120.15C58.8461 120.15 57.0508 121.945 57.0508 124.16C57.0508 126.375 58.8461 128.17 61.0608 128.17Z" fill="#DDDBDB"/>
<path d="M75.3205 128.17C77.5352 128.17 79.3306 126.375 79.3306 124.16C79.3306 121.945 77.5352 120.15 75.3205 120.15C73.1059 120.15 71.3105 121.945 71.3105 124.16C71.3105 126.375 73.1059 128.17 75.3205 128.17Z" fill="#DDDBDB"/>
<path d="M89.5803 128.17C91.795 128.17 93.5903 126.375 93.5903 124.16C93.5903 121.945 91.795 120.15 89.5803 120.15C87.3657 120.15 85.5703 121.945 85.5703 124.16C85.5703 126.375 87.3657 128.17 89.5803 128.17Z" fill="#DDDBDB"/>
<path d="M103.85 128.17C106.065 128.17 107.86 126.375 107.86 124.16C107.86 121.945 106.065 120.15 103.85 120.15C101.635 120.15 99.8398 121.945 99.8398 124.16C99.8398 126.375 101.635 128.17 103.85 128.17Z" fill="#DDDBDB"/>
<path d="M118.11 128.17C120.324 128.17 122.12 126.375 122.12 124.16C122.12 121.945 120.324 120.15 118.11 120.15C115.895 120.15 114.1 121.945 114.1 124.16C114.1 126.375 115.895 128.17 118.11 128.17Z" fill="#DDDBDB"/>
<path d="M132.369 128.17C134.584 128.17 136.379 126.375 136.379 124.16C136.379 121.945 134.584 120.15 132.369 120.15C130.155 120.15 128.359 121.945 128.359 124.16C128.359 126.375 130.155 128.17 132.369 128.17Z" fill="#DDDBDB"/>
<path d="M11.1409 137.62C13.3555 137.62 15.1509 135.825 15.1509 133.61C15.1509 131.395 13.3555 129.6 11.1409 129.6C8.9262 129.6 7.13086 131.395 7.13086 133.61C7.13086 135.825 8.9262 137.62 11.1409 137.62Z" fill="#DDDBDB"/>
<path d="M25.4104 137.62C27.6251 137.62 29.4204 135.825 29.4204 133.61C29.4204 131.395 27.6251 129.6 25.4104 129.6C23.1957 129.6 21.4004 131.395 21.4004 133.61C21.4004 135.825 23.1957 137.62 25.4104 137.62Z" fill="#DDDBDB"/>
<path d="M39.6702 137.62C41.8848 137.62 43.6802 135.825 43.6802 133.61C43.6802 131.395 41.8848 129.6 39.6702 129.6C37.4555 129.6 35.6602 131.395 35.6602 133.61C35.6602 135.825 37.4555 137.62 39.6702 137.62Z" fill="#DDDBDB"/>
<path d="M53.9299 137.62C56.1446 137.62 57.9399 135.825 57.9399 133.61C57.9399 131.395 56.1446 129.6 53.9299 129.6C51.7153 129.6 49.9199 131.395 49.9199 133.61C49.9199 135.825 51.7153 137.62 53.9299 137.62Z" fill="#DDDBDB"/>
<path d="M68.1897 137.62C70.4044 137.62 72.1997 135.825 72.1997 133.61C72.1997 131.395 70.4044 129.6 68.1897 129.6C65.975 129.6 64.1797 131.395 64.1797 133.61C64.1797 135.825 65.975 137.62 68.1897 137.62Z" fill="#DDDBDB"/>
<path d="M82.4494 137.62C84.6641 137.62 86.4594 135.825 86.4594 133.61C86.4594 131.395 84.6641 129.6 82.4494 129.6C80.2348 129.6 78.4395 131.395 78.4395 133.61C78.4395 135.825 80.2348 137.62 82.4494 137.62Z" fill="#DDDBDB"/>
<path d="M96.7209 137.62C98.9356 137.62 100.731 135.825 100.731 133.61C100.731 131.395 98.9356 129.6 96.7209 129.6C94.5063 129.6 92.7109 131.395 92.7109 133.61C92.7109 135.825 94.5063 137.62 96.7209 137.62Z" fill="#DDDBDB"/>
<path d="M110.981 137.62C113.195 137.62 114.991 135.825 114.991 133.61C114.991 131.395 113.195 129.6 110.981 129.6C108.766 129.6 106.971 131.395 106.971 133.61C106.971 135.825 108.766 137.62 110.981 137.62Z" fill="#DDDBDB"/>
<path d="M125.24 137.62C127.455 137.62 129.25 135.825 129.25 133.61C129.25 131.395 127.455 129.6 125.24 129.6C123.026 129.6 121.23 131.395 121.23 133.61C121.23 135.825 123.026 137.62 125.24 137.62Z" fill="#DDDBDB"/>
<path d="M4.01 146.68C6.22466 146.68 8.02 144.885 8.02 142.67C8.02 140.455 6.22466 138.66 4.01 138.66C1.79534 138.66 0 140.455 0 142.67C0 144.885 1.79534 146.68 4.01 146.68Z" fill="#DDDBDB"/>
<path d="M18.2795 146.68C20.4942 146.68 22.2895 144.885 22.2895 142.67C22.2895 140.455 20.4942 138.66 18.2795 138.66C16.0649 138.66 14.2695 140.455 14.2695 142.67C14.2695 144.885 16.0649 146.68 18.2795 146.68Z" fill="#DDDBDB"/>
<path d="M32.5393 146.68C34.754 146.68 36.5493 144.885 36.5493 142.67C36.5493 140.455 34.754 138.66 32.5393 138.66C30.3246 138.66 28.5293 140.455 28.5293 142.67C28.5293 144.885 30.3246 146.68 32.5393 146.68Z" fill="#DDDBDB"/>
<path d="M46.7991 146.68C49.0137 146.68 50.8091 144.885 50.8091 142.67C50.8091 140.455 49.0137 138.66 46.7991 138.66C44.5844 138.66 42.7891 140.455 42.7891 142.67C42.7891 144.885 44.5844 146.68 46.7991 146.68Z" fill="#DDDBDB"/>
<path d="M61.0608 146.68C63.2754 146.68 65.0708 144.885 65.0708 142.67C65.0708 140.455 63.2754 138.66 61.0608 138.66C58.8461 138.66 57.0508 140.455 57.0508 142.67C57.0508 144.885 58.8461 146.68 61.0608 146.68Z" fill="#DDDBDB"/>
<path d="M75.3205 146.68C77.5352 146.68 79.3306 144.885 79.3306 142.67C79.3306 140.455 77.5352 138.66 75.3205 138.66C73.1059 138.66 71.3105 140.455 71.3105 142.67C71.3105 144.885 73.1059 146.68 75.3205 146.68Z" fill="#DDDBDB"/>
<path d="M89.5803 146.68C91.795 146.68 93.5903 144.885 93.5903 142.67C93.5903 140.455 91.795 138.66 89.5803 138.66C87.3657 138.66 85.5703 140.455 85.5703 142.67C85.5703 144.885 87.3657 146.68 89.5803 146.68Z" fill="#DDDBDB"/>
<path d="M103.85 146.68C106.065 146.68 107.86 144.885 107.86 142.67C107.86 140.455 106.065 138.66 103.85 138.66C101.635 138.66 99.8398 140.455 99.8398 142.67C99.8398 144.885 101.635 146.68 103.85 146.68Z" fill="#DDDBDB"/>
<path d="M118.11 146.68C120.324 146.68 122.12 144.885 122.12 142.67C122.12 140.455 120.324 138.66 118.11 138.66C115.895 138.66 114.1 140.455 114.1 142.67C114.1 144.885 115.895 146.68 118.11 146.68Z" fill="#DDDBDB"/>
<path d="M132.369 146.68C134.584 146.68 136.379 144.885 136.379 142.67C136.379 140.455 134.584 138.66 132.369 138.66C130.155 138.66 128.359 140.455 128.359 142.67C128.359 144.885 130.155 146.68 132.369 146.68Z" fill="#DDDBDB"/>
<path d="M11.1409 156.14C13.3555 156.14 15.1509 154.345 15.1509 152.13C15.1509 149.915 13.3555 148.12 11.1409 148.12C8.9262 148.12 7.13086 149.915 7.13086 152.13C7.13086 154.345 8.9262 156.14 11.1409 156.14Z" fill="#DDDBDB"/>
<path d="M25.4104 156.14C27.6251 156.14 29.4204 154.345 29.4204 152.13C29.4204 149.915 27.6251 148.12 25.4104 148.12C23.1957 148.12 21.4004 149.915 21.4004 152.13C21.4004 154.345 23.1957 156.14 25.4104 156.14Z" fill="#DDDBDB"/>
<path d="M39.6702 156.14C41.8848 156.14 43.6802 154.345 43.6802 152.13C43.6802 149.915 41.8848 148.12 39.6702 148.12C37.4555 148.12 35.6602 149.915 35.6602 152.13C35.6602 154.345 37.4555 156.14 39.6702 156.14Z" fill="#DDDBDB"/>
<path d="M53.9299 156.14C56.1446 156.14 57.9399 154.345 57.9399 152.13C57.9399 149.915 56.1446 148.12 53.9299 148.12C51.7153 148.12 49.9199 149.915 49.9199 152.13C49.9199 154.345 51.7153 156.14 53.9299 156.14Z" fill="#DDDBDB"/>
<path d="M68.1897 156.14C70.4044 156.14 72.1997 154.345 72.1997 152.13C72.1997 149.915 70.4044 148.12 68.1897 148.12C65.975 148.12 64.1797 149.915 64.1797 152.13C64.1797 154.345 65.975 156.14 68.1897 156.14Z" fill="#DDDBDB"/>
<path d="M82.4494 156.14C84.6641 156.14 86.4594 154.345 86.4594 152.13C86.4594 149.915 84.6641 148.12 82.4494 148.12C80.2348 148.12 78.4395 149.915 78.4395 152.13C78.4395 154.345 80.2348 156.14 82.4494 156.14Z" fill="#DDDBDB"/>
<path d="M96.7209 156.14C98.9356 156.14 100.731 154.345 100.731 152.13C100.731 149.915 98.9356 148.12 96.7209 148.12C94.5063 148.12 92.7109 149.915 92.7109 152.13C92.7109 154.345 94.5063 156.14 96.7209 156.14Z" fill="#DDDBDB"/>
<path d="M110.981 156.14C113.195 156.14 114.991 154.345 114.991 152.13C114.991 149.915 113.195 148.12 110.981 148.12C108.766 148.12 106.971 149.915 106.971 152.13C106.971 154.345 108.766 156.14 110.981 156.14Z" fill="#DDDBDB"/>
<path d="M125.24 156.14C127.455 156.14 129.25 154.345 129.25 152.13C129.25 149.915 127.455 148.12 125.24 148.12C123.026 148.12 121.23 149.915 121.23 152.13C121.23 154.345 123.026 156.14 125.24 156.14Z" fill="#DDDBDB"/>
<path d="M4.01 165.19C6.22466 165.19 8.02 163.395 8.02 161.18C8.02 158.965 6.22466 157.17 4.01 157.17C1.79534 157.17 0 158.965 0 161.18C0 163.395 1.79534 165.19 4.01 165.19Z" fill="#DDDBDB"/>
<path d="M18.2795 165.19C20.4942 165.19 22.2895 163.395 22.2895 161.18C22.2895 158.965 20.4942 157.17 18.2795 157.17C16.0649 157.17 14.2695 158.965 14.2695 161.18C14.2695 163.395 16.0649 165.19 18.2795 165.19Z" fill="#DDDBDB"/>
<path d="M32.5393 165.19C34.754 165.19 36.5493 163.395 36.5493 161.18C36.5493 158.965 34.754 157.17 32.5393 157.17C30.3246 157.17 28.5293 158.965 28.5293 161.18C28.5293 163.395 30.3246 165.19 32.5393 165.19Z" fill="#DDDBDB"/>
<path d="M46.7991 165.19C49.0137 165.19 50.8091 163.395 50.8091 161.18C50.8091 158.965 49.0137 157.17 46.7991 157.17C44.5844 157.17 42.7891 158.965 42.7891 161.18C42.7891 163.395 44.5844 165.19 46.7991 165.19Z" fill="#DDDBDB"/>
<path d="M61.0608 165.19C63.2754 165.19 65.0708 163.395 65.0708 161.18C65.0708 158.965 63.2754 157.17 61.0608 157.17C58.8461 157.17 57.0508 158.965 57.0508 161.18C57.0508 163.395 58.8461 165.19 61.0608 165.19Z" fill="#DDDBDB"/>
<path d="M75.3205 165.19C77.5352 165.19 79.3306 163.395 79.3306 161.18C79.3306 158.965 77.5352 157.17 75.3205 157.17C73.1059 157.17 71.3105 158.965 71.3105 161.18C71.3105 163.395 73.1059 165.19 75.3205 165.19Z" fill="#DDDBDB"/>
<path d="M89.5803 165.19C91.795 165.19 93.5903 163.395 93.5903 161.18C93.5903 158.965 91.795 157.17 89.5803 157.17C87.3657 157.17 85.5703 158.965 85.5703 161.18C85.5703 163.395 87.3657 165.19 89.5803 165.19Z" fill="#DDDBDB"/>
<path d="M103.85 165.19C106.065 165.19 107.86 163.395 107.86 161.18C107.86 158.965 106.065 157.17 103.85 157.17C101.635 157.17 99.8398 158.965 99.8398 161.18C99.8398 163.395 101.635 165.19 103.85 165.19Z" fill="#DDDBDB"/>
<path d="M118.11 165.19C120.324 165.19 122.12 163.395 122.12 161.18C122.12 158.965 120.324 157.17 118.11 157.17C115.895 157.17 114.1 158.965 114.1 161.18C114.1 163.395 115.895 165.19 118.11 165.19Z" fill="#DDDBDB"/>
<path d="M132.369 165.19C134.584 165.19 136.379 163.395 136.379 161.18C136.379 158.965 134.584 157.17 132.369 157.17C130.155 157.17 128.359 158.965 128.359 161.18C128.359 163.395 130.155 165.19 132.369 165.19Z" fill="#DDDBDB"/>
<path d="M11.1409 174.65C13.3555 174.65 15.1509 172.855 15.1509 170.64C15.1509 168.425 13.3555 166.63 11.1409 166.63C8.9262 166.63 7.13086 168.425 7.13086 170.64C7.13086 172.855 8.9262 174.65 11.1409 174.65Z" fill="#DDDBDB"/>
<path d="M25.4104 174.65C27.6251 174.65 29.4204 172.855 29.4204 170.64C29.4204 168.425 27.6251 166.63 25.4104 166.63C23.1957 166.63 21.4004 168.425 21.4004 170.64C21.4004 172.855 23.1957 174.65 25.4104 174.65Z" fill="#DDDBDB"/>
<path d="M39.6702 174.65C41.8848 174.65 43.6802 172.855 43.6802 170.64C43.6802 168.425 41.8848 166.63 39.6702 166.63C37.4555 166.63 35.6602 168.425 35.6602 170.64C35.6602 172.855 37.4555 174.65 39.6702 174.65Z" fill="#DDDBDB"/>
<path d="M53.9299 174.65C56.1446 174.65 57.9399 172.855 57.9399 170.64C57.9399 168.425 56.1446 166.63 53.9299 166.63C51.7153 166.63 49.9199 168.425 49.9199 170.64C49.9199 172.855 51.7153 174.65 53.9299 174.65Z" fill="#DDDBDB"/>
<path d="M68.1897 174.65C70.4044 174.65 72.1997 172.855 72.1997 170.64C72.1997 168.425 70.4044 166.63 68.1897 166.63C65.975 166.63 64.1797 168.425 64.1797 170.64C64.1797 172.855 65.975 174.65 68.1897 174.65Z" fill="#DDDBDB"/>
<path d="M82.4494 174.65C84.6641 174.65 86.4594 172.855 86.4594 170.64C86.4594 168.425 84.6641 166.63 82.4494 166.63C80.2348 166.63 78.4395 168.425 78.4395 170.64C78.4395 172.855 80.2348 174.65 82.4494 174.65Z" fill="#DDDBDB"/>
<path d="M96.7209 174.65C98.9356 174.65 100.731 172.855 100.731 170.64C100.731 168.425 98.9356 166.63 96.7209 166.63C94.5063 166.63 92.7109 168.425 92.7109 170.64C92.7109 172.855 94.5063 174.65 96.7209 174.65Z" fill="#DDDBDB"/>
<path d="M110.981 174.65C113.195 174.65 114.991 172.855 114.991 170.64C114.991 168.425 113.195 166.63 110.981 166.63C108.766 166.63 106.971 168.425 106.971 170.64C106.971 172.855 108.766 174.65 110.981 174.65Z" fill="#DDDBDB"/>
<path d="M125.24 174.65C127.455 174.65 129.25 172.855 129.25 170.64C129.25 168.425 127.455 166.63 125.24 166.63C123.026 166.63 121.23 168.425 121.23 170.64C121.23 172.855 123.026 174.65 125.24 174.65Z" fill="#DDDBDB"/>
<path d="M4.01 183.71C6.22466 183.71 8.02 181.915 8.02 179.7C8.02 177.485 6.22466 175.69 4.01 175.69C1.79534 175.69 0 177.485 0 179.7C0 181.915 1.79534 183.71 4.01 183.71Z" fill="#DDDBDB"/>
<path d="M18.2795 183.71C20.4942 183.71 22.2895 181.915 22.2895 179.7C22.2895 177.485 20.4942 175.69 18.2795 175.69C16.0649 175.69 14.2695 177.485 14.2695 179.7C14.2695 181.915 16.0649 183.71 18.2795 183.71Z" fill="#DDDBDB"/>
<path d="M32.5393 183.71C34.754 183.71 36.5493 181.915 36.5493 179.7C36.5493 177.485 34.754 175.69 32.5393 175.69C30.3246 175.69 28.5293 177.485 28.5293 179.7C28.5293 181.915 30.3246 183.71 32.5393 183.71Z" fill="#DDDBDB"/>
<path d="M46.7991 183.71C49.0137 183.71 50.8091 181.915 50.8091 179.7C50.8091 177.485 49.0137 175.69 46.7991 175.69C44.5844 175.69 42.7891 177.485 42.7891 179.7C42.7891 181.915 44.5844 183.71 46.7991 183.71Z" fill="#DDDBDB"/>
<path d="M61.0608 183.71C63.2754 183.71 65.0708 181.915 65.0708 179.7C65.0708 177.485 63.2754 175.69 61.0608 175.69C58.8461 175.69 57.0508 177.485 57.0508 179.7C57.0508 181.915 58.8461 183.71 61.0608 183.71Z" fill="#DDDBDB"/>
<path d="M75.3205 183.71C77.5352 183.71 79.3306 181.915 79.3306 179.7C79.3306 177.485 77.5352 175.69 75.3205 175.69C73.1059 175.69 71.3105 177.485 71.3105 179.7C71.3105 181.915 73.1059 183.71 75.3205 183.71Z" fill="#DDDBDB"/>
<path d="M89.5803 183.71C91.795 183.71 93.5903 181.915 93.5903 179.7C93.5903 177.485 91.795 175.69 89.5803 175.69C87.3657 175.69 85.5703 177.485 85.5703 179.7C85.5703 181.915 87.3657 183.71 89.5803 183.71Z" fill="#DDDBDB"/>
<path d="M103.85 183.71C106.065 183.71 107.86 181.915 107.86 179.7C107.86 177.485 106.065 175.69 103.85 175.69C101.635 175.69 99.8398 177.485 99.8398 179.7C99.8398 181.915 101.635 183.71 103.85 183.71Z" fill="#DDDBDB"/>
<path d="M118.11 183.71C120.324 183.71 122.12 181.915 122.12 179.7C122.12 177.485 120.324 175.69 118.11 175.69C115.895 175.69 114.1 177.485 114.1 179.7C114.1 181.915 115.895 183.71 118.11 183.71Z" fill="#DDDBDB"/>
<path d="M132.369 183.71C134.584 183.71 136.379 181.915 136.379 179.7C136.379 177.485 134.584 175.69 132.369 175.69C130.155 175.69 128.359 177.485 128.359 179.7C128.359 181.915 130.155 183.71 132.369 183.71Z" fill="#DDDBDB"/>
<path d="M11.1409 192.77C13.3555 192.77 15.1509 190.975 15.1509 188.76C15.1509 186.545 13.3555 184.75 11.1409 184.75C8.9262 184.75 7.13086 186.545 7.13086 188.76C7.13086 190.975 8.9262 192.77 11.1409 192.77Z" fill="#DDDBDB"/>
<path d="M25.4104 192.77C27.6251 192.77 29.4204 190.975 29.4204 188.76C29.4204 186.545 27.6251 184.75 25.4104 184.75C23.1957 184.75 21.4004 186.545 21.4004 188.76C21.4004 190.975 23.1957 192.77 25.4104 192.77Z" fill="#DDDBDB"/>
<path d="M39.6702 192.77C41.8848 192.77 43.6802 190.975 43.6802 188.76C43.6802 186.545 41.8848 184.75 39.6702 184.75C37.4555 184.75 35.6602 186.545 35.6602 188.76C35.6602 190.975 37.4555 192.77 39.6702 192.77Z" fill="#DDDBDB"/>
<path d="M53.9299 192.77C56.1446 192.77 57.9399 190.975 57.9399 188.76C57.9399 186.545 56.1446 184.75 53.9299 184.75C51.7153 184.75 49.9199 186.545 49.9199 188.76C49.9199 190.975 51.7153 192.77 53.9299 192.77Z" fill="#DDDBDB"/>
<path d="M68.1897 192.77C70.4044 192.77 72.1997 190.975 72.1997 188.76C72.1997 186.545 70.4044 184.75 68.1897 184.75C65.975 184.75 64.1797 186.545 64.1797 188.76C64.1797 190.975 65.975 192.77 68.1897 192.77Z" fill="#DDDBDB"/>
<path d="M82.4494 192.77C84.6641 192.77 86.4594 190.975 86.4594 188.76C86.4594 186.545 84.6641 184.75 82.4494 184.75C80.2348 184.75 78.4395 186.545 78.4395 188.76C78.4395 190.975 80.2348 192.77 82.4494 192.77Z" fill="#DDDBDB"/>
<path d="M96.7209 192.77C98.9356 192.77 100.731 190.975 100.731 188.76C100.731 186.545 98.9356 184.75 96.7209 184.75C94.5063 184.75 92.7109 186.545 92.7109 188.76C92.7109 190.975 94.5063 192.77 96.7209 192.77Z" fill="#DDDBDB"/>
<path d="M110.981 192.77C113.195 192.77 114.991 190.975 114.991 188.76C114.991 186.545 113.195 184.75 110.981 184.75C108.766 184.75 106.971 186.545 106.971 188.76C106.971 190.975 108.766 192.77 110.981 192.77Z" fill="#DDDBDB"/>
<path d="M125.24 192.77C127.455 192.77 129.25 190.975 129.25 188.76C129.25 186.545 127.455 184.75 125.24 184.75C123.026 184.75 121.23 186.545 121.23 188.76C121.23 190.975 123.026 192.77 125.24 192.77Z" fill="#DDDBDB"/>
<path d="M4.01 201.82C6.22466 201.82 8.02 200.024 8.02 197.81C8.02 195.595 6.22466 193.8 4.01 193.8C1.79534 193.8 0 195.595 0 197.81C0 200.024 1.79534 201.82 4.01 201.82Z" fill="#DDDBDB"/>
<path d="M18.2795 201.82C20.4942 201.82 22.2895 200.024 22.2895 197.81C22.2895 195.595 20.4942 193.8 18.2795 193.8C16.0649 193.8 14.2695 195.595 14.2695 197.81C14.2695 200.024 16.0649 201.82 18.2795 201.82Z" fill="#DDDBDB"/>
<path d="M32.5393 201.82C34.754 201.82 36.5493 200.024 36.5493 197.81C36.5493 195.595 34.754 193.8 32.5393 193.8C30.3246 193.8 28.5293 195.595 28.5293 197.81C28.5293 200.024 30.3246 201.82 32.5393 201.82Z" fill="#DDDBDB"/>
<path d="M46.7991 201.82C49.0137 201.82 50.8091 200.024 50.8091 197.81C50.8091 195.595 49.0137 193.8 46.7991 193.8C44.5844 193.8 42.7891 195.595 42.7891 197.81C42.7891 200.024 44.5844 201.82 46.7991 201.82Z" fill="#DDDBDB"/>
<path d="M61.0608 201.82C63.2754 201.82 65.0708 200.024 65.0708 197.81C65.0708 195.595 63.2754 193.8 61.0608 193.8C58.8461 193.8 57.0508 195.595 57.0508 197.81C57.0508 200.024 58.8461 201.82 61.0608 201.82Z" fill="#DDDBDB"/>
<path d="M158.221 8.02C160.436 8.02 162.231 6.22466 162.231 4.01C162.231 1.79534 160.436 0 158.221 0C156.006 0 154.211 1.79534 154.211 4.01C154.211 6.22466 156.006 8.02 158.221 8.02Z" fill="#DDDBDB"/>
<path d="M172.481 8.02C174.695 8.02 176.491 6.22466 176.491 4.01C176.491 1.79534 174.695 0 172.481 0C170.266 0 168.471 1.79534 168.471 4.01C168.471 6.22466 170.266 8.02 172.481 8.02Z" fill="#DDDBDB"/>
<path d="M186.74 8.02C188.955 8.02 190.75 6.22466 190.75 4.01C190.75 1.79534 188.955 0 186.74 0C184.526 0 182.73 1.79534 182.73 4.01C182.73 6.22466 184.526 8.02 186.74 8.02Z" fill="#DDDBDB"/>
<path d="M151.09 17.0801C153.305 17.0801 155.1 15.2847 155.1 13.0701C155.1 10.8554 153.305 9.06006 151.09 9.06006C148.875 9.06006 147.08 10.8554 147.08 13.0701C147.08 15.2847 148.875 17.0801 151.09 17.0801Z" fill="#DDDBDB"/>
<path d="M165.35 17.0801C167.565 17.0801 169.36 15.2847 169.36 13.0701C169.36 10.8554 167.565 9.06006 165.35 9.06006C163.135 9.06006 161.34 10.8554 161.34 13.0701C161.34 15.2847 163.135 17.0801 165.35 17.0801Z" fill="#DDDBDB"/>
<path d="M179.61 17.0801C181.824 17.0801 183.62 15.2847 183.62 13.0701C183.62 10.8554 181.824 9.06006 179.61 9.06006C177.395 9.06006 175.6 10.8554 175.6 13.0701C175.6 15.2847 177.395 17.0801 179.61 17.0801Z" fill="#DDDBDB"/>
<path d="M193.869 17.0801C196.084 17.0801 197.879 15.2847 197.879 13.0701C197.879 10.8554 196.084 9.06006 193.869 9.06006C191.655 9.06006 189.859 10.8554 189.859 13.0701C189.859 15.2847 191.655 17.0801 193.869 17.0801Z" fill="#DDDBDB"/>
<path d="M158.221 26.54C160.436 26.54 162.231 24.7447 162.231 22.53C162.231 20.3154 160.436 18.52 158.221 18.52C156.006 18.52 154.211 20.3154 154.211 22.53C154.211 24.7447 156.006 26.54 158.221 26.54Z" fill="#DDDBDB"/>
<path d="M172.481 26.54C174.695 26.54 176.491 24.7447 176.491 22.53C176.491 20.3154 174.695 18.52 172.481 18.52C170.266 18.52 168.471 20.3154 168.471 22.53C168.471 24.7447 170.266 26.54 172.481 26.54Z" fill="#DDDBDB"/>
<path d="M186.74 26.54C188.955 26.54 190.75 24.7447 190.75 22.53C190.75 20.3154 188.955 18.52 186.74 18.52C184.526 18.52 182.73 20.3154 182.73 22.53C182.73 24.7447 184.526 26.54 186.74 26.54Z" fill="#DDDBDB"/>
<path d="M151.09 35.6001C153.305 35.6001 155.1 33.8047 155.1 31.5901C155.1 29.3754 153.305 27.5801 151.09 27.5801C148.875 27.5801 147.08 29.3754 147.08 31.5901C147.08 33.8047 148.875 35.6001 151.09 35.6001Z" fill="#DDDBDB"/>
<path d="M165.35 35.6001C167.565 35.6001 169.36 33.8047 169.36 31.5901C169.36 29.3754 167.565 27.5801 165.35 27.5801C163.135 27.5801 161.34 29.3754 161.34 31.5901C161.34 33.8047 163.135 35.6001 165.35 35.6001Z" fill="#DDDBDB"/>
<path d="M179.61 35.6001C181.824 35.6001 183.62 33.8047 183.62 31.5901C183.62 29.3754 181.824 27.5801 179.61 27.5801C177.395 27.5801 175.6 29.3754 175.6 31.5901C175.6 33.8047 177.395 35.6001 179.61 35.6001Z" fill="#DDDBDB"/>
<path d="M193.869 35.6001C196.084 35.6001 197.879 33.8047 197.879 31.5901C197.879 29.3754 196.084 27.5801 193.869 27.5801C191.655 27.5801 189.859 29.3754 189.859 31.5901C189.859 33.8047 191.655 35.6001 193.869 35.6001Z" fill="#DDDBDB"/>
<path d="M158.221 45.0498C160.436 45.0498 162.231 43.2544 162.231 41.0398C162.231 38.8251 160.436 37.0298 158.221 37.0298C156.006 37.0298 154.211 38.8251 154.211 41.0398C154.211 43.2544 156.006 45.0498 158.221 45.0498Z" fill="#DDDBDB"/>
<path d="M172.481 45.0498C174.695 45.0498 176.491 43.2544 176.491 41.0398C176.491 38.8251 174.695 37.0298 172.481 37.0298C170.266 37.0298 168.471 38.8251 168.471 41.0398C168.471 43.2544 170.266 45.0498 172.481 45.0498Z" fill="#DDDBDB"/>
<path d="M186.74 45.0498C188.955 45.0498 190.75 43.2544 190.75 41.0398C190.75 38.8251 188.955 37.0298 186.74 37.0298C184.526 37.0298 182.73 38.8251 182.73 41.0398C182.73 43.2544 184.526 45.0498 186.74 45.0498Z" fill="#DDDBDB"/>
<path d="M151.09 54.1098C153.305 54.1098 155.1 52.3145 155.1 50.0998C155.1 47.8852 153.305 46.0898 151.09 46.0898C148.875 46.0898 147.08 47.8852 147.08 50.0998C147.08 52.3145 148.875 54.1098 151.09 54.1098Z" fill="#DDDBDB"/>
<path d="M165.35 54.1098C167.565 54.1098 169.36 52.3145 169.36 50.0998C169.36 47.8852 167.565 46.0898 165.35 46.0898C163.135 46.0898 161.34 47.8852 161.34 50.0998C161.34 52.3145 163.135 54.1098 165.35 54.1098Z" fill="#DDDBDB"/>
<path d="M179.61 54.1098C181.824 54.1098 183.62 52.3145 183.62 50.0998C183.62 47.8852 181.824 46.0898 179.61 46.0898C177.395 46.0898 175.6 47.8852 175.6 50.0998C175.6 52.3145 177.395 54.1098 179.61 54.1098Z" fill="#DDDBDB"/>
<path d="M193.869 54.1098C196.084 54.1098 197.879 52.3145 197.879 50.0998C197.879 47.8852 196.084 46.0898 193.869 46.0898C191.655 46.0898 189.859 47.8852 189.859 50.0998C189.859 52.3145 191.655 54.1098 193.869 54.1098Z" fill="#DDDBDB"/>
<path d="M158.221 63.5698C160.436 63.5698 162.231 61.7745 162.231 59.5598C162.231 57.3451 160.436 55.5498 158.221 55.5498C156.006 55.5498 154.211 57.3451 154.211 59.5598C154.211 61.7745 156.006 63.5698 158.221 63.5698Z" fill="#DDDBDB"/>
<path d="M172.481 63.5698C174.695 63.5698 176.491 61.7745 176.491 59.5598C176.491 57.3451 174.695 55.5498 172.481 55.5498C170.266 55.5498 168.471 57.3451 168.471 59.5598C168.471 61.7745 170.266 63.5698 172.481 63.5698Z" fill="#DDDBDB"/>
<path d="M186.74 63.5698C188.955 63.5698 190.75 61.7745 190.75 59.5598C190.75 57.3451 188.955 55.5498 186.74 55.5498C184.526 55.5498 182.73 57.3451 182.73 59.5598C182.73 61.7745 184.526 63.5698 186.74 63.5698Z" fill="#DDDBDB"/>
<path d="M151.09 72.6201C153.305 72.6201 155.1 70.8248 155.1 68.6101C155.1 66.3954 153.305 64.6001 151.09 64.6001C148.875 64.6001 147.08 66.3954 147.08 68.6101C147.08 70.8248 148.875 72.6201 151.09 72.6201Z" fill="#DDDBDB"/>
<path d="M165.35 72.6201C167.565 72.6201 169.36 70.8248 169.36 68.6101C169.36 66.3954 167.565 64.6001 165.35 64.6001C163.135 64.6001 161.34 66.3954 161.34 68.6101C161.34 70.8248 163.135 72.6201 165.35 72.6201Z" fill="#DDDBDB"/>
<path d="M179.61 72.6201C181.824 72.6201 183.62 70.8248 183.62 68.6101C183.62 66.3954 181.824 64.6001 179.61 64.6001C177.395 64.6001 175.6 66.3954 175.6 68.6101C175.6 70.8248 177.395 72.6201 179.61 72.6201Z" fill="#DDDBDB"/>
<path d="M193.869 72.6201C196.084 72.6201 197.879 70.8248 197.879 68.6101C197.879 66.3954 196.084 64.6001 193.869 64.6001C191.655 64.6001 189.859 66.3954 189.859 68.6101C189.859 70.8248 191.655 72.6201 193.869 72.6201Z" fill="#DDDBDB"/>
<path d="M158.221 82.0801C160.436 82.0801 162.231 80.2847 162.231 78.0701C162.231 75.8554 160.436 74.0601 158.221 74.0601C156.006 74.0601 154.211 75.8554 154.211 78.0701C154.211 80.2847 156.006 82.0801 158.221 82.0801Z" fill="#DDDBDB"/>
<path d="M172.481 82.0801C174.695 82.0801 176.491 80.2847 176.491 78.0701C176.491 75.8554 174.695 74.0601 172.481 74.0601C170.266 74.0601 168.471 75.8554 168.471 78.0701C168.471 80.2847 170.266 82.0801 172.481 82.0801Z" fill="#DDDBDB"/>
<path d="M186.74 82.0801C188.955 82.0801 190.75 80.2847 190.75 78.0701C190.75 75.8554 188.955 74.0601 186.74 74.0601C184.526 74.0601 182.73 75.8554 182.73 78.0701C182.73 80.2847 184.526 82.0801 186.74 82.0801Z" fill="#DDDBDB"/>
<path d="M151.09 91.1401C153.305 91.1401 155.1 89.3448 155.1 87.1301C155.1 84.9154 153.305 83.1201 151.09 83.1201C148.875 83.1201 147.08 84.9154 147.08 87.1301C147.08 89.3448 148.875 91.1401 151.09 91.1401Z" fill="#DDDBDB"/>
<path d="M165.35 91.1401C167.565 91.1401 169.36 89.3448 169.36 87.1301C169.36 84.9154 167.565 83.1201 165.35 83.1201C163.135 83.1201 161.34 84.9154 161.34 87.1301C161.34 89.3448 163.135 91.1401 165.35 91.1401Z" fill="#DDDBDB"/>
<path d="M179.61 91.1401C181.824 91.1401 183.62 89.3448 183.62 87.1301C183.62 84.9154 181.824 83.1201 179.61 83.1201C177.395 83.1201 175.6 84.9154 175.6 87.1301C175.6 89.3448 177.395 91.1401 179.61 91.1401Z" fill="#DDDBDB"/>
<path d="M193.869 91.1401C196.084 91.1401 197.879 89.3448 197.879 87.1301C197.879 84.9154 196.084 83.1201 193.869 83.1201C191.655 83.1201 189.859 84.9154 189.859 87.1301C189.859 89.3448 191.655 91.1401 193.869 91.1401Z" fill="#DDDBDB"/>
<path d="M158.221 100.59C160.436 100.59 162.231 98.7945 162.231 96.5798C162.231 94.3652 160.436 92.5698 158.221 92.5698C156.006 92.5698 154.211 94.3652 154.211 96.5798C154.211 98.7945 156.006 100.59 158.221 100.59Z" fill="#DDDBDB"/>
<path d="M172.481 100.59C174.695 100.59 176.491 98.7945 176.491 96.5798C176.491 94.3652 174.695 92.5698 172.481 92.5698C170.266 92.5698 168.471 94.3652 168.471 96.5798C168.471 98.7945 170.266 100.59 172.481 100.59Z" fill="#DDDBDB"/>
<path d="M186.74 100.59C188.955 100.59 190.75 98.7945 190.75 96.5798C190.75 94.3652 188.955 92.5698 186.74 92.5698C184.526 92.5698 182.73 94.3652 182.73 96.5798C182.73 98.7945 184.526 100.59 186.74 100.59Z" fill="#DDDBDB"/>
<path d="M151.09 109.65C153.305 109.65 155.1 107.855 155.1 105.64C155.1 103.425 153.305 101.63 151.09 101.63C148.875 101.63 147.08 103.425 147.08 105.64C147.08 107.855 148.875 109.65 151.09 109.65Z" fill="#DDDBDB"/>
<path d="M165.35 109.65C167.565 109.65 169.36 107.855 169.36 105.64C169.36 103.425 167.565 101.63 165.35 101.63C163.135 101.63 161.34 103.425 161.34 105.64C161.34 107.855 163.135 109.65 165.35 109.65Z" fill="#DDDBDB"/>
<path d="M179.61 109.65C181.824 109.65 183.62 107.855 183.62 105.64C183.62 103.425 181.824 101.63 179.61 101.63C177.395 101.63 175.6 103.425 175.6 105.64C175.6 107.855 177.395 109.65 179.61 109.65Z" fill="#DDDBDB"/>
<path d="M193.869 109.65C196.084 109.65 197.879 107.855 197.879 105.64C197.879 103.425 196.084 101.63 193.869 101.63C191.655 101.63 189.859 103.425 189.859 105.64C189.859 107.855 191.655 109.65 193.869 109.65Z" fill="#DDDBDB"/>
<path d="M158.221 119.11C160.436 119.11 162.231 117.315 162.231 115.1C162.231 112.885 160.436 111.09 158.221 111.09C156.006 111.09 154.211 112.885 154.211 115.1C154.211 117.315 156.006 119.11 158.221 119.11Z" fill="#DDDBDB"/>
<path d="M172.481 119.11C174.695 119.11 176.491 117.315 176.491 115.1C176.491 112.885 174.695 111.09 172.481 111.09C170.266 111.09 168.471 112.885 168.471 115.1C168.471 117.315 170.266 119.11 172.481 119.11Z" fill="#DDDBDB"/>
<path d="M186.74 119.11C188.955 119.11 190.75 117.315 190.75 115.1C190.75 112.885 188.955 111.09 186.74 111.09C184.526 111.09 182.73 112.885 182.73 115.1C182.73 117.315 184.526 119.11 186.74 119.11Z" fill="#DDDBDB"/>
<path d="M151.09 128.17C153.305 128.17 155.1 126.375 155.1 124.16C155.1 121.945 153.305 120.15 151.09 120.15C148.875 120.15 147.08 121.945 147.08 124.16C147.08 126.375 148.875 128.17 151.09 128.17Z" fill="#DDDBDB"/>
<path d="M165.35 128.17C167.565 128.17 169.36 126.375 169.36 124.16C169.36 121.945 167.565 120.15 165.35 120.15C163.135 120.15 161.34 121.945 161.34 124.16C161.34 126.375 163.135 128.17 165.35 128.17Z" fill="#DDDBDB"/>
<path d="M179.61 128.17C181.824 128.17 183.62 126.375 183.62 124.16C183.62 121.945 181.824 120.15 179.61 120.15C177.395 120.15 175.6 121.945 175.6 124.16C175.6 126.375 177.395 128.17 179.61 128.17Z" fill="#DDDBDB"/>
<path d="M193.869 128.17C196.084 128.17 197.879 126.375 197.879 124.16C197.879 121.945 196.084 120.15 193.869 120.15C191.655 120.15 189.859 121.945 189.859 124.16C189.859 126.375 191.655 128.17 193.869 128.17Z" fill="#DDDBDB"/>
<path d="M158.221 137.62C160.436 137.62 162.231 135.825 162.231 133.61C162.231 131.395 160.436 129.6 158.221 129.6C156.006 129.6 154.211 131.395 154.211 133.61C154.211 135.825 156.006 137.62 158.221 137.62Z" fill="#DDDBDB"/>
<path d="M172.481 137.62C174.695 137.62 176.491 135.825 176.491 133.61C176.491 131.395 174.695 129.6 172.481 129.6C170.266 129.6 168.471 131.395 168.471 133.61C168.471 135.825 170.266 137.62 172.481 137.62Z" fill="#DDDBDB"/>
<path d="M186.74 137.62C188.955 137.62 190.75 135.825 190.75 133.61C190.75 131.395 188.955 129.6 186.74 129.6C184.526 129.6 182.73 131.395 182.73 133.61C182.73 135.825 184.526 137.62 186.74 137.62Z" fill="#DDDBDB"/>
<path d="M151.09 146.68C153.305 146.68 155.1 144.885 155.1 142.67C155.1 140.455 153.305 138.66 151.09 138.66C148.875 138.66 147.08 140.455 147.08 142.67C147.08 144.885 148.875 146.68 151.09 146.68Z" fill="#DDDBDB"/>
<path d="M165.35 146.68C167.565 146.68 169.36 144.885 169.36 142.67C169.36 140.455 167.565 138.66 165.35 138.66C163.135 138.66 161.34 140.455 161.34 142.67C161.34 144.885 163.135 146.68 165.35 146.68Z" fill="#DDDBDB"/>
<path d="M179.61 146.68C181.824 146.68 183.62 144.885 183.62 142.67C183.62 140.455 181.824 138.66 179.61 138.66C177.395 138.66 175.6 140.455 175.6 142.67C175.6 144.885 177.395 146.68 179.61 146.68Z" fill="#DDDBDB"/>
<path d="M193.869 146.68C196.084 146.68 197.879 144.885 197.879 142.67C197.879 140.455 196.084 138.66 193.869 138.66C191.655 138.66 189.859 140.455 189.859 142.67C189.859 144.885 191.655 146.68 193.869 146.68Z" fill="#DDDBDB"/>
<path d="M158.221 156.14C160.436 156.14 162.231 154.345 162.231 152.13C162.231 149.915 160.436 148.12 158.221 148.12C156.006 148.12 154.211 149.915 154.211 152.13C154.211 154.345 156.006 156.14 158.221 156.14Z" fill="#DDDBDB"/>
<path d="M172.481 156.14C174.695 156.14 176.491 154.345 176.491 152.13C176.491 149.915 174.695 148.12 172.481 148.12C170.266 148.12 168.471 149.915 168.471 152.13C168.471 154.345 170.266 156.14 172.481 156.14Z" fill="#DDDBDB"/>
<path d="M186.74 156.14C188.955 156.14 190.75 154.345 190.75 152.13C190.75 149.915 188.955 148.12 186.74 148.12C184.526 148.12 182.73 149.915 182.73 152.13C182.73 154.345 184.526 156.14 186.74 156.14Z" fill="#DDDBDB"/>
<path d="M151.09 165.19C153.305 165.19 155.1 163.395 155.1 161.18C155.1 158.965 153.305 157.17 151.09 157.17C148.875 157.17 147.08 158.965 147.08 161.18C147.08 163.395 148.875 165.19 151.09 165.19Z" fill="#DDDBDB"/>
<path d="M165.35 165.19C167.565 165.19 169.36 163.395 169.36 161.18C169.36 158.965 167.565 157.17 165.35 157.17C163.135 157.17 161.34 158.965 161.34 161.18C161.34 163.395 163.135 165.19 165.35 165.19Z" fill="#DDDBDB"/>
<path d="M179.61 165.19C181.824 165.19 183.62 163.395 183.62 161.18C183.62 158.965 181.824 157.17 179.61 157.17C177.395 157.17 175.6 158.965 175.6 161.18C175.6 163.395 177.395 165.19 179.61 165.19Z" fill="#DDDBDB"/>
<path d="M193.869 165.19C196.084 165.19 197.879 163.395 197.879 161.18C197.879 158.965 196.084 157.17 193.869 157.17C191.655 157.17 189.859 158.965 189.859 161.18C189.859 163.395 191.655 165.19 193.869 165.19Z" fill="#DDDBDB"/>
<path d="M158.221 174.65C160.436 174.65 162.231 172.855 162.231 170.64C162.231 168.425 160.436 166.63 158.221 166.63C156.006 166.63 154.211 168.425 154.211 170.64C154.211 172.855 156.006 174.65 158.221 174.65Z" fill="#DDDBDB"/>
<path d="M172.481 174.65C174.695 174.65 176.491 172.855 176.491 170.64C176.491 168.425 174.695 166.63 172.481 166.63C170.266 166.63 168.471 168.425 168.471 170.64C168.471 172.855 170.266 174.65 172.481 174.65Z" fill="#DDDBDB"/>
<path d="M186.74 174.65C188.955 174.65 190.75 172.855 190.75 170.64C190.75 168.425 188.955 166.63 186.74 166.63C184.526 166.63 182.73 168.425 182.73 170.64C182.73 172.855 184.526 174.65 186.74 174.65Z" fill="#DDDBDB"/>
<path d="M151.09 183.71C153.305 183.71 155.1 181.915 155.1 179.7C155.1 177.485 153.305 175.69 151.09 175.69C148.875 175.69 147.08 177.485 147.08 179.7C147.08 181.915 148.875 183.71 151.09 183.71Z" fill="#DDDBDB"/>
<path d="M165.35 183.71C167.565 183.71 169.36 181.915 169.36 179.7C169.36 177.485 167.565 175.69 165.35 175.69C163.135 175.69 161.34 177.485 161.34 179.7C161.34 181.915 163.135 183.71 165.35 183.71Z" fill="#DDDBDB"/>
<path d="M179.61 183.71C181.824 183.71 183.62 181.915 183.62 179.7C183.62 177.485 181.824 175.69 179.61 175.69C177.395 175.69 175.6 177.485 175.6 179.7C175.6 181.915 177.395 183.71 179.61 183.71Z" fill="#DDDBDB"/>
<path d="M193.869 183.71C196.084 183.71 197.879 181.915 197.879 179.7C197.879 177.485 196.084 175.69 193.869 175.69C191.655 175.69 189.859 177.485 189.859 179.7C189.859 181.915 191.655 183.71 193.869 183.71Z" fill="#DDDBDB"/>
<path d="M158.221 192.77C160.436 192.77 162.231 190.975 162.231 188.76C162.231 186.545 160.436 184.75 158.221 184.75C156.006 184.75 154.211 186.545 154.211 188.76C154.211 190.975 156.006 192.77 158.221 192.77Z" fill="#DDDBDB"/>
<path d="M172.481 192.77C174.695 192.77 176.491 190.975 176.491 188.76C176.491 186.545 174.695 184.75 172.481 184.75C170.266 184.75 168.471 186.545 168.471 188.76C168.471 190.975 170.266 192.77 172.481 192.77Z" fill="#DDDBDB"/>
<path d="M186.74 192.77C188.955 192.77 190.75 190.975 190.75 188.76C190.75 186.545 188.955 184.75 186.74 184.75C184.526 184.75 182.73 186.545 182.73 188.76C182.73 190.975 184.526 192.77 186.74 192.77Z" fill="#DDDBDB"/>
<path d="M151.09 201.82C153.305 201.82 155.1 200.024 155.1 197.81C155.1 195.595 153.305 193.8 151.09 193.8C148.875 193.8 147.08 195.595 147.08 197.81C147.08 200.024 148.875 201.82 151.09 201.82Z" fill="#DDDBDB"/>
<path d="M165.35 201.82C167.565 201.82 169.36 200.024 169.36 197.81C169.36 195.595 167.565 193.8 165.35 193.8C163.135 193.8 161.34 195.595 161.34 197.81C161.34 200.024 163.135 201.82 165.35 201.82Z" fill="#DDDBDB"/>
<path d="M179.61 201.82C181.824 201.82 183.62 200.024 183.62 197.81C183.62 195.595 181.824 193.8 179.61 193.8C177.395 193.8 175.6 195.595 175.6 197.81C175.6 200.024 177.395 201.82 179.61 201.82Z" fill="#DDDBDB"/>
<path d="M193.869 201.82C196.084 201.82 197.879 200.024 197.879 197.81C197.879 195.595 196.084 193.8 193.869 193.8C191.655 193.8 189.859 195.595 189.859 197.81C189.859 200.024 191.655 201.82 193.869 201.82Z" fill="#DDDBDB"/>
<path d="M75.3205 201.82C77.5352 201.82 79.3306 200.024 79.3306 197.81C79.3306 195.595 77.5352 193.8 75.3205 193.8C73.1059 193.8 71.3105 195.595 71.3105 197.81C71.3105 200.024 73.1059 201.82 75.3205 201.82Z" fill="#DDDBDB"/>
<path d="M89.5803 201.82C91.795 201.82 93.5903 200.024 93.5903 197.81C93.5903 195.595 91.795 193.8 89.5803 193.8C87.3657 193.8 85.5703 195.595 85.5703 197.81C85.5703 200.024 87.3657 201.82 89.5803 201.82Z" fill="#DDDBDB"/>
<path d="M103.85 201.82C106.065 201.82 107.86 200.024 107.86 197.81C107.86 195.595 106.065 193.8 103.85 193.8C101.635 193.8 99.8398 195.595 99.8398 197.81C99.8398 200.024 101.635 201.82 103.85 201.82Z" fill="#DDDBDB"/>
<path d="M118.11 201.82C120.324 201.82 122.12 200.024 122.12 197.81C122.12 195.595 120.324 193.8 118.11 193.8C115.895 193.8 114.1 195.595 114.1 197.81C114.1 200.024 115.895 201.82 118.11 201.82Z" fill="#DDDBDB"/>
<path d="M132.369 201.82C134.584 201.82 136.379 200.024 136.379 197.81C136.379 195.595 134.584 193.8 132.369 193.8C130.155 193.8 128.359 195.595 128.359 197.81C128.359 200.024 130.155 201.82 132.369 201.82Z" fill="#DDDBDB"/>
<path d="M142.66 201.29C141.83 201.29 141.16 200.62 141.16 199.79V1.7002C141.16 0.870195 141.83 0.200195 142.66 0.200195C143.49 0.200195 144.16 0.870195 144.16 1.7002V199.79C144.16 200.62 143.49 201.29 142.66 201.29Z" fill="#DDDBDB"/>
<path d="M51.8585 59.3398C53.0485 60.3498 54.5085 60.8398 55.9685 60.8398C56.2585 60.8398 56.5385 60.8098 56.8285 60.7798L69.5685 71.5498L71.4985 69.2598L75.1385 72.3398C75.6585 72.7798 76.2985 72.9998 76.9385 72.9998C77.7285 72.9998 78.5185 72.6698 79.0685 72.0098L96.8685 50.9498C97.3485 50.3798 97.5785 49.6598 97.5185 48.9198C97.4585 48.1798 97.1085 47.4998 96.5385 47.0198L92.8985 43.9398L94.8285 41.6498L83.2285 31.8498C84.5685 29.2698 84.0085 25.9998 81.6885 24.0398C79.0085 21.7698 74.9785 22.1098 72.7085 24.7898L51.1085 50.3498C50.0085 51.6498 49.4785 53.2998 49.6285 54.9998C49.7785 56.6998 50.5685 58.2398 51.8685 59.3298L51.8585 59.3398ZM67.6985 50.4698L81.4085 34.2498L90.5885 42.0098L79.8985 54.6598L69.2085 67.3098L60.0285 59.5498L67.7085 50.4698H67.6985ZM90.9585 46.2298L94.4385 49.1698L76.9085 69.9098L73.4285 66.9698L82.1885 56.5998L90.9485 46.2298H90.9585ZM79.7585 26.3298C81.1785 27.5298 81.3585 29.6598 80.1585 31.0798L80.0885 31.1598C78.8885 32.5698 76.7585 32.7498 75.3385 31.5498C73.9185 30.3498 73.7385 28.2198 74.9385 26.7998L75.0085 26.7198C76.2085 25.2998 78.3385 25.1198 79.7585 26.3198V26.3298ZM53.3985 52.2898L71.4585 30.9298C71.8085 32.0298 72.4585 33.0498 73.4085 33.8498C74.3585 34.6498 75.4685 35.1098 76.6185 35.2798L64.0285 50.1698L58.5485 56.6498C57.3485 58.0598 55.2185 58.2398 53.7985 57.0398C53.1085 56.4598 52.6885 55.6398 52.6185 54.7498C52.5485 53.8598 52.8185 52.9798 53.4085 52.2898H53.3985Z" fill="black"/>
<path d="M103.619 76.9497L99.9092 78.4397L103.019 85.3497C78.2192 76.3297 50.9992 81.1797 39.6992 87.7397L41.7092 91.1997C51.0492 85.7797 77.9892 80.0797 102.699 89.4997L93.6092 92.3997L94.8392 96.2097L109.939 91.3797L103.639 76.9497H103.619Z" fill="black"/>
</g>
<defs>
<clipPath id="clip0_1015_1861">
<rect width="197.89" height="201.83" fill="white"/>
</clipPath>
</defs>
</svg>
