<svg width="51" height="78" viewBox="0 0 51 78" fill="none" xmlns="http://www.w3.org/2000/svg">
<g clip-path="url(#clip0_1583_3593)">
<path d="M49.8728 37.9993C49.1251 37.2046 48.1877 36.8017 47.0717 36.8017C46.5249 36.8017 46.0004 36.9248 45.4982 37.1598C45.2527 37.2829 45.0406 37.4284 44.8621 37.5963V22.0612C44.8621 21.1323 44.1144 20.3824 43.1881 20.3824H16.3266L14.05 15.5137L11.7846 20.3824H5.74719C4.82094 20.3824 4.07323 21.1323 4.07323 22.0612V27.5008L-0.0112305 29.3251L4.07323 31.1495V59.4663C4.07323 60.3953 4.82094 61.1452 5.74719 61.1452H17.1301L19.0608 66.484C20.3441 70.1551 22.3864 72.9868 25.1875 74.9902C27.9886 76.9937 31.3142 77.9898 35.1866 77.9898C40.0969 77.9898 43.9581 76.5795 46.7815 73.7478C49.5938 70.9274 51.0111 67.0436 51.0111 62.1189V40.8533C51.0111 39.7341 50.6317 38.7715 49.884 37.9769L49.8728 37.9993ZM14.7531 23.1805L16.5945 26.9635L21.8953 29.3251L16.5945 31.6867L14.05 36.9136L11.5391 31.6867L6.20474 29.3251L11.5391 26.9635L14.05 21.7367L14.7531 23.1805ZM6.86317 23.1805H10.4901L9.64194 24.9937L6.86317 26.236V23.1805ZM6.86317 58.3471V32.403L9.64194 33.6454L14.05 43.159L18.4916 33.6454L28.1113 29.3139L18.4916 24.9825L17.6435 23.1693H42.0721V30.6123C41.6034 30.3996 41.0789 30.2877 40.5098 30.2877C39.9741 30.2877 39.4608 30.3772 38.9809 30.5563C38.501 30.7354 38.1551 31.004 37.943 31.3621C37.8538 30.2877 37.452 29.3699 36.7378 28.5976C36.0236 27.8253 35.1085 27.4448 34.0036 27.4448C32.8319 27.4448 31.8498 27.8589 31.0686 28.676C30.2875 29.493 29.8969 30.4891 29.9192 31.642V33.4215C29.6514 33.0522 29.3166 32.75 28.9148 32.5262C28.5131 32.2911 28.0109 32.1792 27.4082 32.1792C26.2923 32.1792 25.3549 32.5821 24.6071 33.3768C23.8594 34.1714 23.48 35.134 23.48 36.2532V53.3553C22.8328 52.0457 22.2748 51.1392 21.8172 50.6467C21.3597 50.1542 20.6566 49.6618 19.6969 49.1917L18.5139 48.8111C18.3242 48.688 18.101 48.6097 17.8332 48.5649C17.5654 48.5201 17.3087 48.4977 17.0743 48.4977C16.2597 48.4977 15.5566 48.8111 14.9317 49.4267C14.3067 50.0423 14.0054 50.7586 14.0054 51.5757C14.0054 51.8779 14.0389 52.18 14.0947 52.4822C14.1505 52.7844 14.2286 53.0642 14.329 53.3553L16.1369 58.3471H6.87433H6.86317ZM48.4555 62.1413C48.4555 66.3273 47.2949 69.5955 44.9625 71.9459C42.6301 74.2963 39.3715 75.4715 35.1754 75.4715C31.7717 75.4715 28.9148 74.6209 26.6159 72.9196C24.317 71.2184 22.5984 68.7896 21.4601 65.6222L16.5833 52.2584C16.4159 51.8667 16.4159 51.5645 16.561 51.3518C16.7172 51.1392 16.9739 51.0496 17.3422 51.1056C18.2015 51.2287 19.005 51.5868 19.7415 52.18C20.478 52.7732 21.1476 53.8141 21.7279 55.2803L23.3461 59.3992H25.9798V36.2868C25.9798 35.8279 26.1026 35.4698 26.3369 35.1788C26.5713 34.8989 26.9172 34.7534 27.3748 34.7534C27.8323 34.7534 28.1783 34.8989 28.4238 35.1788C28.6693 35.4586 28.7921 35.8279 28.7921 36.2868V52.7956H32.5306V31.53C32.5306 31.0711 32.6533 30.713 32.8877 30.422C33.122 30.131 33.4791 29.9967 33.9478 29.9967C34.4166 29.9967 34.7402 30.1422 34.9857 30.422C35.2201 30.7018 35.3428 31.0711 35.3428 31.53V52.7733H39.1036V34.3729C39.1036 33.914 39.2264 33.5559 39.4608 33.2649C39.6951 32.9739 40.0411 32.8395 40.4986 32.8395C40.9562 32.8395 41.3021 32.985 41.5476 33.2649C41.7931 33.5447 41.9159 33.914 41.9159 34.3729V52.7733H45.6544V40.8757C45.6544 40.4168 45.7772 40.0587 46.0115 39.7677C46.2459 39.4878 46.603 39.3423 47.0717 39.3423C47.5404 39.3423 47.864 39.4878 48.1096 39.7677C48.3439 40.0475 48.4667 40.4168 48.4667 40.8757V62.1413H48.4555Z" fill="black"/>
<path d="M21.4491 16.9002L23.536 12.0539L28.5132 9.8714L23.536 7.68888L21.4491 3.06641L19.3734 7.68888L14.385 9.8714L19.3734 12.0539L21.4491 16.9002Z" fill="black"/>
<path d="M9.82061 8.95394L11.1598 5.82006L14.3849 4.39862L11.1598 2.99957L9.82061 0L8.47028 2.99957L5.24512 4.39862L8.47028 5.82006L9.82061 8.95394Z" fill="black"/>
</g>
<defs>
<clipPath id="clip0_1583_3593">
<rect width="51" height="78" fill="white"/>
</clipPath>
</defs>
</svg>
