<svg width="51" height="54" viewBox="0 0 51 54" fill="none" xmlns="http://www.w3.org/2000/svg">
<g clip-path="url(#clip0_1015_2584)">
<path d="M43.1954 5.3243V1.47196C43.1954 0.656075 42.5366 0 41.7173 0H1.47814C0.658827 0 0 0.656075 0 1.47196V52.528C0 53.3439 0.658827 54 1.47814 54H41.7173C42.5366 54 43.1954 53.3439 43.1954 52.528V48.5327H40.2392V51.0561H23.0759V49.5841H20.1196V51.0561H2.95628V2.94393H20.1196V4.41589H23.0759V2.94393H40.2392V5.3243H43.1954Z" fill="black"/>
<path d="M23.0754 23.77H20.1191V30.2214H23.0754V23.77Z" fill="black"/>
<path d="M23.0754 36.6814H20.1191V43.1328H23.0754V36.6814Z" fill="black"/>
<path d="M23.0754 10.8672H20.1191V17.3186H23.0754V10.8672Z" fill="black"/>
<path d="M50.0455 8.18411C49.412 7.55327 48.6518 7.23364 47.7734 7.23364H35.1543C34.2759 7.23364 33.5072 7.55327 32.8822 8.18411C32.2487 8.81495 31.9277 9.57196 31.9277 10.4467V43.5533C31.9277 44.428 32.2487 45.185 32.8822 45.8159C33.5157 46.4467 34.2759 46.7664 35.1543 46.7664H47.7734C48.6518 46.7664 49.4204 46.4467 50.0455 45.8159C50.679 45.185 50.9999 44.4196 50.9999 43.5533V10.4467C50.9999 9.57196 50.679 8.80654 50.0455 8.18411ZM48.1535 32.1392C48.1535 33.1065 47.7987 33.9308 47.0808 34.6458C46.3544 35.3692 45.5351 35.714 44.5722 35.714C43.6093 35.714 42.7815 35.3607 42.0466 34.6458C41.3202 33.9224 40.9655 33.1065 40.9655 32.1392V28.4215H48.1535V32.1392ZM48.1535 25.5869H40.9655V21.8692C40.9655 20.9103 41.3202 20.086 42.0466 19.3626C42.773 18.6392 43.6008 18.286 44.5637 18.286C45.5266 18.286 46.3459 18.6392 47.0723 19.3626C47.7987 20.086 48.1535 20.9019 48.1535 21.8692V25.5869ZM48.1535 16.5785C47.7058 16.2757 47.2244 16.0318 46.7091 15.8383C46.025 15.586 45.2986 15.4514 44.5553 15.4514C42.8237 15.4514 41.3034 16.0907 40.0279 17.3607C38.7525 18.6308 38.1106 20.1449 38.1106 21.8692V32.1392C38.1106 33.8804 38.7525 35.3944 40.0279 36.6561C41.2949 37.9178 42.8237 38.557 44.5553 38.557C45.2901 38.557 46.0165 38.4308 46.7007 38.1701C47.2159 37.9766 47.7058 37.7243 48.145 37.4299V43.5617C48.145 43.6794 48.1112 43.7635 48.0437 43.8392C47.9761 43.9065 47.8832 43.9402 47.7649 43.9402H35.1459C35.0276 43.9402 34.9431 43.9065 34.8671 43.8392C34.7995 43.772 34.7658 43.6794 34.7658 43.5617V10.4467C34.7658 10.329 34.7995 10.2364 34.8671 10.1692C34.9347 10.1019 35.0276 10.0682 35.1459 10.0682H47.7649C47.8832 10.0682 47.9676 10.1019 48.0437 10.1692C48.1112 10.2364 48.145 10.329 48.145 10.4467V16.5785H48.1535Z" fill="black"/>
</g>
<defs>
<clipPath id="clip0_1015_2584">
<rect width="51" height="54" fill="white"/>
</clipPath>
</defs>
</svg>
