<svg width="51" height="53" viewBox="0 0 51 53" fill="none" xmlns="http://www.w3.org/2000/svg">
<g clip-path="url(#clip0_1015_2578)">
<path d="M20.1327 36.5371C19.8834 36.7933 19.7422 37.1239 19.7422 37.4792V41.2644C19.7422 41.9999 20.3404 42.5949 21.0799 42.5949H24.8854C25.2427 42.5949 25.5833 42.4545 25.8326 42.2065L45.6161 22.5536L39.8996 16.8677L20.1327 36.5454V36.5371ZM24.2539 39.8181H22.5423V38.1156L39.8996 20.8511L41.6112 22.5536L24.2539 39.8181Z" fill="black"/>
<path d="M50.1616 14.3058L48.1841 12.3389C47.6274 11.7851 47.0042 11.5042 46.3063 11.5042C45.6249 11.5042 44.9935 11.8017 44.4285 12.3554L42.1934 14.5785L47.9099 20.2645L50.145 18.0413C50.71 17.4794 50.9925 16.8595 51.0008 16.1736C51.0008 15.4876 50.7266 14.8595 50.1616 14.3058Z" fill="black"/>
<path d="M22.7256 12.2148H19.7344V19.033H22.7256V12.2148Z" fill="black"/>
<path d="M22.7256 24.7852H19.7344V31.6033H22.7256V24.7852Z" fill="black"/>
<path d="M39.4756 50.0248H22.7248V44.9422H19.7336V50.0248H2.9912V2.97521H19.7336V7.23141H22.7248V2.97521H39.4673V14.3471L42.4585 11.3719V1.36364C42.4585 0.61157 41.8436 0 41.0875 0H1.37097C0.614858 0 0 0.61157 0 1.36364V51.6281C0 52.3802 0.614858 52.9917 1.37097 52.9917H41.0875C41.8436 52.9917 42.4585 52.3802 42.4585 51.6281V28.6777L39.4673 31.6529V50.0165L39.4756 50.0248Z" fill="black"/>
</g>
<defs>
<clipPath id="clip0_1015_2578">
<rect width="51" height="53" fill="white"/>
</clipPath>
</defs>
</svg>
