<svg width="169" height="210" viewBox="0 0 169 210" fill="none" xmlns="http://www.w3.org/2000/svg">
<g clip-path="url(#clip0_1583_4096)" filter="url(#filter0_d_1583_4096)">
<path d="M15.1399 8.02C17.3545 8.02 19.1499 6.22466 19.1499 4.01C19.1499 1.79534 17.3545 0 15.1399 0C12.9252 0 11.1299 1.79534 11.1299 4.01C11.1299 6.22466 12.9252 8.02 15.1399 8.02Z" fill="#DDDBDB"/>
<path d="M29.4099 8.02C31.6246 8.02 33.4199 6.22466 33.4199 4.01C33.4199 1.79534 31.6246 0 29.4099 0C27.1952 0 25.3999 1.79534 25.3999 4.01C25.3999 6.22466 27.1952 8.02 29.4099 8.02Z" fill="#DDDBDB"/>
<path d="M43.6699 8.02C45.8846 8.02 47.6799 6.22466 47.6799 4.01C47.6799 1.79534 45.8846 0 43.6699 0C41.4552 0 39.6599 1.79534 39.6599 4.01C39.6599 6.22466 41.4552 8.02 43.6699 8.02Z" fill="#DDDBDB"/>
<path d="M57.9299 8.02C60.1446 8.02 61.9399 6.22466 61.9399 4.01C61.9399 1.79534 60.1446 0 57.9299 0C55.7153 0 53.9199 1.79534 53.9199 4.01C53.9199 6.22466 55.7153 8.02 57.9299 8.02Z" fill="#DDDBDB"/>
<path d="M72.1899 8.02C74.4046 8.02 76.1999 6.22466 76.1999 4.01C76.1999 1.79534 74.4046 0 72.1899 0C69.9753 0 68.1799 1.79534 68.1799 4.01C68.1799 6.22466 69.9753 8.02 72.1899 8.02Z" fill="#DDDBDB"/>
<path d="M86.4499 8.02C88.6646 8.02 90.4599 6.22466 90.4599 4.01C90.4599 1.79534 88.6646 0 86.4499 0C84.2353 0 82.4399 1.79534 82.4399 4.01C82.4399 6.22466 84.2353 8.02 86.4499 8.02Z" fill="#DDDBDB"/>
<path d="M100.72 8.02C102.935 8.02 104.73 6.22466 104.73 4.01C104.73 1.79534 102.935 0 100.72 0C98.5053 0 96.71 1.79534 96.71 4.01C96.71 6.22466 98.5053 8.02 100.72 8.02Z" fill="#DDDBDB"/>
<path d="M114.98 8.02C117.195 8.02 118.99 6.22466 118.99 4.01C118.99 1.79534 117.195 0 114.98 0C112.765 0 110.97 1.79534 110.97 4.01C110.97 6.22466 112.765 8.02 114.98 8.02Z" fill="#DDDBDB"/>
<path d="M129.24 8.02C131.455 8.02 133.25 6.22466 133.25 4.01C133.25 1.79534 131.455 0 129.24 0C127.025 0 125.23 1.79534 125.23 4.01C125.23 6.22466 127.025 8.02 129.24 8.02Z" fill="#DDDBDB"/>
<path d="M8.01 17.0805C10.2247 17.0805 12.02 15.2852 12.02 13.0705C12.02 10.8559 10.2247 9.06055 8.01 9.06055C5.79534 9.06055 4 10.8559 4 13.0705C4 15.2852 5.79534 17.0805 8.01 17.0805Z" fill="#DDDBDB"/>
<path d="M22.28 17.0805C24.4947 17.0805 26.29 15.2852 26.29 13.0705C26.29 10.8559 24.4947 9.06055 22.28 9.06055C20.0654 9.06055 18.27 10.8559 18.27 13.0705C18.27 15.2852 20.0654 17.0805 22.28 17.0805Z" fill="#DDDBDB"/>
<path d="M36.54 17.0805C38.7547 17.0805 40.55 15.2852 40.55 13.0705C40.55 10.8559 38.7547 9.06055 36.54 9.06055C34.3254 9.06055 32.53 10.8559 32.53 13.0705C32.53 15.2852 34.3254 17.0805 36.54 17.0805Z" fill="#DDDBDB"/>
<path d="M50.8 17.0805C53.0147 17.0805 54.81 15.2852 54.81 13.0705C54.81 10.8559 53.0147 9.06055 50.8 9.06055C48.5854 9.06055 46.79 10.8559 46.79 13.0705C46.79 15.2852 48.5854 17.0805 50.8 17.0805Z" fill="#DDDBDB"/>
<path d="M65.0601 17.0805C67.2747 17.0805 69.07 15.2852 69.07 13.0705C69.07 10.8559 67.2747 9.06055 65.0601 9.06055C62.8454 9.06055 61.05 10.8559 61.05 13.0705C61.05 15.2852 62.8454 17.0805 65.0601 17.0805Z" fill="#DDDBDB"/>
<path d="M79.3201 17.0805C81.5347 17.0805 83.3301 15.2852 83.3301 13.0705C83.3301 10.8559 81.5347 9.06055 79.3201 9.06055C77.1054 9.06055 75.3101 10.8559 75.3101 13.0705C75.3101 15.2852 77.1054 17.0805 79.3201 17.0805Z" fill="#DDDBDB"/>
<path d="M93.5801 17.0805C95.7947 17.0805 97.5901 15.2852 97.5901 13.0705C97.5901 10.8559 95.7947 9.06055 93.5801 9.06055C91.3654 9.06055 89.5701 10.8559 89.5701 13.0705C89.5701 15.2852 91.3654 17.0805 93.5801 17.0805Z" fill="#DDDBDB"/>
<path d="M107.85 17.0805C110.065 17.0805 111.86 15.2852 111.86 13.0705C111.86 10.8559 110.065 9.06055 107.85 9.06055C105.635 9.06055 103.84 10.8559 103.84 13.0705C103.84 15.2852 105.635 17.0805 107.85 17.0805Z" fill="#DDDBDB"/>
<path d="M122.11 17.0805C124.325 17.0805 126.12 15.2852 126.12 13.0705C126.12 10.8559 124.325 9.06055 122.11 9.06055C119.895 9.06055 118.1 10.8559 118.1 13.0705C118.1 15.2852 119.895 17.0805 122.11 17.0805Z" fill="#DDDBDB"/>
<path d="M136.37 17.0805C138.585 17.0805 140.38 15.2852 140.38 13.0705C140.38 10.8559 138.585 9.06055 136.37 9.06055C134.155 9.06055 132.36 10.8559 132.36 13.0705C132.36 15.2852 134.155 17.0805 136.37 17.0805Z" fill="#DDDBDB"/>
<path d="M15.1399 26.5395C17.3545 26.5395 19.1499 24.7442 19.1499 22.5295C19.1499 20.3149 17.3545 18.5195 15.1399 18.5195C12.9252 18.5195 11.1299 20.3149 11.1299 22.5295C11.1299 24.7442 12.9252 26.5395 15.1399 26.5395Z" fill="#DDDBDB"/>
<path d="M29.4099 26.5395C31.6246 26.5395 33.4199 24.7442 33.4199 22.5295C33.4199 20.3149 31.6246 18.5195 29.4099 18.5195C27.1952 18.5195 25.3999 20.3149 25.3999 22.5295C25.3999 24.7442 27.1952 26.5395 29.4099 26.5395Z" fill="#DDDBDB"/>
<path d="M43.6699 26.5395C45.8846 26.5395 47.6799 24.7442 47.6799 22.5295C47.6799 20.3149 45.8846 18.5195 43.6699 18.5195C41.4552 18.5195 39.6599 20.3149 39.6599 22.5295C39.6599 24.7442 41.4552 26.5395 43.6699 26.5395Z" fill="#DDDBDB"/>
<path d="M57.9299 26.5395C60.1446 26.5395 61.9399 24.7442 61.9399 22.5295C61.9399 20.3149 60.1446 18.5195 57.9299 18.5195C55.7153 18.5195 53.9199 20.3149 53.9199 22.5295C53.9199 24.7442 55.7153 26.5395 57.9299 26.5395Z" fill="#DDDBDB"/>
<path d="M72.1899 26.5395C74.4046 26.5395 76.1999 24.7442 76.1999 22.5295C76.1999 20.3149 74.4046 18.5195 72.1899 18.5195C69.9753 18.5195 68.1799 20.3149 68.1799 22.5295C68.1799 24.7442 69.9753 26.5395 72.1899 26.5395Z" fill="#DDDBDB"/>
<path d="M86.4499 26.5395C88.6646 26.5395 90.4599 24.7442 90.4599 22.5295C90.4599 20.3149 88.6646 18.5195 86.4499 18.5195C84.2353 18.5195 82.4399 20.3149 82.4399 22.5295C82.4399 24.7442 84.2353 26.5395 86.4499 26.5395Z" fill="#DDDBDB"/>
<path d="M100.72 26.5395C102.935 26.5395 104.73 24.7442 104.73 22.5295C104.73 20.3149 102.935 18.5195 100.72 18.5195C98.5053 18.5195 96.71 20.3149 96.71 22.5295C96.71 24.7442 98.5053 26.5395 100.72 26.5395Z" fill="#DDDBDB"/>
<path d="M114.98 26.5395C117.195 26.5395 118.99 24.7442 118.99 22.5295C118.99 20.3149 117.195 18.5195 114.98 18.5195C112.765 18.5195 110.97 20.3149 110.97 22.5295C110.97 24.7442 112.765 26.5395 114.98 26.5395Z" fill="#DDDBDB"/>
<path d="M129.24 26.5395C131.455 26.5395 133.25 24.7442 133.25 22.5295C133.25 20.3149 131.455 18.5195 129.24 18.5195C127.025 18.5195 125.23 20.3149 125.23 22.5295C125.23 24.7442 127.025 26.5395 129.24 26.5395Z" fill="#DDDBDB"/>
<path d="M8.01 35.6001C10.2247 35.6001 12.02 33.8047 12.02 31.5901C12.02 29.3754 10.2247 27.5801 8.01 27.5801C5.79534 27.5801 4 29.3754 4 31.5901C4 33.8047 5.79534 35.6001 8.01 35.6001Z" fill="#DDDBDB"/>
<path d="M22.28 35.6001C24.4947 35.6001 26.29 33.8047 26.29 31.5901C26.29 29.3754 24.4947 27.5801 22.28 27.5801C20.0654 27.5801 18.27 29.3754 18.27 31.5901C18.27 33.8047 20.0654 35.6001 22.28 35.6001Z" fill="#DDDBDB"/>
<path d="M36.54 35.6001C38.7547 35.6001 40.55 33.8047 40.55 31.5901C40.55 29.3754 38.7547 27.5801 36.54 27.5801C34.3254 27.5801 32.53 29.3754 32.53 31.5901C32.53 33.8047 34.3254 35.6001 36.54 35.6001Z" fill="#DDDBDB"/>
<path d="M50.8 35.6001C53.0147 35.6001 54.81 33.8047 54.81 31.5901C54.81 29.3754 53.0147 27.5801 50.8 27.5801C48.5854 27.5801 46.79 29.3754 46.79 31.5901C46.79 33.8047 48.5854 35.6001 50.8 35.6001Z" fill="#DDDBDB"/>
<path d="M65.0601 35.6001C67.2747 35.6001 69.07 33.8047 69.07 31.5901C69.07 29.3754 67.2747 27.5801 65.0601 27.5801C62.8454 27.5801 61.05 29.3754 61.05 31.5901C61.05 33.8047 62.8454 35.6001 65.0601 35.6001Z" fill="#DDDBDB"/>
<path d="M93.5801 35.6001C95.7947 35.6001 97.5901 33.8047 97.5901 31.5901C97.5901 29.3754 95.7947 27.5801 93.5801 27.5801C91.3654 27.5801 89.5701 29.3754 89.5701 31.5901C89.5701 33.8047 91.3654 35.6001 93.5801 35.6001Z" fill="#DDDBDB"/>
<path d="M107.85 35.6001C110.065 35.6001 111.86 33.8047 111.86 31.5901C111.86 29.3754 110.065 27.5801 107.85 27.5801C105.635 27.5801 103.84 29.3754 103.84 31.5901C103.84 33.8047 105.635 35.6001 107.85 35.6001Z" fill="#DDDBDB"/>
<path d="M122.11 35.6001C124.325 35.6001 126.12 33.8047 126.12 31.5901C126.12 29.3754 124.325 27.5801 122.11 27.5801C119.895 27.5801 118.1 29.3754 118.1 31.5901C118.1 33.8047 119.895 35.6001 122.11 35.6001Z" fill="#DDDBDB"/>
<path d="M136.37 35.6001C138.585 35.6001 140.38 33.8047 140.38 31.5901C140.38 29.3754 138.585 27.5801 136.37 27.5801C134.155 27.5801 132.36 29.3754 132.36 31.5901C132.36 33.8047 134.155 35.6001 136.37 35.6001Z" fill="#DDDBDB"/>
<path d="M15.1399 45.0493C17.3545 45.0493 19.1499 43.254 19.1499 41.0393C19.1499 38.8246 17.3545 37.0293 15.1399 37.0293C12.9252 37.0293 11.1299 38.8246 11.1299 41.0393C11.1299 43.254 12.9252 45.0493 15.1399 45.0493Z" fill="#DDDBDB"/>
<path d="M29.4099 45.0493C31.6246 45.0493 33.4199 43.254 33.4199 41.0393C33.4199 38.8246 31.6246 37.0293 29.4099 37.0293C27.1952 37.0293 25.3999 38.8246 25.3999 41.0393C25.3999 43.254 27.1952 45.0493 29.4099 45.0493Z" fill="#DDDBDB"/>
<path d="M43.6699 45.0493C45.8846 45.0493 47.6799 43.254 47.6799 41.0393C47.6799 38.8246 45.8846 37.0293 43.6699 37.0293C41.4552 37.0293 39.6599 38.8246 39.6599 41.0393C39.6599 43.254 41.4552 45.0493 43.6699 45.0493Z" fill="#DDDBDB"/>
<path d="M57.9299 45.0493C60.1446 45.0493 61.9399 43.254 61.9399 41.0393C61.9399 38.8246 60.1446 37.0293 57.9299 37.0293C55.7153 37.0293 53.9199 38.8246 53.9199 41.0393C53.9199 43.254 55.7153 45.0493 57.9299 45.0493Z" fill="#DDDBDB"/>
<path d="M100.72 45.0493C102.935 45.0493 104.73 43.254 104.73 41.0393C104.73 38.8246 102.935 37.0293 100.72 37.0293C98.5053 37.0293 96.71 38.8246 96.71 41.0393C96.71 43.254 98.5053 45.0493 100.72 45.0493Z" fill="#DDDBDB"/>
<path d="M114.98 45.0493C117.195 45.0493 118.99 43.254 118.99 41.0393C118.99 38.8246 117.195 37.0293 114.98 37.0293C112.765 37.0293 110.97 38.8246 110.97 41.0393C110.97 43.254 112.765 45.0493 114.98 45.0493Z" fill="#DDDBDB"/>
<path d="M129.24 45.0493C131.455 45.0493 133.25 43.254 133.25 41.0393C133.25 38.8246 131.455 37.0293 129.24 37.0293C127.025 37.0293 125.23 38.8246 125.23 41.0393C125.23 43.254 127.025 45.0493 129.24 45.0493Z" fill="#DDDBDB"/>
<path d="M8.01 54.1098C10.2247 54.1098 12.02 52.3145 12.02 50.0998C12.02 47.8852 10.2247 46.0898 8.01 46.0898C5.79534 46.0898 4 47.8852 4 50.0998C4 52.3145 5.79534 54.1098 8.01 54.1098Z" fill="#DDDBDB"/>
<path d="M22.28 54.1098C24.4947 54.1098 26.29 52.3145 26.29 50.0998C26.29 47.8852 24.4947 46.0898 22.28 46.0898C20.0654 46.0898 18.27 47.8852 18.27 50.0998C18.27 52.3145 20.0654 54.1098 22.28 54.1098Z" fill="#DDDBDB"/>
<path d="M36.54 54.1098C38.7547 54.1098 40.55 52.3145 40.55 50.0998C40.55 47.8852 38.7547 46.0898 36.54 46.0898C34.3254 46.0898 32.53 47.8852 32.53 50.0998C32.53 52.3145 34.3254 54.1098 36.54 54.1098Z" fill="#DDDBDB"/>
<path d="M50.8 54.1098C53.0147 54.1098 54.81 52.3145 54.81 50.0998C54.81 47.8852 53.0147 46.0898 50.8 46.0898C48.5854 46.0898 46.79 47.8852 46.79 50.0998C46.79 52.3145 48.5854 54.1098 50.8 54.1098Z" fill="#DDDBDB"/>
<path d="M107.85 54.1098C110.065 54.1098 111.86 52.3145 111.86 50.0998C111.86 47.8852 110.065 46.0898 107.85 46.0898C105.635 46.0898 103.84 47.8852 103.84 50.0998C103.84 52.3145 105.635 54.1098 107.85 54.1098Z" fill="#DDDBDB"/>
<path d="M122.11 54.1098C124.325 54.1098 126.12 52.3145 126.12 50.0998C126.12 47.8852 124.325 46.0898 122.11 46.0898C119.895 46.0898 118.1 47.8852 118.1 50.0998C118.1 52.3145 119.895 54.1098 122.11 54.1098Z" fill="#DDDBDB"/>
<path d="M136.37 54.1098C138.585 54.1098 140.38 52.3145 140.38 50.0998C140.38 47.8852 138.585 46.0898 136.37 46.0898C134.155 46.0898 132.36 47.8852 132.36 50.0998C132.36 52.3145 134.155 54.1098 136.37 54.1098Z" fill="#DDDBDB"/>
<path d="M15.1399 63.5708C17.3545 63.5708 19.1499 61.7754 19.1499 59.5608C19.1499 57.3461 17.3545 55.5508 15.1399 55.5508C12.9252 55.5508 11.1299 57.3461 11.1299 59.5608C11.1299 61.7754 12.9252 63.5708 15.1399 63.5708Z" fill="#DDDBDB"/>
<path d="M29.4099 63.5708C31.6246 63.5708 33.4199 61.7754 33.4199 59.5608C33.4199 57.3461 31.6246 55.5508 29.4099 55.5508C27.1952 55.5508 25.3999 57.3461 25.3999 59.5608C25.3999 61.7754 27.1952 63.5708 29.4099 63.5708Z" fill="#DDDBDB"/>
<path d="M43.6699 63.5708C45.8846 63.5708 47.6799 61.7754 47.6799 59.5608C47.6799 57.3461 45.8846 55.5508 43.6699 55.5508C41.4552 55.5508 39.6599 57.3461 39.6599 59.5608C39.6599 61.7754 41.4552 63.5708 43.6699 63.5708Z" fill="#DDDBDB"/>
<path d="M61.9099 59.7291C62.1899 59.3991 58.8799 59.9291 56.8299 58.1891C56.2299 57.6791 55.7999 57.0491 55.5099 56.3691C54.5499 57.0991 53.9199 58.2491 53.9199 59.5491C53.9199 61.7691 55.7199 63.5591 57.9299 63.5591C60.1399 63.5591 61.8199 61.8591 61.9199 59.7391H61.8999L61.9099 59.7291Z" fill="#DDDBDB"/>
<path d="M100.72 63.5708C102.935 63.5708 104.73 61.7754 104.73 59.5608C104.73 57.3461 102.935 55.5508 100.72 55.5508C98.5053 55.5508 96.71 57.3461 96.71 59.5608C96.71 61.7754 98.5053 63.5708 100.72 63.5708Z" fill="#DDDBDB"/>
<path d="M114.98 63.5708C117.195 63.5708 118.99 61.7754 118.99 59.5608C118.99 57.3461 117.195 55.5508 114.98 55.5508C112.765 55.5508 110.97 57.3461 110.97 59.5608C110.97 61.7754 112.765 63.5708 114.98 63.5708Z" fill="#DDDBDB"/>
<path d="M129.24 63.5708C131.455 63.5708 133.25 61.7754 133.25 59.5608C133.25 57.3461 131.455 55.5508 129.24 55.5508C127.025 55.5508 125.23 57.3461 125.23 59.5608C125.23 61.7754 127.025 63.5708 129.24 63.5708Z" fill="#DDDBDB"/>
<path d="M8.01 72.6196C10.2247 72.6196 12.02 70.8243 12.02 68.6096C12.02 66.3949 10.2247 64.5996 8.01 64.5996C5.79534 64.5996 4 66.3949 4 68.6096C4 70.8243 5.79534 72.6196 8.01 72.6196Z" fill="#DDDBDB"/>
<path d="M22.28 72.6196C24.4947 72.6196 26.29 70.8243 26.29 68.6096C26.29 66.3949 24.4947 64.5996 22.28 64.5996C20.0654 64.5996 18.27 66.3949 18.27 68.6096C18.27 70.8243 20.0654 72.6196 22.28 72.6196Z" fill="#DDDBDB"/>
<path d="M36.54 72.6196C38.7547 72.6196 40.55 70.8243 40.55 68.6096C40.55 66.3949 38.7547 64.5996 36.54 64.5996C34.3254 64.5996 32.53 66.3949 32.53 68.6096C32.53 70.8243 34.3254 72.6196 36.54 72.6196Z" fill="#DDDBDB"/>
<path d="M50.8 72.6196C53.0147 72.6196 54.81 70.8243 54.81 68.6096C54.81 66.3949 53.0147 64.5996 50.8 64.5996C48.5854 64.5996 46.79 66.3949 46.79 68.6096C46.79 70.8243 48.5854 72.6196 50.8 72.6196Z" fill="#DDDBDB"/>
<path d="M65.0601 72.6196C67.2747 72.6196 69.07 70.8243 69.07 68.6096C69.07 66.3949 67.2747 64.5996 65.0601 64.5996C62.8454 64.5996 61.05 66.3949 61.05 68.6096C61.05 70.8243 62.8454 72.6196 65.0601 72.6196Z" fill="#DDDBDB"/>
<path d="M93.5801 72.6196C95.7947 72.6196 97.5901 70.8243 97.5901 68.6096C97.5901 66.3949 95.7947 64.5996 93.5801 64.5996C91.3654 64.5996 89.5701 66.3949 89.5701 68.6096C89.5701 70.8243 91.3654 72.6196 93.5801 72.6196Z" fill="#DDDBDB"/>
<path d="M107.85 72.6196C110.065 72.6196 111.86 70.8243 111.86 68.6096C111.86 66.3949 110.065 64.5996 107.85 64.5996C105.635 64.5996 103.84 66.3949 103.84 68.6096C103.84 70.8243 105.635 72.6196 107.85 72.6196Z" fill="#DDDBDB"/>
<path d="M122.11 72.6196C124.325 72.6196 126.12 70.8243 126.12 68.6096C126.12 66.3949 124.325 64.5996 122.11 64.5996C119.895 64.5996 118.1 66.3949 118.1 68.6096C118.1 70.8243 119.895 72.6196 122.11 72.6196Z" fill="#DDDBDB"/>
<path d="M136.37 72.6196C138.585 72.6196 140.38 70.8243 140.38 68.6096C140.38 66.3949 138.585 64.5996 136.37 64.5996C134.155 64.5996 132.36 66.3949 132.36 68.6096C132.36 70.8243 134.155 72.6196 136.37 72.6196Z" fill="#DDDBDB"/>
<path d="M15.1399 82.0806C17.3545 82.0806 19.1499 80.2852 19.1499 78.0705C19.1499 75.8559 17.3545 74.0605 15.1399 74.0605C12.9252 74.0605 11.1299 75.8559 11.1299 78.0705C11.1299 80.2852 12.9252 82.0806 15.1399 82.0806Z" fill="#DDDBDB"/>
<path d="M29.4099 82.0806C31.6246 82.0806 33.4199 80.2852 33.4199 78.0705C33.4199 75.8559 31.6246 74.0605 29.4099 74.0605C27.1952 74.0605 25.3999 75.8559 25.3999 78.0705C25.3999 80.2852 27.1952 82.0806 29.4099 82.0806Z" fill="#DDDBDB"/>
<path d="M43.6699 82.0806C45.8846 82.0806 47.6799 80.2852 47.6799 78.0705C47.6799 75.8559 45.8846 74.0605 43.6699 74.0605C41.4552 74.0605 39.6599 75.8559 39.6599 78.0705C39.6599 80.2852 41.4552 82.0806 43.6699 82.0806Z" fill="#DDDBDB"/>
<path d="M57.9299 82.0806C60.1446 82.0806 61.9399 80.2852 61.9399 78.0705C61.9399 75.8559 60.1446 74.0605 57.9299 74.0605C55.7153 74.0605 53.9199 75.8559 53.9199 78.0705C53.9199 80.2852 55.7153 82.0806 57.9299 82.0806Z" fill="#DDDBDB"/>
<path d="M72.1899 82.0806C74.4046 82.0806 76.1999 80.2852 76.1999 78.0705C76.1999 75.8559 74.4046 74.0605 72.1899 74.0605C69.9753 74.0605 68.1799 75.8559 68.1799 78.0705C68.1799 80.2852 69.9753 82.0806 72.1899 82.0806Z" fill="#DDDBDB"/>
<path d="M86.4499 82.0806C88.6646 82.0806 90.4599 80.2852 90.4599 78.0705C90.4599 75.8559 88.6646 74.0605 86.4499 74.0605C84.2353 74.0605 82.4399 75.8559 82.4399 78.0705C82.4399 80.2852 84.2353 82.0806 86.4499 82.0806Z" fill="#DDDBDB"/>
<path d="M100.72 82.0806C102.935 82.0806 104.73 80.2852 104.73 78.0705C104.73 75.8559 102.935 74.0605 100.72 74.0605C98.5053 74.0605 96.71 75.8559 96.71 78.0705C96.71 80.2852 98.5053 82.0806 100.72 82.0806Z" fill="#DDDBDB"/>
<path d="M114.98 82.0806C117.195 82.0806 118.99 80.2852 118.99 78.0705C118.99 75.8559 117.195 74.0605 114.98 74.0605C112.765 74.0605 110.97 75.8559 110.97 78.0705C110.97 80.2852 112.765 82.0806 114.98 82.0806Z" fill="#DDDBDB"/>
<path d="M129.24 82.0806C131.455 82.0806 133.25 80.2852 133.25 78.0705C133.25 75.8559 131.455 74.0605 129.24 74.0605C127.025 74.0605 125.23 75.8559 125.23 78.0705C125.23 80.2852 127.025 82.0806 129.24 82.0806Z" fill="#DDDBDB"/>
<path d="M8.01 91.1391C10.2247 91.1391 12.02 89.3438 12.02 87.1291C12.02 84.9145 10.2247 83.1191 8.01 83.1191C5.79534 83.1191 4 84.9145 4 87.1291C4 89.3438 5.79534 91.1391 8.01 91.1391Z" fill="#DDDBDB"/>
<path d="M22.28 91.1391C24.4947 91.1391 26.29 89.3438 26.29 87.1291C26.29 84.9145 24.4947 83.1191 22.28 83.1191C20.0654 83.1191 18.27 84.9145 18.27 87.1291C18.27 89.3438 20.0654 91.1391 22.28 91.1391Z" fill="#DDDBDB"/>
<path d="M36.54 91.1391C38.7547 91.1391 40.55 89.3438 40.55 87.1291C40.55 84.9145 38.7547 83.1191 36.54 83.1191C34.3254 83.1191 32.53 84.9145 32.53 87.1291C32.53 89.3438 34.3254 91.1391 36.54 91.1391Z" fill="#DDDBDB"/>
<path d="M50.8 91.1391C53.0147 91.1391 54.81 89.3438 54.81 87.1291C54.81 84.9145 53.0147 83.1191 50.8 83.1191C48.5854 83.1191 46.79 84.9145 46.79 87.1291C46.79 89.3438 48.5854 91.1391 50.8 91.1391Z" fill="#DDDBDB"/>
<path d="M65.0601 91.1391C67.2747 91.1391 69.07 89.3438 69.07 87.1291C69.07 84.9145 67.2747 83.1191 65.0601 83.1191C62.8454 83.1191 61.05 84.9145 61.05 87.1291C61.05 89.3438 62.8454 91.1391 65.0601 91.1391Z" fill="#DDDBDB"/>
<path d="M79.3201 91.1391C81.5347 91.1391 83.3301 89.3438 83.3301 87.1291C83.3301 84.9145 81.5347 83.1191 79.3201 83.1191C77.1054 83.1191 75.3101 84.9145 75.3101 87.1291C75.3101 89.3438 77.1054 91.1391 79.3201 91.1391Z" fill="#DDDBDB"/>
<path d="M93.5801 91.1391C95.7947 91.1391 97.5901 89.3438 97.5901 87.1291C97.5901 84.9145 95.7947 83.1191 93.5801 83.1191C91.3654 83.1191 89.5701 84.9145 89.5701 87.1291C89.5701 89.3438 91.3654 91.1391 93.5801 91.1391Z" fill="#DDDBDB"/>
<path d="M107.85 91.1391C110.065 91.1391 111.86 89.3438 111.86 87.1291C111.86 84.9145 110.065 83.1191 107.85 83.1191C105.635 83.1191 103.84 84.9145 103.84 87.1291C103.84 89.3438 105.635 91.1391 107.85 91.1391Z" fill="#DDDBDB"/>
<path d="M122.11 91.1391C124.325 91.1391 126.12 89.3438 126.12 87.1291C126.12 84.9145 124.325 83.1191 122.11 83.1191C119.895 83.1191 118.1 84.9145 118.1 87.1291C118.1 89.3438 119.895 91.1391 122.11 91.1391Z" fill="#DDDBDB"/>
<path d="M136.37 91.1391C138.585 91.1391 140.38 89.3438 140.38 87.1291C140.38 84.9145 138.585 83.1191 136.37 83.1191C134.155 83.1191 132.36 84.9145 132.36 87.1291C132.36 89.3438 134.155 91.1391 136.37 91.1391Z" fill="#DDDBDB"/>
<path d="M15.1399 100.59C17.3545 100.59 19.1499 98.795 19.1499 96.5803C19.1499 94.3657 17.3545 92.5703 15.1399 92.5703C12.9252 92.5703 11.1299 94.3657 11.1299 96.5803C11.1299 98.795 12.9252 100.59 15.1399 100.59Z" fill="#DDDBDB"/>
<path d="M29.4099 100.59C31.6246 100.59 33.4199 98.795 33.4199 96.5803C33.4199 94.3657 31.6246 92.5703 29.4099 92.5703C27.1952 92.5703 25.3999 94.3657 25.3999 96.5803C25.3999 98.795 27.1952 100.59 29.4099 100.59Z" fill="#DDDBDB"/>
<path d="M43.6699 100.59C45.8846 100.59 47.6799 98.795 47.6799 96.5803C47.6799 94.3657 45.8846 92.5703 43.6699 92.5703C41.4552 92.5703 39.6599 94.3657 39.6599 96.5803C39.6599 98.795 41.4552 100.59 43.6699 100.59Z" fill="#DDDBDB"/>
<path d="M57.9299 100.59C60.1446 100.59 61.9399 98.795 61.9399 96.5803C61.9399 94.3657 60.1446 92.5703 57.9299 92.5703C55.7153 92.5703 53.9199 94.3657 53.9199 96.5803C53.9199 98.795 55.7153 100.59 57.9299 100.59Z" fill="#DDDBDB"/>
<path d="M72.1899 100.59C74.4046 100.59 76.1999 98.795 76.1999 96.5803C76.1999 94.3657 74.4046 92.5703 72.1899 92.5703C69.9753 92.5703 68.1799 94.3657 68.1799 96.5803C68.1799 98.795 69.9753 100.59 72.1899 100.59Z" fill="#DDDBDB"/>
<path d="M86.4499 100.59C88.6646 100.59 90.4599 98.795 90.4599 96.5803C90.4599 94.3657 88.6646 92.5703 86.4499 92.5703C84.2353 92.5703 82.4399 94.3657 82.4399 96.5803C82.4399 98.795 84.2353 100.59 86.4499 100.59Z" fill="#DDDBDB"/>
<path d="M100.72 100.59C102.935 100.59 104.73 98.795 104.73 96.5803C104.73 94.3657 102.935 92.5703 100.72 92.5703C98.5053 92.5703 96.71 94.3657 96.71 96.5803C96.71 98.795 98.5053 100.59 100.72 100.59Z" fill="#DDDBDB"/>
<path d="M114.98 100.59C117.195 100.59 118.99 98.795 118.99 96.5803C118.99 94.3657 117.195 92.5703 114.98 92.5703C112.765 92.5703 110.97 94.3657 110.97 96.5803C110.97 98.795 112.765 100.59 114.98 100.59Z" fill="#DDDBDB"/>
<path d="M129.24 100.59C131.455 100.59 133.25 98.795 133.25 96.5803C133.25 94.3657 131.455 92.5703 129.24 92.5703C127.025 92.5703 125.23 94.3657 125.23 96.5803C125.23 98.795 127.025 100.59 129.24 100.59Z" fill="#DDDBDB"/>
<path d="M8.01 109.651C10.2247 109.651 12.02 107.856 12.02 105.641C12.02 103.426 10.2247 101.631 8.01 101.631C5.79534 101.631 4 103.426 4 105.641C4 107.856 5.79534 109.651 8.01 109.651Z" fill="#DDDBDB"/>
<path d="M22.28 109.651C24.4947 109.651 26.29 107.856 26.29 105.641C26.29 103.426 24.4947 101.631 22.28 101.631C20.0654 101.631 18.27 103.426 18.27 105.641C18.27 107.856 20.0654 109.651 22.28 109.651Z" fill="#DDDBDB"/>
<path d="M36.54 109.651C38.7547 109.651 40.55 107.856 40.55 105.641C40.55 103.426 38.7547 101.631 36.54 101.631C34.3254 101.631 32.53 103.426 32.53 105.641C32.53 107.856 34.3254 109.651 36.54 109.651Z" fill="#DDDBDB"/>
<path d="M50.8 109.651C53.0147 109.651 54.81 107.856 54.81 105.641C54.81 103.426 53.0147 101.631 50.8 101.631C48.5854 101.631 46.79 103.426 46.79 105.641C46.79 107.856 48.5854 109.651 50.8 109.651Z" fill="#DDDBDB"/>
<path d="M65.0601 109.651C67.2747 109.651 69.07 107.856 69.07 105.641C69.07 103.426 67.2747 101.631 65.0601 101.631C62.8454 101.631 61.05 103.426 61.05 105.641C61.05 107.856 62.8454 109.651 65.0601 109.651Z" fill="#DDDBDB"/>
<path d="M79.3201 109.651C81.5347 109.651 83.3301 107.856 83.3301 105.641C83.3301 103.426 81.5347 101.631 79.3201 101.631C77.1054 101.631 75.3101 103.426 75.3101 105.641C75.3101 107.856 77.1054 109.651 79.3201 109.651Z" fill="#DDDBDB"/>
<path d="M93.5801 109.651C95.7947 109.651 97.5901 107.856 97.5901 105.641C97.5901 103.426 95.7947 101.631 93.5801 101.631C91.3654 101.631 89.5701 103.426 89.5701 105.641C89.5701 107.856 91.3654 109.651 93.5801 109.651Z" fill="#DDDBDB"/>
<path d="M107.85 109.651C110.065 109.651 111.86 107.856 111.86 105.641C111.86 103.426 110.065 101.631 107.85 101.631C105.635 101.631 103.84 103.426 103.84 105.641C103.84 107.856 105.635 109.651 107.85 109.651Z" fill="#DDDBDB"/>
<path d="M122.11 109.651C124.325 109.651 126.12 107.856 126.12 105.641C126.12 103.426 124.325 101.631 122.11 101.631C119.895 101.631 118.1 103.426 118.1 105.641C118.1 107.856 119.895 109.651 122.11 109.651Z" fill="#DDDBDB"/>
<path d="M136.37 109.651C138.585 109.651 140.38 107.856 140.38 105.641C140.38 103.426 138.585 101.631 136.37 101.631C134.155 101.631 132.36 103.426 132.36 105.641C132.36 107.856 134.155 109.651 136.37 109.651Z" fill="#DDDBDB"/>
<path d="M15.1399 119.11C17.3545 119.11 19.1499 117.315 19.1499 115.1C19.1499 112.885 17.3545 111.09 15.1399 111.09C12.9252 111.09 11.1299 112.885 11.1299 115.1C11.1299 117.315 12.9252 119.11 15.1399 119.11Z" fill="#DDDBDB"/>
<path d="M29.4099 119.11C31.6246 119.11 33.4199 117.315 33.4199 115.1C33.4199 112.885 31.6246 111.09 29.4099 111.09C27.1952 111.09 25.3999 112.885 25.3999 115.1C25.3999 117.315 27.1952 119.11 29.4099 119.11Z" fill="#DDDBDB"/>
<path d="M43.6699 119.11C45.8846 119.11 47.6799 117.315 47.6799 115.1C47.6799 112.885 45.8846 111.09 43.6699 111.09C41.4552 111.09 39.6599 112.885 39.6599 115.1C39.6599 117.315 41.4552 119.11 43.6699 119.11Z" fill="#DDDBDB"/>
<path d="M57.9299 119.11C60.1446 119.11 61.9399 117.315 61.9399 115.1C61.9399 112.885 60.1446 111.09 57.9299 111.09C55.7153 111.09 53.9199 112.885 53.9199 115.1C53.9199 117.315 55.7153 119.11 57.9299 119.11Z" fill="#DDDBDB"/>
<path d="M72.1899 119.11C74.4046 119.11 76.1999 117.315 76.1999 115.1C76.1999 112.885 74.4046 111.09 72.1899 111.09C69.9753 111.09 68.1799 112.885 68.1799 115.1C68.1799 117.315 69.9753 119.11 72.1899 119.11Z" fill="#DDDBDB"/>
<path d="M86.4499 119.11C88.6646 119.11 90.4599 117.315 90.4599 115.1C90.4599 112.885 88.6646 111.09 86.4499 111.09C84.2353 111.09 82.4399 112.885 82.4399 115.1C82.4399 117.315 84.2353 119.11 86.4499 119.11Z" fill="#DDDBDB"/>
<path d="M100.72 119.11C102.935 119.11 104.73 117.315 104.73 115.1C104.73 112.885 102.935 111.09 100.72 111.09C98.5053 111.09 96.71 112.885 96.71 115.1C96.71 117.315 98.5053 119.11 100.72 119.11Z" fill="#DDDBDB"/>
<path d="M114.98 119.11C117.195 119.11 118.99 117.315 118.99 115.1C118.99 112.885 117.195 111.09 114.98 111.09C112.765 111.09 110.97 112.885 110.97 115.1C110.97 117.315 112.765 119.11 114.98 119.11Z" fill="#DDDBDB"/>
<path d="M129.24 119.11C131.455 119.11 133.25 117.315 133.25 115.1C133.25 112.885 131.455 111.09 129.24 111.09C127.025 111.09 125.23 112.885 125.23 115.1C125.23 117.315 127.025 119.11 129.24 119.11Z" fill="#DDDBDB"/>
<path d="M8.01 128.17C10.2247 128.17 12.02 126.375 12.02 124.16C12.02 121.946 10.2247 120.15 8.01 120.15C5.79534 120.15 4 121.946 4 124.16C4 126.375 5.79534 128.17 8.01 128.17Z" fill="#DDDBDB"/>
<path d="M22.28 128.17C24.4947 128.17 26.29 126.375 26.29 124.16C26.29 121.946 24.4947 120.15 22.28 120.15C20.0654 120.15 18.27 121.946 18.27 124.16C18.27 126.375 20.0654 128.17 22.28 128.17Z" fill="#DDDBDB"/>
<path d="M36.54 128.17C38.7547 128.17 40.55 126.375 40.55 124.16C40.55 121.946 38.7547 120.15 36.54 120.15C34.3254 120.15 32.53 121.946 32.53 124.16C32.53 126.375 34.3254 128.17 36.54 128.17Z" fill="#DDDBDB"/>
<path d="M50.8 128.17C53.0147 128.17 54.81 126.375 54.81 124.16C54.81 121.946 53.0147 120.15 50.8 120.15C48.5854 120.15 46.79 121.946 46.79 124.16C46.79 126.375 48.5854 128.17 50.8 128.17Z" fill="#DDDBDB"/>
<path d="M65.0601 128.17C67.2747 128.17 69.07 126.375 69.07 124.16C69.07 121.946 67.2747 120.15 65.0601 120.15C62.8454 120.15 61.05 121.946 61.05 124.16C61.05 126.375 62.8454 128.17 65.0601 128.17Z" fill="#DDDBDB"/>
<path d="M79.3201 128.17C81.5347 128.17 83.3301 126.375 83.3301 124.16C83.3301 121.946 81.5347 120.15 79.3201 120.15C77.1054 120.15 75.3101 121.946 75.3101 124.16C75.3101 126.375 77.1054 128.17 79.3201 128.17Z" fill="#DDDBDB"/>
<path d="M93.5801 128.17C95.7947 128.17 97.5901 126.375 97.5901 124.16C97.5901 121.946 95.7947 120.15 93.5801 120.15C91.3654 120.15 89.5701 121.946 89.5701 124.16C89.5701 126.375 91.3654 128.17 93.5801 128.17Z" fill="#DDDBDB"/>
<path d="M107.85 128.17C110.065 128.17 111.86 126.375 111.86 124.16C111.86 121.946 110.065 120.15 107.85 120.15C105.635 120.15 103.84 121.946 103.84 124.16C103.84 126.375 105.635 128.17 107.85 128.17Z" fill="#DDDBDB"/>
<path d="M122.11 128.17C124.325 128.17 126.12 126.375 126.12 124.16C126.12 121.946 124.325 120.15 122.11 120.15C119.895 120.15 118.1 121.946 118.1 124.16C118.1 126.375 119.895 128.17 122.11 128.17Z" fill="#DDDBDB"/>
<path d="M136.37 128.17C138.585 128.17 140.38 126.375 140.38 124.16C140.38 121.946 138.585 120.15 136.37 120.15C134.155 120.15 132.36 121.946 132.36 124.16C132.36 126.375 134.155 128.17 136.37 128.17Z" fill="#DDDBDB"/>
<path d="M15.1399 137.62C17.3545 137.62 19.1499 135.824 19.1499 133.61C19.1499 131.395 17.3545 129.6 15.1399 129.6C12.9252 129.6 11.1299 131.395 11.1299 133.61C11.1299 135.824 12.9252 137.62 15.1399 137.62Z" fill="#DDDBDB"/>
<path d="M29.4099 137.62C31.6246 137.62 33.4199 135.824 33.4199 133.61C33.4199 131.395 31.6246 129.6 29.4099 129.6C27.1952 129.6 25.3999 131.395 25.3999 133.61C25.3999 135.824 27.1952 137.62 29.4099 137.62Z" fill="#DDDBDB"/>
<path d="M43.6699 137.62C45.8846 137.62 47.6799 135.824 47.6799 133.61C47.6799 131.395 45.8846 129.6 43.6699 129.6C41.4552 129.6 39.6599 131.395 39.6599 133.61C39.6599 135.824 41.4552 137.62 43.6699 137.62Z" fill="#DDDBDB"/>
<path d="M57.9299 137.62C60.1446 137.62 61.9399 135.824 61.9399 133.61C61.9399 131.395 60.1446 129.6 57.9299 129.6C55.7153 129.6 53.9199 131.395 53.9199 133.61C53.9199 135.824 55.7153 137.62 57.9299 137.62Z" fill="#DDDBDB"/>
<path d="M72.1899 137.62C74.4046 137.62 76.1999 135.824 76.1999 133.61C76.1999 131.395 74.4046 129.6 72.1899 129.6C69.9753 129.6 68.1799 131.395 68.1799 133.61C68.1799 135.824 69.9753 137.62 72.1899 137.62Z" fill="#DDDBDB"/>
<path d="M86.4499 137.62C88.6646 137.62 90.4599 135.824 90.4599 133.61C90.4599 131.395 88.6646 129.6 86.4499 129.6C84.2353 129.6 82.4399 131.395 82.4399 133.61C82.4399 135.824 84.2353 137.62 86.4499 137.62Z" fill="#DDDBDB"/>
<path d="M100.72 137.62C102.935 137.62 104.73 135.824 104.73 133.61C104.73 131.395 102.935 129.6 100.72 129.6C98.5053 129.6 96.71 131.395 96.71 133.61C96.71 135.824 98.5053 137.62 100.72 137.62Z" fill="#DDDBDB"/>
<path d="M114.98 137.62C117.195 137.62 118.99 135.824 118.99 133.61C118.99 131.395 117.195 129.6 114.98 129.6C112.765 129.6 110.97 131.395 110.97 133.61C110.97 135.824 112.765 137.62 114.98 137.62Z" fill="#DDDBDB"/>
<path d="M129.24 137.62C131.455 137.62 133.25 135.824 133.25 133.61C133.25 131.395 131.455 129.6 129.24 129.6C127.025 129.6 125.23 131.395 125.23 133.61C125.23 135.824 127.025 137.62 129.24 137.62Z" fill="#DDDBDB"/>
<path d="M8.01 146.68C10.2247 146.68 12.02 144.885 12.02 142.67C12.02 140.455 10.2247 138.66 8.01 138.66C5.79534 138.66 4 140.455 4 142.67C4 144.885 5.79534 146.68 8.01 146.68Z" fill="#DDDBDB"/>
<path d="M22.28 146.68C24.4947 146.68 26.29 144.885 26.29 142.67C26.29 140.455 24.4947 138.66 22.28 138.66C20.0654 138.66 18.27 140.455 18.27 142.67C18.27 144.885 20.0654 146.68 22.28 146.68Z" fill="#DDDBDB"/>
<path d="M36.54 146.68C38.7547 146.68 40.55 144.885 40.55 142.67C40.55 140.455 38.7547 138.66 36.54 138.66C34.3254 138.66 32.53 140.455 32.53 142.67C32.53 144.885 34.3254 146.68 36.54 146.68Z" fill="#DDDBDB"/>
<path d="M50.8 146.68C53.0147 146.68 54.81 144.885 54.81 142.67C54.81 140.455 53.0147 138.66 50.8 138.66C48.5854 138.66 46.79 140.455 46.79 142.67C46.79 144.885 48.5854 146.68 50.8 146.68Z" fill="#DDDBDB"/>
<path d="M65.0601 146.68C67.2747 146.68 69.07 144.885 69.07 142.67C69.07 140.455 67.2747 138.66 65.0601 138.66C62.8454 138.66 61.05 140.455 61.05 142.67C61.05 144.885 62.8454 146.68 65.0601 146.68Z" fill="#DDDBDB"/>
<path d="M79.3201 146.68C81.5347 146.68 83.3301 144.885 83.3301 142.67C83.3301 140.455 81.5347 138.66 79.3201 138.66C77.1054 138.66 75.3101 140.455 75.3101 142.67C75.3101 144.885 77.1054 146.68 79.3201 146.68Z" fill="#DDDBDB"/>
<path d="M93.5801 146.68C95.7947 146.68 97.5901 144.885 97.5901 142.67C97.5901 140.455 95.7947 138.66 93.5801 138.66C91.3654 138.66 89.5701 140.455 89.5701 142.67C89.5701 144.885 91.3654 146.68 93.5801 146.68Z" fill="#DDDBDB"/>
<path d="M107.85 146.68C110.065 146.68 111.86 144.885 111.86 142.67C111.86 140.455 110.065 138.66 107.85 138.66C105.635 138.66 103.84 140.455 103.84 142.67C103.84 144.885 105.635 146.68 107.85 146.68Z" fill="#DDDBDB"/>
<path d="M122.11 146.68C124.325 146.68 126.12 144.885 126.12 142.67C126.12 140.455 124.325 138.66 122.11 138.66C119.895 138.66 118.1 140.455 118.1 142.67C118.1 144.885 119.895 146.68 122.11 146.68Z" fill="#DDDBDB"/>
<path d="M136.37 146.68C138.585 146.68 140.38 144.885 140.38 142.67C140.38 140.455 138.585 138.66 136.37 138.66C134.155 138.66 132.36 140.455 132.36 142.67C132.36 144.885 134.155 146.68 136.37 146.68Z" fill="#DDDBDB"/>
<path d="M15.1399 156.139C17.3545 156.139 19.1499 154.344 19.1499 152.129C19.1499 149.914 17.3545 148.119 15.1399 148.119C12.9252 148.119 11.1299 149.914 11.1299 152.129C11.1299 154.344 12.9252 156.139 15.1399 156.139Z" fill="#DDDBDB"/>
<path d="M29.4099 156.139C31.6246 156.139 33.4199 154.344 33.4199 152.129C33.4199 149.914 31.6246 148.119 29.4099 148.119C27.1952 148.119 25.3999 149.914 25.3999 152.129C25.3999 154.344 27.1952 156.139 29.4099 156.139Z" fill="#DDDBDB"/>
<path d="M43.6699 156.139C45.8846 156.139 47.6799 154.344 47.6799 152.129C47.6799 149.914 45.8846 148.119 43.6699 148.119C41.4552 148.119 39.6599 149.914 39.6599 152.129C39.6599 154.344 41.4552 156.139 43.6699 156.139Z" fill="#DDDBDB"/>
<path d="M57.9299 156.139C60.1446 156.139 61.9399 154.344 61.9399 152.129C61.9399 149.914 60.1446 148.119 57.9299 148.119C55.7153 148.119 53.9199 149.914 53.9199 152.129C53.9199 154.344 55.7153 156.139 57.9299 156.139Z" fill="#DDDBDB"/>
<path d="M72.1899 156.139C74.4046 156.139 76.1999 154.344 76.1999 152.129C76.1999 149.914 74.4046 148.119 72.1899 148.119C69.9753 148.119 68.1799 149.914 68.1799 152.129C68.1799 154.344 69.9753 156.139 72.1899 156.139Z" fill="#DDDBDB"/>
<path d="M86.4499 156.139C88.6646 156.139 90.4599 154.344 90.4599 152.129C90.4599 149.914 88.6646 148.119 86.4499 148.119C84.2353 148.119 82.4399 149.914 82.4399 152.129C82.4399 154.344 84.2353 156.139 86.4499 156.139Z" fill="#DDDBDB"/>
<path d="M100.72 156.139C102.935 156.139 104.73 154.344 104.73 152.129C104.73 149.914 102.935 148.119 100.72 148.119C98.5053 148.119 96.71 149.914 96.71 152.129C96.71 154.344 98.5053 156.139 100.72 156.139Z" fill="#DDDBDB"/>
<path d="M114.98 156.139C117.195 156.139 118.99 154.344 118.99 152.129C118.99 149.914 117.195 148.119 114.98 148.119C112.765 148.119 110.97 149.914 110.97 152.129C110.97 154.344 112.765 156.139 114.98 156.139Z" fill="#DDDBDB"/>
<path d="M129.24 156.139C131.455 156.139 133.25 154.344 133.25 152.129C133.25 149.914 131.455 148.119 129.24 148.119C127.025 148.119 125.23 149.914 125.23 152.129C125.23 154.344 127.025 156.139 129.24 156.139Z" fill="#DDDBDB"/>
<path d="M8.01 165.19C10.2247 165.19 12.02 163.395 12.02 161.18C12.02 158.965 10.2247 157.17 8.01 157.17C5.79534 157.17 4 158.965 4 161.18C4 163.395 5.79534 165.19 8.01 165.19Z" fill="#DDDBDB"/>
<path d="M22.28 165.19C24.4947 165.19 26.29 163.395 26.29 161.18C26.29 158.965 24.4947 157.17 22.28 157.17C20.0654 157.17 18.27 158.965 18.27 161.18C18.27 163.395 20.0654 165.19 22.28 165.19Z" fill="#DDDBDB"/>
<path d="M36.54 165.19C38.7547 165.19 40.55 163.395 40.55 161.18C40.55 158.965 38.7547 157.17 36.54 157.17C34.3254 157.17 32.53 158.965 32.53 161.18C32.53 163.395 34.3254 165.19 36.54 165.19Z" fill="#DDDBDB"/>
<path d="M50.8 165.19C53.0147 165.19 54.81 163.395 54.81 161.18C54.81 158.965 53.0147 157.17 50.8 157.17C48.5854 157.17 46.79 158.965 46.79 161.18C46.79 163.395 48.5854 165.19 50.8 165.19Z" fill="#DDDBDB"/>
<path d="M65.0601 165.19C67.2747 165.19 69.07 163.395 69.07 161.18C69.07 158.965 67.2747 157.17 65.0601 157.17C62.8454 157.17 61.05 158.965 61.05 161.18C61.05 163.395 62.8454 165.19 65.0601 165.19Z" fill="#DDDBDB"/>
<path d="M79.3201 165.19C81.5347 165.19 83.3301 163.395 83.3301 161.18C83.3301 158.965 81.5347 157.17 79.3201 157.17C77.1054 157.17 75.3101 158.965 75.3101 161.18C75.3101 163.395 77.1054 165.19 79.3201 165.19Z" fill="#DDDBDB"/>
<path d="M93.5801 165.19C95.7947 165.19 97.5901 163.395 97.5901 161.18C97.5901 158.965 95.7947 157.17 93.5801 157.17C91.3654 157.17 89.5701 158.965 89.5701 161.18C89.5701 163.395 91.3654 165.19 93.5801 165.19Z" fill="#DDDBDB"/>
<path d="M107.85 165.19C110.065 165.19 111.86 163.395 111.86 161.18C111.86 158.965 110.065 157.17 107.85 157.17C105.635 157.17 103.84 158.965 103.84 161.18C103.84 163.395 105.635 165.19 107.85 165.19Z" fill="#DDDBDB"/>
<path d="M122.11 165.19C124.325 165.19 126.12 163.395 126.12 161.18C126.12 158.965 124.325 157.17 122.11 157.17C119.895 157.17 118.1 158.965 118.1 161.18C118.1 163.395 119.895 165.19 122.11 165.19Z" fill="#DDDBDB"/>
<path d="M136.37 165.19C138.585 165.19 140.38 163.395 140.38 161.18C140.38 158.965 138.585 157.17 136.37 157.17C134.155 157.17 132.36 158.965 132.36 161.18C132.36 163.395 134.155 165.19 136.37 165.19Z" fill="#DDDBDB"/>
<path d="M15.1399 174.651C17.3545 174.651 19.1499 172.856 19.1499 170.641C19.1499 168.426 17.3545 166.631 15.1399 166.631C12.9252 166.631 11.1299 168.426 11.1299 170.641C11.1299 172.856 12.9252 174.651 15.1399 174.651Z" fill="#DDDBDB"/>
<path d="M29.4099 174.651C31.6246 174.651 33.4199 172.856 33.4199 170.641C33.4199 168.426 31.6246 166.631 29.4099 166.631C27.1952 166.631 25.3999 168.426 25.3999 170.641C25.3999 172.856 27.1952 174.651 29.4099 174.651Z" fill="#DDDBDB"/>
<path d="M43.6699 174.651C45.8846 174.651 47.6799 172.856 47.6799 170.641C47.6799 168.426 45.8846 166.631 43.6699 166.631C41.4552 166.631 39.6599 168.426 39.6599 170.641C39.6599 172.856 41.4552 174.651 43.6699 174.651Z" fill="#DDDBDB"/>
<path d="M57.9299 174.651C60.1446 174.651 61.9399 172.856 61.9399 170.641C61.9399 168.426 60.1446 166.631 57.9299 166.631C55.7153 166.631 53.9199 168.426 53.9199 170.641C53.9199 172.856 55.7153 174.651 57.9299 174.651Z" fill="#DDDBDB"/>
<path d="M72.1899 174.651C74.4046 174.651 76.1999 172.856 76.1999 170.641C76.1999 168.426 74.4046 166.631 72.1899 166.631C69.9753 166.631 68.1799 168.426 68.1799 170.641C68.1799 172.856 69.9753 174.651 72.1899 174.651Z" fill="#DDDBDB"/>
<path d="M86.4499 174.651C88.6646 174.651 90.4599 172.856 90.4599 170.641C90.4599 168.426 88.6646 166.631 86.4499 166.631C84.2353 166.631 82.4399 168.426 82.4399 170.641C82.4399 172.856 84.2353 174.651 86.4499 174.651Z" fill="#DDDBDB"/>
<path d="M100.72 174.651C102.935 174.651 104.73 172.856 104.73 170.641C104.73 168.426 102.935 166.631 100.72 166.631C98.5053 166.631 96.71 168.426 96.71 170.641C96.71 172.856 98.5053 174.651 100.72 174.651Z" fill="#DDDBDB"/>
<path d="M114.98 174.651C117.195 174.651 118.99 172.856 118.99 170.641C118.99 168.426 117.195 166.631 114.98 166.631C112.765 166.631 110.97 168.426 110.97 170.641C110.97 172.856 112.765 174.651 114.98 174.651Z" fill="#DDDBDB"/>
<path d="M129.24 174.651C131.455 174.651 133.25 172.856 133.25 170.641C133.25 168.426 131.455 166.631 129.24 166.631C127.025 166.631 125.23 168.426 125.23 170.641C125.23 172.856 127.025 174.651 129.24 174.651Z" fill="#DDDBDB"/>
<path d="M8.01 183.709C10.2247 183.709 12.02 181.914 12.02 179.699C12.02 177.485 10.2247 175.689 8.01 175.689C5.79534 175.689 4 177.485 4 179.699C4 181.914 5.79534 183.709 8.01 183.709Z" fill="#DDDBDB"/>
<path d="M22.28 183.709C24.4947 183.709 26.29 181.914 26.29 179.699C26.29 177.485 24.4947 175.689 22.28 175.689C20.0654 175.689 18.27 177.485 18.27 179.699C18.27 181.914 20.0654 183.709 22.28 183.709Z" fill="#DDDBDB"/>
<path d="M36.54 183.709C38.7547 183.709 40.55 181.914 40.55 179.699C40.55 177.485 38.7547 175.689 36.54 175.689C34.3254 175.689 32.53 177.485 32.53 179.699C32.53 181.914 34.3254 183.709 36.54 183.709Z" fill="#DDDBDB"/>
<path d="M50.8 183.709C53.0147 183.709 54.81 181.914 54.81 179.699C54.81 177.485 53.0147 175.689 50.8 175.689C48.5854 175.689 46.79 177.485 46.79 179.699C46.79 181.914 48.5854 183.709 50.8 183.709Z" fill="#DDDBDB"/>
<path d="M65.0601 183.709C67.2747 183.709 69.07 181.914 69.07 179.699C69.07 177.485 67.2747 175.689 65.0601 175.689C62.8454 175.689 61.05 177.485 61.05 179.699C61.05 181.914 62.8454 183.709 65.0601 183.709Z" fill="#DDDBDB"/>
<path d="M79.3201 183.709C81.5347 183.709 83.3301 181.914 83.3301 179.699C83.3301 177.485 81.5347 175.689 79.3201 175.689C77.1054 175.689 75.3101 177.485 75.3101 179.699C75.3101 181.914 77.1054 183.709 79.3201 183.709Z" fill="#DDDBDB"/>
<path d="M93.5801 183.709C95.7947 183.709 97.5901 181.914 97.5901 179.699C97.5901 177.485 95.7947 175.689 93.5801 175.689C91.3654 175.689 89.5701 177.485 89.5701 179.699C89.5701 181.914 91.3654 183.709 93.5801 183.709Z" fill="#DDDBDB"/>
<path d="M107.85 183.709C110.065 183.709 111.86 181.914 111.86 179.699C111.86 177.485 110.065 175.689 107.85 175.689C105.635 175.689 103.84 177.485 103.84 179.699C103.84 181.914 105.635 183.709 107.85 183.709Z" fill="#DDDBDB"/>
<path d="M122.11 183.709C124.325 183.709 126.12 181.914 126.12 179.699C126.12 177.485 124.325 175.689 122.11 175.689C119.895 175.689 118.1 177.485 118.1 179.699C118.1 181.914 119.895 183.709 122.11 183.709Z" fill="#DDDBDB"/>
<path d="M136.37 183.709C138.585 183.709 140.38 181.914 140.38 179.699C140.38 177.485 138.585 175.689 136.37 175.689C134.155 175.689 132.36 177.485 132.36 179.699C132.36 181.914 134.155 183.709 136.37 183.709Z" fill="#DDDBDB"/>
<path d="M15.1399 192.77C17.3545 192.77 19.1499 190.975 19.1499 188.76C19.1499 186.545 17.3545 184.75 15.1399 184.75C12.9252 184.75 11.1299 186.545 11.1299 188.76C11.1299 190.975 12.9252 192.77 15.1399 192.77Z" fill="#DDDBDB"/>
<path d="M29.4099 192.77C31.6246 192.77 33.4199 190.975 33.4199 188.76C33.4199 186.545 31.6246 184.75 29.4099 184.75C27.1952 184.75 25.3999 186.545 25.3999 188.76C25.3999 190.975 27.1952 192.77 29.4099 192.77Z" fill="#DDDBDB"/>
<path d="M43.6699 192.77C45.8846 192.77 47.6799 190.975 47.6799 188.76C47.6799 186.545 45.8846 184.75 43.6699 184.75C41.4552 184.75 39.6599 186.545 39.6599 188.76C39.6599 190.975 41.4552 192.77 43.6699 192.77Z" fill="#DDDBDB"/>
<path d="M57.9299 192.77C60.1446 192.77 61.9399 190.975 61.9399 188.76C61.9399 186.545 60.1446 184.75 57.9299 184.75C55.7153 184.75 53.9199 186.545 53.9199 188.76C53.9199 190.975 55.7153 192.77 57.9299 192.77Z" fill="#DDDBDB"/>
<path d="M72.1899 192.77C74.4046 192.77 76.1999 190.975 76.1999 188.76C76.1999 186.545 74.4046 184.75 72.1899 184.75C69.9753 184.75 68.1799 186.545 68.1799 188.76C68.1799 190.975 69.9753 192.77 72.1899 192.77Z" fill="#DDDBDB"/>
<path d="M86.4499 192.77C88.6646 192.77 90.4599 190.975 90.4599 188.76C90.4599 186.545 88.6646 184.75 86.4499 184.75C84.2353 184.75 82.4399 186.545 82.4399 188.76C82.4399 190.975 84.2353 192.77 86.4499 192.77Z" fill="#DDDBDB"/>
<path d="M100.72 192.77C102.935 192.77 104.73 190.975 104.73 188.76C104.73 186.545 102.935 184.75 100.72 184.75C98.5053 184.75 96.71 186.545 96.71 188.76C96.71 190.975 98.5053 192.77 100.72 192.77Z" fill="#DDDBDB"/>
<path d="M114.98 192.77C117.195 192.77 118.99 190.975 118.99 188.76C118.99 186.545 117.195 184.75 114.98 184.75C112.765 184.75 110.97 186.545 110.97 188.76C110.97 190.975 112.765 192.77 114.98 192.77Z" fill="#DDDBDB"/>
<path d="M129.24 192.77C131.455 192.77 133.25 190.975 133.25 188.76C133.25 186.545 131.455 184.75 129.24 184.75C127.025 184.75 125.23 186.545 125.23 188.76C125.23 190.975 127.025 192.77 129.24 192.77Z" fill="#DDDBDB"/>
<path d="M8.01 201.821C10.2247 201.821 12.02 200.025 12.02 197.811C12.02 195.596 10.2247 193.801 8.01 193.801C5.79534 193.801 4 195.596 4 197.811C4 200.025 5.79534 201.821 8.01 201.821Z" fill="#DDDBDB"/>
<path d="M22.28 201.821C24.4947 201.821 26.29 200.025 26.29 197.811C26.29 195.596 24.4947 193.801 22.28 193.801C20.0654 193.801 18.27 195.596 18.27 197.811C18.27 200.025 20.0654 201.821 22.28 201.821Z" fill="#DDDBDB"/>
<path d="M36.54 201.821C38.7547 201.821 40.55 200.025 40.55 197.811C40.55 195.596 38.7547 193.801 36.54 193.801C34.3254 193.801 32.53 195.596 32.53 197.811C32.53 200.025 34.3254 201.821 36.54 201.821Z" fill="#DDDBDB"/>
<path d="M50.8 201.821C53.0147 201.821 54.81 200.025 54.81 197.811C54.81 195.596 53.0147 193.801 50.8 193.801C48.5854 193.801 46.79 195.596 46.79 197.811C46.79 200.025 48.5854 201.821 50.8 201.821Z" fill="#DDDBDB"/>
<path d="M65.0601 201.821C67.2747 201.821 69.07 200.025 69.07 197.811C69.07 195.596 67.2747 193.801 65.0601 193.801C62.8454 193.801 61.05 195.596 61.05 197.811C61.05 200.025 62.8454 201.821 65.0601 201.821Z" fill="#DDDBDB"/>
<path d="M79.3201 201.821C81.5347 201.821 83.3301 200.025 83.3301 197.811C83.3301 195.596 81.5347 193.801 79.3201 193.801C77.1054 193.801 75.3101 195.596 75.3101 197.811C75.3101 200.025 77.1054 201.821 79.3201 201.821Z" fill="#DDDBDB"/>
<path d="M93.5801 201.821C95.7947 201.821 97.5901 200.025 97.5901 197.811C97.5901 195.596 95.7947 193.801 93.5801 193.801C91.3654 193.801 89.5701 195.596 89.5701 197.811C89.5701 200.025 91.3654 201.821 93.5801 201.821Z" fill="#DDDBDB"/>
<path d="M107.85 201.821C110.065 201.821 111.86 200.025 111.86 197.811C111.86 195.596 110.065 193.801 107.85 193.801C105.635 193.801 103.84 195.596 103.84 197.811C103.84 200.025 105.635 201.821 107.85 201.821Z" fill="#DDDBDB"/>
<path d="M122.11 201.821C124.325 201.821 126.12 200.025 126.12 197.811C126.12 195.596 124.325 193.801 122.11 193.801C119.895 193.801 118.1 195.596 118.1 197.811C118.1 200.025 119.895 201.821 122.11 201.821Z" fill="#DDDBDB"/>
<path d="M136.37 201.821C138.585 201.821 140.38 200.025 140.38 197.811C140.38 195.596 138.585 193.801 136.37 193.801C134.155 193.801 132.36 195.596 132.36 197.811C132.36 200.025 134.155 201.821 136.37 201.821Z" fill="#DDDBDB"/>
<path d="M149.16 2.17969C149.16 1.35126 148.488 0.679688 147.66 0.679688C146.831 0.679688 146.16 1.35126 146.16 2.17969V199.32C146.16 200.148 146.831 200.82 147.66 200.82C148.488 200.82 149.16 200.148 149.16 199.32V2.17969Z" fill="black"/>
<path d="M100.53 47.0208L96.8899 43.9408L98.8199 41.6508L87.2199 31.8508C88.5599 29.2708 87.9999 26.0008 85.6799 24.0408C82.9999 21.7708 78.9699 22.1108 76.6999 24.7908L76.6399 24.8708C76.6399 24.8708 76.6399 24.8708 76.6399 24.8808L55.1099 50.3608C52.8399 53.0408 53.1799 57.0708 55.8599 59.3408C57.0499 60.3508 58.5099 60.8408 59.9699 60.8408C60.2599 60.8408 60.5399 60.8108 60.8299 60.7808L73.5699 71.5508L75.4999 69.2608L79.1399 72.3408C79.6499 72.7708 80.2799 73.0008 80.9399 73.0008C81.0199 73.0008 81.0999 73.0008 81.1799 73.0008C81.9199 72.9408 82.5999 72.5908 83.0799 72.0208L100.88 50.9608C101.36 50.3908 101.59 49.6708 101.53 48.9308C101.47 48.1908 101.12 47.5108 100.55 47.0308L100.53 47.0208ZM78.9899 26.7308C79.6599 25.9408 80.6099 25.5408 81.5699 25.5408C82.3399 25.5408 83.1099 25.8008 83.7399 26.3308C85.1599 27.5308 85.3399 29.6608 84.1399 31.0808L84.0799 31.1608C82.8799 32.5808 80.7499 32.7608 79.3299 31.5608C78.6399 30.9808 78.2199 30.1608 78.1499 29.2708C78.0699 28.3708 78.3499 27.5008 78.9299 26.8108L78.9899 26.7308ZM57.3899 52.2908L75.4399 30.9308C75.7999 32.0608 76.4599 33.0708 77.3899 33.8508C78.3399 34.6508 79.4499 35.1108 80.5999 35.2808L72.4299 44.9408L62.5299 56.6508C61.3299 58.0708 59.1999 58.2508 57.7799 57.0508C56.3599 55.8508 56.1799 53.7208 57.3799 52.3008L57.3899 52.2908ZM85.4099 34.2408L94.5899 42.0008L83.8999 54.6508L73.2099 67.3008L64.0299 59.5408L85.4199 34.2308L85.4099 34.2408ZM80.9099 69.9108L77.4299 66.9708L86.1899 56.6008L94.9499 46.2308L98.4299 49.1708L80.8999 69.9108H80.9099Z" fill="black"/>
<path d="M107.62 76.9492L103.91 78.4392L107.02 85.3492C82.2199 76.3292 55 81.1792 43.7 87.7392L45.7099 91.1992C55.0499 85.7792 81.9899 80.0792 106.7 89.4992L97.61 92.3992L98.8399 96.2092L113.94 91.3792L107.64 76.9492H107.62Z" fill="black"/>
</g>
<defs>
<filter id="filter0_d_1583_4096" x="0" y="0" width="172.82" height="209.83" filterUnits="userSpaceOnUse" color-interpolation-filters="sRGB">
<feFlood flood-opacity="0" result="BackgroundImageFix"/>
<feColorMatrix in="SourceAlpha" type="matrix" values="0 0 0 0 0 0 0 0 0 0 0 0 0 0 0 0 0 0 127 0" result="hardAlpha"/>
<feOffset dy="4"/>
<feGaussianBlur stdDeviation="2"/>
<feComposite in2="hardAlpha" operator="out"/>
<feColorMatrix type="matrix" values="0 0 0 0 0 0 0 0 0 0 0 0 0 0 0 0 0 0 0.25 0"/>
<feBlend mode="normal" in2="BackgroundImageFix" result="effect1_dropShadow_1583_4096"/>
<feBlend mode="normal" in="SourceGraphic" in2="effect1_dropShadow_1583_4096" result="shape"/>
</filter>
<clipPath id="clip0_1583_4096">
<rect width="164.82" height="201.83" fill="white" transform="translate(4)"/>
</clipPath>
</defs>
</svg>
