<svg width="51" height="54" viewBox="0 0 51 54" fill="none" xmlns="http://www.w3.org/2000/svg">
<g clip-path="url(#clip0_1015_905)">
<path d="M2.30898 53.1702L0.983293 52.5142C0.250265 52.0924 -0.139643 51.2333 0.0631093 50.4055L4.46127 31.0524L8.56311 26.9444L18.5292 36.9255L2.30898 53.1702ZM7.72091 32.8643L4.83559 45.5477L13.4448 36.9255L8.54751 32.0208L7.70531 32.8643H7.72091ZM19.6677 34.5044L10.1851 25.0075L34.4998 0.671657C34.9365 0.218679 35.4668 0 36.0906 0C36.7145 0 37.2448 0.218679 37.6971 0.671657L43.9668 6.95086C44.4191 7.38822 44.6374 7.93492 44.6374 8.55972C44.6374 9.18451 44.4191 9.71559 43.9668 10.1686L19.6677 34.5044ZM19.6677 29.4904L40.598 8.5441L36.1218 4.06118L15.1915 25.0231L19.6677 29.506V29.4904ZM19.3558 50.5617L22.9429 47.016H51.0007V50.5617H19.3558Z" fill="black"/>
</g>
<defs>
<clipPath id="clip0_1015_905">
<rect width="51" height="53.1702" fill="white"/>
</clipPath>
</defs>
</svg>
