<svg width="206" height="162" viewBox="0 0 206 162" fill="none" xmlns="http://www.w3.org/2000/svg">
<g clip-path="url(#clip0_1583_4816)">
<path d="M204.05 5.5H160V8.5H204.05V5.5Z" fill="#9E9D9D"/>
<path d="M7.29001 17.7905C8.96343 17.7905 10.32 16.4339 10.32 14.7605C10.32 13.087 8.96343 11.7305 7.29001 11.7305C5.61659 11.7305 4.26001 13.087 4.26001 14.7605C4.26001 16.4339 5.61659 17.7905 7.29001 17.7905Z" fill="#DDDBDB"/>
<path d="M18.08 17.7905C19.7535 17.7905 21.11 16.4339 21.11 14.7605C21.11 13.087 19.7535 11.7305 18.08 11.7305C16.4066 11.7305 15.05 13.087 15.05 14.7605C15.05 16.4339 16.4066 17.7905 18.08 17.7905Z" fill="#DDDBDB"/>
<path d="M12.6899 24.9409C14.3633 24.9409 15.7199 23.5843 15.7199 21.9109C15.7199 20.2374 14.3633 18.8809 12.6899 18.8809C11.0165 18.8809 9.65991 20.2374 9.65991 21.9109C9.65991 23.5843 11.0165 24.9409 12.6899 24.9409Z" fill="#DDDBDB"/>
<path d="M23.4699 24.9409C25.1434 24.9409 26.4999 23.5843 26.4999 21.9109C26.4999 20.2374 25.1434 18.8809 23.4699 18.8809C21.7965 18.8809 20.4399 20.2374 20.4399 21.9109C20.4399 23.5843 21.7965 24.9409 23.4699 24.9409Z" fill="#DDDBDB"/>
<path d="M7.29001 31.7905C8.96343 31.7905 10.32 30.4339 10.32 28.7605C10.32 27.087 8.96343 25.7305 7.29001 25.7305C5.61659 25.7305 4.26001 27.087 4.26001 28.7605C4.26001 30.4339 5.61659 31.7905 7.29001 31.7905Z" fill="#DDDBDB"/>
<path d="M18.08 31.7905C19.7535 31.7905 21.11 30.4339 21.11 28.7605C21.11 27.087 19.7535 25.7305 18.08 25.7305C16.4066 25.7305 15.05 27.087 15.05 28.7605C15.05 30.4339 16.4066 31.7905 18.08 31.7905Z" fill="#DDDBDB"/>
<path d="M28.8601 31.7905C30.5335 31.7905 31.8901 30.4339 31.8901 28.7605C31.8901 27.087 30.5335 25.7305 28.8601 25.7305C27.1867 25.7305 25.8301 27.087 25.8301 28.7605C25.8301 30.4339 27.1867 31.7905 28.8601 31.7905Z" fill="#DDDBDB"/>
<path d="M39.6401 31.7905C41.3135 31.7905 42.6701 30.4339 42.6701 28.7605C42.6701 27.087 41.3135 25.7305 39.6401 25.7305C37.9667 25.7305 36.6101 27.087 36.6101 28.7605C36.6101 30.4339 37.9667 31.7905 39.6401 31.7905Z" fill="#DDDBDB"/>
<path d="M12.6899 38.9409C14.3633 38.9409 15.7199 37.5843 15.7199 35.9109C15.7199 34.2374 14.3633 32.8809 12.6899 32.8809C11.0165 32.8809 9.65991 34.2374 9.65991 35.9109C9.65991 37.5843 11.0165 38.9409 12.6899 38.9409Z" fill="#DDDBDB"/>
<path d="M23.4699 38.9409C25.1434 38.9409 26.4999 37.5843 26.4999 35.9109C26.4999 34.2374 25.1434 32.8809 23.4699 32.8809C21.7965 32.8809 20.4399 34.2374 20.4399 35.9109C20.4399 37.5843 21.7965 38.9409 23.4699 38.9409Z" fill="#DDDBDB"/>
<path d="M34.25 38.9409C35.9234 38.9409 37.28 37.5843 37.28 35.9109C37.28 34.2374 35.9234 32.8809 34.25 32.8809C32.5765 32.8809 31.22 34.2374 31.22 35.9109C31.22 37.5843 32.5765 38.9409 34.25 38.9409Z" fill="#DDDBDB"/>
<path d="M7.29001 45.7807C8.96343 45.7807 10.32 44.4241 10.32 42.7507C10.32 41.0773 8.96343 39.7207 7.29001 39.7207C5.61659 39.7207 4.26001 41.0773 4.26001 42.7507C4.26001 44.4241 5.61659 45.7807 7.29001 45.7807Z" fill="#DDDBDB"/>
<path d="M18.08 45.7807C19.7535 45.7807 21.11 44.4241 21.11 42.7507C21.11 41.0773 19.7535 39.7207 18.08 39.7207C16.4066 39.7207 15.05 41.0773 15.05 42.7507C15.05 44.4241 16.4066 45.7807 18.08 45.7807Z" fill="#DDDBDB"/>
<path d="M28.8601 45.7807C30.5335 45.7807 31.8901 44.4241 31.8901 42.7507C31.8901 41.0773 30.5335 39.7207 28.8601 39.7207C27.1867 39.7207 25.8301 41.0773 25.8301 42.7507C25.8301 44.4241 27.1867 45.7807 28.8601 45.7807Z" fill="#DDDBDB"/>
<path d="M39.6401 45.7807C41.3135 45.7807 42.6701 44.4241 42.6701 42.7507C42.6701 41.0773 41.3135 39.7207 39.6401 39.7207C37.9667 39.7207 36.6101 41.0773 36.6101 42.7507C36.6101 44.4241 37.9667 45.7807 39.6401 45.7807Z" fill="#DDDBDB"/>
<path d="M12.6899 52.9291C14.3633 52.9291 15.7199 51.5726 15.7199 49.8991C15.7199 48.2257 14.3633 46.8691 12.6899 46.8691C11.0165 46.8691 9.65991 48.2257 9.65991 49.8991C9.65991 51.5726 11.0165 52.9291 12.6899 52.9291Z" fill="#DDDBDB"/>
<path d="M23.4699 52.9291C25.1434 52.9291 26.4999 51.5726 26.4999 49.8991C26.4999 48.2257 25.1434 46.8691 23.4699 46.8691C21.7965 46.8691 20.4399 48.2257 20.4399 49.8991C20.4399 51.5726 21.7965 52.9291 23.4699 52.9291Z" fill="#DDDBDB"/>
<path d="M34.25 52.9291C35.9234 52.9291 37.28 51.5726 37.28 49.8991C37.28 48.2257 35.9234 46.8691 34.25 46.8691C32.5765 46.8691 31.22 48.2257 31.22 49.8991C31.22 51.5726 32.5765 52.9291 34.25 52.9291Z" fill="#DDDBDB"/>
<path d="M7.29001 59.7807C8.96343 59.7807 10.32 58.4241 10.32 56.7507C10.32 55.0773 8.96343 53.7207 7.29001 53.7207C5.61659 53.7207 4.26001 55.0773 4.26001 56.7507C4.26001 58.4241 5.61659 59.7807 7.29001 59.7807Z" fill="#DDDBDB"/>
<path d="M18.08 59.7807C19.7535 59.7807 21.11 58.4241 21.11 56.7507C21.11 55.0773 19.7535 53.7207 18.08 53.7207C16.4066 53.7207 15.05 55.0773 15.05 56.7507C15.05 58.4241 16.4066 59.7807 18.08 59.7807Z" fill="#DDDBDB"/>
<path d="M28.8601 59.7807C30.5335 59.7807 31.8901 58.4241 31.8901 56.7507C31.8901 55.0773 30.5335 53.7207 28.8601 53.7207C27.1867 53.7207 25.8301 55.0773 25.8301 56.7507C25.8301 58.4241 27.1867 59.7807 28.8601 59.7807Z" fill="#DDDBDB"/>
<path d="M39.6401 59.7807C41.3135 59.7807 42.6701 58.4241 42.6701 56.7507C42.6701 55.0773 41.3135 53.7207 39.6401 53.7207C37.9667 53.7207 36.6101 55.0773 36.6101 56.7507C36.6101 58.4241 37.9667 59.7807 39.6401 59.7807Z" fill="#DDDBDB"/>
<path d="M12.6899 66.9291C14.3633 66.9291 15.7199 65.5726 15.7199 63.8991C15.7199 62.2257 14.3633 60.8691 12.6899 60.8691C11.0165 60.8691 9.65991 62.2257 9.65991 63.8991C9.65991 65.5726 11.0165 66.9291 12.6899 66.9291Z" fill="#DDDBDB"/>
<path d="M23.4699 66.9291C25.1434 66.9291 26.4999 65.5726 26.4999 63.8991C26.4999 62.2257 25.1434 60.8691 23.4699 60.8691C21.7965 60.8691 20.4399 62.2257 20.4399 63.8991C20.4399 65.5726 21.7965 66.9291 23.4699 66.9291Z" fill="#DDDBDB"/>
<path d="M34.25 66.9291C35.9234 66.9291 37.28 65.5726 37.28 63.8991C37.28 62.2257 35.9234 60.8691 34.25 60.8691C32.5765 60.8691 31.22 62.2257 31.22 63.8991C31.22 65.5726 32.5765 66.9291 34.25 66.9291Z" fill="#DDDBDB"/>
<path d="M7.29001 73.7807C8.96343 73.7807 10.32 72.4241 10.32 70.7507C10.32 69.0773 8.96343 67.7207 7.29001 67.7207C5.61659 67.7207 4.26001 69.0773 4.26001 70.7507C4.26001 72.4241 5.61659 73.7807 7.29001 73.7807Z" fill="#DDDBDB"/>
<path d="M18.08 73.7807C19.7535 73.7807 21.11 72.4241 21.11 70.7507C21.11 69.0773 19.7535 67.7207 18.08 67.7207C16.4066 67.7207 15.05 69.0773 15.05 70.7507C15.05 72.4241 16.4066 73.7807 18.08 73.7807Z" fill="#DDDBDB"/>
<path d="M28.8601 73.7807C30.5335 73.7807 31.8901 72.4241 31.8901 70.7507C31.8901 69.0773 30.5335 67.7207 28.8601 67.7207C27.1867 67.7207 25.8301 69.0773 25.8301 70.7507C25.8301 72.4241 27.1867 73.7807 28.8601 73.7807Z" fill="#DDDBDB"/>
<path d="M39.6401 73.7807C41.3135 73.7807 42.6701 72.4241 42.6701 70.7507C42.6701 69.0773 41.3135 67.7207 39.6401 67.7207C37.9667 67.7207 36.6101 69.0773 36.6101 70.7507C36.6101 72.4241 37.9667 73.7807 39.6401 73.7807Z" fill="#DDDBDB"/>
<path d="M12.6899 80.9291C14.3633 80.9291 15.7199 79.5726 15.7199 77.8991C15.7199 76.2257 14.3633 74.8691 12.6899 74.8691C11.0165 74.8691 9.65991 76.2257 9.65991 77.8991C9.65991 79.5726 11.0165 80.9291 12.6899 80.9291Z" fill="#DDDBDB"/>
<path d="M23.4699 80.9291C25.1434 80.9291 26.4999 79.5726 26.4999 77.8991C26.4999 76.2257 25.1434 74.8691 23.4699 74.8691C21.7965 74.8691 20.4399 76.2257 20.4399 77.8991C20.4399 79.5726 21.7965 80.9291 23.4699 80.9291Z" fill="#DDDBDB"/>
<path d="M34.25 80.9291C35.9234 80.9291 37.28 79.5726 37.28 77.8991C37.28 76.2257 35.9234 74.8691 34.25 74.8691C32.5765 74.8691 31.22 76.2257 31.22 77.8991C31.22 79.5726 32.5765 80.9291 34.25 80.9291Z" fill="#DDDBDB"/>
<path d="M7.29001 87.7807C8.96343 87.7807 10.32 86.4241 10.32 84.7507C10.32 83.0773 8.96343 81.7207 7.29001 81.7207C5.61659 81.7207 4.26001 83.0773 4.26001 84.7507C4.26001 86.4241 5.61659 87.7807 7.29001 87.7807Z" fill="#DDDBDB"/>
<path d="M18.08 87.7807C19.7535 87.7807 21.11 86.4241 21.11 84.7507C21.11 83.0773 19.7535 81.7207 18.08 81.7207C16.4066 81.7207 15.05 83.0773 15.05 84.7507C15.05 86.4241 16.4066 87.7807 18.08 87.7807Z" fill="#DDDBDB"/>
<path d="M28.8601 87.7807C30.5335 87.7807 31.8901 86.4241 31.8901 84.7507C31.8901 83.0773 30.5335 81.7207 28.8601 81.7207C27.1867 81.7207 25.8301 83.0773 25.8301 84.7507C25.8301 86.4241 27.1867 87.7807 28.8601 87.7807Z" fill="#DDDBDB"/>
<path d="M39.6401 87.7807C41.3135 87.7807 42.6701 86.4241 42.6701 84.7507C42.6701 83.0773 41.3135 81.7207 39.6401 81.7207C37.9667 81.7207 36.6101 83.0773 36.6101 84.7507C36.6101 86.4241 37.9667 87.7807 39.6401 87.7807Z" fill="#DDDBDB"/>
<path d="M12.6899 94.9291C14.3633 94.9291 15.7199 93.5726 15.7199 91.8991C15.7199 90.2257 14.3633 88.8691 12.6899 88.8691C11.0165 88.8691 9.65991 90.2257 9.65991 91.8991C9.65991 93.5726 11.0165 94.9291 12.6899 94.9291Z" fill="#DDDBDB"/>
<path d="M23.4699 94.9291C25.1434 94.9291 26.4999 93.5726 26.4999 91.8991C26.4999 90.2257 25.1434 88.8691 23.4699 88.8691C21.7965 88.8691 20.4399 90.2257 20.4399 91.8991C20.4399 93.5726 21.7965 94.9291 23.4699 94.9291Z" fill="#DDDBDB"/>
<path d="M34.25 94.9291C35.9234 94.9291 37.28 93.5726 37.28 91.8991C37.28 90.2257 35.9234 88.8691 34.25 88.8691C32.5765 88.8691 31.22 90.2257 31.22 91.8991C31.22 93.5726 32.5765 94.9291 34.25 94.9291Z" fill="#DDDBDB"/>
<path d="M7.29001 101.771C8.96343 101.771 10.32 100.414 10.32 98.7409C10.32 97.0675 8.96343 95.7109 7.29001 95.7109C5.61659 95.7109 4.26001 97.0675 4.26001 98.7409C4.26001 100.414 5.61659 101.771 7.29001 101.771Z" fill="#DDDBDB"/>
<path d="M18.08 101.771C19.7535 101.771 21.11 100.414 21.11 98.7409C21.11 97.0675 19.7535 95.7109 18.08 95.7109C16.4066 95.7109 15.05 97.0675 15.05 98.7409C15.05 100.414 16.4066 101.771 18.08 101.771Z" fill="#DDDBDB"/>
<path d="M28.8601 101.771C30.5335 101.771 31.8901 100.414 31.8901 98.7409C31.8901 97.0675 30.5335 95.7109 28.8601 95.7109C27.1867 95.7109 25.8301 97.0675 25.8301 98.7409C25.8301 100.414 27.1867 101.771 28.8601 101.771Z" fill="#DDDBDB"/>
<path d="M39.6401 101.771C41.3135 101.771 42.6701 100.414 42.6701 98.7409C42.6701 97.0675 41.3135 95.7109 39.6401 95.7109C37.9667 95.7109 36.6101 97.0675 36.6101 98.7409C36.6101 100.414 37.9667 101.771 39.6401 101.771Z" fill="#DDDBDB"/>
<path d="M12.6899 108.919C14.3633 108.919 15.7199 107.563 15.7199 105.889C15.7199 104.216 14.3633 102.859 12.6899 102.859C11.0165 102.859 9.65991 104.216 9.65991 105.889C9.65991 107.563 11.0165 108.919 12.6899 108.919Z" fill="#DDDBDB"/>
<path d="M23.4699 108.919C25.1434 108.919 26.4999 107.563 26.4999 105.889C26.4999 104.216 25.1434 102.859 23.4699 102.859C21.7965 102.859 20.4399 104.216 20.4399 105.889C20.4399 107.563 21.7965 108.919 23.4699 108.919Z" fill="#DDDBDB"/>
<path d="M34.25 108.919C35.9234 108.919 37.28 107.563 37.28 105.889C37.28 104.216 35.9234 102.859 34.25 102.859C32.5765 102.859 31.22 104.216 31.22 105.889C31.22 107.563 32.5765 108.919 34.25 108.919Z" fill="#DDDBDB"/>
<path d="M7.29001 115.771C8.96343 115.771 10.32 114.414 10.32 112.741C10.32 111.068 8.96343 109.711 7.29001 109.711C5.61659 109.711 4.26001 111.068 4.26001 112.741C4.26001 114.414 5.61659 115.771 7.29001 115.771Z" fill="#DDDBDB"/>
<path d="M18.08 115.771C19.7535 115.771 21.11 114.414 21.11 112.741C21.11 111.068 19.7535 109.711 18.08 109.711C16.4066 109.711 15.05 111.068 15.05 112.741C15.05 114.414 16.4066 115.771 18.08 115.771Z" fill="#DDDBDB"/>
<path d="M28.8601 115.771C30.5335 115.771 31.8901 114.414 31.8901 112.741C31.8901 111.068 30.5335 109.711 28.8601 109.711C27.1867 109.711 25.8301 111.068 25.8301 112.741C25.8301 114.414 27.1867 115.771 28.8601 115.771Z" fill="#DDDBDB"/>
<path d="M39.6401 115.771C41.3135 115.771 42.6701 114.414 42.6701 112.741C42.6701 111.068 41.3135 109.711 39.6401 109.711C37.9667 109.711 36.6101 111.068 36.6101 112.741C36.6101 114.414 37.9667 115.771 39.6401 115.771Z" fill="#DDDBDB"/>
<path d="M12.6899 122.919C14.3633 122.919 15.7199 121.563 15.7199 119.889C15.7199 118.216 14.3633 116.859 12.6899 116.859C11.0165 116.859 9.65991 118.216 9.65991 119.889C9.65991 121.563 11.0165 122.919 12.6899 122.919Z" fill="#DDDBDB"/>
<path d="M23.4699 122.919C25.1434 122.919 26.4999 121.563 26.4999 119.889C26.4999 118.216 25.1434 116.859 23.4699 116.859C21.7965 116.859 20.4399 118.216 20.4399 119.889C20.4399 121.563 21.7965 122.919 23.4699 122.919Z" fill="#DDDBDB"/>
<path d="M34.25 122.919C35.9234 122.919 37.28 121.563 37.28 119.889C37.28 118.216 35.9234 116.859 34.25 116.859C32.5765 116.859 31.22 118.216 31.22 119.889C31.22 121.563 32.5765 122.919 34.25 122.919Z" fill="#DDDBDB"/>
<path d="M7.29001 129.771C8.96343 129.771 10.32 128.414 10.32 126.741C10.32 125.068 8.96343 123.711 7.29001 123.711C5.61659 123.711 4.26001 125.068 4.26001 126.741C4.26001 128.414 5.61659 129.771 7.29001 129.771Z" fill="#DDDBDB"/>
<path d="M18.08 129.771C19.7535 129.771 21.11 128.414 21.11 126.741C21.11 125.068 19.7535 123.711 18.08 123.711C16.4066 123.711 15.05 125.068 15.05 126.741C15.05 128.414 16.4066 129.771 18.08 129.771Z" fill="#DDDBDB"/>
<path d="M28.8601 129.771C30.5335 129.771 31.8901 128.414 31.8901 126.741C31.8901 125.068 30.5335 123.711 28.8601 123.711C27.1867 123.711 25.8301 125.068 25.8301 126.741C25.8301 128.414 27.1867 129.771 28.8601 129.771Z" fill="#DDDBDB"/>
<path d="M39.6401 129.771C41.3135 129.771 42.6701 128.414 42.6701 126.741C42.6701 125.068 41.3135 123.711 39.6401 123.711C37.9667 123.711 36.6101 125.068 36.6101 126.741C36.6101 128.414 37.9667 129.771 39.6401 129.771Z" fill="#DDDBDB"/>
<path d="M12.6899 136.919C14.3633 136.919 15.7199 135.563 15.7199 133.889C15.7199 132.216 14.3633 130.859 12.6899 130.859C11.0165 130.859 9.65991 132.216 9.65991 133.889C9.65991 135.563 11.0165 136.919 12.6899 136.919Z" fill="#DDDBDB"/>
<path d="M23.4699 136.919C25.1434 136.919 26.4999 135.563 26.4999 133.889C26.4999 132.216 25.1434 130.859 23.4699 130.859C21.7965 130.859 20.4399 132.216 20.4399 133.889C20.4399 135.563 21.7965 136.919 23.4699 136.919Z" fill="#DDDBDB"/>
<path d="M34.25 136.919C35.9234 136.919 37.28 135.563 37.28 133.889C37.28 132.216 35.9234 130.859 34.25 130.859C32.5765 130.859 31.22 132.216 31.22 133.889C31.22 135.563 32.5765 136.919 34.25 136.919Z" fill="#DDDBDB"/>
<path d="M7.29001 143.771C8.96343 143.771 10.32 142.414 10.32 140.741C10.32 139.068 8.96343 137.711 7.29001 137.711C5.61659 137.711 4.26001 139.068 4.26001 140.741C4.26001 142.414 5.61659 143.771 7.29001 143.771Z" fill="#DDDBDB"/>
<path d="M18.08 143.771C19.7535 143.771 21.11 142.414 21.11 140.741C21.11 139.068 19.7535 137.711 18.08 137.711C16.4066 137.711 15.05 139.068 15.05 140.741C15.05 142.414 16.4066 143.771 18.08 143.771Z" fill="#DDDBDB"/>
<path d="M28.8601 143.771C30.5335 143.771 31.8901 142.414 31.8901 140.741C31.8901 139.068 30.5335 137.711 28.8601 137.711C27.1867 137.711 25.8301 139.068 25.8301 140.741C25.8301 142.414 27.1867 143.771 28.8601 143.771Z" fill="#DDDBDB"/>
<path d="M39.6401 143.771C41.3135 143.771 42.6701 142.414 42.6701 140.741C42.6701 139.068 41.3135 137.711 39.6401 137.711C37.9667 137.711 36.6101 139.068 36.6101 140.741C36.6101 142.414 37.9667 143.771 39.6401 143.771Z" fill="#DDDBDB"/>
<path d="M12.6899 150.919C14.3633 150.919 15.7199 149.563 15.7199 147.889C15.7199 146.216 14.3633 144.859 12.6899 144.859C11.0165 144.859 9.65991 146.216 9.65991 147.889C9.65991 149.563 11.0165 150.919 12.6899 150.919Z" fill="#DDDBDB"/>
<path d="M23.4699 150.919C25.1434 150.919 26.4999 149.563 26.4999 147.889C26.4999 146.216 25.1434 144.859 23.4699 144.859C21.7965 144.859 20.4399 146.216 20.4399 147.889C20.4399 149.563 21.7965 150.919 23.4699 150.919Z" fill="#DDDBDB"/>
<path d="M34.25 150.919C35.9234 150.919 37.28 149.563 37.28 147.889C37.28 146.216 35.9234 144.859 34.25 144.859C32.5765 144.859 31.22 146.216 31.22 147.889C31.22 149.563 32.5765 150.919 34.25 150.919Z" fill="#DDDBDB"/>
<path d="M7.29001 157.759C8.96343 157.759 10.32 156.403 10.32 154.729C10.32 153.056 8.96343 151.699 7.29001 151.699C5.61659 151.699 4.26001 153.056 4.26001 154.729C4.26001 156.403 5.61659 157.759 7.29001 157.759Z" fill="#DDDBDB"/>
<path d="M18.08 157.759C19.7535 157.759 21.11 156.403 21.11 154.729C21.11 153.056 19.7535 151.699 18.08 151.699C16.4066 151.699 15.05 153.056 15.05 154.729C15.05 156.403 16.4066 157.759 18.08 157.759Z" fill="#DDDBDB"/>
<path d="M28.8601 157.759C30.5335 157.759 31.8901 156.403 31.8901 154.729C31.8901 153.056 30.5335 151.699 28.8601 151.699C27.1867 151.699 25.8301 153.056 25.8301 154.729C25.8301 156.403 27.1867 157.759 28.8601 157.759Z" fill="#DDDBDB"/>
<path d="M39.6401 157.759C41.3135 157.759 42.6701 156.403 42.6701 154.729C42.6701 153.056 41.3135 151.699 39.6401 151.699C37.9667 151.699 36.6101 153.056 36.6101 154.729C36.6101 156.403 37.9667 157.759 39.6401 157.759Z" fill="#DDDBDB"/>
<path d="M57.4099 17.7905C59.0833 17.7905 60.4399 16.4339 60.4399 14.7605C60.4399 13.087 59.0833 11.7305 57.4099 11.7305C55.7365 11.7305 54.3799 13.087 54.3799 14.7605C54.3799 16.4339 55.7365 17.7905 57.4099 17.7905Z" fill="#DDDBDB"/>
<path d="M68.1999 17.7905C69.8733 17.7905 71.2299 16.4339 71.2299 14.7605C71.2299 13.087 69.8733 11.7305 68.1999 11.7305C66.5265 11.7305 65.1699 13.087 65.1699 14.7605C65.1699 16.4339 66.5265 17.7905 68.1999 17.7905Z" fill="#DDDBDB"/>
<path d="M78.98 17.7905C80.6534 17.7905 82.01 16.4339 82.01 14.7605C82.01 13.087 80.6534 11.7305 78.98 11.7305C77.3065 11.7305 75.95 13.087 75.95 14.7605C75.95 16.4339 77.3065 17.7905 78.98 17.7905Z" fill="#DDDBDB"/>
<path d="M89.76 17.7905C91.4334 17.7905 92.79 16.4339 92.79 14.7605C92.79 13.087 91.4334 11.7305 89.76 11.7305C88.0866 11.7305 86.73 13.087 86.73 14.7605C86.73 16.4339 88.0866 17.7905 89.76 17.7905Z" fill="#DDDBDB"/>
<path d="M100.54 17.7905C102.213 17.7905 103.57 16.4339 103.57 14.7605C103.57 13.087 102.213 11.7305 100.54 11.7305C98.8666 11.7305 97.51 13.087 97.51 14.7605C97.51 16.4339 98.8666 17.7905 100.54 17.7905Z" fill="#DDDBDB"/>
<path d="M111.33 17.7905C113.003 17.7905 114.36 16.4339 114.36 14.7605C114.36 13.087 113.003 11.7305 111.33 11.7305C109.657 11.7305 108.3 13.087 108.3 14.7605C108.3 16.4339 109.657 17.7905 111.33 17.7905Z" fill="#DDDBDB"/>
<path d="M122.11 17.7905C123.783 17.7905 125.14 16.4339 125.14 14.7605C125.14 13.087 123.783 11.7305 122.11 11.7305C120.437 11.7305 119.08 13.087 119.08 14.7605C119.08 16.4339 120.437 17.7905 122.11 17.7905Z" fill="#DDDBDB"/>
<path d="M132.89 17.7905C134.564 17.7905 135.92 16.4339 135.92 14.7605C135.92 13.087 134.564 11.7305 132.89 11.7305C131.217 11.7305 129.86 13.087 129.86 14.7605C129.86 16.4339 131.217 17.7905 132.89 17.7905Z" fill="#DDDBDB"/>
<path d="M73.5901 24.9409C75.2635 24.9409 76.6201 23.5843 76.6201 21.9109C76.6201 20.2374 75.2635 18.8809 73.5901 18.8809C71.9166 18.8809 70.5601 20.2374 70.5601 21.9109C70.5601 23.5843 71.9166 24.9409 73.5901 24.9409Z" fill="#DDDBDB"/>
<path d="M84.3701 24.9409C86.0435 24.9409 87.4001 23.5843 87.4001 21.9109C87.4001 20.2374 86.0435 18.8809 84.3701 18.8809C82.6967 18.8809 81.3401 20.2374 81.3401 21.9109C81.3401 23.5843 82.6967 24.9409 84.3701 24.9409Z" fill="#DDDBDB"/>
<path d="M95.1501 24.9409C96.8235 24.9409 98.1801 23.5843 98.1801 21.9109C98.1801 20.2374 96.8235 18.8809 95.1501 18.8809C93.4767 18.8809 92.1201 20.2374 92.1201 21.9109C92.1201 23.5843 93.4767 24.9409 95.1501 24.9409Z" fill="#DDDBDB"/>
<path d="M105.94 24.9409C107.613 24.9409 108.97 23.5843 108.97 21.9109C108.97 20.2374 107.613 18.8809 105.94 18.8809C104.266 18.8809 102.91 20.2374 102.91 21.9109C102.91 23.5843 104.266 24.9409 105.94 24.9409Z" fill="#DDDBDB"/>
<path d="M116.72 24.9409C118.393 24.9409 119.75 23.5843 119.75 21.9109C119.75 20.2374 118.393 18.8809 116.72 18.8809C115.047 18.8809 113.69 20.2374 113.69 21.9109C113.69 23.5843 115.047 24.9409 116.72 24.9409Z" fill="#DDDBDB"/>
<path d="M127.5 24.9409C129.173 24.9409 130.53 23.5843 130.53 21.9109C130.53 20.2374 129.173 18.8809 127.5 18.8809C125.827 18.8809 124.47 20.2374 124.47 21.9109C124.47 23.5843 125.827 24.9409 127.5 24.9409Z" fill="#DDDBDB"/>
<path d="M138.28 24.9409C139.953 24.9409 141.31 23.5843 141.31 21.9109C141.31 20.2374 139.953 18.8809 138.28 18.8809C136.607 18.8809 135.25 20.2374 135.25 21.9109C135.25 23.5843 136.607 24.9409 138.28 24.9409Z" fill="#DDDBDB"/>
<path d="M78.98 31.7905C80.6534 31.7905 82.01 30.4339 82.01 28.7605C82.01 27.087 80.6534 25.7305 78.98 25.7305C77.3065 25.7305 75.95 27.087 75.95 28.7605C75.95 30.4339 77.3065 31.7905 78.98 31.7905Z" fill="#DDDBDB"/>
<path d="M89.76 31.7905C91.4334 31.7905 92.79 30.4339 92.79 28.7605C92.79 27.087 91.4334 25.7305 89.76 25.7305C88.0866 25.7305 86.73 27.087 86.73 28.7605C86.73 30.4339 88.0866 31.7905 89.76 31.7905Z" fill="#DDDBDB"/>
<path d="M100.54 31.7905C102.213 31.7905 103.57 30.4339 103.57 28.7605C103.57 27.087 102.213 25.7305 100.54 25.7305C98.8666 25.7305 97.51 27.087 97.51 28.7605C97.51 30.4339 98.8666 31.7905 100.54 31.7905Z" fill="#DDDBDB"/>
<path d="M111.33 31.7905C113.003 31.7905 114.36 30.4339 114.36 28.7605C114.36 27.087 113.003 25.7305 111.33 25.7305C109.657 25.7305 108.3 27.087 108.3 28.7605C108.3 30.4339 109.657 31.7905 111.33 31.7905Z" fill="#DDDBDB"/>
<path d="M122.11 31.7905C123.783 31.7905 125.14 30.4339 125.14 28.7605C125.14 27.087 123.783 25.7305 122.11 25.7305C120.437 25.7305 119.08 27.087 119.08 28.7605C119.08 30.4339 120.437 31.7905 122.11 31.7905Z" fill="#DDDBDB"/>
<path d="M132.89 31.7905C134.564 31.7905 135.92 30.4339 135.92 28.7605C135.92 27.087 134.564 25.7305 132.89 25.7305C131.217 25.7305 129.86 27.087 129.86 28.7605C129.86 30.4339 131.217 31.7905 132.89 31.7905Z" fill="#DDDBDB"/>
<path d="M143.67 31.7905C145.343 31.7905 146.7 30.4339 146.7 28.7605C146.7 27.087 145.343 25.7305 143.67 25.7305C141.996 25.7305 140.64 27.087 140.64 28.7605C140.64 30.4339 141.996 31.7905 143.67 31.7905Z" fill="#DDDBDB"/>
<path d="M154.46 31.7905C156.133 31.7905 157.49 30.4339 157.49 28.7605C157.49 27.087 156.133 25.7305 154.46 25.7305C152.787 25.7305 151.43 27.087 151.43 28.7605C151.43 30.4339 152.787 31.7905 154.46 31.7905Z" fill="#DDDBDB"/>
<path d="M73.5901 38.9409C75.2635 38.9409 76.6201 37.5843 76.6201 35.9109C76.6201 34.2374 75.2635 32.8809 73.5901 32.8809C71.9166 32.8809 70.5601 34.2374 70.5601 35.9109C70.5601 37.5843 71.9166 38.9409 73.5901 38.9409Z" fill="#DDDBDB"/>
<path d="M84.3701 38.9409C86.0435 38.9409 87.4001 37.5843 87.4001 35.9109C87.4001 34.2374 86.0435 32.8809 84.3701 32.8809C82.6967 32.8809 81.3401 34.2374 81.3401 35.9109C81.3401 37.5843 82.6967 38.9409 84.3701 38.9409Z" fill="#DDDBDB"/>
<path d="M95.1501 38.9409C96.8235 38.9409 98.1801 37.5843 98.1801 35.9109C98.1801 34.2374 96.8235 32.8809 95.1501 32.8809C93.4767 32.8809 92.1201 34.2374 92.1201 35.9109C92.1201 37.5843 93.4767 38.9409 95.1501 38.9409Z" fill="#DDDBDB"/>
<path d="M105.94 38.9409C107.613 38.9409 108.97 37.5843 108.97 35.9109C108.97 34.2374 107.613 32.8809 105.94 32.8809C104.266 32.8809 102.91 34.2374 102.91 35.9109C102.91 37.5843 104.266 38.9409 105.94 38.9409Z" fill="#DDDBDB"/>
<path d="M116.72 38.9409C118.393 38.9409 119.75 37.5843 119.75 35.9109C119.75 34.2374 118.393 32.8809 116.72 32.8809C115.047 32.8809 113.69 34.2374 113.69 35.9109C113.69 37.5843 115.047 38.9409 116.72 38.9409Z" fill="#DDDBDB"/>
<path d="M127.5 38.9409C129.173 38.9409 130.53 37.5843 130.53 35.9109C130.53 34.2374 129.173 32.8809 127.5 32.8809C125.827 32.8809 124.47 34.2374 124.47 35.9109C124.47 37.5843 125.827 38.9409 127.5 38.9409Z" fill="#DDDBDB"/>
<path d="M138.28 38.9409C139.953 38.9409 141.31 37.5843 141.31 35.9109C141.31 34.2374 139.953 32.8809 138.28 32.8809C136.607 32.8809 135.25 34.2374 135.25 35.9109C135.25 37.5843 136.607 38.9409 138.28 38.9409Z" fill="#DDDBDB"/>
<path d="M149.07 38.9409C150.743 38.9409 152.1 37.5843 152.1 35.9109C152.1 34.2374 150.743 32.8809 149.07 32.8809C147.397 32.8809 146.04 34.2374 146.04 35.9109C146.04 37.5843 147.397 38.9409 149.07 38.9409Z" fill="#DDDBDB"/>
<path d="M57.4099 45.7807C59.0833 45.7807 60.4399 44.4241 60.4399 42.7507C60.4399 41.0773 59.0833 39.7207 57.4099 39.7207C55.7365 39.7207 54.3799 41.0773 54.3799 42.7507C54.3799 44.4241 55.7365 45.7807 57.4099 45.7807Z" fill="#DDDBDB"/>
<path d="M68.1999 45.7807C69.8733 45.7807 71.2299 44.4241 71.2299 42.7507C71.2299 41.0773 69.8733 39.7207 68.1999 39.7207C66.5265 39.7207 65.1699 41.0773 65.1699 42.7507C65.1699 44.4241 66.5265 45.7807 68.1999 45.7807Z" fill="#DDDBDB"/>
<path d="M78.98 45.7807C80.6534 45.7807 82.01 44.4241 82.01 42.7507C82.01 41.0773 80.6534 39.7207 78.98 39.7207C77.3065 39.7207 75.95 41.0773 75.95 42.7507C75.95 44.4241 77.3065 45.7807 78.98 45.7807Z" fill="#DDDBDB"/>
<path d="M89.76 45.7807C91.4334 45.7807 92.79 44.4241 92.79 42.7507C92.79 41.0773 91.4334 39.7207 89.76 39.7207C88.0866 39.7207 86.73 41.0773 86.73 42.7507C86.73 44.4241 88.0866 45.7807 89.76 45.7807Z" fill="#DDDBDB"/>
<path d="M100.54 45.7807C102.213 45.7807 103.57 44.4241 103.57 42.7507C103.57 41.0773 102.213 39.7207 100.54 39.7207C98.8666 39.7207 97.51 41.0773 97.51 42.7507C97.51 44.4241 98.8666 45.7807 100.54 45.7807Z" fill="#DDDBDB"/>
<path d="M111.33 45.7807C113.003 45.7807 114.36 44.4241 114.36 42.7507C114.36 41.0773 113.003 39.7207 111.33 39.7207C109.657 39.7207 108.3 41.0773 108.3 42.7507C108.3 44.4241 109.657 45.7807 111.33 45.7807Z" fill="#DDDBDB"/>
<path d="M122.11 45.7807C123.783 45.7807 125.14 44.4241 125.14 42.7507C125.14 41.0773 123.783 39.7207 122.11 39.7207C120.437 39.7207 119.08 41.0773 119.08 42.7507C119.08 44.4241 120.437 45.7807 122.11 45.7807Z" fill="#DDDBDB"/>
<path d="M132.89 45.7807C134.564 45.7807 135.92 44.4241 135.92 42.7507C135.92 41.0773 134.564 39.7207 132.89 39.7207C131.217 39.7207 129.86 41.0773 129.86 42.7507C129.86 44.4241 131.217 45.7807 132.89 45.7807Z" fill="#DDDBDB"/>
<path d="M143.67 45.7807C145.343 45.7807 146.7 44.4241 146.7 42.7507C146.7 41.0773 145.343 39.7207 143.67 39.7207C141.996 39.7207 140.64 41.0773 140.64 42.7507C140.64 44.4241 141.996 45.7807 143.67 45.7807Z" fill="#DDDBDB"/>
<path d="M154.46 45.7807C156.133 45.7807 157.49 44.4241 157.49 42.7507C157.49 41.0773 156.133 39.7207 154.46 39.7207C152.787 39.7207 151.43 41.0773 151.43 42.7507C151.43 44.4241 152.787 45.7807 154.46 45.7807Z" fill="#DDDBDB"/>
<path d="M62.81 52.9291C64.4835 52.9291 65.84 51.5726 65.84 49.8991C65.84 48.2257 64.4835 46.8691 62.81 46.8691C61.1366 46.8691 59.78 48.2257 59.78 49.8991C59.78 51.5726 61.1366 52.9291 62.81 52.9291Z" fill="#DDDBDB"/>
<path d="M73.5901 52.9291C75.2635 52.9291 76.6201 51.5726 76.6201 49.8991C76.6201 48.2257 75.2635 46.8691 73.5901 46.8691C71.9166 46.8691 70.5601 48.2257 70.5601 49.8991C70.5601 51.5726 71.9166 52.9291 73.5901 52.9291Z" fill="#DDDBDB"/>
<path d="M84.3701 52.9291C86.0435 52.9291 87.4001 51.5726 87.4001 49.8991C87.4001 48.2257 86.0435 46.8691 84.3701 46.8691C82.6967 46.8691 81.3401 48.2257 81.3401 49.8991C81.3401 51.5726 82.6967 52.9291 84.3701 52.9291Z" fill="#DDDBDB"/>
<path d="M95.1501 52.9291C96.8235 52.9291 98.1801 51.5726 98.1801 49.8991C98.1801 48.2257 96.8235 46.8691 95.1501 46.8691C93.4767 46.8691 92.1201 48.2257 92.1201 49.8991C92.1201 51.5726 93.4767 52.9291 95.1501 52.9291Z" fill="#DDDBDB"/>
<path d="M105.94 52.9291C107.613 52.9291 108.97 51.5726 108.97 49.8991C108.97 48.2257 107.613 46.8691 105.94 46.8691C104.266 46.8691 102.91 48.2257 102.91 49.8991C102.91 51.5726 104.266 52.9291 105.94 52.9291Z" fill="#DDDBDB"/>
<path d="M116.72 52.9291C118.393 52.9291 119.75 51.5726 119.75 49.8991C119.75 48.2257 118.393 46.8691 116.72 46.8691C115.047 46.8691 113.69 48.2257 113.69 49.8991C113.69 51.5726 115.047 52.9291 116.72 52.9291Z" fill="#DDDBDB"/>
<path d="M127.5 52.9291C129.173 52.9291 130.53 51.5726 130.53 49.8991C130.53 48.2257 129.173 46.8691 127.5 46.8691C125.827 46.8691 124.47 48.2257 124.47 49.8991C124.47 51.5726 125.827 52.9291 127.5 52.9291Z" fill="#DDDBDB"/>
<path d="M138.28 52.9291C139.953 52.9291 141.31 51.5726 141.31 49.8991C141.31 48.2257 139.953 46.8691 138.28 46.8691C136.607 46.8691 135.25 48.2257 135.25 49.8991C135.25 51.5726 136.607 52.9291 138.28 52.9291Z" fill="#DDDBDB"/>
<path d="M149.07 52.9291C150.743 52.9291 152.1 51.5726 152.1 49.8991C152.1 48.2257 150.743 46.8691 149.07 46.8691C147.397 46.8691 146.04 48.2257 146.04 49.8991C146.04 51.5726 147.397 52.9291 149.07 52.9291Z" fill="#DDDBDB"/>
<path d="M57.4099 59.7807C59.0833 59.7807 60.4399 58.4241 60.4399 56.7507C60.4399 55.0773 59.0833 53.7207 57.4099 53.7207C55.7365 53.7207 54.3799 55.0773 54.3799 56.7507C54.3799 58.4241 55.7365 59.7807 57.4099 59.7807Z" fill="#DDDBDB"/>
<path d="M68.1999 59.7807C69.8733 59.7807 71.2299 58.4241 71.2299 56.7507C71.2299 55.0773 69.8733 53.7207 68.1999 53.7207C66.5265 53.7207 65.1699 55.0773 65.1699 56.7507C65.1699 58.4241 66.5265 59.7807 68.1999 59.7807Z" fill="#DDDBDB"/>
<path d="M78.98 59.7807C80.6534 59.7807 82.01 58.4241 82.01 56.7507C82.01 55.0773 80.6534 53.7207 78.98 53.7207C77.3065 53.7207 75.95 55.0773 75.95 56.7507C75.95 58.4241 77.3065 59.7807 78.98 59.7807Z" fill="#DDDBDB"/>
<path d="M89.76 59.7807C91.4334 59.7807 92.79 58.4241 92.79 56.7507C92.79 55.0773 91.4334 53.7207 89.76 53.7207C88.0866 53.7207 86.73 55.0773 86.73 56.7507C86.73 58.4241 88.0866 59.7807 89.76 59.7807Z" fill="#DDDBDB"/>
<path d="M100.54 59.7807C102.213 59.7807 103.57 58.4241 103.57 56.7507C103.57 55.0773 102.213 53.7207 100.54 53.7207C98.8666 53.7207 97.51 55.0773 97.51 56.7507C97.51 58.4241 98.8666 59.7807 100.54 59.7807Z" fill="#DDDBDB"/>
<path d="M111.33 59.7807C113.003 59.7807 114.36 58.4241 114.36 56.7507C114.36 55.0773 113.003 53.7207 111.33 53.7207C109.657 53.7207 108.3 55.0773 108.3 56.7507C108.3 58.4241 109.657 59.7807 111.33 59.7807Z" fill="#DDDBDB"/>
<path d="M122.11 59.7807C123.783 59.7807 125.14 58.4241 125.14 56.7507C125.14 55.0773 123.783 53.7207 122.11 53.7207C120.437 53.7207 119.08 55.0773 119.08 56.7507C119.08 58.4241 120.437 59.7807 122.11 59.7807Z" fill="#DDDBDB"/>
<path d="M132.89 59.7807C134.564 59.7807 135.92 58.4241 135.92 56.7507C135.92 55.0773 134.564 53.7207 132.89 53.7207C131.217 53.7207 129.86 55.0773 129.86 56.7507C129.86 58.4241 131.217 59.7807 132.89 59.7807Z" fill="#DDDBDB"/>
<path d="M143.67 59.7807C145.343 59.7807 146.7 58.4241 146.7 56.7507C146.7 55.0773 145.343 53.7207 143.67 53.7207C141.996 53.7207 140.64 55.0773 140.64 56.7507C140.64 58.4241 141.996 59.7807 143.67 59.7807Z" fill="#DDDBDB"/>
<path d="M154.46 59.7807C156.133 59.7807 157.49 58.4241 157.49 56.7507C157.49 55.0773 156.133 53.7207 154.46 53.7207C152.787 53.7207 151.43 55.0773 151.43 56.7507C151.43 58.4241 152.787 59.7807 154.46 59.7807Z" fill="#DDDBDB"/>
<path d="M62.81 66.9291C64.4835 66.9291 65.84 65.5726 65.84 63.8991C65.84 62.2257 64.4835 60.8691 62.81 60.8691C61.1366 60.8691 59.78 62.2257 59.78 63.8991C59.78 65.5726 61.1366 66.9291 62.81 66.9291Z" fill="#DDDBDB"/>
<path d="M73.5901 66.9291C75.2635 66.9291 76.6201 65.5726 76.6201 63.8991C76.6201 62.2257 75.2635 60.8691 73.5901 60.8691C71.9166 60.8691 70.5601 62.2257 70.5601 63.8991C70.5601 65.5726 71.9166 66.9291 73.5901 66.9291Z" fill="#DDDBDB"/>
<path d="M84.3701 66.9291C86.0435 66.9291 87.4001 65.5726 87.4001 63.8991C87.4001 62.2257 86.0435 60.8691 84.3701 60.8691C82.6967 60.8691 81.3401 62.2257 81.3401 63.8991C81.3401 65.5726 82.6967 66.9291 84.3701 66.9291Z" fill="#DDDBDB"/>
<path d="M95.1501 66.9291C96.8235 66.9291 98.1801 65.5726 98.1801 63.8991C98.1801 62.2257 96.8235 60.8691 95.1501 60.8691C93.4767 60.8691 92.1201 62.2257 92.1201 63.8991C92.1201 65.5726 93.4767 66.9291 95.1501 66.9291Z" fill="#DDDBDB"/>
<path d="M105.94 66.9291C107.613 66.9291 108.97 65.5726 108.97 63.8991C108.97 62.2257 107.613 60.8691 105.94 60.8691C104.266 60.8691 102.91 62.2257 102.91 63.8991C102.91 65.5726 104.266 66.9291 105.94 66.9291Z" fill="#DDDBDB"/>
<path d="M116.72 66.9291C118.393 66.9291 119.75 65.5726 119.75 63.8991C119.75 62.2257 118.393 60.8691 116.72 60.8691C115.047 60.8691 113.69 62.2257 113.69 63.8991C113.69 65.5726 115.047 66.9291 116.72 66.9291Z" fill="#DDDBDB"/>
<path d="M127.5 66.9291C129.173 66.9291 130.53 65.5726 130.53 63.8991C130.53 62.2257 129.173 60.8691 127.5 60.8691C125.827 60.8691 124.47 62.2257 124.47 63.8991C124.47 65.5726 125.827 66.9291 127.5 66.9291Z" fill="#DDDBDB"/>
<path d="M138.28 66.9291C139.953 66.9291 141.31 65.5726 141.31 63.8991C141.31 62.2257 139.953 60.8691 138.28 60.8691C136.607 60.8691 135.25 62.2257 135.25 63.8991C135.25 65.5726 136.607 66.9291 138.28 66.9291Z" fill="#DDDBDB"/>
<path d="M149.07 66.9291C150.743 66.9291 152.1 65.5726 152.1 63.8991C152.1 62.2257 150.743 60.8691 149.07 60.8691C147.397 60.8691 146.04 62.2257 146.04 63.8991C146.04 65.5726 147.397 66.9291 149.07 66.9291Z" fill="#DDDBDB"/>
<path d="M57.4099 73.7807C59.0833 73.7807 60.4399 72.4241 60.4399 70.7507C60.4399 69.0773 59.0833 67.7207 57.4099 67.7207C55.7365 67.7207 54.3799 69.0773 54.3799 70.7507C54.3799 72.4241 55.7365 73.7807 57.4099 73.7807Z" fill="#DDDBDB"/>
<path d="M68.1999 73.7807C69.8733 73.7807 71.2299 72.4241 71.2299 70.7507C71.2299 69.0773 69.8733 67.7207 68.1999 67.7207C66.5265 67.7207 65.1699 69.0773 65.1699 70.7507C65.1699 72.4241 66.5265 73.7807 68.1999 73.7807Z" fill="#DDDBDB"/>
<path d="M78.98 73.7807C80.6534 73.7807 82.01 72.4241 82.01 70.7507C82.01 69.0773 80.6534 67.7207 78.98 67.7207C77.3065 67.7207 75.95 69.0773 75.95 70.7507C75.95 72.4241 77.3065 73.7807 78.98 73.7807Z" fill="#DDDBDB"/>
<path d="M89.76 73.7807C91.4334 73.7807 92.79 72.4241 92.79 70.7507C92.79 69.0773 91.4334 67.7207 89.76 67.7207C88.0866 67.7207 86.73 69.0773 86.73 70.7507C86.73 72.4241 88.0866 73.7807 89.76 73.7807Z" fill="#DDDBDB"/>
<path d="M100.54 73.7807C102.213 73.7807 103.57 72.4241 103.57 70.7507C103.57 69.0773 102.213 67.7207 100.54 67.7207C98.8666 67.7207 97.51 69.0773 97.51 70.7507C97.51 72.4241 98.8666 73.7807 100.54 73.7807Z" fill="#DDDBDB"/>
<path d="M111.33 73.7807C113.003 73.7807 114.36 72.4241 114.36 70.7507C114.36 69.0773 113.003 67.7207 111.33 67.7207C109.657 67.7207 108.3 69.0773 108.3 70.7507C108.3 72.4241 109.657 73.7807 111.33 73.7807Z" fill="#DDDBDB"/>
<path d="M122.11 73.7807C123.783 73.7807 125.14 72.4241 125.14 70.7507C125.14 69.0773 123.783 67.7207 122.11 67.7207C120.437 67.7207 119.08 69.0773 119.08 70.7507C119.08 72.4241 120.437 73.7807 122.11 73.7807Z" fill="#DDDBDB"/>
<path d="M132.89 73.7807C134.564 73.7807 135.92 72.4241 135.92 70.7507C135.92 69.0773 134.564 67.7207 132.89 67.7207C131.217 67.7207 129.86 69.0773 129.86 70.7507C129.86 72.4241 131.217 73.7807 132.89 73.7807Z" fill="#DDDBDB"/>
<path d="M143.67 73.7807C145.343 73.7807 146.7 72.4241 146.7 70.7507C146.7 69.0773 145.343 67.7207 143.67 67.7207C141.996 67.7207 140.64 69.0773 140.64 70.7507C140.64 72.4241 141.996 73.7807 143.67 73.7807Z" fill="#DDDBDB"/>
<path d="M154.46 73.7807C156.133 73.7807 157.49 72.4241 157.49 70.7507C157.49 69.0773 156.133 67.7207 154.46 67.7207C152.787 67.7207 151.43 69.0773 151.43 70.7507C151.43 72.4241 152.787 73.7807 154.46 73.7807Z" fill="#DDDBDB"/>
<path d="M73.5901 80.9291C75.2635 80.9291 76.6201 79.5726 76.6201 77.8991C76.6201 76.2257 75.2635 74.8691 73.5901 74.8691C71.9166 74.8691 70.5601 76.2257 70.5601 77.8991C70.5601 79.5726 71.9166 80.9291 73.5901 80.9291Z" fill="#DDDBDB"/>
<path d="M84.3701 80.9291C86.0435 80.9291 87.4001 79.5726 87.4001 77.8991C87.4001 76.2257 86.0435 74.8691 84.3701 74.8691C82.6967 74.8691 81.3401 76.2257 81.3401 77.8991C81.3401 79.5726 82.6967 80.9291 84.3701 80.9291Z" fill="#DDDBDB"/>
<path d="M95.1501 80.9291C96.8235 80.9291 98.1801 79.5726 98.1801 77.8991C98.1801 76.2257 96.8235 74.8691 95.1501 74.8691C93.4767 74.8691 92.1201 76.2257 92.1201 77.8991C92.1201 79.5726 93.4767 80.9291 95.1501 80.9291Z" fill="#DDDBDB"/>
<path d="M105.94 80.9291C107.613 80.9291 108.97 79.5726 108.97 77.8991C108.97 76.2257 107.613 74.8691 105.94 74.8691C104.266 74.8691 102.91 76.2257 102.91 77.8991C102.91 79.5726 104.266 80.9291 105.94 80.9291Z" fill="#DDDBDB"/>
<path d="M116.72 80.9291C118.393 80.9291 119.75 79.5726 119.75 77.8991C119.75 76.2257 118.393 74.8691 116.72 74.8691C115.047 74.8691 113.69 76.2257 113.69 77.8991C113.69 79.5726 115.047 80.9291 116.72 80.9291Z" fill="#DDDBDB"/>
<path d="M127.5 80.9291C129.173 80.9291 130.53 79.5726 130.53 77.8991C130.53 76.2257 129.173 74.8691 127.5 74.8691C125.827 74.8691 124.47 76.2257 124.47 77.8991C124.47 79.5726 125.827 80.9291 127.5 80.9291Z" fill="#DDDBDB"/>
<path d="M138.28 80.9291C139.953 80.9291 141.31 79.5726 141.31 77.8991C141.31 76.2257 139.953 74.8691 138.28 74.8691C136.607 74.8691 135.25 76.2257 135.25 77.8991C135.25 79.5726 136.607 80.9291 138.28 80.9291Z" fill="#DDDBDB"/>
<path d="M149.07 80.9291C150.743 80.9291 152.1 79.5726 152.1 77.8991C152.1 76.2257 150.743 74.8691 149.07 74.8691C147.397 74.8691 146.04 76.2257 146.04 77.8991C146.04 79.5726 147.397 80.9291 149.07 80.9291Z" fill="#DDDBDB"/>
<path d="M78.98 87.7807C80.6534 87.7807 82.01 86.4241 82.01 84.7507C82.01 83.0773 80.6534 81.7207 78.98 81.7207C77.3065 81.7207 75.95 83.0773 75.95 84.7507C75.95 86.4241 77.3065 87.7807 78.98 87.7807Z" fill="#DDDBDB"/>
<path d="M89.76 87.7807C91.4334 87.7807 92.79 86.4241 92.79 84.7507C92.79 83.0773 91.4334 81.7207 89.76 81.7207C88.0866 81.7207 86.73 83.0773 86.73 84.7507C86.73 86.4241 88.0866 87.7807 89.76 87.7807Z" fill="#DDDBDB"/>
<path d="M100.54 87.7807C102.213 87.7807 103.57 86.4241 103.57 84.7507C103.57 83.0773 102.213 81.7207 100.54 81.7207C98.8666 81.7207 97.51 83.0773 97.51 84.7507C97.51 86.4241 98.8666 87.7807 100.54 87.7807Z" fill="#DDDBDB"/>
<path d="M111.33 87.7807C113.003 87.7807 114.36 86.4241 114.36 84.7507C114.36 83.0773 113.003 81.7207 111.33 81.7207C109.657 81.7207 108.3 83.0773 108.3 84.7507C108.3 86.4241 109.657 87.7807 111.33 87.7807Z" fill="#DDDBDB"/>
<path d="M122.11 87.7807C123.783 87.7807 125.14 86.4241 125.14 84.7507C125.14 83.0773 123.783 81.7207 122.11 81.7207C120.437 81.7207 119.08 83.0773 119.08 84.7507C119.08 86.4241 120.437 87.7807 122.11 87.7807Z" fill="#DDDBDB"/>
<path d="M132.89 87.7807C134.564 87.7807 135.92 86.4241 135.92 84.7507C135.92 83.0773 134.564 81.7207 132.89 81.7207C131.217 81.7207 129.86 83.0773 129.86 84.7507C129.86 86.4241 131.217 87.7807 132.89 87.7807Z" fill="#DDDBDB"/>
<path d="M143.67 87.7807C145.343 87.7807 146.7 86.4241 146.7 84.7507C146.7 83.0773 145.343 81.7207 143.67 81.7207C141.996 81.7207 140.64 83.0773 140.64 84.7507C140.64 86.4241 141.996 87.7807 143.67 87.7807Z" fill="#DDDBDB"/>
<path d="M154.46 87.7807C156.133 87.7807 157.49 86.4241 157.49 84.7507C157.49 83.0773 156.133 81.7207 154.46 81.7207C152.787 81.7207 151.43 83.0773 151.43 84.7507C151.43 86.4241 152.787 87.7807 154.46 87.7807Z" fill="#DDDBDB"/>
<path d="M73.5901 94.9291C75.2635 94.9291 76.6201 93.5726 76.6201 91.8991C76.6201 90.2257 75.2635 88.8691 73.5901 88.8691C71.9166 88.8691 70.5601 90.2257 70.5601 91.8991C70.5601 93.5726 71.9166 94.9291 73.5901 94.9291Z" fill="#DDDBDB"/>
<path d="M84.3701 94.9291C86.0435 94.9291 87.4001 93.5726 87.4001 91.8991C87.4001 90.2257 86.0435 88.8691 84.3701 88.8691C82.6967 88.8691 81.3401 90.2257 81.3401 91.8991C81.3401 93.5726 82.6967 94.9291 84.3701 94.9291Z" fill="#DDDBDB"/>
<path d="M95.1501 94.9291C96.8235 94.9291 98.1801 93.5726 98.1801 91.8991C98.1801 90.2257 96.8235 88.8691 95.1501 88.8691C93.4767 88.8691 92.1201 90.2257 92.1201 91.8991C92.1201 93.5726 93.4767 94.9291 95.1501 94.9291Z" fill="#DDDBDB"/>
<path d="M105.94 94.9291C107.613 94.9291 108.97 93.5726 108.97 91.8991C108.97 90.2257 107.613 88.8691 105.94 88.8691C104.266 88.8691 102.91 90.2257 102.91 91.8991C102.91 93.5726 104.266 94.9291 105.94 94.9291Z" fill="#DDDBDB"/>
<path d="M116.72 94.9291C118.393 94.9291 119.75 93.5726 119.75 91.8991C119.75 90.2257 118.393 88.8691 116.72 88.8691C115.047 88.8691 113.69 90.2257 113.69 91.8991C113.69 93.5726 115.047 94.9291 116.72 94.9291Z" fill="#DDDBDB"/>
<path d="M127.5 94.9291C129.173 94.9291 130.53 93.5726 130.53 91.8991C130.53 90.2257 129.173 88.8691 127.5 88.8691C125.827 88.8691 124.47 90.2257 124.47 91.8991C124.47 93.5726 125.827 94.9291 127.5 94.9291Z" fill="#DDDBDB"/>
<path d="M138.28 94.9291C139.953 94.9291 141.31 93.5726 141.31 91.8991C141.31 90.2257 139.953 88.8691 138.28 88.8691C136.607 88.8691 135.25 90.2257 135.25 91.8991C135.25 93.5726 136.607 94.9291 138.28 94.9291Z" fill="#DDDBDB"/>
<path d="M149.07 94.9291C150.743 94.9291 152.1 93.5726 152.1 91.8991C152.1 90.2257 150.743 88.8691 149.07 88.8691C147.397 88.8691 146.04 90.2257 146.04 91.8991C146.04 93.5726 147.397 94.9291 149.07 94.9291Z" fill="#DDDBDB"/>
<path d="M57.4099 101.771C59.0833 101.771 60.4399 100.414 60.4399 98.7409C60.4399 97.0675 59.0833 95.7109 57.4099 95.7109C55.7365 95.7109 54.3799 97.0675 54.3799 98.7409C54.3799 100.414 55.7365 101.771 57.4099 101.771Z" fill="#DDDBDB"/>
<path d="M68.1999 101.771C69.8733 101.771 71.2299 100.414 71.2299 98.7409C71.2299 97.0675 69.8733 95.7109 68.1999 95.7109C66.5265 95.7109 65.1699 97.0675 65.1699 98.7409C65.1699 100.414 66.5265 101.771 68.1999 101.771Z" fill="#DDDBDB"/>
<path d="M78.98 101.771C80.6534 101.771 82.01 100.414 82.01 98.7409C82.01 97.0675 80.6534 95.7109 78.98 95.7109C77.3065 95.7109 75.95 97.0675 75.95 98.7409C75.95 100.414 77.3065 101.771 78.98 101.771Z" fill="#DDDBDB"/>
<path d="M89.76 101.771C91.4334 101.771 92.79 100.414 92.79 98.7409C92.79 97.0675 91.4334 95.7109 89.76 95.7109C88.0866 95.7109 86.73 97.0675 86.73 98.7409C86.73 100.414 88.0866 101.771 89.76 101.771Z" fill="#DDDBDB"/>
<path d="M100.54 101.771C102.213 101.771 103.57 100.414 103.57 98.7409C103.57 97.0675 102.213 95.7109 100.54 95.7109C98.8666 95.7109 97.51 97.0675 97.51 98.7409C97.51 100.414 98.8666 101.771 100.54 101.771Z" fill="#DDDBDB"/>
<path d="M111.33 101.771C113.003 101.771 114.36 100.414 114.36 98.7409C114.36 97.0675 113.003 95.7109 111.33 95.7109C109.657 95.7109 108.3 97.0675 108.3 98.7409C108.3 100.414 109.657 101.771 111.33 101.771Z" fill="#DDDBDB"/>
<path d="M122.11 101.771C123.783 101.771 125.14 100.414 125.14 98.7409C125.14 97.0675 123.783 95.7109 122.11 95.7109C120.437 95.7109 119.08 97.0675 119.08 98.7409C119.08 100.414 120.437 101.771 122.11 101.771Z" fill="#DDDBDB"/>
<path d="M132.89 101.771C134.564 101.771 135.92 100.414 135.92 98.7409C135.92 97.0675 134.564 95.7109 132.89 95.7109C131.217 95.7109 129.86 97.0675 129.86 98.7409C129.86 100.414 131.217 101.771 132.89 101.771Z" fill="#DDDBDB"/>
<path d="M143.67 101.771C145.343 101.771 146.7 100.414 146.7 98.7409C146.7 97.0675 145.343 95.7109 143.67 95.7109C141.996 95.7109 140.64 97.0675 140.64 98.7409C140.64 100.414 141.996 101.771 143.67 101.771Z" fill="#DDDBDB"/>
<path d="M154.46 101.771C156.133 101.771 157.49 100.414 157.49 98.7409C157.49 97.0675 156.133 95.7109 154.46 95.7109C152.787 95.7109 151.43 97.0675 151.43 98.7409C151.43 100.414 152.787 101.771 154.46 101.771Z" fill="#DDDBDB"/>
<path d="M62.81 108.919C64.4835 108.919 65.84 107.563 65.84 105.889C65.84 104.216 64.4835 102.859 62.81 102.859C61.1366 102.859 59.78 104.216 59.78 105.889C59.78 107.563 61.1366 108.919 62.81 108.919Z" fill="#DDDBDB"/>
<path d="M73.5901 108.919C75.2635 108.919 76.6201 107.563 76.6201 105.889C76.6201 104.216 75.2635 102.859 73.5901 102.859C71.9166 102.859 70.5601 104.216 70.5601 105.889C70.5601 107.563 71.9166 108.919 73.5901 108.919Z" fill="#DDDBDB"/>
<path d="M84.3701 108.919C86.0435 108.919 87.4001 107.563 87.4001 105.889C87.4001 104.216 86.0435 102.859 84.3701 102.859C82.6967 102.859 81.3401 104.216 81.3401 105.889C81.3401 107.563 82.6967 108.919 84.3701 108.919Z" fill="#DDDBDB"/>
<path d="M95.1501 108.919C96.8235 108.919 98.1801 107.563 98.1801 105.889C98.1801 104.216 96.8235 102.859 95.1501 102.859C93.4767 102.859 92.1201 104.216 92.1201 105.889C92.1201 107.563 93.4767 108.919 95.1501 108.919Z" fill="#DDDBDB"/>
<path d="M105.94 108.919C107.613 108.919 108.97 107.563 108.97 105.889C108.97 104.216 107.613 102.859 105.94 102.859C104.266 102.859 102.91 104.216 102.91 105.889C102.91 107.563 104.266 108.919 105.94 108.919Z" fill="#DDDBDB"/>
<path d="M116.72 108.919C118.393 108.919 119.75 107.563 119.75 105.889C119.75 104.216 118.393 102.859 116.72 102.859C115.047 102.859 113.69 104.216 113.69 105.889C113.69 107.563 115.047 108.919 116.72 108.919Z" fill="#DDDBDB"/>
<path d="M127.5 108.919C129.173 108.919 130.53 107.563 130.53 105.889C130.53 104.216 129.173 102.859 127.5 102.859C125.827 102.859 124.47 104.216 124.47 105.889C124.47 107.563 125.827 108.919 127.5 108.919Z" fill="#DDDBDB"/>
<path d="M138.28 108.919C139.953 108.919 141.31 107.563 141.31 105.889C141.31 104.216 139.953 102.859 138.28 102.859C136.607 102.859 135.25 104.216 135.25 105.889C135.25 107.563 136.607 108.919 138.28 108.919Z" fill="#DDDBDB"/>
<path d="M149.07 108.919C150.743 108.919 152.1 107.563 152.1 105.889C152.1 104.216 150.743 102.859 149.07 102.859C147.397 102.859 146.04 104.216 146.04 105.889C146.04 107.563 147.397 108.919 149.07 108.919Z" fill="#DDDBDB"/>
<path d="M57.4099 115.771C59.0833 115.771 60.4399 114.414 60.4399 112.741C60.4399 111.068 59.0833 109.711 57.4099 109.711C55.7365 109.711 54.3799 111.068 54.3799 112.741C54.3799 114.414 55.7365 115.771 57.4099 115.771Z" fill="#DDDBDB"/>
<path d="M68.1999 115.771C69.8733 115.771 71.2299 114.414 71.2299 112.741C71.2299 111.068 69.8733 109.711 68.1999 109.711C66.5265 109.711 65.1699 111.068 65.1699 112.741C65.1699 114.414 66.5265 115.771 68.1999 115.771Z" fill="#DDDBDB"/>
<path d="M78.98 115.771C80.6534 115.771 82.01 114.414 82.01 112.741C82.01 111.068 80.6534 109.711 78.98 109.711C77.3065 109.711 75.95 111.068 75.95 112.741C75.95 114.414 77.3065 115.771 78.98 115.771Z" fill="#DDDBDB"/>
<path d="M89.76 115.771C91.4334 115.771 92.79 114.414 92.79 112.741C92.79 111.068 91.4334 109.711 89.76 109.711C88.0866 109.711 86.73 111.068 86.73 112.741C86.73 114.414 88.0866 115.771 89.76 115.771Z" fill="#DDDBDB"/>
<path d="M100.54 115.771C102.213 115.771 103.57 114.414 103.57 112.741C103.57 111.068 102.213 109.711 100.54 109.711C98.8666 109.711 97.51 111.068 97.51 112.741C97.51 114.414 98.8666 115.771 100.54 115.771Z" fill="#DDDBDB"/>
<path d="M111.33 115.771C113.003 115.771 114.36 114.414 114.36 112.741C114.36 111.068 113.003 109.711 111.33 109.711C109.657 109.711 108.3 111.068 108.3 112.741C108.3 114.414 109.657 115.771 111.33 115.771Z" fill="#DDDBDB"/>
<path d="M122.11 115.771C123.783 115.771 125.14 114.414 125.14 112.741C125.14 111.068 123.783 109.711 122.11 109.711C120.437 109.711 119.08 111.068 119.08 112.741C119.08 114.414 120.437 115.771 122.11 115.771Z" fill="#DDDBDB"/>
<path d="M132.89 115.771C134.564 115.771 135.92 114.414 135.92 112.741C135.92 111.068 134.564 109.711 132.89 109.711C131.217 109.711 129.86 111.068 129.86 112.741C129.86 114.414 131.217 115.771 132.89 115.771Z" fill="#DDDBDB"/>
<path d="M143.67 115.771C145.343 115.771 146.7 114.414 146.7 112.741C146.7 111.068 145.343 109.711 143.67 109.711C141.996 109.711 140.64 111.068 140.64 112.741C140.64 114.414 141.996 115.771 143.67 115.771Z" fill="#DDDBDB"/>
<path d="M154.46 115.771C156.133 115.771 157.49 114.414 157.49 112.741C157.49 111.068 156.133 109.711 154.46 109.711C152.787 109.711 151.43 111.068 151.43 112.741C151.43 114.414 152.787 115.771 154.46 115.771Z" fill="#DDDBDB"/>
<path d="M62.81 122.919C64.4835 122.919 65.84 121.563 65.84 119.889C65.84 118.216 64.4835 116.859 62.81 116.859C61.1366 116.859 59.78 118.216 59.78 119.889C59.78 121.563 61.1366 122.919 62.81 122.919Z" fill="#DDDBDB"/>
<path d="M73.5901 122.919C75.2635 122.919 76.6201 121.563 76.6201 119.889C76.6201 118.216 75.2635 116.859 73.5901 116.859C71.9166 116.859 70.5601 118.216 70.5601 119.889C70.5601 121.563 71.9166 122.919 73.5901 122.919Z" fill="#DDDBDB"/>
<path d="M84.3701 122.919C86.0435 122.919 87.4001 121.563 87.4001 119.889C87.4001 118.216 86.0435 116.859 84.3701 116.859C82.6967 116.859 81.3401 118.216 81.3401 119.889C81.3401 121.563 82.6967 122.919 84.3701 122.919Z" fill="#DDDBDB"/>
<path d="M95.1501 122.919C96.8235 122.919 98.1801 121.563 98.1801 119.889C98.1801 118.216 96.8235 116.859 95.1501 116.859C93.4767 116.859 92.1201 118.216 92.1201 119.889C92.1201 121.563 93.4767 122.919 95.1501 122.919Z" fill="#DDDBDB"/>
<path d="M105.94 122.919C107.613 122.919 108.97 121.563 108.97 119.889C108.97 118.216 107.613 116.859 105.94 116.859C104.266 116.859 102.91 118.216 102.91 119.889C102.91 121.563 104.266 122.919 105.94 122.919Z" fill="#DDDBDB"/>
<path d="M116.72 122.919C118.393 122.919 119.75 121.563 119.75 119.889C119.75 118.216 118.393 116.859 116.72 116.859C115.047 116.859 113.69 118.216 113.69 119.889C113.69 121.563 115.047 122.919 116.72 122.919Z" fill="#DDDBDB"/>
<path d="M127.5 122.919C129.173 122.919 130.53 121.563 130.53 119.889C130.53 118.216 129.173 116.859 127.5 116.859C125.827 116.859 124.47 118.216 124.47 119.889C124.47 121.563 125.827 122.919 127.5 122.919Z" fill="#DDDBDB"/>
<path d="M138.28 122.919C139.953 122.919 141.31 121.563 141.31 119.889C141.31 118.216 139.953 116.859 138.28 116.859C136.607 116.859 135.25 118.216 135.25 119.889C135.25 121.563 136.607 122.919 138.28 122.919Z" fill="#DDDBDB"/>
<path d="M149.07 122.919C150.743 122.919 152.1 121.563 152.1 119.889C152.1 118.216 150.743 116.859 149.07 116.859C147.397 116.859 146.04 118.216 146.04 119.889C146.04 121.563 147.397 122.919 149.07 122.919Z" fill="#DDDBDB"/>
<path d="M57.4099 129.771C59.0833 129.771 60.4399 128.414 60.4399 126.741C60.4399 125.068 59.0833 123.711 57.4099 123.711C55.7365 123.711 54.3799 125.068 54.3799 126.741C54.3799 128.414 55.7365 129.771 57.4099 129.771Z" fill="#DDDBDB"/>
<path d="M68.1999 129.771C69.8733 129.771 71.2299 128.414 71.2299 126.741C71.2299 125.068 69.8733 123.711 68.1999 123.711C66.5265 123.711 65.1699 125.068 65.1699 126.741C65.1699 128.414 66.5265 129.771 68.1999 129.771Z" fill="#DDDBDB"/>
<path d="M78.98 129.771C80.6534 129.771 82.01 128.414 82.01 126.741C82.01 125.068 80.6534 123.711 78.98 123.711C77.3065 123.711 75.95 125.068 75.95 126.741C75.95 128.414 77.3065 129.771 78.98 129.771Z" fill="#DDDBDB"/>
<path d="M89.76 129.771C91.4334 129.771 92.79 128.414 92.79 126.741C92.79 125.068 91.4334 123.711 89.76 123.711C88.0866 123.711 86.73 125.068 86.73 126.741C86.73 128.414 88.0866 129.771 89.76 129.771Z" fill="#DDDBDB"/>
<path d="M100.54 129.771C102.213 129.771 103.57 128.414 103.57 126.741C103.57 125.068 102.213 123.711 100.54 123.711C98.8666 123.711 97.51 125.068 97.51 126.741C97.51 128.414 98.8666 129.771 100.54 129.771Z" fill="#DDDBDB"/>
<path d="M111.33 129.771C113.003 129.771 114.36 128.414 114.36 126.741C114.36 125.068 113.003 123.711 111.33 123.711C109.657 123.711 108.3 125.068 108.3 126.741C108.3 128.414 109.657 129.771 111.33 129.771Z" fill="#DDDBDB"/>
<path d="M122.11 129.771C123.783 129.771 125.14 128.414 125.14 126.741C125.14 125.068 123.783 123.711 122.11 123.711C120.437 123.711 119.08 125.068 119.08 126.741C119.08 128.414 120.437 129.771 122.11 129.771Z" fill="#DDDBDB"/>
<path d="M132.89 129.771C134.564 129.771 135.92 128.414 135.92 126.741C135.92 125.068 134.564 123.711 132.89 123.711C131.217 123.711 129.86 125.068 129.86 126.741C129.86 128.414 131.217 129.771 132.89 129.771Z" fill="#DDDBDB"/>
<path d="M143.67 129.771C145.343 129.771 146.7 128.414 146.7 126.741C146.7 125.068 145.343 123.711 143.67 123.711C141.996 123.711 140.64 125.068 140.64 126.741C140.64 128.414 141.996 129.771 143.67 129.771Z" fill="#DDDBDB"/>
<path d="M154.46 129.771C156.133 129.771 157.49 128.414 157.49 126.741C157.49 125.068 156.133 123.711 154.46 123.711C152.787 123.711 151.43 125.068 151.43 126.741C151.43 128.414 152.787 129.771 154.46 129.771Z" fill="#DDDBDB"/>
<path d="M73.5901 136.919C75.2635 136.919 76.6201 135.563 76.6201 133.889C76.6201 132.216 75.2635 130.859 73.5901 130.859C71.9166 130.859 70.5601 132.216 70.5601 133.889C70.5601 135.563 71.9166 136.919 73.5901 136.919Z" fill="#DDDBDB"/>
<path d="M84.3701 136.919C86.0435 136.919 87.4001 135.563 87.4001 133.889C87.4001 132.216 86.0435 130.859 84.3701 130.859C82.6967 130.859 81.3401 132.216 81.3401 133.889C81.3401 135.563 82.6967 136.919 84.3701 136.919Z" fill="#DDDBDB"/>
<path d="M95.1501 136.919C96.8235 136.919 98.1801 135.563 98.1801 133.889C98.1801 132.216 96.8235 130.859 95.1501 130.859C93.4767 130.859 92.1201 132.216 92.1201 133.889C92.1201 135.563 93.4767 136.919 95.1501 136.919Z" fill="#DDDBDB"/>
<path d="M105.94 136.919C107.613 136.919 108.97 135.563 108.97 133.889C108.97 132.216 107.613 130.859 105.94 130.859C104.266 130.859 102.91 132.216 102.91 133.889C102.91 135.563 104.266 136.919 105.94 136.919Z" fill="#DDDBDB"/>
<path d="M116.72 136.919C118.393 136.919 119.75 135.563 119.75 133.889C119.75 132.216 118.393 130.859 116.72 130.859C115.047 130.859 113.69 132.216 113.69 133.889C113.69 135.563 115.047 136.919 116.72 136.919Z" fill="#DDDBDB"/>
<path d="M127.5 136.919C129.173 136.919 130.53 135.563 130.53 133.889C130.53 132.216 129.173 130.859 127.5 130.859C125.827 130.859 124.47 132.216 124.47 133.889C124.47 135.563 125.827 136.919 127.5 136.919Z" fill="#DDDBDB"/>
<path d="M138.28 136.919C139.953 136.919 141.31 135.563 141.31 133.889C141.31 132.216 139.953 130.859 138.28 130.859C136.607 130.859 135.25 132.216 135.25 133.889C135.25 135.563 136.607 136.919 138.28 136.919Z" fill="#DDDBDB"/>
<path d="M149.07 136.919C150.743 136.919 152.1 135.563 152.1 133.889C152.1 132.216 150.743 130.859 149.07 130.859C147.397 130.859 146.04 132.216 146.04 133.889C146.04 135.563 147.397 136.919 149.07 136.919Z" fill="#DDDBDB"/>
<path d="M78.98 143.771C80.6534 143.771 82.01 142.414 82.01 140.741C82.01 139.068 80.6534 137.711 78.98 137.711C77.3065 137.711 75.95 139.068 75.95 140.741C75.95 142.414 77.3065 143.771 78.98 143.771Z" fill="#DDDBDB"/>
<path d="M89.76 143.771C91.4334 143.771 92.79 142.414 92.79 140.741C92.79 139.068 91.4334 137.711 89.76 137.711C88.0866 137.711 86.73 139.068 86.73 140.741C86.73 142.414 88.0866 143.771 89.76 143.771Z" fill="#DDDBDB"/>
<path d="M100.54 143.771C102.213 143.771 103.57 142.414 103.57 140.741C103.57 139.068 102.213 137.711 100.54 137.711C98.8666 137.711 97.51 139.068 97.51 140.741C97.51 142.414 98.8666 143.771 100.54 143.771Z" fill="#DDDBDB"/>
<path d="M111.33 143.771C113.003 143.771 114.36 142.414 114.36 140.741C114.36 139.068 113.003 137.711 111.33 137.711C109.657 137.711 108.3 139.068 108.3 140.741C108.3 142.414 109.657 143.771 111.33 143.771Z" fill="#DDDBDB"/>
<path d="M122.11 143.771C123.783 143.771 125.14 142.414 125.14 140.741C125.14 139.068 123.783 137.711 122.11 137.711C120.437 137.711 119.08 139.068 119.08 140.741C119.08 142.414 120.437 143.771 122.11 143.771Z" fill="#DDDBDB"/>
<path d="M132.89 143.771C134.564 143.771 135.92 142.414 135.92 140.741C135.92 139.068 134.564 137.711 132.89 137.711C131.217 137.711 129.86 139.068 129.86 140.741C129.86 142.414 131.217 143.771 132.89 143.771Z" fill="#DDDBDB"/>
<path d="M143.67 143.771C145.343 143.771 146.7 142.414 146.7 140.741C146.7 139.068 145.343 137.711 143.67 137.711C141.996 137.711 140.64 139.068 140.64 140.741C140.64 142.414 141.996 143.771 143.67 143.771Z" fill="#DDDBDB"/>
<path d="M154.46 143.771C156.133 143.771 157.49 142.414 157.49 140.741C157.49 139.068 156.133 137.711 154.46 137.711C152.787 137.711 151.43 139.068 151.43 140.741C151.43 142.414 152.787 143.771 154.46 143.771Z" fill="#DDDBDB"/>
<path d="M73.5901 150.919C75.2635 150.919 76.6201 149.563 76.6201 147.889C76.6201 146.216 75.2635 144.859 73.5901 144.859C71.9166 144.859 70.5601 146.216 70.5601 147.889C70.5601 149.563 71.9166 150.919 73.5901 150.919Z" fill="#DDDBDB"/>
<path d="M84.3701 150.919C86.0435 150.919 87.4001 149.563 87.4001 147.889C87.4001 146.216 86.0435 144.859 84.3701 144.859C82.6967 144.859 81.3401 146.216 81.3401 147.889C81.3401 149.563 82.6967 150.919 84.3701 150.919Z" fill="#DDDBDB"/>
<path d="M95.1501 150.919C96.8235 150.919 98.1801 149.563 98.1801 147.889C98.1801 146.216 96.8235 144.859 95.1501 144.859C93.4767 144.859 92.1201 146.216 92.1201 147.889C92.1201 149.563 93.4767 150.919 95.1501 150.919Z" fill="#DDDBDB"/>
<path d="M105.94 150.919C107.613 150.919 108.97 149.563 108.97 147.889C108.97 146.216 107.613 144.859 105.94 144.859C104.266 144.859 102.91 146.216 102.91 147.889C102.91 149.563 104.266 150.919 105.94 150.919Z" fill="#DDDBDB"/>
<path d="M116.72 150.919C118.393 150.919 119.75 149.563 119.75 147.889C119.75 146.216 118.393 144.859 116.72 144.859C115.047 144.859 113.69 146.216 113.69 147.889C113.69 149.563 115.047 150.919 116.72 150.919Z" fill="#DDDBDB"/>
<path d="M127.5 150.919C129.173 150.919 130.53 149.563 130.53 147.889C130.53 146.216 129.173 144.859 127.5 144.859C125.827 144.859 124.47 146.216 124.47 147.889C124.47 149.563 125.827 150.919 127.5 150.919Z" fill="#DDDBDB"/>
<path d="M138.28 150.919C139.953 150.919 141.31 149.563 141.31 147.889C141.31 146.216 139.953 144.859 138.28 144.859C136.607 144.859 135.25 146.216 135.25 147.889C135.25 149.563 136.607 150.919 138.28 150.919Z" fill="#DDDBDB"/>
<path d="M149.07 150.919C150.743 150.919 152.1 149.563 152.1 147.889C152.1 146.216 150.743 144.859 149.07 144.859C147.397 144.859 146.04 146.216 146.04 147.889C146.04 149.563 147.397 150.919 149.07 150.919Z" fill="#DDDBDB"/>
<path d="M57.4099 157.759C59.0833 157.759 60.4399 156.403 60.4399 154.729C60.4399 153.056 59.0833 151.699 57.4099 151.699C55.7365 151.699 54.3799 153.056 54.3799 154.729C54.3799 156.403 55.7365 157.759 57.4099 157.759Z" fill="#DDDBDB"/>
<path d="M68.1999 157.759C69.8733 157.759 71.2299 156.403 71.2299 154.729C71.2299 153.056 69.8733 151.699 68.1999 151.699C66.5265 151.699 65.1699 153.056 65.1699 154.729C65.1699 156.403 66.5265 157.759 68.1999 157.759Z" fill="#DDDBDB"/>
<path d="M78.98 157.759C80.6534 157.759 82.01 156.403 82.01 154.729C82.01 153.056 80.6534 151.699 78.98 151.699C77.3065 151.699 75.95 153.056 75.95 154.729C75.95 156.403 77.3065 157.759 78.98 157.759Z" fill="#DDDBDB"/>
<path d="M89.76 157.759C91.4334 157.759 92.79 156.403 92.79 154.729C92.79 153.056 91.4334 151.699 89.76 151.699C88.0866 151.699 86.73 153.056 86.73 154.729C86.73 156.403 88.0866 157.759 89.76 157.759Z" fill="#DDDBDB"/>
<path d="M100.54 157.759C102.213 157.759 103.57 156.403 103.57 154.729C103.57 153.056 102.213 151.699 100.54 151.699C98.8666 151.699 97.51 153.056 97.51 154.729C97.51 156.403 98.8666 157.759 100.54 157.759Z" fill="#DDDBDB"/>
<path d="M111.33 157.759C113.003 157.759 114.36 156.403 114.36 154.729C114.36 153.056 113.003 151.699 111.33 151.699C109.657 151.699 108.3 153.056 108.3 154.729C108.3 156.403 109.657 157.759 111.33 157.759Z" fill="#DDDBDB"/>
<path d="M122.11 157.759C123.783 157.759 125.14 156.403 125.14 154.729C125.14 153.056 123.783 151.699 122.11 151.699C120.437 151.699 119.08 153.056 119.08 154.729C119.08 156.403 120.437 157.759 122.11 157.759Z" fill="#DDDBDB"/>
<path d="M132.89 157.759C134.564 157.759 135.92 156.403 135.92 154.729C135.92 153.056 134.564 151.699 132.89 151.699C131.217 151.699 129.86 153.056 129.86 154.729C129.86 156.403 131.217 157.759 132.89 157.759Z" fill="#DDDBDB"/>
<path d="M143.67 157.759C145.343 157.759 146.7 156.403 146.7 154.729C146.7 153.056 145.343 151.699 143.67 151.699C141.996 151.699 140.64 153.056 140.64 154.729C140.64 156.403 141.996 157.759 143.67 157.759Z" fill="#DDDBDB"/>
<path d="M154.46 157.759C156.133 157.759 157.49 156.403 157.49 154.729C157.49 153.056 156.133 151.699 154.46 151.699C152.787 151.699 151.43 153.056 151.43 154.729C151.43 156.403 152.787 157.759 154.46 157.759Z" fill="#DDDBDB"/>
<path d="M164.49 5.5L158.97 0H0V3H42.07L44.64 5.5H0V8.5H46.68V161.39H49.83V8.5H161.5V161.39H164.5V5.5H164.49ZM48.93 5.5L48.52 5.1L46.72 3H157.58L160.4 5.5H48.94H48.93Z" fill="black"/>
<path d="M73.5399 30.7191H59.9799L64.8399 35.5791L62.0399 38.3891L52.3999 28.7591L62.0399 19.1191L64.8399 21.9291L60.0299 26.7491H73.5899L73.5399 30.7191Z" fill="black"/>
<path d="M73.5399 86.7094H59.9799L64.8399 91.5694L62.0399 94.3794L52.3999 84.7494L62.0399 75.1094L64.8399 77.9194L60.0299 82.7394H73.5899L73.5399 86.7094Z" fill="black"/>
<path d="M73.5399 142.7H59.9799L64.8399 147.56L62.0399 150.37L52.3999 140.74L62.0399 131.1L64.8399 133.91L60.0299 138.73H73.5899L73.5399 142.7Z" fill="black"/>
<path d="M36.1901 10.4609C32.1401 10.4609 28.8501 13.7409 28.8501 17.8009C28.8501 21.8609 32.1301 25.1409 36.1901 25.1409C40.2501 25.1409 43.5301 21.8609 43.5301 17.8009C43.5301 13.7409 40.2501 10.4609 36.1901 10.4609ZM36.8101 21.5809H35.8201V15.4509H34.2401V14.5809H36.8101V21.5809Z" fill="black"/>
<path d="M150.78 10.4609C146.73 10.4609 143.44 13.7409 143.44 17.8009C143.44 21.8609 146.72 25.1409 150.78 25.1409C154.84 25.1409 158.12 21.8609 158.12 17.8009C158.12 13.7409 154.84 10.4609 150.78 10.4609ZM153.52 21.1009H148.49V20.4209L151.34 17.6709C151.59 17.4309 151.78 17.2209 151.91 17.0309C152.03 16.8509 152.12 16.6809 152.16 16.5209C152.2 16.3609 152.22 16.2109 152.22 16.0609C152.22 15.7009 152.09 15.4209 151.84 15.2109C151.59 15.0009 151.22 14.9009 150.73 14.9009C150.36 14.9009 150.02 14.9609 149.72 15.0909C149.42 15.2109 149.16 15.4009 148.94 15.6709L148.26 15.0809C148.53 14.7409 148.88 14.4809 149.34 14.2909C149.8 14.1009 150.29 14.0109 150.83 14.0109C151.32 14.0109 151.74 14.0909 152.1 14.2509C152.46 14.4109 152.74 14.6309 152.93 14.9209C153.13 15.2109 153.22 15.5609 153.22 15.9609C153.22 16.1909 153.19 16.4109 153.13 16.6309C153.07 16.8509 152.96 17.0809 152.79 17.3309C152.62 17.5809 152.38 17.8509 152.07 18.1609L149.93 20.2209H153.52V21.0909V21.1009Z" fill="black"/>
</g>
<defs>
<clipPath id="clip0_1583_4816">
<rect width="206" height="161.39" fill="white"/>
</clipPath>
</defs>
</svg>
