<svg width="206" height="171" viewBox="0 0 206 171" fill="none" xmlns="http://www.w3.org/2000/svg">
<g clip-path="url(#clip0_1015_2143)">
<path d="M7.28977 44.6801C8.96319 44.6801 10.3198 43.3235 10.3198 41.6501C10.3198 39.9767 8.96319 38.6201 7.28977 38.6201C5.61634 38.6201 4.25977 39.9767 4.25977 41.6501C4.25977 43.3235 5.61634 44.6801 7.28977 44.6801Z" fill="#DDDBDB"/>
<path d="M18.0808 44.6801C19.7542 44.6801 21.1108 43.3235 21.1108 41.6501C21.1108 39.9767 19.7542 38.6201 18.0808 38.6201C16.4074 38.6201 15.0508 39.9767 15.0508 41.6501C15.0508 43.3235 16.4074 44.6801 18.0808 44.6801Z" fill="#DDDBDB"/>
<path d="M12.6902 51.83C14.3636 51.83 15.7202 50.4734 15.7202 48.8C15.7202 47.1266 14.3636 45.77 12.6902 45.77C11.0167 45.77 9.66016 47.1266 9.66016 48.8C9.66016 50.4734 11.0167 51.83 12.6902 51.83Z" fill="#DDDBDB"/>
<path d="M23.4695 51.83C25.1429 51.83 26.4995 50.4734 26.4995 48.8C26.4995 47.1266 25.1429 45.77 23.4695 45.77C21.796 45.77 20.4395 47.1266 20.4395 48.8C20.4395 50.4734 21.796 51.83 23.4695 51.83Z" fill="#DDDBDB"/>
<path d="M7.28977 58.6801C8.96319 58.6801 10.3198 57.3235 10.3198 55.6501C10.3198 53.9767 8.96319 52.6201 7.28977 52.6201C5.61634 52.6201 4.25977 53.9767 4.25977 55.6501C4.25977 57.3235 5.61634 58.6801 7.28977 58.6801Z" fill="#DDDBDB"/>
<path d="M18.0808 58.6801C19.7542 58.6801 21.1108 57.3235 21.1108 55.6501C21.1108 53.9767 19.7542 52.6201 18.0808 52.6201C16.4074 52.6201 15.0508 53.9767 15.0508 55.6501C15.0508 57.3235 16.4074 58.6801 18.0808 58.6801Z" fill="#DDDBDB"/>
<path d="M28.8601 58.6801C30.5335 58.6801 31.8901 57.3235 31.8901 55.6501C31.8901 53.9767 30.5335 52.6201 28.8601 52.6201C27.1867 52.6201 25.8301 53.9767 25.8301 55.6501C25.8301 57.3235 27.1867 58.6801 28.8601 58.6801Z" fill="#DDDBDB"/>
<path d="M39.6394 58.6801C41.3128 58.6801 42.6694 57.3235 42.6694 55.6501C42.6694 53.9767 41.3128 52.6201 39.6394 52.6201C37.966 52.6201 36.6094 53.9767 36.6094 55.6501C36.6094 57.3235 37.966 58.6801 39.6394 58.6801Z" fill="#DDDBDB"/>
<path d="M12.6902 65.83C14.3636 65.83 15.7202 64.4734 15.7202 62.8C15.7202 61.1266 14.3636 59.77 12.6902 59.77C11.0167 59.77 9.66016 61.1266 9.66016 62.8C9.66016 64.4734 11.0167 65.83 12.6902 65.83Z" fill="#DDDBDB"/>
<path d="M23.4695 65.83C25.1429 65.83 26.4995 64.4734 26.4995 62.8C26.4995 61.1266 25.1429 59.77 23.4695 59.77C21.796 59.77 20.4395 61.1266 20.4395 62.8C20.4395 64.4734 21.796 65.83 23.4695 65.83Z" fill="#DDDBDB"/>
<path d="M34.2507 65.83C35.9241 65.83 37.2807 64.4734 37.2807 62.8C37.2807 61.1266 35.9241 59.77 34.2507 59.77C32.5773 59.77 31.2207 61.1266 31.2207 62.8C31.2207 64.4734 32.5773 65.83 34.2507 65.83Z" fill="#DDDBDB"/>
<path d="M28.8601 44.3798C30.5335 44.3798 31.8901 43.0232 31.8901 41.3498C31.8901 39.6764 30.5335 38.3198 28.8601 38.3198C27.1867 38.3198 25.8301 39.6764 25.8301 41.3498C25.8301 43.0232 27.1867 44.3798 28.8601 44.3798Z" fill="#DDDBDB"/>
<path d="M39.6394 44.3798C41.3128 44.3798 42.6694 43.0232 42.6694 41.3498C42.6694 39.6764 41.3128 38.3198 39.6394 38.3198C37.966 38.3198 36.6094 39.6764 36.6094 41.3498C36.6094 43.0232 37.966 44.3798 39.6394 44.3798Z" fill="#DDDBDB"/>
<path d="M34.2507 51.5302C35.9241 51.5302 37.2807 50.1736 37.2807 48.5002C37.2807 46.8268 35.9241 45.4702 34.2507 45.4702C32.5773 45.4702 31.2207 46.8268 31.2207 48.5002C31.2207 50.1736 32.5773 51.5302 34.2507 51.5302Z" fill="#DDDBDB"/>
<path d="M7.28977 72.6801C8.96319 72.6801 10.3198 71.3235 10.3198 69.6501C10.3198 67.9767 8.96319 66.6201 7.28977 66.6201C5.61634 66.6201 4.25977 67.9767 4.25977 69.6501C4.25977 71.3235 5.61634 72.6801 7.28977 72.6801Z" fill="#DDDBDB"/>
<path d="M18.0808 72.6801C19.7542 72.6801 21.1108 71.3235 21.1108 69.6501C21.1108 67.9767 19.7542 66.6201 18.0808 66.6201C16.4074 66.6201 15.0508 67.9767 15.0508 69.6501C15.0508 71.3235 16.4074 72.6801 18.0808 72.6801Z" fill="#DDDBDB"/>
<path d="M28.8601 72.6801C30.5335 72.6801 31.8901 71.3235 31.8901 69.6501C31.8901 67.9767 30.5335 66.6201 28.8601 66.6201C27.1867 66.6201 25.8301 67.9767 25.8301 69.6501C25.8301 71.3235 27.1867 72.6801 28.8601 72.6801Z" fill="#DDDBDB"/>
<path d="M39.6394 72.6801C41.3128 72.6801 42.6694 71.3235 42.6694 69.6501C42.6694 67.9767 41.3128 66.6201 39.6394 66.6201C37.966 66.6201 36.6094 67.9767 36.6094 69.6501C36.6094 71.3235 37.966 72.6801 39.6394 72.6801Z" fill="#DDDBDB"/>
<path d="M12.6902 79.83C14.3636 79.83 15.7202 78.4734 15.7202 76.8C15.7202 75.1266 14.3636 73.77 12.6902 73.77C11.0167 73.77 9.66016 75.1266 9.66016 76.8C9.66016 78.4734 11.0167 79.83 12.6902 79.83Z" fill="#DDDBDB"/>
<path d="M23.4695 79.83C25.1429 79.83 26.4995 78.4734 26.4995 76.8C26.4995 75.1266 25.1429 73.77 23.4695 73.77C21.796 73.77 20.4395 75.1266 20.4395 76.8C20.4395 78.4734 21.796 79.83 23.4695 79.83Z" fill="#DDDBDB"/>
<path d="M34.2507 79.83C35.9241 79.83 37.2807 78.4734 37.2807 76.8C37.2807 75.1266 35.9241 73.77 34.2507 73.77C32.5773 73.77 31.2207 75.1266 31.2207 76.8C31.2207 78.4734 32.5773 79.83 34.2507 79.83Z" fill="#DDDBDB"/>
<path d="M7.28977 86.6699C8.96319 86.6699 10.3198 85.3133 10.3198 83.6399C10.3198 81.9664 8.96319 80.6099 7.28977 80.6099C5.61634 80.6099 4.25977 81.9664 4.25977 83.6399C4.25977 85.3133 5.61634 86.6699 7.28977 86.6699Z" fill="#DDDBDB"/>
<path d="M18.0808 86.6699C19.7542 86.6699 21.1108 85.3133 21.1108 83.6399C21.1108 81.9664 19.7542 80.6099 18.0808 80.6099C16.4074 80.6099 15.0508 81.9664 15.0508 83.6399C15.0508 85.3133 16.4074 86.6699 18.0808 86.6699Z" fill="#DDDBDB"/>
<path d="M28.8601 86.6699C30.5335 86.6699 31.8901 85.3133 31.8901 83.6399C31.8901 81.9664 30.5335 80.6099 28.8601 80.6099C27.1867 80.6099 25.8301 81.9664 25.8301 83.6399C25.8301 85.3133 27.1867 86.6699 28.8601 86.6699Z" fill="#DDDBDB"/>
<path d="M39.6394 86.6699C41.3128 86.6699 42.6694 85.3133 42.6694 83.6399C42.6694 81.9664 41.3128 80.6099 39.6394 80.6099C37.966 80.6099 36.6094 81.9664 36.6094 83.6399C36.6094 85.3133 37.966 86.6699 39.6394 86.6699Z" fill="#DDDBDB"/>
<path d="M12.6902 93.8198C14.3636 93.8198 15.7202 92.4632 15.7202 90.7898C15.7202 89.1163 14.3636 87.7598 12.6902 87.7598C11.0167 87.7598 9.66016 89.1163 9.66016 90.7898C9.66016 92.4632 11.0167 93.8198 12.6902 93.8198Z" fill="#DDDBDB"/>
<path d="M23.4695 93.8198C25.1429 93.8198 26.4995 92.4632 26.4995 90.7898C26.4995 89.1163 25.1429 87.7598 23.4695 87.7598C21.796 87.7598 20.4395 89.1163 20.4395 90.7898C20.4395 92.4632 21.796 93.8198 23.4695 93.8198Z" fill="#DDDBDB"/>
<path d="M34.2507 93.8198C35.9241 93.8198 37.2807 92.4632 37.2807 90.7898C37.2807 89.1163 35.9241 87.7598 34.2507 87.7598C32.5773 87.7598 31.2207 89.1163 31.2207 90.7898C31.2207 92.4632 32.5773 93.8198 34.2507 93.8198Z" fill="#DDDBDB"/>
<path d="M7.28977 100.67C8.96319 100.67 10.3198 99.3133 10.3198 97.6399C10.3198 95.9664 8.96319 94.6099 7.28977 94.6099C5.61634 94.6099 4.25977 95.9664 4.25977 97.6399C4.25977 99.3133 5.61634 100.67 7.28977 100.67Z" fill="#DDDBDB"/>
<path d="M18.0808 100.67C19.7542 100.67 21.1108 99.3133 21.1108 97.6399C21.1108 95.9664 19.7542 94.6099 18.0808 94.6099C16.4074 94.6099 15.0508 95.9664 15.0508 97.6399C15.0508 99.3133 16.4074 100.67 18.0808 100.67Z" fill="#DDDBDB"/>
<path d="M28.8601 100.67C30.5335 100.67 31.8901 99.3133 31.8901 97.6399C31.8901 95.9664 30.5335 94.6099 28.8601 94.6099C27.1867 94.6099 25.8301 95.9664 25.8301 97.6399C25.8301 99.3133 27.1867 100.67 28.8601 100.67Z" fill="#DDDBDB"/>
<path d="M39.6394 100.67C41.3128 100.67 42.6694 99.3133 42.6694 97.6399C42.6694 95.9664 41.3128 94.6099 39.6394 94.6099C37.966 94.6099 36.6094 95.9664 36.6094 97.6399C36.6094 99.3133 37.966 100.67 39.6394 100.67Z" fill="#DDDBDB"/>
<path d="M12.6902 107.82C14.3636 107.82 15.7202 106.463 15.7202 104.79C15.7202 103.116 14.3636 101.76 12.6902 101.76C11.0167 101.76 9.66016 103.116 9.66016 104.79C9.66016 106.463 11.0167 107.82 12.6902 107.82Z" fill="#DDDBDB"/>
<path d="M23.4695 107.82C25.1429 107.82 26.4995 106.463 26.4995 104.79C26.4995 103.116 25.1429 101.76 23.4695 101.76C21.796 101.76 20.4395 103.116 20.4395 104.79C20.4395 106.463 21.796 107.82 23.4695 107.82Z" fill="#DDDBDB"/>
<path d="M34.2507 107.82C35.9241 107.82 37.2807 106.463 37.2807 104.79C37.2807 103.116 35.9241 101.76 34.2507 101.76C32.5773 101.76 31.2207 103.116 31.2207 104.79C31.2207 106.463 32.5773 107.82 34.2507 107.82Z" fill="#DDDBDB"/>
<path d="M7.28977 114.67C8.96319 114.67 10.3198 113.313 10.3198 111.64C10.3198 109.966 8.96319 108.61 7.28977 108.61C5.61634 108.61 4.25977 109.966 4.25977 111.64C4.25977 113.313 5.61634 114.67 7.28977 114.67Z" fill="#DDDBDB"/>
<path d="M18.0808 114.67C19.7542 114.67 21.1108 113.313 21.1108 111.64C21.1108 109.966 19.7542 108.61 18.0808 108.61C16.4074 108.61 15.0508 109.966 15.0508 111.64C15.0508 113.313 16.4074 114.67 18.0808 114.67Z" fill="#DDDBDB"/>
<path d="M28.8601 114.67C30.5335 114.67 31.8901 113.313 31.8901 111.64C31.8901 109.966 30.5335 108.61 28.8601 108.61C27.1867 108.61 25.8301 109.966 25.8301 111.64C25.8301 113.313 27.1867 114.67 28.8601 114.67Z" fill="#DDDBDB"/>
<path d="M39.6394 114.67C41.3128 114.67 42.6694 113.313 42.6694 111.64C42.6694 109.966 41.3128 108.61 39.6394 108.61C37.966 108.61 36.6094 109.966 36.6094 111.64C36.6094 113.313 37.966 114.67 39.6394 114.67Z" fill="#DDDBDB"/>
<path d="M12.6902 121.82C14.3636 121.82 15.7202 120.463 15.7202 118.79C15.7202 117.116 14.3636 115.76 12.6902 115.76C11.0167 115.76 9.66016 117.116 9.66016 118.79C9.66016 120.463 11.0167 121.82 12.6902 121.82Z" fill="#DDDBDB"/>
<path d="M23.4695 121.82C25.1429 121.82 26.4995 120.463 26.4995 118.79C26.4995 117.116 25.1429 115.76 23.4695 115.76C21.796 115.76 20.4395 117.116 20.4395 118.79C20.4395 120.463 21.796 121.82 23.4695 121.82Z" fill="#DDDBDB"/>
<path d="M34.2507 121.82C35.9241 121.82 37.2807 120.463 37.2807 118.79C37.2807 117.116 35.9241 115.76 34.2507 115.76C32.5773 115.76 31.2207 117.116 31.2207 118.79C31.2207 120.463 32.5773 121.82 34.2507 121.82Z" fill="#DDDBDB"/>
<path d="M7.28977 128.67C8.96319 128.67 10.3198 127.313 10.3198 125.64C10.3198 123.966 8.96319 122.61 7.28977 122.61C5.61634 122.61 4.25977 123.966 4.25977 125.64C4.25977 127.313 5.61634 128.67 7.28977 128.67Z" fill="#DDDBDB"/>
<path d="M18.0808 128.67C19.7542 128.67 21.1108 127.313 21.1108 125.64C21.1108 123.966 19.7542 122.61 18.0808 122.61C16.4074 122.61 15.0508 123.966 15.0508 125.64C15.0508 127.313 16.4074 128.67 18.0808 128.67Z" fill="#DDDBDB"/>
<path d="M28.8601 128.67C30.5335 128.67 31.8901 127.313 31.8901 125.64C31.8901 123.966 30.5335 122.61 28.8601 122.61C27.1867 122.61 25.8301 123.966 25.8301 125.64C25.8301 127.313 27.1867 128.67 28.8601 128.67Z" fill="#DDDBDB"/>
<path d="M39.6394 128.67C41.3128 128.67 42.6694 127.313 42.6694 125.64C42.6694 123.966 41.3128 122.61 39.6394 122.61C37.966 122.61 36.6094 123.966 36.6094 125.64C36.6094 127.313 37.966 128.67 39.6394 128.67Z" fill="#DDDBDB"/>
<path d="M12.6902 135.81C14.3636 135.81 15.7202 134.453 15.7202 132.78C15.7202 131.107 14.3636 129.75 12.6902 129.75C11.0167 129.75 9.66016 131.107 9.66016 132.78C9.66016 134.453 11.0167 135.81 12.6902 135.81Z" fill="#DDDBDB"/>
<path d="M23.4695 135.81C25.1429 135.81 26.4995 134.453 26.4995 132.78C26.4995 131.107 25.1429 129.75 23.4695 129.75C21.796 129.75 20.4395 131.107 20.4395 132.78C20.4395 134.453 21.796 135.81 23.4695 135.81Z" fill="#DDDBDB"/>
<path d="M34.2507 135.81C35.9241 135.81 37.2807 134.453 37.2807 132.78C37.2807 131.107 35.9241 129.75 34.2507 129.75C32.5773 129.75 31.2207 131.107 31.2207 132.78C31.2207 134.453 32.5773 135.81 34.2507 135.81Z" fill="#DDDBDB"/>
<path d="M7.28977 142.66C8.96319 142.66 10.3198 141.304 10.3198 139.63C10.3198 137.957 8.96319 136.6 7.28977 136.6C5.61634 136.6 4.25977 137.957 4.25977 139.63C4.25977 141.304 5.61634 142.66 7.28977 142.66Z" fill="#DDDBDB"/>
<path d="M18.0808 142.66C19.7542 142.66 21.1108 141.304 21.1108 139.63C21.1108 137.957 19.7542 136.6 18.0808 136.6C16.4074 136.6 15.0508 137.957 15.0508 139.63C15.0508 141.304 16.4074 142.66 18.0808 142.66Z" fill="#DDDBDB"/>
<path d="M28.8601 142.66C30.5335 142.66 31.8901 141.304 31.8901 139.63C31.8901 137.957 30.5335 136.6 28.8601 136.6C27.1867 136.6 25.8301 137.957 25.8301 139.63C25.8301 141.304 27.1867 142.66 28.8601 142.66Z" fill="#DDDBDB"/>
<path d="M39.6394 142.66C41.3128 142.66 42.6694 141.304 42.6694 139.63C42.6694 137.957 41.3128 136.6 39.6394 136.6C37.966 136.6 36.6094 137.957 36.6094 139.63C36.6094 141.304 37.966 142.66 39.6394 142.66Z" fill="#DDDBDB"/>
<path d="M12.6902 149.81C14.3636 149.81 15.7202 148.453 15.7202 146.78C15.7202 145.107 14.3636 143.75 12.6902 143.75C11.0167 143.75 9.66016 145.107 9.66016 146.78C9.66016 148.453 11.0167 149.81 12.6902 149.81Z" fill="#DDDBDB"/>
<path d="M23.4695 149.81C25.1429 149.81 26.4995 148.453 26.4995 146.78C26.4995 145.107 25.1429 143.75 23.4695 143.75C21.796 143.75 20.4395 145.107 20.4395 146.78C20.4395 148.453 21.796 149.81 23.4695 149.81Z" fill="#DDDBDB"/>
<path d="M34.2507 149.81C35.9241 149.81 37.2807 148.453 37.2807 146.78C37.2807 145.107 35.9241 143.75 34.2507 143.75C32.5773 143.75 31.2207 145.107 31.2207 146.78C31.2207 148.453 32.5773 149.81 34.2507 149.81Z" fill="#DDDBDB"/>
<path d="M7.28977 156.66C8.96319 156.66 10.3198 155.304 10.3198 153.63C10.3198 151.957 8.96319 150.6 7.28977 150.6C5.61634 150.6 4.25977 151.957 4.25977 153.63C4.25977 155.304 5.61634 156.66 7.28977 156.66Z" fill="#DDDBDB"/>
<path d="M18.0808 156.66C19.7542 156.66 21.1108 155.304 21.1108 153.63C21.1108 151.957 19.7542 150.6 18.0808 150.6C16.4074 150.6 15.0508 151.957 15.0508 153.63C15.0508 155.304 16.4074 156.66 18.0808 156.66Z" fill="#DDDBDB"/>
<path d="M28.8601 156.66C30.5335 156.66 31.8901 155.304 31.8901 153.63C31.8901 151.957 30.5335 150.6 28.8601 150.6C27.1867 150.6 25.8301 151.957 25.8301 153.63C25.8301 155.304 27.1867 156.66 28.8601 156.66Z" fill="#DDDBDB"/>
<path d="M39.6394 156.66C41.3128 156.66 42.6694 155.304 42.6694 153.63C42.6694 151.957 41.3128 150.6 39.6394 150.6C37.966 150.6 36.6094 151.957 36.6094 153.63C36.6094 155.304 37.966 156.66 39.6394 156.66Z" fill="#DDDBDB"/>
<path d="M12.6902 163.81C14.3636 163.81 15.7202 162.453 15.7202 160.78C15.7202 159.107 14.3636 157.75 12.6902 157.75C11.0167 157.75 9.66016 159.107 9.66016 160.78C9.66016 162.453 11.0167 163.81 12.6902 163.81Z" fill="#DDDBDB"/>
<path d="M23.4695 163.81C25.1429 163.81 26.4995 162.453 26.4995 160.78C26.4995 159.107 25.1429 157.75 23.4695 157.75C21.796 157.75 20.4395 159.107 20.4395 160.78C20.4395 162.453 21.796 163.81 23.4695 163.81Z" fill="#DDDBDB"/>
<path d="M34.2507 163.81C35.9241 163.81 37.2807 162.453 37.2807 160.78C37.2807 159.107 35.9241 157.75 34.2507 157.75C32.5773 157.75 31.2207 159.107 31.2207 160.78C31.2207 162.453 32.5773 163.81 34.2507 163.81Z" fill="#DDDBDB"/>
<path d="M7.28977 170.66C8.96319 170.66 10.3198 169.304 10.3198 167.63C10.3198 165.957 8.96319 164.6 7.28977 164.6C5.61634 164.6 4.25977 165.957 4.25977 167.63C4.25977 169.304 5.61634 170.66 7.28977 170.66Z" fill="#DDDBDB"/>
<path d="M18.0808 170.66C19.7542 170.66 21.1108 169.304 21.1108 167.63C21.1108 165.957 19.7542 164.6 18.0808 164.6C16.4074 164.6 15.0508 165.957 15.0508 167.63C15.0508 169.304 16.4074 170.66 18.0808 170.66Z" fill="#DDDBDB"/>
<path d="M28.8601 170.66C30.5335 170.66 31.8901 169.304 31.8901 167.63C31.8901 165.957 30.5335 164.6 28.8601 164.6C27.1867 164.6 25.8301 165.957 25.8301 167.63C25.8301 169.304 27.1867 170.66 28.8601 170.66Z" fill="#DDDBDB"/>
<path d="M39.6394 170.66C41.3128 170.66 42.6694 169.304 42.6694 167.63C42.6694 165.957 41.3128 164.6 39.6394 164.6C37.966 164.6 36.6094 165.957 36.6094 167.63C36.6094 169.304 37.966 170.66 39.6394 170.66Z" fill="#DDDBDB"/>
<path d="M57.4109 44.6801C59.0843 44.6801 60.4409 43.3235 60.4409 41.6501C60.4409 39.9767 59.0843 38.6201 57.4109 38.6201C55.7374 38.6201 54.3809 39.9767 54.3809 41.6501C54.3809 43.3235 55.7374 44.6801 57.4109 44.6801Z" fill="#DDDBDB"/>
<path d="M73.5905 51.83C75.264 51.83 76.6206 50.4734 76.6206 48.8C76.6206 47.1266 75.264 45.77 73.5905 45.77C71.9171 45.77 70.5605 47.1266 70.5605 48.8C70.5605 50.4734 71.9171 51.83 73.5905 51.83Z" fill="#DDDBDB"/>
<path d="M84.3699 51.83C86.0433 51.83 87.3998 50.4734 87.3998 48.8C87.3998 47.1266 86.0433 45.77 84.3699 45.77C82.6964 45.77 81.3398 47.1266 81.3398 48.8C81.3398 50.4734 82.6964 51.83 84.3699 51.83Z" fill="#DDDBDB"/>
<path d="M95.1491 51.83C96.8226 51.83 98.1791 50.4734 98.1791 48.8C98.1791 47.1266 96.8226 45.77 95.1491 45.77C93.4757 45.77 92.1191 47.1266 92.1191 48.8C92.1191 50.4734 93.4757 51.83 95.1491 51.83Z" fill="#DDDBDB"/>
<path d="M105.94 51.83C107.614 51.83 108.97 50.4734 108.97 48.8C108.97 47.1266 107.614 45.77 105.94 45.77C104.267 45.77 102.91 47.1266 102.91 48.8C102.91 50.4734 104.267 51.83 105.94 51.83Z" fill="#DDDBDB"/>
<path d="M116.719 51.83C118.393 51.83 119.749 50.4734 119.749 48.8C119.749 47.1266 118.393 45.77 116.719 45.77C115.046 45.77 113.689 47.1266 113.689 48.8C113.689 50.4734 115.046 51.83 116.719 51.83Z" fill="#DDDBDB"/>
<path d="M127.501 51.83C129.174 51.83 130.531 50.4734 130.531 48.8C130.531 47.1266 129.174 45.77 127.501 45.77C125.827 45.77 124.471 47.1266 124.471 48.8C124.471 50.4734 125.827 51.83 127.501 51.83Z" fill="#DDDBDB"/>
<path d="M138.28 51.83C139.953 51.83 141.31 50.4734 141.31 48.8C141.31 47.1266 139.953 45.77 138.28 45.77C136.607 45.77 135.25 47.1266 135.25 48.8C135.25 50.4734 136.607 51.83 138.28 51.83Z" fill="#DDDBDB"/>
<path d="M149.069 51.83C150.742 51.83 152.099 50.4734 152.099 48.8C152.099 47.1266 150.742 45.77 149.069 45.77C147.396 45.77 146.039 47.1266 146.039 48.8C146.039 50.4734 147.396 51.83 149.069 51.83Z" fill="#DDDBDB"/>
<path d="M78.9792 58.6801C80.6526 58.6801 82.0092 57.3235 82.0092 55.6501C82.0092 53.9767 80.6526 52.6201 78.9792 52.6201C77.3058 52.6201 75.9492 53.9767 75.9492 55.6501C75.9492 57.3235 77.3058 58.6801 78.9792 58.6801Z" fill="#DDDBDB"/>
<path d="M89.7605 58.6801C91.4339 58.6801 92.7905 57.3235 92.7905 55.6501C92.7905 53.9767 91.4339 52.6201 89.7605 52.6201C88.087 52.6201 86.7305 53.9767 86.7305 55.6501C86.7305 57.3235 88.087 58.6801 89.7605 58.6801Z" fill="#DDDBDB"/>
<path d="M100.54 58.6801C102.213 58.6801 103.57 57.3235 103.57 55.6501C103.57 53.9767 102.213 52.6201 100.54 52.6201C98.8663 52.6201 97.5098 53.9767 97.5098 55.6501C97.5098 57.3235 98.8663 58.6801 100.54 58.6801Z" fill="#DDDBDB"/>
<path d="M111.331 58.6801C113.004 58.6801 114.361 57.3235 114.361 55.6501C114.361 53.9767 113.004 52.6201 111.331 52.6201C109.657 52.6201 108.301 53.9767 108.301 55.6501C108.301 57.3235 109.657 58.6801 111.331 58.6801Z" fill="#DDDBDB"/>
<path d="M122.11 58.6801C123.783 58.6801 125.14 57.3235 125.14 55.6501C125.14 53.9767 123.783 52.6201 122.11 52.6201C120.437 52.6201 119.08 53.9767 119.08 55.6501C119.08 57.3235 120.437 58.6801 122.11 58.6801Z" fill="#DDDBDB"/>
<path d="M132.889 58.6801C134.563 58.6801 135.919 57.3235 135.919 55.6501C135.919 53.9767 134.563 52.6201 132.889 52.6201C131.216 52.6201 129.859 53.9767 129.859 55.6501C129.859 57.3235 131.216 58.6801 132.889 58.6801Z" fill="#DDDBDB"/>
<path d="M143.671 58.6801C145.344 58.6801 146.701 57.3235 146.701 55.6501C146.701 53.9767 145.344 52.6201 143.671 52.6201C141.997 52.6201 140.641 53.9767 140.641 55.6501C140.641 57.3235 141.997 58.6801 143.671 58.6801Z" fill="#DDDBDB"/>
<path d="M154.46 58.6801C156.133 58.6801 157.49 57.3235 157.49 55.6501C157.49 53.9767 156.133 52.6201 154.46 52.6201C152.786 52.6201 151.43 53.9767 151.43 55.6501C151.43 57.3235 152.786 58.6801 154.46 58.6801Z" fill="#DDDBDB"/>
<path d="M73.5905 65.83C75.264 65.83 76.6206 64.4734 76.6206 62.8C76.6206 61.1266 75.264 59.77 73.5905 59.77C71.9171 59.77 70.5605 61.1266 70.5605 62.8C70.5605 64.4734 71.9171 65.83 73.5905 65.83Z" fill="#DDDBDB"/>
<path d="M84.3699 65.83C86.0433 65.83 87.3998 64.4734 87.3998 62.8C87.3998 61.1266 86.0433 59.77 84.3699 59.77C82.6964 59.77 81.3398 61.1266 81.3398 62.8C81.3398 64.4734 82.6964 65.83 84.3699 65.83Z" fill="#DDDBDB"/>
<path d="M63.1394 51.83C64.8128 51.83 66.1694 50.4734 66.1694 48.8C66.1694 47.1266 64.8128 45.77 63.1394 45.77C61.466 45.77 60.1094 47.1266 60.1094 48.8C60.1094 50.4734 61.466 51.83 63.1394 51.83Z" fill="#DDDBDB"/>
<path d="M57.7507 58.6801C59.4241 58.6801 60.7807 57.3235 60.7807 55.6501C60.7807 53.9767 59.4241 52.6201 57.7507 52.6201C56.0773 52.6201 54.7207 53.9767 54.7207 55.6501C54.7207 57.3235 56.0773 58.6801 57.7507 58.6801Z" fill="#DDDBDB"/>
<path d="M68.5398 58.6801C70.2132 58.6801 71.5698 57.3235 71.5698 55.6501C71.5698 53.9767 70.2132 52.6201 68.5398 52.6201C66.8663 52.6201 65.5098 53.9767 65.5098 55.6501C65.5098 57.3235 66.8663 58.6801 68.5398 58.6801Z" fill="#DDDBDB"/>
<path d="M63.1394 65.83C64.8128 65.83 66.1694 64.4734 66.1694 62.8C66.1694 61.1266 64.8128 59.77 63.1394 59.77C61.466 59.77 60.1094 61.1266 60.1094 62.8C60.1094 64.4734 61.466 65.83 63.1394 65.83Z" fill="#DDDBDB"/>
<path d="M95.1491 65.83C96.8226 65.83 98.1791 64.4734 98.1791 62.8C98.1791 61.1266 96.8226 59.77 95.1491 59.77C93.4757 59.77 92.1191 61.1266 92.1191 62.8C92.1191 64.4734 93.4757 65.83 95.1491 65.83Z" fill="#DDDBDB"/>
<path d="M105.94 65.83C107.614 65.83 108.97 64.4734 108.97 62.8C108.97 61.1266 107.614 59.77 105.94 59.77C104.267 59.77 102.91 61.1266 102.91 62.8C102.91 64.4734 104.267 65.83 105.94 65.83Z" fill="#DDDBDB"/>
<path d="M116.719 65.83C118.393 65.83 119.749 64.4734 119.749 62.8C119.749 61.1266 118.393 59.77 116.719 59.77C115.046 59.77 113.689 61.1266 113.689 62.8C113.689 64.4734 115.046 65.83 116.719 65.83Z" fill="#DDDBDB"/>
<path d="M127.501 65.83C129.174 65.83 130.531 64.4734 130.531 62.8C130.531 61.1266 129.174 59.77 127.501 59.77C125.827 59.77 124.471 61.1266 124.471 62.8C124.471 64.4734 125.827 65.83 127.501 65.83Z" fill="#DDDBDB"/>
<path d="M138.28 65.83C139.953 65.83 141.31 64.4734 141.31 62.8C141.31 61.1266 139.953 59.77 138.28 59.77C136.607 59.77 135.25 61.1266 135.25 62.8C135.25 64.4734 136.607 65.83 138.28 65.83Z" fill="#DDDBDB"/>
<path d="M149.069 65.83C150.742 65.83 152.099 64.4734 152.099 62.8C152.099 61.1266 150.742 59.77 149.069 59.77C147.396 59.77 146.039 61.1266 146.039 62.8C146.039 64.4734 147.396 65.83 149.069 65.83Z" fill="#DDDBDB"/>
<path d="M57.4109 72.6801C59.0843 72.6801 60.4409 71.3235 60.4409 69.6501C60.4409 67.9767 59.0843 66.6201 57.4109 66.6201C55.7374 66.6201 54.3809 67.9767 54.3809 69.6501C54.3809 71.3235 55.7374 72.6801 57.4109 72.6801Z" fill="#DDDBDB"/>
<path d="M68.1999 72.6801C69.8733 72.6801 71.2299 71.3235 71.2299 69.6501C71.2299 67.9767 69.8733 66.6201 68.1999 66.6201C66.5265 66.6201 65.1699 67.9767 65.1699 69.6501C65.1699 71.3235 66.5265 72.6801 68.1999 72.6801Z" fill="#DDDBDB"/>
<path d="M78.9792 72.6801C80.6526 72.6801 82.0092 71.3235 82.0092 69.6501C82.0092 67.9767 80.6526 66.6201 78.9792 66.6201C77.3058 66.6201 75.9492 67.9767 75.9492 69.6501C75.9492 71.3235 77.3058 72.6801 78.9792 72.6801Z" fill="#DDDBDB"/>
<path d="M89.7605 72.6801C91.4339 72.6801 92.7905 71.3235 92.7905 69.6501C92.7905 67.9767 91.4339 66.6201 89.7605 66.6201C88.087 66.6201 86.7305 67.9767 86.7305 69.6501C86.7305 71.3235 88.087 72.6801 89.7605 72.6801Z" fill="#DDDBDB"/>
<path d="M100.54 72.6801C102.213 72.6801 103.57 71.3235 103.57 69.6501C103.57 67.9767 102.213 66.6201 100.54 66.6201C98.8663 66.6201 97.5098 67.9767 97.5098 69.6501C97.5098 71.3235 98.8663 72.6801 100.54 72.6801Z" fill="#DDDBDB"/>
<path d="M111.331 72.6801C113.004 72.6801 114.361 71.3235 114.361 69.6501C114.361 67.9767 113.004 66.6201 111.331 66.6201C109.657 66.6201 108.301 67.9767 108.301 69.6501C108.301 71.3235 109.657 72.6801 111.331 72.6801Z" fill="#DDDBDB"/>
<path d="M122.11 72.6801C123.783 72.6801 125.14 71.3235 125.14 69.6501C125.14 67.9767 123.783 66.6201 122.11 66.6201C120.437 66.6201 119.08 67.9767 119.08 69.6501C119.08 71.3235 120.437 72.6801 122.11 72.6801Z" fill="#DDDBDB"/>
<path d="M132.889 72.6801C134.563 72.6801 135.919 71.3235 135.919 69.6501C135.919 67.9767 134.563 66.6201 132.889 66.6201C131.216 66.6201 129.859 67.9767 129.859 69.6501C129.859 71.3235 131.216 72.6801 132.889 72.6801Z" fill="#DDDBDB"/>
<path d="M143.671 72.6801C145.344 72.6801 146.701 71.3235 146.701 69.6501C146.701 67.9767 145.344 66.6201 143.671 66.6201C141.997 66.6201 140.641 67.9767 140.641 69.6501C140.641 71.3235 141.997 72.6801 143.671 72.6801Z" fill="#DDDBDB"/>
<path d="M154.46 72.6801C156.133 72.6801 157.49 71.3235 157.49 69.6501C157.49 67.9767 156.133 66.6201 154.46 66.6201C152.786 66.6201 151.43 67.9767 151.43 69.6501C151.43 71.3235 152.786 72.6801 154.46 72.6801Z" fill="#DDDBDB"/>
<path d="M62.8093 79.83C64.4827 79.83 65.8393 78.4734 65.8393 76.8C65.8393 75.1266 64.4827 73.77 62.8093 73.77C61.1359 73.77 59.7793 75.1266 59.7793 76.8C59.7793 78.4734 61.1359 79.83 62.8093 79.83Z" fill="#DDDBDB"/>
<path d="M73.5905 79.83C75.264 79.83 76.6206 78.4734 76.6206 76.8C76.6206 75.1266 75.264 73.77 73.5905 73.77C71.9171 73.77 70.5605 75.1266 70.5605 76.8C70.5605 78.4734 71.9171 79.83 73.5905 79.83Z" fill="#DDDBDB"/>
<path d="M84.3699 79.83C86.0433 79.83 87.3998 78.4734 87.3998 76.8C87.3998 75.1266 86.0433 73.77 84.3699 73.77C82.6964 73.77 81.3398 75.1266 81.3398 76.8C81.3398 78.4734 82.6964 79.83 84.3699 79.83Z" fill="#DDDBDB"/>
<path d="M95.1491 79.83C96.8226 79.83 98.1791 78.4734 98.1791 76.8C98.1791 75.1266 96.8226 73.77 95.1491 73.77C93.4757 73.77 92.1191 75.1266 92.1191 76.8C92.1191 78.4734 93.4757 79.83 95.1491 79.83Z" fill="#DDDBDB"/>
<path d="M105.94 79.83C107.614 79.83 108.97 78.4734 108.97 76.8C108.97 75.1266 107.614 73.77 105.94 73.77C104.267 73.77 102.91 75.1266 102.91 76.8C102.91 78.4734 104.267 79.83 105.94 79.83Z" fill="#DDDBDB"/>
<path d="M116.719 79.83C118.393 79.83 119.749 78.4734 119.749 76.8C119.749 75.1266 118.393 73.77 116.719 73.77C115.046 73.77 113.689 75.1266 113.689 76.8C113.689 78.4734 115.046 79.83 116.719 79.83Z" fill="#DDDBDB"/>
<path d="M127.501 79.83C129.174 79.83 130.531 78.4734 130.531 76.8C130.531 75.1266 129.174 73.77 127.501 73.77C125.827 73.77 124.471 75.1266 124.471 76.8C124.471 78.4734 125.827 79.83 127.501 79.83Z" fill="#DDDBDB"/>
<path d="M138.28 79.83C139.953 79.83 141.31 78.4734 141.31 76.8C141.31 75.1266 139.953 73.77 138.28 73.77C136.607 73.77 135.25 75.1266 135.25 76.8C135.25 78.4734 136.607 79.83 138.28 79.83Z" fill="#DDDBDB"/>
<path d="M149.069 79.83C150.742 79.83 152.099 78.4734 152.099 76.8C152.099 75.1266 150.742 73.77 149.069 73.77C147.396 73.77 146.039 75.1266 146.039 76.8C146.039 78.4734 147.396 79.83 149.069 79.83Z" fill="#DDDBDB"/>
<path d="M57.4109 86.6699C59.0843 86.6699 60.4409 85.3133 60.4409 83.6399C60.4409 81.9664 59.0843 80.6099 57.4109 80.6099C55.7374 80.6099 54.3809 81.9664 54.3809 83.6399C54.3809 85.3133 55.7374 86.6699 57.4109 86.6699Z" fill="#DDDBDB"/>
<path d="M68.1999 86.6699C69.8733 86.6699 71.2299 85.3133 71.2299 83.6399C71.2299 81.9664 69.8733 80.6099 68.1999 80.6099C66.5265 80.6099 65.1699 81.9664 65.1699 83.6399C65.1699 85.3133 66.5265 86.6699 68.1999 86.6699Z" fill="#DDDBDB"/>
<path d="M78.9792 86.6699C80.6526 86.6699 82.0092 85.3133 82.0092 83.6399C82.0092 81.9664 80.6526 80.6099 78.9792 80.6099C77.3058 80.6099 75.9492 81.9664 75.9492 83.6399C75.9492 85.3133 77.3058 86.6699 78.9792 86.6699Z" fill="#DDDBDB"/>
<path d="M89.7605 86.6699C91.4339 86.6699 92.7905 85.3133 92.7905 83.6399C92.7905 81.9664 91.4339 80.6099 89.7605 80.6099C88.087 80.6099 86.7305 81.9664 86.7305 83.6399C86.7305 85.3133 88.087 86.6699 89.7605 86.6699Z" fill="#DDDBDB"/>
<path d="M100.54 86.6699C102.213 86.6699 103.57 85.3133 103.57 83.6399C103.57 81.9664 102.213 80.6099 100.54 80.6099C98.8663 80.6099 97.5098 81.9664 97.5098 83.6399C97.5098 85.3133 98.8663 86.6699 100.54 86.6699Z" fill="#DDDBDB"/>
<path d="M111.331 86.6699C113.004 86.6699 114.361 85.3133 114.361 83.6399C114.361 81.9664 113.004 80.6099 111.331 80.6099C109.657 80.6099 108.301 81.9664 108.301 83.6399C108.301 85.3133 109.657 86.6699 111.331 86.6699Z" fill="#DDDBDB"/>
<path d="M122.11 86.6699C123.783 86.6699 125.14 85.3133 125.14 83.6399C125.14 81.9664 123.783 80.6099 122.11 80.6099C120.437 80.6099 119.08 81.9664 119.08 83.6399C119.08 85.3133 120.437 86.6699 122.11 86.6699Z" fill="#DDDBDB"/>
<path d="M132.889 86.6699C134.563 86.6699 135.919 85.3133 135.919 83.6399C135.919 81.9664 134.563 80.6099 132.889 80.6099C131.216 80.6099 129.859 81.9664 129.859 83.6399C129.859 85.3133 131.216 86.6699 132.889 86.6699Z" fill="#DDDBDB"/>
<path d="M143.671 86.6699C145.344 86.6699 146.701 85.3133 146.701 83.6399C146.701 81.9664 145.344 80.6099 143.671 80.6099C141.997 80.6099 140.641 81.9664 140.641 83.6399C140.641 85.3133 141.997 86.6699 143.671 86.6699Z" fill="#DDDBDB"/>
<path d="M154.46 86.6699C156.133 86.6699 157.49 85.3133 157.49 83.6399C157.49 81.9664 156.133 80.6099 154.46 80.6099C152.786 80.6099 151.43 81.9664 151.43 83.6399C151.43 85.3133 152.786 86.6699 154.46 86.6699Z" fill="#DDDBDB"/>
<path d="M62.8093 93.8198C64.4827 93.8198 65.8393 92.4632 65.8393 90.7898C65.8393 89.1163 64.4827 87.7598 62.8093 87.7598C61.1359 87.7598 59.7793 89.1163 59.7793 90.7898C59.7793 92.4632 61.1359 93.8198 62.8093 93.8198Z" fill="#DDDBDB"/>
<path d="M73.5905 93.8198C75.264 93.8198 76.6206 92.4632 76.6206 90.7898C76.6206 89.1163 75.264 87.7598 73.5905 87.7598C71.9171 87.7598 70.5605 89.1163 70.5605 90.7898C70.5605 92.4632 71.9171 93.8198 73.5905 93.8198Z" fill="#DDDBDB"/>
<path d="M84.3699 93.8198C86.0433 93.8198 87.3998 92.4632 87.3998 90.7898C87.3998 89.1163 86.0433 87.7598 84.3699 87.7598C82.6964 87.7598 81.3398 89.1163 81.3398 90.7898C81.3398 92.4632 82.6964 93.8198 84.3699 93.8198Z" fill="#DDDBDB"/>
<path d="M95.1491 93.8198C96.8226 93.8198 98.1791 92.4632 98.1791 90.7898C98.1791 89.1163 96.8226 87.7598 95.1491 87.7598C93.4757 87.7598 92.1191 89.1163 92.1191 90.7898C92.1191 92.4632 93.4757 93.8198 95.1491 93.8198Z" fill="#DDDBDB"/>
<path d="M105.94 93.8198C107.614 93.8198 108.97 92.4632 108.97 90.7898C108.97 89.1163 107.614 87.7598 105.94 87.7598C104.267 87.7598 102.91 89.1163 102.91 90.7898C102.91 92.4632 104.267 93.8198 105.94 93.8198Z" fill="#DDDBDB"/>
<path d="M116.719 93.8198C118.393 93.8198 119.749 92.4632 119.749 90.7898C119.749 89.1163 118.393 87.7598 116.719 87.7598C115.046 87.7598 113.689 89.1163 113.689 90.7898C113.689 92.4632 115.046 93.8198 116.719 93.8198Z" fill="#DDDBDB"/>
<path d="M127.501 93.8198C129.174 93.8198 130.531 92.4632 130.531 90.7898C130.531 89.1163 129.174 87.7598 127.501 87.7598C125.827 87.7598 124.471 89.1163 124.471 90.7898C124.471 92.4632 125.827 93.8198 127.501 93.8198Z" fill="#DDDBDB"/>
<path d="M138.28 93.8198C139.953 93.8198 141.31 92.4632 141.31 90.7898C141.31 89.1163 139.953 87.7598 138.28 87.7598C136.607 87.7598 135.25 89.1163 135.25 90.7898C135.25 92.4632 136.607 93.8198 138.28 93.8198Z" fill="#DDDBDB"/>
<path d="M149.069 93.8198C150.742 93.8198 152.099 92.4632 152.099 90.7898C152.099 89.1163 150.742 87.7598 149.069 87.7598C147.396 87.7598 146.039 89.1163 146.039 90.7898C146.039 92.4632 147.396 93.8198 149.069 93.8198Z" fill="#DDDBDB"/>
<path d="M57.4109 100.67C59.0843 100.67 60.4409 99.3133 60.4409 97.6399C60.4409 95.9664 59.0843 94.6099 57.4109 94.6099C55.7374 94.6099 54.3809 95.9664 54.3809 97.6399C54.3809 99.3133 55.7374 100.67 57.4109 100.67Z" fill="#DDDBDB"/>
<path d="M68.1999 100.67C69.8733 100.67 71.2299 99.3133 71.2299 97.6399C71.2299 95.9664 69.8733 94.6099 68.1999 94.6099C66.5265 94.6099 65.1699 95.9664 65.1699 97.6399C65.1699 99.3133 66.5265 100.67 68.1999 100.67Z" fill="#DDDBDB"/>
<path d="M78.9792 100.67C80.6526 100.67 82.0092 99.3133 82.0092 97.6399C82.0092 95.9664 80.6526 94.6099 78.9792 94.6099C77.3058 94.6099 75.9492 95.9664 75.9492 97.6399C75.9492 99.3133 77.3058 100.67 78.9792 100.67Z" fill="#DDDBDB"/>
<path d="M89.7605 100.67C91.4339 100.67 92.7905 99.3133 92.7905 97.6399C92.7905 95.9664 91.4339 94.6099 89.7605 94.6099C88.087 94.6099 86.7305 95.9664 86.7305 97.6399C86.7305 99.3133 88.087 100.67 89.7605 100.67Z" fill="#DDDBDB"/>
<path d="M100.54 100.67C102.213 100.67 103.57 99.3133 103.57 97.6399C103.57 95.9664 102.213 94.6099 100.54 94.6099C98.8663 94.6099 97.5098 95.9664 97.5098 97.6399C97.5098 99.3133 98.8663 100.67 100.54 100.67Z" fill="#DDDBDB"/>
<path d="M111.331 100.67C113.004 100.67 114.361 99.3133 114.361 97.6399C114.361 95.9664 113.004 94.6099 111.331 94.6099C109.657 94.6099 108.301 95.9664 108.301 97.6399C108.301 99.3133 109.657 100.67 111.331 100.67Z" fill="#DDDBDB"/>
<path d="M122.11 100.67C123.783 100.67 125.14 99.3133 125.14 97.6399C125.14 95.9664 123.783 94.6099 122.11 94.6099C120.437 94.6099 119.08 95.9664 119.08 97.6399C119.08 99.3133 120.437 100.67 122.11 100.67Z" fill="#DDDBDB"/>
<path d="M132.889 100.67C134.563 100.67 135.919 99.3133 135.919 97.6399C135.919 95.9664 134.563 94.6099 132.889 94.6099C131.216 94.6099 129.859 95.9664 129.859 97.6399C129.859 99.3133 131.216 100.67 132.889 100.67Z" fill="#DDDBDB"/>
<path d="M143.671 100.67C145.344 100.67 146.701 99.3133 146.701 97.6399C146.701 95.9664 145.344 94.6099 143.671 94.6099C141.997 94.6099 140.641 95.9664 140.641 97.6399C140.641 99.3133 141.997 100.67 143.671 100.67Z" fill="#DDDBDB"/>
<path d="M154.46 100.67C156.133 100.67 157.49 99.3133 157.49 97.6399C157.49 95.9664 156.133 94.6099 154.46 94.6099C152.786 94.6099 151.43 95.9664 151.43 97.6399C151.43 99.3133 152.786 100.67 154.46 100.67Z" fill="#DDDBDB"/>
<path d="M73.5905 107.82C75.264 107.82 76.6206 106.463 76.6206 104.79C76.6206 103.116 75.264 101.76 73.5905 101.76C71.9171 101.76 70.5605 103.116 70.5605 104.79C70.5605 106.463 71.9171 107.82 73.5905 107.82Z" fill="#DDDBDB"/>
<path d="M84.3699 107.82C86.0433 107.82 87.3998 106.463 87.3998 104.79C87.3998 103.116 86.0433 101.76 84.3699 101.76C82.6964 101.76 81.3398 103.116 81.3398 104.79C81.3398 106.463 82.6964 107.82 84.3699 107.82Z" fill="#DDDBDB"/>
<path d="M95.1491 107.82C96.8226 107.82 98.1791 106.463 98.1791 104.79C98.1791 103.116 96.8226 101.76 95.1491 101.76C93.4757 101.76 92.1191 103.116 92.1191 104.79C92.1191 106.463 93.4757 107.82 95.1491 107.82Z" fill="#DDDBDB"/>
<path d="M105.94 107.82C107.614 107.82 108.97 106.463 108.97 104.79C108.97 103.116 107.614 101.76 105.94 101.76C104.267 101.76 102.91 103.116 102.91 104.79C102.91 106.463 104.267 107.82 105.94 107.82Z" fill="#DDDBDB"/>
<path d="M116.719 107.82C118.393 107.82 119.749 106.463 119.749 104.79C119.749 103.116 118.393 101.76 116.719 101.76C115.046 101.76 113.689 103.116 113.689 104.79C113.689 106.463 115.046 107.82 116.719 107.82Z" fill="#DDDBDB"/>
<path d="M127.501 107.82C129.174 107.82 130.531 106.463 130.531 104.79C130.531 103.116 129.174 101.76 127.501 101.76C125.827 101.76 124.471 103.116 124.471 104.79C124.471 106.463 125.827 107.82 127.501 107.82Z" fill="#DDDBDB"/>
<path d="M138.28 107.82C139.953 107.82 141.31 106.463 141.31 104.79C141.31 103.116 139.953 101.76 138.28 101.76C136.607 101.76 135.25 103.116 135.25 104.79C135.25 106.463 136.607 107.82 138.28 107.82Z" fill="#DDDBDB"/>
<path d="M149.069 107.82C150.742 107.82 152.099 106.463 152.099 104.79C152.099 103.116 150.742 101.76 149.069 101.76C147.396 101.76 146.039 103.116 146.039 104.79C146.039 106.463 147.396 107.82 149.069 107.82Z" fill="#DDDBDB"/>
<path d="M78.9792 114.67C80.6526 114.67 82.0092 113.313 82.0092 111.64C82.0092 109.966 80.6526 108.61 78.9792 108.61C77.3058 108.61 75.9492 109.966 75.9492 111.64C75.9492 113.313 77.3058 114.67 78.9792 114.67Z" fill="#DDDBDB"/>
<path d="M89.7605 114.67C91.4339 114.67 92.7905 113.313 92.7905 111.64C92.7905 109.966 91.4339 108.61 89.7605 108.61C88.087 108.61 86.7305 109.966 86.7305 111.64C86.7305 113.313 88.087 114.67 89.7605 114.67Z" fill="#DDDBDB"/>
<path d="M100.54 114.67C102.213 114.67 103.57 113.313 103.57 111.64C103.57 109.966 102.213 108.61 100.54 108.61C98.8663 108.61 97.5098 109.966 97.5098 111.64C97.5098 113.313 98.8663 114.67 100.54 114.67Z" fill="#DDDBDB"/>
<path d="M111.331 114.67C113.004 114.67 114.361 113.313 114.361 111.64C114.361 109.966 113.004 108.61 111.331 108.61C109.657 108.61 108.301 109.966 108.301 111.64C108.301 113.313 109.657 114.67 111.331 114.67Z" fill="#DDDBDB"/>
<path d="M122.11 114.67C123.783 114.67 125.14 113.313 125.14 111.64C125.14 109.966 123.783 108.61 122.11 108.61C120.437 108.61 119.08 109.966 119.08 111.64C119.08 113.313 120.437 114.67 122.11 114.67Z" fill="#DDDBDB"/>
<path d="M132.889 114.67C134.563 114.67 135.919 113.313 135.919 111.64C135.919 109.966 134.563 108.61 132.889 108.61C131.216 108.61 129.859 109.966 129.859 111.64C129.859 113.313 131.216 114.67 132.889 114.67Z" fill="#DDDBDB"/>
<path d="M143.671 114.67C145.344 114.67 146.701 113.313 146.701 111.64C146.701 109.966 145.344 108.61 143.671 108.61C141.997 108.61 140.641 109.966 140.641 111.64C140.641 113.313 141.997 114.67 143.671 114.67Z" fill="#DDDBDB"/>
<path d="M154.46 114.67C156.133 114.67 157.49 113.313 157.49 111.64C157.49 109.966 156.133 108.61 154.46 108.61C152.786 108.61 151.43 109.966 151.43 111.64C151.43 113.313 152.786 114.67 154.46 114.67Z" fill="#DDDBDB"/>
<path d="M73.5905 121.82C75.264 121.82 76.6206 120.463 76.6206 118.79C76.6206 117.116 75.264 115.76 73.5905 115.76C71.9171 115.76 70.5605 117.116 70.5605 118.79C70.5605 120.463 71.9171 121.82 73.5905 121.82Z" fill="#DDDBDB"/>
<path d="M84.3699 121.82C86.0433 121.82 87.3998 120.463 87.3998 118.79C87.3998 117.116 86.0433 115.76 84.3699 115.76C82.6964 115.76 81.3398 117.116 81.3398 118.79C81.3398 120.463 82.6964 121.82 84.3699 121.82Z" fill="#DDDBDB"/>
<path d="M62.8093 107.82C64.4827 107.82 65.8393 106.463 65.8393 104.79C65.8393 103.116 64.4827 101.76 62.8093 101.76C61.1359 101.76 59.7793 103.116 59.7793 104.79C59.7793 106.463 61.1359 107.82 62.8093 107.82Z" fill="#DDDBDB"/>
<path d="M57.4109 114.67C59.0843 114.67 60.4409 113.313 60.4409 111.64C60.4409 109.966 59.0843 108.61 57.4109 108.61C55.7374 108.61 54.3809 109.966 54.3809 111.64C54.3809 113.313 55.7374 114.67 57.4109 114.67Z" fill="#DDDBDB"/>
<path d="M68.1999 114.67C69.8733 114.67 71.2299 113.313 71.2299 111.64C71.2299 109.966 69.8733 108.61 68.1999 108.61C66.5265 108.61 65.1699 109.966 65.1699 111.64C65.1699 113.313 66.5265 114.67 68.1999 114.67Z" fill="#DDDBDB"/>
<path d="M62.8093 121.82C64.4827 121.82 65.8393 120.463 65.8393 118.79C65.8393 117.116 64.4827 115.76 62.8093 115.76C61.1359 115.76 59.7793 117.116 59.7793 118.79C59.7793 120.463 61.1359 121.82 62.8093 121.82Z" fill="#DDDBDB"/>
<path d="M95.1491 121.82C96.8226 121.82 98.1791 120.463 98.1791 118.79C98.1791 117.116 96.8226 115.76 95.1491 115.76C93.4757 115.76 92.1191 117.116 92.1191 118.79C92.1191 120.463 93.4757 121.82 95.1491 121.82Z" fill="#DDDBDB"/>
<path d="M105.94 121.82C107.614 121.82 108.97 120.463 108.97 118.79C108.97 117.116 107.614 115.76 105.94 115.76C104.267 115.76 102.91 117.116 102.91 118.79C102.91 120.463 104.267 121.82 105.94 121.82Z" fill="#DDDBDB"/>
<path d="M116.719 121.82C118.393 121.82 119.749 120.463 119.749 118.79C119.749 117.116 118.393 115.76 116.719 115.76C115.046 115.76 113.689 117.116 113.689 118.79C113.689 120.463 115.046 121.82 116.719 121.82Z" fill="#DDDBDB"/>
<path d="M127.501 121.82C129.174 121.82 130.531 120.463 130.531 118.79C130.531 117.116 129.174 115.76 127.501 115.76C125.827 115.76 124.471 117.116 124.471 118.79C124.471 120.463 125.827 121.82 127.501 121.82Z" fill="#DDDBDB"/>
<path d="M138.28 121.82C139.953 121.82 141.31 120.463 141.31 118.79C141.31 117.116 139.953 115.76 138.28 115.76C136.607 115.76 135.25 117.116 135.25 118.79C135.25 120.463 136.607 121.82 138.28 121.82Z" fill="#DDDBDB"/>
<path d="M149.069 121.82C150.742 121.82 152.099 120.463 152.099 118.79C152.099 117.116 150.742 115.76 149.069 115.76C147.396 115.76 146.039 117.116 146.039 118.79C146.039 120.463 147.396 121.82 149.069 121.82Z" fill="#DDDBDB"/>
<path d="M57.4109 128.67C59.0843 128.67 60.4409 127.313 60.4409 125.64C60.4409 123.966 59.0843 122.61 57.4109 122.61C55.7374 122.61 54.3809 123.966 54.3809 125.64C54.3809 127.313 55.7374 128.67 57.4109 128.67Z" fill="#DDDBDB"/>
<path d="M68.1999 128.67C69.8733 128.67 71.2299 127.313 71.2299 125.64C71.2299 123.966 69.8733 122.61 68.1999 122.61C66.5265 122.61 65.1699 123.966 65.1699 125.64C65.1699 127.313 66.5265 128.67 68.1999 128.67Z" fill="#DDDBDB"/>
<path d="M78.9792 128.67C80.6526 128.67 82.0092 127.313 82.0092 125.64C82.0092 123.966 80.6526 122.61 78.9792 122.61C77.3058 122.61 75.9492 123.966 75.9492 125.64C75.9492 127.313 77.3058 128.67 78.9792 128.67Z" fill="#DDDBDB"/>
<path d="M89.7605 128.67C91.4339 128.67 92.7905 127.313 92.7905 125.64C92.7905 123.966 91.4339 122.61 89.7605 122.61C88.087 122.61 86.7305 123.966 86.7305 125.64C86.7305 127.313 88.087 128.67 89.7605 128.67Z" fill="#DDDBDB"/>
<path d="M100.54 128.67C102.213 128.67 103.57 127.313 103.57 125.64C103.57 123.966 102.213 122.61 100.54 122.61C98.8663 122.61 97.5098 123.966 97.5098 125.64C97.5098 127.313 98.8663 128.67 100.54 128.67Z" fill="#DDDBDB"/>
<path d="M111.331 128.67C113.004 128.67 114.361 127.313 114.361 125.64C114.361 123.966 113.004 122.61 111.331 122.61C109.657 122.61 108.301 123.966 108.301 125.64C108.301 127.313 109.657 128.67 111.331 128.67Z" fill="#DDDBDB"/>
<path d="M122.11 128.67C123.783 128.67 125.14 127.313 125.14 125.64C125.14 123.966 123.783 122.61 122.11 122.61C120.437 122.61 119.08 123.966 119.08 125.64C119.08 127.313 120.437 128.67 122.11 128.67Z" fill="#DDDBDB"/>
<path d="M132.889 128.67C134.563 128.67 135.919 127.313 135.919 125.64C135.919 123.966 134.563 122.61 132.889 122.61C131.216 122.61 129.859 123.966 129.859 125.64C129.859 127.313 131.216 128.67 132.889 128.67Z" fill="#DDDBDB"/>
<path d="M143.671 128.67C145.344 128.67 146.701 127.313 146.701 125.64C146.701 123.966 145.344 122.61 143.671 122.61C141.997 122.61 140.641 123.966 140.641 125.64C140.641 127.313 141.997 128.67 143.671 128.67Z" fill="#DDDBDB"/>
<path d="M154.46 128.67C156.133 128.67 157.49 127.313 157.49 125.64C157.49 123.966 156.133 122.61 154.46 122.61C152.786 122.61 151.43 123.966 151.43 125.64C151.43 127.313 152.786 128.67 154.46 128.67Z" fill="#DDDBDB"/>
<path d="M62.8093 135.81C64.4827 135.81 65.8393 134.453 65.8393 132.78C65.8393 131.107 64.4827 129.75 62.8093 129.75C61.1359 129.75 59.7793 131.107 59.7793 132.78C59.7793 134.453 61.1359 135.81 62.8093 135.81Z" fill="#DDDBDB"/>
<path d="M73.5905 135.81C75.264 135.81 76.6206 134.453 76.6206 132.78C76.6206 131.107 75.264 129.75 73.5905 129.75C71.9171 129.75 70.5605 131.107 70.5605 132.78C70.5605 134.453 71.9171 135.81 73.5905 135.81Z" fill="#DDDBDB"/>
<path d="M84.3699 135.81C86.0433 135.81 87.3998 134.453 87.3998 132.78C87.3998 131.107 86.0433 129.75 84.3699 129.75C82.6964 129.75 81.3398 131.107 81.3398 132.78C81.3398 134.453 82.6964 135.81 84.3699 135.81Z" fill="#DDDBDB"/>
<path d="M95.1491 135.81C96.8226 135.81 98.1791 134.453 98.1791 132.78C98.1791 131.107 96.8226 129.75 95.1491 129.75C93.4757 129.75 92.1191 131.107 92.1191 132.78C92.1191 134.453 93.4757 135.81 95.1491 135.81Z" fill="#DDDBDB"/>
<path d="M105.94 135.81C107.614 135.81 108.97 134.453 108.97 132.78C108.97 131.107 107.614 129.75 105.94 129.75C104.267 129.75 102.91 131.107 102.91 132.78C102.91 134.453 104.267 135.81 105.94 135.81Z" fill="#DDDBDB"/>
<path d="M116.719 135.81C118.393 135.81 119.749 134.453 119.749 132.78C119.749 131.107 118.393 129.75 116.719 129.75C115.046 129.75 113.689 131.107 113.689 132.78C113.689 134.453 115.046 135.81 116.719 135.81Z" fill="#DDDBDB"/>
<path d="M127.501 135.81C129.174 135.81 130.531 134.453 130.531 132.78C130.531 131.107 129.174 129.75 127.501 129.75C125.827 129.75 124.471 131.107 124.471 132.78C124.471 134.453 125.827 135.81 127.501 135.81Z" fill="#DDDBDB"/>
<path d="M138.28 135.81C139.953 135.81 141.31 134.453 141.31 132.78C141.31 131.107 139.953 129.75 138.28 129.75C136.607 129.75 135.25 131.107 135.25 132.78C135.25 134.453 136.607 135.81 138.28 135.81Z" fill="#DDDBDB"/>
<path d="M149.069 135.81C150.742 135.81 152.099 134.453 152.099 132.78C152.099 131.107 150.742 129.75 149.069 129.75C147.396 129.75 146.039 131.107 146.039 132.78C146.039 134.453 147.396 135.81 149.069 135.81Z" fill="#DDDBDB"/>
<path d="M57.4109 142.66C59.0843 142.66 60.4409 141.304 60.4409 139.63C60.4409 137.957 59.0843 136.6 57.4109 136.6C55.7374 136.6 54.3809 137.957 54.3809 139.63C54.3809 141.304 55.7374 142.66 57.4109 142.66Z" fill="#DDDBDB"/>
<path d="M68.1999 142.66C69.8733 142.66 71.2299 141.304 71.2299 139.63C71.2299 137.957 69.8733 136.6 68.1999 136.6C66.5265 136.6 65.1699 137.957 65.1699 139.63C65.1699 141.304 66.5265 142.66 68.1999 142.66Z" fill="#DDDBDB"/>
<path d="M78.9792 142.66C80.6526 142.66 82.0092 141.304 82.0092 139.63C82.0092 137.957 80.6526 136.6 78.9792 136.6C77.3058 136.6 75.9492 137.957 75.9492 139.63C75.9492 141.304 77.3058 142.66 78.9792 142.66Z" fill="#DDDBDB"/>
<path d="M89.7605 142.66C91.4339 142.66 92.7905 141.304 92.7905 139.63C92.7905 137.957 91.4339 136.6 89.7605 136.6C88.087 136.6 86.7305 137.957 86.7305 139.63C86.7305 141.304 88.087 142.66 89.7605 142.66Z" fill="#DDDBDB"/>
<path d="M100.54 142.66C102.213 142.66 103.57 141.304 103.57 139.63C103.57 137.957 102.213 136.6 100.54 136.6C98.8663 136.6 97.5098 137.957 97.5098 139.63C97.5098 141.304 98.8663 142.66 100.54 142.66Z" fill="#DDDBDB"/>
<path d="M111.331 142.66C113.004 142.66 114.361 141.304 114.361 139.63C114.361 137.957 113.004 136.6 111.331 136.6C109.657 136.6 108.301 137.957 108.301 139.63C108.301 141.304 109.657 142.66 111.331 142.66Z" fill="#DDDBDB"/>
<path d="M122.11 142.66C123.783 142.66 125.14 141.304 125.14 139.63C125.14 137.957 123.783 136.6 122.11 136.6C120.437 136.6 119.08 137.957 119.08 139.63C119.08 141.304 120.437 142.66 122.11 142.66Z" fill="#DDDBDB"/>
<path d="M132.889 142.66C134.563 142.66 135.919 141.304 135.919 139.63C135.919 137.957 134.563 136.6 132.889 136.6C131.216 136.6 129.859 137.957 129.859 139.63C129.859 141.304 131.216 142.66 132.889 142.66Z" fill="#DDDBDB"/>
<path d="M143.671 142.66C145.344 142.66 146.701 141.304 146.701 139.63C146.701 137.957 145.344 136.6 143.671 136.6C141.997 136.6 140.641 137.957 140.641 139.63C140.641 141.304 141.997 142.66 143.671 142.66Z" fill="#DDDBDB"/>
<path d="M154.46 142.66C156.133 142.66 157.49 141.304 157.49 139.63C157.49 137.957 156.133 136.6 154.46 136.6C152.786 136.6 151.43 137.957 151.43 139.63C151.43 141.304 152.786 142.66 154.46 142.66Z" fill="#DDDBDB"/>
<path d="M62.8093 149.81C64.4827 149.81 65.8393 148.453 65.8393 146.78C65.8393 145.107 64.4827 143.75 62.8093 143.75C61.1359 143.75 59.7793 145.107 59.7793 146.78C59.7793 148.453 61.1359 149.81 62.8093 149.81Z" fill="#DDDBDB"/>
<path d="M73.5905 149.81C75.264 149.81 76.6206 148.453 76.6206 146.78C76.6206 145.107 75.264 143.75 73.5905 143.75C71.9171 143.75 70.5605 145.107 70.5605 146.78C70.5605 148.453 71.9171 149.81 73.5905 149.81Z" fill="#DDDBDB"/>
<path d="M84.3699 149.81C86.0433 149.81 87.3998 148.453 87.3998 146.78C87.3998 145.107 86.0433 143.75 84.3699 143.75C82.6964 143.75 81.3398 145.107 81.3398 146.78C81.3398 148.453 82.6964 149.81 84.3699 149.81Z" fill="#DDDBDB"/>
<path d="M95.1491 149.81C96.8226 149.81 98.1791 148.453 98.1791 146.78C98.1791 145.107 96.8226 143.75 95.1491 143.75C93.4757 143.75 92.1191 145.107 92.1191 146.78C92.1191 148.453 93.4757 149.81 95.1491 149.81Z" fill="#DDDBDB"/>
<path d="M105.94 149.81C107.614 149.81 108.97 148.453 108.97 146.78C108.97 145.107 107.614 143.75 105.94 143.75C104.267 143.75 102.91 145.107 102.91 146.78C102.91 148.453 104.267 149.81 105.94 149.81Z" fill="#DDDBDB"/>
<path d="M116.719 149.81C118.393 149.81 119.749 148.453 119.749 146.78C119.749 145.107 118.393 143.75 116.719 143.75C115.046 143.75 113.689 145.107 113.689 146.78C113.689 148.453 115.046 149.81 116.719 149.81Z" fill="#DDDBDB"/>
<path d="M127.501 149.81C129.174 149.81 130.531 148.453 130.531 146.78C130.531 145.107 129.174 143.75 127.501 143.75C125.827 143.75 124.471 145.107 124.471 146.78C124.471 148.453 125.827 149.81 127.501 149.81Z" fill="#DDDBDB"/>
<path d="M138.28 149.81C139.953 149.81 141.31 148.453 141.31 146.78C141.31 145.107 139.953 143.75 138.28 143.75C136.607 143.75 135.25 145.107 135.25 146.78C135.25 148.453 136.607 149.81 138.28 149.81Z" fill="#DDDBDB"/>
<path d="M149.069 149.81C150.742 149.81 152.099 148.453 152.099 146.78C152.099 145.107 150.742 143.75 149.069 143.75C147.396 143.75 146.039 145.107 146.039 146.78C146.039 148.453 147.396 149.81 149.069 149.81Z" fill="#DDDBDB"/>
<path d="M57.4109 156.66C59.0843 156.66 60.4409 155.304 60.4409 153.63C60.4409 151.957 59.0843 150.6 57.4109 150.6C55.7374 150.6 54.3809 151.957 54.3809 153.63C54.3809 155.304 55.7374 156.66 57.4109 156.66Z" fill="#DDDBDB"/>
<path d="M68.1999 156.66C69.8733 156.66 71.2299 155.304 71.2299 153.63C71.2299 151.957 69.8733 150.6 68.1999 150.6C66.5265 150.6 65.1699 151.957 65.1699 153.63C65.1699 155.304 66.5265 156.66 68.1999 156.66Z" fill="#DDDBDB"/>
<path d="M78.9792 156.66C80.6526 156.66 82.0092 155.304 82.0092 153.63C82.0092 151.957 80.6526 150.6 78.9792 150.6C77.3058 150.6 75.9492 151.957 75.9492 153.63C75.9492 155.304 77.3058 156.66 78.9792 156.66Z" fill="#DDDBDB"/>
<path d="M89.7605 156.66C91.4339 156.66 92.7905 155.304 92.7905 153.63C92.7905 151.957 91.4339 150.6 89.7605 150.6C88.087 150.6 86.7305 151.957 86.7305 153.63C86.7305 155.304 88.087 156.66 89.7605 156.66Z" fill="#DDDBDB"/>
<path d="M100.54 156.66C102.213 156.66 103.57 155.304 103.57 153.63C103.57 151.957 102.213 150.6 100.54 150.6C98.8663 150.6 97.5098 151.957 97.5098 153.63C97.5098 155.304 98.8663 156.66 100.54 156.66Z" fill="#DDDBDB"/>
<path d="M111.331 156.66C113.004 156.66 114.361 155.304 114.361 153.63C114.361 151.957 113.004 150.6 111.331 150.6C109.657 150.6 108.301 151.957 108.301 153.63C108.301 155.304 109.657 156.66 111.331 156.66Z" fill="#DDDBDB"/>
<path d="M122.11 156.66C123.783 156.66 125.14 155.304 125.14 153.63C125.14 151.957 123.783 150.6 122.11 150.6C120.437 150.6 119.08 151.957 119.08 153.63C119.08 155.304 120.437 156.66 122.11 156.66Z" fill="#DDDBDB"/>
<path d="M132.889 156.66C134.563 156.66 135.919 155.304 135.919 153.63C135.919 151.957 134.563 150.6 132.889 150.6C131.216 150.6 129.859 151.957 129.859 153.63C129.859 155.304 131.216 156.66 132.889 156.66Z" fill="#DDDBDB"/>
<path d="M143.671 156.66C145.344 156.66 146.701 155.304 146.701 153.63C146.701 151.957 145.344 150.6 143.671 150.6C141.997 150.6 140.641 151.957 140.641 153.63C140.641 155.304 141.997 156.66 143.671 156.66Z" fill="#DDDBDB"/>
<path d="M154.46 156.66C156.133 156.66 157.49 155.304 157.49 153.63C157.49 151.957 156.133 150.6 154.46 150.6C152.786 150.6 151.43 151.957 151.43 153.63C151.43 155.304 152.786 156.66 154.46 156.66Z" fill="#DDDBDB"/>
<path d="M73.5905 163.81C75.264 163.81 76.6206 162.453 76.6206 160.78C76.6206 159.107 75.264 157.75 73.5905 157.75C71.9171 157.75 70.5605 159.107 70.5605 160.78C70.5605 162.453 71.9171 163.81 73.5905 163.81Z" fill="#DDDBDB"/>
<path d="M84.3699 163.81C86.0433 163.81 87.3998 162.453 87.3998 160.78C87.3998 159.107 86.0433 157.75 84.3699 157.75C82.6964 157.75 81.3398 159.107 81.3398 160.78C81.3398 162.453 82.6964 163.81 84.3699 163.81Z" fill="#DDDBDB"/>
<path d="M95.1491 163.81C96.8226 163.81 98.1791 162.453 98.1791 160.78C98.1791 159.107 96.8226 157.75 95.1491 157.75C93.4757 157.75 92.1191 159.107 92.1191 160.78C92.1191 162.453 93.4757 163.81 95.1491 163.81Z" fill="#DDDBDB"/>
<path d="M105.94 163.81C107.614 163.81 108.97 162.453 108.97 160.78C108.97 159.107 107.614 157.75 105.94 157.75C104.267 157.75 102.91 159.107 102.91 160.78C102.91 162.453 104.267 163.81 105.94 163.81Z" fill="#DDDBDB"/>
<path d="M116.719 163.81C118.393 163.81 119.749 162.453 119.749 160.78C119.749 159.107 118.393 157.75 116.719 157.75C115.046 157.75 113.689 159.107 113.689 160.78C113.689 162.453 115.046 163.81 116.719 163.81Z" fill="#DDDBDB"/>
<path d="M127.501 163.81C129.174 163.81 130.531 162.453 130.531 160.78C130.531 159.107 129.174 157.75 127.501 157.75C125.827 157.75 124.471 159.107 124.471 160.78C124.471 162.453 125.827 163.81 127.501 163.81Z" fill="#DDDBDB"/>
<path d="M138.28 163.81C139.953 163.81 141.31 162.453 141.31 160.78C141.31 159.107 139.953 157.75 138.28 157.75C136.607 157.75 135.25 159.107 135.25 160.78C135.25 162.453 136.607 163.81 138.28 163.81Z" fill="#DDDBDB"/>
<path d="M149.069 163.81C150.742 163.81 152.099 162.453 152.099 160.78C152.099 159.107 150.742 157.75 149.069 157.75C147.396 157.75 146.039 159.107 146.039 160.78C146.039 162.453 147.396 163.81 149.069 163.81Z" fill="#DDDBDB"/>
<path d="M78.9792 170.66C80.6526 170.66 82.0092 169.304 82.0092 167.63C82.0092 165.957 80.6526 164.6 78.9792 164.6C77.3058 164.6 75.9492 165.957 75.9492 167.63C75.9492 169.304 77.3058 170.66 78.9792 170.66Z" fill="#DDDBDB"/>
<path d="M89.7605 170.66C91.4339 170.66 92.7905 169.304 92.7905 167.63C92.7905 165.957 91.4339 164.6 89.7605 164.6C88.087 164.6 86.7305 165.957 86.7305 167.63C86.7305 169.304 88.087 170.66 89.7605 170.66Z" fill="#DDDBDB"/>
<path d="M100.54 170.66C102.213 170.66 103.57 169.304 103.57 167.63C103.57 165.957 102.213 164.6 100.54 164.6C98.8663 164.6 97.5098 165.957 97.5098 167.63C97.5098 169.304 98.8663 170.66 100.54 170.66Z" fill="#DDDBDB"/>
<path d="M111.331 170.66C113.004 170.66 114.361 169.304 114.361 167.63C114.361 165.957 113.004 164.6 111.331 164.6C109.657 164.6 108.301 165.957 108.301 167.63C108.301 169.304 109.657 170.66 111.331 170.66Z" fill="#DDDBDB"/>
<path d="M122.11 170.66C123.783 170.66 125.14 169.304 125.14 167.63C125.14 165.957 123.783 164.6 122.11 164.6C120.437 164.6 119.08 165.957 119.08 167.63C119.08 169.304 120.437 170.66 122.11 170.66Z" fill="#DDDBDB"/>
<path d="M132.889 170.66C134.563 170.66 135.919 169.304 135.919 167.63C135.919 165.957 134.563 164.6 132.889 164.6C131.216 164.6 129.859 165.957 129.859 167.63C129.859 169.304 131.216 170.66 132.889 170.66Z" fill="#DDDBDB"/>
<path d="M143.671 170.66C145.344 170.66 146.701 169.304 146.701 167.63C146.701 165.957 145.344 164.6 143.671 164.6C141.997 164.6 140.641 165.957 140.641 167.63C140.641 169.304 141.997 170.66 143.671 170.66Z" fill="#DDDBDB"/>
<path d="M154.46 170.66C156.133 170.66 157.49 169.304 157.49 167.63C157.49 165.957 156.133 164.6 154.46 164.6C152.786 164.6 151.43 165.957 151.43 167.63C151.43 169.304 152.786 170.66 154.46 170.66Z" fill="#DDDBDB"/>
<path d="M62.4695 163.81C64.1429 163.81 65.4995 162.453 65.4995 160.78C65.4995 159.107 64.1429 157.75 62.4695 157.75C60.796 157.75 59.4395 159.107 59.4395 160.78C59.4395 162.453 60.796 163.81 62.4695 163.81Z" fill="#DDDBDB"/>
<path d="M57.0691 170.66C58.7425 170.66 60.0991 169.304 60.0991 167.63C60.0991 165.957 58.7425 164.6 57.0691 164.6C55.3956 164.6 54.0391 165.957 54.0391 167.63C54.0391 169.304 55.3956 170.66 57.0691 170.66Z" fill="#DDDBDB"/>
<path d="M67.8601 170.66C69.5335 170.66 70.8901 169.304 70.8901 167.63C70.8901 165.957 69.5335 164.6 67.8601 164.6C66.1867 164.6 64.8301 165.957 64.8301 167.63C64.8301 169.304 66.1867 170.66 67.8601 170.66Z" fill="#DDDBDB"/>
<path d="M183.01 44.6801C184.684 44.6801 186.04 43.3235 186.04 41.6501C186.04 39.9767 184.684 38.6201 183.01 38.6201C181.337 38.6201 179.98 39.9767 179.98 41.6501C179.98 43.3235 181.337 44.6801 183.01 44.6801Z" fill="#DDDBDB"/>
<path d="M193.8 44.6801C195.473 44.6801 196.83 43.3235 196.83 41.6501C196.83 39.9767 195.473 38.6201 193.8 38.6201C192.126 38.6201 190.77 39.9767 190.77 41.6501C190.77 43.3235 192.126 44.6801 193.8 44.6801Z" fill="#DDDBDB"/>
<path d="M188.411 51.83C190.084 51.83 191.441 50.4734 191.441 48.8C191.441 47.1266 190.084 45.77 188.411 45.77C186.737 45.77 185.381 47.1266 185.381 48.8C185.381 50.4734 186.737 51.83 188.411 51.83Z" fill="#DDDBDB"/>
<path d="M199.19 51.83C200.864 51.83 202.22 50.4734 202.22 48.8C202.22 47.1266 200.864 45.77 199.19 45.77C197.517 45.77 196.16 47.1266 196.16 48.8C196.16 50.4734 197.517 51.83 199.19 51.83Z" fill="#DDDBDB"/>
<path d="M193.8 58.6801C195.473 58.6801 196.83 57.3235 196.83 55.6501C196.83 53.9767 195.473 52.6201 193.8 52.6201C192.126 52.6201 190.77 53.9767 190.77 55.6501C190.77 57.3235 192.126 58.6801 193.8 58.6801Z" fill="#DDDBDB"/>
<path d="M188.411 65.83C190.084 65.83 191.441 64.4734 191.441 62.8C191.441 61.1266 190.084 59.77 188.411 59.77C186.737 59.77 185.381 61.1266 185.381 62.8C185.381 64.4734 186.737 65.83 188.411 65.83Z" fill="#DDDBDB"/>
<path d="M199.19 65.83C200.864 65.83 202.22 64.4734 202.22 62.8C202.22 61.1266 200.864 59.77 199.19 59.77C197.517 59.77 196.16 61.1266 196.16 62.8C196.16 64.4734 197.517 65.83 199.19 65.83Z" fill="#DDDBDB"/>
<path d="M177.96 51.83C179.633 51.83 180.99 50.4734 180.99 48.8C180.99 47.1266 179.633 45.77 177.96 45.77C176.286 45.77 174.93 47.1266 174.93 48.8C174.93 50.4734 176.286 51.83 177.96 51.83Z" fill="#DDDBDB"/>
<path d="M172.569 58.6801C174.242 58.6801 175.599 57.3235 175.599 55.6501C175.599 53.9767 174.242 52.6201 172.569 52.6201C170.896 52.6201 169.539 53.9767 169.539 55.6501C169.539 57.3235 170.896 58.6801 172.569 58.6801Z" fill="#DDDBDB"/>
<path d="M183.35 58.6801C185.024 58.6801 186.38 57.3235 186.38 55.6501C186.38 53.9767 185.024 52.6201 183.35 52.6201C181.677 52.6201 180.32 53.9767 180.32 55.6501C180.32 57.3235 181.677 58.6801 183.35 58.6801Z" fill="#DDDBDB"/>
<path d="M177.96 65.83C179.633 65.83 180.99 64.4734 180.99 62.8C180.99 61.1266 179.633 59.77 177.96 59.77C176.286 59.77 174.93 61.1266 174.93 62.8C174.93 64.4734 176.286 65.83 177.96 65.83Z" fill="#DDDBDB"/>
<path d="M172.229 72.6801C173.903 72.6801 175.259 71.3235 175.259 69.6501C175.259 67.9767 173.903 66.6201 172.229 66.6201C170.556 66.6201 169.199 67.9767 169.199 69.6501C169.199 71.3235 170.556 72.6801 172.229 72.6801Z" fill="#DDDBDB"/>
<path d="M183.01 72.6801C184.684 72.6801 186.04 71.3235 186.04 69.6501C186.04 67.9767 184.684 66.6201 183.01 66.6201C181.337 66.6201 179.98 67.9767 179.98 69.6501C179.98 71.3235 181.337 72.6801 183.01 72.6801Z" fill="#DDDBDB"/>
<path d="M193.8 72.6801C195.473 72.6801 196.83 71.3235 196.83 69.6501C196.83 67.9767 195.473 66.6201 193.8 66.6201C192.126 66.6201 190.77 67.9767 190.77 69.6501C190.77 71.3235 192.126 72.6801 193.8 72.6801Z" fill="#DDDBDB"/>
<path d="M177.62 79.83C179.293 79.83 180.65 78.4734 180.65 76.8C180.65 75.1266 179.293 73.77 177.62 73.77C175.946 73.77 174.59 75.1266 174.59 76.8C174.59 78.4734 175.946 79.83 177.62 79.83Z" fill="#DDDBDB"/>
<path d="M188.411 79.83C190.084 79.83 191.441 78.4734 191.441 76.8C191.441 75.1266 190.084 73.77 188.411 73.77C186.737 73.77 185.381 75.1266 185.381 76.8C185.381 78.4734 186.737 79.83 188.411 79.83Z" fill="#DDDBDB"/>
<path d="M199.19 79.83C200.864 79.83 202.22 78.4734 202.22 76.8C202.22 75.1266 200.864 73.77 199.19 73.77C197.517 73.77 196.16 75.1266 196.16 76.8C196.16 78.4734 197.517 79.83 199.19 79.83Z" fill="#DDDBDB"/>
<path d="M172.229 86.6699C173.903 86.6699 175.259 85.3133 175.259 83.6399C175.259 81.9664 173.903 80.6099 172.229 80.6099C170.556 80.6099 169.199 81.9664 169.199 83.6399C169.199 85.3133 170.556 86.6699 172.229 86.6699Z" fill="#DDDBDB"/>
<path d="M183.01 86.6699C184.684 86.6699 186.04 85.3133 186.04 83.6399C186.04 81.9664 184.684 80.6099 183.01 80.6099C181.337 80.6099 179.98 81.9664 179.98 83.6399C179.98 85.3133 181.337 86.6699 183.01 86.6699Z" fill="#DDDBDB"/>
<path d="M193.8 86.6699C195.473 86.6699 196.83 85.3133 196.83 83.6399C196.83 81.9664 195.473 80.6099 193.8 80.6099C192.126 80.6099 190.77 81.9664 190.77 83.6399C190.77 85.3133 192.126 86.6699 193.8 86.6699Z" fill="#DDDBDB"/>
<path d="M177.62 93.8198C179.293 93.8198 180.65 92.4632 180.65 90.7898C180.65 89.1163 179.293 87.7598 177.62 87.7598C175.946 87.7598 174.59 89.1163 174.59 90.7898C174.59 92.4632 175.946 93.8198 177.62 93.8198Z" fill="#DDDBDB"/>
<path d="M188.411 93.8198C190.084 93.8198 191.441 92.4632 191.441 90.7898C191.441 89.1163 190.084 87.7598 188.411 87.7598C186.737 87.7598 185.381 89.1163 185.381 90.7898C185.381 92.4632 186.737 93.8198 188.411 93.8198Z" fill="#DDDBDB"/>
<path d="M199.19 93.8198C200.864 93.8198 202.22 92.4632 202.22 90.7898C202.22 89.1163 200.864 87.7598 199.19 87.7598C197.517 87.7598 196.16 89.1163 196.16 90.7898C196.16 92.4632 197.517 93.8198 199.19 93.8198Z" fill="#DDDBDB"/>
<path d="M172.229 100.67C173.903 100.67 175.259 99.3133 175.259 97.6399C175.259 95.9664 173.903 94.6099 172.229 94.6099C170.556 94.6099 169.199 95.9664 169.199 97.6399C169.199 99.3133 170.556 100.67 172.229 100.67Z" fill="#DDDBDB"/>
<path d="M183.01 100.67C184.684 100.67 186.04 99.3133 186.04 97.6399C186.04 95.9664 184.684 94.6099 183.01 94.6099C181.337 94.6099 179.98 95.9664 179.98 97.6399C179.98 99.3133 181.337 100.67 183.01 100.67Z" fill="#DDDBDB"/>
<path d="M193.8 100.67C195.473 100.67 196.83 99.3133 196.83 97.6399C196.83 95.9664 195.473 94.6099 193.8 94.6099C192.126 94.6099 190.77 95.9664 190.77 97.6399C190.77 99.3133 192.126 100.67 193.8 100.67Z" fill="#DDDBDB"/>
<path d="M188.411 107.82C190.084 107.82 191.441 106.463 191.441 104.79C191.441 103.116 190.084 101.76 188.411 101.76C186.737 101.76 185.381 103.116 185.381 104.79C185.381 106.463 186.737 107.82 188.411 107.82Z" fill="#DDDBDB"/>
<path d="M199.19 107.82C200.864 107.82 202.22 106.463 202.22 104.79C202.22 103.116 200.864 101.76 199.19 101.76C197.517 101.76 196.16 103.116 196.16 104.79C196.16 106.463 197.517 107.82 199.19 107.82Z" fill="#DDDBDB"/>
<path d="M193.8 114.67C195.473 114.67 196.83 113.313 196.83 111.64C196.83 109.966 195.473 108.61 193.8 108.61C192.126 108.61 190.77 109.966 190.77 111.64C190.77 113.313 192.126 114.67 193.8 114.67Z" fill="#DDDBDB"/>
<path d="M188.411 121.82C190.084 121.82 191.441 120.463 191.441 118.79C191.441 117.116 190.084 115.76 188.411 115.76C186.737 115.76 185.381 117.116 185.381 118.79C185.381 120.463 186.737 121.82 188.411 121.82Z" fill="#DDDBDB"/>
<path d="M199.19 121.82C200.864 121.82 202.22 120.463 202.22 118.79C202.22 117.116 200.864 115.76 199.19 115.76C197.517 115.76 196.16 117.116 196.16 118.79C196.16 120.463 197.517 121.82 199.19 121.82Z" fill="#DDDBDB"/>
<path d="M177.62 107.82C179.293 107.82 180.65 106.463 180.65 104.79C180.65 103.116 179.293 101.76 177.62 101.76C175.946 101.76 174.59 103.116 174.59 104.79C174.59 106.463 175.946 107.82 177.62 107.82Z" fill="#DDDBDB"/>
<path d="M172.229 114.67C173.903 114.67 175.259 113.313 175.259 111.64C175.259 109.966 173.903 108.61 172.229 108.61C170.556 108.61 169.199 109.966 169.199 111.64C169.199 113.313 170.556 114.67 172.229 114.67Z" fill="#DDDBDB"/>
<path d="M183.01 114.67C184.684 114.67 186.04 113.313 186.04 111.64C186.04 109.966 184.684 108.61 183.01 108.61C181.337 108.61 179.98 109.966 179.98 111.64C179.98 113.313 181.337 114.67 183.01 114.67Z" fill="#DDDBDB"/>
<path d="M177.62 121.82C179.293 121.82 180.65 120.463 180.65 118.79C180.65 117.116 179.293 115.76 177.62 115.76C175.946 115.76 174.59 117.116 174.59 118.79C174.59 120.463 175.946 121.82 177.62 121.82Z" fill="#DDDBDB"/>
<path d="M172.229 128.67C173.903 128.67 175.259 127.313 175.259 125.64C175.259 123.966 173.903 122.61 172.229 122.61C170.556 122.61 169.199 123.966 169.199 125.64C169.199 127.313 170.556 128.67 172.229 128.67Z" fill="#DDDBDB"/>
<path d="M183.01 128.67C184.684 128.67 186.04 127.313 186.04 125.64C186.04 123.966 184.684 122.61 183.01 122.61C181.337 122.61 179.98 123.966 179.98 125.64C179.98 127.313 181.337 128.67 183.01 128.67Z" fill="#DDDBDB"/>
<path d="M193.8 128.67C195.473 128.67 196.83 127.313 196.83 125.64C196.83 123.966 195.473 122.61 193.8 122.61C192.126 122.61 190.77 123.966 190.77 125.64C190.77 127.313 192.126 128.67 193.8 128.67Z" fill="#DDDBDB"/>
<path d="M177.62 135.81C179.293 135.81 180.65 134.453 180.65 132.78C180.65 131.107 179.293 129.75 177.62 129.75C175.946 129.75 174.59 131.107 174.59 132.78C174.59 134.453 175.946 135.81 177.62 135.81Z" fill="#DDDBDB"/>
<path d="M188.411 135.81C190.084 135.81 191.441 134.453 191.441 132.78C191.441 131.107 190.084 129.75 188.411 129.75C186.737 129.75 185.381 131.107 185.381 132.78C185.381 134.453 186.737 135.81 188.411 135.81Z" fill="#DDDBDB"/>
<path d="M199.19 135.81C200.864 135.81 202.22 134.453 202.22 132.78C202.22 131.107 200.864 129.75 199.19 129.75C197.517 129.75 196.16 131.107 196.16 132.78C196.16 134.453 197.517 135.81 199.19 135.81Z" fill="#DDDBDB"/>
<path d="M172.229 142.66C173.903 142.66 175.259 141.304 175.259 139.63C175.259 137.957 173.903 136.6 172.229 136.6C170.556 136.6 169.199 137.957 169.199 139.63C169.199 141.304 170.556 142.66 172.229 142.66Z" fill="#DDDBDB"/>
<path d="M183.01 142.66C184.684 142.66 186.04 141.304 186.04 139.63C186.04 137.957 184.684 136.6 183.01 136.6C181.337 136.6 179.98 137.957 179.98 139.63C179.98 141.304 181.337 142.66 183.01 142.66Z" fill="#DDDBDB"/>
<path d="M193.8 142.66C195.473 142.66 196.83 141.304 196.83 139.63C196.83 137.957 195.473 136.6 193.8 136.6C192.126 136.6 190.77 137.957 190.77 139.63C190.77 141.304 192.126 142.66 193.8 142.66Z" fill="#DDDBDB"/>
<path d="M177.62 149.81C179.293 149.81 180.65 148.453 180.65 146.78C180.65 145.107 179.293 143.75 177.62 143.75C175.946 143.75 174.59 145.107 174.59 146.78C174.59 148.453 175.946 149.81 177.62 149.81Z" fill="#DDDBDB"/>
<path d="M188.411 149.81C190.084 149.81 191.441 148.453 191.441 146.78C191.441 145.107 190.084 143.75 188.411 143.75C186.737 143.75 185.381 145.107 185.381 146.78C185.381 148.453 186.737 149.81 188.411 149.81Z" fill="#DDDBDB"/>
<path d="M199.19 149.81C200.864 149.81 202.22 148.453 202.22 146.78C202.22 145.107 200.864 143.75 199.19 143.75C197.517 143.75 196.16 145.107 196.16 146.78C196.16 148.453 197.517 149.81 199.19 149.81Z" fill="#DDDBDB"/>
<path d="M172.229 156.66C173.903 156.66 175.259 155.304 175.259 153.63C175.259 151.957 173.903 150.6 172.229 150.6C170.556 150.6 169.199 151.957 169.199 153.63C169.199 155.304 170.556 156.66 172.229 156.66Z" fill="#DDDBDB"/>
<path d="M183.01 156.66C184.684 156.66 186.04 155.304 186.04 153.63C186.04 151.957 184.684 150.6 183.01 150.6C181.337 150.6 179.98 151.957 179.98 153.63C179.98 155.304 181.337 156.66 183.01 156.66Z" fill="#DDDBDB"/>
<path d="M193.8 156.66C195.473 156.66 196.83 155.304 196.83 153.63C196.83 151.957 195.473 150.6 193.8 150.6C192.126 150.6 190.77 151.957 190.77 153.63C190.77 155.304 192.126 156.66 193.8 156.66Z" fill="#DDDBDB"/>
<path d="M188.411 163.81C190.084 163.81 191.441 162.453 191.441 160.78C191.441 159.107 190.084 157.75 188.411 157.75C186.737 157.75 185.381 159.107 185.381 160.78C185.381 162.453 186.737 163.81 188.411 163.81Z" fill="#DDDBDB"/>
<path d="M199.19 163.81C200.864 163.81 202.22 162.453 202.22 160.78C202.22 159.107 200.864 157.75 199.19 157.75C197.517 157.75 196.16 159.107 196.16 160.78C196.16 162.453 197.517 163.81 199.19 163.81Z" fill="#DDDBDB"/>
<path d="M193.8 170.66C195.473 170.66 196.83 169.304 196.83 167.63C196.83 165.957 195.473 164.6 193.8 164.6C192.126 164.6 190.77 165.957 190.77 167.63C190.77 169.304 192.126 170.66 193.8 170.66Z" fill="#DDDBDB"/>
<path d="M177.28 163.81C178.953 163.81 180.31 162.453 180.31 160.78C180.31 159.107 178.953 157.75 177.28 157.75C175.607 157.75 174.25 159.107 174.25 160.78C174.25 162.453 175.607 163.81 177.28 163.81Z" fill="#DDDBDB"/>
<path d="M171.889 170.66C173.563 170.66 174.919 169.304 174.919 167.63C174.919 165.957 173.563 164.6 171.889 164.6C170.216 164.6 168.859 165.957 168.859 167.63C168.859 169.304 170.216 170.66 171.889 170.66Z" fill="#DDDBDB"/>
<path d="M182.68 170.66C184.354 170.66 185.71 169.304 185.71 167.63C185.71 165.957 184.354 164.6 182.68 164.6C181.007 164.6 179.65 165.957 179.65 167.63C179.65 169.304 181.007 170.66 182.68 170.66Z" fill="#DDDBDB"/>
<path d="M143.93 6.50977C144.22 6.21977 144.36 5.87977 144.36 5.47977C144.36 5.07977 144.22 4.73977 143.93 4.45977L139.91 0.439766C139.62 0.149766 139.28 0.00976562 138.88 0.00976562C138.48 0.00976562 138.14 0.149766 137.85 0.439766L122.27 16.0198L128.35 22.0998L143.93 6.51977V6.50977ZM138.9 2.59977L141.77 5.46977L128.35 18.8898L125.48 16.0198L138.9 2.59977Z" fill="black"/>
<path d="M204 28.5V26.8896H158.98H124.1L127.23 23.7596L120.84 17.3696L118.21 19.9996L116.64 26.8896H0V29.8896H42.07L44.64 32.3896H0V35.3896H46.68V170.66H49.83V35.3896H61.87V46.1896H161.49V170.67H164.49H164.64V46.1796H177.63V35.3796H204V32.3796H177.63H164.49L161.98 29.8796H204V28.5ZM120.3 21.1496L120.84 20.6096L123.98 23.7496L118.46 29.2696L120.31 21.1496H120.3ZM48.94 32.3796L48.53 31.9796L46.73 29.8796H115.95L115.38 32.3796H61.87H48.93H48.94ZM174.64 43.1796H64.87V35.3796H67.26V39.2796H70.26V35.3796H72.9V39.2796H75.9V35.3796H78.54V39.2796H81.54V35.3796H84.18V39.2796H87.18V35.3796H89.82V41.3396H92.82V35.3796H95.52V39.2796H98.52V35.3796H101.16V39.2796H104.16V35.3796H106.8V39.2796H109.8V35.3796H112.44V39.2796H115.44V35.3796H118.08V41.3396H121.08V35.3796H123.78V39.2796H126.78V35.3796H129.42V39.2796H132.42V35.3796H135.06V39.2796H138.06V35.3796H140.7V39.2796H143.7V35.3796H146.34V41.3396H149.34V35.3796H152.04V39.2796H155.04V35.3796H157.68V39.2796H160.68V35.3796H163.32V39.2796H166.32V35.3796H168.96V39.2796H171.96V35.3796H174.66V43.1796H174.64ZM118.6 32.3796L121.1 29.8796H157.6L160.42 32.3796H118.6Z" fill="black"/>
</g>
<defs>
<clipPath id="clip0_1015_2143">
<rect width="206" height="170.66" fill="white"/>
</clipPath>
</defs>
</svg>
