<svg width="47" height="49" viewBox="0 0 47 49" fill="none" xmlns="http://www.w3.org/2000/svg">
<g clip-path="url(#clip0_1583_3547)">
<path d="M2.12719 49L0.905473 48.3954C0.229938 48.0068 -0.12939 47.215 0.0574606 46.4521L4.11067 28.6169L7.89079 24.8311L17.0752 34.0294L2.12719 49ZM7.11465 30.2867L4.45563 41.9753L12.3896 34.0294L7.87642 29.5094L7.10027 30.2867H7.11465ZM18.1244 31.7982L9.38559 23.0461L31.7932 0.618978C32.1957 0.201528 32.6844 0 33.2593 0C33.8342 0 34.3229 0.201528 34.7397 0.618978L40.5177 6.4057C40.9345 6.80875 41.1357 7.31257 41.1357 7.88837C41.1357 8.46416 40.9345 8.95358 40.5177 9.37103L18.1244 31.7982ZM18.1244 27.1774L37.4131 7.87397L33.288 3.74266L13.9994 23.0605L18.1244 27.1918V27.1774ZM17.837 46.5961L21.1428 43.3284H47V46.5961H17.837Z" fill="black"/>
</g>
<defs>
<clipPath id="clip0_1583_3547">
<rect width="47" height="49" fill="white"/>
</clipPath>
</defs>
</svg>
