<svg width="51" height="54" viewBox="0 0 51 54" fill="none" xmlns="http://www.w3.org/2000/svg">
<g clip-path="url(#clip0_1583_5311)">
<path d="M16.3041 31.2789C15.4287 31.2789 14.6712 30.959 14.0315 30.3277C13.4002 29.6964 13.0803 28.9305 13.0803 28.0551V12.298C13.0803 11.4395 13.4002 10.6819 14.0315 10.0422C14.6628 9.40249 15.4287 9.07422 16.3041 9.07422H47.5994C48.4748 9.07422 49.2407 9.40249 49.872 10.0422C50.5033 10.6819 50.8232 11.4395 50.8232 12.298V28.0635C50.8232 28.9389 50.5033 29.7049 49.872 30.3361C49.2407 30.9674 48.4748 31.2873 47.5994 31.2873H16.3041V31.2789ZM16.3041 12.1213C16.3041 12.1213 16.2536 12.1213 16.1947 12.1886C16.1358 12.2559 16.1274 12.2896 16.1274 12.298V28.0635C16.1274 28.0635 16.1274 28.114 16.1947 28.1729C16.262 28.2318 16.2957 28.2403 16.3041 28.2403H47.5994C47.5994 28.2403 47.6499 28.2403 47.7088 28.1729C47.7677 28.1056 47.7761 28.0719 47.7761 28.0635V12.298C47.7761 12.298 47.7761 12.2475 47.7172 12.1886C47.6583 12.1297 47.6162 12.1213 47.5994 12.1213H41.9514V19.8567H38.9044V12.1213H33.4669V19.8567H30.4198V12.1213H24.9823V19.8567H21.9352V12.1213H16.2873H16.3041Z" fill="black"/>
<path d="M45.2594 42.3303H42.7174V34.2413H39.7714V42.3134L5.96782 42.0441C5.13451 42.0104 4.41063 42.6669 4.40221 43.5087C4.40221 44.3167 5.05034 44.9817 5.86681 44.9901H5.93415C7.53342 45.0154 8.82126 46.3284 8.82126 47.9277C8.82126 49.527 7.50817 50.8653 5.88364 50.8653C4.25912 50.8653 2.94603 49.5522 2.94603 47.9277V2.94603H39.7714V6.18666H42.7174V1.47302C42.7174 0.656544 42.0609 0 41.2444 0H1.47302C0.656544 0 0 0.656544 0 1.47302V47.9277C0 51.1683 2.63459 53.8114 5.88364 53.8114H45.2594C48.4243 53.8114 51 51.2357 51 48.0708C51 44.9059 48.4243 42.3303 45.2594 42.3303ZM45.2594 50.8653H10.9677C11.4727 49.9984 11.7589 48.9967 11.7589 47.9277C11.7589 46.8587 11.4811 45.8907 10.9929 45.0322L41.2276 45.2763C41.2276 45.2763 41.2276 45.2763 41.236 45.2763H45.251C46.7914 45.2763 48.0456 46.5305 48.0456 48.0708C48.0456 49.6112 46.7914 50.8653 45.251 50.8653H45.2594Z" fill="black"/>
</g>
<defs>
<clipPath id="clip0_1583_5311">
<rect width="51" height="53.8114" fill="white"/>
</clipPath>
</defs>
</svg>
