<svg width="121" height="127" viewBox="0 0 121 127" fill="none" xmlns="http://www.w3.org/2000/svg">
<g clip-path="url(#clip0_1583_5213)" filter="url(#filter0_d_1583_5213)">
<path d="M14.1699 78.5903C16.3846 78.5903 18.1799 76.795 18.1799 74.5803C18.1799 72.3657 16.3846 70.5703 14.1699 70.5703C11.9553 70.5703 10.1599 72.3657 10.1599 74.5803C10.1599 76.795 11.9553 78.5903 14.1699 78.5903Z" fill="#DDDBDB"/>
<path d="M14.1699 64.3305C16.3846 64.3305 18.1799 62.5352 18.1799 60.3205C18.1799 58.1059 16.3846 56.3105 14.1699 56.3105C11.9553 56.3105 10.1599 58.1059 10.1599 60.3205C10.1599 62.5352 11.9553 64.3305 14.1699 64.3305Z" fill="#DDDBDB"/>
<path d="M14.1699 50.061C16.3846 50.061 18.1799 48.2657 18.1799 46.051C18.1799 43.8364 16.3846 42.041 14.1699 42.041C11.9553 42.041 10.1599 43.8364 10.1599 46.051C10.1599 48.2657 11.9553 50.061 14.1699 50.061Z" fill="#DDDBDB"/>
<path d="M14.1699 35.8012C16.3846 35.8012 18.1799 34.0059 18.1799 31.7913C18.1799 29.5766 16.3846 27.7812 14.1699 27.7812C11.9553 27.7812 10.1599 29.5766 10.1599 31.7913C10.1599 34.0059 11.9553 35.8012 14.1699 35.8012Z" fill="#DDDBDB"/>
<path d="M14.1699 21.5415C16.3846 21.5415 18.1799 19.7461 18.1799 17.5315C18.1799 15.3168 16.3846 13.5215 14.1699 13.5215C11.9553 13.5215 10.1599 15.3168 10.1599 17.5315C10.1599 19.7461 11.9553 21.5415 14.1699 21.5415Z" fill="#DDDBDB"/>
<path d="M23.23 85.7212C25.4446 85.7212 27.24 83.9258 27.24 81.7112C27.24 79.4965 25.4446 77.7012 23.23 77.7012C21.0153 77.7012 19.22 79.4965 19.22 81.7112C19.22 83.9258 21.0153 85.7212 23.23 85.7212Z" fill="#DDDBDB"/>
<path d="M23.23 71.4614C25.4446 71.4614 27.24 69.6661 27.24 67.4514C27.24 65.2367 25.4446 63.4414 23.23 63.4414C21.0153 63.4414 19.22 65.2367 19.22 67.4514C19.22 69.6661 21.0153 71.4614 23.23 71.4614Z" fill="#DDDBDB"/>
<path d="M23.23 57.1899C25.4446 57.1899 27.24 55.3946 27.24 53.1799C27.24 50.9653 25.4446 49.1699 23.23 49.1699C21.0153 49.1699 19.22 50.9653 19.22 53.1799C19.22 55.3946 21.0153 57.1899 23.23 57.1899Z" fill="#DDDBDB"/>
<path d="M23.23 42.9302C25.4446 42.9302 27.24 41.1348 27.24 38.9202C27.24 36.7055 25.4446 34.9102 23.23 34.9102C21.0153 34.9102 19.22 36.7055 19.22 38.9202C19.22 41.1348 21.0153 42.9302 23.23 42.9302Z" fill="#DDDBDB"/>
<path d="M23.23 28.6704C25.4446 28.6704 27.24 26.8751 27.24 24.6604C27.24 22.4457 25.4446 20.6504 23.23 20.6504C21.0153 20.6504 19.22 22.4457 19.22 24.6604C19.22 26.8751 21.0153 28.6704 23.23 28.6704Z" fill="#DDDBDB"/>
<path d="M23.23 14.4106C25.4446 14.4106 27.24 12.6153 27.24 10.4006C27.24 8.18596 25.4446 6.39062 23.23 6.39062C21.0153 6.39062 19.22 8.18596 19.22 10.4006C19.22 12.6153 21.0153 14.4106 23.23 14.4106Z" fill="#DDDBDB"/>
<path d="M32.6799 78.5903C34.8946 78.5903 36.6899 76.795 36.6899 74.5803C36.6899 72.3657 34.8946 70.5703 32.6799 70.5703C30.4653 70.5703 28.6699 72.3657 28.6699 74.5803C28.6699 76.795 30.4653 78.5903 32.6799 78.5903Z" fill="#DDDBDB"/>
<path d="M32.6799 64.3305C34.8946 64.3305 36.6899 62.5352 36.6899 60.3205C36.6899 58.1059 34.8946 56.3105 32.6799 56.3105C30.4653 56.3105 28.6699 58.1059 28.6699 60.3205C28.6699 62.5352 30.4653 64.3305 32.6799 64.3305Z" fill="#DDDBDB"/>
<path d="M32.6799 50.061C34.8946 50.061 36.6899 48.2657 36.6899 46.051C36.6899 43.8364 34.8946 42.041 32.6799 42.041C30.4653 42.041 28.6699 43.8364 28.6699 46.051C28.6699 48.2657 30.4653 50.061 32.6799 50.061Z" fill="#DDDBDB"/>
<path d="M32.6799 35.8012C34.8946 35.8012 36.6899 34.0059 36.6899 31.7913C36.6899 29.5766 34.8946 27.7812 32.6799 27.7812C30.4653 27.7812 28.6699 29.5766 28.6699 31.7913C28.6699 34.0059 30.4653 35.8012 32.6799 35.8012Z" fill="#DDDBDB"/>
<path d="M32.6799 21.5415C34.8946 21.5415 36.6899 19.7461 36.6899 17.5315C36.6899 15.3168 34.8946 13.5215 32.6799 13.5215C30.4653 13.5215 28.6699 15.3168 28.6699 17.5315C28.6699 19.7461 30.4653 21.5415 32.6799 21.5415Z" fill="#DDDBDB"/>
<path d="M41.74 85.7212C43.9546 85.7212 45.75 83.9258 45.75 81.7112C45.75 79.4965 43.9546 77.7012 41.74 77.7012C39.5253 77.7012 37.73 79.4965 37.73 81.7112C37.73 83.9258 39.5253 85.7212 41.74 85.7212Z" fill="#DDDBDB"/>
<path d="M41.74 71.4614C43.9546 71.4614 45.75 69.6661 45.75 67.4514C45.75 65.2367 43.9546 63.4414 41.74 63.4414C39.5253 63.4414 37.73 65.2367 37.73 67.4514C37.73 69.6661 39.5253 71.4614 41.74 71.4614Z" fill="#DDDBDB"/>
<path d="M41.74 57.1899C43.9546 57.1899 45.75 55.3946 45.75 53.1799C45.75 50.9653 43.9546 49.1699 41.74 49.1699C39.5253 49.1699 37.73 50.9653 37.73 53.1799C37.73 55.3946 39.5253 57.1899 41.74 57.1899Z" fill="#DDDBDB"/>
<path d="M41.74 42.9302C43.9546 42.9302 45.75 41.1348 45.75 38.9202C45.75 36.7055 43.9546 34.9102 41.74 34.9102C39.5253 34.9102 37.73 36.7055 37.73 38.9202C37.73 41.1348 39.5253 42.9302 41.74 42.9302Z" fill="#DDDBDB"/>
<path d="M41.74 28.6704C43.9546 28.6704 45.75 26.8751 45.75 24.6604C45.75 22.4457 43.9546 20.6504 41.74 20.6504C39.5253 20.6504 37.73 22.4457 37.73 24.6604C37.73 26.8751 39.5253 28.6704 41.74 28.6704Z" fill="#DDDBDB"/>
<path d="M41.74 14.4106C43.9546 14.4106 45.75 12.6153 45.75 10.4006C45.75 8.18596 43.9546 6.39062 41.74 6.39062C39.5253 6.39062 37.73 8.18596 37.73 10.4006C37.73 12.6153 39.5253 14.4106 41.74 14.4106Z" fill="#DDDBDB"/>
<path d="M51.1999 78.5903C53.4146 78.5903 55.2099 76.795 55.2099 74.5803C55.2099 72.3657 53.4146 70.5703 51.1999 70.5703C48.9853 70.5703 47.1899 72.3657 47.1899 74.5803C47.1899 76.795 48.9853 78.5903 51.1999 78.5903Z" fill="#DDDBDB"/>
<path d="M51.1999 64.3305C53.4146 64.3305 55.2099 62.5352 55.2099 60.3205C55.2099 58.1059 53.4146 56.3105 51.1999 56.3105C48.9853 56.3105 47.1899 58.1059 47.1899 60.3205C47.1899 62.5352 48.9853 64.3305 51.1999 64.3305Z" fill="#DDDBDB"/>
<path d="M51.1999 50.061C53.4146 50.061 55.2099 48.2657 55.2099 46.051C55.2099 43.8364 53.4146 42.041 51.1999 42.041C48.9853 42.041 47.1899 43.8364 47.1899 46.051C47.1899 48.2657 48.9853 50.061 51.1999 50.061Z" fill="#DDDBDB"/>
<path d="M51.1999 35.8012C53.4146 35.8012 55.2099 34.0059 55.2099 31.7913C55.2099 29.5766 53.4146 27.7812 51.1999 27.7812C48.9853 27.7812 47.1899 29.5766 47.1899 31.7913C47.1899 34.0059 48.9853 35.8012 51.1999 35.8012Z" fill="#DDDBDB"/>
<path d="M51.1999 21.5415C53.4146 21.5415 55.2099 19.7461 55.2099 17.5315C55.2099 15.3168 53.4146 13.5215 51.1999 13.5215C48.9853 13.5215 47.1899 15.3168 47.1899 17.5315C47.1899 19.7461 48.9853 21.5415 51.1999 21.5415Z" fill="#DDDBDB"/>
<path d="M60.26 85.7212C62.4747 85.7212 64.27 83.9258 64.27 81.7112C64.27 79.4965 62.4747 77.7012 60.26 77.7012C58.0453 77.7012 56.25 79.4965 56.25 81.7112C56.25 83.9258 58.0453 85.7212 60.26 85.7212Z" fill="#DDDBDB"/>
<path d="M60.26 71.4614C62.4747 71.4614 64.27 69.6661 64.27 67.4514C64.27 65.2367 62.4747 63.4414 60.26 63.4414C58.0453 63.4414 56.25 65.2367 56.25 67.4514C56.25 69.6661 58.0453 71.4614 60.26 71.4614Z" fill="#DDDBDB"/>
<path d="M60.26 57.1899C62.4747 57.1899 64.27 55.3946 64.27 53.1799C64.27 50.9653 62.4747 49.1699 60.26 49.1699C58.0453 49.1699 56.25 50.9653 56.25 53.1799C56.25 55.3946 58.0453 57.1899 60.26 57.1899Z" fill="#DDDBDB"/>
<path d="M60.26 42.9302C62.4747 42.9302 64.27 41.1348 64.27 38.9202C64.27 36.7055 62.4747 34.9102 60.26 34.9102C58.0453 34.9102 56.25 36.7055 56.25 38.9202C56.25 41.1348 58.0453 42.9302 60.26 42.9302Z" fill="#DDDBDB"/>
<path d="M60.26 28.6704C62.4747 28.6704 64.27 26.8751 64.27 24.6604C64.27 22.4457 62.4747 20.6504 60.26 20.6504C58.0453 20.6504 56.25 22.4457 56.25 24.6604C56.25 26.8751 58.0453 28.6704 60.26 28.6704Z" fill="#DDDBDB"/>
<path d="M60.26 14.4106C62.4747 14.4106 64.27 12.6153 64.27 10.4006C64.27 8.18596 62.4747 6.39062 60.26 6.39062C58.0453 6.39062 56.25 8.18596 56.25 10.4006C56.25 12.6153 58.0453 14.4106 60.26 14.4106Z" fill="#DDDBDB"/>
<path d="M69.7099 78.5903C71.9246 78.5903 73.72 76.795 73.72 74.5803C73.72 72.3657 71.9246 70.5703 69.7099 70.5703C67.4953 70.5703 65.7 72.3657 65.7 74.5803C65.7 76.795 67.4953 78.5903 69.7099 78.5903Z" fill="#DDDBDB"/>
<path d="M69.7099 64.3305C71.9246 64.3305 73.72 62.5352 73.72 60.3205C73.72 58.1059 71.9246 56.3105 69.7099 56.3105C67.4953 56.3105 65.7 58.1059 65.7 60.3205C65.7 62.5352 67.4953 64.3305 69.7099 64.3305Z" fill="#DDDBDB"/>
<path d="M69.7099 50.061C71.9246 50.061 73.72 48.2657 73.72 46.051C73.72 43.8364 71.9246 42.041 69.7099 42.041C67.4953 42.041 65.7 43.8364 65.7 46.051C65.7 48.2657 67.4953 50.061 69.7099 50.061Z" fill="#DDDBDB"/>
<path d="M69.7099 35.8012C71.9246 35.8012 73.72 34.0059 73.72 31.7913C73.72 29.5766 71.9246 27.7812 69.7099 27.7812C67.4953 27.7812 65.7 29.5766 65.7 31.7913C65.7 34.0059 67.4953 35.8012 69.7099 35.8012Z" fill="#DDDBDB"/>
<path d="M69.7099 21.5415C71.9246 21.5415 73.72 19.7461 73.72 17.5315C73.72 15.3168 71.9246 13.5215 69.7099 13.5215C67.4953 13.5215 65.7 15.3168 65.7 17.5315C65.7 19.7461 67.4953 21.5415 69.7099 21.5415Z" fill="#DDDBDB"/>
<path d="M78.77 85.7212C80.9847 85.7212 82.78 83.9258 82.78 81.7112C82.78 79.4965 80.9847 77.7012 78.77 77.7012C76.5553 77.7012 74.76 79.4965 74.76 81.7112C74.76 83.9258 76.5553 85.7212 78.77 85.7212Z" fill="#DDDBDB"/>
<path d="M78.77 71.4614C80.9847 71.4614 82.78 69.6661 82.78 67.4514C82.78 65.2367 80.9847 63.4414 78.77 63.4414C76.5553 63.4414 74.76 65.2367 74.76 67.4514C74.76 69.6661 76.5553 71.4614 78.77 71.4614Z" fill="#DDDBDB"/>
<path d="M78.77 57.1899C80.9847 57.1899 82.78 55.3946 82.78 53.1799C82.78 50.9653 80.9847 49.1699 78.77 49.1699C76.5553 49.1699 74.76 50.9653 74.76 53.1799C74.76 55.3946 76.5553 57.1899 78.77 57.1899Z" fill="#DDDBDB"/>
<path d="M78.77 42.9302C80.9847 42.9302 82.78 41.1348 82.78 38.9202C82.78 36.7055 80.9847 34.9102 78.77 34.9102C76.5553 34.9102 74.76 36.7055 74.76 38.9202C74.76 41.1348 76.5553 42.9302 78.77 42.9302Z" fill="#DDDBDB"/>
<path d="M78.77 28.6704C80.9847 28.6704 82.78 26.8751 82.78 24.6604C82.78 22.4457 80.9847 20.6504 78.77 20.6504C76.5553 20.6504 74.76 22.4457 74.76 24.6604C74.76 26.8751 76.5553 28.6704 78.77 28.6704Z" fill="#DDDBDB"/>
<path d="M78.77 14.4106C80.9847 14.4106 82.78 12.6153 82.78 10.4006C82.78 8.18596 80.9847 6.39062 78.77 6.39062C76.5553 6.39062 74.76 8.18596 74.76 10.4006C74.76 12.6153 76.5553 14.4106 78.77 14.4106Z" fill="#DDDBDB"/>
<path d="M88.23 78.5903C90.4446 78.5903 92.24 76.795 92.24 74.5803C92.24 72.3657 90.4446 70.5703 88.23 70.5703C86.0153 70.5703 84.22 72.3657 84.22 74.5803C84.22 76.795 86.0153 78.5903 88.23 78.5903Z" fill="#DDDBDB"/>
<path d="M88.23 64.3305C90.4446 64.3305 92.24 62.5352 92.24 60.3205C92.24 58.1059 90.4446 56.3105 88.23 56.3105C86.0153 56.3105 84.22 58.1059 84.22 60.3205C84.22 62.5352 86.0153 64.3305 88.23 64.3305Z" fill="#DDDBDB"/>
<path d="M88.23 50.061C90.4446 50.061 92.24 48.2657 92.24 46.051C92.24 43.8364 90.4446 42.041 88.23 42.041C86.0153 42.041 84.22 43.8364 84.22 46.051C84.22 48.2657 86.0153 50.061 88.23 50.061Z" fill="#DDDBDB"/>
<path d="M88.23 35.8012C90.4446 35.8012 92.24 34.0059 92.24 31.7913C92.24 29.5766 90.4446 27.7812 88.23 27.7812C86.0153 27.7812 84.22 29.5766 84.22 31.7913C84.22 34.0059 86.0153 35.8012 88.23 35.8012Z" fill="#DDDBDB"/>
<path d="M88.23 21.5415C90.4446 21.5415 92.24 19.7461 92.24 17.5315C92.24 15.3168 90.4446 13.5215 88.23 13.5215C86.0153 13.5215 84.22 15.3168 84.22 17.5315C84.22 19.7461 86.0153 21.5415 88.23 21.5415Z" fill="#DDDBDB"/>
<path d="M96.6999 85.7212C98.9146 85.7212 100.71 83.9258 100.71 81.7112C100.71 79.4965 98.9146 77.7012 96.6999 77.7012C94.4853 77.7012 92.6899 79.4965 92.6899 81.7112C92.6899 83.9258 94.4853 85.7212 96.6999 85.7212Z" fill="#DDDBDB"/>
<path d="M96.6999 71.4614C98.9146 71.4614 100.71 69.6661 100.71 67.4514C100.71 65.2367 98.9146 63.4414 96.6999 63.4414C94.4853 63.4414 92.6899 65.2367 92.6899 67.4514C92.6899 69.6661 94.4853 71.4614 96.6999 71.4614Z" fill="#DDDBDB"/>
<path d="M96.6999 57.1899C98.9146 57.1899 100.71 55.3946 100.71 53.1799C100.71 50.9653 98.9146 49.1699 96.6999 49.1699C94.4853 49.1699 92.6899 50.9653 92.6899 53.1799C92.6899 55.3946 94.4853 57.1899 96.6999 57.1899Z" fill="#DDDBDB"/>
<path d="M96.6999 42.9302C98.9146 42.9302 100.71 41.1348 100.71 38.9202C100.71 36.7055 98.9146 34.9102 96.6999 34.9102C94.4853 34.9102 92.6899 36.7055 92.6899 38.9202C92.6899 41.1348 94.4853 42.9302 96.6999 42.9302Z" fill="#DDDBDB"/>
<path d="M96.6999 28.6704C98.9146 28.6704 100.71 26.8751 100.71 24.6604C100.71 22.4457 98.9146 20.6504 96.6999 20.6504C94.4853 20.6504 92.6899 22.4457 92.6899 24.6604C92.6899 26.8751 94.4853 28.6704 96.6999 28.6704Z" fill="#DDDBDB"/>
<path d="M96.6999 14.4106C98.9146 14.4106 100.71 12.6153 100.71 10.4006C100.71 8.18596 98.9146 6.39062 96.6999 6.39062C94.4853 6.39062 92.6899 8.18596 92.6899 10.4006C92.6899 12.6153 94.4853 14.4106 96.6999 14.4106Z" fill="#DDDBDB"/>
<path d="M106.16 78.5903C108.375 78.5903 110.17 76.795 110.17 74.5803C110.17 72.3657 108.375 70.5703 106.16 70.5703C103.945 70.5703 102.15 72.3657 102.15 74.5803C102.15 76.795 103.945 78.5903 106.16 78.5903Z" fill="#DDDBDB"/>
<path d="M106.16 64.3305C108.375 64.3305 110.17 62.5352 110.17 60.3205C110.17 58.1059 108.375 56.3105 106.16 56.3105C103.945 56.3105 102.15 58.1059 102.15 60.3205C102.15 62.5352 103.945 64.3305 106.16 64.3305Z" fill="#DDDBDB"/>
<path d="M106.16 50.061C108.375 50.061 110.17 48.2657 110.17 46.051C110.17 43.8364 108.375 42.041 106.16 42.041C103.945 42.041 102.15 43.8364 102.15 46.051C102.15 48.2657 103.945 50.061 106.16 50.061Z" fill="#DDDBDB"/>
<path d="M106.16 35.8012C108.375 35.8012 110.17 34.0059 110.17 31.7913C110.17 29.5766 108.375 27.7812 106.16 27.7812C103.945 27.7812 102.15 29.5766 102.15 31.7913C102.15 34.0059 103.945 35.8012 106.16 35.8012Z" fill="#DDDBDB"/>
<path d="M106.16 21.5415C108.375 21.5415 110.17 19.7461 110.17 17.5315C110.17 15.3168 108.375 13.5215 106.16 13.5215C103.945 13.5215 102.15 15.3168 102.15 17.5315C102.15 19.7461 103.945 21.5415 106.16 21.5415Z" fill="#DDDBDB"/>
<path d="M23.72 100.59C25.9346 100.59 27.73 98.795 27.73 96.5803C27.73 94.3657 25.9346 92.5703 23.72 92.5703C21.5053 92.5703 19.71 94.3657 19.71 96.5803C19.71 98.795 21.5053 100.59 23.72 100.59Z" fill="#DDDBDB"/>
<path d="M32.78 107.719C34.9947 107.719 36.79 105.924 36.79 103.709C36.79 101.495 34.9947 99.6992 32.78 99.6992C30.5654 99.6992 28.77 101.495 28.77 103.709C28.77 105.924 30.5654 107.719 32.78 107.719Z" fill="#DDDBDB"/>
<path d="M51.29 107.719C53.5047 107.719 55.3 105.924 55.3 103.709C55.3 101.495 53.5047 99.6992 51.29 99.6992C49.0754 99.6992 47.28 101.495 47.28 103.709C47.28 105.924 49.0754 107.719 51.29 107.719Z" fill="#DDDBDB"/>
<path d="M69.8 107.719C72.0147 107.719 73.81 105.924 73.81 103.709C73.81 101.495 72.0147 99.6992 69.8 99.6992C67.5854 99.6992 65.79 101.495 65.79 103.709C65.79 105.924 67.5854 107.719 69.8 107.719Z" fill="#DDDBDB"/>
<path d="M88.3201 107.719C90.5347 107.719 92.3301 105.924 92.3301 103.709C92.3301 101.495 90.5347 99.6992 88.3201 99.6992C86.1054 99.6992 84.3101 101.495 84.3101 103.709C84.3101 105.924 86.1054 107.719 88.3201 107.719Z" fill="#DDDBDB"/>
<path d="M106.25 107.719C108.465 107.719 110.26 105.924 110.26 103.709C110.26 101.495 108.465 99.6992 106.25 99.6992C104.035 99.6992 102.24 101.495 102.24 103.709C102.24 105.924 104.035 107.719 106.25 107.719Z" fill="#DDDBDB"/>
<path d="M19.3101 117.171H109.63C112.39 117.171 114.62 114.941 114.62 112.181C114.62 109.421 112.39 107.191 109.63 107.191H18.8101V89.5508" fill="white"/>
<path d="M19.3101 117.171H109.63C112.39 117.171 114.62 114.941 114.62 112.181C114.62 109.421 112.39 107.191 109.63 107.191H18.8101V89.5508" stroke="black" stroke-width="3" stroke-miterlimit="10"/>
<path d="M19.3101 89.5508H109.63C112.39 89.5508 114.62 91.7808 114.62 94.5408C114.62 97.3008 112.39 99.5308 109.63 99.5308H28.0001V89.5508" stroke="black" stroke-width="3" stroke-miterlimit="10"/>
<path d="M114.62 112.18V6.49C114.62 3.73 112.39 1.5 109.63 1.5H10.49C7.73 1.5 5.5 3.73 5.5 6.49V103.36" stroke="black" stroke-width="3" stroke-miterlimit="10"/>
<path d="M19.31 89.5508C11.68 89.5508 5.5 95.7308 5.5 103.361C5.5 110.991 11.68 117.171 19.31 117.171" stroke="black" stroke-width="3" stroke-miterlimit="10"/>
</g>
<defs>
<filter id="filter0_d_1583_5213" x="0" y="0" width="120.12" height="126.67" filterUnits="userSpaceOnUse" color-interpolation-filters="sRGB">
<feFlood flood-opacity="0" result="BackgroundImageFix"/>
<feColorMatrix in="SourceAlpha" type="matrix" values="0 0 0 0 0 0 0 0 0 0 0 0 0 0 0 0 0 0 127 0" result="hardAlpha"/>
<feOffset dy="4"/>
<feGaussianBlur stdDeviation="2"/>
<feComposite in2="hardAlpha" operator="out"/>
<feColorMatrix type="matrix" values="0 0 0 0 0 0 0 0 0 0 0 0 0 0 0 0 0 0 0.25 0"/>
<feBlend mode="normal" in2="BackgroundImageFix" result="effect1_dropShadow_1583_5213"/>
<feBlend mode="normal" in="SourceGraphic" in2="effect1_dropShadow_1583_5213" result="shape"/>
</filter>
<clipPath id="clip0_1583_5213">
<rect width="112.12" height="118.67" fill="white" transform="translate(4)"/>
</clipPath>
</defs>
</svg>
