<svg width="51" height="44" viewBox="0 0 51 44" fill="none" xmlns="http://www.w3.org/2000/svg">
<g clip-path="url(#clip0_1015_889)">
<path d="M7.16438 44V22C7.16438 15.8813 9.28767 10.67 13.5479 6.4075C17.7945 2.13125 22.9726 0 29.0822 0C35.1781 0 40.3562 2.13125 44.6164 6.4075C48.8767 10.6837 51 15.8675 51 22C51 28.1187 48.8767 33.3162 44.6164 37.5925C40.3562 41.8688 35.1781 44 29.0822 44H7.16438ZM10.274 40.8787H29.0822C34.2877 40.8787 38.726 39.0362 42.3973 35.365C46.0685 31.6937 47.8904 27.2388 47.8904 22.0138C47.8904 16.7887 46.0548 12.3337 42.3973 8.64875C38.7397 4.96375 34.3014 3.12125 29.0959 3.12125C23.8904 3.12125 19.4521 4.96375 15.7808 8.635C12.1096 12.32 10.274 16.7612 10.274 22V40.8787ZM29.0822 30.9375C31.5616 30.9375 33.6575 30.0713 35.3836 28.325C37.1096 26.5925 37.9863 24.475 37.9863 22C37.9863 19.525 37.1233 17.4075 35.3836 15.675C33.6575 13.9425 31.5479 13.0625 29.0822 13.0625C26.6164 13.0625 24.5068 13.9287 22.7808 15.675C21.0548 17.4075 20.1781 19.525 20.1781 22C20.1781 24.475 21.0411 26.5925 22.7808 28.325C24.5068 30.0575 26.6164 30.9375 29.0822 30.9375ZM29.0822 27.8162C27.4658 27.8162 26.0822 27.2525 24.9589 26.1388C23.8356 25.0112 23.274 23.65 23.274 22.0138C23.274 20.3775 23.8356 19.0025 24.9452 17.875C26.0548 16.7475 27.4247 16.1838 29.0548 16.1838C30.6849 16.1838 32.0548 16.7475 33.1781 17.8612C34.3014 18.9888 34.863 20.35 34.863 21.9862C34.863 23.6225 34.3014 24.9975 33.1918 26.125C32.0822 27.2525 30.7123 27.8162 29.0822 27.8162ZM0 44V31.625H3.10959V44H0Z" fill="black"/>
</g>
<defs>
<clipPath id="clip0_1015_889">
<rect width="51" height="44" fill="white"/>
</clipPath>
</defs>
</svg>
