<svg width="51" height="54" viewBox="0 0 51 54" fill="none" xmlns="http://www.w3.org/2000/svg">
<g clip-path="url(#clip0_1583_5304)">
<path d="M43.1954 5.3243V1.47196C43.1954 0.656075 42.5366 0 41.7173 0H1.47814C0.658827 0 0 0.656075 0 1.47196V52.528C0 53.3439 0.658827 54 1.47814 54H41.7173C42.5366 54 43.1954 53.3439 43.1954 52.528V48.5327H40.2392V51.0561H23.0759V49.5841H20.1196V51.0561H2.95628V2.94393H20.1196V4.41589H23.0759V2.94393H40.2392V5.3243H43.1954Z" fill="black"/>
<path d="M23.0759 23.7695H20.1196V30.2209H23.0759V23.7695Z" fill="black"/>
<path d="M23.0759 36.6816H20.1196V43.133H23.0759V36.6816Z" fill="black"/>
<path d="M23.0759 10.8672H20.1196V17.3186H23.0759V10.8672Z" fill="black"/>
<path d="M50.0455 8.18484C49.412 7.554 48.6518 7.23438 47.7734 7.23438H35.1543C34.2759 7.23438 33.5072 7.554 32.8822 8.18484C32.2487 8.81568 31.9277 9.57269 31.9277 10.4475V43.554C31.9277 44.4288 32.2487 45.1858 32.8822 45.8166C33.5157 46.4475 34.2759 46.7671 35.1543 46.7671H47.7734C48.6518 46.7671 49.4204 46.4475 50.0455 45.8166C50.679 45.1858 50.9999 44.4204 50.9999 43.554V10.4475C50.9999 9.57269 50.679 8.80727 50.0455 8.18484ZM48.1535 32.14C48.1535 33.1073 47.7987 33.9316 47.0808 34.6465C46.3544 35.3699 45.5351 35.7147 44.5722 35.7147C43.6093 35.7147 42.7815 35.3615 42.0466 34.6465C41.3202 33.9232 40.9655 33.1073 40.9655 32.14V28.4222H48.1535V32.14ZM48.1535 25.5876H40.9655V21.8699C40.9655 20.911 41.3202 20.0867 42.0466 19.3633C42.773 18.64 43.6008 18.2867 44.5637 18.2867C45.5266 18.2867 46.3459 18.64 47.0723 19.3633C47.7987 20.0867 48.1535 20.9026 48.1535 21.8699V25.5876ZM48.1535 16.5792C47.7058 16.2764 47.2244 16.0325 46.7091 15.839C46.025 15.5867 45.2986 15.4521 44.5553 15.4521C42.8237 15.4521 41.3034 16.0914 40.0279 17.3615C38.7525 18.6316 38.1106 20.1456 38.1106 21.8699V32.14C38.1106 33.8811 38.7525 35.3951 40.0279 36.6568C41.2949 37.9185 42.8237 38.5577 44.5553 38.5577C45.2901 38.5577 46.0165 38.4316 46.7007 38.1708C47.2159 37.9774 47.7058 37.725 48.145 37.4306V43.5624C48.145 43.6802 48.1112 43.7643 48.0437 43.84C47.9761 43.9073 47.8832 43.9409 47.7649 43.9409H35.1459C35.0276 43.9409 34.9431 43.9073 34.8671 43.84C34.7995 43.7727 34.7658 43.6802 34.7658 43.5624V10.4475C34.7658 10.3297 34.7995 10.2372 34.8671 10.1699C34.9347 10.1026 35.0276 10.069 35.1459 10.069H47.7649C47.8832 10.069 47.9676 10.1026 48.0437 10.1699C48.1112 10.2372 48.145 10.3297 48.145 10.4475V16.5792H48.1535Z" fill="black"/>
</g>
<defs>
<clipPath id="clip0_1583_5304">
<rect width="51" height="54" fill="white"/>
</clipPath>
</defs>
</svg>
