<svg width="187" height="188" viewBox="0 0 187 188" fill="none" xmlns="http://www.w3.org/2000/svg">
<g clip-path="url(#clip0_1015_1158)">
<path d="M180.479 99.8999C181.599 99.8999 182.589 99.2299 183.019 98.1999C183.449 97.1699 183.209 95.9899 182.419 95.1999L173.779 86.5599H141.159V102.59H156.639V110.39H156.629V120.07C156.629 122.28 155.829 124.43 154.379 126.1L143.699 138.41C142.059 140.29 141.159 142.71 141.159 145.2V173.48C141.159 179.19 145.809 183.84 151.519 183.84H182.549V135.99C182.549 133.96 181.989 131.98 180.939 130.25L173.549 118.13C172.919 117.09 172.539 115.9 172.459 114.69L172.269 111.84V99.8999H180.469H180.479ZM144.159 99.5999V89.5699H172.539L179.869 96.8999H169.269V110.4H159.639V99.5999H144.159ZM178.379 131.82C179.149 133.08 179.549 134.53 179.549 136V180.85H151.519C147.459 180.85 144.159 177.55 144.159 173.49V145.21C144.159 143.44 144.799 141.72 145.959 140.38L156.639 128.07C158.559 125.85 159.629 123.01 159.629 120.07V113.39H169.369L169.469 114.88C169.589 116.58 170.109 118.24 170.999 119.68L178.389 131.8L178.379 131.82ZM125.999 96.3299C125.459 96.8599 124.789 97.1199 123.989 97.1199C123.189 97.1199 122.549 96.8599 122.009 96.3299C121.469 95.7999 121.199 95.1399 121.199 94.3399C121.199 93.5399 121.469 92.8799 122.009 92.3499C122.549 91.8199 123.209 91.5599 123.989 91.5599C124.769 91.5599 125.459 91.8199 125.999 92.3499C126.539 92.8799 126.809 93.5399 126.809 94.3399C126.809 95.1399 126.539 95.7999 125.999 96.3299ZM113.629 67.5199C113.089 68.0499 112.419 68.3099 111.619 68.3099C110.819 68.3099 110.179 68.0499 109.639 67.5199C109.099 66.9899 108.829 66.3299 108.829 65.5299C108.829 64.7299 109.099 64.0699 109.639 63.5399C110.179 63.0099 110.839 62.7499 111.619 62.7499C112.399 62.7499 113.089 63.0099 113.629 63.5399C114.169 64.0699 114.439 64.7299 114.439 65.5299C114.439 66.3299 114.169 66.9899 113.629 67.5199ZM113.629 96.3299C113.089 96.8599 112.419 97.1199 111.619 97.1199C110.819 97.1199 110.179 96.8599 109.639 96.3299C109.099 95.7999 108.829 95.1399 108.829 94.3399C108.829 93.5399 109.099 92.8799 109.639 92.3499C110.179 91.8199 110.839 91.5599 111.619 91.5599C112.399 91.5599 113.089 91.8199 113.629 92.3499C114.169 92.8799 114.439 93.5399 114.439 94.3399C114.439 95.1399 114.169 95.7999 113.629 96.3299ZM100.049 96.5399C99.5094 97.0699 98.8394 97.3299 98.0394 97.3299C97.2394 97.3299 96.5994 97.0699 96.0594 96.5399C95.5194 96.0099 95.2494 95.3499 95.2494 94.5499C95.2494 93.7499 95.5194 93.0899 96.0594 92.5599C96.5994 92.0299 97.2594 91.7699 98.0394 91.7699C98.8194 91.7699 99.5094 92.0299 100.049 92.5599C100.589 93.0899 100.859 93.7499 100.859 94.5499C100.859 95.3499 100.589 96.0099 100.049 96.5399ZM132.129 105.55C131.599 106.09 130.939 106.36 130.139 106.36C129.339 106.36 128.679 106.09 128.149 105.55C127.619 105.01 127.359 104.35 127.359 103.57C127.359 102.79 127.619 102.1 128.149 101.56C128.679 101.02 129.339 100.75 130.139 100.75C130.939 100.75 131.599 101.02 132.129 101.56C132.659 102.1 132.919 102.77 132.919 103.57C132.919 104.37 132.659 105.01 132.129 105.55ZM113.639 125.41C113.109 125.95 112.449 126.22 111.649 126.22C110.849 126.22 110.189 125.95 109.659 125.41C109.129 124.87 108.869 124.21 108.869 123.43C108.869 122.65 109.129 121.96 109.659 121.42C110.189 120.88 110.849 120.61 111.649 120.61C112.449 120.61 113.109 120.88 113.639 121.42C114.169 121.96 114.429 122.63 114.429 123.43C114.429 124.23 114.169 124.87 113.639 125.41ZM123.319 114.29C122.789 114.83 122.129 115.1 121.329 115.1C120.529 115.1 119.869 114.83 119.339 114.29C118.809 113.75 118.549 113.09 118.549 112.31C118.549 111.51 118.809 110.84 119.339 110.3C119.869 109.76 120.529 109.49 121.329 109.49C122.129 109.49 122.789 109.76 123.319 110.3C123.849 110.84 124.109 111.51 124.109 112.31C124.109 113.11 123.849 113.75 123.319 114.29ZM132.129 87.1199C131.599 87.6599 130.939 87.9299 130.139 87.9299C129.339 87.9299 128.679 87.6599 128.149 87.1199C127.619 86.5799 127.359 85.9099 127.359 85.1099C127.359 84.3099 127.619 83.6699 128.149 83.1299C128.679 82.5899 129.339 82.3199 130.139 82.3199C130.939 82.3199 131.599 82.5899 132.129 83.1299C132.659 83.6699 132.919 84.3299 132.919 85.1099C132.919 85.8899 132.659 86.5799 132.129 87.1199ZM123.319 78.3799C122.789 78.9199 122.129 79.1899 121.329 79.1899C120.529 79.1899 119.869 78.9199 119.339 78.3799C118.809 77.8399 118.549 77.1699 118.549 76.3699C118.549 75.5699 118.809 74.9299 119.339 74.3899C119.869 73.8499 120.529 73.5799 121.329 73.5799C122.129 73.5799 122.789 73.8499 123.319 74.3899C123.849 74.9299 124.109 75.5899 124.109 76.3699C124.109 77.1499 123.849 77.8399 123.319 78.3799ZM186.159 31.7199C186.159 32.5499 185.489 33.2199 184.659 33.2199H34.9594V186.11C34.9594 186.94 34.2894 187.61 33.4594 187.61C32.6294 187.61 31.9594 186.94 31.9594 186.11V32.3599L0.469399 2.58989C-0.130601 2.01989 -0.160601 1.06989 0.409399 0.469887C0.979399 -0.130113 1.9294 -0.160113 2.5294 0.409887L34.0594 30.2099H184.659C185.489 30.2099 186.159 30.8799 186.159 31.7099V31.7199Z" fill="black"/>
</g>
<defs>
<clipPath id="clip0_1015_1158">
<rect width="186.16" height="187.61" fill="white"/>
</clipPath>
</defs>
</svg>
