<svg width="51" height="51" viewBox="0 0 51 51" fill="none" xmlns="http://www.w3.org/2000/svg">
<g clip-path="url(#clip0_1015_885)">
<path d="M26.4797 21.8092H34.0895L24.7753 44.8532V28.8821H17.1655L26.4797 5.77105V21.7958V21.8092ZM51 25.5C51 29.0834 50.3424 32.4253 49.0271 35.5255C47.7118 38.6258 45.9 41.3368 43.5916 43.6318C41.2832 45.9403 38.5855 47.7387 35.4853 49.0405C32.385 50.3424 29.0566 51 25.5 51C21.9434 51 18.5747 50.3424 15.4745 49.0405C12.3742 47.7387 9.66316 45.9403 7.36816 43.6318C5.05974 41.3234 3.26132 38.6258 1.95947 35.5255C0.657632 32.4253 0 29.0834 0 25.5C0 21.9166 0.657632 18.615 1.95947 15.5147C3.26132 12.4145 5.05974 9.70342 7.36816 7.40842C9.67658 5.1 12.3742 3.28816 15.4745 1.97289C18.5747 0.657632 21.9166 0 25.5 0C29.0834 0 32.385 0.657632 35.4853 1.97289C38.5855 3.28816 41.2966 5.1 43.5916 7.40842C45.9 9.71684 47.7118 12.4145 49.0271 15.5147C50.3424 18.615 51 21.9434 51 25.5ZM47.9534 25.5C47.9534 19.1653 45.7926 13.8371 41.4711 9.52895C37.1495 5.20737 31.8213 3.04658 25.5 3.04658C20.0108 3.04658 15.2732 4.67053 11.3005 7.93184L19.4471 16.0784L18.1587 19.2592L9.00553 10.0926C5.04632 14.3068 3.04658 19.4337 3.04658 25.5C3.04658 31.5663 5.20737 37.1629 9.52895 41.4711C13.8505 45.7926 19.1787 47.9534 25.5 47.9534C31.8213 47.9534 36.6932 45.9537 40.9074 41.9945L32.3045 33.3916L33.5929 30.2108L43.0816 39.6995C46.3295 35.7268 47.9668 30.9892 47.9668 25.5H47.9534Z" fill="black"/>
</g>
<defs>
<clipPath id="clip0_1015_885">
<rect width="51" height="51" fill="white"/>
</clipPath>
</defs>
</svg>
