<svg width="51" height="54" viewBox="0 0 51 54" fill="none" xmlns="http://www.w3.org/2000/svg">
<g clip-path="url(#clip0_1583_5286)">
<path d="M45.2594 42.4786H42.7174V1.47818C42.7174 0.658846 42.0609 0 41.2444 0H1.47302C0.656544 0 0 0.658846 0 1.47818V48.0957C0 51.3477 2.63459 54 5.88364 54H45.2594C48.4243 54 51 51.4153 51 48.2393C51 45.0634 48.4243 42.4786 45.2594 42.4786ZM2.94603 48.0957V2.95636H39.7714V42.4702L5.96782 42.1999C5.13451 42.1661 4.41063 42.825 4.40221 43.6696C4.40221 44.4805 5.05034 45.1478 5.86681 45.1563H5.93415C7.53342 45.1816 8.82126 46.4993 8.82126 48.1042C8.82126 49.7091 7.50817 51.0521 5.88364 51.0521C4.25912 51.0521 2.94603 49.7344 2.94603 48.1042V48.0957ZM45.2594 51.0436H10.9677C11.4727 50.1736 11.7589 49.1685 11.7589 48.0957C11.7589 47.023 11.4811 46.0516 10.9929 45.1901L41.2276 45.435C41.2276 45.435 41.2276 45.435 41.236 45.435H45.251C46.7914 45.435 48.0456 46.6936 48.0456 48.2393C48.0456 49.7851 46.7914 51.0436 45.251 51.0436H45.2594Z" fill="black"/>
</g>
<defs>
<clipPath id="clip0_1583_5286">
<rect width="51" height="54" fill="white"/>
</clipPath>
</defs>
</svg>
