<svg width="206" height="135" viewBox="0 0 206 135" fill="none" xmlns="http://www.w3.org/2000/svg">
<g clip-path="url(#clip0_1583_5086)">
<path d="M191.99 115.05C192.22 114.24 192.35 113.4 192.35 112.52C192.35 112.24 192.13 112.02 191.85 112.02C191.57 112.02 191.37 112.23 191.35 112.5C191.1 112.39 190.8 112.51 190.69 112.77C189.38 115.86 186.37 117.87 183.01 117.88C182.73 117.88 182.51 118.11 182.51 118.38C182.51 118.66 182.73 118.88 183.01 118.88C186.48 118.88 189.6 116.94 191.21 113.93C190.54 117.86 187.12 120.87 183 120.88C182.72 120.88 182.5 121.11 182.5 121.38C182.5 121.66 182.72 121.88 183 121.88C186.53 121.87 189.61 119.89 191.2 116.98C190.51 120.88 187.1 123.87 183 123.88C182.72 123.88 182.5 124.11 182.5 124.38C182.5 124.66 182.72 124.88 183 124.88C186.56 124.87 189.67 122.85 191.24 119.9C190.66 123.93 187.19 127.05 183 127.07C182.72 127.07 182.5 127.3 182.5 127.57C182.5 127.85 182.72 128.07 183 128.07C188.15 128.06 192.33 123.86 192.33 118.71C192.33 118.47 192.15 118.28 191.93 118.23C192.19 117.37 192.33 116.46 192.33 115.52C192.33 115.29 192.18 115.11 191.97 115.05H191.99Z" fill="black"/>
<path d="M183.02 116.169C186.78 116.169 190.16 113.909 191.62 110.449C191.73 110.199 191.61 109.899 191.35 109.789C191.1 109.679 190.8 109.799 190.69 110.059C189.38 113.149 186.37 115.159 183.01 115.169C182.73 115.169 182.51 115.399 182.51 115.669C182.51 115.949 182.73 116.169 183.01 116.169H183.02Z" fill="black"/>
<path d="M183.02 113.46C186.78 113.45 190.16 111.2 191.62 107.74C191.73 107.49 191.61 107.19 191.35 107.08C191.1 106.98 190.8 107.09 190.69 107.35C189.38 110.44 186.37 112.45 183.01 112.46C182.73 112.46 182.51 112.69 182.51 112.96C182.51 113.24 182.73 113.46 183.01 113.46H183.02Z" fill="black"/>
<path d="M24.2699 118.87C24.5499 118.87 24.7699 118.65 24.7699 118.37C24.7699 118.09 24.5499 117.87 24.2699 117.87C20.9099 117.87 17.8899 115.85 16.5899 112.76C16.4799 112.5 16.1899 112.39 15.9299 112.49C15.9199 112.22 15.6999 112.01 15.4299 112.01C15.1599 112.01 14.9299 112.23 14.9299 112.51C14.9299 113.39 15.0599 114.23 15.2899 115.04C15.0799 115.1 14.9299 115.29 14.9299 115.51C14.9299 116.45 15.0699 117.36 15.3299 118.22C15.0999 118.27 14.9299 118.46 14.9299 118.7C14.9299 123.84 19.1199 128.04 24.2599 128.06C24.5399 128.06 24.7599 127.84 24.7599 127.56C24.7599 127.28 24.5399 127.06 24.2599 127.06C20.0699 127.05 16.5999 123.93 16.0199 119.89C17.5899 122.84 20.6899 124.86 24.2599 124.87C24.5399 124.87 24.7599 124.65 24.7599 124.37C24.7599 124.09 24.5399 123.87 24.2599 123.87C20.1599 123.86 16.7499 120.87 16.0599 116.97C17.6399 119.88 20.7199 121.86 24.2599 121.87C24.5399 121.87 24.7599 121.65 24.7599 121.37C24.7599 121.09 24.5399 120.87 24.2599 120.87C20.1399 120.86 16.7199 117.85 16.0499 113.92C17.6599 116.93 20.7899 118.86 24.2499 118.87H24.2699Z" fill="black"/>
<path d="M24.27 114.731C20.91 114.731 17.9 112.721 16.59 109.621C16.48 109.361 16.19 109.251 15.93 109.351C15.68 109.461 15.56 109.751 15.66 110.011C17.12 113.471 20.5 115.721 24.26 115.731C24.54 115.731 24.76 115.511 24.76 115.231C24.76 114.951 24.54 114.731 24.26 114.731H24.27Z" fill="black"/>
<path d="M24.27 113.251C24.55 113.251 24.77 113.031 24.77 112.751C24.77 112.471 24.55 112.251 24.27 112.251C20.91 112.251 17.89 110.231 16.59 107.141C16.48 106.881 16.19 106.771 15.93 106.871C15.68 106.981 15.56 107.271 15.66 107.531C17.12 110.991 20.5 113.241 24.26 113.251H24.27Z" fill="black"/>
<path d="M182.42 134.381H24.8701C17.6701 134.381 11.8101 128.521 11.8101 121.321V121.211H14.8101V121.321C14.8101 126.871 19.3201 131.381 24.8701 131.381H182.42C187.97 131.381 192.48 126.871 192.48 121.321V121.211H195.48V121.321C195.48 128.521 189.62 134.381 182.42 134.381Z" fill="black"/>
<path d="M106.29 35.5195H101V38.5195H106.29V35.5195Z" fill="black"/>
<path d="M101 110.11C100.37 110.11 33.6801 110.06 24.8401 110.08C18.4701 110.1 13.3101 115.27 13.3101 121.64V121.75V30.8896V28.7796C13.3101 22.4096 18.4701 17.2396 24.8401 17.2196C33.6801 17.1996 100.37 17.2496 101 17.2496V110.11Z" fill="white"/>
<path d="M14.8101 121.741H11.8101V28.7805C11.8101 21.6005 17.6501 15.7405 24.8301 15.7205C29.9801 15.7105 55.4801 15.7205 98.5701 15.7505H102.49V111.611H98.6301C55.5101 111.581 29.9901 111.571 24.8401 111.581C19.3101 111.601 14.8101 116.111 14.8101 121.641V121.751V121.741ZM34.9701 18.7105C29.7901 18.7105 26.4001 18.7105 24.8401 18.7105C19.3101 18.7305 14.8101 23.2405 14.8101 28.7705V113.321C17.2001 110.431 20.8101 108.591 24.8301 108.581C29.9901 108.571 55.5101 108.581 98.6301 108.611H99.4901V18.7505H98.5601C68.4601 18.7305 46.9501 18.7105 34.9501 18.7105H34.9701Z" fill="black"/>
<path d="M20.26 106.559C22.4747 106.559 24.27 104.764 24.27 102.549C24.27 100.334 22.4747 98.5391 20.26 98.5391C18.0453 98.5391 16.25 100.334 16.25 102.549C16.25 104.764 18.0453 106.559 20.26 106.559Z" fill="#DDDBDB"/>
<path d="M20.26 92.2993C22.4747 92.2993 24.27 90.504 24.27 88.2893C24.27 86.0746 22.4747 84.2793 20.26 84.2793C18.0453 84.2793 16.25 86.0746 16.25 88.2893C16.25 90.504 18.0453 92.2993 20.26 92.2993Z" fill="#DDDBDB"/>
<path d="M20.26 78.0395C22.4747 78.0395 24.27 76.2442 24.27 74.0295C24.27 71.8149 22.4747 70.0195 20.26 70.0195C18.0453 70.0195 16.25 71.8149 16.25 74.0295C16.25 76.2442 18.0453 78.0395 20.26 78.0395Z" fill="#DDDBDB"/>
<path d="M20.26 63.77C22.4747 63.77 24.27 61.9747 24.27 59.76C24.27 57.5453 22.4747 55.75 20.26 55.75C18.0453 55.75 16.25 57.5453 16.25 59.76C16.25 61.9747 18.0453 63.77 20.26 63.77Z" fill="#DDDBDB"/>
<path d="M20.26 49.5102C22.4747 49.5102 24.27 47.7149 24.27 45.5002C24.27 43.2856 22.4747 41.4902 20.26 41.4902C18.0453 41.4902 16.25 43.2856 16.25 45.5002C16.25 47.7149 18.0453 49.5102 20.26 49.5102Z" fill="#DDDBDB"/>
<path d="M20.26 35.2505C22.4747 35.2505 24.27 33.4551 24.27 31.2405C24.27 29.0258 22.4747 27.2305 20.26 27.2305C18.0453 27.2305 16.25 29.0258 16.25 31.2405C16.25 33.4551 18.0453 35.2505 20.26 35.2505Z" fill="#DDDBDB"/>
<path d="M29.3201 99.4302C31.5347 99.4302 33.3301 97.6348 33.3301 95.4202C33.3301 93.2055 31.5347 91.4102 29.3201 91.4102C27.1054 91.4102 25.3101 93.2055 25.3101 95.4202C25.3101 97.6348 27.1054 99.4302 29.3201 99.4302Z" fill="#DDDBDB"/>
<path d="M29.3201 85.1704C31.5347 85.1704 33.3301 83.3751 33.3301 81.1604C33.3301 78.9457 31.5347 77.1504 29.3201 77.1504C27.1054 77.1504 25.3101 78.9457 25.3101 81.1604C25.3101 83.3751 27.1054 85.1704 29.3201 85.1704Z" fill="#DDDBDB"/>
<path d="M29.3201 70.9106C31.5347 70.9106 33.3301 69.1153 33.3301 66.9006C33.3301 64.686 31.5347 62.8906 29.3201 62.8906C27.1054 62.8906 25.3101 64.686 25.3101 66.9006C25.3101 69.1153 27.1054 70.9106 29.3201 70.9106Z" fill="#DDDBDB"/>
<path d="M29.3201 56.6391C31.5347 56.6391 33.3301 54.8438 33.3301 52.6291C33.3301 50.4145 31.5347 48.6191 29.3201 48.6191C27.1054 48.6191 25.3101 50.4145 25.3101 52.6291C25.3101 54.8438 27.1054 56.6391 29.3201 56.6391Z" fill="#DDDBDB"/>
<path d="M29.3201 42.3794C31.5347 42.3794 33.3301 40.584 33.3301 38.3694C33.3301 36.1547 31.5347 34.3594 29.3201 34.3594C27.1054 34.3594 25.3101 36.1547 25.3101 38.3694C25.3101 40.584 27.1054 42.3794 29.3201 42.3794Z" fill="#DDDBDB"/>
<path d="M29.3201 28.1196C31.5347 28.1196 33.3301 26.3243 33.3301 24.1096C33.3301 21.8949 31.5347 20.0996 29.3201 20.0996C27.1054 20.0996 25.3101 21.8949 25.3101 24.1096C25.3101 26.3243 27.1054 28.1196 29.3201 28.1196Z" fill="#DDDBDB"/>
<path d="M38.77 106.559C40.9847 106.559 42.78 104.764 42.78 102.549C42.78 100.334 40.9847 98.5391 38.77 98.5391C36.5554 98.5391 34.76 100.334 34.76 102.549C34.76 104.764 36.5554 106.559 38.77 106.559Z" fill="#DDDBDB"/>
<path d="M38.77 92.2993C40.9847 92.2993 42.78 90.504 42.78 88.2893C42.78 86.0746 40.9847 84.2793 38.77 84.2793C36.5554 84.2793 34.76 86.0746 34.76 88.2893C34.76 90.504 36.5554 92.2993 38.77 92.2993Z" fill="#DDDBDB"/>
<path d="M38.77 78.0395C40.9847 78.0395 42.78 76.2442 42.78 74.0295C42.78 71.8149 40.9847 70.0195 38.77 70.0195C36.5554 70.0195 34.76 71.8149 34.76 74.0295C34.76 76.2442 36.5554 78.0395 38.77 78.0395Z" fill="#DDDBDB"/>
<path d="M38.77 63.77C40.9847 63.77 42.78 61.9747 42.78 59.76C42.78 57.5453 40.9847 55.75 38.77 55.75C36.5554 55.75 34.76 57.5453 34.76 59.76C34.76 61.9747 36.5554 63.77 38.77 63.77Z" fill="#DDDBDB"/>
<path d="M38.77 49.5102C40.9847 49.5102 42.78 47.7149 42.78 45.5002C42.78 43.2856 40.9847 41.4902 38.77 41.4902C36.5554 41.4902 34.76 43.2856 34.76 45.5002C34.76 47.7149 36.5554 49.5102 38.77 49.5102Z" fill="#DDDBDB"/>
<path d="M38.77 35.2505C40.9847 35.2505 42.78 33.4551 42.78 31.2405C42.78 29.0258 40.9847 27.2305 38.77 27.2305C36.5554 27.2305 34.76 29.0258 34.76 31.2405C34.76 33.4551 36.5554 35.2505 38.77 35.2505Z" fill="#DDDBDB"/>
<path d="M47.8301 99.4302C50.0447 99.4302 51.8401 97.6348 51.8401 95.4202C51.8401 93.2055 50.0447 91.4102 47.8301 91.4102C45.6154 91.4102 43.8201 93.2055 43.8201 95.4202C43.8201 97.6348 45.6154 99.4302 47.8301 99.4302Z" fill="#DDDBDB"/>
<path d="M47.8301 85.1704C50.0447 85.1704 51.8401 83.3751 51.8401 81.1604C51.8401 78.9457 50.0447 77.1504 47.8301 77.1504C45.6154 77.1504 43.8201 78.9457 43.8201 81.1604C43.8201 83.3751 45.6154 85.1704 47.8301 85.1704Z" fill="#DDDBDB"/>
<path d="M47.8301 70.9106C50.0447 70.9106 51.8401 69.1153 51.8401 66.9006C51.8401 64.686 50.0447 62.8906 47.8301 62.8906C45.6154 62.8906 43.8201 64.686 43.8201 66.9006C43.8201 69.1153 45.6154 70.9106 47.8301 70.9106Z" fill="#DDDBDB"/>
<path d="M47.8301 56.6391C50.0447 56.6391 51.8401 54.8438 51.8401 52.6291C51.8401 50.4145 50.0447 48.6191 47.8301 48.6191C45.6154 48.6191 43.8201 50.4145 43.8201 52.6291C43.8201 54.8438 45.6154 56.6391 47.8301 56.6391Z" fill="#DDDBDB"/>
<path d="M47.8301 42.3794C50.0447 42.3794 51.8401 40.584 51.8401 38.3694C51.8401 36.1547 50.0447 34.3594 47.8301 34.3594C45.6154 34.3594 43.8201 36.1547 43.8201 38.3694C43.8201 40.584 45.6154 42.3794 47.8301 42.3794Z" fill="#DDDBDB"/>
<path d="M47.8301 28.1196C50.0447 28.1196 51.8401 26.3243 51.8401 24.1096C51.8401 21.8949 50.0447 20.0996 47.8301 20.0996C45.6154 20.0996 43.8201 21.8949 43.8201 24.1096C43.8201 26.3243 45.6154 28.1196 47.8301 28.1196Z" fill="#DDDBDB"/>
<path d="M57.29 106.559C59.5047 106.559 61.3 104.764 61.3 102.549C61.3 100.334 59.5047 98.5391 57.29 98.5391C55.0754 98.5391 53.28 100.334 53.28 102.549C53.28 104.764 55.0754 106.559 57.29 106.559Z" fill="#DDDBDB"/>
<path d="M57.29 92.2993C59.5047 92.2993 61.3 90.504 61.3 88.2893C61.3 86.0746 59.5047 84.2793 57.29 84.2793C55.0754 84.2793 53.28 86.0746 53.28 88.2893C53.28 90.504 55.0754 92.2993 57.29 92.2993Z" fill="#DDDBDB"/>
<path d="M57.29 78.0395C59.5047 78.0395 61.3 76.2442 61.3 74.0295C61.3 71.8149 59.5047 70.0195 57.29 70.0195C55.0754 70.0195 53.28 71.8149 53.28 74.0295C53.28 76.2442 55.0754 78.0395 57.29 78.0395Z" fill="#DDDBDB"/>
<path d="M57.29 63.77C59.5047 63.77 61.3 61.9747 61.3 59.76C61.3 57.5453 59.5047 55.75 57.29 55.75C55.0754 55.75 53.28 57.5453 53.28 59.76C53.28 61.9747 55.0754 63.77 57.29 63.77Z" fill="#DDDBDB"/>
<path d="M57.29 49.5102C59.5047 49.5102 61.3 47.7149 61.3 45.5002C61.3 43.2856 59.5047 41.4902 57.29 41.4902C55.0754 41.4902 53.28 43.2856 53.28 45.5002C53.28 47.7149 55.0754 49.5102 57.29 49.5102Z" fill="#DDDBDB"/>
<path d="M57.29 35.2505C59.5047 35.2505 61.3 33.4551 61.3 31.2405C61.3 29.0258 59.5047 27.2305 57.29 27.2305C55.0754 27.2305 53.28 29.0258 53.28 31.2405C53.28 33.4551 55.0754 35.2505 57.29 35.2505Z" fill="#DDDBDB"/>
<path d="M66.3401 99.4302C68.5547 99.4302 70.3501 97.6348 70.3501 95.4202C70.3501 93.2055 68.5547 91.4102 66.3401 91.4102C64.1254 91.4102 62.3301 93.2055 62.3301 95.4202C62.3301 97.6348 64.1254 99.4302 66.3401 99.4302Z" fill="#DDDBDB"/>
<path d="M66.3401 85.1704C68.5547 85.1704 70.3501 83.3751 70.3501 81.1604C70.3501 78.9457 68.5547 77.1504 66.3401 77.1504C64.1254 77.1504 62.3301 78.9457 62.3301 81.1604C62.3301 83.3751 64.1254 85.1704 66.3401 85.1704Z" fill="#DDDBDB"/>
<path d="M66.3401 70.9106C68.5547 70.9106 70.3501 69.1153 70.3501 66.9006C70.3501 64.686 68.5547 62.8906 66.3401 62.8906C64.1254 62.8906 62.3301 64.686 62.3301 66.9006C62.3301 69.1153 64.1254 70.9106 66.3401 70.9106Z" fill="#DDDBDB"/>
<path d="M66.3401 56.6391C68.5547 56.6391 70.3501 54.8438 70.3501 52.6291C70.3501 50.4145 68.5547 48.6191 66.3401 48.6191C64.1254 48.6191 62.3301 50.4145 62.3301 52.6291C62.3301 54.8438 64.1254 56.6391 66.3401 56.6391Z" fill="#DDDBDB"/>
<path d="M66.3401 42.3794C68.5547 42.3794 70.3501 40.584 70.3501 38.3694C70.3501 36.1547 68.5547 34.3594 66.3401 34.3594C64.1254 34.3594 62.3301 36.1547 62.3301 38.3694C62.3301 40.584 64.1254 42.3794 66.3401 42.3794Z" fill="#DDDBDB"/>
<path d="M66.3401 28.1196C68.5547 28.1196 70.3501 26.3243 70.3501 24.1096C70.3501 21.8949 68.5547 20.0996 66.3401 20.0996C64.1254 20.0996 62.3301 21.8949 62.3301 24.1096C62.3301 26.3243 64.1254 28.1196 66.3401 28.1196Z" fill="#DDDBDB"/>
<path d="M75.8 106.559C78.0147 106.559 79.81 104.764 79.81 102.549C79.81 100.334 78.0147 98.5391 75.8 98.5391C73.5854 98.5391 71.79 100.334 71.79 102.549C71.79 104.764 73.5854 106.559 75.8 106.559Z" fill="#DDDBDB"/>
<path d="M75.8 92.2993C78.0147 92.2993 79.81 90.504 79.81 88.2893C79.81 86.0746 78.0147 84.2793 75.8 84.2793C73.5854 84.2793 71.79 86.0746 71.79 88.2893C71.79 90.504 73.5854 92.2993 75.8 92.2993Z" fill="#DDDBDB"/>
<path d="M75.8 78.0395C78.0147 78.0395 79.81 76.2442 79.81 74.0295C79.81 71.8149 78.0147 70.0195 75.8 70.0195C73.5854 70.0195 71.79 71.8149 71.79 74.0295C71.79 76.2442 73.5854 78.0395 75.8 78.0395Z" fill="#DDDBDB"/>
<path d="M75.8 63.77C78.0147 63.77 79.81 61.9747 79.81 59.76C79.81 57.5453 78.0147 55.75 75.8 55.75C73.5854 55.75 71.79 57.5453 71.79 59.76C71.79 61.9747 73.5854 63.77 75.8 63.77Z" fill="#DDDBDB"/>
<path d="M75.8 49.5102C78.0147 49.5102 79.81 47.7149 79.81 45.5002C79.81 43.2856 78.0147 41.4902 75.8 41.4902C73.5854 41.4902 71.79 43.2856 71.79 45.5002C71.79 47.7149 73.5854 49.5102 75.8 49.5102Z" fill="#DDDBDB"/>
<path d="M75.8 35.2505C78.0147 35.2505 79.81 33.4551 79.81 31.2405C79.81 29.0258 78.0147 27.2305 75.8 27.2305C73.5854 27.2305 71.79 29.0258 71.79 31.2405C71.79 33.4551 73.5854 35.2505 75.8 35.2505Z" fill="#DDDBDB"/>
<path d="M84.8601 99.4302C87.0748 99.4302 88.8701 97.6348 88.8701 95.4202C88.8701 93.2055 87.0748 91.4102 84.8601 91.4102C82.6454 91.4102 80.8501 93.2055 80.8501 95.4202C80.8501 97.6348 82.6454 99.4302 84.8601 99.4302Z" fill="#DDDBDB"/>
<path d="M84.8601 85.1704C87.0748 85.1704 88.8701 83.3751 88.8701 81.1604C88.8701 78.9457 87.0748 77.1504 84.8601 77.1504C82.6454 77.1504 80.8501 78.9457 80.8501 81.1604C80.8501 83.3751 82.6454 85.1704 84.8601 85.1704Z" fill="#DDDBDB"/>
<path d="M84.8601 70.9106C87.0748 70.9106 88.8701 69.1153 88.8701 66.9006C88.8701 64.686 87.0748 62.8906 84.8601 62.8906C82.6454 62.8906 80.8501 64.686 80.8501 66.9006C80.8501 69.1153 82.6454 70.9106 84.8601 70.9106Z" fill="#DDDBDB"/>
<path d="M84.8601 56.6391C87.0748 56.6391 88.8701 54.8438 88.8701 52.6291C88.8701 50.4145 87.0748 48.6191 84.8601 48.6191C82.6454 48.6191 80.8501 50.4145 80.8501 52.6291C80.8501 54.8438 82.6454 56.6391 84.8601 56.6391Z" fill="#DDDBDB"/>
<path d="M84.8601 42.3794C87.0748 42.3794 88.8701 40.584 88.8701 38.3694C88.8701 36.1547 87.0748 34.3594 84.8601 34.3594C82.6454 34.3594 80.8501 36.1547 80.8501 38.3694C80.8501 40.584 82.6454 42.3794 84.8601 42.3794Z" fill="#DDDBDB"/>
<path d="M84.8601 28.1196C87.0748 28.1196 88.8701 26.3243 88.8701 24.1096C88.8701 21.8949 87.0748 20.0996 84.8601 20.0996C82.6454 20.0996 80.8501 21.8949 80.8501 24.1096C80.8501 26.3243 82.6454 28.1196 84.8601 28.1196Z" fill="#DDDBDB"/>
<path d="M94.31 106.559C96.5247 106.559 98.32 104.764 98.32 102.549C98.32 100.334 96.5247 98.5391 94.31 98.5391C92.0954 98.5391 90.3 100.334 90.3 102.549C90.3 104.764 92.0954 106.559 94.31 106.559Z" fill="#DDDBDB"/>
<path d="M94.31 92.2993C96.5247 92.2993 98.32 90.504 98.32 88.2893C98.32 86.0746 96.5247 84.2793 94.31 84.2793C92.0954 84.2793 90.3 86.0746 90.3 88.2893C90.3 90.504 92.0954 92.2993 94.31 92.2993Z" fill="#DDDBDB"/>
<path d="M94.31 78.0395C96.5247 78.0395 98.32 76.2442 98.32 74.0295C98.32 71.8149 96.5247 70.0195 94.31 70.0195C92.0954 70.0195 90.3 71.8149 90.3 74.0295C90.3 76.2442 92.0954 78.0395 94.31 78.0395Z" fill="#DDDBDB"/>
<path d="M94.31 63.77C96.5247 63.77 98.32 61.9747 98.32 59.76C98.32 57.5453 96.5247 55.75 94.31 55.75C92.0954 55.75 90.3 57.5453 90.3 59.76C90.3 61.9747 92.0954 63.77 94.31 63.77Z" fill="#DDDBDB"/>
<path d="M94.31 49.5102C96.5247 49.5102 98.32 47.7149 98.32 45.5002C98.32 43.2856 96.5247 41.4902 94.31 41.4902C92.0954 41.4902 90.3 43.2856 90.3 45.5002C90.3 47.7149 92.0954 49.5102 94.31 49.5102Z" fill="#DDDBDB"/>
<path d="M94.31 35.2505C96.5247 35.2505 98.32 33.4551 98.32 31.2405C98.32 29.0258 96.5247 27.2305 94.31 27.2305C92.0954 27.2305 90.3 29.0258 90.3 31.2405C90.3 33.4551 92.0954 35.2505 94.31 35.2505Z" fill="#DDDBDB"/>
<path d="M106.29 110.11C106.92 110.11 173.61 110.06 182.45 110.08C188.82 110.1 193.98 115.27 193.98 121.64V121.75V30.8896V28.7796C193.98 22.4096 188.82 17.2396 182.45 17.2196C173.61 17.1996 106.92 17.2496 106.29 17.2496V110.11Z" fill="white"/>
<path d="M195.48 121.741H192.48V121.631C192.48 116.101 187.98 111.591 182.45 111.571C177.29 111.551 151.78 111.571 108.65 111.601H104.79V15.7408H108.71C151.8 15.7108 177.31 15.7008 182.45 15.7108C189.63 15.7308 195.47 21.5908 195.47 28.7708V121.741H195.48ZM171.85 108.571C177.3 108.571 180.86 108.571 182.46 108.571C186.49 108.581 190.09 110.431 192.48 113.311V28.7808C192.48 23.2508 187.98 18.7408 182.45 18.7208C177.3 18.7108 151.81 18.7208 108.72 18.7508H107.8V108.601H108.66C138.4 108.581 159.76 108.571 171.86 108.571H171.85Z" fill="black"/>
<path d="M187.03 106.559C189.245 106.559 191.04 104.764 191.04 102.549C191.04 100.334 189.245 98.5391 187.03 98.5391C184.815 98.5391 183.02 100.334 183.02 102.549C183.02 104.764 184.815 106.559 187.03 106.559Z" fill="#DDDBDB"/>
<path d="M187.03 92.2993C189.245 92.2993 191.04 90.504 191.04 88.2893C191.04 86.0746 189.245 84.2793 187.03 84.2793C184.815 84.2793 183.02 86.0746 183.02 88.2893C183.02 90.504 184.815 92.2993 187.03 92.2993Z" fill="#DDDBDB"/>
<path d="M187.03 78.0395C189.245 78.0395 191.04 76.2442 191.04 74.0295C191.04 71.8149 189.245 70.0195 187.03 70.0195C184.815 70.0195 183.02 71.8149 183.02 74.0295C183.02 76.2442 184.815 78.0395 187.03 78.0395Z" fill="#DDDBDB"/>
<path d="M187.03 63.77C189.245 63.77 191.04 61.9747 191.04 59.76C191.04 57.5453 189.245 55.75 187.03 55.75C184.815 55.75 183.02 57.5453 183.02 59.76C183.02 61.9747 184.815 63.77 187.03 63.77Z" fill="#DDDBDB"/>
<path d="M187.03 49.5102C189.245 49.5102 191.04 47.7149 191.04 45.5002C191.04 43.2856 189.245 41.4902 187.03 41.4902C184.815 41.4902 183.02 43.2856 183.02 45.5002C183.02 47.7149 184.815 49.5102 187.03 49.5102Z" fill="#DDDBDB"/>
<path d="M187.03 35.2505C189.245 35.2505 191.04 33.4551 191.04 31.2405C191.04 29.0258 189.245 27.2305 187.03 27.2305C184.815 27.2305 183.02 29.0258 183.02 31.2405C183.02 33.4551 184.815 35.2505 187.03 35.2505Z" fill="#DDDBDB"/>
<path d="M177.97 99.4302C180.185 99.4302 181.98 97.6348 181.98 95.4202C181.98 93.2055 180.185 91.4102 177.97 91.4102C175.755 91.4102 173.96 93.2055 173.96 95.4202C173.96 97.6348 175.755 99.4302 177.97 99.4302Z" fill="#DDDBDB"/>
<path d="M177.97 85.1704C180.185 85.1704 181.98 83.3751 181.98 81.1604C181.98 78.9457 180.185 77.1504 177.97 77.1504C175.755 77.1504 173.96 78.9457 173.96 81.1604C173.96 83.3751 175.755 85.1704 177.97 85.1704Z" fill="#DDDBDB"/>
<path d="M177.97 70.9106C180.185 70.9106 181.98 69.1153 181.98 66.9006C181.98 64.686 180.185 62.8906 177.97 62.8906C175.755 62.8906 173.96 64.686 173.96 66.9006C173.96 69.1153 175.755 70.9106 177.97 70.9106Z" fill="#DDDBDB"/>
<path d="M177.97 56.6391C180.185 56.6391 181.98 54.8438 181.98 52.6291C181.98 50.4145 180.185 48.6191 177.97 48.6191C175.755 48.6191 173.96 50.4145 173.96 52.6291C173.96 54.8438 175.755 56.6391 177.97 56.6391Z" fill="#DDDBDB"/>
<path d="M177.97 42.3794C180.185 42.3794 181.98 40.584 181.98 38.3694C181.98 36.1547 180.185 34.3594 177.97 34.3594C175.755 34.3594 173.96 36.1547 173.96 38.3694C173.96 40.584 175.755 42.3794 177.97 42.3794Z" fill="#DDDBDB"/>
<path d="M177.97 28.1196C180.185 28.1196 181.98 26.3243 181.98 24.1096C181.98 21.8949 180.185 20.0996 177.97 20.0996C175.755 20.0996 173.96 21.8949 173.96 24.1096C173.96 26.3243 175.755 28.1196 177.97 28.1196Z" fill="#DDDBDB"/>
<path d="M168.52 106.559C170.735 106.559 172.53 104.764 172.53 102.549C172.53 100.334 170.735 98.5391 168.52 98.5391C166.305 98.5391 164.51 100.334 164.51 102.549C164.51 104.764 166.305 106.559 168.52 106.559Z" fill="#DDDBDB"/>
<path d="M168.52 92.2993C170.735 92.2993 172.53 90.504 172.53 88.2893C172.53 86.0746 170.735 84.2793 168.52 84.2793C166.305 84.2793 164.51 86.0746 164.51 88.2893C164.51 90.504 166.305 92.2993 168.52 92.2993Z" fill="#DDDBDB"/>
<path d="M168.52 78.0395C170.735 78.0395 172.53 76.2442 172.53 74.0295C172.53 71.8149 170.735 70.0195 168.52 70.0195C166.305 70.0195 164.51 71.8149 164.51 74.0295C164.51 76.2442 166.305 78.0395 168.52 78.0395Z" fill="#DDDBDB"/>
<path d="M168.52 63.77C170.735 63.77 172.53 61.9747 172.53 59.76C172.53 57.5453 170.735 55.75 168.52 55.75C166.305 55.75 164.51 57.5453 164.51 59.76C164.51 61.9747 166.305 63.77 168.52 63.77Z" fill="#DDDBDB"/>
<path d="M168.52 49.5102C170.735 49.5102 172.53 47.7149 172.53 45.5002C172.53 43.2856 170.735 41.4902 168.52 41.4902C166.305 41.4902 164.51 43.2856 164.51 45.5002C164.51 47.7149 166.305 49.5102 168.52 49.5102Z" fill="#DDDBDB"/>
<path d="M168.52 35.2505C170.735 35.2505 172.53 33.4551 172.53 31.2405C172.53 29.0258 170.735 27.2305 168.52 27.2305C166.305 27.2305 164.51 29.0258 164.51 31.2405C164.51 33.4551 166.305 35.2505 168.52 35.2505Z" fill="#DDDBDB"/>
<path d="M159.46 99.4302C161.675 99.4302 163.47 97.6348 163.47 95.4202C163.47 93.2055 161.675 91.4102 159.46 91.4102C157.245 91.4102 155.45 93.2055 155.45 95.4202C155.45 97.6348 157.245 99.4302 159.46 99.4302Z" fill="#DDDBDB"/>
<path d="M159.46 85.1704C161.675 85.1704 163.47 83.3751 163.47 81.1604C163.47 78.9457 161.675 77.1504 159.46 77.1504C157.245 77.1504 155.45 78.9457 155.45 81.1604C155.45 83.3751 157.245 85.1704 159.46 85.1704Z" fill="#DDDBDB"/>
<path d="M159.46 70.9106C161.675 70.9106 163.47 69.1153 163.47 66.9006C163.47 64.686 161.675 62.8906 159.46 62.8906C157.245 62.8906 155.45 64.686 155.45 66.9006C155.45 69.1153 157.245 70.9106 159.46 70.9106Z" fill="#DDDBDB"/>
<path d="M159.46 56.6391C161.675 56.6391 163.47 54.8438 163.47 52.6291C163.47 50.4145 161.675 48.6191 159.46 48.6191C157.245 48.6191 155.45 50.4145 155.45 52.6291C155.45 54.8438 157.245 56.6391 159.46 56.6391Z" fill="#DDDBDB"/>
<path d="M159.46 42.3794C161.675 42.3794 163.47 40.584 163.47 38.3694C163.47 36.1547 161.675 34.3594 159.46 34.3594C157.245 34.3594 155.45 36.1547 155.45 38.3694C155.45 40.584 157.245 42.3794 159.46 42.3794Z" fill="#DDDBDB"/>
<path d="M159.46 28.1196C161.675 28.1196 163.47 26.3243 163.47 24.1096C163.47 21.8949 161.675 20.0996 159.46 20.0996C157.245 20.0996 155.45 21.8949 155.45 24.1096C155.45 26.3243 157.245 28.1196 159.46 28.1196Z" fill="#DDDBDB"/>
<path d="M150 106.559C152.215 106.559 154.01 104.764 154.01 102.549C154.01 100.334 152.215 98.5391 150 98.5391C147.785 98.5391 145.99 100.334 145.99 102.549C145.99 104.764 147.785 106.559 150 106.559Z" fill="#DDDBDB"/>
<path d="M150 92.2993C152.215 92.2993 154.01 90.504 154.01 88.2893C154.01 86.0746 152.215 84.2793 150 84.2793C147.785 84.2793 145.99 86.0746 145.99 88.2893C145.99 90.504 147.785 92.2993 150 92.2993Z" fill="#DDDBDB"/>
<path d="M150 78.0395C152.215 78.0395 154.01 76.2442 154.01 74.0295C154.01 71.8149 152.215 70.0195 150 70.0195C147.785 70.0195 145.99 71.8149 145.99 74.0295C145.99 76.2442 147.785 78.0395 150 78.0395Z" fill="#DDDBDB"/>
<path d="M150 63.77C152.215 63.77 154.01 61.9747 154.01 59.76C154.01 57.5453 152.215 55.75 150 55.75C147.785 55.75 145.99 57.5453 145.99 59.76C145.99 61.9747 147.785 63.77 150 63.77Z" fill="#DDDBDB"/>
<path d="M150 49.5102C152.215 49.5102 154.01 47.7149 154.01 45.5002C154.01 43.2856 152.215 41.4902 150 41.4902C147.785 41.4902 145.99 43.2856 145.99 45.5002C145.99 47.7149 147.785 49.5102 150 49.5102Z" fill="#DDDBDB"/>
<path d="M150 35.2505C152.215 35.2505 154.01 33.4551 154.01 31.2405C154.01 29.0258 152.215 27.2305 150 27.2305C147.785 27.2305 145.99 29.0258 145.99 31.2405C145.99 33.4551 147.785 35.2505 150 35.2505Z" fill="#DDDBDB"/>
<path d="M140.94 99.4302C143.155 99.4302 144.95 97.6348 144.95 95.4202C144.95 93.2055 143.155 91.4102 140.94 91.4102C138.725 91.4102 136.93 93.2055 136.93 95.4202C136.93 97.6348 138.725 99.4302 140.94 99.4302Z" fill="#DDDBDB"/>
<path d="M140.94 85.1704C143.155 85.1704 144.95 83.3751 144.95 81.1604C144.95 78.9457 143.155 77.1504 140.94 77.1504C138.725 77.1504 136.93 78.9457 136.93 81.1604C136.93 83.3751 138.725 85.1704 140.94 85.1704Z" fill="#DDDBDB"/>
<path d="M140.94 70.9106C143.155 70.9106 144.95 69.1153 144.95 66.9006C144.95 64.686 143.155 62.8906 140.94 62.8906C138.725 62.8906 136.93 64.686 136.93 66.9006C136.93 69.1153 138.725 70.9106 140.94 70.9106Z" fill="#DDDBDB"/>
<path d="M140.94 56.6391C143.155 56.6391 144.95 54.8438 144.95 52.6291C144.95 50.4145 143.155 48.6191 140.94 48.6191C138.725 48.6191 136.93 50.4145 136.93 52.6291C136.93 54.8438 138.725 56.6391 140.94 56.6391Z" fill="#DDDBDB"/>
<path d="M140.94 42.3794C143.155 42.3794 144.95 40.584 144.95 38.3694C144.95 36.1547 143.155 34.3594 140.94 34.3594C138.725 34.3594 136.93 36.1547 136.93 38.3694C136.93 40.584 138.725 42.3794 140.94 42.3794Z" fill="#DDDBDB"/>
<path d="M140.94 28.1196C143.155 28.1196 144.95 26.3243 144.95 24.1096C144.95 21.8949 143.155 20.0996 140.94 20.0996C138.725 20.0996 136.93 21.8949 136.93 24.1096C136.93 26.3243 138.725 28.1196 140.94 28.1196Z" fill="#DDDBDB"/>
<path d="M131.49 106.559C133.705 106.559 135.5 104.764 135.5 102.549C135.5 100.334 133.705 98.5391 131.49 98.5391C129.275 98.5391 127.48 100.334 127.48 102.549C127.48 104.764 129.275 106.559 131.49 106.559Z" fill="#DDDBDB"/>
<path d="M131.49 92.2993C133.705 92.2993 135.5 90.504 135.5 88.2893C135.5 86.0746 133.705 84.2793 131.49 84.2793C129.275 84.2793 127.48 86.0746 127.48 88.2893C127.48 90.504 129.275 92.2993 131.49 92.2993Z" fill="#DDDBDB"/>
<path d="M131.49 78.0395C133.705 78.0395 135.5 76.2442 135.5 74.0295C135.5 71.8149 133.705 70.0195 131.49 70.0195C129.275 70.0195 127.48 71.8149 127.48 74.0295C127.48 76.2442 129.275 78.0395 131.49 78.0395Z" fill="#DDDBDB"/>
<path d="M131.49 63.77C133.705 63.77 135.5 61.9747 135.5 59.76C135.5 57.5453 133.705 55.75 131.49 55.75C129.275 55.75 127.48 57.5453 127.48 59.76C127.48 61.9747 129.275 63.77 131.49 63.77Z" fill="#DDDBDB"/>
<path d="M131.49 49.5102C133.705 49.5102 135.5 47.7149 135.5 45.5002C135.5 43.2856 133.705 41.4902 131.49 41.4902C129.275 41.4902 127.48 43.2856 127.48 45.5002C127.48 47.7149 129.275 49.5102 131.49 49.5102Z" fill="#DDDBDB"/>
<path d="M131.49 35.2505C133.705 35.2505 135.5 33.4551 135.5 31.2405C135.5 29.0258 133.705 27.2305 131.49 27.2305C129.275 27.2305 127.48 29.0258 127.48 31.2405C127.48 33.4551 129.275 35.2505 131.49 35.2505Z" fill="#DDDBDB"/>
<path d="M122.43 99.4302C124.645 99.4302 126.44 97.6348 126.44 95.4202C126.44 93.2055 124.645 91.4102 122.43 91.4102C120.215 91.4102 118.42 93.2055 118.42 95.4202C118.42 97.6348 120.215 99.4302 122.43 99.4302Z" fill="#DDDBDB"/>
<path d="M122.43 85.1704C124.645 85.1704 126.44 83.3751 126.44 81.1604C126.44 78.9457 124.645 77.1504 122.43 77.1504C120.215 77.1504 118.42 78.9457 118.42 81.1604C118.42 83.3751 120.215 85.1704 122.43 85.1704Z" fill="#DDDBDB"/>
<path d="M122.43 70.9106C124.645 70.9106 126.44 69.1153 126.44 66.9006C126.44 64.686 124.645 62.8906 122.43 62.8906C120.215 62.8906 118.42 64.686 118.42 66.9006C118.42 69.1153 120.215 70.9106 122.43 70.9106Z" fill="#DDDBDB"/>
<path d="M122.43 56.6391C124.645 56.6391 126.44 54.8438 126.44 52.6291C126.44 50.4145 124.645 48.6191 122.43 48.6191C120.215 48.6191 118.42 50.4145 118.42 52.6291C118.42 54.8438 120.215 56.6391 122.43 56.6391Z" fill="#DDDBDB"/>
<path d="M122.43 42.3794C124.645 42.3794 126.44 40.584 126.44 38.3694C126.44 36.1547 124.645 34.3594 122.43 34.3594C120.215 34.3594 118.42 36.1547 118.42 38.3694C118.42 40.584 120.215 42.3794 122.43 42.3794Z" fill="#DDDBDB"/>
<path d="M122.43 28.1196C124.645 28.1196 126.44 26.3243 126.44 24.1096C126.44 21.8949 124.645 20.0996 122.43 20.0996C120.215 20.0996 118.42 21.8949 118.42 24.1096C118.42 26.3243 120.215 28.1196 122.43 28.1196Z" fill="#DDDBDB"/>
<path d="M112.97 106.559C115.185 106.559 116.98 104.764 116.98 102.549C116.98 100.334 115.185 98.5391 112.97 98.5391C110.755 98.5391 108.96 100.334 108.96 102.549C108.96 104.764 110.755 106.559 112.97 106.559Z" fill="#DDDBDB"/>
<path d="M112.97 92.2993C115.185 92.2993 116.98 90.504 116.98 88.2893C116.98 86.0746 115.185 84.2793 112.97 84.2793C110.755 84.2793 108.96 86.0746 108.96 88.2893C108.96 90.504 110.755 92.2993 112.97 92.2993Z" fill="#DDDBDB"/>
<path d="M112.97 78.0395C115.185 78.0395 116.98 76.2442 116.98 74.0295C116.98 71.8149 115.185 70.0195 112.97 70.0195C110.755 70.0195 108.96 71.8149 108.96 74.0295C108.96 76.2442 110.755 78.0395 112.97 78.0395Z" fill="#DDDBDB"/>
<path d="M112.97 63.77C115.185 63.77 116.98 61.9747 116.98 59.76C116.98 57.5453 115.185 55.75 112.97 55.75C110.755 55.75 108.96 57.5453 108.96 59.76C108.96 61.9747 110.755 63.77 112.97 63.77Z" fill="#DDDBDB"/>
<path d="M112.97 49.5102C115.185 49.5102 116.98 47.7149 116.98 45.5002C116.98 43.2856 115.185 41.4902 112.97 41.4902C110.755 41.4902 108.96 43.2856 108.96 45.5002C108.96 47.7149 110.755 49.5102 112.97 49.5102Z" fill="#DDDBDB"/>
<path d="M112.97 35.2505C115.185 35.2505 116.98 33.4551 116.98 31.2405C116.98 29.0258 115.185 27.2305 112.97 27.2305C110.755 27.2305 108.96 29.0258 108.96 31.2405C108.96 33.4551 110.755 35.2505 112.97 35.2505Z" fill="#DDDBDB"/>
<path d="M71.482 126V116.9H74.888C75.6593 116.9 76.3223 117.026 76.877 117.277C77.4317 117.52 77.8563 117.875 78.151 118.343C78.4543 118.802 78.606 119.361 78.606 120.02C78.606 120.661 78.4543 121.216 78.151 121.684C77.8563 122.143 77.4317 122.499 76.877 122.75C76.3223 123.001 75.6593 123.127 74.888 123.127H72.015L72.444 122.672V126H71.482ZM72.444 122.75L72.015 122.282H74.862C75.772 122.282 76.461 122.087 76.929 121.697C77.4057 121.298 77.644 120.739 77.644 120.02C77.644 119.292 77.4057 118.729 76.929 118.33C76.461 117.931 75.772 117.732 74.862 117.732H72.015L72.444 117.277V122.75ZM84.5746 126V124.492L84.5356 124.245V121.723C84.5356 121.142 84.371 120.696 84.0416 120.384C83.721 120.072 83.24 119.916 82.5986 119.916C82.1566 119.916 81.7363 119.99 81.3376 120.137C80.939 120.284 80.601 120.479 80.3236 120.722L79.9076 120.033C80.2543 119.738 80.6703 119.513 81.1556 119.357C81.641 119.192 82.1523 119.11 82.6896 119.11C83.5736 119.11 84.254 119.331 84.7306 119.773C85.216 120.206 85.4586 120.869 85.4586 121.762V126H84.5746ZM82.2216 126.065C81.7103 126.065 81.264 125.983 80.8826 125.818C80.51 125.645 80.224 125.411 80.0246 125.116C79.8253 124.813 79.7256 124.466 79.7256 124.076C79.7256 123.721 79.808 123.4 79.9726 123.114C80.146 122.819 80.4233 122.585 80.8046 122.412C81.1946 122.23 81.7146 122.139 82.3646 122.139H84.7176V122.828H82.3906C81.732 122.828 81.2726 122.945 81.0126 123.179C80.7613 123.413 80.6356 123.703 80.6356 124.05C80.6356 124.44 80.7873 124.752 81.0906 124.986C81.394 125.22 81.8186 125.337 82.3646 125.337C82.8846 125.337 83.331 125.22 83.7036 124.986C84.085 124.743 84.3623 124.397 84.5356 123.946L84.7436 124.583C84.5703 125.034 84.267 125.393 83.8336 125.662C83.409 125.931 82.8716 126.065 82.2216 126.065ZM89.6686 126.065C89.1053 126.065 88.5723 125.987 88.0696 125.831C87.5669 125.666 87.1726 125.463 86.8866 125.22L87.3026 124.492C87.5799 124.7 87.9353 124.882 88.3686 125.038C88.8019 125.185 89.2569 125.259 89.7336 125.259C90.3836 125.259 90.8516 125.159 91.1376 124.96C91.4236 124.752 91.5666 124.479 91.5666 124.141C91.5666 123.89 91.4843 123.695 91.3196 123.556C91.1636 123.409 90.9556 123.3 90.6956 123.231C90.4356 123.153 90.1453 123.088 89.8246 123.036C89.5039 122.984 89.1833 122.923 88.8626 122.854C88.5506 122.785 88.2646 122.685 88.0046 122.555C87.7446 122.416 87.5323 122.23 87.3676 121.996C87.2116 121.762 87.1336 121.45 87.1336 121.06C87.1336 120.687 87.2376 120.354 87.4456 120.059C87.6536 119.764 87.9569 119.535 88.3556 119.37C88.7629 119.197 89.2569 119.11 89.8376 119.11C90.2796 119.11 90.7216 119.171 91.1636 119.292C91.6056 119.405 91.9696 119.556 92.2556 119.747L91.8526 120.488C91.5493 120.28 91.2243 120.133 90.8776 120.046C90.5309 119.951 90.1843 119.903 89.8376 119.903C89.2223 119.903 88.7673 120.011 88.4726 120.228C88.1866 120.436 88.0436 120.705 88.0436 121.034C88.0436 121.294 88.1216 121.498 88.2776 121.645C88.4423 121.792 88.6546 121.909 88.9146 121.996C89.1833 122.074 89.4736 122.139 89.7856 122.191C90.1063 122.243 90.4226 122.308 90.7346 122.386C91.0553 122.455 91.3456 122.555 91.6056 122.685C91.8743 122.806 92.0866 122.984 92.2426 123.218C92.4073 123.443 92.4896 123.742 92.4896 124.115C92.4896 124.514 92.3769 124.86 92.1516 125.155C91.9349 125.441 91.6143 125.666 91.1896 125.831C90.7736 125.987 90.2666 126.065 89.6686 126.065ZM96.2113 126.065C95.5699 126.065 95.0759 125.892 94.7293 125.545C94.3826 125.198 94.2093 124.709 94.2093 124.076V117.667H95.1323V124.024C95.1323 124.423 95.2319 124.73 95.4313 124.947C95.6393 125.164 95.9339 125.272 96.3153 125.272C96.7226 125.272 97.0606 125.155 97.3293 124.921L97.6543 125.584C97.4723 125.749 97.2513 125.87 96.9913 125.948C96.7399 126.026 96.4799 126.065 96.2113 126.065ZM92.9873 119.942V119.175H97.2123V119.942H92.9873ZM101.862 126.065C101.152 126.065 100.528 125.918 99.9903 125.623C99.453 125.32 99.0326 124.908 98.7293 124.388C98.426 123.859 98.2743 123.257 98.2743 122.581C98.2743 121.905 98.4173 121.307 98.7033 120.787C98.998 120.267 99.3966 119.86 99.8993 119.565C100.411 119.262 100.983 119.11 101.615 119.11C102.257 119.11 102.824 119.257 103.318 119.552C103.821 119.838 104.215 120.245 104.501 120.774C104.787 121.294 104.93 121.896 104.93 122.581C104.93 122.624 104.926 122.672 104.917 122.724C104.917 122.767 104.917 122.815 104.917 122.867H98.9763V122.178H104.423L104.059 122.451C104.059 121.957 103.951 121.519 103.734 121.138C103.526 120.748 103.24 120.445 102.876 120.228C102.512 120.011 102.092 119.903 101.615 119.903C101.147 119.903 100.727 120.011 100.354 120.228C99.9816 120.445 99.6913 120.748 99.4833 121.138C99.2753 121.528 99.1713 121.974 99.1713 122.477V122.62C99.1713 123.14 99.284 123.599 99.5093 123.998C99.7433 124.388 100.064 124.696 100.471 124.921C100.887 125.138 101.36 125.246 101.888 125.246C102.304 125.246 102.69 125.172 103.045 125.025C103.409 124.878 103.721 124.652 103.981 124.349L104.501 124.947C104.198 125.311 103.817 125.588 103.357 125.779C102.907 125.97 102.408 126.065 101.862 126.065ZM109.396 126.065C108.746 126.065 108.161 125.918 107.641 125.623C107.13 125.328 106.727 124.921 106.432 124.401C106.137 123.872 105.99 123.266 105.99 122.581C105.99 121.888 106.137 121.281 106.432 120.761C106.727 120.241 107.13 119.838 107.641 119.552C108.161 119.257 108.746 119.11 109.396 119.11C109.994 119.11 110.527 119.244 110.995 119.513C111.472 119.782 111.849 120.176 112.126 120.696C112.412 121.207 112.555 121.836 112.555 122.581C112.555 123.318 112.416 123.946 112.139 124.466C111.862 124.986 111.485 125.385 111.008 125.662C110.54 125.931 110.003 126.065 109.396 126.065ZM109.461 125.246C109.946 125.246 110.38 125.138 110.761 124.921C111.151 124.696 111.454 124.384 111.671 123.985C111.896 123.578 112.009 123.11 112.009 122.581C112.009 122.044 111.896 121.576 111.671 121.177C111.454 120.778 111.151 120.471 110.761 120.254C110.38 120.029 109.946 119.916 109.461 119.916C108.984 119.916 108.555 120.029 108.174 120.254C107.793 120.471 107.489 120.778 107.264 121.177C107.039 121.576 106.926 122.044 106.926 122.581C106.926 123.11 107.039 123.578 107.264 123.985C107.489 124.384 107.793 124.696 108.174 124.921C108.555 125.138 108.984 125.246 109.461 125.246ZM112.035 126V123.946L112.126 122.568L111.996 121.19V116.354H112.919V126H112.035ZM120.465 126.065C119.902 126.065 119.369 125.987 118.866 125.831C118.363 125.666 117.969 125.463 117.683 125.22L118.099 124.492C118.376 124.7 118.732 124.882 119.165 125.038C119.598 125.185 120.053 125.259 120.53 125.259C121.18 125.259 121.648 125.159 121.934 124.96C122.22 124.752 122.363 124.479 122.363 124.141C122.363 123.89 122.281 123.695 122.116 123.556C121.96 123.409 121.752 123.3 121.492 123.231C121.232 123.153 120.942 123.088 120.621 123.036C120.3 122.984 119.98 122.923 119.659 122.854C119.347 122.785 119.061 122.685 118.801 122.555C118.541 122.416 118.329 122.23 118.164 121.996C118.008 121.762 117.93 121.45 117.93 121.06C117.93 120.687 118.034 120.354 118.242 120.059C118.45 119.764 118.753 119.535 119.152 119.37C119.559 119.197 120.053 119.11 120.634 119.11C121.076 119.11 121.518 119.171 121.96 119.292C122.402 119.405 122.766 119.556 123.052 119.747L122.649 120.488C122.346 120.28 122.021 120.133 121.674 120.046C121.327 119.951 120.981 119.903 120.634 119.903C120.019 119.903 119.564 120.011 119.269 120.228C118.983 120.436 118.84 120.705 118.84 121.034C118.84 121.294 118.918 121.498 119.074 121.645C119.239 121.792 119.451 121.909 119.711 121.996C119.98 122.074 120.27 122.139 120.582 122.191C120.903 122.243 121.219 122.308 121.531 122.386C121.852 122.455 122.142 122.555 122.402 122.685C122.671 122.806 122.883 122.984 123.039 123.218C123.204 123.443 123.286 123.742 123.286 124.115C123.286 124.514 123.173 124.86 122.948 125.155C122.731 125.441 122.411 125.666 121.986 125.831C121.57 125.987 121.063 126.065 120.465 126.065ZM124.85 126V119.175H125.773V126H124.85ZM125.318 117.667C125.127 117.667 124.967 117.602 124.837 117.472C124.707 117.342 124.642 117.186 124.642 117.004C124.642 116.822 124.707 116.67 124.837 116.549C124.967 116.419 125.127 116.354 125.318 116.354C125.508 116.354 125.669 116.415 125.799 116.536C125.929 116.657 125.994 116.809 125.994 116.991C125.994 117.182 125.929 117.342 125.799 117.472C125.677 117.602 125.517 117.667 125.318 117.667ZM130.928 126.065C130.278 126.065 129.693 125.918 129.173 125.623C128.661 125.328 128.258 124.921 127.964 124.401C127.669 123.872 127.522 123.266 127.522 122.581C127.522 121.888 127.669 121.281 127.964 120.761C128.258 120.241 128.661 119.838 129.173 119.552C129.693 119.257 130.278 119.11 130.928 119.11C131.526 119.11 132.059 119.244 132.527 119.513C133.003 119.782 133.38 120.176 133.658 120.696C133.944 121.207 134.087 121.836 134.087 122.581C134.087 123.318 133.948 123.946 133.671 124.466C133.393 124.986 133.016 125.385 132.54 125.662C132.072 125.931 131.534 126.065 130.928 126.065ZM130.993 125.246C131.478 125.246 131.911 125.138 132.293 124.921C132.683 124.696 132.986 124.384 133.203 123.985C133.428 123.578 133.541 123.11 133.541 122.581C133.541 122.044 133.428 121.576 133.203 121.177C132.986 120.778 132.683 120.471 132.293 120.254C131.911 120.029 131.478 119.916 130.993 119.916C130.516 119.916 130.087 120.029 129.706 120.254C129.324 120.471 129.021 120.778 128.796 121.177C128.57 121.576 128.458 122.044 128.458 122.581C128.458 123.11 128.57 123.578 128.796 123.985C129.021 124.384 129.324 124.696 129.706 124.921C130.087 125.138 130.516 125.246 130.993 125.246ZM133.567 126V123.946L133.658 122.568L133.528 121.19V116.354H134.451V126H133.567ZM139.79 126.065C139.08 126.065 138.456 125.918 137.918 125.623C137.381 125.32 136.961 124.908 136.657 124.388C136.354 123.859 136.202 123.257 136.202 122.581C136.202 121.905 136.345 121.307 136.631 120.787C136.926 120.267 137.325 119.86 137.827 119.565C138.339 119.262 138.911 119.11 139.543 119.11C140.185 119.11 140.752 119.257 141.246 119.552C141.749 119.838 142.143 120.245 142.429 120.774C142.715 121.294 142.858 121.896 142.858 122.581C142.858 122.624 142.854 122.672 142.845 122.724C142.845 122.767 142.845 122.815 142.845 122.867H136.904V122.178H142.351L141.987 122.451C141.987 121.957 141.879 121.519 141.662 121.138C141.454 120.748 141.168 120.445 140.804 120.228C140.44 120.011 140.02 119.903 139.543 119.903C139.075 119.903 138.655 120.011 138.282 120.228C137.91 120.445 137.619 120.748 137.411 121.138C137.203 121.528 137.099 121.974 137.099 122.477V122.62C137.099 123.14 137.212 123.599 137.437 123.998C137.671 124.388 137.992 124.696 138.399 124.921C138.815 125.138 139.288 125.246 139.816 125.246C140.232 125.246 140.618 125.172 140.973 125.025C141.337 124.878 141.649 124.652 141.909 124.349L142.429 124.947C142.126 125.311 141.745 125.588 141.285 125.779C140.835 125.97 140.336 126.065 139.79 126.065Z" fill="black" fill-opacity="0.5"/>
</g>
<defs>
<clipPath id="clip0_1583_5086">
<rect width="206" height="134.38" fill="white"/>
</clipPath>
</defs>
</svg>
