<svg width="54" height="64" viewBox="0 0 54 64" fill="none" xmlns="http://www.w3.org/2000/svg">
<g clip-path="url(#clip0_1583_3597)" filter="url(#filter0_d_1583_3597)">
<path d="M48.8949 17.122C48.1617 16.3496 47.2426 15.958 46.1484 15.958C45.6123 15.958 45.098 16.0777 44.6056 16.3061C44.3649 16.4258 44.157 16.5672 43.9819 16.7304V1.6317C43.9819 0.728827 43.2488 0 42.3406 0H5.64129C4.73311 0 4 0.728827 4 1.6317V37.986C4 38.8889 4.73311 39.6177 5.64129 39.6177H16.7912L18.6841 44.8065C19.9424 48.3745 21.9448 51.1266 24.6912 53.0738C27.4377 55.021 30.6984 55.9891 34.4952 55.9891C39.3097 55.9891 43.0956 54.6185 45.8639 51.8664C48.6213 49.1251 50.0109 45.3504 50.0109 40.5641V19.9176C50.0109 18.8298 49.6389 17.8943 48.9058 17.122H48.8949ZM6.73549 36.8982V13.1841L10.6089 12.8361C11.5937 12.749 12.491 12.3465 13.2131 11.7265C14.1213 12.9992 15.6094 13.8477 17.2945 13.8477C20.0409 13.8477 22.295 11.6068 22.295 8.87646C22.295 7.54934 21.7588 6.34188 20.8944 5.44988C22.1527 4.99301 23.1703 4.00311 23.6518 2.73038H41.2464V9.96426C40.7869 9.75758 40.2726 9.64879 39.7146 9.64879C39.1893 9.64879 38.686 9.73582 38.2155 9.90987C37.745 10.0839 37.4058 10.345 37.1979 10.6931C37.1104 9.64879 36.7165 8.7568 36.0162 8.00622C35.3159 7.25563 34.4186 6.88578 33.3354 6.88578C32.1865 6.88578 31.2236 7.28827 30.4577 8.08236C29.6917 8.87646 29.3088 9.8446 29.3306 10.965V12.6946C29.068 12.3357 28.7398 12.042 28.3459 11.8244C27.952 11.596 27.4596 11.4872 26.8687 11.4872C25.7745 11.4872 24.8554 11.8788 24.1223 12.6511C23.3892 13.4235 23.0171 14.359 23.0171 15.4468V32.0684C22.3825 30.7956 21.8354 29.9145 21.3868 29.4359C20.9382 28.9573 20.2488 28.4786 19.3078 28.0218L18.148 27.6519C17.9619 27.5322 17.7431 27.4561 17.4805 27.4126C17.2179 27.3691 16.9662 27.3473 16.7364 27.3473C15.9377 27.3473 15.2483 27.6519 14.6356 28.2502C14.0228 28.8485 13.7274 29.5447 13.7274 30.3388C13.7274 30.6325 13.7602 30.9262 13.8149 31.2199C13.8696 31.5136 13.9462 31.7855 14.0447 32.0684L15.8173 36.92H6.73549V36.8982ZM47.5162 40.5859C47.5162 44.6542 46.3782 47.8306 44.0913 50.115C41.8045 52.3994 38.6094 53.5416 34.4952 53.5416C31.1579 53.5416 28.3568 52.7148 26.1028 51.0614C23.8487 49.4079 22.1637 47.0474 21.0476 43.9689L16.2659 30.9806C16.1018 30.5998 16.1018 30.3061 16.2441 30.0995C16.3972 29.8928 16.6489 29.8057 17.01 29.8601C17.8525 29.9798 18.6403 30.3279 19.3625 30.9044C20.0847 31.481 20.7412 32.4926 21.3102 33.9176L22.8968 37.9207H25.4791V15.4359C25.4791 14.9899 25.5994 14.6418 25.8292 14.359C26.059 14.087 26.3982 13.9456 26.8468 13.9456C27.2954 13.9456 27.6346 14.087 27.8754 14.359C28.1161 14.6309 28.2364 14.9899 28.2364 15.4359V31.481H31.902V10.8345C31.902 10.3885 32.0224 10.0404 32.2521 9.75758C32.4819 9.47475 32.8321 9.34421 33.2916 9.34421C33.7512 9.34421 34.0685 9.48563 34.3092 9.75758C34.539 10.0295 34.6594 10.3885 34.6594 10.8345V31.481H38.3468V13.5975C38.3468 13.1515 38.4672 12.8034 38.697 12.5206C38.9267 12.2378 39.2659 12.1072 39.7146 12.1072C40.1632 12.1072 40.5024 12.2486 40.7431 12.5206C40.9838 12.7925 41.1042 13.1515 41.1042 13.5975V31.481H44.7697V19.9176C44.7697 19.4716 44.8901 19.1235 45.1199 18.8407C45.3497 18.5688 45.6998 18.4273 46.1594 18.4273C46.6189 18.4273 46.9362 18.5688 47.177 18.8407C47.4068 19.1127 47.5271 19.4716 47.5271 19.9176V40.5859H47.5162Z" fill="black"/>
<path d="M13.9243 23.2795C16.0575 23.2795 17.7868 21.5603 17.7868 19.4395C17.7868 17.3188 16.0575 15.5996 13.9243 15.5996C11.7911 15.5996 10.0618 17.3188 10.0618 19.4395C10.0618 21.5603 11.7911 23.2795 13.9243 23.2795Z" fill="black"/>
</g>
<defs>
<filter id="filter0_d_1583_3597" x="0" y="0" width="54" height="64" filterUnits="userSpaceOnUse" color-interpolation-filters="sRGB">
<feFlood flood-opacity="0" result="BackgroundImageFix"/>
<feColorMatrix in="SourceAlpha" type="matrix" values="0 0 0 0 0 0 0 0 0 0 0 0 0 0 0 0 0 0 127 0" result="hardAlpha"/>
<feOffset dy="4"/>
<feGaussianBlur stdDeviation="2"/>
<feComposite in2="hardAlpha" operator="out"/>
<feColorMatrix type="matrix" values="0 0 0 0 0 0 0 0 0 0 0 0 0 0 0 0 0 0 0.25 0"/>
<feBlend mode="normal" in2="BackgroundImageFix" result="effect1_dropShadow_1583_3597"/>
<feBlend mode="normal" in="SourceGraphic" in2="effect1_dropShadow_1583_3597" result="shape"/>
</filter>
<clipPath id="clip0_1583_3597">
<rect width="46" height="56" fill="white" transform="translate(4)"/>
</clipPath>
</defs>
</svg>
