<svg width="51" height="54" viewBox="0 0 51 54" fill="none" xmlns="http://www.w3.org/2000/svg">
<g clip-path="url(#clip0_1015_2571)">
<path d="M33.228 28.2906L26.6647 34.7011L20.1855 28.2062L21.9526 26.4349L25.4867 29.9775V21.5005H28.011V29.9775L31.4609 26.5192L33.228 28.2906Z" fill="black"/>
<path d="M47.2808 42.8744V8.56139C47.2808 7.74321 46.6245 7.08529 45.8083 7.08529H41.1467V1.4761C41.1467 0.657919 40.4903 0 39.6741 0H1.47253C0.656327 0 0 0.657919 0 1.4761V47.3871C0 48.2053 0.656327 48.8632 1.47253 48.8632H6.18462C6.55486 51.7563 9.02029 54.0084 12.0074 54.0084H45.2613C48.4252 54.0084 51 51.4274 51 48.2559C51 45.8013 49.4517 43.701 47.2808 42.8744ZM7.60667 7.08529C6.79046 7.08529 6.13414 7.74321 6.13414 8.56139V45.911H2.94506V2.9522H38.2016V7.08529H7.60667ZM9.0792 48.104V10.0375H44.3358V42.4864L12.1084 42.2165C11.2585 42.1828 10.5433 42.8407 10.5433 43.6842C10.5433 44.4939 11.1912 45.1603 12.0074 45.1687H12.0747C13.6651 45.2024 14.9525 46.5098 14.9525 48.1125C14.9525 49.7151 13.6398 51.0562 12.0158 51.0562C10.3918 51.0562 9.0792 49.7404 9.0792 48.1125V48.104ZM45.2613 51.0478H17.0982C17.603 50.179 17.8891 49.1753 17.8891 48.104C17.8891 47.0328 17.6115 46.0628 17.1234 45.2024L45.2529 45.4386C46.7928 45.4386 48.0465 46.7038 48.0465 48.2474C48.0465 49.791 46.7928 51.0478 45.2529 51.0478H45.2613Z" fill="black"/>
</g>
<defs>
<clipPath id="clip0_1015_2571">
<rect width="51" height="54" fill="white"/>
</clipPath>
</defs>
</svg>
