<svg width="51" height="59" viewBox="0 0 51 59" fill="none" xmlns="http://www.w3.org/2000/svg">
<g clip-path="url(#clip0_1015_891)">
<path d="M3.86526 24.0435C2.805 24.0435 1.90579 23.6695 1.14079 22.9081C0.37579 22.1467 0 21.2384 0 20.1965V3.84696C0 2.79171 0.37579 1.89676 1.14079 1.13539C1.90579 0.37401 2.81842 0 3.86526 0H47.1347C48.195 0 49.0942 0.37401 49.8592 1.13539C50.6242 1.89676 51 2.80507 51 3.84696V20.1965C51 21.2518 50.6242 22.1467 49.8592 22.9081C49.0942 23.6695 48.1816 24.0435 47.1347 24.0435H3.86526ZM3.86526 21.0113H47.1347C47.3763 21.0113 47.5776 20.9312 47.7253 20.7842C47.8729 20.6373 47.9534 20.4369 47.9534 20.1965V3.84696C47.9534 3.60652 47.8729 3.40616 47.7253 3.25923C47.5776 3.11229 47.3763 3.03215 47.1347 3.03215H38.4782C39.0284 3.72674 39.4713 4.48811 39.7934 5.34299C40.1155 6.19787 40.2766 7.09282 40.2766 8.01449C40.2766 10.1784 39.4847 12.0484 37.8876 13.638C36.3039 15.2275 34.4116 16.029 32.2239 16.029H18.7895C16.6153 16.029 14.7363 15.2275 13.1392 13.638C11.5421 12.0484 10.7368 10.165 10.7368 8.01449C10.7368 7.09282 10.8979 6.19787 11.22 5.34299C11.5421 4.48811 11.985 3.71338 12.5353 3.03215H3.86526C3.62368 3.03215 3.42237 3.11229 3.27474 3.25923C3.11368 3.41952 3.04658 3.60652 3.04658 3.84696V20.1965C3.04658 20.4369 3.12711 20.6373 3.27474 20.7842C3.43579 20.9445 3.62368 21.0113 3.86526 21.0113ZM18.7895 12.9968H23.9834V3.03215H18.7895C17.4608 3.03215 16.2797 3.52638 15.2866 4.52819C14.28 5.53 13.7834 6.67874 13.7834 8.01449C13.7834 9.35024 14.28 10.499 15.2866 11.5008C16.2932 12.5026 17.4608 12.9968 18.7895 12.9968ZM27.0166 12.9968H32.2105C33.5526 12.9968 34.7337 12.5026 35.7268 11.5008C36.72 10.499 37.2166 9.33688 37.2166 8.00113C37.2166 6.66538 36.72 5.50328 35.7268 4.51483C34.7337 3.52638 33.5661 3.03215 32.2105 3.03215H27.0166V12.9968ZM3.86526 59C2.81842 59 1.90579 58.626 1.14079 57.8646C0.37579 57.1032 0 56.1949 0 55.153V33.4739C0 32.4453 0.37579 31.5504 1.14079 30.7756C1.90579 30.0009 2.81842 29.6135 3.86526 29.6135H47.1347C48.1816 29.6135 49.0942 30.0009 49.8592 30.7756C50.6242 31.5504 51 32.4453 51 33.4739V55.153C51 56.1949 50.6242 57.1032 49.8592 57.8646C49.0942 58.626 48.1816 59 47.1347 59H3.86526ZM3.86526 55.9679H47.1347C47.3361 55.9679 47.5239 55.8877 47.6984 55.7141C47.8729 55.5404 47.9534 55.3534 47.9534 55.153V33.4739C47.9534 33.2735 47.8729 33.0865 47.6984 32.9128C47.5239 32.7392 47.3361 32.659 47.1347 32.659H38.7466V43.2916H35.7V32.659H27.03V43.2916H23.9834V32.659H15.3134V43.2916H12.2668V32.659H3.86526C3.66395 32.659 3.47605 32.7392 3.30158 32.9128C3.12711 33.0865 3.04658 33.2735 3.04658 33.4739V55.153C3.04658 55.3534 3.12711 55.5404 3.30158 55.7141C3.47605 55.8877 3.66395 55.9679 3.86526 55.9679Z" fill="black"/>
</g>
<defs>
<clipPath id="clip0_1015_891">
<rect width="51" height="59" fill="white"/>
</clipPath>
</defs>
</svg>
