<svg width="206" height="162" viewBox="0 0 206 162" fill="none" xmlns="http://www.w3.org/2000/svg">
<g clip-path="url(#clip0_1015_1391)">
<path d="M204.05 5.5H160V8.5H204.05V5.5Z" fill="#9E9D9D"/>
<path d="M7.28977 17.79C8.96319 17.79 10.3198 16.4334 10.3198 14.76C10.3198 13.0866 8.96319 11.73 7.28977 11.73C5.61634 11.73 4.25977 13.0866 4.25977 14.76C4.25977 16.4334 5.61634 17.79 7.28977 17.79Z" fill="#DDDBDB"/>
<path d="M18.0808 17.79C19.7542 17.79 21.1108 16.4334 21.1108 14.76C21.1108 13.0866 19.7542 11.73 18.0808 11.73C16.4074 11.73 15.0508 13.0866 15.0508 14.76C15.0508 16.4334 16.4074 17.79 18.0808 17.79Z" fill="#DDDBDB"/>
<path d="M12.6902 24.9399C14.3636 24.9399 15.7202 23.5833 15.7202 21.9099C15.7202 20.2365 14.3636 18.8799 12.6902 18.8799C11.0167 18.8799 9.66016 20.2365 9.66016 21.9099C9.66016 23.5833 11.0167 24.9399 12.6902 24.9399Z" fill="#DDDBDB"/>
<path d="M23.4695 24.9399C25.1429 24.9399 26.4995 23.5833 26.4995 21.9099C26.4995 20.2365 25.1429 18.8799 23.4695 18.8799C21.796 18.8799 20.4395 20.2365 20.4395 21.9099C20.4395 23.5833 21.796 24.9399 23.4695 24.9399Z" fill="#DDDBDB"/>
<path d="M7.28977 31.79C8.96319 31.79 10.3198 30.4334 10.3198 28.76C10.3198 27.0866 8.96319 25.73 7.28977 25.73C5.61634 25.73 4.25977 27.0866 4.25977 28.76C4.25977 30.4334 5.61634 31.79 7.28977 31.79Z" fill="#DDDBDB"/>
<path d="M18.0808 31.79C19.7542 31.79 21.1108 30.4334 21.1108 28.76C21.1108 27.0866 19.7542 25.73 18.0808 25.73C16.4074 25.73 15.0508 27.0866 15.0508 28.76C15.0508 30.4334 16.4074 31.79 18.0808 31.79Z" fill="#DDDBDB"/>
<path d="M28.8601 31.79C30.5335 31.79 31.8901 30.4334 31.8901 28.76C31.8901 27.0866 30.5335 25.73 28.8601 25.73C27.1867 25.73 25.8301 27.0866 25.8301 28.76C25.8301 30.4334 27.1867 31.79 28.8601 31.79Z" fill="#DDDBDB"/>
<path d="M39.6394 31.79C41.3128 31.79 42.6694 30.4334 42.6694 28.76C42.6694 27.0866 41.3128 25.73 39.6394 25.73C37.966 25.73 36.6094 27.0866 36.6094 28.76C36.6094 30.4334 37.966 31.79 39.6394 31.79Z" fill="#DDDBDB"/>
<path d="M12.6902 38.9399C14.3636 38.9399 15.7202 37.5833 15.7202 35.9099C15.7202 34.2365 14.3636 32.8799 12.6902 32.8799C11.0167 32.8799 9.66016 34.2365 9.66016 35.9099C9.66016 37.5833 11.0167 38.9399 12.6902 38.9399Z" fill="#DDDBDB"/>
<path d="M23.4695 38.9399C25.1429 38.9399 26.4995 37.5833 26.4995 35.9099C26.4995 34.2365 25.1429 32.8799 23.4695 32.8799C21.796 32.8799 20.4395 34.2365 20.4395 35.9099C20.4395 37.5833 21.796 38.9399 23.4695 38.9399Z" fill="#DDDBDB"/>
<path d="M34.2507 38.9399C35.9241 38.9399 37.2807 37.5833 37.2807 35.9099C37.2807 34.2365 35.9241 32.8799 34.2507 32.8799C32.5773 32.8799 31.2207 34.2365 31.2207 35.9099C31.2207 37.5833 32.5773 38.9399 34.2507 38.9399Z" fill="#DDDBDB"/>
<path d="M7.28977 45.7802C8.96319 45.7802 10.3198 44.4236 10.3198 42.7502C10.3198 41.0768 8.96319 39.7202 7.28977 39.7202C5.61634 39.7202 4.25977 41.0768 4.25977 42.7502C4.25977 44.4236 5.61634 45.7802 7.28977 45.7802Z" fill="#DDDBDB"/>
<path d="M18.0808 45.7802C19.7542 45.7802 21.1108 44.4236 21.1108 42.7502C21.1108 41.0768 19.7542 39.7202 18.0808 39.7202C16.4074 39.7202 15.0508 41.0768 15.0508 42.7502C15.0508 44.4236 16.4074 45.7802 18.0808 45.7802Z" fill="#DDDBDB"/>
<path d="M28.8601 45.7802C30.5335 45.7802 31.8901 44.4236 31.8901 42.7502C31.8901 41.0768 30.5335 39.7202 28.8601 39.7202C27.1867 39.7202 25.8301 41.0768 25.8301 42.7502C25.8301 44.4236 27.1867 45.7802 28.8601 45.7802Z" fill="#DDDBDB"/>
<path d="M39.6394 45.7802C41.3128 45.7802 42.6694 44.4236 42.6694 42.7502C42.6694 41.0768 41.3128 39.7202 39.6394 39.7202C37.966 39.7202 36.6094 41.0768 36.6094 42.7502C36.6094 44.4236 37.966 45.7802 39.6394 45.7802Z" fill="#DDDBDB"/>
<path d="M12.6902 52.9301C14.3636 52.9301 15.7202 51.5735 15.7202 49.9001C15.7202 48.2267 14.3636 46.8701 12.6902 46.8701C11.0167 46.8701 9.66016 48.2267 9.66016 49.9001C9.66016 51.5735 11.0167 52.9301 12.6902 52.9301Z" fill="#DDDBDB"/>
<path d="M23.4695 52.9301C25.1429 52.9301 26.4995 51.5735 26.4995 49.9001C26.4995 48.2267 25.1429 46.8701 23.4695 46.8701C21.796 46.8701 20.4395 48.2267 20.4395 49.9001C20.4395 51.5735 21.796 52.9301 23.4695 52.9301Z" fill="#DDDBDB"/>
<path d="M34.2507 52.9301C35.9241 52.9301 37.2807 51.5735 37.2807 49.9001C37.2807 48.2267 35.9241 46.8701 34.2507 46.8701C32.5773 46.8701 31.2207 48.2267 31.2207 49.9001C31.2207 51.5735 32.5773 52.9301 34.2507 52.9301Z" fill="#DDDBDB"/>
<path d="M7.28977 59.7802C8.96319 59.7802 10.3198 58.4236 10.3198 56.7502C10.3198 55.0768 8.96319 53.7202 7.28977 53.7202C5.61634 53.7202 4.25977 55.0768 4.25977 56.7502C4.25977 58.4236 5.61634 59.7802 7.28977 59.7802Z" fill="#DDDBDB"/>
<path d="M18.0808 59.7802C19.7542 59.7802 21.1108 58.4236 21.1108 56.7502C21.1108 55.0768 19.7542 53.7202 18.0808 53.7202C16.4074 53.7202 15.0508 55.0768 15.0508 56.7502C15.0508 58.4236 16.4074 59.7802 18.0808 59.7802Z" fill="#DDDBDB"/>
<path d="M28.8601 59.7802C30.5335 59.7802 31.8901 58.4236 31.8901 56.7502C31.8901 55.0768 30.5335 53.7202 28.8601 53.7202C27.1867 53.7202 25.8301 55.0768 25.8301 56.7502C25.8301 58.4236 27.1867 59.7802 28.8601 59.7802Z" fill="#DDDBDB"/>
<path d="M39.6394 59.7802C41.3128 59.7802 42.6694 58.4236 42.6694 56.7502C42.6694 55.0768 41.3128 53.7202 39.6394 53.7202C37.966 53.7202 36.6094 55.0768 36.6094 56.7502C36.6094 58.4236 37.966 59.7802 39.6394 59.7802Z" fill="#DDDBDB"/>
<path d="M12.6902 66.9301C14.3636 66.9301 15.7202 65.5735 15.7202 63.9001C15.7202 62.2267 14.3636 60.8701 12.6902 60.8701C11.0167 60.8701 9.66016 62.2267 9.66016 63.9001C9.66016 65.5735 11.0167 66.9301 12.6902 66.9301Z" fill="#DDDBDB"/>
<path d="M23.4695 66.9301C25.1429 66.9301 26.4995 65.5735 26.4995 63.9001C26.4995 62.2267 25.1429 60.8701 23.4695 60.8701C21.796 60.8701 20.4395 62.2267 20.4395 63.9001C20.4395 65.5735 21.796 66.9301 23.4695 66.9301Z" fill="#DDDBDB"/>
<path d="M34.2507 66.9301C35.9241 66.9301 37.2807 65.5735 37.2807 63.9001C37.2807 62.2267 35.9241 60.8701 34.2507 60.8701C32.5773 60.8701 31.2207 62.2267 31.2207 63.9001C31.2207 65.5735 32.5773 66.9301 34.2507 66.9301Z" fill="#DDDBDB"/>
<path d="M7.28977 73.7802C8.96319 73.7802 10.3198 72.4236 10.3198 70.7502C10.3198 69.0768 8.96319 67.7202 7.28977 67.7202C5.61634 67.7202 4.25977 69.0768 4.25977 70.7502C4.25977 72.4236 5.61634 73.7802 7.28977 73.7802Z" fill="#DDDBDB"/>
<path d="M18.0808 73.7802C19.7542 73.7802 21.1108 72.4236 21.1108 70.7502C21.1108 69.0768 19.7542 67.7202 18.0808 67.7202C16.4074 67.7202 15.0508 69.0768 15.0508 70.7502C15.0508 72.4236 16.4074 73.7802 18.0808 73.7802Z" fill="#DDDBDB"/>
<path d="M28.8601 73.7802C30.5335 73.7802 31.8901 72.4236 31.8901 70.7502C31.8901 69.0768 30.5335 67.7202 28.8601 67.7202C27.1867 67.7202 25.8301 69.0768 25.8301 70.7502C25.8301 72.4236 27.1867 73.7802 28.8601 73.7802Z" fill="#DDDBDB"/>
<path d="M39.6394 73.7802C41.3128 73.7802 42.6694 72.4236 42.6694 70.7502C42.6694 69.0768 41.3128 67.7202 39.6394 67.7202C37.966 67.7202 36.6094 69.0768 36.6094 70.7502C36.6094 72.4236 37.966 73.7802 39.6394 73.7802Z" fill="#DDDBDB"/>
<path d="M12.6902 80.9301C14.3636 80.9301 15.7202 79.5735 15.7202 77.9001C15.7202 76.2267 14.3636 74.8701 12.6902 74.8701C11.0167 74.8701 9.66016 76.2267 9.66016 77.9001C9.66016 79.5735 11.0167 80.9301 12.6902 80.9301Z" fill="#DDDBDB"/>
<path d="M23.4695 80.9301C25.1429 80.9301 26.4995 79.5735 26.4995 77.9001C26.4995 76.2267 25.1429 74.8701 23.4695 74.8701C21.796 74.8701 20.4395 76.2267 20.4395 77.9001C20.4395 79.5735 21.796 80.9301 23.4695 80.9301Z" fill="#DDDBDB"/>
<path d="M34.2507 80.9301C35.9241 80.9301 37.2807 79.5735 37.2807 77.9001C37.2807 76.2267 35.9241 74.8701 34.2507 74.8701C32.5773 74.8701 31.2207 76.2267 31.2207 77.9001C31.2207 79.5735 32.5773 80.9301 34.2507 80.9301Z" fill="#DDDBDB"/>
<path d="M7.28977 87.7802C8.96319 87.7802 10.3198 86.4236 10.3198 84.7502C10.3198 83.0768 8.96319 81.7202 7.28977 81.7202C5.61634 81.7202 4.25977 83.0768 4.25977 84.7502C4.25977 86.4236 5.61634 87.7802 7.28977 87.7802Z" fill="#DDDBDB"/>
<path d="M18.0808 87.7802C19.7542 87.7802 21.1108 86.4236 21.1108 84.7502C21.1108 83.0768 19.7542 81.7202 18.0808 81.7202C16.4074 81.7202 15.0508 83.0768 15.0508 84.7502C15.0508 86.4236 16.4074 87.7802 18.0808 87.7802Z" fill="#DDDBDB"/>
<path d="M28.8601 87.7802C30.5335 87.7802 31.8901 86.4236 31.8901 84.7502C31.8901 83.0768 30.5335 81.7202 28.8601 81.7202C27.1867 81.7202 25.8301 83.0768 25.8301 84.7502C25.8301 86.4236 27.1867 87.7802 28.8601 87.7802Z" fill="#DDDBDB"/>
<path d="M39.6394 87.7802C41.3128 87.7802 42.6694 86.4236 42.6694 84.7502C42.6694 83.0768 41.3128 81.7202 39.6394 81.7202C37.966 81.7202 36.6094 83.0768 36.6094 84.7502C36.6094 86.4236 37.966 87.7802 39.6394 87.7802Z" fill="#DDDBDB"/>
<path d="M12.6902 94.9301C14.3636 94.9301 15.7202 93.5735 15.7202 91.9001C15.7202 90.2267 14.3636 88.8701 12.6902 88.8701C11.0167 88.8701 9.66016 90.2267 9.66016 91.9001C9.66016 93.5735 11.0167 94.9301 12.6902 94.9301Z" fill="#DDDBDB"/>
<path d="M23.4695 94.9301C25.1429 94.9301 26.4995 93.5735 26.4995 91.9001C26.4995 90.2267 25.1429 88.8701 23.4695 88.8701C21.796 88.8701 20.4395 90.2267 20.4395 91.9001C20.4395 93.5735 21.796 94.9301 23.4695 94.9301Z" fill="#DDDBDB"/>
<path d="M34.2507 94.9301C35.9241 94.9301 37.2807 93.5735 37.2807 91.9001C37.2807 90.2267 35.9241 88.8701 34.2507 88.8701C32.5773 88.8701 31.2207 90.2267 31.2207 91.9001C31.2207 93.5735 32.5773 94.9301 34.2507 94.9301Z" fill="#DDDBDB"/>
<path d="M7.28977 101.77C8.96319 101.77 10.3198 100.413 10.3198 98.74C10.3198 97.0665 8.96319 95.71 7.28977 95.71C5.61634 95.71 4.25977 97.0665 4.25977 98.74C4.25977 100.413 5.61634 101.77 7.28977 101.77Z" fill="#DDDBDB"/>
<path d="M18.0808 101.77C19.7542 101.77 21.1108 100.413 21.1108 98.74C21.1108 97.0665 19.7542 95.71 18.0808 95.71C16.4074 95.71 15.0508 97.0665 15.0508 98.74C15.0508 100.413 16.4074 101.77 18.0808 101.77Z" fill="#DDDBDB"/>
<path d="M28.8601 101.77C30.5335 101.77 31.8901 100.413 31.8901 98.74C31.8901 97.0665 30.5335 95.71 28.8601 95.71C27.1867 95.71 25.8301 97.0665 25.8301 98.74C25.8301 100.413 27.1867 101.77 28.8601 101.77Z" fill="#DDDBDB"/>
<path d="M39.6394 101.77C41.3128 101.77 42.6694 100.413 42.6694 98.74C42.6694 97.0665 41.3128 95.71 39.6394 95.71C37.966 95.71 36.6094 97.0665 36.6094 98.74C36.6094 100.413 37.966 101.77 39.6394 101.77Z" fill="#DDDBDB"/>
<path d="M12.6902 108.92C14.3636 108.92 15.7202 107.563 15.7202 105.89C15.7202 104.216 14.3636 102.86 12.6902 102.86C11.0167 102.86 9.66016 104.216 9.66016 105.89C9.66016 107.563 11.0167 108.92 12.6902 108.92Z" fill="#DDDBDB"/>
<path d="M23.4695 108.92C25.1429 108.92 26.4995 107.563 26.4995 105.89C26.4995 104.216 25.1429 102.86 23.4695 102.86C21.796 102.86 20.4395 104.216 20.4395 105.89C20.4395 107.563 21.796 108.92 23.4695 108.92Z" fill="#DDDBDB"/>
<path d="M34.2507 108.92C35.9241 108.92 37.2807 107.563 37.2807 105.89C37.2807 104.216 35.9241 102.86 34.2507 102.86C32.5773 102.86 31.2207 104.216 31.2207 105.89C31.2207 107.563 32.5773 108.92 34.2507 108.92Z" fill="#DDDBDB"/>
<path d="M7.28977 115.77C8.96319 115.77 10.3198 114.413 10.3198 112.74C10.3198 111.067 8.96319 109.71 7.28977 109.71C5.61634 109.71 4.25977 111.067 4.25977 112.74C4.25977 114.413 5.61634 115.77 7.28977 115.77Z" fill="#DDDBDB"/>
<path d="M18.0808 115.77C19.7542 115.77 21.1108 114.413 21.1108 112.74C21.1108 111.067 19.7542 109.71 18.0808 109.71C16.4074 109.71 15.0508 111.067 15.0508 112.74C15.0508 114.413 16.4074 115.77 18.0808 115.77Z" fill="#DDDBDB"/>
<path d="M28.8601 115.77C30.5335 115.77 31.8901 114.413 31.8901 112.74C31.8901 111.067 30.5335 109.71 28.8601 109.71C27.1867 109.71 25.8301 111.067 25.8301 112.74C25.8301 114.413 27.1867 115.77 28.8601 115.77Z" fill="#DDDBDB"/>
<path d="M39.6394 115.77C41.3128 115.77 42.6694 114.413 42.6694 112.74C42.6694 111.067 41.3128 109.71 39.6394 109.71C37.966 109.71 36.6094 111.067 36.6094 112.74C36.6094 114.413 37.966 115.77 39.6394 115.77Z" fill="#DDDBDB"/>
<path d="M12.6902 122.92C14.3636 122.92 15.7202 121.563 15.7202 119.89C15.7202 118.216 14.3636 116.86 12.6902 116.86C11.0167 116.86 9.66016 118.216 9.66016 119.89C9.66016 121.563 11.0167 122.92 12.6902 122.92Z" fill="#DDDBDB"/>
<path d="M23.4695 122.92C25.1429 122.92 26.4995 121.563 26.4995 119.89C26.4995 118.216 25.1429 116.86 23.4695 116.86C21.796 116.86 20.4395 118.216 20.4395 119.89C20.4395 121.563 21.796 122.92 23.4695 122.92Z" fill="#DDDBDB"/>
<path d="M34.2507 122.92C35.9241 122.92 37.2807 121.563 37.2807 119.89C37.2807 118.216 35.9241 116.86 34.2507 116.86C32.5773 116.86 31.2207 118.216 31.2207 119.89C31.2207 121.563 32.5773 122.92 34.2507 122.92Z" fill="#DDDBDB"/>
<path d="M7.28977 129.77C8.96319 129.77 10.3198 128.413 10.3198 126.74C10.3198 125.067 8.96319 123.71 7.28977 123.71C5.61634 123.71 4.25977 125.067 4.25977 126.74C4.25977 128.413 5.61634 129.77 7.28977 129.77Z" fill="#DDDBDB"/>
<path d="M18.0808 129.77C19.7542 129.77 21.1108 128.413 21.1108 126.74C21.1108 125.067 19.7542 123.71 18.0808 123.71C16.4074 123.71 15.0508 125.067 15.0508 126.74C15.0508 128.413 16.4074 129.77 18.0808 129.77Z" fill="#DDDBDB"/>
<path d="M28.8601 129.77C30.5335 129.77 31.8901 128.413 31.8901 126.74C31.8901 125.067 30.5335 123.71 28.8601 123.71C27.1867 123.71 25.8301 125.067 25.8301 126.74C25.8301 128.413 27.1867 129.77 28.8601 129.77Z" fill="#DDDBDB"/>
<path d="M39.6394 129.77C41.3128 129.77 42.6694 128.413 42.6694 126.74C42.6694 125.067 41.3128 123.71 39.6394 123.71C37.966 123.71 36.6094 125.067 36.6094 126.74C36.6094 128.413 37.966 129.77 39.6394 129.77Z" fill="#DDDBDB"/>
<path d="M12.6902 136.92C14.3636 136.92 15.7202 135.563 15.7202 133.89C15.7202 132.216 14.3636 130.86 12.6902 130.86C11.0167 130.86 9.66016 132.216 9.66016 133.89C9.66016 135.563 11.0167 136.92 12.6902 136.92Z" fill="#DDDBDB"/>
<path d="M23.4695 136.92C25.1429 136.92 26.4995 135.563 26.4995 133.89C26.4995 132.216 25.1429 130.86 23.4695 130.86C21.796 130.86 20.4395 132.216 20.4395 133.89C20.4395 135.563 21.796 136.92 23.4695 136.92Z" fill="#DDDBDB"/>
<path d="M34.2507 136.92C35.9241 136.92 37.2807 135.563 37.2807 133.89C37.2807 132.216 35.9241 130.86 34.2507 130.86C32.5773 130.86 31.2207 132.216 31.2207 133.89C31.2207 135.563 32.5773 136.92 34.2507 136.92Z" fill="#DDDBDB"/>
<path d="M7.28977 143.77C8.96319 143.77 10.3198 142.413 10.3198 140.74C10.3198 139.067 8.96319 137.71 7.28977 137.71C5.61634 137.71 4.25977 139.067 4.25977 140.74C4.25977 142.413 5.61634 143.77 7.28977 143.77Z" fill="#DDDBDB"/>
<path d="M18.0808 143.77C19.7542 143.77 21.1108 142.413 21.1108 140.74C21.1108 139.067 19.7542 137.71 18.0808 137.71C16.4074 137.71 15.0508 139.067 15.0508 140.74C15.0508 142.413 16.4074 143.77 18.0808 143.77Z" fill="#DDDBDB"/>
<path d="M28.8601 143.77C30.5335 143.77 31.8901 142.413 31.8901 140.74C31.8901 139.067 30.5335 137.71 28.8601 137.71C27.1867 137.71 25.8301 139.067 25.8301 140.74C25.8301 142.413 27.1867 143.77 28.8601 143.77Z" fill="#DDDBDB"/>
<path d="M39.6394 143.77C41.3128 143.77 42.6694 142.413 42.6694 140.74C42.6694 139.067 41.3128 137.71 39.6394 137.71C37.966 137.71 36.6094 139.067 36.6094 140.74C36.6094 142.413 37.966 143.77 39.6394 143.77Z" fill="#DDDBDB"/>
<path d="M12.6902 150.92C14.3636 150.92 15.7202 149.563 15.7202 147.89C15.7202 146.216 14.3636 144.86 12.6902 144.86C11.0167 144.86 9.66016 146.216 9.66016 147.89C9.66016 149.563 11.0167 150.92 12.6902 150.92Z" fill="#DDDBDB"/>
<path d="M23.4695 150.92C25.1429 150.92 26.4995 149.563 26.4995 147.89C26.4995 146.216 25.1429 144.86 23.4695 144.86C21.796 144.86 20.4395 146.216 20.4395 147.89C20.4395 149.563 21.796 150.92 23.4695 150.92Z" fill="#DDDBDB"/>
<path d="M34.2507 150.92C35.9241 150.92 37.2807 149.563 37.2807 147.89C37.2807 146.216 35.9241 144.86 34.2507 144.86C32.5773 144.86 31.2207 146.216 31.2207 147.89C31.2207 149.563 32.5773 150.92 34.2507 150.92Z" fill="#DDDBDB"/>
<path d="M7.28977 157.76C8.96319 157.76 10.3198 156.404 10.3198 154.73C10.3198 153.057 8.96319 151.7 7.28977 151.7C5.61634 151.7 4.25977 153.057 4.25977 154.73C4.25977 156.404 5.61634 157.76 7.28977 157.76Z" fill="#DDDBDB"/>
<path d="M18.0808 157.76C19.7542 157.76 21.1108 156.404 21.1108 154.73C21.1108 153.057 19.7542 151.7 18.0808 151.7C16.4074 151.7 15.0508 153.057 15.0508 154.73C15.0508 156.404 16.4074 157.76 18.0808 157.76Z" fill="#DDDBDB"/>
<path d="M28.8601 157.76C30.5335 157.76 31.8901 156.404 31.8901 154.73C31.8901 153.057 30.5335 151.7 28.8601 151.7C27.1867 151.7 25.8301 153.057 25.8301 154.73C25.8301 156.404 27.1867 157.76 28.8601 157.76Z" fill="#DDDBDB"/>
<path d="M39.6394 157.76C41.3128 157.76 42.6694 156.404 42.6694 154.73C42.6694 153.057 41.3128 151.7 39.6394 151.7C37.966 151.7 36.6094 153.057 36.6094 154.73C36.6094 156.404 37.966 157.76 39.6394 157.76Z" fill="#DDDBDB"/>
<path d="M57.4109 17.79C59.0843 17.79 60.4409 16.4334 60.4409 14.76C60.4409 13.0866 59.0843 11.73 57.4109 11.73C55.7374 11.73 54.3809 13.0866 54.3809 14.76C54.3809 16.4334 55.7374 17.79 57.4109 17.79Z" fill="#DDDBDB"/>
<path d="M68.1999 17.79C69.8733 17.79 71.2299 16.4334 71.2299 14.76C71.2299 13.0866 69.8733 11.73 68.1999 11.73C66.5265 11.73 65.1699 13.0866 65.1699 14.76C65.1699 16.4334 66.5265 17.79 68.1999 17.79Z" fill="#DDDBDB"/>
<path d="M78.9792 17.79C80.6526 17.79 82.0092 16.4334 82.0092 14.76C82.0092 13.0866 80.6526 11.73 78.9792 11.73C77.3058 11.73 75.9492 13.0866 75.9492 14.76C75.9492 16.4334 77.3058 17.79 78.9792 17.79Z" fill="#DDDBDB"/>
<path d="M89.7605 17.79C91.4339 17.79 92.7905 16.4334 92.7905 14.76C92.7905 13.0866 91.4339 11.73 89.7605 11.73C88.087 11.73 86.7305 13.0866 86.7305 14.76C86.7305 16.4334 88.087 17.79 89.7605 17.79Z" fill="#DDDBDB"/>
<path d="M100.54 17.79C102.213 17.79 103.57 16.4334 103.57 14.76C103.57 13.0866 102.213 11.73 100.54 11.73C98.8663 11.73 97.5098 13.0866 97.5098 14.76C97.5098 16.4334 98.8663 17.79 100.54 17.79Z" fill="#DDDBDB"/>
<path d="M111.331 17.79C113.004 17.79 114.361 16.4334 114.361 14.76C114.361 13.0866 113.004 11.73 111.331 11.73C109.657 11.73 108.301 13.0866 108.301 14.76C108.301 16.4334 109.657 17.79 111.331 17.79Z" fill="#DDDBDB"/>
<path d="M122.11 17.79C123.783 17.79 125.14 16.4334 125.14 14.76C125.14 13.0866 123.783 11.73 122.11 11.73C120.437 11.73 119.08 13.0866 119.08 14.76C119.08 16.4334 120.437 17.79 122.11 17.79Z" fill="#DDDBDB"/>
<path d="M132.889 17.79C134.563 17.79 135.919 16.4334 135.919 14.76C135.919 13.0866 134.563 11.73 132.889 11.73C131.216 11.73 129.859 13.0866 129.859 14.76C129.859 16.4334 131.216 17.79 132.889 17.79Z" fill="#DDDBDB"/>
<path d="M73.5905 24.9399C75.264 24.9399 76.6206 23.5833 76.6206 21.9099C76.6206 20.2365 75.264 18.8799 73.5905 18.8799C71.9171 18.8799 70.5605 20.2365 70.5605 21.9099C70.5605 23.5833 71.9171 24.9399 73.5905 24.9399Z" fill="#DDDBDB"/>
<path d="M84.3699 24.9399C86.0433 24.9399 87.3998 23.5833 87.3998 21.9099C87.3998 20.2365 86.0433 18.8799 84.3699 18.8799C82.6964 18.8799 81.3398 20.2365 81.3398 21.9099C81.3398 23.5833 82.6964 24.9399 84.3699 24.9399Z" fill="#DDDBDB"/>
<path d="M95.1491 24.9399C96.8226 24.9399 98.1791 23.5833 98.1791 21.9099C98.1791 20.2365 96.8226 18.8799 95.1491 18.8799C93.4757 18.8799 92.1191 20.2365 92.1191 21.9099C92.1191 23.5833 93.4757 24.9399 95.1491 24.9399Z" fill="#DDDBDB"/>
<path d="M105.94 24.9399C107.614 24.9399 108.97 23.5833 108.97 21.9099C108.97 20.2365 107.614 18.8799 105.94 18.8799C104.267 18.8799 102.91 20.2365 102.91 21.9099C102.91 23.5833 104.267 24.9399 105.94 24.9399Z" fill="#DDDBDB"/>
<path d="M116.719 24.9399C118.393 24.9399 119.749 23.5833 119.749 21.9099C119.749 20.2365 118.393 18.8799 116.719 18.8799C115.046 18.8799 113.689 20.2365 113.689 21.9099C113.689 23.5833 115.046 24.9399 116.719 24.9399Z" fill="#DDDBDB"/>
<path d="M127.501 24.9399C129.174 24.9399 130.531 23.5833 130.531 21.9099C130.531 20.2365 129.174 18.8799 127.501 18.8799C125.827 18.8799 124.471 20.2365 124.471 21.9099C124.471 23.5833 125.827 24.9399 127.501 24.9399Z" fill="#DDDBDB"/>
<path d="M138.28 24.9399C139.953 24.9399 141.31 23.5833 141.31 21.9099C141.31 20.2365 139.953 18.8799 138.28 18.8799C136.607 18.8799 135.25 20.2365 135.25 21.9099C135.25 23.5833 136.607 24.9399 138.28 24.9399Z" fill="#DDDBDB"/>
<path d="M78.9792 31.79C80.6526 31.79 82.0092 30.4334 82.0092 28.76C82.0092 27.0866 80.6526 25.73 78.9792 25.73C77.3058 25.73 75.9492 27.0866 75.9492 28.76C75.9492 30.4334 77.3058 31.79 78.9792 31.79Z" fill="#DDDBDB"/>
<path d="M89.7605 31.79C91.4339 31.79 92.7905 30.4334 92.7905 28.76C92.7905 27.0866 91.4339 25.73 89.7605 25.73C88.087 25.73 86.7305 27.0866 86.7305 28.76C86.7305 30.4334 88.087 31.79 89.7605 31.79Z" fill="#DDDBDB"/>
<path d="M100.54 31.79C102.213 31.79 103.57 30.4334 103.57 28.76C103.57 27.0866 102.213 25.73 100.54 25.73C98.8663 25.73 97.5098 27.0866 97.5098 28.76C97.5098 30.4334 98.8663 31.79 100.54 31.79Z" fill="#DDDBDB"/>
<path d="M111.331 31.79C113.004 31.79 114.361 30.4334 114.361 28.76C114.361 27.0866 113.004 25.73 111.331 25.73C109.657 25.73 108.301 27.0866 108.301 28.76C108.301 30.4334 109.657 31.79 111.331 31.79Z" fill="#DDDBDB"/>
<path d="M122.11 31.79C123.783 31.79 125.14 30.4334 125.14 28.76C125.14 27.0866 123.783 25.73 122.11 25.73C120.437 25.73 119.08 27.0866 119.08 28.76C119.08 30.4334 120.437 31.79 122.11 31.79Z" fill="#DDDBDB"/>
<path d="M132.889 31.79C134.563 31.79 135.919 30.4334 135.919 28.76C135.919 27.0866 134.563 25.73 132.889 25.73C131.216 25.73 129.859 27.0866 129.859 28.76C129.859 30.4334 131.216 31.79 132.889 31.79Z" fill="#DDDBDB"/>
<path d="M143.671 31.79C145.344 31.79 146.701 30.4334 146.701 28.76C146.701 27.0866 145.344 25.73 143.671 25.73C141.997 25.73 140.641 27.0866 140.641 28.76C140.641 30.4334 141.997 31.79 143.671 31.79Z" fill="#DDDBDB"/>
<path d="M154.46 31.79C156.133 31.79 157.49 30.4334 157.49 28.76C157.49 27.0866 156.133 25.73 154.46 25.73C152.786 25.73 151.43 27.0866 151.43 28.76C151.43 30.4334 152.786 31.79 154.46 31.79Z" fill="#DDDBDB"/>
<path d="M73.5905 38.9399C75.264 38.9399 76.6206 37.5833 76.6206 35.9099C76.6206 34.2365 75.264 32.8799 73.5905 32.8799C71.9171 32.8799 70.5605 34.2365 70.5605 35.9099C70.5605 37.5833 71.9171 38.9399 73.5905 38.9399Z" fill="#DDDBDB"/>
<path d="M84.3699 38.9399C86.0433 38.9399 87.3998 37.5833 87.3998 35.9099C87.3998 34.2365 86.0433 32.8799 84.3699 32.8799C82.6964 32.8799 81.3398 34.2365 81.3398 35.9099C81.3398 37.5833 82.6964 38.9399 84.3699 38.9399Z" fill="#DDDBDB"/>
<path d="M95.1491 38.9399C96.8226 38.9399 98.1791 37.5833 98.1791 35.9099C98.1791 34.2365 96.8226 32.8799 95.1491 32.8799C93.4757 32.8799 92.1191 34.2365 92.1191 35.9099C92.1191 37.5833 93.4757 38.9399 95.1491 38.9399Z" fill="#DDDBDB"/>
<path d="M105.94 38.9399C107.614 38.9399 108.97 37.5833 108.97 35.9099C108.97 34.2365 107.614 32.8799 105.94 32.8799C104.267 32.8799 102.91 34.2365 102.91 35.9099C102.91 37.5833 104.267 38.9399 105.94 38.9399Z" fill="#DDDBDB"/>
<path d="M116.719 38.9399C118.393 38.9399 119.749 37.5833 119.749 35.9099C119.749 34.2365 118.393 32.8799 116.719 32.8799C115.046 32.8799 113.689 34.2365 113.689 35.9099C113.689 37.5833 115.046 38.9399 116.719 38.9399Z" fill="#DDDBDB"/>
<path d="M127.501 38.9399C129.174 38.9399 130.531 37.5833 130.531 35.9099C130.531 34.2365 129.174 32.8799 127.501 32.8799C125.827 32.8799 124.471 34.2365 124.471 35.9099C124.471 37.5833 125.827 38.9399 127.501 38.9399Z" fill="#DDDBDB"/>
<path d="M138.28 38.9399C139.953 38.9399 141.31 37.5833 141.31 35.9099C141.31 34.2365 139.953 32.8799 138.28 32.8799C136.607 32.8799 135.25 34.2365 135.25 35.9099C135.25 37.5833 136.607 38.9399 138.28 38.9399Z" fill="#DDDBDB"/>
<path d="M149.069 38.9399C150.742 38.9399 152.099 37.5833 152.099 35.9099C152.099 34.2365 150.742 32.8799 149.069 32.8799C147.396 32.8799 146.039 34.2365 146.039 35.9099C146.039 37.5833 147.396 38.9399 149.069 38.9399Z" fill="#DDDBDB"/>
<path d="M57.4109 45.7802C59.0843 45.7802 60.4409 44.4236 60.4409 42.7502C60.4409 41.0768 59.0843 39.7202 57.4109 39.7202C55.7374 39.7202 54.3809 41.0768 54.3809 42.7502C54.3809 44.4236 55.7374 45.7802 57.4109 45.7802Z" fill="#DDDBDB"/>
<path d="M68.1999 45.7802C69.8733 45.7802 71.2299 44.4236 71.2299 42.7502C71.2299 41.0768 69.8733 39.7202 68.1999 39.7202C66.5265 39.7202 65.1699 41.0768 65.1699 42.7502C65.1699 44.4236 66.5265 45.7802 68.1999 45.7802Z" fill="#DDDBDB"/>
<path d="M78.9792 45.7802C80.6526 45.7802 82.0092 44.4236 82.0092 42.7502C82.0092 41.0768 80.6526 39.7202 78.9792 39.7202C77.3058 39.7202 75.9492 41.0768 75.9492 42.7502C75.9492 44.4236 77.3058 45.7802 78.9792 45.7802Z" fill="#DDDBDB"/>
<path d="M89.7605 45.7802C91.4339 45.7802 92.7905 44.4236 92.7905 42.7502C92.7905 41.0768 91.4339 39.7202 89.7605 39.7202C88.087 39.7202 86.7305 41.0768 86.7305 42.7502C86.7305 44.4236 88.087 45.7802 89.7605 45.7802Z" fill="#DDDBDB"/>
<path d="M100.54 45.7802C102.213 45.7802 103.57 44.4236 103.57 42.7502C103.57 41.0768 102.213 39.7202 100.54 39.7202C98.8663 39.7202 97.5098 41.0768 97.5098 42.7502C97.5098 44.4236 98.8663 45.7802 100.54 45.7802Z" fill="#DDDBDB"/>
<path d="M111.331 45.7802C113.004 45.7802 114.361 44.4236 114.361 42.7502C114.361 41.0768 113.004 39.7202 111.331 39.7202C109.657 39.7202 108.301 41.0768 108.301 42.7502C108.301 44.4236 109.657 45.7802 111.331 45.7802Z" fill="#DDDBDB"/>
<path d="M122.11 45.7802C123.783 45.7802 125.14 44.4236 125.14 42.7502C125.14 41.0768 123.783 39.7202 122.11 39.7202C120.437 39.7202 119.08 41.0768 119.08 42.7502C119.08 44.4236 120.437 45.7802 122.11 45.7802Z" fill="#DDDBDB"/>
<path d="M132.889 45.7802C134.563 45.7802 135.919 44.4236 135.919 42.7502C135.919 41.0768 134.563 39.7202 132.889 39.7202C131.216 39.7202 129.859 41.0768 129.859 42.7502C129.859 44.4236 131.216 45.7802 132.889 45.7802Z" fill="#DDDBDB"/>
<path d="M143.671 45.7802C145.344 45.7802 146.701 44.4236 146.701 42.7502C146.701 41.0768 145.344 39.7202 143.671 39.7202C141.997 39.7202 140.641 41.0768 140.641 42.7502C140.641 44.4236 141.997 45.7802 143.671 45.7802Z" fill="#DDDBDB"/>
<path d="M154.46 45.7802C156.133 45.7802 157.49 44.4236 157.49 42.7502C157.49 41.0768 156.133 39.7202 154.46 39.7202C152.786 39.7202 151.43 41.0768 151.43 42.7502C151.43 44.4236 152.786 45.7802 154.46 45.7802Z" fill="#DDDBDB"/>
<path d="M62.8093 52.9301C64.4827 52.9301 65.8393 51.5735 65.8393 49.9001C65.8393 48.2267 64.4827 46.8701 62.8093 46.8701C61.1359 46.8701 59.7793 48.2267 59.7793 49.9001C59.7793 51.5735 61.1359 52.9301 62.8093 52.9301Z" fill="#DDDBDB"/>
<path d="M73.5905 52.9301C75.264 52.9301 76.6206 51.5735 76.6206 49.9001C76.6206 48.2267 75.264 46.8701 73.5905 46.8701C71.9171 46.8701 70.5605 48.2267 70.5605 49.9001C70.5605 51.5735 71.9171 52.9301 73.5905 52.9301Z" fill="#DDDBDB"/>
<path d="M84.3699 52.9301C86.0433 52.9301 87.3998 51.5735 87.3998 49.9001C87.3998 48.2267 86.0433 46.8701 84.3699 46.8701C82.6964 46.8701 81.3398 48.2267 81.3398 49.9001C81.3398 51.5735 82.6964 52.9301 84.3699 52.9301Z" fill="#DDDBDB"/>
<path d="M95.1491 52.9301C96.8226 52.9301 98.1791 51.5735 98.1791 49.9001C98.1791 48.2267 96.8226 46.8701 95.1491 46.8701C93.4757 46.8701 92.1191 48.2267 92.1191 49.9001C92.1191 51.5735 93.4757 52.9301 95.1491 52.9301Z" fill="#DDDBDB"/>
<path d="M105.94 52.9301C107.614 52.9301 108.97 51.5735 108.97 49.9001C108.97 48.2267 107.614 46.8701 105.94 46.8701C104.267 46.8701 102.91 48.2267 102.91 49.9001C102.91 51.5735 104.267 52.9301 105.94 52.9301Z" fill="#DDDBDB"/>
<path d="M116.719 52.9301C118.393 52.9301 119.749 51.5735 119.749 49.9001C119.749 48.2267 118.393 46.8701 116.719 46.8701C115.046 46.8701 113.689 48.2267 113.689 49.9001C113.689 51.5735 115.046 52.9301 116.719 52.9301Z" fill="#DDDBDB"/>
<path d="M127.501 52.9301C129.174 52.9301 130.531 51.5735 130.531 49.9001C130.531 48.2267 129.174 46.8701 127.501 46.8701C125.827 46.8701 124.471 48.2267 124.471 49.9001C124.471 51.5735 125.827 52.9301 127.501 52.9301Z" fill="#DDDBDB"/>
<path d="M138.28 52.9301C139.953 52.9301 141.31 51.5735 141.31 49.9001C141.31 48.2267 139.953 46.8701 138.28 46.8701C136.607 46.8701 135.25 48.2267 135.25 49.9001C135.25 51.5735 136.607 52.9301 138.28 52.9301Z" fill="#DDDBDB"/>
<path d="M149.069 52.9301C150.742 52.9301 152.099 51.5735 152.099 49.9001C152.099 48.2267 150.742 46.8701 149.069 46.8701C147.396 46.8701 146.039 48.2267 146.039 49.9001C146.039 51.5735 147.396 52.9301 149.069 52.9301Z" fill="#DDDBDB"/>
<path d="M57.4109 59.7802C59.0843 59.7802 60.4409 58.4236 60.4409 56.7502C60.4409 55.0768 59.0843 53.7202 57.4109 53.7202C55.7374 53.7202 54.3809 55.0768 54.3809 56.7502C54.3809 58.4236 55.7374 59.7802 57.4109 59.7802Z" fill="#DDDBDB"/>
<path d="M68.1999 59.7802C69.8733 59.7802 71.2299 58.4236 71.2299 56.7502C71.2299 55.0768 69.8733 53.7202 68.1999 53.7202C66.5265 53.7202 65.1699 55.0768 65.1699 56.7502C65.1699 58.4236 66.5265 59.7802 68.1999 59.7802Z" fill="#DDDBDB"/>
<path d="M78.9792 59.7802C80.6526 59.7802 82.0092 58.4236 82.0092 56.7502C82.0092 55.0768 80.6526 53.7202 78.9792 53.7202C77.3058 53.7202 75.9492 55.0768 75.9492 56.7502C75.9492 58.4236 77.3058 59.7802 78.9792 59.7802Z" fill="#DDDBDB"/>
<path d="M89.7605 59.7802C91.4339 59.7802 92.7905 58.4236 92.7905 56.7502C92.7905 55.0768 91.4339 53.7202 89.7605 53.7202C88.087 53.7202 86.7305 55.0768 86.7305 56.7502C86.7305 58.4236 88.087 59.7802 89.7605 59.7802Z" fill="#DDDBDB"/>
<path d="M100.54 59.7802C102.213 59.7802 103.57 58.4236 103.57 56.7502C103.57 55.0768 102.213 53.7202 100.54 53.7202C98.8663 53.7202 97.5098 55.0768 97.5098 56.7502C97.5098 58.4236 98.8663 59.7802 100.54 59.7802Z" fill="#DDDBDB"/>
<path d="M111.331 59.7802C113.004 59.7802 114.361 58.4236 114.361 56.7502C114.361 55.0768 113.004 53.7202 111.331 53.7202C109.657 53.7202 108.301 55.0768 108.301 56.7502C108.301 58.4236 109.657 59.7802 111.331 59.7802Z" fill="#DDDBDB"/>
<path d="M122.11 59.7802C123.783 59.7802 125.14 58.4236 125.14 56.7502C125.14 55.0768 123.783 53.7202 122.11 53.7202C120.437 53.7202 119.08 55.0768 119.08 56.7502C119.08 58.4236 120.437 59.7802 122.11 59.7802Z" fill="#DDDBDB"/>
<path d="M132.889 59.7802C134.563 59.7802 135.919 58.4236 135.919 56.7502C135.919 55.0768 134.563 53.7202 132.889 53.7202C131.216 53.7202 129.859 55.0768 129.859 56.7502C129.859 58.4236 131.216 59.7802 132.889 59.7802Z" fill="#DDDBDB"/>
<path d="M143.671 59.7802C145.344 59.7802 146.701 58.4236 146.701 56.7502C146.701 55.0768 145.344 53.7202 143.671 53.7202C141.997 53.7202 140.641 55.0768 140.641 56.7502C140.641 58.4236 141.997 59.7802 143.671 59.7802Z" fill="#DDDBDB"/>
<path d="M154.46 59.7802C156.133 59.7802 157.49 58.4236 157.49 56.7502C157.49 55.0768 156.133 53.7202 154.46 53.7202C152.786 53.7202 151.43 55.0768 151.43 56.7502C151.43 58.4236 152.786 59.7802 154.46 59.7802Z" fill="#DDDBDB"/>
<path d="M62.8093 66.9301C64.4827 66.9301 65.8393 65.5735 65.8393 63.9001C65.8393 62.2267 64.4827 60.8701 62.8093 60.8701C61.1359 60.8701 59.7793 62.2267 59.7793 63.9001C59.7793 65.5735 61.1359 66.9301 62.8093 66.9301Z" fill="#DDDBDB"/>
<path d="M73.5905 66.9301C75.264 66.9301 76.6206 65.5735 76.6206 63.9001C76.6206 62.2267 75.264 60.8701 73.5905 60.8701C71.9171 60.8701 70.5605 62.2267 70.5605 63.9001C70.5605 65.5735 71.9171 66.9301 73.5905 66.9301Z" fill="#DDDBDB"/>
<path d="M84.3699 66.9301C86.0433 66.9301 87.3998 65.5735 87.3998 63.9001C87.3998 62.2267 86.0433 60.8701 84.3699 60.8701C82.6964 60.8701 81.3398 62.2267 81.3398 63.9001C81.3398 65.5735 82.6964 66.9301 84.3699 66.9301Z" fill="#DDDBDB"/>
<path d="M95.1491 66.9301C96.8226 66.9301 98.1791 65.5735 98.1791 63.9001C98.1791 62.2267 96.8226 60.8701 95.1491 60.8701C93.4757 60.8701 92.1191 62.2267 92.1191 63.9001C92.1191 65.5735 93.4757 66.9301 95.1491 66.9301Z" fill="#DDDBDB"/>
<path d="M105.94 66.9301C107.614 66.9301 108.97 65.5735 108.97 63.9001C108.97 62.2267 107.614 60.8701 105.94 60.8701C104.267 60.8701 102.91 62.2267 102.91 63.9001C102.91 65.5735 104.267 66.9301 105.94 66.9301Z" fill="#DDDBDB"/>
<path d="M116.719 66.9301C118.393 66.9301 119.749 65.5735 119.749 63.9001C119.749 62.2267 118.393 60.8701 116.719 60.8701C115.046 60.8701 113.689 62.2267 113.689 63.9001C113.689 65.5735 115.046 66.9301 116.719 66.9301Z" fill="#DDDBDB"/>
<path d="M127.501 66.9301C129.174 66.9301 130.531 65.5735 130.531 63.9001C130.531 62.2267 129.174 60.8701 127.501 60.8701C125.827 60.8701 124.471 62.2267 124.471 63.9001C124.471 65.5735 125.827 66.9301 127.501 66.9301Z" fill="#DDDBDB"/>
<path d="M138.28 66.9301C139.953 66.9301 141.31 65.5735 141.31 63.9001C141.31 62.2267 139.953 60.8701 138.28 60.8701C136.607 60.8701 135.25 62.2267 135.25 63.9001C135.25 65.5735 136.607 66.9301 138.28 66.9301Z" fill="#DDDBDB"/>
<path d="M149.069 66.9301C150.742 66.9301 152.099 65.5735 152.099 63.9001C152.099 62.2267 150.742 60.8701 149.069 60.8701C147.396 60.8701 146.039 62.2267 146.039 63.9001C146.039 65.5735 147.396 66.9301 149.069 66.9301Z" fill="#DDDBDB"/>
<path d="M57.4109 73.7802C59.0843 73.7802 60.4409 72.4236 60.4409 70.7502C60.4409 69.0768 59.0843 67.7202 57.4109 67.7202C55.7374 67.7202 54.3809 69.0768 54.3809 70.7502C54.3809 72.4236 55.7374 73.7802 57.4109 73.7802Z" fill="#DDDBDB"/>
<path d="M68.1999 73.7802C69.8733 73.7802 71.2299 72.4236 71.2299 70.7502C71.2299 69.0768 69.8733 67.7202 68.1999 67.7202C66.5265 67.7202 65.1699 69.0768 65.1699 70.7502C65.1699 72.4236 66.5265 73.7802 68.1999 73.7802Z" fill="#DDDBDB"/>
<path d="M78.9792 73.7802C80.6526 73.7802 82.0092 72.4236 82.0092 70.7502C82.0092 69.0768 80.6526 67.7202 78.9792 67.7202C77.3058 67.7202 75.9492 69.0768 75.9492 70.7502C75.9492 72.4236 77.3058 73.7802 78.9792 73.7802Z" fill="#DDDBDB"/>
<path d="M89.7605 73.7802C91.4339 73.7802 92.7905 72.4236 92.7905 70.7502C92.7905 69.0768 91.4339 67.7202 89.7605 67.7202C88.087 67.7202 86.7305 69.0768 86.7305 70.7502C86.7305 72.4236 88.087 73.7802 89.7605 73.7802Z" fill="#DDDBDB"/>
<path d="M100.54 73.7802C102.213 73.7802 103.57 72.4236 103.57 70.7502C103.57 69.0768 102.213 67.7202 100.54 67.7202C98.8663 67.7202 97.5098 69.0768 97.5098 70.7502C97.5098 72.4236 98.8663 73.7802 100.54 73.7802Z" fill="#DDDBDB"/>
<path d="M111.331 73.7802C113.004 73.7802 114.361 72.4236 114.361 70.7502C114.361 69.0768 113.004 67.7202 111.331 67.7202C109.657 67.7202 108.301 69.0768 108.301 70.7502C108.301 72.4236 109.657 73.7802 111.331 73.7802Z" fill="#DDDBDB"/>
<path d="M122.11 73.7802C123.783 73.7802 125.14 72.4236 125.14 70.7502C125.14 69.0768 123.783 67.7202 122.11 67.7202C120.437 67.7202 119.08 69.0768 119.08 70.7502C119.08 72.4236 120.437 73.7802 122.11 73.7802Z" fill="#DDDBDB"/>
<path d="M132.889 73.7802C134.563 73.7802 135.919 72.4236 135.919 70.7502C135.919 69.0768 134.563 67.7202 132.889 67.7202C131.216 67.7202 129.859 69.0768 129.859 70.7502C129.859 72.4236 131.216 73.7802 132.889 73.7802Z" fill="#DDDBDB"/>
<path d="M143.671 73.7802C145.344 73.7802 146.701 72.4236 146.701 70.7502C146.701 69.0768 145.344 67.7202 143.671 67.7202C141.997 67.7202 140.641 69.0768 140.641 70.7502C140.641 72.4236 141.997 73.7802 143.671 73.7802Z" fill="#DDDBDB"/>
<path d="M154.46 73.7802C156.133 73.7802 157.49 72.4236 157.49 70.7502C157.49 69.0768 156.133 67.7202 154.46 67.7202C152.786 67.7202 151.43 69.0768 151.43 70.7502C151.43 72.4236 152.786 73.7802 154.46 73.7802Z" fill="#DDDBDB"/>
<path d="M73.5905 80.9301C75.264 80.9301 76.6206 79.5735 76.6206 77.9001C76.6206 76.2267 75.264 74.8701 73.5905 74.8701C71.9171 74.8701 70.5605 76.2267 70.5605 77.9001C70.5605 79.5735 71.9171 80.9301 73.5905 80.9301Z" fill="#DDDBDB"/>
<path d="M84.3699 80.9301C86.0433 80.9301 87.3998 79.5735 87.3998 77.9001C87.3998 76.2267 86.0433 74.8701 84.3699 74.8701C82.6964 74.8701 81.3398 76.2267 81.3398 77.9001C81.3398 79.5735 82.6964 80.9301 84.3699 80.9301Z" fill="#DDDBDB"/>
<path d="M95.1491 80.9301C96.8226 80.9301 98.1791 79.5735 98.1791 77.9001C98.1791 76.2267 96.8226 74.8701 95.1491 74.8701C93.4757 74.8701 92.1191 76.2267 92.1191 77.9001C92.1191 79.5735 93.4757 80.9301 95.1491 80.9301Z" fill="#DDDBDB"/>
<path d="M105.94 80.9301C107.614 80.9301 108.97 79.5735 108.97 77.9001C108.97 76.2267 107.614 74.8701 105.94 74.8701C104.267 74.8701 102.91 76.2267 102.91 77.9001C102.91 79.5735 104.267 80.9301 105.94 80.9301Z" fill="#DDDBDB"/>
<path d="M116.719 80.9301C118.393 80.9301 119.749 79.5735 119.749 77.9001C119.749 76.2267 118.393 74.8701 116.719 74.8701C115.046 74.8701 113.689 76.2267 113.689 77.9001C113.689 79.5735 115.046 80.9301 116.719 80.9301Z" fill="#DDDBDB"/>
<path d="M127.501 80.9301C129.174 80.9301 130.531 79.5735 130.531 77.9001C130.531 76.2267 129.174 74.8701 127.501 74.8701C125.827 74.8701 124.471 76.2267 124.471 77.9001C124.471 79.5735 125.827 80.9301 127.501 80.9301Z" fill="#DDDBDB"/>
<path d="M138.28 80.9301C139.953 80.9301 141.31 79.5735 141.31 77.9001C141.31 76.2267 139.953 74.8701 138.28 74.8701C136.607 74.8701 135.25 76.2267 135.25 77.9001C135.25 79.5735 136.607 80.9301 138.28 80.9301Z" fill="#DDDBDB"/>
<path d="M149.069 80.9301C150.742 80.9301 152.099 79.5735 152.099 77.9001C152.099 76.2267 150.742 74.8701 149.069 74.8701C147.396 74.8701 146.039 76.2267 146.039 77.9001C146.039 79.5735 147.396 80.9301 149.069 80.9301Z" fill="#DDDBDB"/>
<path d="M78.9792 87.7802C80.6526 87.7802 82.0092 86.4236 82.0092 84.7502C82.0092 83.0768 80.6526 81.7202 78.9792 81.7202C77.3058 81.7202 75.9492 83.0768 75.9492 84.7502C75.9492 86.4236 77.3058 87.7802 78.9792 87.7802Z" fill="#DDDBDB"/>
<path d="M89.7605 87.7802C91.4339 87.7802 92.7905 86.4236 92.7905 84.7502C92.7905 83.0768 91.4339 81.7202 89.7605 81.7202C88.087 81.7202 86.7305 83.0768 86.7305 84.7502C86.7305 86.4236 88.087 87.7802 89.7605 87.7802Z" fill="#DDDBDB"/>
<path d="M100.54 87.7802C102.213 87.7802 103.57 86.4236 103.57 84.7502C103.57 83.0768 102.213 81.7202 100.54 81.7202C98.8663 81.7202 97.5098 83.0768 97.5098 84.7502C97.5098 86.4236 98.8663 87.7802 100.54 87.7802Z" fill="#DDDBDB"/>
<path d="M111.331 87.7802C113.004 87.7802 114.361 86.4236 114.361 84.7502C114.361 83.0768 113.004 81.7202 111.331 81.7202C109.657 81.7202 108.301 83.0768 108.301 84.7502C108.301 86.4236 109.657 87.7802 111.331 87.7802Z" fill="#DDDBDB"/>
<path d="M122.11 87.7802C123.783 87.7802 125.14 86.4236 125.14 84.7502C125.14 83.0768 123.783 81.7202 122.11 81.7202C120.437 81.7202 119.08 83.0768 119.08 84.7502C119.08 86.4236 120.437 87.7802 122.11 87.7802Z" fill="#DDDBDB"/>
<path d="M132.889 87.7802C134.563 87.7802 135.919 86.4236 135.919 84.7502C135.919 83.0768 134.563 81.7202 132.889 81.7202C131.216 81.7202 129.859 83.0768 129.859 84.7502C129.859 86.4236 131.216 87.7802 132.889 87.7802Z" fill="#DDDBDB"/>
<path d="M143.671 87.7802C145.344 87.7802 146.701 86.4236 146.701 84.7502C146.701 83.0768 145.344 81.7202 143.671 81.7202C141.997 81.7202 140.641 83.0768 140.641 84.7502C140.641 86.4236 141.997 87.7802 143.671 87.7802Z" fill="#DDDBDB"/>
<path d="M154.46 87.7802C156.133 87.7802 157.49 86.4236 157.49 84.7502C157.49 83.0768 156.133 81.7202 154.46 81.7202C152.786 81.7202 151.43 83.0768 151.43 84.7502C151.43 86.4236 152.786 87.7802 154.46 87.7802Z" fill="#DDDBDB"/>
<path d="M73.5905 94.9301C75.264 94.9301 76.6206 93.5735 76.6206 91.9001C76.6206 90.2267 75.264 88.8701 73.5905 88.8701C71.9171 88.8701 70.5605 90.2267 70.5605 91.9001C70.5605 93.5735 71.9171 94.9301 73.5905 94.9301Z" fill="#DDDBDB"/>
<path d="M84.3699 94.9301C86.0433 94.9301 87.3998 93.5735 87.3998 91.9001C87.3998 90.2267 86.0433 88.8701 84.3699 88.8701C82.6964 88.8701 81.3398 90.2267 81.3398 91.9001C81.3398 93.5735 82.6964 94.9301 84.3699 94.9301Z" fill="#DDDBDB"/>
<path d="M95.1491 94.9301C96.8226 94.9301 98.1791 93.5735 98.1791 91.9001C98.1791 90.2267 96.8226 88.8701 95.1491 88.8701C93.4757 88.8701 92.1191 90.2267 92.1191 91.9001C92.1191 93.5735 93.4757 94.9301 95.1491 94.9301Z" fill="#DDDBDB"/>
<path d="M105.94 94.9301C107.614 94.9301 108.97 93.5735 108.97 91.9001C108.97 90.2267 107.614 88.8701 105.94 88.8701C104.267 88.8701 102.91 90.2267 102.91 91.9001C102.91 93.5735 104.267 94.9301 105.94 94.9301Z" fill="#DDDBDB"/>
<path d="M116.719 94.9301C118.393 94.9301 119.749 93.5735 119.749 91.9001C119.749 90.2267 118.393 88.8701 116.719 88.8701C115.046 88.8701 113.689 90.2267 113.689 91.9001C113.689 93.5735 115.046 94.9301 116.719 94.9301Z" fill="#DDDBDB"/>
<path d="M127.501 94.9301C129.174 94.9301 130.531 93.5735 130.531 91.9001C130.531 90.2267 129.174 88.8701 127.501 88.8701C125.827 88.8701 124.471 90.2267 124.471 91.9001C124.471 93.5735 125.827 94.9301 127.501 94.9301Z" fill="#DDDBDB"/>
<path d="M138.28 94.9301C139.953 94.9301 141.31 93.5735 141.31 91.9001C141.31 90.2267 139.953 88.8701 138.28 88.8701C136.607 88.8701 135.25 90.2267 135.25 91.9001C135.25 93.5735 136.607 94.9301 138.28 94.9301Z" fill="#DDDBDB"/>
<path d="M149.069 94.9301C150.742 94.9301 152.099 93.5735 152.099 91.9001C152.099 90.2267 150.742 88.8701 149.069 88.8701C147.396 88.8701 146.039 90.2267 146.039 91.9001C146.039 93.5735 147.396 94.9301 149.069 94.9301Z" fill="#DDDBDB"/>
<path d="M57.4109 101.77C59.0843 101.77 60.4409 100.413 60.4409 98.74C60.4409 97.0665 59.0843 95.71 57.4109 95.71C55.7374 95.71 54.3809 97.0665 54.3809 98.74C54.3809 100.413 55.7374 101.77 57.4109 101.77Z" fill="#DDDBDB"/>
<path d="M68.1999 101.77C69.8733 101.77 71.2299 100.413 71.2299 98.74C71.2299 97.0665 69.8733 95.71 68.1999 95.71C66.5265 95.71 65.1699 97.0665 65.1699 98.74C65.1699 100.413 66.5265 101.77 68.1999 101.77Z" fill="#DDDBDB"/>
<path d="M78.9792 101.77C80.6526 101.77 82.0092 100.413 82.0092 98.74C82.0092 97.0665 80.6526 95.71 78.9792 95.71C77.3058 95.71 75.9492 97.0665 75.9492 98.74C75.9492 100.413 77.3058 101.77 78.9792 101.77Z" fill="#DDDBDB"/>
<path d="M89.7605 101.77C91.4339 101.77 92.7905 100.413 92.7905 98.74C92.7905 97.0665 91.4339 95.71 89.7605 95.71C88.087 95.71 86.7305 97.0665 86.7305 98.74C86.7305 100.413 88.087 101.77 89.7605 101.77Z" fill="#DDDBDB"/>
<path d="M100.54 101.77C102.213 101.77 103.57 100.413 103.57 98.74C103.57 97.0665 102.213 95.71 100.54 95.71C98.8663 95.71 97.5098 97.0665 97.5098 98.74C97.5098 100.413 98.8663 101.77 100.54 101.77Z" fill="#DDDBDB"/>
<path d="M111.331 101.77C113.004 101.77 114.361 100.413 114.361 98.74C114.361 97.0665 113.004 95.71 111.331 95.71C109.657 95.71 108.301 97.0665 108.301 98.74C108.301 100.413 109.657 101.77 111.331 101.77Z" fill="#DDDBDB"/>
<path d="M122.11 101.77C123.783 101.77 125.14 100.413 125.14 98.74C125.14 97.0665 123.783 95.71 122.11 95.71C120.437 95.71 119.08 97.0665 119.08 98.74C119.08 100.413 120.437 101.77 122.11 101.77Z" fill="#DDDBDB"/>
<path d="M132.889 101.77C134.563 101.77 135.919 100.413 135.919 98.74C135.919 97.0665 134.563 95.71 132.889 95.71C131.216 95.71 129.859 97.0665 129.859 98.74C129.859 100.413 131.216 101.77 132.889 101.77Z" fill="#DDDBDB"/>
<path d="M143.671 101.77C145.344 101.77 146.701 100.413 146.701 98.74C146.701 97.0665 145.344 95.71 143.671 95.71C141.997 95.71 140.641 97.0665 140.641 98.74C140.641 100.413 141.997 101.77 143.671 101.77Z" fill="#DDDBDB"/>
<path d="M154.46 101.77C156.133 101.77 157.49 100.413 157.49 98.74C157.49 97.0665 156.133 95.71 154.46 95.71C152.786 95.71 151.43 97.0665 151.43 98.74C151.43 100.413 152.786 101.77 154.46 101.77Z" fill="#DDDBDB"/>
<path d="M62.8093 108.92C64.4827 108.92 65.8393 107.563 65.8393 105.89C65.8393 104.216 64.4827 102.86 62.8093 102.86C61.1359 102.86 59.7793 104.216 59.7793 105.89C59.7793 107.563 61.1359 108.92 62.8093 108.92Z" fill="#DDDBDB"/>
<path d="M73.5905 108.92C75.264 108.92 76.6206 107.563 76.6206 105.89C76.6206 104.216 75.264 102.86 73.5905 102.86C71.9171 102.86 70.5605 104.216 70.5605 105.89C70.5605 107.563 71.9171 108.92 73.5905 108.92Z" fill="#DDDBDB"/>
<path d="M84.3699 108.92C86.0433 108.92 87.3998 107.563 87.3998 105.89C87.3998 104.216 86.0433 102.86 84.3699 102.86C82.6964 102.86 81.3398 104.216 81.3398 105.89C81.3398 107.563 82.6964 108.92 84.3699 108.92Z" fill="#DDDBDB"/>
<path d="M95.1491 108.92C96.8226 108.92 98.1791 107.563 98.1791 105.89C98.1791 104.216 96.8226 102.86 95.1491 102.86C93.4757 102.86 92.1191 104.216 92.1191 105.89C92.1191 107.563 93.4757 108.92 95.1491 108.92Z" fill="#DDDBDB"/>
<path d="M105.94 108.92C107.614 108.92 108.97 107.563 108.97 105.89C108.97 104.216 107.614 102.86 105.94 102.86C104.267 102.86 102.91 104.216 102.91 105.89C102.91 107.563 104.267 108.92 105.94 108.92Z" fill="#DDDBDB"/>
<path d="M116.719 108.92C118.393 108.92 119.749 107.563 119.749 105.89C119.749 104.216 118.393 102.86 116.719 102.86C115.046 102.86 113.689 104.216 113.689 105.89C113.689 107.563 115.046 108.92 116.719 108.92Z" fill="#DDDBDB"/>
<path d="M127.501 108.92C129.174 108.92 130.531 107.563 130.531 105.89C130.531 104.216 129.174 102.86 127.501 102.86C125.827 102.86 124.471 104.216 124.471 105.89C124.471 107.563 125.827 108.92 127.501 108.92Z" fill="#DDDBDB"/>
<path d="M138.28 108.92C139.953 108.92 141.31 107.563 141.31 105.89C141.31 104.216 139.953 102.86 138.28 102.86C136.607 102.86 135.25 104.216 135.25 105.89C135.25 107.563 136.607 108.92 138.28 108.92Z" fill="#DDDBDB"/>
<path d="M149.069 108.92C150.742 108.92 152.099 107.563 152.099 105.89C152.099 104.216 150.742 102.86 149.069 102.86C147.396 102.86 146.039 104.216 146.039 105.89C146.039 107.563 147.396 108.92 149.069 108.92Z" fill="#DDDBDB"/>
<path d="M57.4109 115.77C59.0843 115.77 60.4409 114.413 60.4409 112.74C60.4409 111.067 59.0843 109.71 57.4109 109.71C55.7374 109.71 54.3809 111.067 54.3809 112.74C54.3809 114.413 55.7374 115.77 57.4109 115.77Z" fill="#DDDBDB"/>
<path d="M68.1999 115.77C69.8733 115.77 71.2299 114.413 71.2299 112.74C71.2299 111.067 69.8733 109.71 68.1999 109.71C66.5265 109.71 65.1699 111.067 65.1699 112.74C65.1699 114.413 66.5265 115.77 68.1999 115.77Z" fill="#DDDBDB"/>
<path d="M78.9792 115.77C80.6526 115.77 82.0092 114.413 82.0092 112.74C82.0092 111.067 80.6526 109.71 78.9792 109.71C77.3058 109.71 75.9492 111.067 75.9492 112.74C75.9492 114.413 77.3058 115.77 78.9792 115.77Z" fill="#DDDBDB"/>
<path d="M89.7605 115.77C91.4339 115.77 92.7905 114.413 92.7905 112.74C92.7905 111.067 91.4339 109.71 89.7605 109.71C88.087 109.71 86.7305 111.067 86.7305 112.74C86.7305 114.413 88.087 115.77 89.7605 115.77Z" fill="#DDDBDB"/>
<path d="M100.54 115.77C102.213 115.77 103.57 114.413 103.57 112.74C103.57 111.067 102.213 109.71 100.54 109.71C98.8663 109.71 97.5098 111.067 97.5098 112.74C97.5098 114.413 98.8663 115.77 100.54 115.77Z" fill="#DDDBDB"/>
<path d="M111.331 115.77C113.004 115.77 114.361 114.413 114.361 112.74C114.361 111.067 113.004 109.71 111.331 109.71C109.657 109.71 108.301 111.067 108.301 112.74C108.301 114.413 109.657 115.77 111.331 115.77Z" fill="#DDDBDB"/>
<path d="M122.11 115.77C123.783 115.77 125.14 114.413 125.14 112.74C125.14 111.067 123.783 109.71 122.11 109.71C120.437 109.71 119.08 111.067 119.08 112.74C119.08 114.413 120.437 115.77 122.11 115.77Z" fill="#DDDBDB"/>
<path d="M132.889 115.77C134.563 115.77 135.919 114.413 135.919 112.74C135.919 111.067 134.563 109.71 132.889 109.71C131.216 109.71 129.859 111.067 129.859 112.74C129.859 114.413 131.216 115.77 132.889 115.77Z" fill="#DDDBDB"/>
<path d="M143.671 115.77C145.344 115.77 146.701 114.413 146.701 112.74C146.701 111.067 145.344 109.71 143.671 109.71C141.997 109.71 140.641 111.067 140.641 112.74C140.641 114.413 141.997 115.77 143.671 115.77Z" fill="#DDDBDB"/>
<path d="M154.46 115.77C156.133 115.77 157.49 114.413 157.49 112.74C157.49 111.067 156.133 109.71 154.46 109.71C152.786 109.71 151.43 111.067 151.43 112.74C151.43 114.413 152.786 115.77 154.46 115.77Z" fill="#DDDBDB"/>
<path d="M62.8093 122.92C64.4827 122.92 65.8393 121.563 65.8393 119.89C65.8393 118.216 64.4827 116.86 62.8093 116.86C61.1359 116.86 59.7793 118.216 59.7793 119.89C59.7793 121.563 61.1359 122.92 62.8093 122.92Z" fill="#DDDBDB"/>
<path d="M73.5905 122.92C75.264 122.92 76.6206 121.563 76.6206 119.89C76.6206 118.216 75.264 116.86 73.5905 116.86C71.9171 116.86 70.5605 118.216 70.5605 119.89C70.5605 121.563 71.9171 122.92 73.5905 122.92Z" fill="#DDDBDB"/>
<path d="M84.3699 122.92C86.0433 122.92 87.3998 121.563 87.3998 119.89C87.3998 118.216 86.0433 116.86 84.3699 116.86C82.6964 116.86 81.3398 118.216 81.3398 119.89C81.3398 121.563 82.6964 122.92 84.3699 122.92Z" fill="#DDDBDB"/>
<path d="M95.1491 122.92C96.8226 122.92 98.1791 121.563 98.1791 119.89C98.1791 118.216 96.8226 116.86 95.1491 116.86C93.4757 116.86 92.1191 118.216 92.1191 119.89C92.1191 121.563 93.4757 122.92 95.1491 122.92Z" fill="#DDDBDB"/>
<path d="M105.94 122.92C107.614 122.92 108.97 121.563 108.97 119.89C108.97 118.216 107.614 116.86 105.94 116.86C104.267 116.86 102.91 118.216 102.91 119.89C102.91 121.563 104.267 122.92 105.94 122.92Z" fill="#DDDBDB"/>
<path d="M116.719 122.92C118.393 122.92 119.749 121.563 119.749 119.89C119.749 118.216 118.393 116.86 116.719 116.86C115.046 116.86 113.689 118.216 113.689 119.89C113.689 121.563 115.046 122.92 116.719 122.92Z" fill="#DDDBDB"/>
<path d="M127.501 122.92C129.174 122.92 130.531 121.563 130.531 119.89C130.531 118.216 129.174 116.86 127.501 116.86C125.827 116.86 124.471 118.216 124.471 119.89C124.471 121.563 125.827 122.92 127.501 122.92Z" fill="#DDDBDB"/>
<path d="M138.28 122.92C139.953 122.92 141.31 121.563 141.31 119.89C141.31 118.216 139.953 116.86 138.28 116.86C136.607 116.86 135.25 118.216 135.25 119.89C135.25 121.563 136.607 122.92 138.28 122.92Z" fill="#DDDBDB"/>
<path d="M149.069 122.92C150.742 122.92 152.099 121.563 152.099 119.89C152.099 118.216 150.742 116.86 149.069 116.86C147.396 116.86 146.039 118.216 146.039 119.89C146.039 121.563 147.396 122.92 149.069 122.92Z" fill="#DDDBDB"/>
<path d="M57.4109 129.77C59.0843 129.77 60.4409 128.413 60.4409 126.74C60.4409 125.067 59.0843 123.71 57.4109 123.71C55.7374 123.71 54.3809 125.067 54.3809 126.74C54.3809 128.413 55.7374 129.77 57.4109 129.77Z" fill="#DDDBDB"/>
<path d="M68.1999 129.77C69.8733 129.77 71.2299 128.413 71.2299 126.74C71.2299 125.067 69.8733 123.71 68.1999 123.71C66.5265 123.71 65.1699 125.067 65.1699 126.74C65.1699 128.413 66.5265 129.77 68.1999 129.77Z" fill="#DDDBDB"/>
<path d="M78.9792 129.77C80.6526 129.77 82.0092 128.413 82.0092 126.74C82.0092 125.067 80.6526 123.71 78.9792 123.71C77.3058 123.71 75.9492 125.067 75.9492 126.74C75.9492 128.413 77.3058 129.77 78.9792 129.77Z" fill="#DDDBDB"/>
<path d="M89.7605 129.77C91.4339 129.77 92.7905 128.413 92.7905 126.74C92.7905 125.067 91.4339 123.71 89.7605 123.71C88.087 123.71 86.7305 125.067 86.7305 126.74C86.7305 128.413 88.087 129.77 89.7605 129.77Z" fill="#DDDBDB"/>
<path d="M100.54 129.77C102.213 129.77 103.57 128.413 103.57 126.74C103.57 125.067 102.213 123.71 100.54 123.71C98.8663 123.71 97.5098 125.067 97.5098 126.74C97.5098 128.413 98.8663 129.77 100.54 129.77Z" fill="#DDDBDB"/>
<path d="M111.331 129.77C113.004 129.77 114.361 128.413 114.361 126.74C114.361 125.067 113.004 123.71 111.331 123.71C109.657 123.71 108.301 125.067 108.301 126.74C108.301 128.413 109.657 129.77 111.331 129.77Z" fill="#DDDBDB"/>
<path d="M122.11 129.77C123.783 129.77 125.14 128.413 125.14 126.74C125.14 125.067 123.783 123.71 122.11 123.71C120.437 123.71 119.08 125.067 119.08 126.74C119.08 128.413 120.437 129.77 122.11 129.77Z" fill="#DDDBDB"/>
<path d="M132.889 129.77C134.563 129.77 135.919 128.413 135.919 126.74C135.919 125.067 134.563 123.71 132.889 123.71C131.216 123.71 129.859 125.067 129.859 126.74C129.859 128.413 131.216 129.77 132.889 129.77Z" fill="#DDDBDB"/>
<path d="M143.671 129.77C145.344 129.77 146.701 128.413 146.701 126.74C146.701 125.067 145.344 123.71 143.671 123.71C141.997 123.71 140.641 125.067 140.641 126.74C140.641 128.413 141.997 129.77 143.671 129.77Z" fill="#DDDBDB"/>
<path d="M154.46 129.77C156.133 129.77 157.49 128.413 157.49 126.74C157.49 125.067 156.133 123.71 154.46 123.71C152.786 123.71 151.43 125.067 151.43 126.74C151.43 128.413 152.786 129.77 154.46 129.77Z" fill="#DDDBDB"/>
<path d="M73.5905 136.92C75.264 136.92 76.6206 135.563 76.6206 133.89C76.6206 132.216 75.264 130.86 73.5905 130.86C71.9171 130.86 70.5605 132.216 70.5605 133.89C70.5605 135.563 71.9171 136.92 73.5905 136.92Z" fill="#DDDBDB"/>
<path d="M84.3699 136.92C86.0433 136.92 87.3998 135.563 87.3998 133.89C87.3998 132.216 86.0433 130.86 84.3699 130.86C82.6964 130.86 81.3398 132.216 81.3398 133.89C81.3398 135.563 82.6964 136.92 84.3699 136.92Z" fill="#DDDBDB"/>
<path d="M95.1491 136.92C96.8226 136.92 98.1791 135.563 98.1791 133.89C98.1791 132.216 96.8226 130.86 95.1491 130.86C93.4757 130.86 92.1191 132.216 92.1191 133.89C92.1191 135.563 93.4757 136.92 95.1491 136.92Z" fill="#DDDBDB"/>
<path d="M105.94 136.92C107.614 136.92 108.97 135.563 108.97 133.89C108.97 132.216 107.614 130.86 105.94 130.86C104.267 130.86 102.91 132.216 102.91 133.89C102.91 135.563 104.267 136.92 105.94 136.92Z" fill="#DDDBDB"/>
<path d="M116.719 136.92C118.393 136.92 119.749 135.563 119.749 133.89C119.749 132.216 118.393 130.86 116.719 130.86C115.046 130.86 113.689 132.216 113.689 133.89C113.689 135.563 115.046 136.92 116.719 136.92Z" fill="#DDDBDB"/>
<path d="M127.501 136.92C129.174 136.92 130.531 135.563 130.531 133.89C130.531 132.216 129.174 130.86 127.501 130.86C125.827 130.86 124.471 132.216 124.471 133.89C124.471 135.563 125.827 136.92 127.501 136.92Z" fill="#DDDBDB"/>
<path d="M138.28 136.92C139.953 136.92 141.31 135.563 141.31 133.89C141.31 132.216 139.953 130.86 138.28 130.86C136.607 130.86 135.25 132.216 135.25 133.89C135.25 135.563 136.607 136.92 138.28 136.92Z" fill="#DDDBDB"/>
<path d="M149.069 136.92C150.742 136.92 152.099 135.563 152.099 133.89C152.099 132.216 150.742 130.86 149.069 130.86C147.396 130.86 146.039 132.216 146.039 133.89C146.039 135.563 147.396 136.92 149.069 136.92Z" fill="#DDDBDB"/>
<path d="M78.9792 143.77C80.6526 143.77 82.0092 142.413 82.0092 140.74C82.0092 139.067 80.6526 137.71 78.9792 137.71C77.3058 137.71 75.9492 139.067 75.9492 140.74C75.9492 142.413 77.3058 143.77 78.9792 143.77Z" fill="#DDDBDB"/>
<path d="M89.7605 143.77C91.4339 143.77 92.7905 142.413 92.7905 140.74C92.7905 139.067 91.4339 137.71 89.7605 137.71C88.087 137.71 86.7305 139.067 86.7305 140.74C86.7305 142.413 88.087 143.77 89.7605 143.77Z" fill="#DDDBDB"/>
<path d="M100.54 143.77C102.213 143.77 103.57 142.413 103.57 140.74C103.57 139.067 102.213 137.71 100.54 137.71C98.8663 137.71 97.5098 139.067 97.5098 140.74C97.5098 142.413 98.8663 143.77 100.54 143.77Z" fill="#DDDBDB"/>
<path d="M111.331 143.77C113.004 143.77 114.361 142.413 114.361 140.74C114.361 139.067 113.004 137.71 111.331 137.71C109.657 137.71 108.301 139.067 108.301 140.74C108.301 142.413 109.657 143.77 111.331 143.77Z" fill="#DDDBDB"/>
<path d="M122.11 143.77C123.783 143.77 125.14 142.413 125.14 140.74C125.14 139.067 123.783 137.71 122.11 137.71C120.437 137.71 119.08 139.067 119.08 140.74C119.08 142.413 120.437 143.77 122.11 143.77Z" fill="#DDDBDB"/>
<path d="M132.889 143.77C134.563 143.77 135.919 142.413 135.919 140.74C135.919 139.067 134.563 137.71 132.889 137.71C131.216 137.71 129.859 139.067 129.859 140.74C129.859 142.413 131.216 143.77 132.889 143.77Z" fill="#DDDBDB"/>
<path d="M143.671 143.77C145.344 143.77 146.701 142.413 146.701 140.74C146.701 139.067 145.344 137.71 143.671 137.71C141.997 137.71 140.641 139.067 140.641 140.74C140.641 142.413 141.997 143.77 143.671 143.77Z" fill="#DDDBDB"/>
<path d="M154.46 143.77C156.133 143.77 157.49 142.413 157.49 140.74C157.49 139.067 156.133 137.71 154.46 137.71C152.786 137.71 151.43 139.067 151.43 140.74C151.43 142.413 152.786 143.77 154.46 143.77Z" fill="#DDDBDB"/>
<path d="M73.5905 150.92C75.264 150.92 76.6206 149.563 76.6206 147.89C76.6206 146.216 75.264 144.86 73.5905 144.86C71.9171 144.86 70.5605 146.216 70.5605 147.89C70.5605 149.563 71.9171 150.92 73.5905 150.92Z" fill="#DDDBDB"/>
<path d="M84.3699 150.92C86.0433 150.92 87.3998 149.563 87.3998 147.89C87.3998 146.216 86.0433 144.86 84.3699 144.86C82.6964 144.86 81.3398 146.216 81.3398 147.89C81.3398 149.563 82.6964 150.92 84.3699 150.92Z" fill="#DDDBDB"/>
<path d="M95.1491 150.92C96.8226 150.92 98.1791 149.563 98.1791 147.89C98.1791 146.216 96.8226 144.86 95.1491 144.86C93.4757 144.86 92.1191 146.216 92.1191 147.89C92.1191 149.563 93.4757 150.92 95.1491 150.92Z" fill="#DDDBDB"/>
<path d="M105.94 150.92C107.614 150.92 108.97 149.563 108.97 147.89C108.97 146.216 107.614 144.86 105.94 144.86C104.267 144.86 102.91 146.216 102.91 147.89C102.91 149.563 104.267 150.92 105.94 150.92Z" fill="#DDDBDB"/>
<path d="M116.719 150.92C118.393 150.92 119.749 149.563 119.749 147.89C119.749 146.216 118.393 144.86 116.719 144.86C115.046 144.86 113.689 146.216 113.689 147.89C113.689 149.563 115.046 150.92 116.719 150.92Z" fill="#DDDBDB"/>
<path d="M127.501 150.92C129.174 150.92 130.531 149.563 130.531 147.89C130.531 146.216 129.174 144.86 127.501 144.86C125.827 144.86 124.471 146.216 124.471 147.89C124.471 149.563 125.827 150.92 127.501 150.92Z" fill="#DDDBDB"/>
<path d="M138.28 150.92C139.953 150.92 141.31 149.563 141.31 147.89C141.31 146.216 139.953 144.86 138.28 144.86C136.607 144.86 135.25 146.216 135.25 147.89C135.25 149.563 136.607 150.92 138.28 150.92Z" fill="#DDDBDB"/>
<path d="M149.069 150.92C150.742 150.92 152.099 149.563 152.099 147.89C152.099 146.216 150.742 144.86 149.069 144.86C147.396 144.86 146.039 146.216 146.039 147.89C146.039 149.563 147.396 150.92 149.069 150.92Z" fill="#DDDBDB"/>
<path d="M57.4109 157.76C59.0843 157.76 60.4409 156.404 60.4409 154.73C60.4409 153.057 59.0843 151.7 57.4109 151.7C55.7374 151.7 54.3809 153.057 54.3809 154.73C54.3809 156.404 55.7374 157.76 57.4109 157.76Z" fill="#DDDBDB"/>
<path d="M68.1999 157.76C69.8733 157.76 71.2299 156.404 71.2299 154.73C71.2299 153.057 69.8733 151.7 68.1999 151.7C66.5265 151.7 65.1699 153.057 65.1699 154.73C65.1699 156.404 66.5265 157.76 68.1999 157.76Z" fill="#DDDBDB"/>
<path d="M78.9792 157.76C80.6526 157.76 82.0092 156.404 82.0092 154.73C82.0092 153.057 80.6526 151.7 78.9792 151.7C77.3058 151.7 75.9492 153.057 75.9492 154.73C75.9492 156.404 77.3058 157.76 78.9792 157.76Z" fill="#DDDBDB"/>
<path d="M89.7605 157.76C91.4339 157.76 92.7905 156.404 92.7905 154.73C92.7905 153.057 91.4339 151.7 89.7605 151.7C88.087 151.7 86.7305 153.057 86.7305 154.73C86.7305 156.404 88.087 157.76 89.7605 157.76Z" fill="#DDDBDB"/>
<path d="M100.54 157.76C102.213 157.76 103.57 156.404 103.57 154.73C103.57 153.057 102.213 151.7 100.54 151.7C98.8663 151.7 97.5098 153.057 97.5098 154.73C97.5098 156.404 98.8663 157.76 100.54 157.76Z" fill="#DDDBDB"/>
<path d="M111.331 157.76C113.004 157.76 114.361 156.404 114.361 154.73C114.361 153.057 113.004 151.7 111.331 151.7C109.657 151.7 108.301 153.057 108.301 154.73C108.301 156.404 109.657 157.76 111.331 157.76Z" fill="#DDDBDB"/>
<path d="M122.11 157.76C123.783 157.76 125.14 156.404 125.14 154.73C125.14 153.057 123.783 151.7 122.11 151.7C120.437 151.7 119.08 153.057 119.08 154.73C119.08 156.404 120.437 157.76 122.11 157.76Z" fill="#DDDBDB"/>
<path d="M132.889 157.76C134.563 157.76 135.919 156.404 135.919 154.73C135.919 153.057 134.563 151.7 132.889 151.7C131.216 151.7 129.859 153.057 129.859 154.73C129.859 156.404 131.216 157.76 132.889 157.76Z" fill="#DDDBDB"/>
<path d="M143.671 157.76C145.344 157.76 146.701 156.404 146.701 154.73C146.701 153.057 145.344 151.7 143.671 151.7C141.997 151.7 140.641 153.057 140.641 154.73C140.641 156.404 141.997 157.76 143.671 157.76Z" fill="#DDDBDB"/>
<path d="M154.46 157.76C156.133 157.76 157.49 156.404 157.49 154.73C157.49 153.057 156.133 151.7 154.46 151.7C152.786 151.7 151.43 153.057 151.43 154.73C151.43 156.404 152.786 157.76 154.46 157.76Z" fill="#DDDBDB"/>
<path d="M158.97 0H0V3H42.07L44.64 5.5H0V8.5H46.68V161.39H49.83V8.5H161.5V45.14C161.47 45.2 161.45 45.27 161.45 45.35C161.45 45.43 161.47 45.49 161.5 45.56V161.39H164.5V80.05H182.27V77.32C182.28 73.21 182.31 59.95 182.29 54.18C182.27 48.51 177.67 43.9 171.93 43.85H164.49V5.5L158.97 0ZM48.94 5.5L48.53 5.1L46.73 3H157.59L160.41 5.5H48.94ZM166.01 49.77C166.83 51.07 167.3 52.59 167.3 54.19C167.3 54.47 167.52 54.69 167.8 54.69C168.08 54.69 168.3 54.46 168.3 54.19C168.3 52.29 167.71 50.49 166.7 48.98C167.01 48.68 167.34 48.41 167.7 48.16C169.3 49.68 170.3 51.82 170.31 54.19C170.31 54.47 170.53 54.69 170.81 54.69C171.09 54.69 171.31 54.46 171.31 54.19C171.31 51.64 170.27 49.33 168.6 47.64C168.91 47.49 169.23 47.35 169.56 47.24C171.81 48.73 173.31 51.29 173.32 54.18C173.32 54.46 173.54 54.68 173.82 54.68C174.1 54.68 174.32 54.45 174.32 54.18C174.32 51.26 172.95 48.65 170.84 46.94C171.2 46.89 171.57 46.85 171.94 46.85C172 46.85 172.06 46.85 172.12 46.85C174.72 48.26 176.49 51.02 176.5 54.17C176.5 54.45 176.72 54.67 177 54.67C177.28 54.67 177.5 54.44 177.5 54.17C177.5 51.44 176.3 48.99 174.42 47.28C177.25 48.3 179.29 51 179.3 54.18C179.32 59.82 179.29 72.65 179.28 77.04H164.5V54.2C164.5 52.53 165.07 50.99 166.01 49.76V49.77Z" fill="black"/>
<path d="M73.5404 30.7201H59.9804L64.8404 35.5801L62.0404 38.3901L52.4004 28.7601L62.0404 19.1201L64.8404 21.9301L60.0304 26.7501H73.5904L73.5404 30.7201Z" fill="black"/>
<path d="M73.5404 86.7099H59.9804L64.8404 91.5699L62.0404 94.3799L52.4004 84.7499L62.0404 75.1099L64.8404 77.9199L60.0304 82.7399H73.5904L73.5404 86.7099Z" fill="black"/>
<path d="M73.5404 142.7H59.9804L64.8404 147.56L62.0404 150.37L52.4004 140.74L62.0404 131.1L64.8404 133.91L60.0304 138.73H73.5904L73.5404 142.7Z" fill="black"/>
<path d="M36.1896 10.46C32.1396 10.46 28.8496 13.74 28.8496 17.8C28.8496 21.86 32.1296 25.14 36.1896 25.14C40.2496 25.14 43.5296 21.86 43.5296 17.8C43.5296 13.74 40.2496 10.46 36.1896 10.46ZM36.8096 21.58H35.8196V15.45H34.2396V14.58H36.8096V21.58Z" fill="black"/>
<path d="M150.779 10.46C146.729 10.46 143.439 13.74 143.439 17.8C143.439 21.86 146.719 25.14 150.779 25.14C154.839 25.14 158.119 21.86 158.119 17.8C158.119 13.74 154.839 10.46 150.779 10.46ZM153.519 21.1H148.489V20.42L151.339 17.67C151.589 17.43 151.779 17.22 151.909 17.03C152.029 16.85 152.119 16.68 152.159 16.52C152.199 16.36 152.219 16.21 152.219 16.06C152.219 15.7 152.089 15.42 151.839 15.21C151.589 15 151.219 14.9 150.729 14.9C150.359 14.9 150.019 14.96 149.719 15.09C149.419 15.21 149.159 15.4 148.939 15.67L148.259 15.08C148.529 14.74 148.879 14.48 149.339 14.29C149.799 14.1 150.289 14.01 150.829 14.01C151.319 14.01 151.739 14.09 152.099 14.25C152.459 14.41 152.739 14.63 152.929 14.92C153.129 15.21 153.219 15.56 153.219 15.96C153.219 16.19 153.189 16.41 153.129 16.63C153.069 16.85 152.959 17.08 152.789 17.33C152.619 17.58 152.379 17.85 152.069 18.16L149.929 20.22H153.519V21.09V21.1Z" fill="black"/>
<path d="M182.975 19.9L179.907 29H178.893L176.228 21.239L173.55 29H172.549L169.481 19.9H170.469L173.095 27.726L175.812 19.9H176.709L179.387 27.765L182.052 19.9H182.975ZM186.285 22.11C187.178 22.11 187.863 22.3353 188.339 22.786C188.816 23.228 189.054 23.8867 189.054 24.762V29H188.17V27.934C187.962 28.2893 187.655 28.5667 187.247 28.766C186.849 28.9653 186.372 29.065 185.817 29.065C185.055 29.065 184.448 28.883 183.997 28.519C183.547 28.155 183.321 27.674 183.321 27.076C183.321 26.4953 183.529 26.0273 183.945 25.672C184.37 25.3167 185.042 25.139 185.96 25.139H188.131V24.723C188.131 24.1337 187.967 23.6873 187.637 23.384C187.308 23.072 186.827 22.916 186.194 22.916C185.761 22.916 185.345 22.9897 184.946 23.137C184.548 23.2757 184.205 23.4707 183.919 23.722L183.503 23.033C183.85 22.7383 184.266 22.513 184.751 22.357C185.237 22.1923 185.748 22.11 186.285 22.11ZM185.96 28.337C186.48 28.337 186.927 28.22 187.299 27.986C187.672 27.7433 187.949 27.3967 188.131 26.946V25.828H185.986C184.816 25.828 184.231 26.2353 184.231 27.05C184.231 27.4487 184.383 27.765 184.686 27.999C184.99 28.2243 185.414 28.337 185.96 28.337ZM191.431 19.354H192.354V29H191.431V19.354ZM194.793 19.354H195.716V29H194.793V19.354Z" fill="black" fill-opacity="0.5"/>
</g>
<defs>
<clipPath id="clip0_1015_1391">
<rect width="206" height="161.39" fill="white"/>
</clipPath>
</defs>
</svg>
