<svg width="56" height="56" viewBox="0 0 56 56" fill="none" xmlns="http://www.w3.org/2000/svg">
<path d="M45.2673 7.09187L45.3249 7.03284L45.2606 6.98108C42.9204 5.09565 40.2915 3.61507 37.3745 2.53926C34.456 1.46289 31.3237 0.925 27.9782 0.925C24.1785 0.925 20.6322 1.62389 17.34 3.02227C14.0491 4.4201 11.1812 6.34242 8.73705 8.78924C6.29282 11.2361 4.37983 14.1071 2.99808 17.4017C1.61585 20.6973 0.925 24.2319 0.925 28.0048C0.925 31.8067 1.61601 35.3551 2.99866 38.6494C4.38079 41.9424 6.2943 44.8122 8.7392 47.258C11.1841 49.7038 14.0528 51.618 17.3447 53.0007C20.6377 54.3838 24.184 55.075 27.9829 55.075C31.7528 55.075 35.2838 54.3836 38.5753 53.0002C41.8657 51.6173 44.7332 49.7028 47.177 47.2566C49.6207 44.8104 51.5406 41.9402 52.9367 38.6467C54.3333 35.3518 55.0313 31.8027 55.0313 28C55.0313 26.1189 54.8552 24.2976 54.5029 22.5362C54.1505 20.775 53.6312 19.0795 52.9447 17.4497L52.9012 17.3462L52.8223 17.4261L50.3757 19.9019L50.3432 19.9347L50.3579 19.9785C50.7826 21.243 51.1057 22.5418 51.3272 23.875C51.5486 25.2079 51.6593 26.5829 51.6593 28C51.6593 34.6854 49.382 40.3048 44.8275 44.863C40.2729 49.4213 34.6581 51.7003 27.9782 51.7003C21.2982 51.7003 15.6834 49.4213 11.1289 44.863C6.57432 40.3048 4.29705 34.6854 4.29705 28C4.29705 21.3146 6.57432 15.6952 11.1289 11.137C15.6834 6.57874 21.2982 4.29966 27.9782 4.29966C30.8583 4.29966 33.5515 4.74388 36.0582 5.63172C38.5656 6.51977 40.8388 7.78998 42.8782 9.44243L42.9313 9.48548L42.9791 9.43654L45.2673 7.09187ZM23.7363 40.0279L23.7893 40.0812L23.8425 40.028L55.0531 8.7923L55.1068 8.73851L55.0523 8.68551L52.5784 6.28065L52.5254 6.22909L52.4731 6.28142L23.7894 34.9883L15.4323 26.6243L15.379 26.5709L15.3259 26.6246L12.923 29.0568L12.8707 29.1097L12.9232 29.1624L23.7363 40.0279Z" fill="black" stroke="black" stroke-width="0.15"/>
</svg>
