<svg width="190" height="189" viewBox="0 0 190 189" fill="none" xmlns="http://www.w3.org/2000/svg">
<g clip-path="url(#clip0_1015_612)">
<path d="M188.189 34.5298H149.439C148.609 34.5298 147.939 33.8598 147.939 33.0298C147.939 32.1998 148.609 31.5298 149.439 31.5298H188.189C189.019 31.5298 189.689 32.1998 189.689 33.0298C189.689 33.8598 189.019 34.5298 188.189 34.5298Z" fill="#9E9D9D"/>
<path d="M34.7794 34.5299C34.4094 34.5299 34.0394 34.3899 33.7494 34.1199L0.469399 2.58989C-0.130601 2.01989 -0.160601 1.06989 0.409399 0.469887C0.979399 -0.130113 1.9294 -0.160113 2.5294 0.409887L35.8094 31.9399C36.4094 32.5099 36.4394 33.4599 35.8694 34.0599C35.5794 34.3699 35.1794 34.5299 34.7794 34.5299Z" fill="#9E9D9D"/>
<path d="M43.8698 43.8198C45.5433 43.8198 46.8998 42.4632 46.8998 40.7898C46.8998 39.1163 45.5433 37.7598 43.8698 37.7598C42.1964 37.7598 40.8398 39.1163 40.8398 40.7898C40.8398 42.4632 42.1964 43.8198 43.8698 43.8198Z" fill="#DDDBDB"/>
<path d="M54.6491 43.8198C56.3226 43.8198 57.6791 42.4632 57.6791 40.7898C57.6791 39.1163 56.3226 37.7598 54.6491 37.7598C52.9757 37.7598 51.6191 39.1163 51.6191 40.7898C51.6191 42.4632 52.9757 43.8198 54.6491 43.8198Z" fill="#DDDBDB"/>
<path d="M65.4304 43.8198C67.1038 43.8198 68.4604 42.4632 68.4604 40.7898C68.4604 39.1163 67.1038 37.7598 65.4304 37.7598C63.757 37.7598 62.4004 39.1163 62.4004 40.7898C62.4004 42.4632 63.757 43.8198 65.4304 43.8198Z" fill="#DDDBDB"/>
<path d="M76.2195 43.8198C77.8929 43.8198 79.2495 42.4632 79.2495 40.7898C79.2495 39.1163 77.8929 37.7598 76.2195 37.7598C74.546 37.7598 73.1895 39.1163 73.1895 40.7898C73.1895 42.4632 74.546 43.8198 76.2195 43.8198Z" fill="#DDDBDB"/>
<path d="M87.0007 43.8198C88.6741 43.8198 90.0307 42.4632 90.0307 40.7898C90.0307 39.1163 88.6741 37.7598 87.0007 37.7598C85.3273 37.7598 83.9707 39.1163 83.9707 40.7898C83.9707 42.4632 85.3273 43.8198 87.0007 43.8198Z" fill="#DDDBDB"/>
<path d="M97.78 43.8198C99.4534 43.8198 100.81 42.4632 100.81 40.7898C100.81 39.1163 99.4534 37.7598 97.78 37.7598C96.1066 37.7598 94.75 39.1163 94.75 40.7898C94.75 42.4632 96.1066 43.8198 97.78 43.8198Z" fill="#DDDBDB"/>
<path d="M108.559 43.8198C110.233 43.8198 111.589 42.4632 111.589 40.7898C111.589 39.1163 110.233 37.7598 108.559 37.7598C106.886 37.7598 105.529 39.1163 105.529 40.7898C105.529 42.4632 106.886 43.8198 108.559 43.8198Z" fill="#DDDBDB"/>
<path d="M119.35 43.8198C121.024 43.8198 122.38 42.4632 122.38 40.7898C122.38 39.1163 121.024 37.7598 119.35 37.7598C117.677 37.7598 116.32 39.1163 116.32 40.7898C116.32 42.4632 117.677 43.8198 119.35 43.8198Z" fill="#DDDBDB"/>
<path d="M130.13 43.8198C131.803 43.8198 133.16 42.4632 133.16 40.7898C133.16 39.1163 131.803 37.7598 130.13 37.7598C128.456 37.7598 127.1 39.1163 127.1 40.7898C127.1 42.4632 128.456 43.8198 130.13 43.8198Z" fill="#DDDBDB"/>
<path d="M140.911 43.8198C142.584 43.8198 143.941 42.4632 143.941 40.7898C143.941 39.1163 142.584 37.7598 140.911 37.7598C139.237 37.7598 137.881 39.1163 137.881 40.7898C137.881 42.4632 139.237 43.8198 140.911 43.8198Z" fill="#DDDBDB"/>
<path d="M49.2605 50.9702C50.9339 50.9702 52.2905 49.6136 52.2905 47.9402C52.2905 46.2667 50.9339 44.9102 49.2605 44.9102C47.587 44.9102 46.2305 46.2667 46.2305 47.9402C46.2305 49.6136 47.587 50.9702 49.2605 50.9702Z" fill="#DDDBDB"/>
<path d="M60.0398 50.9702C61.7132 50.9702 63.0698 49.6136 63.0698 47.9402C63.0698 46.2667 61.7132 44.9102 60.0398 44.9102C58.3663 44.9102 57.0098 46.2667 57.0098 47.9402C57.0098 49.6136 58.3663 50.9702 60.0398 50.9702Z" fill="#DDDBDB"/>
<path d="M70.8191 50.9702C72.4925 50.9702 73.8491 49.6136 73.8491 47.9402C73.8491 46.2667 72.4925 44.9102 70.8191 44.9102C69.1456 44.9102 67.7891 46.2667 67.7891 47.9402C67.7891 49.6136 69.1456 50.9702 70.8191 50.9702Z" fill="#DDDBDB"/>
<path d="M81.6101 50.9702C83.2835 50.9702 84.6401 49.6136 84.6401 47.9402C84.6401 46.2667 83.2835 44.9102 81.6101 44.9102C79.9367 44.9102 78.5801 46.2667 78.5801 47.9402C78.5801 49.6136 79.9367 50.9702 81.6101 50.9702Z" fill="#DDDBDB"/>
<path d="M92.3894 50.9702C94.0628 50.9702 95.4194 49.6136 95.4194 47.9402C95.4194 46.2667 94.0628 44.9102 92.3894 44.9102C90.716 44.9102 89.3594 46.2667 89.3594 47.9402C89.3594 49.6136 90.716 50.9702 92.3894 50.9702Z" fill="#DDDBDB"/>
<path d="M103.171 50.9702C104.844 50.9702 106.201 49.6136 106.201 47.9402C106.201 46.2667 104.844 44.9102 103.171 44.9102C101.497 44.9102 100.141 46.2667 100.141 47.9402C100.141 49.6136 101.497 50.9702 103.171 50.9702Z" fill="#DDDBDB"/>
<path d="M113.95 50.9702C115.623 50.9702 116.98 49.6136 116.98 47.9402C116.98 46.2667 115.623 44.9102 113.95 44.9102C112.276 44.9102 110.92 46.2667 110.92 47.9402C110.92 49.6136 112.276 50.9702 113.95 50.9702Z" fill="#DDDBDB"/>
<path d="M124.741 50.9702C126.414 50.9702 127.771 49.6136 127.771 47.9402C127.771 46.2667 126.414 44.9102 124.741 44.9102C123.068 44.9102 121.711 46.2667 121.711 47.9402C121.711 49.6136 123.068 50.9702 124.741 50.9702Z" fill="#DDDBDB"/>
<path d="M135.52 50.9702C137.194 50.9702 138.55 49.6136 138.55 47.9402C138.55 46.2667 137.194 44.9102 135.52 44.9102C133.847 44.9102 132.49 46.2667 132.49 47.9402C132.49 49.6136 133.847 50.9702 135.52 50.9702Z" fill="#DDDBDB"/>
<path d="M43.8698 57.8198C45.5433 57.8198 46.8998 56.4632 46.8998 54.7898C46.8998 53.1163 45.5433 51.7598 43.8698 51.7598C42.1964 51.7598 40.8398 53.1163 40.8398 54.7898C40.8398 56.4632 42.1964 57.8198 43.8698 57.8198Z" fill="#DDDBDB"/>
<path d="M54.6491 57.8198C56.3226 57.8198 57.6791 56.4632 57.6791 54.7898C57.6791 53.1163 56.3226 51.7598 54.6491 51.7598C52.9757 51.7598 51.6191 53.1163 51.6191 54.7898C51.6191 56.4632 52.9757 57.8198 54.6491 57.8198Z" fill="#DDDBDB"/>
<path d="M65.4304 57.8198C67.1038 57.8198 68.4604 56.4632 68.4604 54.7898C68.4604 53.1163 67.1038 51.7598 65.4304 51.7598C63.757 51.7598 62.4004 53.1163 62.4004 54.7898C62.4004 56.4632 63.757 57.8198 65.4304 57.8198Z" fill="#DDDBDB"/>
<path d="M76.2195 57.8198C77.8929 57.8198 79.2495 56.4632 79.2495 54.7898C79.2495 53.1163 77.8929 51.7598 76.2195 51.7598C74.546 51.7598 73.1895 53.1163 73.1895 54.7898C73.1895 56.4632 74.546 57.8198 76.2195 57.8198Z" fill="#DDDBDB"/>
<path d="M87.0007 57.8198C88.6741 57.8198 90.0307 56.4632 90.0307 54.7898C90.0307 53.1163 88.6741 51.7598 87.0007 51.7598C85.3273 51.7598 83.9707 53.1163 83.9707 54.7898C83.9707 56.4632 85.3273 57.8198 87.0007 57.8198Z" fill="#DDDBDB"/>
<path d="M97.78 57.8198C99.4534 57.8198 100.81 56.4632 100.81 54.7898C100.81 53.1163 99.4534 51.7598 97.78 51.7598C96.1066 51.7598 94.75 53.1163 94.75 54.7898C94.75 56.4632 96.1066 57.8198 97.78 57.8198Z" fill="#DDDBDB"/>
<path d="M108.559 57.8198C110.233 57.8198 111.589 56.4632 111.589 54.7898C111.589 53.1163 110.233 51.7598 108.559 51.7598C106.886 51.7598 105.529 53.1163 105.529 54.7898C105.529 56.4632 106.886 57.8198 108.559 57.8198Z" fill="#DDDBDB"/>
<path d="M119.35 57.8198C121.024 57.8198 122.38 56.4632 122.38 54.7898C122.38 53.1163 121.024 51.7598 119.35 51.7598C117.677 51.7598 116.32 53.1163 116.32 54.7898C116.32 56.4632 117.677 57.8198 119.35 57.8198Z" fill="#DDDBDB"/>
<path d="M130.13 57.8198C131.803 57.8198 133.16 56.4632 133.16 54.7898C133.16 53.1163 131.803 51.7598 130.13 51.7598C128.456 51.7598 127.1 53.1163 127.1 54.7898C127.1 56.4632 128.456 57.8198 130.13 57.8198Z" fill="#DDDBDB"/>
<path d="M140.911 57.8198C142.584 57.8198 143.941 56.4632 143.941 54.7898C143.941 53.1163 142.584 51.7598 140.911 51.7598C139.237 51.7598 137.881 53.1163 137.881 54.7898C137.881 56.4632 139.237 57.8198 140.911 57.8198Z" fill="#DDDBDB"/>
<path d="M49.2605 64.9702C50.9339 64.9702 52.2905 63.6136 52.2905 61.9402C52.2905 60.2667 50.9339 58.9102 49.2605 58.9102C47.587 58.9102 46.2305 60.2667 46.2305 61.9402C46.2305 63.6136 47.587 64.9702 49.2605 64.9702Z" fill="#DDDBDB"/>
<path d="M60.0398 64.9702C61.7132 64.9702 63.0698 63.6136 63.0698 61.9402C63.0698 60.2667 61.7132 58.9102 60.0398 58.9102C58.3663 58.9102 57.0098 60.2667 57.0098 61.9402C57.0098 63.6136 58.3663 64.9702 60.0398 64.9702Z" fill="#DDDBDB"/>
<path d="M70.8191 64.9702C72.4925 64.9702 73.8491 63.6136 73.8491 61.9402C73.8491 60.2667 72.4925 58.9102 70.8191 58.9102C69.1456 58.9102 67.7891 60.2667 67.7891 61.9402C67.7891 63.6136 69.1456 64.9702 70.8191 64.9702Z" fill="#DDDBDB"/>
<path d="M81.6101 64.9702C83.2835 64.9702 84.6401 63.6136 84.6401 61.9402C84.6401 60.2667 83.2835 58.9102 81.6101 58.9102C79.9367 58.9102 78.5801 60.2667 78.5801 61.9402C78.5801 63.6136 79.9367 64.9702 81.6101 64.9702Z" fill="#DDDBDB"/>
<path d="M92.3894 64.9702C94.0628 64.9702 95.4194 63.6136 95.4194 61.9402C95.4194 60.2667 94.0628 58.9102 92.3894 58.9102C90.716 58.9102 89.3594 60.2667 89.3594 61.9402C89.3594 63.6136 90.716 64.9702 92.3894 64.9702Z" fill="#DDDBDB"/>
<path d="M103.171 64.9702C104.844 64.9702 106.201 63.6136 106.201 61.9402C106.201 60.2667 104.844 58.9102 103.171 58.9102C101.497 58.9102 100.141 60.2667 100.141 61.9402C100.141 63.6136 101.497 64.9702 103.171 64.9702Z" fill="#DDDBDB"/>
<path d="M113.95 64.9702C115.623 64.9702 116.98 63.6136 116.98 61.9402C116.98 60.2667 115.623 58.9102 113.95 58.9102C112.276 58.9102 110.92 60.2667 110.92 61.9402C110.92 63.6136 112.276 64.9702 113.95 64.9702Z" fill="#DDDBDB"/>
<path d="M124.741 64.9702C126.414 64.9702 127.771 63.6136 127.771 61.9402C127.771 60.2667 126.414 58.9102 124.741 58.9102C123.068 58.9102 121.711 60.2667 121.711 61.9402C121.711 63.6136 123.068 64.9702 124.741 64.9702Z" fill="#DDDBDB"/>
<path d="M135.52 64.9702C137.194 64.9702 138.55 63.6136 138.55 61.9402C138.55 60.2667 137.194 58.9102 135.52 58.9102C133.847 58.9102 132.49 60.2667 132.49 61.9402C132.49 63.6136 133.847 64.9702 135.52 64.9702Z" fill="#DDDBDB"/>
<path d="M43.8698 71.8198C45.5433 71.8198 46.8998 70.4632 46.8998 68.7898C46.8998 67.1163 45.5433 65.7598 43.8698 65.7598C42.1964 65.7598 40.8398 67.1163 40.8398 68.7898C40.8398 70.4632 42.1964 71.8198 43.8698 71.8198Z" fill="#DDDBDB"/>
<path d="M54.6491 71.8198C56.3226 71.8198 57.6791 70.4632 57.6791 68.7898C57.6791 67.1163 56.3226 65.7598 54.6491 65.7598C52.9757 65.7598 51.6191 67.1163 51.6191 68.7898C51.6191 70.4632 52.9757 71.8198 54.6491 71.8198Z" fill="#DDDBDB"/>
<path d="M65.4304 71.8198C67.1038 71.8198 68.4604 70.4632 68.4604 68.7898C68.4604 67.1163 67.1038 65.7598 65.4304 65.7598C63.757 65.7598 62.4004 67.1163 62.4004 68.7898C62.4004 70.4632 63.757 71.8198 65.4304 71.8198Z" fill="#DDDBDB"/>
<path d="M76.2195 71.8198C77.8929 71.8198 79.2495 70.4632 79.2495 68.7898C79.2495 67.1163 77.8929 65.7598 76.2195 65.7598C74.546 65.7598 73.1895 67.1163 73.1895 68.7898C73.1895 70.4632 74.546 71.8198 76.2195 71.8198Z" fill="#DDDBDB"/>
<path d="M87.0007 71.8198C88.6741 71.8198 90.0307 70.4632 90.0307 68.7898C90.0307 67.1163 88.6741 65.7598 87.0007 65.7598C85.3273 65.7598 83.9707 67.1163 83.9707 68.7898C83.9707 70.4632 85.3273 71.8198 87.0007 71.8198Z" fill="#DDDBDB"/>
<path d="M97.78 71.8198C99.4534 71.8198 100.81 70.4632 100.81 68.7898C100.81 67.1163 99.4534 65.7598 97.78 65.7598C96.1066 65.7598 94.75 67.1163 94.75 68.7898C94.75 70.4632 96.1066 71.8198 97.78 71.8198Z" fill="#DDDBDB"/>
<path d="M108.559 71.8198C110.233 71.8198 111.589 70.4632 111.589 68.7898C111.589 67.1163 110.233 65.7598 108.559 65.7598C106.886 65.7598 105.529 67.1163 105.529 68.7898C105.529 70.4632 106.886 71.8198 108.559 71.8198Z" fill="#DDDBDB"/>
<path d="M119.35 71.8198C121.024 71.8198 122.38 70.4632 122.38 68.7898C122.38 67.1163 121.024 65.7598 119.35 65.7598C117.677 65.7598 116.32 67.1163 116.32 68.7898C116.32 70.4632 117.677 71.8198 119.35 71.8198Z" fill="#DDDBDB"/>
<path d="M130.13 71.8198C131.803 71.8198 133.16 70.4632 133.16 68.7898C133.16 67.1163 131.803 65.7598 130.13 65.7598C128.456 65.7598 127.1 67.1163 127.1 68.7898C127.1 70.4632 128.456 71.8198 130.13 71.8198Z" fill="#DDDBDB"/>
<path d="M140.911 71.8198C142.584 71.8198 143.941 70.4632 143.941 68.7898C143.941 67.1163 142.584 65.7598 140.911 65.7598C139.237 65.7598 137.881 67.1163 137.881 68.7898C137.881 70.4632 139.237 71.8198 140.911 71.8198Z" fill="#DDDBDB"/>
<path d="M49.2605 78.9702C50.9339 78.9702 52.2905 77.6136 52.2905 75.9402C52.2905 74.2667 50.9339 72.9102 49.2605 72.9102C47.587 72.9102 46.2305 74.2667 46.2305 75.9402C46.2305 77.6136 47.587 78.9702 49.2605 78.9702Z" fill="#DDDBDB"/>
<path d="M60.0398 78.9702C61.7132 78.9702 63.0698 77.6136 63.0698 75.9402C63.0698 74.2667 61.7132 72.9102 60.0398 72.9102C58.3663 72.9102 57.0098 74.2667 57.0098 75.9402C57.0098 77.6136 58.3663 78.9702 60.0398 78.9702Z" fill="#DDDBDB"/>
<path d="M70.8191 78.9702C72.4925 78.9702 73.8491 77.6136 73.8491 75.9402C73.8491 74.2667 72.4925 72.9102 70.8191 72.9102C69.1456 72.9102 67.7891 74.2667 67.7891 75.9402C67.7891 77.6136 69.1456 78.9702 70.8191 78.9702Z" fill="#DDDBDB"/>
<path d="M81.6101 78.9702C83.2835 78.9702 84.6401 77.6136 84.6401 75.9402C84.6401 74.2667 83.2835 72.9102 81.6101 72.9102C79.9367 72.9102 78.5801 74.2667 78.5801 75.9402C78.5801 77.6136 79.9367 78.9702 81.6101 78.9702Z" fill="#DDDBDB"/>
<path d="M92.3894 78.9702C94.0628 78.9702 95.4194 77.6136 95.4194 75.9402C95.4194 74.2667 94.0628 72.9102 92.3894 72.9102C90.716 72.9102 89.3594 74.2667 89.3594 75.9402C89.3594 77.6136 90.716 78.9702 92.3894 78.9702Z" fill="#DDDBDB"/>
<path d="M103.171 78.9702C104.844 78.9702 106.201 77.6136 106.201 75.9402C106.201 74.2667 104.844 72.9102 103.171 72.9102C101.497 72.9102 100.141 74.2667 100.141 75.9402C100.141 77.6136 101.497 78.9702 103.171 78.9702Z" fill="#DDDBDB"/>
<path d="M113.95 78.9702C115.623 78.9702 116.98 77.6136 116.98 75.9402C116.98 74.2667 115.623 72.9102 113.95 72.9102C112.276 72.9102 110.92 74.2667 110.92 75.9402C110.92 77.6136 112.276 78.9702 113.95 78.9702Z" fill="#DDDBDB"/>
<path d="M124.741 78.9702C126.414 78.9702 127.771 77.6136 127.771 75.9402C127.771 74.2667 126.414 72.9102 124.741 72.9102C123.068 72.9102 121.711 74.2667 121.711 75.9402C121.711 77.6136 123.068 78.9702 124.741 78.9702Z" fill="#DDDBDB"/>
<path d="M135.52 78.9702C137.194 78.9702 138.55 77.6136 138.55 75.9402C138.55 74.2667 137.194 72.9102 135.52 72.9102C133.847 72.9102 132.49 74.2667 132.49 75.9402C132.49 77.6136 133.847 78.9702 135.52 78.9702Z" fill="#DDDBDB"/>
<path d="M43.8698 85.81C45.5433 85.81 46.8998 84.4534 46.8998 82.78C46.8998 81.1066 45.5433 79.75 43.8698 79.75C42.1964 79.75 40.8398 81.1066 40.8398 82.78C40.8398 84.4534 42.1964 85.81 43.8698 85.81Z" fill="#DDDBDB"/>
<path d="M54.6491 85.81C56.3226 85.81 57.6791 84.4534 57.6791 82.78C57.6791 81.1066 56.3226 79.75 54.6491 79.75C52.9757 79.75 51.6191 81.1066 51.6191 82.78C51.6191 84.4534 52.9757 85.81 54.6491 85.81Z" fill="#DDDBDB"/>
<path d="M65.4304 85.81C67.1038 85.81 68.4604 84.4534 68.4604 82.78C68.4604 81.1066 67.1038 79.75 65.4304 79.75C63.757 79.75 62.4004 81.1066 62.4004 82.78C62.4004 84.4534 63.757 85.81 65.4304 85.81Z" fill="#DDDBDB"/>
<path d="M76.2195 85.81C77.8929 85.81 79.2495 84.4534 79.2495 82.78C79.2495 81.1066 77.8929 79.75 76.2195 79.75C74.546 79.75 73.1895 81.1066 73.1895 82.78C73.1895 84.4534 74.546 85.81 76.2195 85.81Z" fill="#DDDBDB"/>
<path d="M87.0007 85.81C88.6741 85.81 90.0307 84.4534 90.0307 82.78C90.0307 81.1066 88.6741 79.75 87.0007 79.75C85.3273 79.75 83.9707 81.1066 83.9707 82.78C83.9707 84.4534 85.3273 85.81 87.0007 85.81Z" fill="#DDDBDB"/>
<path d="M97.78 85.81C99.4534 85.81 100.81 84.4534 100.81 82.78C100.81 81.1066 99.4534 79.75 97.78 79.75C96.1066 79.75 94.75 81.1066 94.75 82.78C94.75 84.4534 96.1066 85.81 97.78 85.81Z" fill="#DDDBDB"/>
<path d="M108.559 85.81C110.233 85.81 111.589 84.4534 111.589 82.78C111.589 81.1066 110.233 79.75 108.559 79.75C106.886 79.75 105.529 81.1066 105.529 82.78C105.529 84.4534 106.886 85.81 108.559 85.81Z" fill="#DDDBDB"/>
<path d="M119.35 85.81C121.024 85.81 122.38 84.4534 122.38 82.78C122.38 81.1066 121.024 79.75 119.35 79.75C117.677 79.75 116.32 81.1066 116.32 82.78C116.32 84.4534 117.677 85.81 119.35 85.81Z" fill="#DDDBDB"/>
<path d="M130.13 85.81C131.803 85.81 133.16 84.4534 133.16 82.78C133.16 81.1066 131.803 79.75 130.13 79.75C128.456 79.75 127.1 81.1066 127.1 82.78C127.1 84.4534 128.456 85.81 130.13 85.81Z" fill="#DDDBDB"/>
<path d="M140.911 85.81C142.584 85.81 143.941 84.4534 143.941 82.78C143.941 81.1066 142.584 79.75 140.911 79.75C139.237 79.75 137.881 81.1066 137.881 82.78C137.881 84.4534 139.237 85.81 140.911 85.81Z" fill="#DDDBDB"/>
<path d="M49.2605 92.9599C50.9339 92.9599 52.2905 91.6033 52.2905 89.9299C52.2905 88.2565 50.9339 86.8999 49.2605 86.8999C47.587 86.8999 46.2305 88.2565 46.2305 89.9299C46.2305 91.6033 47.587 92.9599 49.2605 92.9599Z" fill="#DDDBDB"/>
<path d="M60.0398 92.9599C61.7132 92.9599 63.0698 91.6033 63.0698 89.9299C63.0698 88.2565 61.7132 86.8999 60.0398 86.8999C58.3663 86.8999 57.0098 88.2565 57.0098 89.9299C57.0098 91.6033 58.3663 92.9599 60.0398 92.9599Z" fill="#DDDBDB"/>
<path d="M70.8191 92.9599C72.4925 92.9599 73.8491 91.6033 73.8491 89.9299C73.8491 88.2565 72.4925 86.8999 70.8191 86.8999C69.1456 86.8999 67.7891 88.2565 67.7891 89.9299C67.7891 91.6033 69.1456 92.9599 70.8191 92.9599Z" fill="#DDDBDB"/>
<path d="M81.6101 92.9599C83.2835 92.9599 84.6401 91.6033 84.6401 89.9299C84.6401 88.2565 83.2835 86.8999 81.6101 86.8999C79.9367 86.8999 78.5801 88.2565 78.5801 89.9299C78.5801 91.6033 79.9367 92.9599 81.6101 92.9599Z" fill="#DDDBDB"/>
<path d="M92.3894 92.9599C94.0628 92.9599 95.4194 91.6033 95.4194 89.9299C95.4194 88.2565 94.0628 86.8999 92.3894 86.8999C90.716 86.8999 89.3594 88.2565 89.3594 89.9299C89.3594 91.6033 90.716 92.9599 92.3894 92.9599Z" fill="#DDDBDB"/>
<path d="M103.171 92.9599C104.844 92.9599 106.201 91.6033 106.201 89.9299C106.201 88.2565 104.844 86.8999 103.171 86.8999C101.497 86.8999 100.141 88.2565 100.141 89.9299C100.141 91.6033 101.497 92.9599 103.171 92.9599Z" fill="#DDDBDB"/>
<path d="M113.95 92.9599C115.623 92.9599 116.98 91.6033 116.98 89.9299C116.98 88.2565 115.623 86.8999 113.95 86.8999C112.276 86.8999 110.92 88.2565 110.92 89.9299C110.92 91.6033 112.276 92.9599 113.95 92.9599Z" fill="#DDDBDB"/>
<path d="M124.741 92.9599C126.414 92.9599 127.771 91.6033 127.771 89.9299C127.771 88.2565 126.414 86.8999 124.741 86.8999C123.068 86.8999 121.711 88.2565 121.711 89.9299C121.711 91.6033 123.068 92.9599 124.741 92.9599Z" fill="#DDDBDB"/>
<path d="M135.52 92.9599C137.194 92.9599 138.55 91.6033 138.55 89.9299C138.55 88.2565 137.194 86.8999 135.52 86.8999C133.847 86.8999 132.49 88.2565 132.49 89.9299C132.49 91.6033 133.847 92.9599 135.52 92.9599Z" fill="#DDDBDB"/>
<path d="M43.8698 99.81C45.5433 99.81 46.8998 98.4534 46.8998 96.78C46.8998 95.1066 45.5433 93.75 43.8698 93.75C42.1964 93.75 40.8398 95.1066 40.8398 96.78C40.8398 98.4534 42.1964 99.81 43.8698 99.81Z" fill="#DDDBDB"/>
<path d="M54.6491 99.81C56.3226 99.81 57.6791 98.4534 57.6791 96.78C57.6791 95.1066 56.3226 93.75 54.6491 93.75C52.9757 93.75 51.6191 95.1066 51.6191 96.78C51.6191 98.4534 52.9757 99.81 54.6491 99.81Z" fill="#DDDBDB"/>
<path d="M65.4304 99.81C67.1038 99.81 68.4604 98.4534 68.4604 96.78C68.4604 95.1066 67.1038 93.75 65.4304 93.75C63.757 93.75 62.4004 95.1066 62.4004 96.78C62.4004 98.4534 63.757 99.81 65.4304 99.81Z" fill="#DDDBDB"/>
<path d="M76.2195 99.81C77.8929 99.81 79.2495 98.4534 79.2495 96.78C79.2495 95.1066 77.8929 93.75 76.2195 93.75C74.546 93.75 73.1895 95.1066 73.1895 96.78C73.1895 98.4534 74.546 99.81 76.2195 99.81Z" fill="#DDDBDB"/>
<path d="M87.0007 99.81C88.6741 99.81 90.0307 98.4534 90.0307 96.78C90.0307 95.1066 88.6741 93.75 87.0007 93.75C85.3273 93.75 83.9707 95.1066 83.9707 96.78C83.9707 98.4534 85.3273 99.81 87.0007 99.81Z" fill="#DDDBDB"/>
<path d="M97.78 99.81C99.4534 99.81 100.81 98.4534 100.81 96.78C100.81 95.1066 99.4534 93.75 97.78 93.75C96.1066 93.75 94.75 95.1066 94.75 96.78C94.75 98.4534 96.1066 99.81 97.78 99.81Z" fill="#DDDBDB"/>
<path d="M108.559 99.81C110.233 99.81 111.589 98.4534 111.589 96.78C111.589 95.1066 110.233 93.75 108.559 93.75C106.886 93.75 105.529 95.1066 105.529 96.78C105.529 98.4534 106.886 99.81 108.559 99.81Z" fill="#DDDBDB"/>
<path d="M119.35 99.81C121.024 99.81 122.38 98.4534 122.38 96.78C122.38 95.1066 121.024 93.75 119.35 93.75C117.677 93.75 116.32 95.1066 116.32 96.78C116.32 98.4534 117.677 99.81 119.35 99.81Z" fill="#DDDBDB"/>
<path d="M130.13 99.81C131.803 99.81 133.16 98.4534 133.16 96.78C133.16 95.1066 131.803 93.75 130.13 93.75C128.456 93.75 127.1 95.1066 127.1 96.78C127.1 98.4534 128.456 99.81 130.13 99.81Z" fill="#DDDBDB"/>
<path d="M140.911 99.81C142.584 99.81 143.941 98.4534 143.941 96.78C143.941 95.1066 142.584 93.75 140.911 93.75C139.237 93.75 137.881 95.1066 137.881 96.78C137.881 98.4534 139.237 99.81 140.911 99.81Z" fill="#DDDBDB"/>
<path d="M49.2605 106.96C50.9339 106.96 52.2905 105.603 52.2905 103.93C52.2905 102.256 50.9339 100.9 49.2605 100.9C47.587 100.9 46.2305 102.256 46.2305 103.93C46.2305 105.603 47.587 106.96 49.2605 106.96Z" fill="#DDDBDB"/>
<path d="M60.0398 106.96C61.7132 106.96 63.0698 105.603 63.0698 103.93C63.0698 102.256 61.7132 100.9 60.0398 100.9C58.3663 100.9 57.0098 102.256 57.0098 103.93C57.0098 105.603 58.3663 106.96 60.0398 106.96Z" fill="#DDDBDB"/>
<path d="M70.8191 106.96C72.4925 106.96 73.8491 105.603 73.8491 103.93C73.8491 102.256 72.4925 100.9 70.8191 100.9C69.1456 100.9 67.7891 102.256 67.7891 103.93C67.7891 105.603 69.1456 106.96 70.8191 106.96Z" fill="#DDDBDB"/>
<path d="M81.6101 106.96C83.2835 106.96 84.6401 105.603 84.6401 103.93C84.6401 102.256 83.2835 100.9 81.6101 100.9C79.9367 100.9 78.5801 102.256 78.5801 103.93C78.5801 105.603 79.9367 106.96 81.6101 106.96Z" fill="#DDDBDB"/>
<path d="M92.3894 106.96C94.0628 106.96 95.4194 105.603 95.4194 103.93C95.4194 102.256 94.0628 100.9 92.3894 100.9C90.716 100.9 89.3594 102.256 89.3594 103.93C89.3594 105.603 90.716 106.96 92.3894 106.96Z" fill="#DDDBDB"/>
<path d="M103.171 106.96C104.844 106.96 106.201 105.603 106.201 103.93C106.201 102.256 104.844 100.9 103.171 100.9C101.497 100.9 100.141 102.256 100.141 103.93C100.141 105.603 101.497 106.96 103.171 106.96Z" fill="#DDDBDB"/>
<path d="M113.95 106.96C115.623 106.96 116.98 105.603 116.98 103.93C116.98 102.256 115.623 100.9 113.95 100.9C112.276 100.9 110.92 102.256 110.92 103.93C110.92 105.603 112.276 106.96 113.95 106.96Z" fill="#DDDBDB"/>
<path d="M124.741 106.96C126.414 106.96 127.771 105.603 127.771 103.93C127.771 102.256 126.414 100.9 124.741 100.9C123.068 100.9 121.711 102.256 121.711 103.93C121.711 105.603 123.068 106.96 124.741 106.96Z" fill="#DDDBDB"/>
<path d="M135.52 106.96C137.194 106.96 138.55 105.603 138.55 103.93C138.55 102.256 137.194 100.9 135.52 100.9C133.847 100.9 132.49 102.256 132.49 103.93C132.49 105.603 133.847 106.96 135.52 106.96Z" fill="#DDDBDB"/>
<path d="M43.8698 113.81C45.5433 113.81 46.8998 112.453 46.8998 110.78C46.8998 109.107 45.5433 107.75 43.8698 107.75C42.1964 107.75 40.8398 109.107 40.8398 110.78C40.8398 112.453 42.1964 113.81 43.8698 113.81Z" fill="#DDDBDB"/>
<path d="M54.6491 113.81C56.3226 113.81 57.6791 112.453 57.6791 110.78C57.6791 109.107 56.3226 107.75 54.6491 107.75C52.9757 107.75 51.6191 109.107 51.6191 110.78C51.6191 112.453 52.9757 113.81 54.6491 113.81Z" fill="#DDDBDB"/>
<path d="M65.4304 113.81C67.1038 113.81 68.4604 112.453 68.4604 110.78C68.4604 109.107 67.1038 107.75 65.4304 107.75C63.757 107.75 62.4004 109.107 62.4004 110.78C62.4004 112.453 63.757 113.81 65.4304 113.81Z" fill="#DDDBDB"/>
<path d="M76.2195 113.81C77.8929 113.81 79.2495 112.453 79.2495 110.78C79.2495 109.107 77.8929 107.75 76.2195 107.75C74.546 107.75 73.1895 109.107 73.1895 110.78C73.1895 112.453 74.546 113.81 76.2195 113.81Z" fill="#DDDBDB"/>
<path d="M87.0007 113.81C88.6741 113.81 90.0307 112.453 90.0307 110.78C90.0307 109.107 88.6741 107.75 87.0007 107.75C85.3273 107.75 83.9707 109.107 83.9707 110.78C83.9707 112.453 85.3273 113.81 87.0007 113.81Z" fill="#DDDBDB"/>
<path d="M97.78 113.81C99.4534 113.81 100.81 112.453 100.81 110.78C100.81 109.107 99.4534 107.75 97.78 107.75C96.1066 107.75 94.75 109.107 94.75 110.78C94.75 112.453 96.1066 113.81 97.78 113.81Z" fill="#DDDBDB"/>
<path d="M108.559 113.81C110.233 113.81 111.589 112.453 111.589 110.78C111.589 109.107 110.233 107.75 108.559 107.75C106.886 107.75 105.529 109.107 105.529 110.78C105.529 112.453 106.886 113.81 108.559 113.81Z" fill="#DDDBDB"/>
<path d="M119.35 113.81C121.024 113.81 122.38 112.453 122.38 110.78C122.38 109.107 121.024 107.75 119.35 107.75C117.677 107.75 116.32 109.107 116.32 110.78C116.32 112.453 117.677 113.81 119.35 113.81Z" fill="#DDDBDB"/>
<path d="M130.13 113.81C131.803 113.81 133.16 112.453 133.16 110.78C133.16 109.107 131.803 107.75 130.13 107.75C128.456 107.75 127.1 109.107 127.1 110.78C127.1 112.453 128.456 113.81 130.13 113.81Z" fill="#DDDBDB"/>
<path d="M140.911 113.81C142.584 113.81 143.941 112.453 143.941 110.78C143.941 109.107 142.584 107.75 140.911 107.75C139.237 107.75 137.881 109.107 137.881 110.78C137.881 112.453 139.237 113.81 140.911 113.81Z" fill="#DDDBDB"/>
<path d="M49.2605 120.96C50.9339 120.96 52.2905 119.603 52.2905 117.93C52.2905 116.256 50.9339 114.9 49.2605 114.9C47.587 114.9 46.2305 116.256 46.2305 117.93C46.2305 119.603 47.587 120.96 49.2605 120.96Z" fill="#DDDBDB"/>
<path d="M60.0398 120.96C61.7132 120.96 63.0698 119.603 63.0698 117.93C63.0698 116.256 61.7132 114.9 60.0398 114.9C58.3663 114.9 57.0098 116.256 57.0098 117.93C57.0098 119.603 58.3663 120.96 60.0398 120.96Z" fill="#DDDBDB"/>
<path d="M70.8191 120.96C72.4925 120.96 73.8491 119.603 73.8491 117.93C73.8491 116.256 72.4925 114.9 70.8191 114.9C69.1456 114.9 67.7891 116.256 67.7891 117.93C67.7891 119.603 69.1456 120.96 70.8191 120.96Z" fill="#DDDBDB"/>
<path d="M81.6101 120.96C83.2835 120.96 84.6401 119.603 84.6401 117.93C84.6401 116.256 83.2835 114.9 81.6101 114.9C79.9367 114.9 78.5801 116.256 78.5801 117.93C78.5801 119.603 79.9367 120.96 81.6101 120.96Z" fill="#DDDBDB"/>
<path d="M92.3894 120.96C94.0628 120.96 95.4194 119.603 95.4194 117.93C95.4194 116.256 94.0628 114.9 92.3894 114.9C90.716 114.9 89.3594 116.256 89.3594 117.93C89.3594 119.603 90.716 120.96 92.3894 120.96Z" fill="#DDDBDB"/>
<path d="M103.171 120.96C104.844 120.96 106.201 119.603 106.201 117.93C106.201 116.256 104.844 114.9 103.171 114.9C101.497 114.9 100.141 116.256 100.141 117.93C100.141 119.603 101.497 120.96 103.171 120.96Z" fill="#DDDBDB"/>
<path d="M113.95 120.96C115.623 120.96 116.98 119.603 116.98 117.93C116.98 116.256 115.623 114.9 113.95 114.9C112.276 114.9 110.92 116.256 110.92 117.93C110.92 119.603 112.276 120.96 113.95 120.96Z" fill="#DDDBDB"/>
<path d="M124.741 120.96C126.414 120.96 127.771 119.603 127.771 117.93C127.771 116.256 126.414 114.9 124.741 114.9C123.068 114.9 121.711 116.256 121.711 117.93C121.711 119.603 123.068 120.96 124.741 120.96Z" fill="#DDDBDB"/>
<path d="M135.52 120.96C137.194 120.96 138.55 119.603 138.55 117.93C138.55 116.256 137.194 114.9 135.52 114.9C133.847 114.9 132.49 116.256 132.49 117.93C132.49 119.603 133.847 120.96 135.52 120.96Z" fill="#DDDBDB"/>
<path d="M43.8698 127.81C45.5433 127.81 46.8998 126.453 46.8998 124.78C46.8998 123.107 45.5433 121.75 43.8698 121.75C42.1964 121.75 40.8398 123.107 40.8398 124.78C40.8398 126.453 42.1964 127.81 43.8698 127.81Z" fill="#DDDBDB"/>
<path d="M54.6491 127.81C56.3226 127.81 57.6791 126.453 57.6791 124.78C57.6791 123.107 56.3226 121.75 54.6491 121.75C52.9757 121.75 51.6191 123.107 51.6191 124.78C51.6191 126.453 52.9757 127.81 54.6491 127.81Z" fill="#DDDBDB"/>
<path d="M65.4304 127.81C67.1038 127.81 68.4604 126.453 68.4604 124.78C68.4604 123.107 67.1038 121.75 65.4304 121.75C63.757 121.75 62.4004 123.107 62.4004 124.78C62.4004 126.453 63.757 127.81 65.4304 127.81Z" fill="#DDDBDB"/>
<path d="M76.2195 127.81C77.8929 127.81 79.2495 126.453 79.2495 124.78C79.2495 123.107 77.8929 121.75 76.2195 121.75C74.546 121.75 73.1895 123.107 73.1895 124.78C73.1895 126.453 74.546 127.81 76.2195 127.81Z" fill="#DDDBDB"/>
<path d="M87.0007 127.81C88.6741 127.81 90.0307 126.453 90.0307 124.78C90.0307 123.107 88.6741 121.75 87.0007 121.75C85.3273 121.75 83.9707 123.107 83.9707 124.78C83.9707 126.453 85.3273 127.81 87.0007 127.81Z" fill="#DDDBDB"/>
<path d="M97.78 127.81C99.4534 127.81 100.81 126.453 100.81 124.78C100.81 123.107 99.4534 121.75 97.78 121.75C96.1066 121.75 94.75 123.107 94.75 124.78C94.75 126.453 96.1066 127.81 97.78 127.81Z" fill="#DDDBDB"/>
<path d="M108.559 127.81C110.233 127.81 111.589 126.453 111.589 124.78C111.589 123.107 110.233 121.75 108.559 121.75C106.886 121.75 105.529 123.107 105.529 124.78C105.529 126.453 106.886 127.81 108.559 127.81Z" fill="#DDDBDB"/>
<path d="M119.35 127.81C121.024 127.81 122.38 126.453 122.38 124.78C122.38 123.107 121.024 121.75 119.35 121.75C117.677 121.75 116.32 123.107 116.32 124.78C116.32 126.453 117.677 127.81 119.35 127.81Z" fill="#DDDBDB"/>
<path d="M130.13 127.81C131.803 127.81 133.16 126.453 133.16 124.78C133.16 123.107 131.803 121.75 130.13 121.75C128.456 121.75 127.1 123.107 127.1 124.78C127.1 126.453 128.456 127.81 130.13 127.81Z" fill="#DDDBDB"/>
<path d="M140.911 127.81C142.584 127.81 143.941 126.453 143.941 124.78C143.941 123.107 142.584 121.75 140.911 121.75C139.237 121.75 137.881 123.107 137.881 124.78C137.881 126.453 139.237 127.81 140.911 127.81Z" fill="#DDDBDB"/>
<path d="M49.2605 134.96C50.9339 134.96 52.2905 133.603 52.2905 131.93C52.2905 130.256 50.9339 128.9 49.2605 128.9C47.587 128.9 46.2305 130.256 46.2305 131.93C46.2305 133.603 47.587 134.96 49.2605 134.96Z" fill="#DDDBDB"/>
<path d="M60.0398 134.96C61.7132 134.96 63.0698 133.603 63.0698 131.93C63.0698 130.256 61.7132 128.9 60.0398 128.9C58.3663 128.9 57.0098 130.256 57.0098 131.93C57.0098 133.603 58.3663 134.96 60.0398 134.96Z" fill="#DDDBDB"/>
<path d="M70.8191 134.96C72.4925 134.96 73.8491 133.603 73.8491 131.93C73.8491 130.256 72.4925 128.9 70.8191 128.9C69.1456 128.9 67.7891 130.256 67.7891 131.93C67.7891 133.603 69.1456 134.96 70.8191 134.96Z" fill="#DDDBDB"/>
<path d="M81.6101 134.96C83.2835 134.96 84.6401 133.603 84.6401 131.93C84.6401 130.256 83.2835 128.9 81.6101 128.9C79.9367 128.9 78.5801 130.256 78.5801 131.93C78.5801 133.603 79.9367 134.96 81.6101 134.96Z" fill="#DDDBDB"/>
<path d="M92.3894 134.96C94.0628 134.96 95.4194 133.603 95.4194 131.93C95.4194 130.256 94.0628 128.9 92.3894 128.9C90.716 128.9 89.3594 130.256 89.3594 131.93C89.3594 133.603 90.716 134.96 92.3894 134.96Z" fill="#DDDBDB"/>
<path d="M103.171 134.96C104.844 134.96 106.201 133.603 106.201 131.93C106.201 130.256 104.844 128.9 103.171 128.9C101.497 128.9 100.141 130.256 100.141 131.93C100.141 133.603 101.497 134.96 103.171 134.96Z" fill="#DDDBDB"/>
<path d="M113.95 134.96C115.623 134.96 116.98 133.603 116.98 131.93C116.98 130.256 115.623 128.9 113.95 128.9C112.276 128.9 110.92 130.256 110.92 131.93C110.92 133.603 112.276 134.96 113.95 134.96Z" fill="#DDDBDB"/>
<path d="M124.741 134.96C126.414 134.96 127.771 133.603 127.771 131.93C127.771 130.256 126.414 128.9 124.741 128.9C123.068 128.9 121.711 130.256 121.711 131.93C121.711 133.603 123.068 134.96 124.741 134.96Z" fill="#DDDBDB"/>
<path d="M135.52 134.96C137.194 134.96 138.55 133.603 138.55 131.93C138.55 130.256 137.194 128.9 135.52 128.9C133.847 128.9 132.49 130.256 132.49 131.93C132.49 133.603 133.847 134.96 135.52 134.96Z" fill="#DDDBDB"/>
<path d="M43.8698 141.8C45.5433 141.8 46.8998 140.444 46.8998 138.77C46.8998 137.097 45.5433 135.74 43.8698 135.74C42.1964 135.74 40.8398 137.097 40.8398 138.77C40.8398 140.444 42.1964 141.8 43.8698 141.8Z" fill="#DDDBDB"/>
<path d="M54.6491 141.8C56.3226 141.8 57.6791 140.444 57.6791 138.77C57.6791 137.097 56.3226 135.74 54.6491 135.74C52.9757 135.74 51.6191 137.097 51.6191 138.77C51.6191 140.444 52.9757 141.8 54.6491 141.8Z" fill="#DDDBDB"/>
<path d="M65.4304 141.8C67.1038 141.8 68.4604 140.444 68.4604 138.77C68.4604 137.097 67.1038 135.74 65.4304 135.74C63.757 135.74 62.4004 137.097 62.4004 138.77C62.4004 140.444 63.757 141.8 65.4304 141.8Z" fill="#DDDBDB"/>
<path d="M76.2195 141.8C77.8929 141.8 79.2495 140.444 79.2495 138.77C79.2495 137.097 77.8929 135.74 76.2195 135.74C74.546 135.74 73.1895 137.097 73.1895 138.77C73.1895 140.444 74.546 141.8 76.2195 141.8Z" fill="#DDDBDB"/>
<path d="M87.0007 141.8C88.6741 141.8 90.0307 140.444 90.0307 138.77C90.0307 137.097 88.6741 135.74 87.0007 135.74C85.3273 135.74 83.9707 137.097 83.9707 138.77C83.9707 140.444 85.3273 141.8 87.0007 141.8Z" fill="#DDDBDB"/>
<path d="M97.78 141.8C99.4534 141.8 100.81 140.444 100.81 138.77C100.81 137.097 99.4534 135.74 97.78 135.74C96.1066 135.74 94.75 137.097 94.75 138.77C94.75 140.444 96.1066 141.8 97.78 141.8Z" fill="#DDDBDB"/>
<path d="M108.559 141.8C110.233 141.8 111.589 140.444 111.589 138.77C111.589 137.097 110.233 135.74 108.559 135.74C106.886 135.74 105.529 137.097 105.529 138.77C105.529 140.444 106.886 141.8 108.559 141.8Z" fill="#DDDBDB"/>
<path d="M119.35 141.8C121.024 141.8 122.38 140.444 122.38 138.77C122.38 137.097 121.024 135.74 119.35 135.74C117.677 135.74 116.32 137.097 116.32 138.77C116.32 140.444 117.677 141.8 119.35 141.8Z" fill="#DDDBDB"/>
<path d="M130.13 141.8C131.803 141.8 133.16 140.444 133.16 138.77C133.16 137.097 131.803 135.74 130.13 135.74C128.456 135.74 127.1 137.097 127.1 138.77C127.1 140.444 128.456 141.8 130.13 141.8Z" fill="#DDDBDB"/>
<path d="M140.911 141.8C142.584 141.8 143.941 140.444 143.941 138.77C143.941 137.097 142.584 135.74 140.911 135.74C139.237 135.74 137.881 137.097 137.881 138.77C137.881 140.444 139.237 141.8 140.911 141.8Z" fill="#DDDBDB"/>
<path d="M49.2605 148.95C50.9339 148.95 52.2905 147.594 52.2905 145.92C52.2905 144.247 50.9339 142.89 49.2605 142.89C47.587 142.89 46.2305 144.247 46.2305 145.92C46.2305 147.594 47.587 148.95 49.2605 148.95Z" fill="#DDDBDB"/>
<path d="M60.0398 148.95C61.7132 148.95 63.0698 147.594 63.0698 145.92C63.0698 144.247 61.7132 142.89 60.0398 142.89C58.3663 142.89 57.0098 144.247 57.0098 145.92C57.0098 147.594 58.3663 148.95 60.0398 148.95Z" fill="#DDDBDB"/>
<path d="M70.8191 148.95C72.4925 148.95 73.8491 147.594 73.8491 145.92C73.8491 144.247 72.4925 142.89 70.8191 142.89C69.1456 142.89 67.7891 144.247 67.7891 145.92C67.7891 147.594 69.1456 148.95 70.8191 148.95Z" fill="#DDDBDB"/>
<path d="M81.6101 148.95C83.2835 148.95 84.6401 147.594 84.6401 145.92C84.6401 144.247 83.2835 142.89 81.6101 142.89C79.9367 142.89 78.5801 144.247 78.5801 145.92C78.5801 147.594 79.9367 148.95 81.6101 148.95Z" fill="#DDDBDB"/>
<path d="M92.3894 148.95C94.0628 148.95 95.4194 147.594 95.4194 145.92C95.4194 144.247 94.0628 142.89 92.3894 142.89C90.716 142.89 89.3594 144.247 89.3594 145.92C89.3594 147.594 90.716 148.95 92.3894 148.95Z" fill="#DDDBDB"/>
<path d="M103.171 148.95C104.844 148.95 106.201 147.594 106.201 145.92C106.201 144.247 104.844 142.89 103.171 142.89C101.497 142.89 100.141 144.247 100.141 145.92C100.141 147.594 101.497 148.95 103.171 148.95Z" fill="#DDDBDB"/>
<path d="M113.95 148.95C115.623 148.95 116.98 147.594 116.98 145.92C116.98 144.247 115.623 142.89 113.95 142.89C112.276 142.89 110.92 144.247 110.92 145.92C110.92 147.594 112.276 148.95 113.95 148.95Z" fill="#DDDBDB"/>
<path d="M124.741 148.95C126.414 148.95 127.771 147.594 127.771 145.92C127.771 144.247 126.414 142.89 124.741 142.89C123.068 142.89 121.711 144.247 121.711 145.92C121.711 147.594 123.068 148.95 124.741 148.95Z" fill="#DDDBDB"/>
<path d="M135.52 148.95C137.194 148.95 138.55 147.594 138.55 145.92C138.55 144.247 137.194 142.89 135.52 142.89C133.847 142.89 132.49 144.247 132.49 145.92C132.49 147.594 133.847 148.95 135.52 148.95Z" fill="#DDDBDB"/>
<path d="M43.8698 155.8C45.5433 155.8 46.8998 154.444 46.8998 152.77C46.8998 151.097 45.5433 149.74 43.8698 149.74C42.1964 149.74 40.8398 151.097 40.8398 152.77C40.8398 154.444 42.1964 155.8 43.8698 155.8Z" fill="#DDDBDB"/>
<path d="M54.6491 155.8C56.3226 155.8 57.6791 154.444 57.6791 152.77C57.6791 151.097 56.3226 149.74 54.6491 149.74C52.9757 149.74 51.6191 151.097 51.6191 152.77C51.6191 154.444 52.9757 155.8 54.6491 155.8Z" fill="#DDDBDB"/>
<path d="M65.4304 155.8C67.1038 155.8 68.4604 154.444 68.4604 152.77C68.4604 151.097 67.1038 149.74 65.4304 149.74C63.757 149.74 62.4004 151.097 62.4004 152.77C62.4004 154.444 63.757 155.8 65.4304 155.8Z" fill="#DDDBDB"/>
<path d="M76.2195 155.8C77.8929 155.8 79.2495 154.444 79.2495 152.77C79.2495 151.097 77.8929 149.74 76.2195 149.74C74.546 149.74 73.1895 151.097 73.1895 152.77C73.1895 154.444 74.546 155.8 76.2195 155.8Z" fill="#DDDBDB"/>
<path d="M87.0007 155.8C88.6741 155.8 90.0307 154.444 90.0307 152.77C90.0307 151.097 88.6741 149.74 87.0007 149.74C85.3273 149.74 83.9707 151.097 83.9707 152.77C83.9707 154.444 85.3273 155.8 87.0007 155.8Z" fill="#DDDBDB"/>
<path d="M97.78 155.8C99.4534 155.8 100.81 154.444 100.81 152.77C100.81 151.097 99.4534 149.74 97.78 149.74C96.1066 149.74 94.75 151.097 94.75 152.77C94.75 154.444 96.1066 155.8 97.78 155.8Z" fill="#DDDBDB"/>
<path d="M108.559 155.8C110.233 155.8 111.589 154.444 111.589 152.77C111.589 151.097 110.233 149.74 108.559 149.74C106.886 149.74 105.529 151.097 105.529 152.77C105.529 154.444 106.886 155.8 108.559 155.8Z" fill="#DDDBDB"/>
<path d="M119.35 155.8C121.024 155.8 122.38 154.444 122.38 152.77C122.38 151.097 121.024 149.74 119.35 149.74C117.677 149.74 116.32 151.097 116.32 152.77C116.32 154.444 117.677 155.8 119.35 155.8Z" fill="#DDDBDB"/>
<path d="M130.13 155.8C131.803 155.8 133.16 154.444 133.16 152.77C133.16 151.097 131.803 149.74 130.13 149.74C128.456 149.74 127.1 151.097 127.1 152.77C127.1 154.444 128.456 155.8 130.13 155.8Z" fill="#DDDBDB"/>
<path d="M140.911 155.8C142.584 155.8 143.941 154.444 143.941 152.77C143.941 151.097 142.584 149.74 140.911 149.74C139.237 149.74 137.881 151.097 137.881 152.77C137.881 154.444 139.237 155.8 140.911 155.8Z" fill="#DDDBDB"/>
<path d="M49.2605 162.95C50.9339 162.95 52.2905 161.594 52.2905 159.92C52.2905 158.247 50.9339 156.89 49.2605 156.89C47.587 156.89 46.2305 158.247 46.2305 159.92C46.2305 161.594 47.587 162.95 49.2605 162.95Z" fill="#DDDBDB"/>
<path d="M60.0398 162.95C61.7132 162.95 63.0698 161.594 63.0698 159.92C63.0698 158.247 61.7132 156.89 60.0398 156.89C58.3663 156.89 57.0098 158.247 57.0098 159.92C57.0098 161.594 58.3663 162.95 60.0398 162.95Z" fill="#DDDBDB"/>
<path d="M70.8191 162.95C72.4925 162.95 73.8491 161.594 73.8491 159.92C73.8491 158.247 72.4925 156.89 70.8191 156.89C69.1456 156.89 67.7891 158.247 67.7891 159.92C67.7891 161.594 69.1456 162.95 70.8191 162.95Z" fill="#DDDBDB"/>
<path d="M81.6101 162.95C83.2835 162.95 84.6401 161.594 84.6401 159.92C84.6401 158.247 83.2835 156.89 81.6101 156.89C79.9367 156.89 78.5801 158.247 78.5801 159.92C78.5801 161.594 79.9367 162.95 81.6101 162.95Z" fill="#DDDBDB"/>
<path d="M92.3894 162.95C94.0628 162.95 95.4194 161.594 95.4194 159.92C95.4194 158.247 94.0628 156.89 92.3894 156.89C90.716 156.89 89.3594 158.247 89.3594 159.92C89.3594 161.594 90.716 162.95 92.3894 162.95Z" fill="#DDDBDB"/>
<path d="M103.171 162.95C104.844 162.95 106.201 161.594 106.201 159.92C106.201 158.247 104.844 156.89 103.171 156.89C101.497 156.89 100.141 158.247 100.141 159.92C100.141 161.594 101.497 162.95 103.171 162.95Z" fill="#DDDBDB"/>
<path d="M113.95 162.95C115.623 162.95 116.98 161.594 116.98 159.92C116.98 158.247 115.623 156.89 113.95 156.89C112.276 156.89 110.92 158.247 110.92 159.92C110.92 161.594 112.276 162.95 113.95 162.95Z" fill="#DDDBDB"/>
<path d="M124.741 162.95C126.414 162.95 127.771 161.594 127.771 159.92C127.771 158.247 126.414 156.89 124.741 156.89C123.068 156.89 121.711 158.247 121.711 159.92C121.711 161.594 123.068 162.95 124.741 162.95Z" fill="#DDDBDB"/>
<path d="M135.52 162.95C137.194 162.95 138.55 161.594 138.55 159.92C138.55 158.247 137.194 156.89 135.52 156.89C133.847 156.89 132.49 158.247 132.49 159.92C132.49 161.594 133.847 162.95 135.52 162.95Z" fill="#DDDBDB"/>
<path d="M43.8698 169.8C45.5433 169.8 46.8998 168.444 46.8998 166.77C46.8998 165.097 45.5433 163.74 43.8698 163.74C42.1964 163.74 40.8398 165.097 40.8398 166.77C40.8398 168.444 42.1964 169.8 43.8698 169.8Z" fill="#DDDBDB"/>
<path d="M54.6491 169.8C56.3226 169.8 57.6791 168.444 57.6791 166.77C57.6791 165.097 56.3226 163.74 54.6491 163.74C52.9757 163.74 51.6191 165.097 51.6191 166.77C51.6191 168.444 52.9757 169.8 54.6491 169.8Z" fill="#DDDBDB"/>
<path d="M65.4304 169.8C67.1038 169.8 68.4604 168.444 68.4604 166.77C68.4604 165.097 67.1038 163.74 65.4304 163.74C63.757 163.74 62.4004 165.097 62.4004 166.77C62.4004 168.444 63.757 169.8 65.4304 169.8Z" fill="#DDDBDB"/>
<path d="M76.2195 169.8C77.8929 169.8 79.2495 168.444 79.2495 166.77C79.2495 165.097 77.8929 163.74 76.2195 163.74C74.546 163.74 73.1895 165.097 73.1895 166.77C73.1895 168.444 74.546 169.8 76.2195 169.8Z" fill="#DDDBDB"/>
<path d="M87.0007 169.8C88.6741 169.8 90.0307 168.444 90.0307 166.77C90.0307 165.097 88.6741 163.74 87.0007 163.74C85.3273 163.74 83.9707 165.097 83.9707 166.77C83.9707 168.444 85.3273 169.8 87.0007 169.8Z" fill="#DDDBDB"/>
<path d="M97.78 169.8C99.4534 169.8 100.81 168.444 100.81 166.77C100.81 165.097 99.4534 163.74 97.78 163.74C96.1066 163.74 94.75 165.097 94.75 166.77C94.75 168.444 96.1066 169.8 97.78 169.8Z" fill="#DDDBDB"/>
<path d="M108.559 169.8C110.233 169.8 111.589 168.444 111.589 166.77C111.589 165.097 110.233 163.74 108.559 163.74C106.886 163.74 105.529 165.097 105.529 166.77C105.529 168.444 106.886 169.8 108.559 169.8Z" fill="#DDDBDB"/>
<path d="M119.35 169.8C121.024 169.8 122.38 168.444 122.38 166.77C122.38 165.097 121.024 163.74 119.35 163.74C117.677 163.74 116.32 165.097 116.32 166.77C116.32 168.444 117.677 169.8 119.35 169.8Z" fill="#DDDBDB"/>
<path d="M130.13 169.8C131.803 169.8 133.16 168.444 133.16 166.77C133.16 165.097 131.803 163.74 130.13 163.74C128.456 163.74 127.1 165.097 127.1 166.77C127.1 168.444 128.456 169.8 130.13 169.8Z" fill="#DDDBDB"/>
<path d="M140.911 169.8C142.584 169.8 143.941 168.444 143.941 166.77C143.941 165.097 142.584 163.74 140.911 163.74C139.237 163.74 137.881 165.097 137.881 166.77C137.881 168.444 139.237 169.8 140.911 169.8Z" fill="#DDDBDB"/>
<path d="M49.2605 176.95C50.9339 176.95 52.2905 175.594 52.2905 173.92C52.2905 172.247 50.9339 170.89 49.2605 170.89C47.587 170.89 46.2305 172.247 46.2305 173.92C46.2305 175.594 47.587 176.95 49.2605 176.95Z" fill="#DDDBDB"/>
<path d="M60.0398 176.95C61.7132 176.95 63.0698 175.594 63.0698 173.92C63.0698 172.247 61.7132 170.89 60.0398 170.89C58.3663 170.89 57.0098 172.247 57.0098 173.92C57.0098 175.594 58.3663 176.95 60.0398 176.95Z" fill="#DDDBDB"/>
<path d="M70.8191 176.95C72.4925 176.95 73.8491 175.594 73.8491 173.92C73.8491 172.247 72.4925 170.89 70.8191 170.89C69.1456 170.89 67.7891 172.247 67.7891 173.92C67.7891 175.594 69.1456 176.95 70.8191 176.95Z" fill="#DDDBDB"/>
<path d="M81.6101 176.95C83.2835 176.95 84.6401 175.594 84.6401 173.92C84.6401 172.247 83.2835 170.89 81.6101 170.89C79.9367 170.89 78.5801 172.247 78.5801 173.92C78.5801 175.594 79.9367 176.95 81.6101 176.95Z" fill="#DDDBDB"/>
<path d="M92.3894 176.95C94.0628 176.95 95.4194 175.594 95.4194 173.92C95.4194 172.247 94.0628 170.89 92.3894 170.89C90.716 170.89 89.3594 172.247 89.3594 173.92C89.3594 175.594 90.716 176.95 92.3894 176.95Z" fill="#DDDBDB"/>
<path d="M103.171 176.95C104.844 176.95 106.201 175.594 106.201 173.92C106.201 172.247 104.844 170.89 103.171 170.89C101.497 170.89 100.141 172.247 100.141 173.92C100.141 175.594 101.497 176.95 103.171 176.95Z" fill="#DDDBDB"/>
<path d="M113.95 176.95C115.623 176.95 116.98 175.594 116.98 173.92C116.98 172.247 115.623 170.89 113.95 170.89C112.276 170.89 110.92 172.247 110.92 173.92C110.92 175.594 112.276 176.95 113.95 176.95Z" fill="#DDDBDB"/>
<path d="M124.741 176.95C126.414 176.95 127.771 175.594 127.771 173.92C127.771 172.247 126.414 170.89 124.741 170.89C123.068 170.89 121.711 172.247 121.711 173.92C121.711 175.594 123.068 176.95 124.741 176.95Z" fill="#DDDBDB"/>
<path d="M135.52 176.95C137.194 176.95 138.55 175.594 138.55 173.92C138.55 172.247 137.194 170.89 135.52 170.89C133.847 170.89 132.49 172.247 132.49 173.92C132.49 175.594 133.847 176.95 135.52 176.95Z" fill="#DDDBDB"/>
<path d="M43.8698 183.8C45.5433 183.8 46.8998 182.444 46.8998 180.77C46.8998 179.097 45.5433 177.74 43.8698 177.74C42.1964 177.74 40.8398 179.097 40.8398 180.77C40.8398 182.444 42.1964 183.8 43.8698 183.8Z" fill="#DDDBDB"/>
<path d="M54.6491 183.8C56.3226 183.8 57.6791 182.444 57.6791 180.77C57.6791 179.097 56.3226 177.74 54.6491 177.74C52.9757 177.74 51.6191 179.097 51.6191 180.77C51.6191 182.444 52.9757 183.8 54.6491 183.8Z" fill="#DDDBDB"/>
<path d="M65.4304 183.8C67.1038 183.8 68.4604 182.444 68.4604 180.77C68.4604 179.097 67.1038 177.74 65.4304 177.74C63.757 177.74 62.4004 179.097 62.4004 180.77C62.4004 182.444 63.757 183.8 65.4304 183.8Z" fill="#DDDBDB"/>
<path d="M76.2195 183.8C77.8929 183.8 79.2495 182.444 79.2495 180.77C79.2495 179.097 77.8929 177.74 76.2195 177.74C74.546 177.74 73.1895 179.097 73.1895 180.77C73.1895 182.444 74.546 183.8 76.2195 183.8Z" fill="#DDDBDB"/>
<path d="M87.0007 183.8C88.6741 183.8 90.0307 182.444 90.0307 180.77C90.0307 179.097 88.6741 177.74 87.0007 177.74C85.3273 177.74 83.9707 179.097 83.9707 180.77C83.9707 182.444 85.3273 183.8 87.0007 183.8Z" fill="#DDDBDB"/>
<path d="M97.78 183.8C99.4534 183.8 100.81 182.444 100.81 180.77C100.81 179.097 99.4534 177.74 97.78 177.74C96.1066 177.74 94.75 179.097 94.75 180.77C94.75 182.444 96.1066 183.8 97.78 183.8Z" fill="#DDDBDB"/>
<path d="M108.559 183.8C110.233 183.8 111.589 182.444 111.589 180.77C111.589 179.097 110.233 177.74 108.559 177.74C106.886 177.74 105.529 179.097 105.529 180.77C105.529 182.444 106.886 183.8 108.559 183.8Z" fill="#DDDBDB"/>
<path d="M119.35 183.8C121.024 183.8 122.38 182.444 122.38 180.77C122.38 179.097 121.024 177.74 119.35 177.74C117.677 177.74 116.32 179.097 116.32 180.77C116.32 182.444 117.677 183.8 119.35 183.8Z" fill="#DDDBDB"/>
<path d="M130.13 183.8C131.803 183.8 133.16 182.444 133.16 180.77C133.16 179.097 131.803 177.74 130.13 177.74C128.456 177.74 127.1 179.097 127.1 180.77C127.1 182.444 128.456 183.8 130.13 183.8Z" fill="#DDDBDB"/>
<path d="M140.911 183.8C142.584 183.8 143.941 182.444 143.941 180.77C143.941 179.097 142.584 177.74 140.911 177.74C139.237 177.74 137.881 179.097 137.881 180.77C137.881 182.444 139.237 183.8 140.911 183.8Z" fill="#DDDBDB"/>
<path d="M168.691 79.1598C168.151 73.9598 163.731 69.8898 158.391 69.8898H150.951V33.0298C150.951 32.6698 150.821 32.3298 150.591 32.0498L145.881 26.5498C145.601 26.2198 145.181 26.0298 144.741 26.0298H29.1306C28.5206 26.0298 27.9706 26.3998 27.7406 26.9698C27.5106 27.5398 27.6506 28.1798 28.0806 28.6098L33.2806 33.6698V187.42C33.2806 188.25 33.9506 188.92 34.7806 188.92C35.6106 188.92 36.2806 188.25 36.2806 187.42V34.5298H147.951V187.42C147.951 188.25 148.621 188.92 149.451 188.92C150.281 188.92 150.951 188.25 150.951 187.42V106.08H168.721C168.721 106.08 168.721 79.5098 168.691 79.1598ZM35.3906 31.5298L32.8206 29.0298H144.041L146.181 31.5298H35.3906ZM165.721 103.08H150.941V80.2398C150.941 78.5698 151.511 77.0298 152.451 75.7998C153.271 77.0998 153.741 78.6198 153.741 80.2198C153.741 80.4998 153.961 80.7198 154.241 80.7198C154.521 80.7198 154.741 80.4898 154.741 80.2198C154.741 78.3198 154.161 76.5198 153.141 75.0098C153.451 74.7098 153.781 74.4398 154.131 74.1898C155.731 75.7098 156.731 77.8498 156.741 80.2198C156.741 80.4998 156.961 80.7198 157.241 80.7198C157.521 80.7198 157.741 80.4898 157.741 80.2198C157.741 77.6698 156.701 75.3598 155.031 73.6698C155.341 73.5198 155.661 73.3798 155.991 73.2698C158.241 74.7598 159.741 77.3198 159.751 80.2098C159.751 80.4898 159.971 80.7098 160.251 80.7098C160.531 80.7098 160.751 80.4798 160.751 80.2098C160.751 77.2898 159.381 74.6798 157.271 72.9698C157.631 72.9198 158.001 72.8798 158.371 72.8798C158.431 72.8798 158.491 72.8798 158.551 72.8798C161.151 74.2898 162.921 77.0498 162.931 80.1998C162.931 80.4798 163.151 80.6998 163.431 80.6998C163.711 80.6998 163.931 80.4698 163.931 80.1998C163.931 77.4698 162.731 75.0198 160.851 73.3098C163.681 74.3298 165.721 77.0298 165.731 80.2098C165.751 85.8498 165.721 98.6798 165.711 103.07L165.721 103.08Z" fill="black"/>
<path d="M169.975 45.9L166.907 55H165.893L163.228 47.239L160.55 55H159.549L156.481 45.9H157.469L160.095 53.726L162.812 45.9H163.709L166.387 53.765L169.052 45.9H169.975ZM173.285 48.11C174.178 48.11 174.863 48.3353 175.339 48.786C175.816 49.228 176.054 49.8867 176.054 50.762V55H175.17V53.934C174.962 54.2893 174.655 54.5667 174.247 54.766C173.849 54.9653 173.372 55.065 172.817 55.065C172.055 55.065 171.448 54.883 170.997 54.519C170.547 54.155 170.321 53.674 170.321 53.076C170.321 52.4953 170.529 52.0273 170.945 51.672C171.37 51.3167 172.042 51.139 172.96 51.139H175.131V50.723C175.131 50.1337 174.967 49.6873 174.637 49.384C174.308 49.072 173.827 48.916 173.194 48.916C172.761 48.916 172.345 48.9897 171.946 49.137C171.548 49.2757 171.205 49.4707 170.919 49.722L170.503 49.033C170.85 48.7383 171.266 48.513 171.751 48.357C172.237 48.1923 172.748 48.11 173.285 48.11ZM172.96 54.337C173.48 54.337 173.927 54.22 174.299 53.986C174.672 53.7433 174.949 53.3967 175.131 52.946V51.828H172.986C171.816 51.828 171.231 52.2353 171.231 53.05C171.231 53.4487 171.383 53.765 171.686 53.999C171.99 54.2243 172.414 54.337 172.96 54.337ZM178.431 45.354H179.354V55H178.431V45.354ZM181.793 45.354H182.716V55H181.793V45.354Z" fill="black" fill-opacity="0.5"/>
<path d="M72.434 17.078C71.5327 17.078 70.718 16.8787 69.99 16.48C69.2707 16.0813 68.703 15.531 68.287 14.829C67.8797 14.1183 67.676 13.3253 67.676 12.45C67.676 11.5747 67.8797 10.786 68.287 10.084C68.703 9.37333 69.275 8.81867 70.003 8.42C70.731 8.02133 71.5457 7.822 72.447 7.822C73.123 7.822 73.747 7.93467 74.319 8.16C74.891 8.38533 75.3763 8.71467 75.775 9.148L75.164 9.759C74.4533 9.03967 73.5563 8.68 72.473 8.68C71.7537 8.68 71.0993 8.84467 70.51 9.174C69.9207 9.50333 69.457 9.954 69.119 10.526C68.7897 11.098 68.625 11.7393 68.625 12.45C68.625 13.1607 68.7897 13.802 69.119 14.374C69.457 14.946 69.9207 15.3967 70.51 15.726C71.0993 16.0553 71.7537 16.22 72.473 16.22C73.565 16.22 74.462 15.856 75.164 15.128L75.775 15.739C75.3763 16.1723 74.8867 16.506 74.306 16.74C73.734 16.9653 73.11 17.078 72.434 17.078ZM83.1501 13.867H77.4301C77.4821 14.5777 77.7551 15.154 78.2491 15.596C78.7431 16.0293 79.3671 16.246 80.1211 16.246C80.5457 16.246 80.9357 16.1723 81.2911 16.025C81.6464 15.869 81.9541 15.6437 82.2141 15.349L82.7341 15.947C82.4307 16.311 82.0494 16.5883 81.5901 16.779C81.1394 16.9697 80.6411 17.065 80.0951 17.065C79.3931 17.065 78.7691 16.9177 78.2231 16.623C77.6857 16.3197 77.2654 15.9037 76.9621 15.375C76.6587 14.8463 76.5071 14.2483 76.5071 13.581C76.5071 12.9137 76.6501 12.3157 76.9361 11.787C77.2307 11.2583 77.6294 10.8467 78.1321 10.552C78.6434 10.2573 79.2154 10.11 79.8481 10.11C80.4807 10.11 81.0484 10.2573 81.5511 10.552C82.0537 10.8467 82.4481 11.2583 82.7341 11.787C83.0201 12.307 83.1631 12.905 83.1631 13.581L83.1501 13.867ZM79.8481 10.903C79.1894 10.903 78.6347 11.1153 78.1841 11.54C77.7421 11.956 77.4907 12.502 77.4301 13.178H82.2791C82.2184 12.502 81.9627 11.956 81.5121 11.54C81.0701 11.1153 80.5154 10.903 79.8481 10.903ZM84.9118 10.162H85.8348V17H84.9118V10.162ZM85.3798 8.667C85.1891 8.667 85.0288 8.602 84.8988 8.472C84.7688 8.342 84.7038 8.186 84.7038 8.004C84.7038 7.83067 84.7688 7.679 84.8988 7.549C85.0288 7.419 85.1891 7.354 85.3798 7.354C85.5704 7.354 85.7308 7.419 85.8608 7.549C85.9908 7.67033 86.0558 7.81767 86.0558 7.991C86.0558 8.18167 85.9908 8.342 85.8608 8.472C85.7308 8.602 85.5704 8.667 85.3798 8.667ZM88.273 7.354H89.196V17H88.273V7.354ZM91.6342 10.162H92.5572V17H91.6342V10.162ZM92.1022 8.667C91.9115 8.667 91.7512 8.602 91.6212 8.472C91.4912 8.342 91.4262 8.186 91.4262 8.004C91.4262 7.83067 91.4912 7.679 91.6212 7.549C91.7512 7.419 91.9115 7.354 92.1022 7.354C92.2929 7.354 92.4532 7.419 92.5832 7.549C92.7132 7.67033 92.7782 7.81767 92.7782 7.991C92.7782 8.18167 92.7132 8.342 92.5832 8.472C92.4532 8.602 92.2929 8.667 92.1022 8.667ZM98.4794 10.11C99.3374 10.11 100.018 10.3613 100.52 10.864C101.032 11.358 101.287 12.0817 101.287 13.035V17H100.364V13.126C100.364 12.4153 100.187 11.8737 99.8314 11.501C99.4761 11.1283 98.9691 10.942 98.3104 10.942C97.5737 10.942 96.9887 11.163 96.5554 11.605C96.1307 12.0383 95.9184 12.6407 95.9184 13.412V17H94.9954V10.162H95.8794V11.423C96.1307 11.007 96.4774 10.6863 96.9194 10.461C97.3701 10.227 97.8901 10.11 98.4794 10.11ZM110.02 10.162V16.168C110.02 17.3293 109.734 18.1873 109.162 18.742C108.598 19.3053 107.745 19.587 106.601 19.587C105.968 19.587 105.366 19.4917 104.794 19.301C104.23 19.119 103.771 18.8633 103.416 18.534L103.884 17.832C104.213 18.1267 104.612 18.3563 105.08 18.521C105.556 18.6857 106.055 18.768 106.575 18.768C107.441 18.768 108.078 18.5643 108.486 18.157C108.893 17.7583 109.097 17.1343 109.097 16.285V15.414C108.811 15.8473 108.434 16.1767 107.966 16.402C107.506 16.6273 106.995 16.74 106.432 16.74C105.79 16.74 105.205 16.6013 104.677 16.324C104.157 16.038 103.745 15.6437 103.442 15.141C103.147 14.6297 103 14.0533 103 13.412C103 12.7707 103.147 12.1987 103.442 11.696C103.745 11.1933 104.157 10.8033 104.677 10.526C105.197 10.2487 105.782 10.11 106.432 10.11C107.012 10.11 107.537 10.227 108.005 10.461C108.473 10.695 108.85 11.033 109.136 11.475V10.162H110.02ZM106.523 15.921C107.017 15.921 107.463 15.817 107.862 15.609C108.26 15.3923 108.568 15.0933 108.785 14.712C109.01 14.3307 109.123 13.8973 109.123 13.412C109.123 12.9267 109.01 12.4977 108.785 12.125C108.568 11.7437 108.26 11.449 107.862 11.241C107.472 11.0243 107.025 10.916 106.523 10.916C106.029 10.916 105.582 11.02 105.184 11.228C104.794 11.436 104.486 11.7307 104.261 12.112C104.044 12.4933 103.936 12.9267 103.936 13.412C103.936 13.8973 104.044 14.3307 104.261 14.712C104.486 15.0933 104.794 15.3923 105.184 15.609C105.582 15.817 106.029 15.921 106.523 15.921Z" fill="black" fill-opacity="0.5"/>
</g>
<defs>
<clipPath id="clip0_1015_612">
<rect width="189.69" height="188.92" fill="white"/>
</clipPath>
</defs>
</svg>
