<svg width="198" height="202" viewBox="0 0 198 202" fill="none" xmlns="http://www.w3.org/2000/svg">
<g clip-path="url(#clip0_1583_3814)">
<path d="M11.1399 8.02C13.3545 8.02 15.1499 6.22466 15.1499 4.01C15.1499 1.79534 13.3545 0 11.1399 0C8.92522 0 7.12988 1.79534 7.12988 4.01C7.12988 6.22466 8.92522 8.02 11.1399 8.02Z" fill="#DDDBDB"/>
<path d="M25.4099 8.02C27.6246 8.02 29.4199 6.22466 29.4199 4.01C29.4199 1.79534 27.6246 0 25.4099 0C23.1952 0 21.3999 1.79534 21.3999 4.01C21.3999 6.22466 23.1952 8.02 25.4099 8.02Z" fill="#DDDBDB"/>
<path d="M39.6699 8.02C41.8846 8.02 43.6799 6.22466 43.6799 4.01C43.6799 1.79534 41.8846 0 39.6699 0C37.4552 0 35.6599 1.79534 35.6599 4.01C35.6599 6.22466 37.4552 8.02 39.6699 8.02Z" fill="#DDDBDB"/>
<path d="M53.9299 8.02C56.1446 8.02 57.9399 6.22466 57.9399 4.01C57.9399 1.79534 56.1446 0 53.9299 0C51.7153 0 49.9199 1.79534 49.9199 4.01C49.9199 6.22466 51.7153 8.02 53.9299 8.02Z" fill="#DDDBDB"/>
<path d="M68.1899 8.02C70.4046 8.02 72.1999 6.22466 72.1999 4.01C72.1999 1.79534 70.4046 0 68.1899 0C65.9753 0 64.1799 1.79534 64.1799 4.01C64.1799 6.22466 65.9753 8.02 68.1899 8.02Z" fill="#DDDBDB"/>
<path d="M82.4499 8.02C84.6646 8.02 86.4599 6.22466 86.4599 4.01C86.4599 1.79534 84.6646 0 82.4499 0C80.2353 0 78.4399 1.79534 78.4399 4.01C78.4399 6.22466 80.2353 8.02 82.4499 8.02Z" fill="#DDDBDB"/>
<path d="M96.72 8.02C98.9346 8.02 100.73 6.22466 100.73 4.01C100.73 1.79534 98.9346 0 96.72 0C94.5053 0 92.71 1.79534 92.71 4.01C92.71 6.22466 94.5053 8.02 96.72 8.02Z" fill="#DDDBDB"/>
<path d="M110.98 8.02C113.195 8.02 114.99 6.22466 114.99 4.01C114.99 1.79534 113.195 0 110.98 0C108.765 0 106.97 1.79534 106.97 4.01C106.97 6.22466 108.765 8.02 110.98 8.02Z" fill="#DDDBDB"/>
<path d="M125.24 8.02C127.455 8.02 129.25 6.22466 129.25 4.01C129.25 1.79534 127.455 0 125.24 0C123.025 0 121.23 1.79534 121.23 4.01C121.23 6.22466 123.025 8.02 125.24 8.02Z" fill="#DDDBDB"/>
<path d="M4.01 17.0805C6.22466 17.0805 8.02 15.2852 8.02 13.0705C8.02 10.8559 6.22466 9.06055 4.01 9.06055C1.79534 9.06055 0 10.8559 0 13.0705C0 15.2852 1.79534 17.0805 4.01 17.0805Z" fill="#DDDBDB"/>
<path d="M18.28 17.0805C20.4947 17.0805 22.29 15.2852 22.29 13.0705C22.29 10.8559 20.4947 9.06055 18.28 9.06055C16.0654 9.06055 14.27 10.8559 14.27 13.0705C14.27 15.2852 16.0654 17.0805 18.28 17.0805Z" fill="#DDDBDB"/>
<path d="M32.54 17.0805C34.7547 17.0805 36.55 15.2852 36.55 13.0705C36.55 10.8559 34.7547 9.06055 32.54 9.06055C30.3254 9.06055 28.53 10.8559 28.53 13.0705C28.53 15.2852 30.3254 17.0805 32.54 17.0805Z" fill="#DDDBDB"/>
<path d="M46.8 17.0805C49.0147 17.0805 50.81 15.2852 50.81 13.0705C50.81 10.8559 49.0147 9.06055 46.8 9.06055C44.5854 9.06055 42.79 10.8559 42.79 13.0705C42.79 15.2852 44.5854 17.0805 46.8 17.0805Z" fill="#DDDBDB"/>
<path d="M61.0601 17.0805C63.2747 17.0805 65.07 15.2852 65.07 13.0705C65.07 10.8559 63.2747 9.06055 61.0601 9.06055C58.8454 9.06055 57.05 10.8559 57.05 13.0705C57.05 15.2852 58.8454 17.0805 61.0601 17.0805Z" fill="#DDDBDB"/>
<path d="M75.3201 17.0805C77.5347 17.0805 79.3301 15.2852 79.3301 13.0705C79.3301 10.8559 77.5347 9.06055 75.3201 9.06055C73.1054 9.06055 71.3101 10.8559 71.3101 13.0705C71.3101 15.2852 73.1054 17.0805 75.3201 17.0805Z" fill="#DDDBDB"/>
<path d="M89.5801 17.0805C91.7947 17.0805 93.5901 15.2852 93.5901 13.0705C93.5901 10.8559 91.7947 9.06055 89.5801 9.06055C87.3654 9.06055 85.5701 10.8559 85.5701 13.0705C85.5701 15.2852 87.3654 17.0805 89.5801 17.0805Z" fill="#DDDBDB"/>
<path d="M103.85 17.0805C106.065 17.0805 107.86 15.2852 107.86 13.0705C107.86 10.8559 106.065 9.06055 103.85 9.06055C101.635 9.06055 99.8401 10.8559 99.8401 13.0705C99.8401 15.2852 101.635 17.0805 103.85 17.0805Z" fill="#DDDBDB"/>
<path d="M118.11 17.0805C120.325 17.0805 122.12 15.2852 122.12 13.0705C122.12 10.8559 120.325 9.06055 118.11 9.06055C115.895 9.06055 114.1 10.8559 114.1 13.0705C114.1 15.2852 115.895 17.0805 118.11 17.0805Z" fill="#DDDBDB"/>
<path d="M132.37 17.0805C134.585 17.0805 136.38 15.2852 136.38 13.0705C136.38 10.8559 134.585 9.06055 132.37 9.06055C130.155 9.06055 128.36 10.8559 128.36 13.0705C128.36 15.2852 130.155 17.0805 132.37 17.0805Z" fill="#DDDBDB"/>
<path d="M11.1399 26.5395C13.3545 26.5395 15.1499 24.7442 15.1499 22.5295C15.1499 20.3149 13.3545 18.5195 11.1399 18.5195C8.92522 18.5195 7.12988 20.3149 7.12988 22.5295C7.12988 24.7442 8.92522 26.5395 11.1399 26.5395Z" fill="#DDDBDB"/>
<path d="M25.4099 26.5395C27.6246 26.5395 29.4199 24.7442 29.4199 22.5295C29.4199 20.3149 27.6246 18.5195 25.4099 18.5195C23.1952 18.5195 21.3999 20.3149 21.3999 22.5295C21.3999 24.7442 23.1952 26.5395 25.4099 26.5395Z" fill="#DDDBDB"/>
<path d="M39.6699 26.5395C41.8846 26.5395 43.6799 24.7442 43.6799 22.5295C43.6799 20.3149 41.8846 18.5195 39.6699 18.5195C37.4552 18.5195 35.6599 20.3149 35.6599 22.5295C35.6599 24.7442 37.4552 26.5395 39.6699 26.5395Z" fill="#DDDBDB"/>
<path d="M53.9299 26.5395C56.1446 26.5395 57.9399 24.7442 57.9399 22.5295C57.9399 20.3149 56.1446 18.5195 53.9299 18.5195C51.7153 18.5195 49.9199 20.3149 49.9199 22.5295C49.9199 24.7442 51.7153 26.5395 53.9299 26.5395Z" fill="#DDDBDB"/>
<path d="M68.1899 26.5395C70.4046 26.5395 72.1999 24.7442 72.1999 22.5295C72.1999 20.3149 70.4046 18.5195 68.1899 18.5195C65.9753 18.5195 64.1799 20.3149 64.1799 22.5295C64.1799 24.7442 65.9753 26.5395 68.1899 26.5395Z" fill="#DDDBDB"/>
<path d="M82.4499 26.5395C84.6646 26.5395 86.4599 24.7442 86.4599 22.5295C86.4599 20.3149 84.6646 18.5195 82.4499 18.5195C80.2353 18.5195 78.4399 20.3149 78.4399 22.5295C78.4399 24.7442 80.2353 26.5395 82.4499 26.5395Z" fill="#DDDBDB"/>
<path d="M96.72 26.5395C98.9346 26.5395 100.73 24.7442 100.73 22.5295C100.73 20.3149 98.9346 18.5195 96.72 18.5195C94.5053 18.5195 92.71 20.3149 92.71 22.5295C92.71 24.7442 94.5053 26.5395 96.72 26.5395Z" fill="#DDDBDB"/>
<path d="M110.98 26.5395C113.195 26.5395 114.99 24.7442 114.99 22.5295C114.99 20.3149 113.195 18.5195 110.98 18.5195C108.765 18.5195 106.97 20.3149 106.97 22.5295C106.97 24.7442 108.765 26.5395 110.98 26.5395Z" fill="#DDDBDB"/>
<path d="M125.24 26.5395C127.455 26.5395 129.25 24.7442 129.25 22.5295C129.25 20.3149 127.455 18.5195 125.24 18.5195C123.025 18.5195 121.23 20.3149 121.23 22.5295C121.23 24.7442 123.025 26.5395 125.24 26.5395Z" fill="#DDDBDB"/>
<path d="M4.01 35.6001C6.22466 35.6001 8.02 33.8047 8.02 31.5901C8.02 29.3754 6.22466 27.5801 4.01 27.5801C1.79534 27.5801 0 29.3754 0 31.5901C0 33.8047 1.79534 35.6001 4.01 35.6001Z" fill="#DDDBDB"/>
<path d="M18.28 35.6001C20.4947 35.6001 22.29 33.8047 22.29 31.5901C22.29 29.3754 20.4947 27.5801 18.28 27.5801C16.0654 27.5801 14.27 29.3754 14.27 31.5901C14.27 33.8047 16.0654 35.6001 18.28 35.6001Z" fill="#DDDBDB"/>
<path d="M32.54 35.6001C34.7547 35.6001 36.55 33.8047 36.55 31.5901C36.55 29.3754 34.7547 27.5801 32.54 27.5801C30.3254 27.5801 28.53 29.3754 28.53 31.5901C28.53 33.8047 30.3254 35.6001 32.54 35.6001Z" fill="#DDDBDB"/>
<path d="M46.8 35.6001C49.0147 35.6001 50.81 33.8047 50.81 31.5901C50.81 29.3754 49.0147 27.5801 46.8 27.5801C44.5854 27.5801 42.79 29.3754 42.79 31.5901C42.79 33.8047 44.5854 35.6001 46.8 35.6001Z" fill="#DDDBDB"/>
<path d="M61.0601 35.6001C63.2747 35.6001 65.07 33.8047 65.07 31.5901C65.07 29.3754 63.2747 27.5801 61.0601 27.5801C58.8454 27.5801 57.05 29.3754 57.05 31.5901C57.05 33.8047 58.8454 35.6001 61.0601 35.6001Z" fill="#DDDBDB"/>
<path d="M89.5801 35.6001C91.7947 35.6001 93.5901 33.8047 93.5901 31.5901C93.5901 29.3754 91.7947 27.5801 89.5801 27.5801C87.3654 27.5801 85.5701 29.3754 85.5701 31.5901C85.5701 33.8047 87.3654 35.6001 89.5801 35.6001Z" fill="#DDDBDB"/>
<path d="M103.85 35.6001C106.065 35.6001 107.86 33.8047 107.86 31.5901C107.86 29.3754 106.065 27.5801 103.85 27.5801C101.635 27.5801 99.8401 29.3754 99.8401 31.5901C99.8401 33.8047 101.635 35.6001 103.85 35.6001Z" fill="#DDDBDB"/>
<path d="M118.11 35.6001C120.325 35.6001 122.12 33.8047 122.12 31.5901C122.12 29.3754 120.325 27.5801 118.11 27.5801C115.895 27.5801 114.1 29.3754 114.1 31.5901C114.1 33.8047 115.895 35.6001 118.11 35.6001Z" fill="#DDDBDB"/>
<path d="M132.37 35.6001C134.585 35.6001 136.38 33.8047 136.38 31.5901C136.38 29.3754 134.585 27.5801 132.37 27.5801C130.155 27.5801 128.36 29.3754 128.36 31.5901C128.36 33.8047 130.155 35.6001 132.37 35.6001Z" fill="#DDDBDB"/>
<path d="M11.1399 45.0493C13.3545 45.0493 15.1499 43.254 15.1499 41.0393C15.1499 38.8246 13.3545 37.0293 11.1399 37.0293C8.92522 37.0293 7.12988 38.8246 7.12988 41.0393C7.12988 43.254 8.92522 45.0493 11.1399 45.0493Z" fill="#DDDBDB"/>
<path d="M25.4099 45.0493C27.6246 45.0493 29.4199 43.254 29.4199 41.0393C29.4199 38.8246 27.6246 37.0293 25.4099 37.0293C23.1952 37.0293 21.3999 38.8246 21.3999 41.0393C21.3999 43.254 23.1952 45.0493 25.4099 45.0493Z" fill="#DDDBDB"/>
<path d="M39.6699 45.0493C41.8846 45.0493 43.6799 43.254 43.6799 41.0393C43.6799 38.8246 41.8846 37.0293 39.6699 37.0293C37.4552 37.0293 35.6599 38.8246 35.6599 41.0393C35.6599 43.254 37.4552 45.0493 39.6699 45.0493Z" fill="#DDDBDB"/>
<path d="M53.9299 45.0493C56.1446 45.0493 57.9399 43.254 57.9399 41.0393C57.9399 38.8246 56.1446 37.0293 53.9299 37.0293C51.7153 37.0293 49.9199 38.8246 49.9199 41.0393C49.9199 43.254 51.7153 45.0493 53.9299 45.0493Z" fill="#DDDBDB"/>
<path d="M96.72 45.0493C98.9346 45.0493 100.73 43.254 100.73 41.0393C100.73 38.8246 98.9346 37.0293 96.72 37.0293C94.5053 37.0293 92.71 38.8246 92.71 41.0393C92.71 43.254 94.5053 45.0493 96.72 45.0493Z" fill="#DDDBDB"/>
<path d="M110.98 45.0493C113.195 45.0493 114.99 43.254 114.99 41.0393C114.99 38.8246 113.195 37.0293 110.98 37.0293C108.765 37.0293 106.97 38.8246 106.97 41.0393C106.97 43.254 108.765 45.0493 110.98 45.0493Z" fill="#DDDBDB"/>
<path d="M125.24 45.0493C127.455 45.0493 129.25 43.254 129.25 41.0393C129.25 38.8246 127.455 37.0293 125.24 37.0293C123.025 37.0293 121.23 38.8246 121.23 41.0393C121.23 43.254 123.025 45.0493 125.24 45.0493Z" fill="#DDDBDB"/>
<path d="M4.01 54.1098C6.22466 54.1098 8.02 52.3145 8.02 50.0998C8.02 47.8852 6.22466 46.0898 4.01 46.0898C1.79534 46.0898 0 47.8852 0 50.0998C0 52.3145 1.79534 54.1098 4.01 54.1098Z" fill="#DDDBDB"/>
<path d="M18.28 54.1098C20.4947 54.1098 22.29 52.3145 22.29 50.0998C22.29 47.8852 20.4947 46.0898 18.28 46.0898C16.0654 46.0898 14.27 47.8852 14.27 50.0998C14.27 52.3145 16.0654 54.1098 18.28 54.1098Z" fill="#DDDBDB"/>
<path d="M32.54 54.1098C34.7547 54.1098 36.55 52.3145 36.55 50.0998C36.55 47.8852 34.7547 46.0898 32.54 46.0898C30.3254 46.0898 28.53 47.8852 28.53 50.0998C28.53 52.3145 30.3254 54.1098 32.54 54.1098Z" fill="#DDDBDB"/>
<path d="M46.8 54.1098C49.0147 54.1098 50.81 52.3145 50.81 50.0998C50.81 47.8852 49.0147 46.0898 46.8 46.0898C44.5854 46.0898 42.79 47.8852 42.79 50.0998C42.79 52.3145 44.5854 54.1098 46.8 54.1098Z" fill="#DDDBDB"/>
<path d="M103.85 54.1098C106.065 54.1098 107.86 52.3145 107.86 50.0998C107.86 47.8852 106.065 46.0898 103.85 46.0898C101.635 46.0898 99.8401 47.8852 99.8401 50.0998C99.8401 52.3145 101.635 54.1098 103.85 54.1098Z" fill="#DDDBDB"/>
<path d="M118.11 54.1098C120.325 54.1098 122.12 52.3145 122.12 50.0998C122.12 47.8852 120.325 46.0898 118.11 46.0898C115.895 46.0898 114.1 47.8852 114.1 50.0998C114.1 52.3145 115.895 54.1098 118.11 54.1098Z" fill="#DDDBDB"/>
<path d="M132.37 54.1098C134.585 54.1098 136.38 52.3145 136.38 50.0998C136.38 47.8852 134.585 46.0898 132.37 46.0898C130.155 46.0898 128.36 47.8852 128.36 50.0998C128.36 52.3145 130.155 54.1098 132.37 54.1098Z" fill="#DDDBDB"/>
<path d="M11.1399 63.5708C13.3545 63.5708 15.1499 61.7754 15.1499 59.5608C15.1499 57.3461 13.3545 55.5508 11.1399 55.5508C8.92522 55.5508 7.12988 57.3461 7.12988 59.5608C7.12988 61.7754 8.92522 63.5708 11.1399 63.5708Z" fill="#DDDBDB"/>
<path d="M25.4099 63.5708C27.6246 63.5708 29.4199 61.7754 29.4199 59.5608C29.4199 57.3461 27.6246 55.5508 25.4099 55.5508C23.1952 55.5508 21.3999 57.3461 21.3999 59.5608C21.3999 61.7754 23.1952 63.5708 25.4099 63.5708Z" fill="#DDDBDB"/>
<path d="M39.6699 63.5708C41.8846 63.5708 43.6799 61.7754 43.6799 59.5608C43.6799 57.3461 41.8846 55.5508 39.6699 55.5508C37.4552 55.5508 35.6599 57.3461 35.6599 59.5608C35.6599 61.7754 37.4552 63.5708 39.6699 63.5708Z" fill="#DDDBDB"/>
<path d="M57.9099 59.7291C58.1899 59.3991 54.8799 59.9291 52.8299 58.1891C52.2299 57.6791 51.7999 57.0491 51.5099 56.3691C50.5499 57.0991 49.9199 58.2491 49.9199 59.5491C49.9199 61.7691 51.7199 63.5591 53.9299 63.5591C56.1399 63.5591 57.8199 61.8591 57.9199 59.7391H57.8999L57.9099 59.7291Z" fill="#DDDBDB"/>
<path d="M96.72 63.5708C98.9346 63.5708 100.73 61.7754 100.73 59.5608C100.73 57.3461 98.9346 55.5508 96.72 55.5508C94.5053 55.5508 92.71 57.3461 92.71 59.5608C92.71 61.7754 94.5053 63.5708 96.72 63.5708Z" fill="#DDDBDB"/>
<path d="M110.98 63.5708C113.195 63.5708 114.99 61.7754 114.99 59.5608C114.99 57.3461 113.195 55.5508 110.98 55.5508C108.765 55.5508 106.97 57.3461 106.97 59.5608C106.97 61.7754 108.765 63.5708 110.98 63.5708Z" fill="#DDDBDB"/>
<path d="M125.24 63.5708C127.455 63.5708 129.25 61.7754 129.25 59.5608C129.25 57.3461 127.455 55.5508 125.24 55.5508C123.025 55.5508 121.23 57.3461 121.23 59.5608C121.23 61.7754 123.025 63.5708 125.24 63.5708Z" fill="#DDDBDB"/>
<path d="M4.01 72.6196C6.22466 72.6196 8.02 70.8243 8.02 68.6096C8.02 66.3949 6.22466 64.5996 4.01 64.5996C1.79534 64.5996 0 66.3949 0 68.6096C0 70.8243 1.79534 72.6196 4.01 72.6196Z" fill="#DDDBDB"/>
<path d="M18.28 72.6196C20.4947 72.6196 22.29 70.8243 22.29 68.6096C22.29 66.3949 20.4947 64.5996 18.28 64.5996C16.0654 64.5996 14.27 66.3949 14.27 68.6096C14.27 70.8243 16.0654 72.6196 18.28 72.6196Z" fill="#DDDBDB"/>
<path d="M32.54 72.6196C34.7547 72.6196 36.55 70.8243 36.55 68.6096C36.55 66.3949 34.7547 64.5996 32.54 64.5996C30.3254 64.5996 28.53 66.3949 28.53 68.6096C28.53 70.8243 30.3254 72.6196 32.54 72.6196Z" fill="#DDDBDB"/>
<path d="M46.8 72.6196C49.0147 72.6196 50.81 70.8243 50.81 68.6096C50.81 66.3949 49.0147 64.5996 46.8 64.5996C44.5854 64.5996 42.79 66.3949 42.79 68.6096C42.79 70.8243 44.5854 72.6196 46.8 72.6196Z" fill="#DDDBDB"/>
<path d="M61.0601 72.6196C63.2747 72.6196 65.07 70.8243 65.07 68.6096C65.07 66.3949 63.2747 64.5996 61.0601 64.5996C58.8454 64.5996 57.05 66.3949 57.05 68.6096C57.05 70.8243 58.8454 72.6196 61.0601 72.6196Z" fill="#DDDBDB"/>
<path d="M89.5801 72.6196C91.7947 72.6196 93.5901 70.8243 93.5901 68.6096C93.5901 66.3949 91.7947 64.5996 89.5801 64.5996C87.3654 64.5996 85.5701 66.3949 85.5701 68.6096C85.5701 70.8243 87.3654 72.6196 89.5801 72.6196Z" fill="#DDDBDB"/>
<path d="M103.85 72.6196C106.065 72.6196 107.86 70.8243 107.86 68.6096C107.86 66.3949 106.065 64.5996 103.85 64.5996C101.635 64.5996 99.8401 66.3949 99.8401 68.6096C99.8401 70.8243 101.635 72.6196 103.85 72.6196Z" fill="#DDDBDB"/>
<path d="M118.11 72.6196C120.325 72.6196 122.12 70.8243 122.12 68.6096C122.12 66.3949 120.325 64.5996 118.11 64.5996C115.895 64.5996 114.1 66.3949 114.1 68.6096C114.1 70.8243 115.895 72.6196 118.11 72.6196Z" fill="#DDDBDB"/>
<path d="M132.37 72.6196C134.585 72.6196 136.38 70.8243 136.38 68.6096C136.38 66.3949 134.585 64.5996 132.37 64.5996C130.155 64.5996 128.36 66.3949 128.36 68.6096C128.36 70.8243 130.155 72.6196 132.37 72.6196Z" fill="#DDDBDB"/>
<path d="M11.1399 82.0806C13.3545 82.0806 15.1499 80.2852 15.1499 78.0705C15.1499 75.8559 13.3545 74.0605 11.1399 74.0605C8.92522 74.0605 7.12988 75.8559 7.12988 78.0705C7.12988 80.2852 8.92522 82.0806 11.1399 82.0806Z" fill="#DDDBDB"/>
<path d="M25.4099 82.0806C27.6246 82.0806 29.4199 80.2852 29.4199 78.0705C29.4199 75.8559 27.6246 74.0605 25.4099 74.0605C23.1952 74.0605 21.3999 75.8559 21.3999 78.0705C21.3999 80.2852 23.1952 82.0806 25.4099 82.0806Z" fill="#DDDBDB"/>
<path d="M39.6699 82.0806C41.8846 82.0806 43.6799 80.2852 43.6799 78.0705C43.6799 75.8559 41.8846 74.0605 39.6699 74.0605C37.4552 74.0605 35.6599 75.8559 35.6599 78.0705C35.6599 80.2852 37.4552 82.0806 39.6699 82.0806Z" fill="#DDDBDB"/>
<path d="M53.9299 82.0806C56.1446 82.0806 57.9399 80.2852 57.9399 78.0705C57.9399 75.8559 56.1446 74.0605 53.9299 74.0605C51.7153 74.0605 49.9199 75.8559 49.9199 78.0705C49.9199 80.2852 51.7153 82.0806 53.9299 82.0806Z" fill="#DDDBDB"/>
<path d="M68.1899 82.0806C70.4046 82.0806 72.1999 80.2852 72.1999 78.0705C72.1999 75.8559 70.4046 74.0605 68.1899 74.0605C65.9753 74.0605 64.1799 75.8559 64.1799 78.0705C64.1799 80.2852 65.9753 82.0806 68.1899 82.0806Z" fill="#DDDBDB"/>
<path d="M82.4499 82.0806C84.6646 82.0806 86.4599 80.2852 86.4599 78.0705C86.4599 75.8559 84.6646 74.0605 82.4499 74.0605C80.2353 74.0605 78.4399 75.8559 78.4399 78.0705C78.4399 80.2852 80.2353 82.0806 82.4499 82.0806Z" fill="#DDDBDB"/>
<path d="M96.72 82.0806C98.9346 82.0806 100.73 80.2852 100.73 78.0705C100.73 75.8559 98.9346 74.0605 96.72 74.0605C94.5053 74.0605 92.71 75.8559 92.71 78.0705C92.71 80.2852 94.5053 82.0806 96.72 82.0806Z" fill="#DDDBDB"/>
<path d="M110.98 82.0806C113.195 82.0806 114.99 80.2852 114.99 78.0705C114.99 75.8559 113.195 74.0605 110.98 74.0605C108.765 74.0605 106.97 75.8559 106.97 78.0705C106.97 80.2852 108.765 82.0806 110.98 82.0806Z" fill="#DDDBDB"/>
<path d="M125.24 82.0806C127.455 82.0806 129.25 80.2852 129.25 78.0705C129.25 75.8559 127.455 74.0605 125.24 74.0605C123.025 74.0605 121.23 75.8559 121.23 78.0705C121.23 80.2852 123.025 82.0806 125.24 82.0806Z" fill="#DDDBDB"/>
<path d="M4.01 91.1391C6.22466 91.1391 8.02 89.3438 8.02 87.1291C8.02 84.9145 6.22466 83.1191 4.01 83.1191C1.79534 83.1191 0 84.9145 0 87.1291C0 89.3438 1.79534 91.1391 4.01 91.1391Z" fill="#DDDBDB"/>
<path d="M18.28 91.1391C20.4947 91.1391 22.29 89.3438 22.29 87.1291C22.29 84.9145 20.4947 83.1191 18.28 83.1191C16.0654 83.1191 14.27 84.9145 14.27 87.1291C14.27 89.3438 16.0654 91.1391 18.28 91.1391Z" fill="#DDDBDB"/>
<path d="M32.54 91.1391C34.7547 91.1391 36.55 89.3438 36.55 87.1291C36.55 84.9145 34.7547 83.1191 32.54 83.1191C30.3254 83.1191 28.53 84.9145 28.53 87.1291C28.53 89.3438 30.3254 91.1391 32.54 91.1391Z" fill="#DDDBDB"/>
<path d="M46.8 91.1391C49.0147 91.1391 50.81 89.3438 50.81 87.1291C50.81 84.9145 49.0147 83.1191 46.8 83.1191C44.5854 83.1191 42.79 84.9145 42.79 87.1291C42.79 89.3438 44.5854 91.1391 46.8 91.1391Z" fill="#DDDBDB"/>
<path d="M61.0601 91.1391C63.2747 91.1391 65.07 89.3438 65.07 87.1291C65.07 84.9145 63.2747 83.1191 61.0601 83.1191C58.8454 83.1191 57.05 84.9145 57.05 87.1291C57.05 89.3438 58.8454 91.1391 61.0601 91.1391Z" fill="#DDDBDB"/>
<path d="M75.3201 91.1391C77.5347 91.1391 79.3301 89.3438 79.3301 87.1291C79.3301 84.9145 77.5347 83.1191 75.3201 83.1191C73.1054 83.1191 71.3101 84.9145 71.3101 87.1291C71.3101 89.3438 73.1054 91.1391 75.3201 91.1391Z" fill="#DDDBDB"/>
<path d="M89.5801 91.1391C91.7947 91.1391 93.5901 89.3438 93.5901 87.1291C93.5901 84.9145 91.7947 83.1191 89.5801 83.1191C87.3654 83.1191 85.5701 84.9145 85.5701 87.1291C85.5701 89.3438 87.3654 91.1391 89.5801 91.1391Z" fill="#DDDBDB"/>
<path d="M103.85 91.1391C106.065 91.1391 107.86 89.3438 107.86 87.1291C107.86 84.9145 106.065 83.1191 103.85 83.1191C101.635 83.1191 99.8401 84.9145 99.8401 87.1291C99.8401 89.3438 101.635 91.1391 103.85 91.1391Z" fill="#DDDBDB"/>
<path d="M118.11 91.1391C120.325 91.1391 122.12 89.3438 122.12 87.1291C122.12 84.9145 120.325 83.1191 118.11 83.1191C115.895 83.1191 114.1 84.9145 114.1 87.1291C114.1 89.3438 115.895 91.1391 118.11 91.1391Z" fill="#DDDBDB"/>
<path d="M132.37 91.1391C134.585 91.1391 136.38 89.3438 136.38 87.1291C136.38 84.9145 134.585 83.1191 132.37 83.1191C130.155 83.1191 128.36 84.9145 128.36 87.1291C128.36 89.3438 130.155 91.1391 132.37 91.1391Z" fill="#DDDBDB"/>
<path d="M11.1399 100.59C13.3545 100.59 15.1499 98.795 15.1499 96.5803C15.1499 94.3657 13.3545 92.5703 11.1399 92.5703C8.92522 92.5703 7.12988 94.3657 7.12988 96.5803C7.12988 98.795 8.92522 100.59 11.1399 100.59Z" fill="#DDDBDB"/>
<path d="M25.4099 100.59C27.6246 100.59 29.4199 98.795 29.4199 96.5803C29.4199 94.3657 27.6246 92.5703 25.4099 92.5703C23.1952 92.5703 21.3999 94.3657 21.3999 96.5803C21.3999 98.795 23.1952 100.59 25.4099 100.59Z" fill="#DDDBDB"/>
<path d="M39.6699 100.59C41.8846 100.59 43.6799 98.795 43.6799 96.5803C43.6799 94.3657 41.8846 92.5703 39.6699 92.5703C37.4552 92.5703 35.6599 94.3657 35.6599 96.5803C35.6599 98.795 37.4552 100.59 39.6699 100.59Z" fill="#DDDBDB"/>
<path d="M53.9299 100.59C56.1446 100.59 57.9399 98.795 57.9399 96.5803C57.9399 94.3657 56.1446 92.5703 53.9299 92.5703C51.7153 92.5703 49.9199 94.3657 49.9199 96.5803C49.9199 98.795 51.7153 100.59 53.9299 100.59Z" fill="#DDDBDB"/>
<path d="M68.1899 100.59C70.4046 100.59 72.1999 98.795 72.1999 96.5803C72.1999 94.3657 70.4046 92.5703 68.1899 92.5703C65.9753 92.5703 64.1799 94.3657 64.1799 96.5803C64.1799 98.795 65.9753 100.59 68.1899 100.59Z" fill="#DDDBDB"/>
<path d="M82.4499 100.59C84.6646 100.59 86.4599 98.795 86.4599 96.5803C86.4599 94.3657 84.6646 92.5703 82.4499 92.5703C80.2353 92.5703 78.4399 94.3657 78.4399 96.5803C78.4399 98.795 80.2353 100.59 82.4499 100.59Z" fill="#DDDBDB"/>
<path d="M96.72 100.59C98.9346 100.59 100.73 98.795 100.73 96.5803C100.73 94.3657 98.9346 92.5703 96.72 92.5703C94.5053 92.5703 92.71 94.3657 92.71 96.5803C92.71 98.795 94.5053 100.59 96.72 100.59Z" fill="#DDDBDB"/>
<path d="M110.98 100.59C113.195 100.59 114.99 98.795 114.99 96.5803C114.99 94.3657 113.195 92.5703 110.98 92.5703C108.765 92.5703 106.97 94.3657 106.97 96.5803C106.97 98.795 108.765 100.59 110.98 100.59Z" fill="#DDDBDB"/>
<path d="M125.24 100.59C127.455 100.59 129.25 98.795 129.25 96.5803C129.25 94.3657 127.455 92.5703 125.24 92.5703C123.025 92.5703 121.23 94.3657 121.23 96.5803C121.23 98.795 123.025 100.59 125.24 100.59Z" fill="#DDDBDB"/>
<path d="M4.01 109.651C6.22466 109.651 8.02 107.856 8.02 105.641C8.02 103.426 6.22466 101.631 4.01 101.631C1.79534 101.631 0 103.426 0 105.641C0 107.856 1.79534 109.651 4.01 109.651Z" fill="#DDDBDB"/>
<path d="M18.28 109.651C20.4947 109.651 22.29 107.856 22.29 105.641C22.29 103.426 20.4947 101.631 18.28 101.631C16.0654 101.631 14.27 103.426 14.27 105.641C14.27 107.856 16.0654 109.651 18.28 109.651Z" fill="#DDDBDB"/>
<path d="M32.54 109.651C34.7547 109.651 36.55 107.856 36.55 105.641C36.55 103.426 34.7547 101.631 32.54 101.631C30.3254 101.631 28.53 103.426 28.53 105.641C28.53 107.856 30.3254 109.651 32.54 109.651Z" fill="#DDDBDB"/>
<path d="M46.8 109.651C49.0147 109.651 50.81 107.856 50.81 105.641C50.81 103.426 49.0147 101.631 46.8 101.631C44.5854 101.631 42.79 103.426 42.79 105.641C42.79 107.856 44.5854 109.651 46.8 109.651Z" fill="#DDDBDB"/>
<path d="M61.0601 109.651C63.2747 109.651 65.07 107.856 65.07 105.641C65.07 103.426 63.2747 101.631 61.0601 101.631C58.8454 101.631 57.05 103.426 57.05 105.641C57.05 107.856 58.8454 109.651 61.0601 109.651Z" fill="#DDDBDB"/>
<path d="M75.3201 109.651C77.5347 109.651 79.3301 107.856 79.3301 105.641C79.3301 103.426 77.5347 101.631 75.3201 101.631C73.1054 101.631 71.3101 103.426 71.3101 105.641C71.3101 107.856 73.1054 109.651 75.3201 109.651Z" fill="#DDDBDB"/>
<path d="M89.5801 109.651C91.7947 109.651 93.5901 107.856 93.5901 105.641C93.5901 103.426 91.7947 101.631 89.5801 101.631C87.3654 101.631 85.5701 103.426 85.5701 105.641C85.5701 107.856 87.3654 109.651 89.5801 109.651Z" fill="#DDDBDB"/>
<path d="M103.85 109.651C106.065 109.651 107.86 107.856 107.86 105.641C107.86 103.426 106.065 101.631 103.85 101.631C101.635 101.631 99.8401 103.426 99.8401 105.641C99.8401 107.856 101.635 109.651 103.85 109.651Z" fill="#DDDBDB"/>
<path d="M118.11 109.651C120.325 109.651 122.12 107.856 122.12 105.641C122.12 103.426 120.325 101.631 118.11 101.631C115.895 101.631 114.1 103.426 114.1 105.641C114.1 107.856 115.895 109.651 118.11 109.651Z" fill="#DDDBDB"/>
<path d="M132.37 109.651C134.585 109.651 136.38 107.856 136.38 105.641C136.38 103.426 134.585 101.631 132.37 101.631C130.155 101.631 128.36 103.426 128.36 105.641C128.36 107.856 130.155 109.651 132.37 109.651Z" fill="#DDDBDB"/>
<path d="M11.1399 119.11C13.3545 119.11 15.1499 117.315 15.1499 115.1C15.1499 112.885 13.3545 111.09 11.1399 111.09C8.92522 111.09 7.12988 112.885 7.12988 115.1C7.12988 117.315 8.92522 119.11 11.1399 119.11Z" fill="#DDDBDB"/>
<path d="M25.4099 119.11C27.6246 119.11 29.4199 117.315 29.4199 115.1C29.4199 112.885 27.6246 111.09 25.4099 111.09C23.1952 111.09 21.3999 112.885 21.3999 115.1C21.3999 117.315 23.1952 119.11 25.4099 119.11Z" fill="#DDDBDB"/>
<path d="M39.6699 119.11C41.8846 119.11 43.6799 117.315 43.6799 115.1C43.6799 112.885 41.8846 111.09 39.6699 111.09C37.4552 111.09 35.6599 112.885 35.6599 115.1C35.6599 117.315 37.4552 119.11 39.6699 119.11Z" fill="#DDDBDB"/>
<path d="M53.9299 119.11C56.1446 119.11 57.9399 117.315 57.9399 115.1C57.9399 112.885 56.1446 111.09 53.9299 111.09C51.7153 111.09 49.9199 112.885 49.9199 115.1C49.9199 117.315 51.7153 119.11 53.9299 119.11Z" fill="#DDDBDB"/>
<path d="M68.1899 119.11C70.4046 119.11 72.1999 117.315 72.1999 115.1C72.1999 112.885 70.4046 111.09 68.1899 111.09C65.9753 111.09 64.1799 112.885 64.1799 115.1C64.1799 117.315 65.9753 119.11 68.1899 119.11Z" fill="#DDDBDB"/>
<path d="M82.4499 119.11C84.6646 119.11 86.4599 117.315 86.4599 115.1C86.4599 112.885 84.6646 111.09 82.4499 111.09C80.2353 111.09 78.4399 112.885 78.4399 115.1C78.4399 117.315 80.2353 119.11 82.4499 119.11Z" fill="#DDDBDB"/>
<path d="M96.72 119.11C98.9346 119.11 100.73 117.315 100.73 115.1C100.73 112.885 98.9346 111.09 96.72 111.09C94.5053 111.09 92.71 112.885 92.71 115.1C92.71 117.315 94.5053 119.11 96.72 119.11Z" fill="#DDDBDB"/>
<path d="M110.98 119.11C113.195 119.11 114.99 117.315 114.99 115.1C114.99 112.885 113.195 111.09 110.98 111.09C108.765 111.09 106.97 112.885 106.97 115.1C106.97 117.315 108.765 119.11 110.98 119.11Z" fill="#DDDBDB"/>
<path d="M125.24 119.11C127.455 119.11 129.25 117.315 129.25 115.1C129.25 112.885 127.455 111.09 125.24 111.09C123.025 111.09 121.23 112.885 121.23 115.1C121.23 117.315 123.025 119.11 125.24 119.11Z" fill="#DDDBDB"/>
<path d="M4.01 128.17C6.22466 128.17 8.02 126.375 8.02 124.16C8.02 121.946 6.22466 120.15 4.01 120.15C1.79534 120.15 0 121.946 0 124.16C0 126.375 1.79534 128.17 4.01 128.17Z" fill="#DDDBDB"/>
<path d="M18.28 128.17C20.4947 128.17 22.29 126.375 22.29 124.16C22.29 121.946 20.4947 120.15 18.28 120.15C16.0654 120.15 14.27 121.946 14.27 124.16C14.27 126.375 16.0654 128.17 18.28 128.17Z" fill="#DDDBDB"/>
<path d="M32.54 128.17C34.7547 128.17 36.55 126.375 36.55 124.16C36.55 121.946 34.7547 120.15 32.54 120.15C30.3254 120.15 28.53 121.946 28.53 124.16C28.53 126.375 30.3254 128.17 32.54 128.17Z" fill="#DDDBDB"/>
<path d="M46.8 128.17C49.0147 128.17 50.81 126.375 50.81 124.16C50.81 121.946 49.0147 120.15 46.8 120.15C44.5854 120.15 42.79 121.946 42.79 124.16C42.79 126.375 44.5854 128.17 46.8 128.17Z" fill="#DDDBDB"/>
<path d="M61.0601 128.17C63.2747 128.17 65.07 126.375 65.07 124.16C65.07 121.946 63.2747 120.15 61.0601 120.15C58.8454 120.15 57.05 121.946 57.05 124.16C57.05 126.375 58.8454 128.17 61.0601 128.17Z" fill="#DDDBDB"/>
<path d="M75.3201 128.17C77.5347 128.17 79.3301 126.375 79.3301 124.16C79.3301 121.946 77.5347 120.15 75.3201 120.15C73.1054 120.15 71.3101 121.946 71.3101 124.16C71.3101 126.375 73.1054 128.17 75.3201 128.17Z" fill="#DDDBDB"/>
<path d="M89.5801 128.17C91.7947 128.17 93.5901 126.375 93.5901 124.16C93.5901 121.946 91.7947 120.15 89.5801 120.15C87.3654 120.15 85.5701 121.946 85.5701 124.16C85.5701 126.375 87.3654 128.17 89.5801 128.17Z" fill="#DDDBDB"/>
<path d="M103.85 128.17C106.065 128.17 107.86 126.375 107.86 124.16C107.86 121.946 106.065 120.15 103.85 120.15C101.635 120.15 99.8401 121.946 99.8401 124.16C99.8401 126.375 101.635 128.17 103.85 128.17Z" fill="#DDDBDB"/>
<path d="M118.11 128.17C120.325 128.17 122.12 126.375 122.12 124.16C122.12 121.946 120.325 120.15 118.11 120.15C115.895 120.15 114.1 121.946 114.1 124.16C114.1 126.375 115.895 128.17 118.11 128.17Z" fill="#DDDBDB"/>
<path d="M132.37 128.17C134.585 128.17 136.38 126.375 136.38 124.16C136.38 121.946 134.585 120.15 132.37 120.15C130.155 120.15 128.36 121.946 128.36 124.16C128.36 126.375 130.155 128.17 132.37 128.17Z" fill="#DDDBDB"/>
<path d="M11.1399 137.62C13.3545 137.62 15.1499 135.824 15.1499 133.61C15.1499 131.395 13.3545 129.6 11.1399 129.6C8.92522 129.6 7.12988 131.395 7.12988 133.61C7.12988 135.824 8.92522 137.62 11.1399 137.62Z" fill="#DDDBDB"/>
<path d="M25.4099 137.62C27.6246 137.62 29.4199 135.824 29.4199 133.61C29.4199 131.395 27.6246 129.6 25.4099 129.6C23.1952 129.6 21.3999 131.395 21.3999 133.61C21.3999 135.824 23.1952 137.62 25.4099 137.62Z" fill="#DDDBDB"/>
<path d="M39.6699 137.62C41.8846 137.62 43.6799 135.824 43.6799 133.61C43.6799 131.395 41.8846 129.6 39.6699 129.6C37.4552 129.6 35.6599 131.395 35.6599 133.61C35.6599 135.824 37.4552 137.62 39.6699 137.62Z" fill="#DDDBDB"/>
<path d="M53.9299 137.62C56.1446 137.62 57.9399 135.824 57.9399 133.61C57.9399 131.395 56.1446 129.6 53.9299 129.6C51.7153 129.6 49.9199 131.395 49.9199 133.61C49.9199 135.824 51.7153 137.62 53.9299 137.62Z" fill="#DDDBDB"/>
<path d="M68.1899 137.62C70.4046 137.62 72.1999 135.824 72.1999 133.61C72.1999 131.395 70.4046 129.6 68.1899 129.6C65.9753 129.6 64.1799 131.395 64.1799 133.61C64.1799 135.824 65.9753 137.62 68.1899 137.62Z" fill="#DDDBDB"/>
<path d="M82.4499 137.62C84.6646 137.62 86.4599 135.824 86.4599 133.61C86.4599 131.395 84.6646 129.6 82.4499 129.6C80.2353 129.6 78.4399 131.395 78.4399 133.61C78.4399 135.824 80.2353 137.62 82.4499 137.62Z" fill="#DDDBDB"/>
<path d="M96.72 137.62C98.9346 137.62 100.73 135.824 100.73 133.61C100.73 131.395 98.9346 129.6 96.72 129.6C94.5053 129.6 92.71 131.395 92.71 133.61C92.71 135.824 94.5053 137.62 96.72 137.62Z" fill="#DDDBDB"/>
<path d="M110.98 137.62C113.195 137.62 114.99 135.824 114.99 133.61C114.99 131.395 113.195 129.6 110.98 129.6C108.765 129.6 106.97 131.395 106.97 133.61C106.97 135.824 108.765 137.62 110.98 137.62Z" fill="#DDDBDB"/>
<path d="M125.24 137.62C127.455 137.62 129.25 135.824 129.25 133.61C129.25 131.395 127.455 129.6 125.24 129.6C123.025 129.6 121.23 131.395 121.23 133.61C121.23 135.824 123.025 137.62 125.24 137.62Z" fill="#DDDBDB"/>
<path d="M4.01 146.68C6.22466 146.68 8.02 144.885 8.02 142.67C8.02 140.455 6.22466 138.66 4.01 138.66C1.79534 138.66 0 140.455 0 142.67C0 144.885 1.79534 146.68 4.01 146.68Z" fill="#DDDBDB"/>
<path d="M18.28 146.68C20.4947 146.68 22.29 144.885 22.29 142.67C22.29 140.455 20.4947 138.66 18.28 138.66C16.0654 138.66 14.27 140.455 14.27 142.67C14.27 144.885 16.0654 146.68 18.28 146.68Z" fill="#DDDBDB"/>
<path d="M32.54 146.68C34.7547 146.68 36.55 144.885 36.55 142.67C36.55 140.455 34.7547 138.66 32.54 138.66C30.3254 138.66 28.53 140.455 28.53 142.67C28.53 144.885 30.3254 146.68 32.54 146.68Z" fill="#DDDBDB"/>
<path d="M46.8 146.68C49.0147 146.68 50.81 144.885 50.81 142.67C50.81 140.455 49.0147 138.66 46.8 138.66C44.5854 138.66 42.79 140.455 42.79 142.67C42.79 144.885 44.5854 146.68 46.8 146.68Z" fill="#DDDBDB"/>
<path d="M61.0601 146.68C63.2747 146.68 65.07 144.885 65.07 142.67C65.07 140.455 63.2747 138.66 61.0601 138.66C58.8454 138.66 57.05 140.455 57.05 142.67C57.05 144.885 58.8454 146.68 61.0601 146.68Z" fill="#DDDBDB"/>
<path d="M75.3201 146.68C77.5347 146.68 79.3301 144.885 79.3301 142.67C79.3301 140.455 77.5347 138.66 75.3201 138.66C73.1054 138.66 71.3101 140.455 71.3101 142.67C71.3101 144.885 73.1054 146.68 75.3201 146.68Z" fill="#DDDBDB"/>
<path d="M89.5801 146.68C91.7947 146.68 93.5901 144.885 93.5901 142.67C93.5901 140.455 91.7947 138.66 89.5801 138.66C87.3654 138.66 85.5701 140.455 85.5701 142.67C85.5701 144.885 87.3654 146.68 89.5801 146.68Z" fill="#DDDBDB"/>
<path d="M103.85 146.68C106.065 146.68 107.86 144.885 107.86 142.67C107.86 140.455 106.065 138.66 103.85 138.66C101.635 138.66 99.8401 140.455 99.8401 142.67C99.8401 144.885 101.635 146.68 103.85 146.68Z" fill="#DDDBDB"/>
<path d="M118.11 146.68C120.325 146.68 122.12 144.885 122.12 142.67C122.12 140.455 120.325 138.66 118.11 138.66C115.895 138.66 114.1 140.455 114.1 142.67C114.1 144.885 115.895 146.68 118.11 146.68Z" fill="#DDDBDB"/>
<path d="M132.37 146.68C134.585 146.68 136.38 144.885 136.38 142.67C136.38 140.455 134.585 138.66 132.37 138.66C130.155 138.66 128.36 140.455 128.36 142.67C128.36 144.885 130.155 146.68 132.37 146.68Z" fill="#DDDBDB"/>
<path d="M11.1399 156.139C13.3545 156.139 15.1499 154.344 15.1499 152.129C15.1499 149.914 13.3545 148.119 11.1399 148.119C8.92522 148.119 7.12988 149.914 7.12988 152.129C7.12988 154.344 8.92522 156.139 11.1399 156.139Z" fill="#DDDBDB"/>
<path d="M25.4099 156.139C27.6246 156.139 29.4199 154.344 29.4199 152.129C29.4199 149.914 27.6246 148.119 25.4099 148.119C23.1952 148.119 21.3999 149.914 21.3999 152.129C21.3999 154.344 23.1952 156.139 25.4099 156.139Z" fill="#DDDBDB"/>
<path d="M39.6699 156.139C41.8846 156.139 43.6799 154.344 43.6799 152.129C43.6799 149.914 41.8846 148.119 39.6699 148.119C37.4552 148.119 35.6599 149.914 35.6599 152.129C35.6599 154.344 37.4552 156.139 39.6699 156.139Z" fill="#DDDBDB"/>
<path d="M53.9299 156.139C56.1446 156.139 57.9399 154.344 57.9399 152.129C57.9399 149.914 56.1446 148.119 53.9299 148.119C51.7153 148.119 49.9199 149.914 49.9199 152.129C49.9199 154.344 51.7153 156.139 53.9299 156.139Z" fill="#DDDBDB"/>
<path d="M68.1899 156.139C70.4046 156.139 72.1999 154.344 72.1999 152.129C72.1999 149.914 70.4046 148.119 68.1899 148.119C65.9753 148.119 64.1799 149.914 64.1799 152.129C64.1799 154.344 65.9753 156.139 68.1899 156.139Z" fill="#DDDBDB"/>
<path d="M82.4499 156.139C84.6646 156.139 86.4599 154.344 86.4599 152.129C86.4599 149.914 84.6646 148.119 82.4499 148.119C80.2353 148.119 78.4399 149.914 78.4399 152.129C78.4399 154.344 80.2353 156.139 82.4499 156.139Z" fill="#DDDBDB"/>
<path d="M96.72 156.139C98.9346 156.139 100.73 154.344 100.73 152.129C100.73 149.914 98.9346 148.119 96.72 148.119C94.5053 148.119 92.71 149.914 92.71 152.129C92.71 154.344 94.5053 156.139 96.72 156.139Z" fill="#DDDBDB"/>
<path d="M110.98 156.139C113.195 156.139 114.99 154.344 114.99 152.129C114.99 149.914 113.195 148.119 110.98 148.119C108.765 148.119 106.97 149.914 106.97 152.129C106.97 154.344 108.765 156.139 110.98 156.139Z" fill="#DDDBDB"/>
<path d="M125.24 156.139C127.455 156.139 129.25 154.344 129.25 152.129C129.25 149.914 127.455 148.119 125.24 148.119C123.025 148.119 121.23 149.914 121.23 152.129C121.23 154.344 123.025 156.139 125.24 156.139Z" fill="#DDDBDB"/>
<path d="M4.01 165.19C6.22466 165.19 8.02 163.395 8.02 161.18C8.02 158.965 6.22466 157.17 4.01 157.17C1.79534 157.17 0 158.965 0 161.18C0 163.395 1.79534 165.19 4.01 165.19Z" fill="#DDDBDB"/>
<path d="M18.28 165.19C20.4947 165.19 22.29 163.395 22.29 161.18C22.29 158.965 20.4947 157.17 18.28 157.17C16.0654 157.17 14.27 158.965 14.27 161.18C14.27 163.395 16.0654 165.19 18.28 165.19Z" fill="#DDDBDB"/>
<path d="M32.54 165.19C34.7547 165.19 36.55 163.395 36.55 161.18C36.55 158.965 34.7547 157.17 32.54 157.17C30.3254 157.17 28.53 158.965 28.53 161.18C28.53 163.395 30.3254 165.19 32.54 165.19Z" fill="#DDDBDB"/>
<path d="M46.8 165.19C49.0147 165.19 50.81 163.395 50.81 161.18C50.81 158.965 49.0147 157.17 46.8 157.17C44.5854 157.17 42.79 158.965 42.79 161.18C42.79 163.395 44.5854 165.19 46.8 165.19Z" fill="#DDDBDB"/>
<path d="M61.0601 165.19C63.2747 165.19 65.07 163.395 65.07 161.18C65.07 158.965 63.2747 157.17 61.0601 157.17C58.8454 157.17 57.05 158.965 57.05 161.18C57.05 163.395 58.8454 165.19 61.0601 165.19Z" fill="#DDDBDB"/>
<path d="M75.3201 165.19C77.5347 165.19 79.3301 163.395 79.3301 161.18C79.3301 158.965 77.5347 157.17 75.3201 157.17C73.1054 157.17 71.3101 158.965 71.3101 161.18C71.3101 163.395 73.1054 165.19 75.3201 165.19Z" fill="#DDDBDB"/>
<path d="M89.5801 165.19C91.7947 165.19 93.5901 163.395 93.5901 161.18C93.5901 158.965 91.7947 157.17 89.5801 157.17C87.3654 157.17 85.5701 158.965 85.5701 161.18C85.5701 163.395 87.3654 165.19 89.5801 165.19Z" fill="#DDDBDB"/>
<path d="M103.85 165.19C106.065 165.19 107.86 163.395 107.86 161.18C107.86 158.965 106.065 157.17 103.85 157.17C101.635 157.17 99.8401 158.965 99.8401 161.18C99.8401 163.395 101.635 165.19 103.85 165.19Z" fill="#DDDBDB"/>
<path d="M118.11 165.19C120.325 165.19 122.12 163.395 122.12 161.18C122.12 158.965 120.325 157.17 118.11 157.17C115.895 157.17 114.1 158.965 114.1 161.18C114.1 163.395 115.895 165.19 118.11 165.19Z" fill="#DDDBDB"/>
<path d="M132.37 165.19C134.585 165.19 136.38 163.395 136.38 161.18C136.38 158.965 134.585 157.17 132.37 157.17C130.155 157.17 128.36 158.965 128.36 161.18C128.36 163.395 130.155 165.19 132.37 165.19Z" fill="#DDDBDB"/>
<path d="M11.1399 174.651C13.3545 174.651 15.1499 172.856 15.1499 170.641C15.1499 168.426 13.3545 166.631 11.1399 166.631C8.92522 166.631 7.12988 168.426 7.12988 170.641C7.12988 172.856 8.92522 174.651 11.1399 174.651Z" fill="#DDDBDB"/>
<path d="M25.4099 174.651C27.6246 174.651 29.4199 172.856 29.4199 170.641C29.4199 168.426 27.6246 166.631 25.4099 166.631C23.1952 166.631 21.3999 168.426 21.3999 170.641C21.3999 172.856 23.1952 174.651 25.4099 174.651Z" fill="#DDDBDB"/>
<path d="M39.6699 174.651C41.8846 174.651 43.6799 172.856 43.6799 170.641C43.6799 168.426 41.8846 166.631 39.6699 166.631C37.4552 166.631 35.6599 168.426 35.6599 170.641C35.6599 172.856 37.4552 174.651 39.6699 174.651Z" fill="#DDDBDB"/>
<path d="M53.9299 174.651C56.1446 174.651 57.9399 172.856 57.9399 170.641C57.9399 168.426 56.1446 166.631 53.9299 166.631C51.7153 166.631 49.9199 168.426 49.9199 170.641C49.9199 172.856 51.7153 174.651 53.9299 174.651Z" fill="#DDDBDB"/>
<path d="M68.1899 174.651C70.4046 174.651 72.1999 172.856 72.1999 170.641C72.1999 168.426 70.4046 166.631 68.1899 166.631C65.9753 166.631 64.1799 168.426 64.1799 170.641C64.1799 172.856 65.9753 174.651 68.1899 174.651Z" fill="#DDDBDB"/>
<path d="M82.4499 174.651C84.6646 174.651 86.4599 172.856 86.4599 170.641C86.4599 168.426 84.6646 166.631 82.4499 166.631C80.2353 166.631 78.4399 168.426 78.4399 170.641C78.4399 172.856 80.2353 174.651 82.4499 174.651Z" fill="#DDDBDB"/>
<path d="M96.72 174.651C98.9346 174.651 100.73 172.856 100.73 170.641C100.73 168.426 98.9346 166.631 96.72 166.631C94.5053 166.631 92.71 168.426 92.71 170.641C92.71 172.856 94.5053 174.651 96.72 174.651Z" fill="#DDDBDB"/>
<path d="M110.98 174.651C113.195 174.651 114.99 172.856 114.99 170.641C114.99 168.426 113.195 166.631 110.98 166.631C108.765 166.631 106.97 168.426 106.97 170.641C106.97 172.856 108.765 174.651 110.98 174.651Z" fill="#DDDBDB"/>
<path d="M125.24 174.651C127.455 174.651 129.25 172.856 129.25 170.641C129.25 168.426 127.455 166.631 125.24 166.631C123.025 166.631 121.23 168.426 121.23 170.641C121.23 172.856 123.025 174.651 125.24 174.651Z" fill="#DDDBDB"/>
<path d="M4.01 183.709C6.22466 183.709 8.02 181.914 8.02 179.699C8.02 177.485 6.22466 175.689 4.01 175.689C1.79534 175.689 0 177.485 0 179.699C0 181.914 1.79534 183.709 4.01 183.709Z" fill="#DDDBDB"/>
<path d="M18.28 183.709C20.4947 183.709 22.29 181.914 22.29 179.699C22.29 177.485 20.4947 175.689 18.28 175.689C16.0654 175.689 14.27 177.485 14.27 179.699C14.27 181.914 16.0654 183.709 18.28 183.709Z" fill="#DDDBDB"/>
<path d="M32.54 183.709C34.7547 183.709 36.55 181.914 36.55 179.699C36.55 177.485 34.7547 175.689 32.54 175.689C30.3254 175.689 28.53 177.485 28.53 179.699C28.53 181.914 30.3254 183.709 32.54 183.709Z" fill="#DDDBDB"/>
<path d="M46.8 183.709C49.0147 183.709 50.81 181.914 50.81 179.699C50.81 177.485 49.0147 175.689 46.8 175.689C44.5854 175.689 42.79 177.485 42.79 179.699C42.79 181.914 44.5854 183.709 46.8 183.709Z" fill="#DDDBDB"/>
<path d="M61.0601 183.709C63.2747 183.709 65.07 181.914 65.07 179.699C65.07 177.485 63.2747 175.689 61.0601 175.689C58.8454 175.689 57.05 177.485 57.05 179.699C57.05 181.914 58.8454 183.709 61.0601 183.709Z" fill="#DDDBDB"/>
<path d="M75.3201 183.709C77.5347 183.709 79.3301 181.914 79.3301 179.699C79.3301 177.485 77.5347 175.689 75.3201 175.689C73.1054 175.689 71.3101 177.485 71.3101 179.699C71.3101 181.914 73.1054 183.709 75.3201 183.709Z" fill="#DDDBDB"/>
<path d="M89.5801 183.709C91.7947 183.709 93.5901 181.914 93.5901 179.699C93.5901 177.485 91.7947 175.689 89.5801 175.689C87.3654 175.689 85.5701 177.485 85.5701 179.699C85.5701 181.914 87.3654 183.709 89.5801 183.709Z" fill="#DDDBDB"/>
<path d="M103.85 183.709C106.065 183.709 107.86 181.914 107.86 179.699C107.86 177.485 106.065 175.689 103.85 175.689C101.635 175.689 99.8401 177.485 99.8401 179.699C99.8401 181.914 101.635 183.709 103.85 183.709Z" fill="#DDDBDB"/>
<path d="M118.11 183.709C120.325 183.709 122.12 181.914 122.12 179.699C122.12 177.485 120.325 175.689 118.11 175.689C115.895 175.689 114.1 177.485 114.1 179.699C114.1 181.914 115.895 183.709 118.11 183.709Z" fill="#DDDBDB"/>
<path d="M132.37 183.709C134.585 183.709 136.38 181.914 136.38 179.699C136.38 177.485 134.585 175.689 132.37 175.689C130.155 175.689 128.36 177.485 128.36 179.699C128.36 181.914 130.155 183.709 132.37 183.709Z" fill="#DDDBDB"/>
<path d="M11.1399 192.77C13.3545 192.77 15.1499 190.975 15.1499 188.76C15.1499 186.545 13.3545 184.75 11.1399 184.75C8.92522 184.75 7.12988 186.545 7.12988 188.76C7.12988 190.975 8.92522 192.77 11.1399 192.77Z" fill="#DDDBDB"/>
<path d="M25.4099 192.77C27.6246 192.77 29.4199 190.975 29.4199 188.76C29.4199 186.545 27.6246 184.75 25.4099 184.75C23.1952 184.75 21.3999 186.545 21.3999 188.76C21.3999 190.975 23.1952 192.77 25.4099 192.77Z" fill="#DDDBDB"/>
<path d="M39.6699 192.77C41.8846 192.77 43.6799 190.975 43.6799 188.76C43.6799 186.545 41.8846 184.75 39.6699 184.75C37.4552 184.75 35.6599 186.545 35.6599 188.76C35.6599 190.975 37.4552 192.77 39.6699 192.77Z" fill="#DDDBDB"/>
<path d="M53.9299 192.77C56.1446 192.77 57.9399 190.975 57.9399 188.76C57.9399 186.545 56.1446 184.75 53.9299 184.75C51.7153 184.75 49.9199 186.545 49.9199 188.76C49.9199 190.975 51.7153 192.77 53.9299 192.77Z" fill="#DDDBDB"/>
<path d="M68.1899 192.77C70.4046 192.77 72.1999 190.975 72.1999 188.76C72.1999 186.545 70.4046 184.75 68.1899 184.75C65.9753 184.75 64.1799 186.545 64.1799 188.76C64.1799 190.975 65.9753 192.77 68.1899 192.77Z" fill="#DDDBDB"/>
<path d="M82.4499 192.77C84.6646 192.77 86.4599 190.975 86.4599 188.76C86.4599 186.545 84.6646 184.75 82.4499 184.75C80.2353 184.75 78.4399 186.545 78.4399 188.76C78.4399 190.975 80.2353 192.77 82.4499 192.77Z" fill="#DDDBDB"/>
<path d="M96.72 192.77C98.9346 192.77 100.73 190.975 100.73 188.76C100.73 186.545 98.9346 184.75 96.72 184.75C94.5053 184.75 92.71 186.545 92.71 188.76C92.71 190.975 94.5053 192.77 96.72 192.77Z" fill="#DDDBDB"/>
<path d="M110.98 192.77C113.195 192.77 114.99 190.975 114.99 188.76C114.99 186.545 113.195 184.75 110.98 184.75C108.765 184.75 106.97 186.545 106.97 188.76C106.97 190.975 108.765 192.77 110.98 192.77Z" fill="#DDDBDB"/>
<path d="M125.24 192.77C127.455 192.77 129.25 190.975 129.25 188.76C129.25 186.545 127.455 184.75 125.24 184.75C123.025 184.75 121.23 186.545 121.23 188.76C121.23 190.975 123.025 192.77 125.24 192.77Z" fill="#DDDBDB"/>
<path d="M4.01 201.821C6.22466 201.821 8.02 200.025 8.02 197.811C8.02 195.596 6.22466 193.801 4.01 193.801C1.79534 193.801 0 195.596 0 197.811C0 200.025 1.79534 201.821 4.01 201.821Z" fill="#DDDBDB"/>
<path d="M18.28 201.821C20.4947 201.821 22.29 200.025 22.29 197.811C22.29 195.596 20.4947 193.801 18.28 193.801C16.0654 193.801 14.27 195.596 14.27 197.811C14.27 200.025 16.0654 201.821 18.28 201.821Z" fill="#DDDBDB"/>
<path d="M32.54 201.821C34.7547 201.821 36.55 200.025 36.55 197.811C36.55 195.596 34.7547 193.801 32.54 193.801C30.3254 193.801 28.53 195.596 28.53 197.811C28.53 200.025 30.3254 201.821 32.54 201.821Z" fill="#DDDBDB"/>
<path d="M46.8 201.821C49.0147 201.821 50.81 200.025 50.81 197.811C50.81 195.596 49.0147 193.801 46.8 193.801C44.5854 193.801 42.79 195.596 42.79 197.811C42.79 200.025 44.5854 201.821 46.8 201.821Z" fill="#DDDBDB"/>
<path d="M61.0601 201.821C63.2747 201.821 65.07 200.025 65.07 197.811C65.07 195.596 63.2747 193.801 61.0601 193.801C58.8454 193.801 57.05 195.596 57.05 197.811C57.05 200.025 58.8454 201.821 61.0601 201.821Z" fill="#DDDBDB"/>
<path d="M158.22 8.02C160.435 8.02 162.23 6.22466 162.23 4.01C162.23 1.79534 160.435 0 158.22 0C156.005 0 154.21 1.79534 154.21 4.01C154.21 6.22466 156.005 8.02 158.22 8.02Z" fill="#DDDBDB"/>
<path d="M172.48 8.02C174.695 8.02 176.49 6.22466 176.49 4.01C176.49 1.79534 174.695 0 172.48 0C170.265 0 168.47 1.79534 168.47 4.01C168.47 6.22466 170.265 8.02 172.48 8.02Z" fill="#DDDBDB"/>
<path d="M186.74 8.02C188.955 8.02 190.75 6.22466 190.75 4.01C190.75 1.79534 188.955 0 186.74 0C184.525 0 182.73 1.79534 182.73 4.01C182.73 6.22466 184.525 8.02 186.74 8.02Z" fill="#DDDBDB"/>
<path d="M151.09 17.0805C153.305 17.0805 155.1 15.2852 155.1 13.0705C155.1 10.8559 153.305 9.06055 151.09 9.06055C148.875 9.06055 147.08 10.8559 147.08 13.0705C147.08 15.2852 148.875 17.0805 151.09 17.0805Z" fill="#DDDBDB"/>
<path d="M165.35 17.0805C167.565 17.0805 169.36 15.2852 169.36 13.0705C169.36 10.8559 167.565 9.06055 165.35 9.06055C163.135 9.06055 161.34 10.8559 161.34 13.0705C161.34 15.2852 163.135 17.0805 165.35 17.0805Z" fill="#DDDBDB"/>
<path d="M179.61 17.0805C181.825 17.0805 183.62 15.2852 183.62 13.0705C183.62 10.8559 181.825 9.06055 179.61 9.06055C177.395 9.06055 175.6 10.8559 175.6 13.0705C175.6 15.2852 177.395 17.0805 179.61 17.0805Z" fill="#DDDBDB"/>
<path d="M193.87 17.0805C196.085 17.0805 197.88 15.2852 197.88 13.0705C197.88 10.8559 196.085 9.06055 193.87 9.06055C191.655 9.06055 189.86 10.8559 189.86 13.0705C189.86 15.2852 191.655 17.0805 193.87 17.0805Z" fill="#DDDBDB"/>
<path d="M158.22 26.5395C160.435 26.5395 162.23 24.7442 162.23 22.5295C162.23 20.3149 160.435 18.5195 158.22 18.5195C156.005 18.5195 154.21 20.3149 154.21 22.5295C154.21 24.7442 156.005 26.5395 158.22 26.5395Z" fill="#DDDBDB"/>
<path d="M172.48 26.5395C174.695 26.5395 176.49 24.7442 176.49 22.5295C176.49 20.3149 174.695 18.5195 172.48 18.5195C170.265 18.5195 168.47 20.3149 168.47 22.5295C168.47 24.7442 170.265 26.5395 172.48 26.5395Z" fill="#DDDBDB"/>
<path d="M186.74 26.5395C188.955 26.5395 190.75 24.7442 190.75 22.5295C190.75 20.3149 188.955 18.5195 186.74 18.5195C184.525 18.5195 182.73 20.3149 182.73 22.5295C182.73 24.7442 184.525 26.5395 186.74 26.5395Z" fill="#DDDBDB"/>
<path d="M151.09 35.6001C153.305 35.6001 155.1 33.8047 155.1 31.5901C155.1 29.3754 153.305 27.5801 151.09 27.5801C148.875 27.5801 147.08 29.3754 147.08 31.5901C147.08 33.8047 148.875 35.6001 151.09 35.6001Z" fill="#DDDBDB"/>
<path d="M165.35 35.6001C167.565 35.6001 169.36 33.8047 169.36 31.5901C169.36 29.3754 167.565 27.5801 165.35 27.5801C163.135 27.5801 161.34 29.3754 161.34 31.5901C161.34 33.8047 163.135 35.6001 165.35 35.6001Z" fill="#DDDBDB"/>
<path d="M179.61 35.6001C181.825 35.6001 183.62 33.8047 183.62 31.5901C183.62 29.3754 181.825 27.5801 179.61 27.5801C177.395 27.5801 175.6 29.3754 175.6 31.5901C175.6 33.8047 177.395 35.6001 179.61 35.6001Z" fill="#DDDBDB"/>
<path d="M193.87 35.6001C196.085 35.6001 197.88 33.8047 197.88 31.5901C197.88 29.3754 196.085 27.5801 193.87 27.5801C191.655 27.5801 189.86 29.3754 189.86 31.5901C189.86 33.8047 191.655 35.6001 193.87 35.6001Z" fill="#DDDBDB"/>
<path d="M158.22 45.0493C160.435 45.0493 162.23 43.254 162.23 41.0393C162.23 38.8246 160.435 37.0293 158.22 37.0293C156.005 37.0293 154.21 38.8246 154.21 41.0393C154.21 43.254 156.005 45.0493 158.22 45.0493Z" fill="#DDDBDB"/>
<path d="M172.48 45.0493C174.695 45.0493 176.49 43.254 176.49 41.0393C176.49 38.8246 174.695 37.0293 172.48 37.0293C170.265 37.0293 168.47 38.8246 168.47 41.0393C168.47 43.254 170.265 45.0493 172.48 45.0493Z" fill="#DDDBDB"/>
<path d="M186.74 45.0493C188.955 45.0493 190.75 43.254 190.75 41.0393C190.75 38.8246 188.955 37.0293 186.74 37.0293C184.525 37.0293 182.73 38.8246 182.73 41.0393C182.73 43.254 184.525 45.0493 186.74 45.0493Z" fill="#DDDBDB"/>
<path d="M151.09 54.1098C153.305 54.1098 155.1 52.3145 155.1 50.0998C155.1 47.8852 153.305 46.0898 151.09 46.0898C148.875 46.0898 147.08 47.8852 147.08 50.0998C147.08 52.3145 148.875 54.1098 151.09 54.1098Z" fill="#DDDBDB"/>
<path d="M165.35 54.1098C167.565 54.1098 169.36 52.3145 169.36 50.0998C169.36 47.8852 167.565 46.0898 165.35 46.0898C163.135 46.0898 161.34 47.8852 161.34 50.0998C161.34 52.3145 163.135 54.1098 165.35 54.1098Z" fill="#DDDBDB"/>
<path d="M179.61 54.1098C181.825 54.1098 183.62 52.3145 183.62 50.0998C183.62 47.8852 181.825 46.0898 179.61 46.0898C177.395 46.0898 175.6 47.8852 175.6 50.0998C175.6 52.3145 177.395 54.1098 179.61 54.1098Z" fill="#DDDBDB"/>
<path d="M193.87 54.1098C196.085 54.1098 197.88 52.3145 197.88 50.0998C197.88 47.8852 196.085 46.0898 193.87 46.0898C191.655 46.0898 189.86 47.8852 189.86 50.0998C189.86 52.3145 191.655 54.1098 193.87 54.1098Z" fill="#DDDBDB"/>
<path d="M158.22 63.5708C160.435 63.5708 162.23 61.7754 162.23 59.5608C162.23 57.3461 160.435 55.5508 158.22 55.5508C156.005 55.5508 154.21 57.3461 154.21 59.5608C154.21 61.7754 156.005 63.5708 158.22 63.5708Z" fill="#DDDBDB"/>
<path d="M172.48 63.5708C174.695 63.5708 176.49 61.7754 176.49 59.5608C176.49 57.3461 174.695 55.5508 172.48 55.5508C170.265 55.5508 168.47 57.3461 168.47 59.5608C168.47 61.7754 170.265 63.5708 172.48 63.5708Z" fill="#DDDBDB"/>
<path d="M186.74 63.5708C188.955 63.5708 190.75 61.7754 190.75 59.5608C190.75 57.3461 188.955 55.5508 186.74 55.5508C184.525 55.5508 182.73 57.3461 182.73 59.5608C182.73 61.7754 184.525 63.5708 186.74 63.5708Z" fill="#DDDBDB"/>
<path d="M151.09 72.6196C153.305 72.6196 155.1 70.8243 155.1 68.6096C155.1 66.3949 153.305 64.5996 151.09 64.5996C148.875 64.5996 147.08 66.3949 147.08 68.6096C147.08 70.8243 148.875 72.6196 151.09 72.6196Z" fill="#DDDBDB"/>
<path d="M165.35 72.6196C167.565 72.6196 169.36 70.8243 169.36 68.6096C169.36 66.3949 167.565 64.5996 165.35 64.5996C163.135 64.5996 161.34 66.3949 161.34 68.6096C161.34 70.8243 163.135 72.6196 165.35 72.6196Z" fill="#DDDBDB"/>
<path d="M179.61 72.6196C181.825 72.6196 183.62 70.8243 183.62 68.6096C183.62 66.3949 181.825 64.5996 179.61 64.5996C177.395 64.5996 175.6 66.3949 175.6 68.6096C175.6 70.8243 177.395 72.6196 179.61 72.6196Z" fill="#DDDBDB"/>
<path d="M193.87 72.6196C196.085 72.6196 197.88 70.8243 197.88 68.6096C197.88 66.3949 196.085 64.5996 193.87 64.5996C191.655 64.5996 189.86 66.3949 189.86 68.6096C189.86 70.8243 191.655 72.6196 193.87 72.6196Z" fill="#DDDBDB"/>
<path d="M158.22 82.0806C160.435 82.0806 162.23 80.2852 162.23 78.0705C162.23 75.8559 160.435 74.0605 158.22 74.0605C156.005 74.0605 154.21 75.8559 154.21 78.0705C154.21 80.2852 156.005 82.0806 158.22 82.0806Z" fill="#DDDBDB"/>
<path d="M172.48 82.0806C174.695 82.0806 176.49 80.2852 176.49 78.0705C176.49 75.8559 174.695 74.0605 172.48 74.0605C170.265 74.0605 168.47 75.8559 168.47 78.0705C168.47 80.2852 170.265 82.0806 172.48 82.0806Z" fill="#DDDBDB"/>
<path d="M186.74 82.0806C188.955 82.0806 190.75 80.2852 190.75 78.0705C190.75 75.8559 188.955 74.0605 186.74 74.0605C184.525 74.0605 182.73 75.8559 182.73 78.0705C182.73 80.2852 184.525 82.0806 186.74 82.0806Z" fill="#DDDBDB"/>
<path d="M151.09 91.1391C153.305 91.1391 155.1 89.3438 155.1 87.1291C155.1 84.9145 153.305 83.1191 151.09 83.1191C148.875 83.1191 147.08 84.9145 147.08 87.1291C147.08 89.3438 148.875 91.1391 151.09 91.1391Z" fill="#DDDBDB"/>
<path d="M165.35 91.1391C167.565 91.1391 169.36 89.3438 169.36 87.1291C169.36 84.9145 167.565 83.1191 165.35 83.1191C163.135 83.1191 161.34 84.9145 161.34 87.1291C161.34 89.3438 163.135 91.1391 165.35 91.1391Z" fill="#DDDBDB"/>
<path d="M179.61 91.1391C181.825 91.1391 183.62 89.3438 183.62 87.1291C183.62 84.9145 181.825 83.1191 179.61 83.1191C177.395 83.1191 175.6 84.9145 175.6 87.1291C175.6 89.3438 177.395 91.1391 179.61 91.1391Z" fill="#DDDBDB"/>
<path d="M193.87 91.1391C196.085 91.1391 197.88 89.3438 197.88 87.1291C197.88 84.9145 196.085 83.1191 193.87 83.1191C191.655 83.1191 189.86 84.9145 189.86 87.1291C189.86 89.3438 191.655 91.1391 193.87 91.1391Z" fill="#DDDBDB"/>
<path d="M158.22 100.59C160.435 100.59 162.23 98.795 162.23 96.5803C162.23 94.3657 160.435 92.5703 158.22 92.5703C156.005 92.5703 154.21 94.3657 154.21 96.5803C154.21 98.795 156.005 100.59 158.22 100.59Z" fill="#DDDBDB"/>
<path d="M172.48 100.59C174.695 100.59 176.49 98.795 176.49 96.5803C176.49 94.3657 174.695 92.5703 172.48 92.5703C170.265 92.5703 168.47 94.3657 168.47 96.5803C168.47 98.795 170.265 100.59 172.48 100.59Z" fill="#DDDBDB"/>
<path d="M186.74 100.59C188.955 100.59 190.75 98.795 190.75 96.5803C190.75 94.3657 188.955 92.5703 186.74 92.5703C184.525 92.5703 182.73 94.3657 182.73 96.5803C182.73 98.795 184.525 100.59 186.74 100.59Z" fill="#DDDBDB"/>
<path d="M151.09 109.651C153.305 109.651 155.1 107.856 155.1 105.641C155.1 103.426 153.305 101.631 151.09 101.631C148.875 101.631 147.08 103.426 147.08 105.641C147.08 107.856 148.875 109.651 151.09 109.651Z" fill="#DDDBDB"/>
<path d="M165.35 109.651C167.565 109.651 169.36 107.856 169.36 105.641C169.36 103.426 167.565 101.631 165.35 101.631C163.135 101.631 161.34 103.426 161.34 105.641C161.34 107.856 163.135 109.651 165.35 109.651Z" fill="#DDDBDB"/>
<path d="M179.61 109.651C181.825 109.651 183.62 107.856 183.62 105.641C183.62 103.426 181.825 101.631 179.61 101.631C177.395 101.631 175.6 103.426 175.6 105.641C175.6 107.856 177.395 109.651 179.61 109.651Z" fill="#DDDBDB"/>
<path d="M193.87 109.651C196.085 109.651 197.88 107.856 197.88 105.641C197.88 103.426 196.085 101.631 193.87 101.631C191.655 101.631 189.86 103.426 189.86 105.641C189.86 107.856 191.655 109.651 193.87 109.651Z" fill="#DDDBDB"/>
<path d="M158.22 119.11C160.435 119.11 162.23 117.315 162.23 115.1C162.23 112.885 160.435 111.09 158.22 111.09C156.005 111.09 154.21 112.885 154.21 115.1C154.21 117.315 156.005 119.11 158.22 119.11Z" fill="#DDDBDB"/>
<path d="M172.48 119.11C174.695 119.11 176.49 117.315 176.49 115.1C176.49 112.885 174.695 111.09 172.48 111.09C170.265 111.09 168.47 112.885 168.47 115.1C168.47 117.315 170.265 119.11 172.48 119.11Z" fill="#DDDBDB"/>
<path d="M186.74 119.11C188.955 119.11 190.75 117.315 190.75 115.1C190.75 112.885 188.955 111.09 186.74 111.09C184.525 111.09 182.73 112.885 182.73 115.1C182.73 117.315 184.525 119.11 186.74 119.11Z" fill="#DDDBDB"/>
<path d="M151.09 128.17C153.305 128.17 155.1 126.375 155.1 124.16C155.1 121.946 153.305 120.15 151.09 120.15C148.875 120.15 147.08 121.946 147.08 124.16C147.08 126.375 148.875 128.17 151.09 128.17Z" fill="#DDDBDB"/>
<path d="M165.35 128.17C167.565 128.17 169.36 126.375 169.36 124.16C169.36 121.946 167.565 120.15 165.35 120.15C163.135 120.15 161.34 121.946 161.34 124.16C161.34 126.375 163.135 128.17 165.35 128.17Z" fill="#DDDBDB"/>
<path d="M179.61 128.17C181.825 128.17 183.62 126.375 183.62 124.16C183.62 121.946 181.825 120.15 179.61 120.15C177.395 120.15 175.6 121.946 175.6 124.16C175.6 126.375 177.395 128.17 179.61 128.17Z" fill="#DDDBDB"/>
<path d="M193.87 128.17C196.085 128.17 197.88 126.375 197.88 124.16C197.88 121.946 196.085 120.15 193.87 120.15C191.655 120.15 189.86 121.946 189.86 124.16C189.86 126.375 191.655 128.17 193.87 128.17Z" fill="#DDDBDB"/>
<path d="M158.22 137.62C160.435 137.62 162.23 135.824 162.23 133.61C162.23 131.395 160.435 129.6 158.22 129.6C156.005 129.6 154.21 131.395 154.21 133.61C154.21 135.824 156.005 137.62 158.22 137.62Z" fill="#DDDBDB"/>
<path d="M172.48 137.62C174.695 137.62 176.49 135.824 176.49 133.61C176.49 131.395 174.695 129.6 172.48 129.6C170.265 129.6 168.47 131.395 168.47 133.61C168.47 135.824 170.265 137.62 172.48 137.62Z" fill="#DDDBDB"/>
<path d="M186.74 137.62C188.955 137.62 190.75 135.824 190.75 133.61C190.75 131.395 188.955 129.6 186.74 129.6C184.525 129.6 182.73 131.395 182.73 133.61C182.73 135.824 184.525 137.62 186.74 137.62Z" fill="#DDDBDB"/>
<path d="M151.09 146.68C153.305 146.68 155.1 144.885 155.1 142.67C155.1 140.455 153.305 138.66 151.09 138.66C148.875 138.66 147.08 140.455 147.08 142.67C147.08 144.885 148.875 146.68 151.09 146.68Z" fill="#DDDBDB"/>
<path d="M165.35 146.68C167.565 146.68 169.36 144.885 169.36 142.67C169.36 140.455 167.565 138.66 165.35 138.66C163.135 138.66 161.34 140.455 161.34 142.67C161.34 144.885 163.135 146.68 165.35 146.68Z" fill="#DDDBDB"/>
<path d="M179.61 146.68C181.825 146.68 183.62 144.885 183.62 142.67C183.62 140.455 181.825 138.66 179.61 138.66C177.395 138.66 175.6 140.455 175.6 142.67C175.6 144.885 177.395 146.68 179.61 146.68Z" fill="#DDDBDB"/>
<path d="M193.87 146.68C196.085 146.68 197.88 144.885 197.88 142.67C197.88 140.455 196.085 138.66 193.87 138.66C191.655 138.66 189.86 140.455 189.86 142.67C189.86 144.885 191.655 146.68 193.87 146.68Z" fill="#DDDBDB"/>
<path d="M158.22 156.139C160.435 156.139 162.23 154.344 162.23 152.129C162.23 149.914 160.435 148.119 158.22 148.119C156.005 148.119 154.21 149.914 154.21 152.129C154.21 154.344 156.005 156.139 158.22 156.139Z" fill="#DDDBDB"/>
<path d="M172.48 156.139C174.695 156.139 176.49 154.344 176.49 152.129C176.49 149.914 174.695 148.119 172.48 148.119C170.265 148.119 168.47 149.914 168.47 152.129C168.47 154.344 170.265 156.139 172.48 156.139Z" fill="#DDDBDB"/>
<path d="M186.74 156.139C188.955 156.139 190.75 154.344 190.75 152.129C190.75 149.914 188.955 148.119 186.74 148.119C184.525 148.119 182.73 149.914 182.73 152.129C182.73 154.344 184.525 156.139 186.74 156.139Z" fill="#DDDBDB"/>
<path d="M151.09 165.19C153.305 165.19 155.1 163.395 155.1 161.18C155.1 158.965 153.305 157.17 151.09 157.17C148.875 157.17 147.08 158.965 147.08 161.18C147.08 163.395 148.875 165.19 151.09 165.19Z" fill="#DDDBDB"/>
<path d="M165.35 165.19C167.565 165.19 169.36 163.395 169.36 161.18C169.36 158.965 167.565 157.17 165.35 157.17C163.135 157.17 161.34 158.965 161.34 161.18C161.34 163.395 163.135 165.19 165.35 165.19Z" fill="#DDDBDB"/>
<path d="M179.61 165.19C181.825 165.19 183.62 163.395 183.62 161.18C183.62 158.965 181.825 157.17 179.61 157.17C177.395 157.17 175.6 158.965 175.6 161.18C175.6 163.395 177.395 165.19 179.61 165.19Z" fill="#DDDBDB"/>
<path d="M193.87 165.19C196.085 165.19 197.88 163.395 197.88 161.18C197.88 158.965 196.085 157.17 193.87 157.17C191.655 157.17 189.86 158.965 189.86 161.18C189.86 163.395 191.655 165.19 193.87 165.19Z" fill="#DDDBDB"/>
<path d="M158.22 174.651C160.435 174.651 162.23 172.856 162.23 170.641C162.23 168.426 160.435 166.631 158.22 166.631C156.005 166.631 154.21 168.426 154.21 170.641C154.21 172.856 156.005 174.651 158.22 174.651Z" fill="#DDDBDB"/>
<path d="M172.48 174.651C174.695 174.651 176.49 172.856 176.49 170.641C176.49 168.426 174.695 166.631 172.48 166.631C170.265 166.631 168.47 168.426 168.47 170.641C168.47 172.856 170.265 174.651 172.48 174.651Z" fill="#DDDBDB"/>
<path d="M186.74 174.651C188.955 174.651 190.75 172.856 190.75 170.641C190.75 168.426 188.955 166.631 186.74 166.631C184.525 166.631 182.73 168.426 182.73 170.641C182.73 172.856 184.525 174.651 186.74 174.651Z" fill="#DDDBDB"/>
<path d="M151.09 183.709C153.305 183.709 155.1 181.914 155.1 179.699C155.1 177.485 153.305 175.689 151.09 175.689C148.875 175.689 147.08 177.485 147.08 179.699C147.08 181.914 148.875 183.709 151.09 183.709Z" fill="#DDDBDB"/>
<path d="M165.35 183.709C167.565 183.709 169.36 181.914 169.36 179.699C169.36 177.485 167.565 175.689 165.35 175.689C163.135 175.689 161.34 177.485 161.34 179.699C161.34 181.914 163.135 183.709 165.35 183.709Z" fill="#DDDBDB"/>
<path d="M179.61 183.709C181.825 183.709 183.62 181.914 183.62 179.699C183.62 177.485 181.825 175.689 179.61 175.689C177.395 175.689 175.6 177.485 175.6 179.699C175.6 181.914 177.395 183.709 179.61 183.709Z" fill="#DDDBDB"/>
<path d="M193.87 183.709C196.085 183.709 197.88 181.914 197.88 179.699C197.88 177.485 196.085 175.689 193.87 175.689C191.655 175.689 189.86 177.485 189.86 179.699C189.86 181.914 191.655 183.709 193.87 183.709Z" fill="#DDDBDB"/>
<path d="M158.22 192.77C160.435 192.77 162.23 190.975 162.23 188.76C162.23 186.545 160.435 184.75 158.22 184.75C156.005 184.75 154.21 186.545 154.21 188.76C154.21 190.975 156.005 192.77 158.22 192.77Z" fill="#DDDBDB"/>
<path d="M172.48 192.77C174.695 192.77 176.49 190.975 176.49 188.76C176.49 186.545 174.695 184.75 172.48 184.75C170.265 184.75 168.47 186.545 168.47 188.76C168.47 190.975 170.265 192.77 172.48 192.77Z" fill="#DDDBDB"/>
<path d="M186.74 192.77C188.955 192.77 190.75 190.975 190.75 188.76C190.75 186.545 188.955 184.75 186.74 184.75C184.525 184.75 182.73 186.545 182.73 188.76C182.73 190.975 184.525 192.77 186.74 192.77Z" fill="#DDDBDB"/>
<path d="M151.09 201.821C153.305 201.821 155.1 200.025 155.1 197.811C155.1 195.596 153.305 193.801 151.09 193.801C148.875 193.801 147.08 195.596 147.08 197.811C147.08 200.025 148.875 201.821 151.09 201.821Z" fill="#DDDBDB"/>
<path d="M165.35 201.821C167.565 201.821 169.36 200.025 169.36 197.811C169.36 195.596 167.565 193.801 165.35 193.801C163.135 193.801 161.34 195.596 161.34 197.811C161.34 200.025 163.135 201.821 165.35 201.821Z" fill="#DDDBDB"/>
<path d="M179.61 201.821C181.825 201.821 183.62 200.025 183.62 197.811C183.62 195.596 181.825 193.801 179.61 193.801C177.395 193.801 175.6 195.596 175.6 197.811C175.6 200.025 177.395 201.821 179.61 201.821Z" fill="#DDDBDB"/>
<path d="M193.87 201.821C196.085 201.821 197.88 200.025 197.88 197.811C197.88 195.596 196.085 193.801 193.87 193.801C191.655 193.801 189.86 195.596 189.86 197.811C189.86 200.025 191.655 201.821 193.87 201.821Z" fill="#DDDBDB"/>
<path d="M75.3201 201.821C77.5347 201.821 79.3301 200.025 79.3301 197.811C79.3301 195.596 77.5347 193.801 75.3201 193.801C73.1054 193.801 71.3101 195.596 71.3101 197.811C71.3101 200.025 73.1054 201.821 75.3201 201.821Z" fill="#DDDBDB"/>
<path d="M89.5801 201.821C91.7947 201.821 93.5901 200.025 93.5901 197.811C93.5901 195.596 91.7947 193.801 89.5801 193.801C87.3654 193.801 85.5701 195.596 85.5701 197.811C85.5701 200.025 87.3654 201.821 89.5801 201.821Z" fill="#DDDBDB"/>
<path d="M103.85 201.821C106.065 201.821 107.86 200.025 107.86 197.811C107.86 195.596 106.065 193.801 103.85 193.801C101.635 193.801 99.8401 195.596 99.8401 197.811C99.8401 200.025 101.635 201.821 103.85 201.821Z" fill="#DDDBDB"/>
<path d="M118.11 201.821C120.325 201.821 122.12 200.025 122.12 197.811C122.12 195.596 120.325 193.801 118.11 193.801C115.895 193.801 114.1 195.596 114.1 197.811C114.1 200.025 115.895 201.821 118.11 201.821Z" fill="#DDDBDB"/>
<path d="M132.37 201.821C134.585 201.821 136.38 200.025 136.38 197.811C136.38 195.596 134.585 193.801 132.37 193.801C130.155 193.801 128.36 195.596 128.36 197.811C128.36 200.025 130.155 201.821 132.37 201.821Z" fill="#DDDBDB"/>
<path d="M142.66 201.289C141.83 201.289 141.16 200.619 141.16 199.789V1.69922C141.16 0.869219 141.83 0.199219 142.66 0.199219C143.49 0.199219 144.16 0.869219 144.16 1.69922V199.789C144.16 200.619 143.49 201.289 142.66 201.289Z" fill="#DDDBDB"/>
<path d="M51.8599 59.3408C53.0499 60.3508 54.5099 60.8408 55.9699 60.8408C56.2599 60.8408 56.5399 60.8108 56.8299 60.7808L69.5699 71.5508L71.4999 69.2608L75.1399 72.3408C75.6599 72.7808 76.2999 73.0008 76.9399 73.0008C77.7299 73.0008 78.5199 72.6708 79.0699 72.0108L96.8699 50.9508C97.3499 50.3808 97.5799 49.6608 97.5199 48.9208C97.4599 48.1808 97.1099 47.5008 96.5399 47.0208L92.8999 43.9408L94.8299 41.6508L83.2299 31.8508C84.57 29.2708 84.0099 26.0008 81.6899 24.0408C79.0099 21.7708 74.9799 22.1108 72.7099 24.7908L51.1099 50.3508C50.0099 51.6508 49.4799 53.3008 49.6299 55.0008C49.7799 56.7008 50.5699 58.2408 51.8699 59.3308L51.8599 59.3408ZM67.6999 50.4708L81.4099 34.2508L90.5899 42.0108L79.8999 54.6608L69.2099 67.3108L60.0299 59.5508L67.7099 50.4708H67.6999ZM90.9599 46.2308L94.4399 49.1708L76.9099 69.9108L73.4299 66.9708L82.1899 56.6008L90.9499 46.2308H90.9599ZM79.7599 26.3308C81.1799 27.5308 81.3599 29.6608 80.1599 31.0808L80.0899 31.1608C78.8899 32.5708 76.7599 32.7508 75.3399 31.5508C73.9199 30.3508 73.7399 28.2208 74.9399 26.8008L75.0099 26.7208C76.2099 25.3008 78.3399 25.1208 79.7599 26.3208V26.3308ZM53.3999 52.2908L71.4599 30.9308C71.8099 32.0308 72.4599 33.0508 73.4099 33.8508C74.3599 34.6508 75.4699 35.1108 76.6199 35.2808L64.0299 50.1708L58.5499 56.6508C57.3499 58.0608 55.2199 58.2408 53.7999 57.0408C53.1099 56.4608 52.6899 55.6408 52.6199 54.7508C52.5499 53.8608 52.8199 52.9808 53.4099 52.2908H53.3999Z" fill="black"/>
<path d="M103.62 76.9512L99.91 78.4412L103.02 85.3512C78.2199 76.3312 51 81.1812 39.7 87.7412L41.7099 91.2012C51.0499 85.7812 77.9899 80.0812 102.7 89.5012L93.61 92.4012L94.8399 96.2112L109.94 91.3812L103.64 76.9512H103.62Z" fill="black"/>
</g>
<defs>
<clipPath id="clip0_1583_3814">
<rect width="197.89" height="201.83" fill="white"/>
</clipPath>
</defs>
</svg>
