<svg width="51" height="53" viewBox="0 0 51 53" fill="none" xmlns="http://www.w3.org/2000/svg">
<g clip-path="url(#clip0_1583_5298)">
<path d="M20.1325 36.5366C19.8832 36.7928 19.7419 37.1234 19.7419 37.4788V41.2639C19.7419 41.9994 20.3402 42.5945 21.0797 42.5945H24.8851C25.2424 42.5945 25.5831 42.454 25.8324 42.206L45.6158 22.5531L39.8993 16.8672L20.1325 36.5449V36.5366ZM24.2537 39.8176H22.542V38.1151L39.8993 20.8507L41.611 22.5531L24.2537 39.8176Z" fill="black"/>
<path d="M50.1609 14.3056L48.1833 12.3386C47.6266 11.7849 47.0035 11.5039 46.3055 11.5039C45.6242 11.5039 44.9927 11.8014 44.4277 12.3551L42.1926 14.5783L47.9091 20.2642L50.1442 18.0411C50.7092 17.4791 50.9917 16.8593 51.0001 16.1733C51.0001 15.4874 50.7259 14.8593 50.1609 14.3056Z" fill="black"/>
<path d="M22.7248 12.2148H19.7336V19.033H22.7248V12.2148Z" fill="black"/>
<path d="M22.7248 24.7852H19.7336V31.6033H22.7248V24.7852Z" fill="black"/>
<path d="M39.4756 50.0248H22.7248V44.9422H19.7336V50.0248H2.9912V2.97521H19.7336V7.23141H22.7248V2.97521H39.4673V14.3471L42.4585 11.3719V1.36364C42.4585 0.61157 41.8436 0 41.0875 0H1.37097C0.614858 0 0 0.61157 0 1.36364V51.6281C0 52.3802 0.614858 52.9917 1.37097 52.9917H41.0875C41.8436 52.9917 42.4585 52.3802 42.4585 51.6281V28.6777L39.4673 31.6529V50.0165L39.4756 50.0248Z" fill="black"/>
</g>
<defs>
<clipPath id="clip0_1583_5298">
<rect width="51" height="53" fill="white"/>
</clipPath>
</defs>
</svg>
