<svg width="168" height="203" viewBox="0 0 168 203" fill="none" xmlns="http://www.w3.org/2000/svg">
<g clip-path="url(#clip0_1583_4607)">
<path d="M11.1399 8.43016C13.3545 8.43016 15.1499 6.63482 15.1499 4.42016C15.1499 2.20549 13.3545 0.410156 11.1399 0.410156C8.92522 0.410156 7.12988 2.20549 7.12988 4.42016C7.12988 6.63482 8.92522 8.43016 11.1399 8.43016Z" fill="#DDDBDB"/>
<path d="M25.4099 8.43016C27.6246 8.43016 29.4199 6.63482 29.4199 4.42016C29.4199 2.20549 27.6246 0.410156 25.4099 0.410156C23.1952 0.410156 21.3999 2.20549 21.3999 4.42016C21.3999 6.63482 23.1952 8.43016 25.4099 8.43016Z" fill="#DDDBDB"/>
<path d="M39.6699 8.43016C41.8846 8.43016 43.6799 6.63482 43.6799 4.42016C43.6799 2.20549 41.8846 0.410156 39.6699 0.410156C37.4552 0.410156 35.6599 2.20549 35.6599 4.42016C35.6599 6.63482 37.4552 8.43016 39.6699 8.43016Z" fill="#DDDBDB"/>
<path d="M53.9299 8.43016C56.1446 8.43016 57.9399 6.63482 57.9399 4.42016C57.9399 2.20549 56.1446 0.410156 53.9299 0.410156C51.7153 0.410156 49.9199 2.20549 49.9199 4.42016C49.9199 6.63482 51.7153 8.43016 53.9299 8.43016Z" fill="#DDDBDB"/>
<path d="M68.1899 8.43016C70.4046 8.43016 72.1999 6.63482 72.1999 4.42016C72.1999 2.20549 70.4046 0.410156 68.1899 0.410156C65.9753 0.410156 64.1799 2.20549 64.1799 4.42016C64.1799 6.63482 65.9753 8.43016 68.1899 8.43016Z" fill="#DDDBDB"/>
<path d="M82.4499 8.43016C84.6646 8.43016 86.4599 6.63482 86.4599 4.42016C86.4599 2.20549 84.6646 0.410156 82.4499 0.410156C80.2353 0.410156 78.4399 2.20549 78.4399 4.42016C78.4399 6.63482 80.2353 8.43016 82.4499 8.43016Z" fill="#DDDBDB"/>
<path d="M96.72 8.43016C98.9346 8.43016 100.73 6.63482 100.73 4.42016C100.73 2.20549 98.9346 0.410156 96.72 0.410156C94.5053 0.410156 92.71 2.20549 92.71 4.42016C92.71 6.63482 94.5053 8.43016 96.72 8.43016Z" fill="#DDDBDB"/>
<path d="M4.01 17.4907C6.22466 17.4907 8.02 15.6954 8.02 13.4807C8.02 11.266 6.22466 9.4707 4.01 9.4707C1.79534 9.4707 0 11.266 0 13.4807C0 15.6954 1.79534 17.4907 4.01 17.4907Z" fill="#DDDBDB"/>
<path d="M18.28 17.4907C20.4947 17.4907 22.29 15.6954 22.29 13.4807C22.29 11.266 20.4947 9.4707 18.28 9.4707C16.0654 9.4707 14.27 11.266 14.27 13.4807C14.27 15.6954 16.0654 17.4907 18.28 17.4907Z" fill="#DDDBDB"/>
<path d="M32.54 17.4907C34.7547 17.4907 36.55 15.6954 36.55 13.4807C36.55 11.266 34.7547 9.4707 32.54 9.4707C30.3254 9.4707 28.53 11.266 28.53 13.4807C28.53 15.6954 30.3254 17.4907 32.54 17.4907Z" fill="#DDDBDB"/>
<path d="M46.8 17.4907C49.0147 17.4907 50.81 15.6954 50.81 13.4807C50.81 11.266 49.0147 9.4707 46.8 9.4707C44.5854 9.4707 42.79 11.266 42.79 13.4807C42.79 15.6954 44.5854 17.4907 46.8 17.4907Z" fill="#DDDBDB"/>
<path d="M61.0601 17.4907C63.2747 17.4907 65.07 15.6954 65.07 13.4807C65.07 11.266 63.2747 9.4707 61.0601 9.4707C58.8454 9.4707 57.05 11.266 57.05 13.4807C57.05 15.6954 58.8454 17.4907 61.0601 17.4907Z" fill="#DDDBDB"/>
<path d="M75.3201 17.4907C77.5347 17.4907 79.3301 15.6954 79.3301 13.4807C79.3301 11.266 77.5347 9.4707 75.3201 9.4707C73.1054 9.4707 71.3101 11.266 71.3101 13.4807C71.3101 15.6954 73.1054 17.4907 75.3201 17.4907Z" fill="#DDDBDB"/>
<path d="M89.5801 17.4907C91.7947 17.4907 93.5901 15.6954 93.5901 13.4807C93.5901 11.266 91.7947 9.4707 89.5801 9.4707C87.3654 9.4707 85.5701 11.266 85.5701 13.4807C85.5701 15.6954 87.3654 17.4907 89.5801 17.4907Z" fill="#DDDBDB"/>
<path d="M103.85 17.4907C106.065 17.4907 107.86 15.6954 107.86 13.4807C107.86 11.266 106.065 9.4707 103.85 9.4707C101.635 9.4707 99.8401 11.266 99.8401 13.4807C99.8401 15.6954 101.635 17.4907 103.85 17.4907Z" fill="#DDDBDB"/>
<path d="M11.1399 26.9399C13.3545 26.9399 15.1499 25.1446 15.1499 22.9299C15.1499 20.7153 13.3545 18.9199 11.1399 18.9199C8.92522 18.9199 7.12988 20.7153 7.12988 22.9299C7.12988 25.1446 8.92522 26.9399 11.1399 26.9399Z" fill="#DDDBDB"/>
<path d="M25.4099 26.9399C27.6246 26.9399 29.4199 25.1446 29.4199 22.9299C29.4199 20.7153 27.6246 18.9199 25.4099 18.9199C23.1952 18.9199 21.3999 20.7153 21.3999 22.9299C21.3999 25.1446 23.1952 26.9399 25.4099 26.9399Z" fill="#DDDBDB"/>
<path d="M39.6699 26.9399C41.8846 26.9399 43.6799 25.1446 43.6799 22.9299C43.6799 20.7153 41.8846 18.9199 39.6699 18.9199C37.4552 18.9199 35.6599 20.7153 35.6599 22.9299C35.6599 25.1446 37.4552 26.9399 39.6699 26.9399Z" fill="#DDDBDB"/>
<path d="M53.9299 26.9399C56.1446 26.9399 57.9399 25.1446 57.9399 22.9299C57.9399 20.7153 56.1446 18.9199 53.9299 18.9199C51.7153 18.9199 49.9199 20.7153 49.9199 22.9299C49.9199 25.1446 51.7153 26.9399 53.9299 26.9399Z" fill="#DDDBDB"/>
<path d="M68.1899 26.9399C70.4046 26.9399 72.1999 25.1446 72.1999 22.9299C72.1999 20.7153 70.4046 18.9199 68.1899 18.9199C65.9753 18.9199 64.1799 20.7153 64.1799 22.9299C64.1799 25.1446 65.9753 26.9399 68.1899 26.9399Z" fill="#DDDBDB"/>
<path d="M82.4499 26.9399C84.6646 26.9399 86.4599 25.1446 86.4599 22.9299C86.4599 20.7153 84.6646 18.9199 82.4499 18.9199C80.2353 18.9199 78.4399 20.7153 78.4399 22.9299C78.4399 25.1446 80.2353 26.9399 82.4499 26.9399Z" fill="#DDDBDB"/>
<path d="M96.72 26.9399C98.9346 26.9399 100.73 25.1446 100.73 22.9299C100.73 20.7153 98.9346 18.9199 96.72 18.9199C94.5053 18.9199 92.71 20.7153 92.71 22.9299C92.71 25.1446 94.5053 26.9399 96.72 26.9399Z" fill="#DDDBDB"/>
<path d="M4.01 36.0005C6.22466 36.0005 8.02 34.2051 8.02 31.9905C8.02 29.7758 6.22466 27.9805 4.01 27.9805C1.79534 27.9805 0 29.7758 0 31.9905C0 34.2051 1.79534 36.0005 4.01 36.0005Z" fill="#DDDBDB"/>
<path d="M18.28 36.0005C20.4947 36.0005 22.29 34.2051 22.29 31.9905C22.29 29.7758 20.4947 27.9805 18.28 27.9805C16.0654 27.9805 14.27 29.7758 14.27 31.9905C14.27 34.2051 16.0654 36.0005 18.28 36.0005Z" fill="#DDDBDB"/>
<path d="M32.54 36.0005C34.7547 36.0005 36.55 34.2051 36.55 31.9905C36.55 29.7758 34.7547 27.9805 32.54 27.9805C30.3254 27.9805 28.53 29.7758 28.53 31.9905C28.53 34.2051 30.3254 36.0005 32.54 36.0005Z" fill="#DDDBDB"/>
<path d="M46.8 36.0005C49.0147 36.0005 50.81 34.2051 50.81 31.9905C50.81 29.7758 49.0147 27.9805 46.8 27.9805C44.5854 27.9805 42.79 29.7758 42.79 31.9905C42.79 34.2051 44.5854 36.0005 46.8 36.0005Z" fill="#DDDBDB"/>
<path d="M61.0601 36.0005C63.2747 36.0005 65.07 34.2051 65.07 31.9905C65.07 29.7758 63.2747 27.9805 61.0601 27.9805C58.8454 27.9805 57.05 29.7758 57.05 31.9905C57.05 34.2051 58.8454 36.0005 61.0601 36.0005Z" fill="#DDDBDB"/>
<path d="M75.3201 36.0005C77.5347 36.0005 79.3301 34.2051 79.3301 31.9905C79.3301 29.7758 77.5347 27.9805 75.3201 27.9805C73.1054 27.9805 71.3101 29.7758 71.3101 31.9905C71.3101 34.2051 73.1054 36.0005 75.3201 36.0005Z" fill="#DDDBDB"/>
<path d="M89.5801 36.0005C91.7947 36.0005 93.5901 34.2051 93.5901 31.9905C93.5901 29.7758 91.7947 27.9805 89.5801 27.9805C87.3654 27.9805 85.5701 29.7758 85.5701 31.9905C85.5701 34.2051 87.3654 36.0005 89.5801 36.0005Z" fill="#DDDBDB"/>
<path d="M103.85 36.0005C106.065 36.0005 107.86 34.2051 107.86 31.9905C107.86 29.7758 106.065 27.9805 103.85 27.9805C101.635 27.9805 99.8401 29.7758 99.8401 31.9905C99.8401 34.2051 101.635 36.0005 103.85 36.0005Z" fill="#DDDBDB"/>
<path d="M11.1399 45.4595C13.3545 45.4595 15.1499 43.6641 15.1499 41.4495C15.1499 39.2348 13.3545 37.4395 11.1399 37.4395C8.92522 37.4395 7.12988 39.2348 7.12988 41.4495C7.12988 43.6641 8.92522 45.4595 11.1399 45.4595Z" fill="#DDDBDB"/>
<path d="M25.4099 45.4595C27.6246 45.4595 29.4199 43.6641 29.4199 41.4495C29.4199 39.2348 27.6246 37.4395 25.4099 37.4395C23.1952 37.4395 21.3999 39.2348 21.3999 41.4495C21.3999 43.6641 23.1952 45.4595 25.4099 45.4595Z" fill="#DDDBDB"/>
<path d="M39.6699 45.4595C41.8846 45.4595 43.6799 43.6641 43.6799 41.4495C43.6799 39.2348 41.8846 37.4395 39.6699 37.4395C37.4552 37.4395 35.6599 39.2348 35.6599 41.4495C35.6599 43.6641 37.4552 45.4595 39.6699 45.4595Z" fill="#DDDBDB"/>
<path d="M53.9299 45.4595C56.1446 45.4595 57.9399 43.6641 57.9399 41.4495C57.9399 39.2348 56.1446 37.4395 53.9299 37.4395C51.7153 37.4395 49.9199 39.2348 49.9199 41.4495C49.9199 43.6641 51.7153 45.4595 53.9299 45.4595Z" fill="#DDDBDB"/>
<path d="M68.1899 45.4595C70.4046 45.4595 72.1999 43.6641 72.1999 41.4495C72.1999 39.2348 70.4046 37.4395 68.1899 37.4395C65.9753 37.4395 64.1799 39.2348 64.1799 41.4495C64.1799 43.6641 65.9753 45.4595 68.1899 45.4595Z" fill="#DDDBDB"/>
<path d="M82.4499 45.4595C84.6646 45.4595 86.4599 43.6641 86.4599 41.4495C86.4599 39.2348 84.6646 37.4395 82.4499 37.4395C80.2353 37.4395 78.4399 39.2348 78.4399 41.4495C78.4399 43.6641 80.2353 45.4595 82.4499 45.4595Z" fill="#DDDBDB"/>
<path d="M96.72 45.4595C98.9346 45.4595 100.73 43.6641 100.73 41.4495C100.73 39.2348 98.9346 37.4395 96.72 37.4395C94.5053 37.4395 92.71 39.2348 92.71 41.4495C92.71 43.6641 94.5053 45.4595 96.72 45.4595Z" fill="#DDDBDB"/>
<path d="M4.01 54.5102C6.22466 54.5102 8.02 52.7149 8.02 50.5002C8.02 48.2856 6.22466 46.4902 4.01 46.4902C1.79534 46.4902 0 48.2856 0 50.5002C0 52.7149 1.79534 54.5102 4.01 54.5102Z" fill="#DDDBDB"/>
<path d="M18.28 54.5102C20.4947 54.5102 22.29 52.7149 22.29 50.5002C22.29 48.2856 20.4947 46.4902 18.28 46.4902C16.0654 46.4902 14.27 48.2856 14.27 50.5002C14.27 52.7149 16.0654 54.5102 18.28 54.5102Z" fill="#DDDBDB"/>
<path d="M32.54 54.5102C34.7547 54.5102 36.55 52.7149 36.55 50.5002C36.55 48.2856 34.7547 46.4902 32.54 46.4902C30.3254 46.4902 28.53 48.2856 28.53 50.5002C28.53 52.7149 30.3254 54.5102 32.54 54.5102Z" fill="#DDDBDB"/>
<path d="M46.8 54.5102C49.0147 54.5102 50.81 52.7149 50.81 50.5002C50.81 48.2856 49.0147 46.4902 46.8 46.4902C44.5854 46.4902 42.79 48.2856 42.79 50.5002C42.79 52.7149 44.5854 54.5102 46.8 54.5102Z" fill="#DDDBDB"/>
<path d="M61.0601 54.5102C63.2747 54.5102 65.07 52.7149 65.07 50.5002C65.07 48.2856 63.2747 46.4902 61.0601 46.4902C58.8454 46.4902 57.05 48.2856 57.05 50.5002C57.05 52.7149 58.8454 54.5102 61.0601 54.5102Z" fill="#DDDBDB"/>
<path d="M75.3201 54.5102C77.5347 54.5102 79.3301 52.7149 79.3301 50.5002C79.3301 48.2856 77.5347 46.4902 75.3201 46.4902C73.1054 46.4902 71.3101 48.2856 71.3101 50.5002C71.3101 52.7149 73.1054 54.5102 75.3201 54.5102Z" fill="#DDDBDB"/>
<path d="M89.5801 54.5102C91.7947 54.5102 93.5901 52.7149 93.5901 50.5002C93.5901 48.2856 91.7947 46.4902 89.5801 46.4902C87.3654 46.4902 85.5701 48.2856 85.5701 50.5002C85.5701 52.7149 87.3654 54.5102 89.5801 54.5102Z" fill="#DDDBDB"/>
<path d="M103.85 54.5102C106.065 54.5102 107.86 52.7149 107.86 50.5002C107.86 48.2856 106.065 46.4902 103.85 46.4902C101.635 46.4902 99.8401 48.2856 99.8401 50.5002C99.8401 52.7149 101.635 54.5102 103.85 54.5102Z" fill="#DDDBDB"/>
<path d="M11.1399 63.9692C13.3545 63.9692 15.1499 62.1739 15.1499 59.9592C15.1499 57.7446 13.3545 55.9492 11.1399 55.9492C8.92522 55.9492 7.12988 57.7446 7.12988 59.9592C7.12988 62.1739 8.92522 63.9692 11.1399 63.9692Z" fill="#DDDBDB"/>
<path d="M25.4099 63.9692C27.6246 63.9692 29.4199 62.1739 29.4199 59.9592C29.4199 57.7446 27.6246 55.9492 25.4099 55.9492C23.1952 55.9492 21.3999 57.7446 21.3999 59.9592C21.3999 62.1739 23.1952 63.9692 25.4099 63.9692Z" fill="#DDDBDB"/>
<path d="M39.6699 63.9692C41.8846 63.9692 43.6799 62.1739 43.6799 59.9592C43.6799 57.7446 41.8846 55.9492 39.6699 55.9492C37.4552 55.9492 35.6599 57.7446 35.6599 59.9592C35.6599 62.1739 37.4552 63.9692 39.6699 63.9692Z" fill="#DDDBDB"/>
<path d="M53.9299 63.9692C56.1446 63.9692 57.9399 62.1739 57.9399 59.9592C57.9399 57.7446 56.1446 55.9492 53.9299 55.9492C51.7153 55.9492 49.9199 57.7446 49.9199 59.9592C49.9199 62.1739 51.7153 63.9692 53.9299 63.9692Z" fill="#DDDBDB"/>
<path d="M68.1899 63.9692C70.4046 63.9692 72.1999 62.1739 72.1999 59.9592C72.1999 57.7446 70.4046 55.9492 68.1899 55.9492C65.9753 55.9492 64.1799 57.7446 64.1799 59.9592C64.1799 62.1739 65.9753 63.9692 68.1899 63.9692Z" fill="#DDDBDB"/>
<path d="M82.4499 63.9692C84.6646 63.9692 86.4599 62.1739 86.4599 59.9592C86.4599 57.7446 84.6646 55.9492 82.4499 55.9492C80.2353 55.9492 78.4399 57.7446 78.4399 59.9592C78.4399 62.1739 80.2353 63.9692 82.4499 63.9692Z" fill="#DDDBDB"/>
<path d="M96.72 63.9692C98.9346 63.9692 100.73 62.1739 100.73 59.9592C100.73 57.7446 98.9346 55.9492 96.72 55.9492C94.5053 55.9492 92.71 57.7446 92.71 59.9592C92.71 62.1739 94.5053 63.9692 96.72 63.9692Z" fill="#DDDBDB"/>
<path d="M4.01 73.0298C6.22466 73.0298 8.02 71.2344 8.02 69.0198C8.02 66.8051 6.22466 65.0098 4.01 65.0098C1.79534 65.0098 0 66.8051 0 69.0198C0 71.2344 1.79534 73.0298 4.01 73.0298Z" fill="#DDDBDB"/>
<path d="M18.28 73.0298C20.4947 73.0298 22.29 71.2344 22.29 69.0198C22.29 66.8051 20.4947 65.0098 18.28 65.0098C16.0654 65.0098 14.27 66.8051 14.27 69.0198C14.27 71.2344 16.0654 73.0298 18.28 73.0298Z" fill="#DDDBDB"/>
<path d="M32.54 73.0298C34.7547 73.0298 36.55 71.2344 36.55 69.0198C36.55 66.8051 34.7547 65.0098 32.54 65.0098C30.3254 65.0098 28.53 66.8051 28.53 69.0198C28.53 71.2344 30.3254 73.0298 32.54 73.0298Z" fill="#DDDBDB"/>
<path d="M46.8 73.0298C49.0147 73.0298 50.81 71.2344 50.81 69.0198C50.81 66.8051 49.0147 65.0098 46.8 65.0098C44.5854 65.0098 42.79 66.8051 42.79 69.0198C42.79 71.2344 44.5854 73.0298 46.8 73.0298Z" fill="#DDDBDB"/>
<path d="M61.0601 73.0298C63.2747 73.0298 65.07 71.2344 65.07 69.0198C65.07 66.8051 63.2747 65.0098 61.0601 65.0098C58.8454 65.0098 57.05 66.8051 57.05 69.0198C57.05 71.2344 58.8454 73.0298 61.0601 73.0298Z" fill="#DDDBDB"/>
<path d="M75.3201 73.0298C77.5347 73.0298 79.3301 71.2344 79.3301 69.0198C79.3301 66.8051 77.5347 65.0098 75.3201 65.0098C73.1054 65.0098 71.3101 66.8051 71.3101 69.0198C71.3101 71.2344 73.1054 73.0298 75.3201 73.0298Z" fill="#DDDBDB"/>
<path d="M89.5801 73.0298C91.7947 73.0298 93.5901 71.2344 93.5901 69.0198C93.5901 66.8051 91.7947 65.0098 89.5801 65.0098C87.3654 65.0098 85.5701 66.8051 85.5701 69.0198C85.5701 71.2344 87.3654 73.0298 89.5801 73.0298Z" fill="#DDDBDB"/>
<path d="M103.85 73.0298C106.065 73.0298 107.86 71.2344 107.86 69.0198C107.86 66.8051 106.065 65.0098 103.85 65.0098C101.635 65.0098 99.8401 66.8051 99.8401 69.0198C99.8401 71.2344 101.635 73.0298 103.85 73.0298Z" fill="#DDDBDB"/>
<path d="M11.1399 82.4809C13.3545 82.4809 15.1499 80.6856 15.1499 78.4709C15.1499 76.2563 13.3545 74.4609 11.1399 74.4609C8.92522 74.4609 7.12988 76.2563 7.12988 78.4709C7.12988 80.6856 8.92522 82.4809 11.1399 82.4809Z" fill="#DDDBDB"/>
<path d="M25.4099 82.4809C27.6246 82.4809 29.4199 80.6856 29.4199 78.4709C29.4199 76.2563 27.6246 74.4609 25.4099 74.4609C23.1952 74.4609 21.3999 76.2563 21.3999 78.4709C21.3999 80.6856 23.1952 82.4809 25.4099 82.4809Z" fill="#DDDBDB"/>
<path d="M39.6699 82.4809C41.8846 82.4809 43.6799 80.6856 43.6799 78.4709C43.6799 76.2563 41.8846 74.4609 39.6699 74.4609C37.4552 74.4609 35.6599 76.2563 35.6599 78.4709C35.6599 80.6856 37.4552 82.4809 39.6699 82.4809Z" fill="#DDDBDB"/>
<path d="M53.9299 82.4809C56.1446 82.4809 57.9399 80.6856 57.9399 78.4709C57.9399 76.2563 56.1446 74.4609 53.9299 74.4609C51.7153 74.4609 49.9199 76.2563 49.9199 78.4709C49.9199 80.6856 51.7153 82.4809 53.9299 82.4809Z" fill="#DDDBDB"/>
<path d="M68.1899 82.4809C70.4046 82.4809 72.1999 80.6856 72.1999 78.4709C72.1999 76.2563 70.4046 74.4609 68.1899 74.4609C65.9753 74.4609 64.1799 76.2563 64.1799 78.4709C64.1799 80.6856 65.9753 82.4809 68.1899 82.4809Z" fill="#DDDBDB"/>
<path d="M82.4499 82.4809C84.6646 82.4809 86.4599 80.6856 86.4599 78.4709C86.4599 76.2563 84.6646 74.4609 82.4499 74.4609C80.2353 74.4609 78.4399 76.2563 78.4399 78.4709C78.4399 80.6856 80.2353 82.4809 82.4499 82.4809Z" fill="#DDDBDB"/>
<path d="M96.72 82.4809C98.9346 82.4809 100.73 80.6856 100.73 78.4709C100.73 76.2563 98.9346 74.4609 96.72 74.4609C94.5053 74.4609 92.71 76.2563 92.71 78.4709C92.71 80.6856 94.5053 82.4809 96.72 82.4809Z" fill="#DDDBDB"/>
<path d="M4.01 91.5395C6.22466 91.5395 8.02 89.7442 8.02 87.5295C8.02 85.3149 6.22466 83.5195 4.01 83.5195C1.79534 83.5195 0 85.3149 0 87.5295C0 89.7442 1.79534 91.5395 4.01 91.5395Z" fill="#DDDBDB"/>
<path d="M18.28 91.5395C20.4947 91.5395 22.29 89.7442 22.29 87.5295C22.29 85.3149 20.4947 83.5195 18.28 83.5195C16.0654 83.5195 14.27 85.3149 14.27 87.5295C14.27 89.7442 16.0654 91.5395 18.28 91.5395Z" fill="#DDDBDB"/>
<path d="M32.54 91.5395C34.7547 91.5395 36.55 89.7442 36.55 87.5295C36.55 85.3149 34.7547 83.5195 32.54 83.5195C30.3254 83.5195 28.53 85.3149 28.53 87.5295C28.53 89.7442 30.3254 91.5395 32.54 91.5395Z" fill="#DDDBDB"/>
<path d="M46.8 91.5395C49.0147 91.5395 50.81 89.7442 50.81 87.5295C50.81 85.3149 49.0147 83.5195 46.8 83.5195C44.5854 83.5195 42.79 85.3149 42.79 87.5295C42.79 89.7442 44.5854 91.5395 46.8 91.5395Z" fill="#DDDBDB"/>
<path d="M61.0601 91.5395C63.2747 91.5395 65.07 89.7442 65.07 87.5295C65.07 85.3149 63.2747 83.5195 61.0601 83.5195C58.8454 83.5195 57.05 85.3149 57.05 87.5295C57.05 89.7442 58.8454 91.5395 61.0601 91.5395Z" fill="#DDDBDB"/>
<path d="M75.3201 91.5395C77.5347 91.5395 79.3301 89.7442 79.3301 87.5295C79.3301 85.3149 77.5347 83.5195 75.3201 83.5195C73.1054 83.5195 71.3101 85.3149 71.3101 87.5295C71.3101 89.7442 73.1054 91.5395 75.3201 91.5395Z" fill="#DDDBDB"/>
<path d="M89.5801 91.5395C91.7947 91.5395 93.5901 89.7442 93.5901 87.5295C93.5901 85.3149 91.7947 83.5195 89.5801 83.5195C87.3654 83.5195 85.5701 85.3149 85.5701 87.5295C85.5701 89.7442 87.3654 91.5395 89.5801 91.5395Z" fill="#DDDBDB"/>
<path d="M103.85 91.5395C106.065 91.5395 107.86 89.7442 107.86 87.5295C107.86 85.3149 106.065 83.5195 103.85 83.5195C101.635 83.5195 99.8401 85.3149 99.8401 87.5295C99.8401 89.7442 101.635 91.5395 103.85 91.5395Z" fill="#DDDBDB"/>
<path d="M11.1399 101C13.3545 101 15.1499 99.2051 15.1499 96.9905C15.1499 94.7758 13.3545 92.9805 11.1399 92.9805C8.92522 92.9805 7.12988 94.7758 7.12988 96.9905C7.12988 99.2051 8.92522 101 11.1399 101Z" fill="#DDDBDB"/>
<path d="M25.4099 101C27.6246 101 29.4199 99.2051 29.4199 96.9905C29.4199 94.7758 27.6246 92.9805 25.4099 92.9805C23.1952 92.9805 21.3999 94.7758 21.3999 96.9905C21.3999 99.2051 23.1952 101 25.4099 101Z" fill="#DDDBDB"/>
<path d="M39.6699 101C41.8846 101 43.6799 99.2051 43.6799 96.9905C43.6799 94.7758 41.8846 92.9805 39.6699 92.9805C37.4552 92.9805 35.6599 94.7758 35.6599 96.9905C35.6599 99.2051 37.4552 101 39.6699 101Z" fill="#DDDBDB"/>
<path d="M53.9299 101C56.1446 101 57.9399 99.2051 57.9399 96.9905C57.9399 94.7758 56.1446 92.9805 53.9299 92.9805C51.7153 92.9805 49.9199 94.7758 49.9199 96.9905C49.9199 99.2051 51.7153 101 53.9299 101Z" fill="#DDDBDB"/>
<path d="M68.1899 101C70.4046 101 72.1999 99.2051 72.1999 96.9905C72.1999 94.7758 70.4046 92.9805 68.1899 92.9805C65.9753 92.9805 64.1799 94.7758 64.1799 96.9905C64.1799 99.2051 65.9753 101 68.1899 101Z" fill="#DDDBDB"/>
<path d="M82.4499 101C84.6646 101 86.4599 99.2051 86.4599 96.9905C86.4599 94.7758 84.6646 92.9805 82.4499 92.9805C80.2353 92.9805 78.4399 94.7758 78.4399 96.9905C78.4399 99.2051 80.2353 101 82.4499 101Z" fill="#DDDBDB"/>
<path d="M96.72 101C98.9346 101 100.73 99.2051 100.73 96.9905C100.73 94.7758 98.9346 92.9805 96.72 92.9805C94.5053 92.9805 92.71 94.7758 92.71 96.9905C92.71 99.2051 94.5053 101 96.72 101Z" fill="#DDDBDB"/>
<path d="M4.01 110.059C6.22466 110.059 8.02 108.264 8.02 106.049C8.02 103.834 6.22466 102.039 4.01 102.039C1.79534 102.039 0 103.834 0 106.049C0 108.264 1.79534 110.059 4.01 110.059Z" fill="#DDDBDB"/>
<path d="M18.28 110.059C20.4947 110.059 22.29 108.264 22.29 106.049C22.29 103.834 20.4947 102.039 18.28 102.039C16.0654 102.039 14.27 103.834 14.27 106.049C14.27 108.264 16.0654 110.059 18.28 110.059Z" fill="#DDDBDB"/>
<path d="M32.54 110.059C34.7547 110.059 36.55 108.264 36.55 106.049C36.55 103.834 34.7547 102.039 32.54 102.039C30.3254 102.039 28.53 103.834 28.53 106.049C28.53 108.264 30.3254 110.059 32.54 110.059Z" fill="#DDDBDB"/>
<path d="M46.8 110.059C49.0147 110.059 50.81 108.264 50.81 106.049C50.81 103.834 49.0147 102.039 46.8 102.039C44.5854 102.039 42.79 103.834 42.79 106.049C42.79 108.264 44.5854 110.059 46.8 110.059Z" fill="#DDDBDB"/>
<path d="M61.0601 110.059C63.2747 110.059 65.07 108.264 65.07 106.049C65.07 103.834 63.2747 102.039 61.0601 102.039C58.8454 102.039 57.05 103.834 57.05 106.049C57.05 108.264 58.8454 110.059 61.0601 110.059Z" fill="#DDDBDB"/>
<path d="M75.3201 110.059C77.5347 110.059 79.3301 108.264 79.3301 106.049C79.3301 103.834 77.5347 102.039 75.3201 102.039C73.1054 102.039 71.3101 103.834 71.3101 106.049C71.3101 108.264 73.1054 110.059 75.3201 110.059Z" fill="#DDDBDB"/>
<path d="M89.5801 110.059C91.7947 110.059 93.5901 108.264 93.5901 106.049C93.5901 103.834 91.7947 102.039 89.5801 102.039C87.3654 102.039 85.5701 103.834 85.5701 106.049C85.5701 108.264 87.3654 110.059 89.5801 110.059Z" fill="#DDDBDB"/>
<path d="M103.85 110.059C106.065 110.059 107.86 108.264 107.86 106.049C107.86 103.834 106.065 102.039 103.85 102.039C101.635 102.039 99.8401 103.834 99.8401 106.049C99.8401 108.264 101.635 110.059 103.85 110.059Z" fill="#DDDBDB"/>
<path d="M11.1399 119.51C13.3545 119.51 15.1499 117.715 15.1499 115.5C15.1499 113.286 13.3545 111.49 11.1399 111.49C8.92522 111.49 7.12988 113.286 7.12988 115.5C7.12988 117.715 8.92522 119.51 11.1399 119.51Z" fill="#DDDBDB"/>
<path d="M25.4099 119.51C27.6246 119.51 29.4199 117.715 29.4199 115.5C29.4199 113.286 27.6246 111.49 25.4099 111.49C23.1952 111.49 21.3999 113.286 21.3999 115.5C21.3999 117.715 23.1952 119.51 25.4099 119.51Z" fill="#DDDBDB"/>
<path d="M39.6699 119.51C41.8846 119.51 43.6799 117.715 43.6799 115.5C43.6799 113.286 41.8846 111.49 39.6699 111.49C37.4552 111.49 35.6599 113.286 35.6599 115.5C35.6599 117.715 37.4552 119.51 39.6699 119.51Z" fill="#DDDBDB"/>
<path d="M53.9299 119.51C56.1446 119.51 57.9399 117.715 57.9399 115.5C57.9399 113.286 56.1446 111.49 53.9299 111.49C51.7153 111.49 49.9199 113.286 49.9199 115.5C49.9199 117.715 51.7153 119.51 53.9299 119.51Z" fill="#DDDBDB"/>
<path d="M68.1899 119.51C70.4046 119.51 72.1999 117.715 72.1999 115.5C72.1999 113.286 70.4046 111.49 68.1899 111.49C65.9753 111.49 64.1799 113.286 64.1799 115.5C64.1799 117.715 65.9753 119.51 68.1899 119.51Z" fill="#DDDBDB"/>
<path d="M82.4499 119.51C84.6646 119.51 86.4599 117.715 86.4599 115.5C86.4599 113.286 84.6646 111.49 82.4499 111.49C80.2353 111.49 78.4399 113.286 78.4399 115.5C78.4399 117.715 80.2353 119.51 82.4499 119.51Z" fill="#DDDBDB"/>
<path d="M96.72 119.51C98.9346 119.51 100.73 117.715 100.73 115.5C100.73 113.286 98.9346 111.49 96.72 111.49C94.5053 111.49 92.71 113.286 92.71 115.5C92.71 117.715 94.5053 119.51 96.72 119.51Z" fill="#DDDBDB"/>
<path d="M4.01 128.571C6.22466 128.571 8.02 126.775 8.02 124.561C8.02 122.346 6.22466 120.551 4.01 120.551C1.79534 120.551 0 122.346 0 124.561C0 126.775 1.79534 128.571 4.01 128.571Z" fill="#DDDBDB"/>
<path d="M18.28 128.571C20.4947 128.571 22.29 126.775 22.29 124.561C22.29 122.346 20.4947 120.551 18.28 120.551C16.0654 120.551 14.27 122.346 14.27 124.561C14.27 126.775 16.0654 128.571 18.28 128.571Z" fill="#DDDBDB"/>
<path d="M32.54 128.571C34.7547 128.571 36.55 126.775 36.55 124.561C36.55 122.346 34.7547 120.551 32.54 120.551C30.3254 120.551 28.53 122.346 28.53 124.561C28.53 126.775 30.3254 128.571 32.54 128.571Z" fill="#DDDBDB"/>
<path d="M46.8 128.571C49.0147 128.571 50.81 126.775 50.81 124.561C50.81 122.346 49.0147 120.551 46.8 120.551C44.5854 120.551 42.79 122.346 42.79 124.561C42.79 126.775 44.5854 128.571 46.8 128.571Z" fill="#DDDBDB"/>
<path d="M61.0601 128.571C63.2747 128.571 65.07 126.775 65.07 124.561C65.07 122.346 63.2747 120.551 61.0601 120.551C58.8454 120.551 57.05 122.346 57.05 124.561C57.05 126.775 58.8454 128.571 61.0601 128.571Z" fill="#DDDBDB"/>
<path d="M75.3201 128.571C77.5347 128.571 79.3301 126.775 79.3301 124.561C79.3301 122.346 77.5347 120.551 75.3201 120.551C73.1054 120.551 71.3101 122.346 71.3101 124.561C71.3101 126.775 73.1054 128.571 75.3201 128.571Z" fill="#DDDBDB"/>
<path d="M89.5801 128.571C91.7947 128.571 93.5901 126.775 93.5901 124.561C93.5901 122.346 91.7947 120.551 89.5801 120.551C87.3654 120.551 85.5701 122.346 85.5701 124.561C85.5701 126.775 87.3654 128.571 89.5801 128.571Z" fill="#DDDBDB"/>
<path d="M103.85 128.571C106.065 128.571 107.86 126.775 107.86 124.561C107.86 122.346 106.065 120.551 103.85 120.551C101.635 120.551 99.8401 122.346 99.8401 124.561C99.8401 126.775 101.635 128.571 103.85 128.571Z" fill="#DDDBDB"/>
<path d="M11.1399 138.03C13.3545 138.03 15.1499 136.234 15.1499 134.02C15.1499 131.805 13.3545 130.01 11.1399 130.01C8.92522 130.01 7.12988 131.805 7.12988 134.02C7.12988 136.234 8.92522 138.03 11.1399 138.03Z" fill="#DDDBDB"/>
<path d="M25.4099 138.03C27.6246 138.03 29.4199 136.234 29.4199 134.02C29.4199 131.805 27.6246 130.01 25.4099 130.01C23.1952 130.01 21.3999 131.805 21.3999 134.02C21.3999 136.234 23.1952 138.03 25.4099 138.03Z" fill="#DDDBDB"/>
<path d="M39.6699 138.03C41.8846 138.03 43.6799 136.234 43.6799 134.02C43.6799 131.805 41.8846 130.01 39.6699 130.01C37.4552 130.01 35.6599 131.805 35.6599 134.02C35.6599 136.234 37.4552 138.03 39.6699 138.03Z" fill="#DDDBDB"/>
<path d="M53.9299 138.03C56.1446 138.03 57.9399 136.234 57.9399 134.02C57.9399 131.805 56.1446 130.01 53.9299 130.01C51.7153 130.01 49.9199 131.805 49.9199 134.02C49.9199 136.234 51.7153 138.03 53.9299 138.03Z" fill="#DDDBDB"/>
<path d="M68.1899 138.03C70.4046 138.03 72.1999 136.234 72.1999 134.02C72.1999 131.805 70.4046 130.01 68.1899 130.01C65.9753 130.01 64.1799 131.805 64.1799 134.02C64.1799 136.234 65.9753 138.03 68.1899 138.03Z" fill="#DDDBDB"/>
<path d="M82.4499 138.03C84.6646 138.03 86.4599 136.234 86.4599 134.02C86.4599 131.805 84.6646 130.01 82.4499 130.01C80.2353 130.01 78.4399 131.805 78.4399 134.02C78.4399 136.234 80.2353 138.03 82.4499 138.03Z" fill="#DDDBDB"/>
<path d="M96.72 138.03C98.9346 138.03 100.73 136.234 100.73 134.02C100.73 131.805 98.9346 130.01 96.72 130.01C94.5053 130.01 92.71 131.805 92.71 134.02C92.71 136.234 94.5053 138.03 96.72 138.03Z" fill="#DDDBDB"/>
<path d="M4.01 147.09C6.22466 147.09 8.02 145.295 8.02 143.08C8.02 140.866 6.22466 139.07 4.01 139.07C1.79534 139.07 0 140.866 0 143.08C0 145.295 1.79534 147.09 4.01 147.09Z" fill="#DDDBDB"/>
<path d="M18.28 147.09C20.4947 147.09 22.29 145.295 22.29 143.08C22.29 140.866 20.4947 139.07 18.28 139.07C16.0654 139.07 14.27 140.866 14.27 143.08C14.27 145.295 16.0654 147.09 18.28 147.09Z" fill="#DDDBDB"/>
<path d="M32.54 147.09C34.7547 147.09 36.55 145.295 36.55 143.08C36.55 140.866 34.7547 139.07 32.54 139.07C30.3254 139.07 28.53 140.866 28.53 143.08C28.53 145.295 30.3254 147.09 32.54 147.09Z" fill="#DDDBDB"/>
<path d="M46.8 147.09C49.0147 147.09 50.81 145.295 50.81 143.08C50.81 140.866 49.0147 139.07 46.8 139.07C44.5854 139.07 42.79 140.866 42.79 143.08C42.79 145.295 44.5854 147.09 46.8 147.09Z" fill="#DDDBDB"/>
<path d="M61.0601 147.09C63.2747 147.09 65.07 145.295 65.07 143.08C65.07 140.866 63.2747 139.07 61.0601 139.07C58.8454 139.07 57.05 140.866 57.05 143.08C57.05 145.295 58.8454 147.09 61.0601 147.09Z" fill="#DDDBDB"/>
<path d="M75.3201 147.09C77.5347 147.09 79.3301 145.295 79.3301 143.08C79.3301 140.866 77.5347 139.07 75.3201 139.07C73.1054 139.07 71.3101 140.866 71.3101 143.08C71.3101 145.295 73.1054 147.09 75.3201 147.09Z" fill="#DDDBDB"/>
<path d="M89.5801 147.09C91.7947 147.09 93.5901 145.295 93.5901 143.08C93.5901 140.866 91.7947 139.07 89.5801 139.07C87.3654 139.07 85.5701 140.866 85.5701 143.08C85.5701 145.295 87.3654 147.09 89.5801 147.09Z" fill="#DDDBDB"/>
<path d="M103.85 147.09C106.065 147.09 107.86 145.295 107.86 143.08C107.86 140.866 106.065 139.07 103.85 139.07C101.635 139.07 99.8401 140.866 99.8401 143.08C99.8401 145.295 101.635 147.09 103.85 147.09Z" fill="#DDDBDB"/>
<path d="M11.1399 156.54C13.3545 156.54 15.1499 154.744 15.1499 152.53C15.1499 150.315 13.3545 148.52 11.1399 148.52C8.92522 148.52 7.12988 150.315 7.12988 152.53C7.12988 154.744 8.92522 156.54 11.1399 156.54Z" fill="#DDDBDB"/>
<path d="M25.4099 156.54C27.6246 156.54 29.4199 154.744 29.4199 152.53C29.4199 150.315 27.6246 148.52 25.4099 148.52C23.1952 148.52 21.3999 150.315 21.3999 152.53C21.3999 154.744 23.1952 156.54 25.4099 156.54Z" fill="#DDDBDB"/>
<path d="M39.6699 156.54C41.8846 156.54 43.6799 154.744 43.6799 152.53C43.6799 150.315 41.8846 148.52 39.6699 148.52C37.4552 148.52 35.6599 150.315 35.6599 152.53C35.6599 154.744 37.4552 156.54 39.6699 156.54Z" fill="#DDDBDB"/>
<path d="M53.9299 156.54C56.1446 156.54 57.9399 154.744 57.9399 152.53C57.9399 150.315 56.1446 148.52 53.9299 148.52C51.7153 148.52 49.9199 150.315 49.9199 152.53C49.9199 154.744 51.7153 156.54 53.9299 156.54Z" fill="#DDDBDB"/>
<path d="M68.1899 156.54C70.4046 156.54 72.1999 154.744 72.1999 152.53C72.1999 150.315 70.4046 148.52 68.1899 148.52C65.9753 148.52 64.1799 150.315 64.1799 152.53C64.1799 154.744 65.9753 156.54 68.1899 156.54Z" fill="#DDDBDB"/>
<path d="M82.4499 156.54C84.6646 156.54 86.4599 154.744 86.4599 152.53C86.4599 150.315 84.6646 148.52 82.4499 148.52C80.2353 148.52 78.4399 150.315 78.4399 152.53C78.4399 154.744 80.2353 156.54 82.4499 156.54Z" fill="#DDDBDB"/>
<path d="M96.72 156.54C98.9346 156.54 100.73 154.744 100.73 152.53C100.73 150.315 98.9346 148.52 96.72 148.52C94.5053 148.52 92.71 150.315 92.71 152.53C92.71 154.744 94.5053 156.54 96.72 156.54Z" fill="#DDDBDB"/>
<path d="M4.01 165.6C6.22466 165.6 8.02 163.805 8.02 161.59C8.02 159.375 6.22466 157.58 4.01 157.58C1.79534 157.58 0 159.375 0 161.59C0 163.805 1.79534 165.6 4.01 165.6Z" fill="#DDDBDB"/>
<path d="M18.28 165.6C20.4947 165.6 22.29 163.805 22.29 161.59C22.29 159.375 20.4947 157.58 18.28 157.58C16.0654 157.58 14.27 159.375 14.27 161.59C14.27 163.805 16.0654 165.6 18.28 165.6Z" fill="#DDDBDB"/>
<path d="M32.54 165.6C34.7547 165.6 36.55 163.805 36.55 161.59C36.55 159.375 34.7547 157.58 32.54 157.58C30.3254 157.58 28.53 159.375 28.53 161.59C28.53 163.805 30.3254 165.6 32.54 165.6Z" fill="#DDDBDB"/>
<path d="M46.8 165.6C49.0147 165.6 50.81 163.805 50.81 161.59C50.81 159.375 49.0147 157.58 46.8 157.58C44.5854 157.58 42.79 159.375 42.79 161.59C42.79 163.805 44.5854 165.6 46.8 165.6Z" fill="#DDDBDB"/>
<path d="M61.0601 165.6C63.2747 165.6 65.07 163.805 65.07 161.59C65.07 159.375 63.2747 157.58 61.0601 157.58C58.8454 157.58 57.05 159.375 57.05 161.59C57.05 163.805 58.8454 165.6 61.0601 165.6Z" fill="#DDDBDB"/>
<path d="M75.3201 165.6C77.5347 165.6 79.3301 163.805 79.3301 161.59C79.3301 159.375 77.5347 157.58 75.3201 157.58C73.1054 157.58 71.3101 159.375 71.3101 161.59C71.3101 163.805 73.1054 165.6 75.3201 165.6Z" fill="#DDDBDB"/>
<path d="M89.5801 165.6C91.7947 165.6 93.5901 163.805 93.5901 161.59C93.5901 159.375 91.7947 157.58 89.5801 157.58C87.3654 157.58 85.5701 159.375 85.5701 161.59C85.5701 163.805 87.3654 165.6 89.5801 165.6Z" fill="#DDDBDB"/>
<path d="M103.85 165.6C106.065 165.6 107.86 163.805 107.86 161.59C107.86 159.375 106.065 157.58 103.85 157.58C101.635 157.58 99.8401 159.375 99.8401 161.59C99.8401 163.805 101.635 165.6 103.85 165.6Z" fill="#DDDBDB"/>
<path d="M11.1399 175.059C13.3545 175.059 15.1499 173.264 15.1499 171.049C15.1499 168.834 13.3545 167.039 11.1399 167.039C8.92522 167.039 7.12988 168.834 7.12988 171.049C7.12988 173.264 8.92522 175.059 11.1399 175.059Z" fill="#DDDBDB"/>
<path d="M25.4099 175.059C27.6246 175.059 29.4199 173.264 29.4199 171.049C29.4199 168.834 27.6246 167.039 25.4099 167.039C23.1952 167.039 21.3999 168.834 21.3999 171.049C21.3999 173.264 23.1952 175.059 25.4099 175.059Z" fill="#DDDBDB"/>
<path d="M39.6699 175.059C41.8846 175.059 43.6799 173.264 43.6799 171.049C43.6799 168.834 41.8846 167.039 39.6699 167.039C37.4552 167.039 35.6599 168.834 35.6599 171.049C35.6599 173.264 37.4552 175.059 39.6699 175.059Z" fill="#DDDBDB"/>
<path d="M53.9299 175.059C56.1446 175.059 57.9399 173.264 57.9399 171.049C57.9399 168.834 56.1446 167.039 53.9299 167.039C51.7153 167.039 49.9199 168.834 49.9199 171.049C49.9199 173.264 51.7153 175.059 53.9299 175.059Z" fill="#DDDBDB"/>
<path d="M68.1899 175.059C70.4046 175.059 72.1999 173.264 72.1999 171.049C72.1999 168.834 70.4046 167.039 68.1899 167.039C65.9753 167.039 64.1799 168.834 64.1799 171.049C64.1799 173.264 65.9753 175.059 68.1899 175.059Z" fill="#DDDBDB"/>
<path d="M82.4499 175.059C84.6646 175.059 86.4599 173.264 86.4599 171.049C86.4599 168.834 84.6646 167.039 82.4499 167.039C80.2353 167.039 78.4399 168.834 78.4399 171.049C78.4399 173.264 80.2353 175.059 82.4499 175.059Z" fill="#DDDBDB"/>
<path d="M96.72 175.059C98.9346 175.059 100.73 173.264 100.73 171.049C100.73 168.834 98.9346 167.039 96.72 167.039C94.5053 167.039 92.71 168.834 92.71 171.049C92.71 173.264 94.5053 175.059 96.72 175.059Z" fill="#DDDBDB"/>
<path d="M4.01 184.11C6.22466 184.11 8.02 182.315 8.02 180.1C8.02 177.885 6.22466 176.09 4.01 176.09C1.79534 176.09 0 177.885 0 180.1C0 182.315 1.79534 184.11 4.01 184.11Z" fill="#DDDBDB"/>
<path d="M18.28 184.11C20.4947 184.11 22.29 182.315 22.29 180.1C22.29 177.885 20.4947 176.09 18.28 176.09C16.0654 176.09 14.27 177.885 14.27 180.1C14.27 182.315 16.0654 184.11 18.28 184.11Z" fill="#DDDBDB"/>
<path d="M32.54 184.11C34.7547 184.11 36.55 182.315 36.55 180.1C36.55 177.885 34.7547 176.09 32.54 176.09C30.3254 176.09 28.53 177.885 28.53 180.1C28.53 182.315 30.3254 184.11 32.54 184.11Z" fill="#DDDBDB"/>
<path d="M46.8 184.11C49.0147 184.11 50.81 182.315 50.81 180.1C50.81 177.885 49.0147 176.09 46.8 176.09C44.5854 176.09 42.79 177.885 42.79 180.1C42.79 182.315 44.5854 184.11 46.8 184.11Z" fill="#DDDBDB"/>
<path d="M61.0601 184.11C63.2747 184.11 65.07 182.315 65.07 180.1C65.07 177.885 63.2747 176.09 61.0601 176.09C58.8454 176.09 57.05 177.885 57.05 180.1C57.05 182.315 58.8454 184.11 61.0601 184.11Z" fill="#DDDBDB"/>
<path d="M75.3201 184.11C77.5347 184.11 79.3301 182.315 79.3301 180.1C79.3301 177.885 77.5347 176.09 75.3201 176.09C73.1054 176.09 71.3101 177.885 71.3101 180.1C71.3101 182.315 73.1054 184.11 75.3201 184.11Z" fill="#DDDBDB"/>
<path d="M89.5801 184.11C91.7947 184.11 93.5901 182.315 93.5901 180.1C93.5901 177.885 91.7947 176.09 89.5801 176.09C87.3654 176.09 85.5701 177.885 85.5701 180.1C85.5701 182.315 87.3654 184.11 89.5801 184.11Z" fill="#DDDBDB"/>
<path d="M103.85 184.11C106.065 184.11 107.86 182.315 107.86 180.1C107.86 177.885 106.065 176.09 103.85 176.09C101.635 176.09 99.8401 177.885 99.8401 180.1C99.8401 182.315 101.635 184.11 103.85 184.11Z" fill="#DDDBDB"/>
<path d="M11.1399 193.17C13.3545 193.17 15.1499 191.375 15.1499 189.16C15.1499 186.946 13.3545 185.15 11.1399 185.15C8.92522 185.15 7.12988 186.946 7.12988 189.16C7.12988 191.375 8.92522 193.17 11.1399 193.17Z" fill="#DDDBDB"/>
<path d="M25.4099 193.17C27.6246 193.17 29.4199 191.375 29.4199 189.16C29.4199 186.946 27.6246 185.15 25.4099 185.15C23.1952 185.15 21.3999 186.946 21.3999 189.16C21.3999 191.375 23.1952 193.17 25.4099 193.17Z" fill="#DDDBDB"/>
<path d="M39.6699 193.17C41.8846 193.17 43.6799 191.375 43.6799 189.16C43.6799 186.946 41.8846 185.15 39.6699 185.15C37.4552 185.15 35.6599 186.946 35.6599 189.16C35.6599 191.375 37.4552 193.17 39.6699 193.17Z" fill="#DDDBDB"/>
<path d="M53.9299 193.17C56.1446 193.17 57.9399 191.375 57.9399 189.16C57.9399 186.946 56.1446 185.15 53.9299 185.15C51.7153 185.15 49.9199 186.946 49.9199 189.16C49.9199 191.375 51.7153 193.17 53.9299 193.17Z" fill="#DDDBDB"/>
<path d="M68.1899 193.17C70.4046 193.17 72.1999 191.375 72.1999 189.16C72.1999 186.946 70.4046 185.15 68.1899 185.15C65.9753 185.15 64.1799 186.946 64.1799 189.16C64.1799 191.375 65.9753 193.17 68.1899 193.17Z" fill="#DDDBDB"/>
<path d="M82.4499 193.17C84.6646 193.17 86.4599 191.375 86.4599 189.16C86.4599 186.946 84.6646 185.15 82.4499 185.15C80.2353 185.15 78.4399 186.946 78.4399 189.16C78.4399 191.375 80.2353 193.17 82.4499 193.17Z" fill="#DDDBDB"/>
<path d="M96.72 193.17C98.9346 193.17 100.73 191.375 100.73 189.16C100.73 186.946 98.9346 185.15 96.72 185.15C94.5053 185.15 92.71 186.946 92.71 189.16C92.71 191.375 94.5053 193.17 96.72 193.17Z" fill="#DDDBDB"/>
<path d="M4.01 202.231C6.22466 202.231 8.02 200.436 8.02 198.221C8.02 196.006 6.22466 194.211 4.01 194.211C1.79534 194.211 0 196.006 0 198.221C0 200.436 1.79534 202.231 4.01 202.231Z" fill="#DDDBDB"/>
<path d="M18.28 202.231C20.4947 202.231 22.29 200.436 22.29 198.221C22.29 196.006 20.4947 194.211 18.28 194.211C16.0654 194.211 14.27 196.006 14.27 198.221C14.27 200.436 16.0654 202.231 18.28 202.231Z" fill="#DDDBDB"/>
<path d="M32.54 202.231C34.7547 202.231 36.55 200.436 36.55 198.221C36.55 196.006 34.7547 194.211 32.54 194.211C30.3254 194.211 28.53 196.006 28.53 198.221C28.53 200.436 30.3254 202.231 32.54 202.231Z" fill="#DDDBDB"/>
<path d="M46.8 202.231C49.0147 202.231 50.81 200.436 50.81 198.221C50.81 196.006 49.0147 194.211 46.8 194.211C44.5854 194.211 42.79 196.006 42.79 198.221C42.79 200.436 44.5854 202.231 46.8 202.231Z" fill="#DDDBDB"/>
<path d="M61.0601 202.231C63.2747 202.231 65.07 200.436 65.07 198.221C65.07 196.006 63.2747 194.211 61.0601 194.211C58.8454 194.211 57.05 196.006 57.05 198.221C57.05 200.436 58.8454 202.231 61.0601 202.231Z" fill="#DDDBDB"/>
<path d="M75.3201 202.231C77.5347 202.231 79.3301 200.436 79.3301 198.221C79.3301 196.006 77.5347 194.211 75.3201 194.211C73.1054 194.211 71.3101 196.006 71.3101 198.221C71.3101 200.436 73.1054 202.231 75.3201 202.231Z" fill="#DDDBDB"/>
<path d="M89.5801 202.231C91.7947 202.231 93.5901 200.436 93.5901 198.221C93.5901 196.006 91.7947 194.211 89.5801 194.211C87.3654 194.211 85.5701 196.006 85.5701 198.221C85.5701 200.436 87.3654 202.231 89.5801 202.231Z" fill="#DDDBDB"/>
<path d="M103.85 202.231C106.065 202.231 107.86 200.436 107.86 198.221C107.86 196.006 106.065 194.211 103.85 194.211C101.635 194.211 99.8401 196.006 99.8401 198.221C99.8401 200.436 101.635 202.231 103.85 202.231Z" fill="#DDDBDB"/>
<path d="M111.87 8.43016C114.085 8.43016 115.88 6.63482 115.88 4.42016C115.88 2.20549 114.085 0.410156 111.87 0.410156C109.655 0.410156 107.86 2.20549 107.86 4.42016C107.86 6.63482 109.655 8.43016 111.87 8.43016Z" fill="#DDDBDB"/>
<path d="M119 17.4907C121.215 17.4907 123.01 15.6954 123.01 13.4807C123.01 11.266 121.215 9.4707 119 9.4707C116.785 9.4707 114.99 11.266 114.99 13.4807C114.99 15.6954 116.785 17.4907 119 17.4907Z" fill="#DDDBDB"/>
<path d="M133.27 17.4907C135.485 17.4907 137.28 15.6954 137.28 13.4807C137.28 11.266 135.485 9.4707 133.27 9.4707C131.055 9.4707 129.26 11.266 129.26 13.4807C129.26 15.6954 131.055 17.4907 133.27 17.4907Z" fill="#DDDBDB"/>
<path d="M111.87 26.9399C114.085 26.9399 115.88 25.1446 115.88 22.9299C115.88 20.7153 114.085 18.9199 111.87 18.9199C109.655 18.9199 107.86 20.7153 107.86 22.9299C107.86 25.1446 109.655 26.9399 111.87 26.9399Z" fill="#DDDBDB"/>
<path d="M119 36.0005C121.215 36.0005 123.01 34.2051 123.01 31.9905C123.01 29.7758 121.215 27.9805 119 27.9805C116.785 27.9805 114.99 29.7758 114.99 31.9905C114.99 34.2051 116.785 36.0005 119 36.0005Z" fill="#DDDBDB"/>
<path d="M133.27 36.0005C135.485 36.0005 137.28 34.2051 137.28 31.9905C137.28 29.7758 135.485 27.9805 133.27 27.9805C131.055 27.9805 129.26 29.7758 129.26 31.9905C129.26 34.2051 131.055 36.0005 133.27 36.0005Z" fill="#DDDBDB"/>
<path d="M111.87 45.4595C114.085 45.4595 115.88 43.6641 115.88 41.4495C115.88 39.2348 114.085 37.4395 111.87 37.4395C109.655 37.4395 107.86 39.2348 107.86 41.4495C107.86 43.6641 109.655 45.4595 111.87 45.4595Z" fill="#DDDBDB"/>
<path d="M119 54.5102C121.215 54.5102 123.01 52.7149 123.01 50.5002C123.01 48.2856 121.215 46.4902 119 46.4902C116.785 46.4902 114.99 48.2856 114.99 50.5002C114.99 52.7149 116.785 54.5102 119 54.5102Z" fill="#DDDBDB"/>
<path d="M133.27 54.5102C135.485 54.5102 137.28 52.7149 137.28 50.5002C137.28 48.2856 135.485 46.4902 133.27 46.4902C131.055 46.4902 129.26 48.2856 129.26 50.5002C129.26 52.7149 131.055 54.5102 133.27 54.5102Z" fill="#DDDBDB"/>
<path d="M111.87 63.9692C114.085 63.9692 115.88 62.1739 115.88 59.9592C115.88 57.7446 114.085 55.9492 111.87 55.9492C109.655 55.9492 107.86 57.7446 107.86 59.9592C107.86 62.1739 109.655 63.9692 111.87 63.9692Z" fill="#DDDBDB"/>
<path d="M119 73.0298C121.215 73.0298 123.01 71.2344 123.01 69.0198C123.01 66.8051 121.215 65.0098 119 65.0098C116.785 65.0098 114.99 66.8051 114.99 69.0198C114.99 71.2344 116.785 73.0298 119 73.0298Z" fill="#DDDBDB"/>
<path d="M133.27 73.0298C135.485 73.0298 137.28 71.2344 137.28 69.0198C137.28 66.8051 135.485 65.0098 133.27 65.0098C131.055 65.0098 129.26 66.8051 129.26 69.0198C129.26 71.2344 131.055 73.0298 133.27 73.0298Z" fill="#DDDBDB"/>
<path d="M111.87 82.4809C114.085 82.4809 115.88 80.6856 115.88 78.4709C115.88 76.2563 114.085 74.4609 111.87 74.4609C109.655 74.4609 107.86 76.2563 107.86 78.4709C107.86 80.6856 109.655 82.4809 111.87 82.4809Z" fill="#DDDBDB"/>
<path d="M119 91.5395C121.215 91.5395 123.01 89.7442 123.01 87.5295C123.01 85.3149 121.215 83.5195 119 83.5195C116.785 83.5195 114.99 85.3149 114.99 87.5295C114.99 89.7442 116.785 91.5395 119 91.5395Z" fill="#DDDBDB"/>
<path d="M133.27 91.5395C135.485 91.5395 137.28 89.7442 137.28 87.5295C137.28 85.3149 135.485 83.5195 133.27 83.5195C131.055 83.5195 129.26 85.3149 129.26 87.5295C129.26 89.7442 131.055 91.5395 133.27 91.5395Z" fill="#DDDBDB"/>
<path d="M111.87 101C114.085 101 115.88 99.2051 115.88 96.9905C115.88 94.7758 114.085 92.9805 111.87 92.9805C109.655 92.9805 107.86 94.7758 107.86 96.9905C107.86 99.2051 109.655 101 111.87 101Z" fill="#DDDBDB"/>
<path d="M119 110.059C121.215 110.059 123.01 108.264 123.01 106.049C123.01 103.834 121.215 102.039 119 102.039C116.785 102.039 114.99 103.834 114.99 106.049C114.99 108.264 116.785 110.059 119 110.059Z" fill="#DDDBDB"/>
<path d="M133.27 110.059C135.485 110.059 137.28 108.264 137.28 106.049C137.28 103.834 135.485 102.039 133.27 102.039C131.055 102.039 129.26 103.834 129.26 106.049C129.26 108.264 131.055 110.059 133.27 110.059Z" fill="#DDDBDB"/>
<path d="M111.87 119.51C114.085 119.51 115.88 117.715 115.88 115.5C115.88 113.286 114.085 111.49 111.87 111.49C109.655 111.49 107.86 113.286 107.86 115.5C107.86 117.715 109.655 119.51 111.87 119.51Z" fill="#DDDBDB"/>
<path d="M119 128.571C121.215 128.571 123.01 126.775 123.01 124.561C123.01 122.346 121.215 120.551 119 120.551C116.785 120.551 114.99 122.346 114.99 124.561C114.99 126.775 116.785 128.571 119 128.571Z" fill="#DDDBDB"/>
<path d="M133.27 128.571C135.485 128.571 137.28 126.775 137.28 124.561C137.28 122.346 135.485 120.551 133.27 120.551C131.055 120.551 129.26 122.346 129.26 124.561C129.26 126.775 131.055 128.571 133.27 128.571Z" fill="#DDDBDB"/>
<path d="M111.87 138.03C114.085 138.03 115.88 136.234 115.88 134.02C115.88 131.805 114.085 130.01 111.87 130.01C109.655 130.01 107.86 131.805 107.86 134.02C107.86 136.234 109.655 138.03 111.87 138.03Z" fill="#DDDBDB"/>
<path d="M119 147.09C121.215 147.09 123.01 145.295 123.01 143.08C123.01 140.866 121.215 139.07 119 139.07C116.785 139.07 114.99 140.866 114.99 143.08C114.99 145.295 116.785 147.09 119 147.09Z" fill="#DDDBDB"/>
<path d="M133.27 147.09C135.485 147.09 137.28 145.295 137.28 143.08C137.28 140.866 135.485 139.07 133.27 139.07C131.055 139.07 129.26 140.866 129.26 143.08C129.26 145.295 131.055 147.09 133.27 147.09Z" fill="#DDDBDB"/>
<path d="M111.87 156.54C114.085 156.54 115.88 154.744 115.88 152.53C115.88 150.315 114.085 148.52 111.87 148.52C109.655 148.52 107.86 150.315 107.86 152.53C107.86 154.744 109.655 156.54 111.87 156.54Z" fill="#DDDBDB"/>
<path d="M119 165.6C121.215 165.6 123.01 163.805 123.01 161.59C123.01 159.375 121.215 157.58 119 157.58C116.785 157.58 114.99 159.375 114.99 161.59C114.99 163.805 116.785 165.6 119 165.6Z" fill="#DDDBDB"/>
<path d="M133.27 165.6C135.485 165.6 137.28 163.805 137.28 161.59C137.28 159.375 135.485 157.58 133.27 157.58C131.055 157.58 129.26 159.375 129.26 161.59C129.26 163.805 131.055 165.6 133.27 165.6Z" fill="#DDDBDB"/>
<path d="M111.87 175.059C114.085 175.059 115.88 173.264 115.88 171.049C115.88 168.834 114.085 167.039 111.87 167.039C109.655 167.039 107.86 168.834 107.86 171.049C107.86 173.264 109.655 175.059 111.87 175.059Z" fill="#DDDBDB"/>
<path d="M119 184.11C121.215 184.11 123.01 182.315 123.01 180.1C123.01 177.885 121.215 176.09 119 176.09C116.785 176.09 114.99 177.885 114.99 180.1C114.99 182.315 116.785 184.11 119 184.11Z" fill="#DDDBDB"/>
<path d="M133.27 184.11C135.485 184.11 137.28 182.315 137.28 180.1C137.28 177.885 135.485 176.09 133.27 176.09C131.055 176.09 129.26 177.885 129.26 180.1C129.26 182.315 131.055 184.11 133.27 184.11Z" fill="#DDDBDB"/>
<path d="M111.87 193.17C114.085 193.17 115.88 191.375 115.88 189.16C115.88 186.946 114.085 185.15 111.87 185.15C109.655 185.15 107.86 186.946 107.86 189.16C107.86 191.375 109.655 193.17 111.87 193.17Z" fill="#DDDBDB"/>
<path d="M119 202.231C121.215 202.231 123.01 200.436 123.01 198.221C123.01 196.006 121.215 194.211 119 194.211C116.785 194.211 114.99 196.006 114.99 198.221C114.99 200.436 116.785 202.231 119 202.231Z" fill="#DDDBDB"/>
<path d="M133.27 202.231C135.485 202.231 137.28 200.436 137.28 198.221C137.28 196.006 135.485 194.211 133.27 194.211C131.055 194.211 129.26 196.006 129.26 198.221C129.26 200.436 131.055 202.231 133.27 202.231Z" fill="#DDDBDB"/>
<path d="M126.38 202.311C125.55 202.311 124.88 201.641 124.88 200.811V199.311C124.88 198.481 125.55 197.811 126.38 197.811C127.21 197.811 127.88 198.481 127.88 199.311V200.811C127.88 201.641 127.21 202.311 126.38 202.311Z" fill="black"/>
<path d="M126.38 193.829C125.55 193.829 124.88 193.159 124.88 192.329V189.339C124.88 188.509 125.55 187.839 126.38 187.839C127.21 187.839 127.88 188.509 127.88 189.339V192.329C127.88 193.159 127.21 193.829 126.38 193.829ZM126.38 183.869C125.55 183.869 124.88 183.199 124.88 182.369V179.379C124.88 178.549 125.55 177.879 126.38 177.879C127.21 177.879 127.88 178.549 127.88 179.379V182.369C127.88 183.199 127.21 183.869 126.38 183.869ZM126.38 173.909C125.55 173.909 124.88 173.239 124.88 172.409V169.419C124.88 168.589 125.55 167.919 126.38 167.919C127.21 167.919 127.88 168.589 127.88 169.419V172.409C127.88 173.239 127.21 173.909 126.38 173.909ZM126.38 163.949C125.55 163.949 124.88 163.279 124.88 162.449V159.459C124.88 158.629 125.55 157.959 126.38 157.959C127.21 157.959 127.88 158.629 127.88 159.459V162.449C127.88 163.279 127.21 163.949 126.38 163.949ZM126.38 153.979C125.55 153.979 124.88 153.309 124.88 152.479V149.489C124.88 148.659 125.55 147.989 126.38 147.989C127.21 147.989 127.88 148.659 127.88 149.489V152.479C127.88 153.309 127.21 153.979 126.38 153.979ZM126.38 144.019C125.55 144.019 124.88 143.349 124.88 142.519V139.529C124.88 138.699 125.55 138.029 126.38 138.029C127.21 138.029 127.88 138.699 127.88 139.529V142.519C127.88 143.349 127.21 144.019 126.38 144.019ZM126.38 134.059C125.55 134.059 124.88 133.389 124.88 132.559V129.569C124.88 128.739 125.55 128.069 126.38 128.069C127.21 128.069 127.88 128.739 127.88 129.569V132.559C127.88 133.389 127.21 134.059 126.38 134.059ZM126.38 124.099C125.55 124.099 124.88 123.429 124.88 122.599V119.609C124.88 118.779 125.55 118.109 126.38 118.109C127.21 118.109 127.88 118.779 127.88 119.609V122.599C127.88 123.429 127.21 124.099 126.38 124.099ZM126.38 114.139C125.55 114.139 124.88 113.469 124.88 112.639V109.649C124.88 108.819 125.55 108.149 126.38 108.149C127.21 108.149 127.88 108.819 127.88 109.649V112.639C127.88 113.469 127.21 114.139 126.38 114.139ZM126.38 104.179C125.55 104.179 124.88 103.509 124.88 102.679V99.6891C124.88 98.8591 125.55 98.1891 126.38 98.1891C127.21 98.1891 127.88 98.8591 127.88 99.6891V102.679C127.88 103.509 127.21 104.179 126.38 104.179ZM126.38 94.2191C125.55 94.2191 124.88 93.5491 124.88 92.7191V89.7291C124.88 88.8991 125.55 88.2291 126.38 88.2291C127.21 88.2291 127.88 88.8991 127.88 89.7291V92.7191C127.88 93.5491 127.21 94.2191 126.38 94.2191ZM126.38 84.2591C125.55 84.2591 124.88 83.5891 124.88 82.7591V79.7691C124.88 78.9391 125.55 78.2691 126.38 78.2691C127.21 78.2691 127.88 78.9391 127.88 79.7691V82.7591C127.88 83.5891 127.21 84.2591 126.38 84.2591ZM126.38 74.2891C125.55 74.2891 124.88 73.6191 124.88 72.7891V69.7991C124.88 68.9691 125.55 68.2991 126.38 68.2991C127.21 68.2991 127.88 68.9691 127.88 69.7991V72.7891C127.88 73.6191 127.21 74.2891 126.38 74.2891ZM126.38 64.3291C125.55 64.3291 124.88 63.6591 124.88 62.8291V59.8391C124.88 59.0091 125.55 58.3391 126.38 58.3391C127.21 58.3391 127.88 59.0091 127.88 59.8391V62.8291C127.88 63.6591 127.21 64.3291 126.38 64.3291ZM126.38 54.3691C125.55 54.3691 124.88 53.6991 124.88 52.8691V49.8791C124.88 49.0491 125.55 48.3791 126.38 48.3791C127.21 48.3791 127.88 49.0491 127.88 49.8791V52.8691C127.88 53.6991 127.21 54.3691 126.38 54.3691ZM126.38 44.4091C125.55 44.4091 124.88 43.7391 124.88 42.9091V39.9191C124.88 39.0891 125.55 38.4191 126.38 38.4191C127.21 38.4191 127.88 39.0891 127.88 39.9191V42.9091C127.88 43.7391 127.21 44.4091 126.38 44.4091ZM126.38 34.4491C125.55 34.4491 124.88 33.7791 124.88 32.9491V29.9591C124.88 29.1291 125.55 28.4591 126.38 28.4591C127.21 28.4591 127.88 29.1291 127.88 29.9591V32.9491C127.88 33.7791 127.21 34.4491 126.38 34.4491ZM126.38 24.4891C125.55 24.4891 124.88 23.8191 124.88 22.9891V19.9991C124.88 19.1691 125.55 18.4991 126.38 18.4991C127.21 18.4991 127.88 19.1691 127.88 19.9991V22.9891C127.88 23.8191 127.21 24.4891 126.38 24.4891ZM126.38 14.5291C125.55 14.5291 124.88 13.8591 124.88 13.0291V10.0391C124.88 9.20906 125.55 8.53906 126.38 8.53906C127.21 8.53906 127.88 9.20906 127.88 10.0391V13.0291C127.88 13.8591 127.21 14.5291 126.38 14.5291Z" fill="black"/>
<path d="M126.38 4.5C125.55 4.5 124.88 3.83 124.88 3V1.5C124.88 0.67 125.55 0 126.38 0C127.21 0 127.88 0.67 127.88 1.5V3C127.88 3.83 127.21 4.5 126.38 4.5Z" fill="black"/>
<path d="M141.01 202.31C140.18 202.31 139.51 201.64 139.51 200.81V1.5C139.51 0.67 140.18 0 141.01 0C141.84 0 142.51 0.67 142.51 1.5V200.81C142.51 201.64 141.84 202.31 141.01 202.31Z" fill="black"/>
<path d="M167.36 30.0392H153.8L158.67 34.9092L155.86 37.7092L146.23 28.0792L155.86 18.4492L158.67 21.2492L153.85 26.0692H167.41L167.36 30.0392Z" fill="black"/>
<path d="M167.36 102.17H153.8L158.67 107.04L155.86 109.84L146.23 100.21L155.86 90.5801L158.67 93.3801L153.85 98.2001H167.41L167.36 102.17Z" fill="black"/>
<path d="M167.36 176.83H153.8L158.67 181.69L155.86 184.49L146.23 174.86L155.86 165.23L158.67 168.03L153.85 172.85H167.41L167.36 176.83Z" fill="black"/>
</g>
<defs>
<clipPath id="clip0_1583_4607">
<rect width="167.41" height="202.31" fill="white"/>
</clipPath>
</defs>
</svg>
