<svg width="176" height="211" viewBox="0 0 176 211" fill="none" xmlns="http://www.w3.org/2000/svg">
<g clip-path="url(#clip0_1015_950)" filter="url(#filter0_d_1015_950)">
<path d="M15.1409 8.43016C17.3555 8.43016 19.1509 6.63482 19.1509 4.42016C19.1509 2.20549 17.3555 0.410156 15.1409 0.410156C12.9262 0.410156 11.1309 2.20549 11.1309 4.42016C11.1309 6.63482 12.9262 8.43016 15.1409 8.43016Z" fill="#DDDBDB"/>
<path d="M29.4104 8.43016C31.6251 8.43016 33.4204 6.63482 33.4204 4.42016C33.4204 2.20549 31.6251 0.410156 29.4104 0.410156C27.1957 0.410156 25.4004 2.20549 25.4004 4.42016C25.4004 6.63482 27.1957 8.43016 29.4104 8.43016Z" fill="#DDDBDB"/>
<path d="M43.6702 8.43016C45.8848 8.43016 47.6802 6.63482 47.6802 4.42016C47.6802 2.20549 45.8848 0.410156 43.6702 0.410156C41.4555 0.410156 39.6602 2.20549 39.6602 4.42016C39.6602 6.63482 41.4555 8.43016 43.6702 8.43016Z" fill="#DDDBDB"/>
<path d="M57.9299 8.43016C60.1446 8.43016 61.9399 6.63482 61.9399 4.42016C61.9399 2.20549 60.1446 0.410156 57.9299 0.410156C55.7153 0.410156 53.9199 2.20549 53.9199 4.42016C53.9199 6.63482 55.7153 8.43016 57.9299 8.43016Z" fill="#DDDBDB"/>
<path d="M72.1897 8.43016C74.4044 8.43016 76.1997 6.63482 76.1997 4.42016C76.1997 2.20549 74.4044 0.410156 72.1897 0.410156C69.975 0.410156 68.1797 2.20549 68.1797 4.42016C68.1797 6.63482 69.975 8.43016 72.1897 8.43016Z" fill="#DDDBDB"/>
<path d="M86.4494 8.43016C88.6641 8.43016 90.4594 6.63482 90.4594 4.42016C90.4594 2.20549 88.6641 0.410156 86.4494 0.410156C84.2348 0.410156 82.4395 2.20549 82.4395 4.42016C82.4395 6.63482 84.2348 8.43016 86.4494 8.43016Z" fill="#DDDBDB"/>
<path d="M100.721 8.43016C102.936 8.43016 104.731 6.63482 104.731 4.42016C104.731 2.20549 102.936 0.410156 100.721 0.410156C98.5063 0.410156 96.7109 2.20549 96.7109 4.42016C96.7109 6.63482 98.5063 8.43016 100.721 8.43016Z" fill="#DDDBDB"/>
<path d="M8.01 17.4902C10.2247 17.4902 12.02 15.6949 12.02 13.4802C12.02 11.2656 10.2247 9.47021 8.01 9.47021C5.79534 9.47021 4 11.2656 4 13.4802C4 15.6949 5.79534 17.4902 8.01 17.4902Z" fill="#DDDBDB"/>
<path d="M22.2795 17.4902C24.4942 17.4902 26.2895 15.6949 26.2895 13.4802C26.2895 11.2656 24.4942 9.47021 22.2795 9.47021C20.0649 9.47021 18.2695 11.2656 18.2695 13.4802C18.2695 15.6949 20.0649 17.4902 22.2795 17.4902Z" fill="#DDDBDB"/>
<path d="M36.5393 17.4902C38.754 17.4902 40.5493 15.6949 40.5493 13.4802C40.5493 11.2656 38.754 9.47021 36.5393 9.47021C34.3246 9.47021 32.5293 11.2656 32.5293 13.4802C32.5293 15.6949 34.3246 17.4902 36.5393 17.4902Z" fill="#DDDBDB"/>
<path d="M50.7991 17.4902C53.0137 17.4902 54.8091 15.6949 54.8091 13.4802C54.8091 11.2656 53.0137 9.47021 50.7991 9.47021C48.5844 9.47021 46.7891 11.2656 46.7891 13.4802C46.7891 15.6949 48.5844 17.4902 50.7991 17.4902Z" fill="#DDDBDB"/>
<path d="M65.0608 17.4902C67.2754 17.4902 69.0708 15.6949 69.0708 13.4802C69.0708 11.2656 67.2754 9.47021 65.0608 9.47021C62.8461 9.47021 61.0508 11.2656 61.0508 13.4802C61.0508 15.6949 62.8461 17.4902 65.0608 17.4902Z" fill="#DDDBDB"/>
<path d="M79.3205 17.4902C81.5352 17.4902 83.3306 15.6949 83.3306 13.4802C83.3306 11.2656 81.5352 9.47021 79.3205 9.47021C77.1059 9.47021 75.3105 11.2656 75.3105 13.4802C75.3105 15.6949 77.1059 17.4902 79.3205 17.4902Z" fill="#DDDBDB"/>
<path d="M93.5803 17.4902C95.795 17.4902 97.5903 15.6949 97.5903 13.4802C97.5903 11.2656 95.795 9.47021 93.5803 9.47021C91.3657 9.47021 89.5703 11.2656 89.5703 13.4802C89.5703 15.6949 91.3657 17.4902 93.5803 17.4902Z" fill="#DDDBDB"/>
<path d="M107.85 17.4902C110.065 17.4902 111.86 15.6949 111.86 13.4802C111.86 11.2656 110.065 9.47021 107.85 9.47021C105.635 9.47021 103.84 11.2656 103.84 13.4802C103.84 15.6949 105.635 17.4902 107.85 17.4902Z" fill="#DDDBDB"/>
<path d="M15.1409 26.9399C17.3555 26.9399 19.1509 25.1446 19.1509 22.9299C19.1509 20.7153 17.3555 18.9199 15.1409 18.9199C12.9262 18.9199 11.1309 20.7153 11.1309 22.9299C11.1309 25.1446 12.9262 26.9399 15.1409 26.9399Z" fill="#DDDBDB"/>
<path d="M29.4104 26.9399C31.6251 26.9399 33.4204 25.1446 33.4204 22.9299C33.4204 20.7153 31.6251 18.9199 29.4104 18.9199C27.1957 18.9199 25.4004 20.7153 25.4004 22.9299C25.4004 25.1446 27.1957 26.9399 29.4104 26.9399Z" fill="#DDDBDB"/>
<path d="M43.6702 26.9399C45.8848 26.9399 47.6802 25.1446 47.6802 22.9299C47.6802 20.7153 45.8848 18.9199 43.6702 18.9199C41.4555 18.9199 39.6602 20.7153 39.6602 22.9299C39.6602 25.1446 41.4555 26.9399 43.6702 26.9399Z" fill="#DDDBDB"/>
<path d="M57.9299 26.9399C60.1446 26.9399 61.9399 25.1446 61.9399 22.9299C61.9399 20.7153 60.1446 18.9199 57.9299 18.9199C55.7153 18.9199 53.9199 20.7153 53.9199 22.9299C53.9199 25.1446 55.7153 26.9399 57.9299 26.9399Z" fill="#DDDBDB"/>
<path d="M72.1897 26.9399C74.4044 26.9399 76.1997 25.1446 76.1997 22.9299C76.1997 20.7153 74.4044 18.9199 72.1897 18.9199C69.975 18.9199 68.1797 20.7153 68.1797 22.9299C68.1797 25.1446 69.975 26.9399 72.1897 26.9399Z" fill="#DDDBDB"/>
<path d="M86.4494 26.9399C88.6641 26.9399 90.4594 25.1446 90.4594 22.9299C90.4594 20.7153 88.6641 18.9199 86.4494 18.9199C84.2348 18.9199 82.4395 20.7153 82.4395 22.9299C82.4395 25.1446 84.2348 26.9399 86.4494 26.9399Z" fill="#DDDBDB"/>
<path d="M100.721 26.9399C102.936 26.9399 104.731 25.1446 104.731 22.9299C104.731 20.7153 102.936 18.9199 100.721 18.9199C98.5063 18.9199 96.7109 20.7153 96.7109 22.9299C96.7109 25.1446 98.5063 26.9399 100.721 26.9399Z" fill="#DDDBDB"/>
<path d="M8.01 36C10.2247 36 12.02 34.2046 12.02 31.99C12.02 29.7753 10.2247 27.98 8.01 27.98C5.79534 27.98 4 29.7753 4 31.99C4 34.2046 5.79534 36 8.01 36Z" fill="#DDDBDB"/>
<path d="M22.2795 36C24.4942 36 26.2895 34.2046 26.2895 31.99C26.2895 29.7753 24.4942 27.98 22.2795 27.98C20.0649 27.98 18.2695 29.7753 18.2695 31.99C18.2695 34.2046 20.0649 36 22.2795 36Z" fill="#DDDBDB"/>
<path d="M36.5393 36C38.754 36 40.5493 34.2046 40.5493 31.99C40.5493 29.7753 38.754 27.98 36.5393 27.98C34.3246 27.98 32.5293 29.7753 32.5293 31.99C32.5293 34.2046 34.3246 36 36.5393 36Z" fill="#DDDBDB"/>
<path d="M50.7991 36C53.0137 36 54.8091 34.2046 54.8091 31.99C54.8091 29.7753 53.0137 27.98 50.7991 27.98C48.5844 27.98 46.7891 29.7753 46.7891 31.99C46.7891 34.2046 48.5844 36 50.7991 36Z" fill="#DDDBDB"/>
<path d="M65.0608 36C67.2754 36 69.0708 34.2046 69.0708 31.99C69.0708 29.7753 67.2754 27.98 65.0608 27.98C62.8461 27.98 61.0508 29.7753 61.0508 31.99C61.0508 34.2046 62.8461 36 65.0608 36Z" fill="#DDDBDB"/>
<path d="M79.3205 36C81.5352 36 83.3306 34.2046 83.3306 31.99C83.3306 29.7753 81.5352 27.98 79.3205 27.98C77.1059 27.98 75.3105 29.7753 75.3105 31.99C75.3105 34.2046 77.1059 36 79.3205 36Z" fill="#DDDBDB"/>
<path d="M93.5803 36C95.795 36 97.5903 34.2046 97.5903 31.99C97.5903 29.7753 95.795 27.98 93.5803 27.98C91.3657 27.98 89.5703 29.7753 89.5703 31.99C89.5703 34.2046 91.3657 36 93.5803 36Z" fill="#DDDBDB"/>
<path d="M107.85 36C110.065 36 111.86 34.2046 111.86 31.99C111.86 29.7753 110.065 27.98 107.85 27.98C105.635 27.98 103.84 29.7753 103.84 31.99C103.84 34.2046 105.635 36 107.85 36Z" fill="#DDDBDB"/>
<path d="M15.1409 45.4599C17.3555 45.4599 19.1509 43.6646 19.1509 41.4499C19.1509 39.2353 17.3555 37.4399 15.1409 37.4399C12.9262 37.4399 11.1309 39.2353 11.1309 41.4499C11.1309 43.6646 12.9262 45.4599 15.1409 45.4599Z" fill="#DDDBDB"/>
<path d="M29.4104 45.4599C31.6251 45.4599 33.4204 43.6646 33.4204 41.4499C33.4204 39.2353 31.6251 37.4399 29.4104 37.4399C27.1957 37.4399 25.4004 39.2353 25.4004 41.4499C25.4004 43.6646 27.1957 45.4599 29.4104 45.4599Z" fill="#DDDBDB"/>
<path d="M43.6702 45.4599C45.8848 45.4599 47.6802 43.6646 47.6802 41.4499C47.6802 39.2353 45.8848 37.4399 43.6702 37.4399C41.4555 37.4399 39.6602 39.2353 39.6602 41.4499C39.6602 43.6646 41.4555 45.4599 43.6702 45.4599Z" fill="#DDDBDB"/>
<path d="M57.9299 45.4599C60.1446 45.4599 61.9399 43.6646 61.9399 41.4499C61.9399 39.2353 60.1446 37.4399 57.9299 37.4399C55.7153 37.4399 53.9199 39.2353 53.9199 41.4499C53.9199 43.6646 55.7153 45.4599 57.9299 45.4599Z" fill="#DDDBDB"/>
<path d="M72.1897 45.4599C74.4044 45.4599 76.1997 43.6646 76.1997 41.4499C76.1997 39.2353 74.4044 37.4399 72.1897 37.4399C69.975 37.4399 68.1797 39.2353 68.1797 41.4499C68.1797 43.6646 69.975 45.4599 72.1897 45.4599Z" fill="#DDDBDB"/>
<path d="M86.4494 45.4599C88.6641 45.4599 90.4594 43.6646 90.4594 41.4499C90.4594 39.2353 88.6641 37.4399 86.4494 37.4399C84.2348 37.4399 82.4395 39.2353 82.4395 41.4499C82.4395 43.6646 84.2348 45.4599 86.4494 45.4599Z" fill="#DDDBDB"/>
<path d="M100.721 45.4599C102.936 45.4599 104.731 43.6646 104.731 41.4499C104.731 39.2353 102.936 37.4399 100.721 37.4399C98.5063 37.4399 96.7109 39.2353 96.7109 41.4499C96.7109 43.6646 98.5063 45.4599 100.721 45.4599Z" fill="#DDDBDB"/>
<path d="M8.01 54.5102C10.2247 54.5102 12.02 52.7149 12.02 50.5002C12.02 48.2856 10.2247 46.4902 8.01 46.4902C5.79534 46.4902 4 48.2856 4 50.5002C4 52.7149 5.79534 54.5102 8.01 54.5102Z" fill="#DDDBDB"/>
<path d="M22.2795 54.5102C24.4942 54.5102 26.2895 52.7149 26.2895 50.5002C26.2895 48.2856 24.4942 46.4902 22.2795 46.4902C20.0649 46.4902 18.2695 48.2856 18.2695 50.5002C18.2695 52.7149 20.0649 54.5102 22.2795 54.5102Z" fill="#DDDBDB"/>
<path d="M36.5393 54.5102C38.754 54.5102 40.5493 52.7149 40.5493 50.5002C40.5493 48.2856 38.754 46.4902 36.5393 46.4902C34.3246 46.4902 32.5293 48.2856 32.5293 50.5002C32.5293 52.7149 34.3246 54.5102 36.5393 54.5102Z" fill="#DDDBDB"/>
<path d="M50.7991 54.5102C53.0137 54.5102 54.8091 52.7149 54.8091 50.5002C54.8091 48.2856 53.0137 46.4902 50.7991 46.4902C48.5844 46.4902 46.7891 48.2856 46.7891 50.5002C46.7891 52.7149 48.5844 54.5102 50.7991 54.5102Z" fill="#DDDBDB"/>
<path d="M65.0608 54.5102C67.2754 54.5102 69.0708 52.7149 69.0708 50.5002C69.0708 48.2856 67.2754 46.4902 65.0608 46.4902C62.8461 46.4902 61.0508 48.2856 61.0508 50.5002C61.0508 52.7149 62.8461 54.5102 65.0608 54.5102Z" fill="#DDDBDB"/>
<path d="M79.3205 54.5102C81.5352 54.5102 83.3306 52.7149 83.3306 50.5002C83.3306 48.2856 81.5352 46.4902 79.3205 46.4902C77.1059 46.4902 75.3105 48.2856 75.3105 50.5002C75.3105 52.7149 77.1059 54.5102 79.3205 54.5102Z" fill="#DDDBDB"/>
<path d="M93.5803 54.5102C95.795 54.5102 97.5903 52.7149 97.5903 50.5002C97.5903 48.2856 95.795 46.4902 93.5803 46.4902C91.3657 46.4902 89.5703 48.2856 89.5703 50.5002C89.5703 52.7149 91.3657 54.5102 93.5803 54.5102Z" fill="#DDDBDB"/>
<path d="M107.85 54.5102C110.065 54.5102 111.86 52.7149 111.86 50.5002C111.86 48.2856 110.065 46.4902 107.85 46.4902C105.635 46.4902 103.84 48.2856 103.84 50.5002C103.84 52.7149 105.635 54.5102 107.85 54.5102Z" fill="#DDDBDB"/>
<path d="M15.1409 63.9702C17.3555 63.9702 19.1509 62.1749 19.1509 59.9602C19.1509 57.7455 17.3555 55.9502 15.1409 55.9502C12.9262 55.9502 11.1309 57.7455 11.1309 59.9602C11.1309 62.1749 12.9262 63.9702 15.1409 63.9702Z" fill="#DDDBDB"/>
<path d="M29.4104 63.9702C31.6251 63.9702 33.4204 62.1749 33.4204 59.9602C33.4204 57.7455 31.6251 55.9502 29.4104 55.9502C27.1957 55.9502 25.4004 57.7455 25.4004 59.9602C25.4004 62.1749 27.1957 63.9702 29.4104 63.9702Z" fill="#DDDBDB"/>
<path d="M43.6702 63.9702C45.8848 63.9702 47.6802 62.1749 47.6802 59.9602C47.6802 57.7455 45.8848 55.9502 43.6702 55.9502C41.4555 55.9502 39.6602 57.7455 39.6602 59.9602C39.6602 62.1749 41.4555 63.9702 43.6702 63.9702Z" fill="#DDDBDB"/>
<path d="M57.9299 63.9702C60.1446 63.9702 61.9399 62.1749 61.9399 59.9602C61.9399 57.7455 60.1446 55.9502 57.9299 55.9502C55.7153 55.9502 53.9199 57.7455 53.9199 59.9602C53.9199 62.1749 55.7153 63.9702 57.9299 63.9702Z" fill="#DDDBDB"/>
<path d="M72.1897 63.9702C74.4044 63.9702 76.1997 62.1749 76.1997 59.9602C76.1997 57.7455 74.4044 55.9502 72.1897 55.9502C69.975 55.9502 68.1797 57.7455 68.1797 59.9602C68.1797 62.1749 69.975 63.9702 72.1897 63.9702Z" fill="#DDDBDB"/>
<path d="M86.4494 63.9702C88.6641 63.9702 90.4594 62.1749 90.4594 59.9602C90.4594 57.7455 88.6641 55.9502 86.4494 55.9502C84.2348 55.9502 82.4395 57.7455 82.4395 59.9602C82.4395 62.1749 84.2348 63.9702 86.4494 63.9702Z" fill="#DDDBDB"/>
<path d="M100.721 63.9702C102.936 63.9702 104.731 62.1749 104.731 59.9602C104.731 57.7455 102.936 55.9502 100.721 55.9502C98.5063 55.9502 96.7109 57.7455 96.7109 59.9602C96.7109 62.1749 98.5063 63.9702 100.721 63.9702Z" fill="#DDDBDB"/>
<path d="M8.01 73.0298C10.2247 73.0298 12.02 71.2344 12.02 69.0198C12.02 66.8051 10.2247 65.0098 8.01 65.0098C5.79534 65.0098 4 66.8051 4 69.0198C4 71.2344 5.79534 73.0298 8.01 73.0298Z" fill="#DDDBDB"/>
<path d="M22.2795 73.0298C24.4942 73.0298 26.2895 71.2344 26.2895 69.0198C26.2895 66.8051 24.4942 65.0098 22.2795 65.0098C20.0649 65.0098 18.2695 66.8051 18.2695 69.0198C18.2695 71.2344 20.0649 73.0298 22.2795 73.0298Z" fill="#DDDBDB"/>
<path d="M36.5393 73.0298C38.754 73.0298 40.5493 71.2344 40.5493 69.0198C40.5493 66.8051 38.754 65.0098 36.5393 65.0098C34.3246 65.0098 32.5293 66.8051 32.5293 69.0198C32.5293 71.2344 34.3246 73.0298 36.5393 73.0298Z" fill="#DDDBDB"/>
<path d="M50.7991 73.0298C53.0137 73.0298 54.8091 71.2344 54.8091 69.0198C54.8091 66.8051 53.0137 65.0098 50.7991 65.0098C48.5844 65.0098 46.7891 66.8051 46.7891 69.0198C46.7891 71.2344 48.5844 73.0298 50.7991 73.0298Z" fill="#DDDBDB"/>
<path d="M65.0608 73.0298C67.2754 73.0298 69.0708 71.2344 69.0708 69.0198C69.0708 66.8051 67.2754 65.0098 65.0608 65.0098C62.8461 65.0098 61.0508 66.8051 61.0508 69.0198C61.0508 71.2344 62.8461 73.0298 65.0608 73.0298Z" fill="#DDDBDB"/>
<path d="M79.3205 73.0298C81.5352 73.0298 83.3306 71.2344 83.3306 69.0198C83.3306 66.8051 81.5352 65.0098 79.3205 65.0098C77.1059 65.0098 75.3105 66.8051 75.3105 69.0198C75.3105 71.2344 77.1059 73.0298 79.3205 73.0298Z" fill="#DDDBDB"/>
<path d="M93.5803 73.0298C95.795 73.0298 97.5903 71.2344 97.5903 69.0198C97.5903 66.8051 95.795 65.0098 93.5803 65.0098C91.3657 65.0098 89.5703 66.8051 89.5703 69.0198C89.5703 71.2344 91.3657 73.0298 93.5803 73.0298Z" fill="#DDDBDB"/>
<path d="M107.85 73.0298C110.065 73.0298 111.86 71.2344 111.86 69.0198C111.86 66.8051 110.065 65.0098 107.85 65.0098C105.635 65.0098 103.84 66.8051 103.84 69.0198C103.84 71.2344 105.635 73.0298 107.85 73.0298Z" fill="#DDDBDB"/>
<path d="M15.1409 82.48C17.3555 82.48 19.1509 80.6846 19.1509 78.47C19.1509 76.2553 17.3555 74.46 15.1409 74.46C12.9262 74.46 11.1309 76.2553 11.1309 78.47C11.1309 80.6846 12.9262 82.48 15.1409 82.48Z" fill="#DDDBDB"/>
<path d="M29.4104 82.48C31.6251 82.48 33.4204 80.6846 33.4204 78.47C33.4204 76.2553 31.6251 74.46 29.4104 74.46C27.1957 74.46 25.4004 76.2553 25.4004 78.47C25.4004 80.6846 27.1957 82.48 29.4104 82.48Z" fill="#DDDBDB"/>
<path d="M43.6702 82.48C45.8848 82.48 47.6802 80.6846 47.6802 78.47C47.6802 76.2553 45.8848 74.46 43.6702 74.46C41.4555 74.46 39.6602 76.2553 39.6602 78.47C39.6602 80.6846 41.4555 82.48 43.6702 82.48Z" fill="#DDDBDB"/>
<path d="M57.9299 82.48C60.1446 82.48 61.9399 80.6846 61.9399 78.47C61.9399 76.2553 60.1446 74.46 57.9299 74.46C55.7153 74.46 53.9199 76.2553 53.9199 78.47C53.9199 80.6846 55.7153 82.48 57.9299 82.48Z" fill="#DDDBDB"/>
<path d="M72.1897 82.48C74.4044 82.48 76.1997 80.6846 76.1997 78.47C76.1997 76.2553 74.4044 74.46 72.1897 74.46C69.975 74.46 68.1797 76.2553 68.1797 78.47C68.1797 80.6846 69.975 82.48 72.1897 82.48Z" fill="#DDDBDB"/>
<path d="M86.4494 82.48C88.6641 82.48 90.4594 80.6846 90.4594 78.47C90.4594 76.2553 88.6641 74.46 86.4494 74.46C84.2348 74.46 82.4395 76.2553 82.4395 78.47C82.4395 80.6846 84.2348 82.48 86.4494 82.48Z" fill="#DDDBDB"/>
<path d="M100.721 82.48C102.936 82.48 104.731 80.6846 104.731 78.47C104.731 76.2553 102.936 74.46 100.721 74.46C98.5063 74.46 96.7109 76.2553 96.7109 78.47C96.7109 80.6846 98.5063 82.48 100.721 82.48Z" fill="#DDDBDB"/>
<path d="M8.01 91.54C10.2247 91.54 12.02 89.7447 12.02 87.53C12.02 85.3154 10.2247 83.52 8.01 83.52C5.79534 83.52 4 85.3154 4 87.53C4 89.7447 5.79534 91.54 8.01 91.54Z" fill="#DDDBDB"/>
<path d="M22.2795 91.54C24.4942 91.54 26.2895 89.7447 26.2895 87.53C26.2895 85.3154 24.4942 83.52 22.2795 83.52C20.0649 83.52 18.2695 85.3154 18.2695 87.53C18.2695 89.7447 20.0649 91.54 22.2795 91.54Z" fill="#DDDBDB"/>
<path d="M36.5393 91.54C38.754 91.54 40.5493 89.7447 40.5493 87.53C40.5493 85.3154 38.754 83.52 36.5393 83.52C34.3246 83.52 32.5293 85.3154 32.5293 87.53C32.5293 89.7447 34.3246 91.54 36.5393 91.54Z" fill="#DDDBDB"/>
<path d="M50.7991 91.54C53.0137 91.54 54.8091 89.7447 54.8091 87.53C54.8091 85.3154 53.0137 83.52 50.7991 83.52C48.5844 83.52 46.7891 85.3154 46.7891 87.53C46.7891 89.7447 48.5844 91.54 50.7991 91.54Z" fill="#DDDBDB"/>
<path d="M65.0608 91.54C67.2754 91.54 69.0708 89.7447 69.0708 87.53C69.0708 85.3154 67.2754 83.52 65.0608 83.52C62.8461 83.52 61.0508 85.3154 61.0508 87.53C61.0508 89.7447 62.8461 91.54 65.0608 91.54Z" fill="#DDDBDB"/>
<path d="M79.3205 91.54C81.5352 91.54 83.3306 89.7447 83.3306 87.53C83.3306 85.3154 81.5352 83.52 79.3205 83.52C77.1059 83.52 75.3105 85.3154 75.3105 87.53C75.3105 89.7447 77.1059 91.54 79.3205 91.54Z" fill="#DDDBDB"/>
<path d="M93.5803 91.54C95.795 91.54 97.5903 89.7447 97.5903 87.53C97.5903 85.3154 95.795 83.52 93.5803 83.52C91.3657 83.52 89.5703 85.3154 89.5703 87.53C89.5703 89.7447 91.3657 91.54 93.5803 91.54Z" fill="#DDDBDB"/>
<path d="M107.85 91.54C110.065 91.54 111.86 89.7447 111.86 87.53C111.86 85.3154 110.065 83.52 107.85 83.52C105.635 83.52 103.84 85.3154 103.84 87.53C103.84 89.7447 105.635 91.54 107.85 91.54Z" fill="#DDDBDB"/>
<path d="M15.1409 101C17.3555 101 19.1509 99.2046 19.1509 96.99C19.1509 94.7753 17.3555 92.98 15.1409 92.98C12.9262 92.98 11.1309 94.7753 11.1309 96.99C11.1309 99.2046 12.9262 101 15.1409 101Z" fill="#DDDBDB"/>
<path d="M29.4104 101C31.6251 101 33.4204 99.2046 33.4204 96.99C33.4204 94.7753 31.6251 92.98 29.4104 92.98C27.1957 92.98 25.4004 94.7753 25.4004 96.99C25.4004 99.2046 27.1957 101 29.4104 101Z" fill="#DDDBDB"/>
<path d="M43.6702 101C45.8848 101 47.6802 99.2046 47.6802 96.99C47.6802 94.7753 45.8848 92.98 43.6702 92.98C41.4555 92.98 39.6602 94.7753 39.6602 96.99C39.6602 99.2046 41.4555 101 43.6702 101Z" fill="#DDDBDB"/>
<path d="M57.9299 101C60.1446 101 61.9399 99.2046 61.9399 96.99C61.9399 94.7753 60.1446 92.98 57.9299 92.98C55.7153 92.98 53.9199 94.7753 53.9199 96.99C53.9199 99.2046 55.7153 101 57.9299 101Z" fill="#DDDBDB"/>
<path d="M72.1897 101C74.4044 101 76.1997 99.2046 76.1997 96.99C76.1997 94.7753 74.4044 92.98 72.1897 92.98C69.975 92.98 68.1797 94.7753 68.1797 96.99C68.1797 99.2046 69.975 101 72.1897 101Z" fill="#DDDBDB"/>
<path d="M86.4494 101C88.6641 101 90.4594 99.2046 90.4594 96.99C90.4594 94.7753 88.6641 92.98 86.4494 92.98C84.2348 92.98 82.4395 94.7753 82.4395 96.99C82.4395 99.2046 84.2348 101 86.4494 101Z" fill="#DDDBDB"/>
<path d="M100.721 101C102.936 101 104.731 99.2046 104.731 96.99C104.731 94.7753 102.936 92.98 100.721 92.98C98.5063 92.98 96.7109 94.7753 96.7109 96.99C96.7109 99.2046 98.5063 101 100.721 101Z" fill="#DDDBDB"/>
<path d="M8.01 110.06C10.2247 110.06 12.02 108.265 12.02 106.05C12.02 103.835 10.2247 102.04 8.01 102.04C5.79534 102.04 4 103.835 4 106.05C4 108.265 5.79534 110.06 8.01 110.06Z" fill="#DDDBDB"/>
<path d="M22.2795 110.06C24.4942 110.06 26.2895 108.265 26.2895 106.05C26.2895 103.835 24.4942 102.04 22.2795 102.04C20.0649 102.04 18.2695 103.835 18.2695 106.05C18.2695 108.265 20.0649 110.06 22.2795 110.06Z" fill="#DDDBDB"/>
<path d="M36.5393 110.06C38.754 110.06 40.5493 108.265 40.5493 106.05C40.5493 103.835 38.754 102.04 36.5393 102.04C34.3246 102.04 32.5293 103.835 32.5293 106.05C32.5293 108.265 34.3246 110.06 36.5393 110.06Z" fill="#DDDBDB"/>
<path d="M50.7991 110.06C53.0137 110.06 54.8091 108.265 54.8091 106.05C54.8091 103.835 53.0137 102.04 50.7991 102.04C48.5844 102.04 46.7891 103.835 46.7891 106.05C46.7891 108.265 48.5844 110.06 50.7991 110.06Z" fill="#DDDBDB"/>
<path d="M65.0608 110.06C67.2754 110.06 69.0708 108.265 69.0708 106.05C69.0708 103.835 67.2754 102.04 65.0608 102.04C62.8461 102.04 61.0508 103.835 61.0508 106.05C61.0508 108.265 62.8461 110.06 65.0608 110.06Z" fill="#DDDBDB"/>
<path d="M79.3205 110.06C81.5352 110.06 83.3306 108.265 83.3306 106.05C83.3306 103.835 81.5352 102.04 79.3205 102.04C77.1059 102.04 75.3105 103.835 75.3105 106.05C75.3105 108.265 77.1059 110.06 79.3205 110.06Z" fill="#DDDBDB"/>
<path d="M93.5803 110.06C95.795 110.06 97.5903 108.265 97.5903 106.05C97.5903 103.835 95.795 102.04 93.5803 102.04C91.3657 102.04 89.5703 103.835 89.5703 106.05C89.5703 108.265 91.3657 110.06 93.5803 110.06Z" fill="#DDDBDB"/>
<path d="M107.85 110.06C110.065 110.06 111.86 108.265 111.86 106.05C111.86 103.835 110.065 102.04 107.85 102.04C105.635 102.04 103.84 103.835 103.84 106.05C103.84 108.265 105.635 110.06 107.85 110.06Z" fill="#DDDBDB"/>
<path d="M15.1409 119.51C17.3555 119.51 19.1509 117.715 19.1509 115.5C19.1509 113.286 17.3555 111.49 15.1409 111.49C12.9262 111.49 11.1309 113.286 11.1309 115.5C11.1309 117.715 12.9262 119.51 15.1409 119.51Z" fill="#DDDBDB"/>
<path d="M29.4104 119.51C31.6251 119.51 33.4204 117.715 33.4204 115.5C33.4204 113.286 31.6251 111.49 29.4104 111.49C27.1957 111.49 25.4004 113.286 25.4004 115.5C25.4004 117.715 27.1957 119.51 29.4104 119.51Z" fill="#DDDBDB"/>
<path d="M43.6702 119.51C45.8848 119.51 47.6802 117.715 47.6802 115.5C47.6802 113.286 45.8848 111.49 43.6702 111.49C41.4555 111.49 39.6602 113.286 39.6602 115.5C39.6602 117.715 41.4555 119.51 43.6702 119.51Z" fill="#DDDBDB"/>
<path d="M57.9299 119.51C60.1446 119.51 61.9399 117.715 61.9399 115.5C61.9399 113.286 60.1446 111.49 57.9299 111.49C55.7153 111.49 53.9199 113.286 53.9199 115.5C53.9199 117.715 55.7153 119.51 57.9299 119.51Z" fill="#DDDBDB"/>
<path d="M72.1897 119.51C74.4044 119.51 76.1997 117.715 76.1997 115.5C76.1997 113.286 74.4044 111.49 72.1897 111.49C69.975 111.49 68.1797 113.286 68.1797 115.5C68.1797 117.715 69.975 119.51 72.1897 119.51Z" fill="#DDDBDB"/>
<path d="M86.4494 119.51C88.6641 119.51 90.4594 117.715 90.4594 115.5C90.4594 113.286 88.6641 111.49 86.4494 111.49C84.2348 111.49 82.4395 113.286 82.4395 115.5C82.4395 117.715 84.2348 119.51 86.4494 119.51Z" fill="#DDDBDB"/>
<path d="M100.721 119.51C102.936 119.51 104.731 117.715 104.731 115.5C104.731 113.286 102.936 111.49 100.721 111.49C98.5063 111.49 96.7109 113.286 96.7109 115.5C96.7109 117.715 98.5063 119.51 100.721 119.51Z" fill="#DDDBDB"/>
<path d="M8.01 128.57C10.2247 128.57 12.02 126.774 12.02 124.56C12.02 122.345 10.2247 120.55 8.01 120.55C5.79534 120.55 4 122.345 4 124.56C4 126.774 5.79534 128.57 8.01 128.57Z" fill="#DDDBDB"/>
<path d="M22.2795 128.57C24.4942 128.57 26.2895 126.774 26.2895 124.56C26.2895 122.345 24.4942 120.55 22.2795 120.55C20.0649 120.55 18.2695 122.345 18.2695 124.56C18.2695 126.774 20.0649 128.57 22.2795 128.57Z" fill="#DDDBDB"/>
<path d="M36.5393 128.57C38.754 128.57 40.5493 126.774 40.5493 124.56C40.5493 122.345 38.754 120.55 36.5393 120.55C34.3246 120.55 32.5293 122.345 32.5293 124.56C32.5293 126.774 34.3246 128.57 36.5393 128.57Z" fill="#DDDBDB"/>
<path d="M50.7991 128.57C53.0137 128.57 54.8091 126.774 54.8091 124.56C54.8091 122.345 53.0137 120.55 50.7991 120.55C48.5844 120.55 46.7891 122.345 46.7891 124.56C46.7891 126.774 48.5844 128.57 50.7991 128.57Z" fill="#DDDBDB"/>
<path d="M65.0608 128.57C67.2754 128.57 69.0708 126.774 69.0708 124.56C69.0708 122.345 67.2754 120.55 65.0608 120.55C62.8461 120.55 61.0508 122.345 61.0508 124.56C61.0508 126.774 62.8461 128.57 65.0608 128.57Z" fill="#DDDBDB"/>
<path d="M79.3205 128.57C81.5352 128.57 83.3306 126.774 83.3306 124.56C83.3306 122.345 81.5352 120.55 79.3205 120.55C77.1059 120.55 75.3105 122.345 75.3105 124.56C75.3105 126.774 77.1059 128.57 79.3205 128.57Z" fill="#DDDBDB"/>
<path d="M93.5803 128.57C95.795 128.57 97.5903 126.774 97.5903 124.56C97.5903 122.345 95.795 120.55 93.5803 120.55C91.3657 120.55 89.5703 122.345 89.5703 124.56C89.5703 126.774 91.3657 128.57 93.5803 128.57Z" fill="#DDDBDB"/>
<path d="M107.85 128.57C110.065 128.57 111.86 126.774 111.86 124.56C111.86 122.345 110.065 120.55 107.85 120.55C105.635 120.55 103.84 122.345 103.84 124.56C103.84 126.774 105.635 128.57 107.85 128.57Z" fill="#DDDBDB"/>
<path d="M15.1409 138.03C17.3555 138.03 19.1509 136.234 19.1509 134.02C19.1509 131.805 17.3555 130.01 15.1409 130.01C12.9262 130.01 11.1309 131.805 11.1309 134.02C11.1309 136.234 12.9262 138.03 15.1409 138.03Z" fill="#DDDBDB"/>
<path d="M29.4104 138.03C31.6251 138.03 33.4204 136.234 33.4204 134.02C33.4204 131.805 31.6251 130.01 29.4104 130.01C27.1957 130.01 25.4004 131.805 25.4004 134.02C25.4004 136.234 27.1957 138.03 29.4104 138.03Z" fill="#DDDBDB"/>
<path d="M43.6702 138.03C45.8848 138.03 47.6802 136.234 47.6802 134.02C47.6802 131.805 45.8848 130.01 43.6702 130.01C41.4555 130.01 39.6602 131.805 39.6602 134.02C39.6602 136.234 41.4555 138.03 43.6702 138.03Z" fill="#DDDBDB"/>
<path d="M57.9299 138.03C60.1446 138.03 61.9399 136.234 61.9399 134.02C61.9399 131.805 60.1446 130.01 57.9299 130.01C55.7153 130.01 53.9199 131.805 53.9199 134.02C53.9199 136.234 55.7153 138.03 57.9299 138.03Z" fill="#DDDBDB"/>
<path d="M72.1897 138.03C74.4044 138.03 76.1997 136.234 76.1997 134.02C76.1997 131.805 74.4044 130.01 72.1897 130.01C69.975 130.01 68.1797 131.805 68.1797 134.02C68.1797 136.234 69.975 138.03 72.1897 138.03Z" fill="#DDDBDB"/>
<path d="M86.4494 138.03C88.6641 138.03 90.4594 136.234 90.4594 134.02C90.4594 131.805 88.6641 130.01 86.4494 130.01C84.2348 130.01 82.4395 131.805 82.4395 134.02C82.4395 136.234 84.2348 138.03 86.4494 138.03Z" fill="#DDDBDB"/>
<path d="M100.721 138.03C102.936 138.03 104.731 136.234 104.731 134.02C104.731 131.805 102.936 130.01 100.721 130.01C98.5063 130.01 96.7109 131.805 96.7109 134.02C96.7109 136.234 98.5063 138.03 100.721 138.03Z" fill="#DDDBDB"/>
<path d="M8.01 147.09C10.2247 147.09 12.02 145.294 12.02 143.08C12.02 140.865 10.2247 139.07 8.01 139.07C5.79534 139.07 4 140.865 4 143.08C4 145.294 5.79534 147.09 8.01 147.09Z" fill="#DDDBDB"/>
<path d="M22.2795 147.09C24.4942 147.09 26.2895 145.294 26.2895 143.08C26.2895 140.865 24.4942 139.07 22.2795 139.07C20.0649 139.07 18.2695 140.865 18.2695 143.08C18.2695 145.294 20.0649 147.09 22.2795 147.09Z" fill="#DDDBDB"/>
<path d="M36.5393 147.09C38.754 147.09 40.5493 145.294 40.5493 143.08C40.5493 140.865 38.754 139.07 36.5393 139.07C34.3246 139.07 32.5293 140.865 32.5293 143.08C32.5293 145.294 34.3246 147.09 36.5393 147.09Z" fill="#DDDBDB"/>
<path d="M50.7991 147.09C53.0137 147.09 54.8091 145.294 54.8091 143.08C54.8091 140.865 53.0137 139.07 50.7991 139.07C48.5844 139.07 46.7891 140.865 46.7891 143.08C46.7891 145.294 48.5844 147.09 50.7991 147.09Z" fill="#DDDBDB"/>
<path d="M65.0608 147.09C67.2754 147.09 69.0708 145.294 69.0708 143.08C69.0708 140.865 67.2754 139.07 65.0608 139.07C62.8461 139.07 61.0508 140.865 61.0508 143.08C61.0508 145.294 62.8461 147.09 65.0608 147.09Z" fill="#DDDBDB"/>
<path d="M79.3205 147.09C81.5352 147.09 83.3306 145.294 83.3306 143.08C83.3306 140.865 81.5352 139.07 79.3205 139.07C77.1059 139.07 75.3105 140.865 75.3105 143.08C75.3105 145.294 77.1059 147.09 79.3205 147.09Z" fill="#DDDBDB"/>
<path d="M93.5803 147.09C95.795 147.09 97.5903 145.294 97.5903 143.08C97.5903 140.865 95.795 139.07 93.5803 139.07C91.3657 139.07 89.5703 140.865 89.5703 143.08C89.5703 145.294 91.3657 147.09 93.5803 147.09Z" fill="#DDDBDB"/>
<path d="M107.85 147.09C110.065 147.09 111.86 145.294 111.86 143.08C111.86 140.865 110.065 139.07 107.85 139.07C105.635 139.07 103.84 140.865 103.84 143.08C103.84 145.294 105.635 147.09 107.85 147.09Z" fill="#DDDBDB"/>
<path d="M15.1409 156.54C17.3555 156.54 19.1509 154.745 19.1509 152.53C19.1509 150.315 17.3555 148.52 15.1409 148.52C12.9262 148.52 11.1309 150.315 11.1309 152.53C11.1309 154.745 12.9262 156.54 15.1409 156.54Z" fill="#DDDBDB"/>
<path d="M29.4104 156.54C31.6251 156.54 33.4204 154.745 33.4204 152.53C33.4204 150.315 31.6251 148.52 29.4104 148.52C27.1957 148.52 25.4004 150.315 25.4004 152.53C25.4004 154.745 27.1957 156.54 29.4104 156.54Z" fill="#DDDBDB"/>
<path d="M43.6702 156.54C45.8848 156.54 47.6802 154.745 47.6802 152.53C47.6802 150.315 45.8848 148.52 43.6702 148.52C41.4555 148.52 39.6602 150.315 39.6602 152.53C39.6602 154.745 41.4555 156.54 43.6702 156.54Z" fill="#DDDBDB"/>
<path d="M57.9299 156.54C60.1446 156.54 61.9399 154.745 61.9399 152.53C61.9399 150.315 60.1446 148.52 57.9299 148.52C55.7153 148.52 53.9199 150.315 53.9199 152.53C53.9199 154.745 55.7153 156.54 57.9299 156.54Z" fill="#DDDBDB"/>
<path d="M72.1897 156.54C74.4044 156.54 76.1997 154.745 76.1997 152.53C76.1997 150.315 74.4044 148.52 72.1897 148.52C69.975 148.52 68.1797 150.315 68.1797 152.53C68.1797 154.745 69.975 156.54 72.1897 156.54Z" fill="#DDDBDB"/>
<path d="M86.4494 156.54C88.6641 156.54 90.4594 154.745 90.4594 152.53C90.4594 150.315 88.6641 148.52 86.4494 148.52C84.2348 148.52 82.4395 150.315 82.4395 152.53C82.4395 154.745 84.2348 156.54 86.4494 156.54Z" fill="#DDDBDB"/>
<path d="M100.721 156.54C102.936 156.54 104.731 154.745 104.731 152.53C104.731 150.315 102.936 148.52 100.721 148.52C98.5063 148.52 96.7109 150.315 96.7109 152.53C96.7109 154.745 98.5063 156.54 100.721 156.54Z" fill="#DDDBDB"/>
<path d="M8.01 165.6C10.2247 165.6 12.02 163.805 12.02 161.59C12.02 159.375 10.2247 157.58 8.01 157.58C5.79534 157.58 4 159.375 4 161.59C4 163.805 5.79534 165.6 8.01 165.6Z" fill="#DDDBDB"/>
<path d="M22.2795 165.6C24.4942 165.6 26.2895 163.805 26.2895 161.59C26.2895 159.375 24.4942 157.58 22.2795 157.58C20.0649 157.58 18.2695 159.375 18.2695 161.59C18.2695 163.805 20.0649 165.6 22.2795 165.6Z" fill="#DDDBDB"/>
<path d="M36.5393 165.6C38.754 165.6 40.5493 163.805 40.5493 161.59C40.5493 159.375 38.754 157.58 36.5393 157.58C34.3246 157.58 32.5293 159.375 32.5293 161.59C32.5293 163.805 34.3246 165.6 36.5393 165.6Z" fill="#DDDBDB"/>
<path d="M50.7991 165.6C53.0137 165.6 54.8091 163.805 54.8091 161.59C54.8091 159.375 53.0137 157.58 50.7991 157.58C48.5844 157.58 46.7891 159.375 46.7891 161.59C46.7891 163.805 48.5844 165.6 50.7991 165.6Z" fill="#DDDBDB"/>
<path d="M65.0608 165.6C67.2754 165.6 69.0708 163.805 69.0708 161.59C69.0708 159.375 67.2754 157.58 65.0608 157.58C62.8461 157.58 61.0508 159.375 61.0508 161.59C61.0508 163.805 62.8461 165.6 65.0608 165.6Z" fill="#DDDBDB"/>
<path d="M79.3205 165.6C81.5352 165.6 83.3306 163.805 83.3306 161.59C83.3306 159.375 81.5352 157.58 79.3205 157.58C77.1059 157.58 75.3105 159.375 75.3105 161.59C75.3105 163.805 77.1059 165.6 79.3205 165.6Z" fill="#DDDBDB"/>
<path d="M93.5803 165.6C95.795 165.6 97.5903 163.805 97.5903 161.59C97.5903 159.375 95.795 157.58 93.5803 157.58C91.3657 157.58 89.5703 159.375 89.5703 161.59C89.5703 163.805 91.3657 165.6 93.5803 165.6Z" fill="#DDDBDB"/>
<path d="M107.85 165.6C110.065 165.6 111.86 163.805 111.86 161.59C111.86 159.375 110.065 157.58 107.85 157.58C105.635 157.58 103.84 159.375 103.84 161.59C103.84 163.805 105.635 165.6 107.85 165.6Z" fill="#DDDBDB"/>
<path d="M15.1409 175.06C17.3555 175.06 19.1509 173.265 19.1509 171.05C19.1509 168.835 17.3555 167.04 15.1409 167.04C12.9262 167.04 11.1309 168.835 11.1309 171.05C11.1309 173.265 12.9262 175.06 15.1409 175.06Z" fill="#DDDBDB"/>
<path d="M29.4104 175.06C31.6251 175.06 33.4204 173.265 33.4204 171.05C33.4204 168.835 31.6251 167.04 29.4104 167.04C27.1957 167.04 25.4004 168.835 25.4004 171.05C25.4004 173.265 27.1957 175.06 29.4104 175.06Z" fill="#DDDBDB"/>
<path d="M43.6702 175.06C45.8848 175.06 47.6802 173.265 47.6802 171.05C47.6802 168.835 45.8848 167.04 43.6702 167.04C41.4555 167.04 39.6602 168.835 39.6602 171.05C39.6602 173.265 41.4555 175.06 43.6702 175.06Z" fill="#DDDBDB"/>
<path d="M57.9299 175.06C60.1446 175.06 61.9399 173.265 61.9399 171.05C61.9399 168.835 60.1446 167.04 57.9299 167.04C55.7153 167.04 53.9199 168.835 53.9199 171.05C53.9199 173.265 55.7153 175.06 57.9299 175.06Z" fill="#DDDBDB"/>
<path d="M72.1897 175.06C74.4044 175.06 76.1997 173.265 76.1997 171.05C76.1997 168.835 74.4044 167.04 72.1897 167.04C69.975 167.04 68.1797 168.835 68.1797 171.05C68.1797 173.265 69.975 175.06 72.1897 175.06Z" fill="#DDDBDB"/>
<path d="M86.4494 175.06C88.6641 175.06 90.4594 173.265 90.4594 171.05C90.4594 168.835 88.6641 167.04 86.4494 167.04C84.2348 167.04 82.4395 168.835 82.4395 171.05C82.4395 173.265 84.2348 175.06 86.4494 175.06Z" fill="#DDDBDB"/>
<path d="M100.721 175.06C102.936 175.06 104.731 173.265 104.731 171.05C104.731 168.835 102.936 167.04 100.721 167.04C98.5063 167.04 96.7109 168.835 96.7109 171.05C96.7109 173.265 98.5063 175.06 100.721 175.06Z" fill="#DDDBDB"/>
<path d="M8.01 184.11C10.2247 184.11 12.02 182.315 12.02 180.1C12.02 177.885 10.2247 176.09 8.01 176.09C5.79534 176.09 4 177.885 4 180.1C4 182.315 5.79534 184.11 8.01 184.11Z" fill="#DDDBDB"/>
<path d="M22.2795 184.11C24.4942 184.11 26.2895 182.315 26.2895 180.1C26.2895 177.885 24.4942 176.09 22.2795 176.09C20.0649 176.09 18.2695 177.885 18.2695 180.1C18.2695 182.315 20.0649 184.11 22.2795 184.11Z" fill="#DDDBDB"/>
<path d="M36.5393 184.11C38.754 184.11 40.5493 182.315 40.5493 180.1C40.5493 177.885 38.754 176.09 36.5393 176.09C34.3246 176.09 32.5293 177.885 32.5293 180.1C32.5293 182.315 34.3246 184.11 36.5393 184.11Z" fill="#DDDBDB"/>
<path d="M50.7991 184.11C53.0137 184.11 54.8091 182.315 54.8091 180.1C54.8091 177.885 53.0137 176.09 50.7991 176.09C48.5844 176.09 46.7891 177.885 46.7891 180.1C46.7891 182.315 48.5844 184.11 50.7991 184.11Z" fill="#DDDBDB"/>
<path d="M65.0608 184.11C67.2754 184.11 69.0708 182.315 69.0708 180.1C69.0708 177.885 67.2754 176.09 65.0608 176.09C62.8461 176.09 61.0508 177.885 61.0508 180.1C61.0508 182.315 62.8461 184.11 65.0608 184.11Z" fill="#DDDBDB"/>
<path d="M79.3205 184.11C81.5352 184.11 83.3306 182.315 83.3306 180.1C83.3306 177.885 81.5352 176.09 79.3205 176.09C77.1059 176.09 75.3105 177.885 75.3105 180.1C75.3105 182.315 77.1059 184.11 79.3205 184.11Z" fill="#DDDBDB"/>
<path d="M93.5803 184.11C95.795 184.11 97.5903 182.315 97.5903 180.1C97.5903 177.885 95.795 176.09 93.5803 176.09C91.3657 176.09 89.5703 177.885 89.5703 180.1C89.5703 182.315 91.3657 184.11 93.5803 184.11Z" fill="#DDDBDB"/>
<path d="M107.85 184.11C110.065 184.11 111.86 182.315 111.86 180.1C111.86 177.885 110.065 176.09 107.85 176.09C105.635 176.09 103.84 177.885 103.84 180.1C103.84 182.315 105.635 184.11 107.85 184.11Z" fill="#DDDBDB"/>
<path d="M15.1409 193.17C17.3555 193.17 19.1509 191.375 19.1509 189.16C19.1509 186.945 17.3555 185.15 15.1409 185.15C12.9262 185.15 11.1309 186.945 11.1309 189.16C11.1309 191.375 12.9262 193.17 15.1409 193.17Z" fill="#DDDBDB"/>
<path d="M29.4104 193.17C31.6251 193.17 33.4204 191.375 33.4204 189.16C33.4204 186.945 31.6251 185.15 29.4104 185.15C27.1957 185.15 25.4004 186.945 25.4004 189.16C25.4004 191.375 27.1957 193.17 29.4104 193.17Z" fill="#DDDBDB"/>
<path d="M43.6702 193.17C45.8848 193.17 47.6802 191.375 47.6802 189.16C47.6802 186.945 45.8848 185.15 43.6702 185.15C41.4555 185.15 39.6602 186.945 39.6602 189.16C39.6602 191.375 41.4555 193.17 43.6702 193.17Z" fill="#DDDBDB"/>
<path d="M57.9299 193.17C60.1446 193.17 61.9399 191.375 61.9399 189.16C61.9399 186.945 60.1446 185.15 57.9299 185.15C55.7153 185.15 53.9199 186.945 53.9199 189.16C53.9199 191.375 55.7153 193.17 57.9299 193.17Z" fill="#DDDBDB"/>
<path d="M72.1897 193.17C74.4044 193.17 76.1997 191.375 76.1997 189.16C76.1997 186.945 74.4044 185.15 72.1897 185.15C69.975 185.15 68.1797 186.945 68.1797 189.16C68.1797 191.375 69.975 193.17 72.1897 193.17Z" fill="#DDDBDB"/>
<path d="M86.4494 193.17C88.6641 193.17 90.4594 191.375 90.4594 189.16C90.4594 186.945 88.6641 185.15 86.4494 185.15C84.2348 185.15 82.4395 186.945 82.4395 189.16C82.4395 191.375 84.2348 193.17 86.4494 193.17Z" fill="#DDDBDB"/>
<path d="M100.721 193.17C102.936 193.17 104.731 191.375 104.731 189.16C104.731 186.945 102.936 185.15 100.721 185.15C98.5063 185.15 96.7109 186.945 96.7109 189.16C96.7109 191.375 98.5063 193.17 100.721 193.17Z" fill="#DDDBDB"/>
<path d="M8.01 202.23C10.2247 202.23 12.02 200.435 12.02 198.22C12.02 196.005 10.2247 194.21 8.01 194.21C5.79534 194.21 4 196.005 4 198.22C4 200.435 5.79534 202.23 8.01 202.23Z" fill="#DDDBDB"/>
<path d="M22.2795 202.23C24.4942 202.23 26.2895 200.435 26.2895 198.22C26.2895 196.005 24.4942 194.21 22.2795 194.21C20.0649 194.21 18.2695 196.005 18.2695 198.22C18.2695 200.435 20.0649 202.23 22.2795 202.23Z" fill="#DDDBDB"/>
<path d="M36.5393 202.23C38.754 202.23 40.5493 200.435 40.5493 198.22C40.5493 196.005 38.754 194.21 36.5393 194.21C34.3246 194.21 32.5293 196.005 32.5293 198.22C32.5293 200.435 34.3246 202.23 36.5393 202.23Z" fill="#DDDBDB"/>
<path d="M50.7991 202.23C53.0137 202.23 54.8091 200.435 54.8091 198.22C54.8091 196.005 53.0137 194.21 50.7991 194.21C48.5844 194.21 46.7891 196.005 46.7891 198.22C46.7891 200.435 48.5844 202.23 50.7991 202.23Z" fill="#DDDBDB"/>
<path d="M65.0608 202.23C67.2754 202.23 69.0708 200.435 69.0708 198.22C69.0708 196.005 67.2754 194.21 65.0608 194.21C62.8461 194.21 61.0508 196.005 61.0508 198.22C61.0508 200.435 62.8461 202.23 65.0608 202.23Z" fill="#DDDBDB"/>
<path d="M79.3205 202.23C81.5352 202.23 83.3306 200.435 83.3306 198.22C83.3306 196.005 81.5352 194.21 79.3205 194.21C77.1059 194.21 75.3105 196.005 75.3105 198.22C75.3105 200.435 77.1059 202.23 79.3205 202.23Z" fill="#DDDBDB"/>
<path d="M93.5803 202.23C95.795 202.23 97.5903 200.435 97.5903 198.22C97.5903 196.005 95.795 194.21 93.5803 194.21C91.3657 194.21 89.5703 196.005 89.5703 198.22C89.5703 200.435 91.3657 202.23 93.5803 202.23Z" fill="#DDDBDB"/>
<path d="M107.85 202.23C110.065 202.23 111.86 200.435 111.86 198.22C111.86 196.005 110.065 194.21 107.85 194.21C105.635 194.21 103.84 196.005 103.84 198.22C103.84 200.435 105.635 202.23 107.85 202.23Z" fill="#DDDBDB"/>
<path d="M115.869 8.43016C118.084 8.43016 119.879 6.63482 119.879 4.42016C119.879 2.20549 118.084 0.410156 115.869 0.410156C113.655 0.410156 111.859 2.20549 111.859 4.42016C111.859 6.63482 113.655 8.43016 115.869 8.43016Z" fill="#DDDBDB"/>
<path d="M123 17.4902C125.215 17.4902 127.01 15.6949 127.01 13.4802C127.01 11.2656 125.215 9.47021 123 9.47021C120.786 9.47021 118.99 11.2656 118.99 13.4802C118.99 15.6949 120.786 17.4902 123 17.4902Z" fill="#DDDBDB"/>
<path d="M137.27 17.4902C139.484 17.4902 141.28 15.6949 141.28 13.4802C141.28 11.2656 139.484 9.47021 137.27 9.47021C135.055 9.47021 133.26 11.2656 133.26 13.4802C133.26 15.6949 135.055 17.4902 137.27 17.4902Z" fill="#DDDBDB"/>
<path d="M115.869 26.9399C118.084 26.9399 119.879 25.1446 119.879 22.9299C119.879 20.7153 118.084 18.9199 115.869 18.9199C113.655 18.9199 111.859 20.7153 111.859 22.9299C111.859 25.1446 113.655 26.9399 115.869 26.9399Z" fill="#DDDBDB"/>
<path d="M123 36C125.215 36 127.01 34.2046 127.01 31.99C127.01 29.7753 125.215 27.98 123 27.98C120.786 27.98 118.99 29.7753 118.99 31.99C118.99 34.2046 120.786 36 123 36Z" fill="#DDDBDB"/>
<path d="M137.27 36C139.484 36 141.28 34.2046 141.28 31.99C141.28 29.7753 139.484 27.98 137.27 27.98C135.055 27.98 133.26 29.7753 133.26 31.99C133.26 34.2046 135.055 36 137.27 36Z" fill="#DDDBDB"/>
<path d="M115.869 45.4599C118.084 45.4599 119.879 43.6646 119.879 41.4499C119.879 39.2353 118.084 37.4399 115.869 37.4399C113.655 37.4399 111.859 39.2353 111.859 41.4499C111.859 43.6646 113.655 45.4599 115.869 45.4599Z" fill="#DDDBDB"/>
<path d="M123 54.5102C125.215 54.5102 127.01 52.7149 127.01 50.5002C127.01 48.2856 125.215 46.4902 123 46.4902C120.786 46.4902 118.99 48.2856 118.99 50.5002C118.99 52.7149 120.786 54.5102 123 54.5102Z" fill="#DDDBDB"/>
<path d="M137.27 54.5102C139.484 54.5102 141.28 52.7149 141.28 50.5002C141.28 48.2856 139.484 46.4902 137.27 46.4902C135.055 46.4902 133.26 48.2856 133.26 50.5002C133.26 52.7149 135.055 54.5102 137.27 54.5102Z" fill="#DDDBDB"/>
<path d="M115.869 63.9702C118.084 63.9702 119.879 62.1749 119.879 59.9602C119.879 57.7455 118.084 55.9502 115.869 55.9502C113.655 55.9502 111.859 57.7455 111.859 59.9602C111.859 62.1749 113.655 63.9702 115.869 63.9702Z" fill="#DDDBDB"/>
<path d="M123 73.0298C125.215 73.0298 127.01 71.2344 127.01 69.0198C127.01 66.8051 125.215 65.0098 123 65.0098C120.786 65.0098 118.99 66.8051 118.99 69.0198C118.99 71.2344 120.786 73.0298 123 73.0298Z" fill="#DDDBDB"/>
<path d="M137.27 73.0298C139.484 73.0298 141.28 71.2344 141.28 69.0198C141.28 66.8051 139.484 65.0098 137.27 65.0098C135.055 65.0098 133.26 66.8051 133.26 69.0198C133.26 71.2344 135.055 73.0298 137.27 73.0298Z" fill="#DDDBDB"/>
<path d="M115.869 82.48C118.084 82.48 119.879 80.6846 119.879 78.47C119.879 76.2553 118.084 74.46 115.869 74.46C113.655 74.46 111.859 76.2553 111.859 78.47C111.859 80.6846 113.655 82.48 115.869 82.48Z" fill="#DDDBDB"/>
<path d="M123 91.54C125.215 91.54 127.01 89.7447 127.01 87.53C127.01 85.3154 125.215 83.52 123 83.52C120.786 83.52 118.99 85.3154 118.99 87.53C118.99 89.7447 120.786 91.54 123 91.54Z" fill="#DDDBDB"/>
<path d="M137.27 91.54C139.484 91.54 141.28 89.7447 141.28 87.53C141.28 85.3154 139.484 83.52 137.27 83.52C135.055 83.52 133.26 85.3154 133.26 87.53C133.26 89.7447 135.055 91.54 137.27 91.54Z" fill="#DDDBDB"/>
<path d="M115.869 101C118.084 101 119.879 99.2046 119.879 96.99C119.879 94.7753 118.084 92.98 115.869 92.98C113.655 92.98 111.859 94.7753 111.859 96.99C111.859 99.2046 113.655 101 115.869 101Z" fill="#DDDBDB"/>
<path d="M123 110.06C125.215 110.06 127.01 108.265 127.01 106.05C127.01 103.835 125.215 102.04 123 102.04C120.786 102.04 118.99 103.835 118.99 106.05C118.99 108.265 120.786 110.06 123 110.06Z" fill="#DDDBDB"/>
<path d="M137.27 110.06C139.484 110.06 141.28 108.265 141.28 106.05C141.28 103.835 139.484 102.04 137.27 102.04C135.055 102.04 133.26 103.835 133.26 106.05C133.26 108.265 135.055 110.06 137.27 110.06Z" fill="#DDDBDB"/>
<path d="M115.869 119.51C118.084 119.51 119.879 117.715 119.879 115.5C119.879 113.286 118.084 111.49 115.869 111.49C113.655 111.49 111.859 113.286 111.859 115.5C111.859 117.715 113.655 119.51 115.869 119.51Z" fill="#DDDBDB"/>
<path d="M123 128.57C125.215 128.57 127.01 126.774 127.01 124.56C127.01 122.345 125.215 120.55 123 120.55C120.786 120.55 118.99 122.345 118.99 124.56C118.99 126.774 120.786 128.57 123 128.57Z" fill="#DDDBDB"/>
<path d="M137.27 128.57C139.484 128.57 141.28 126.774 141.28 124.56C141.28 122.345 139.484 120.55 137.27 120.55C135.055 120.55 133.26 122.345 133.26 124.56C133.26 126.774 135.055 128.57 137.27 128.57Z" fill="#DDDBDB"/>
<path d="M115.869 138.03C118.084 138.03 119.879 136.234 119.879 134.02C119.879 131.805 118.084 130.01 115.869 130.01C113.655 130.01 111.859 131.805 111.859 134.02C111.859 136.234 113.655 138.03 115.869 138.03Z" fill="#DDDBDB"/>
<path d="M123 147.09C125.215 147.09 127.01 145.294 127.01 143.08C127.01 140.865 125.215 139.07 123 139.07C120.786 139.07 118.99 140.865 118.99 143.08C118.99 145.294 120.786 147.09 123 147.09Z" fill="#DDDBDB"/>
<path d="M137.27 147.09C139.484 147.09 141.28 145.294 141.28 143.08C141.28 140.865 139.484 139.07 137.27 139.07C135.055 139.07 133.26 140.865 133.26 143.08C133.26 145.294 135.055 147.09 137.27 147.09Z" fill="#DDDBDB"/>
<path d="M115.869 156.54C118.084 156.54 119.879 154.745 119.879 152.53C119.879 150.315 118.084 148.52 115.869 148.52C113.655 148.52 111.859 150.315 111.859 152.53C111.859 154.745 113.655 156.54 115.869 156.54Z" fill="#DDDBDB"/>
<path d="M123 165.6C125.215 165.6 127.01 163.805 127.01 161.59C127.01 159.375 125.215 157.58 123 157.58C120.786 157.58 118.99 159.375 118.99 161.59C118.99 163.805 120.786 165.6 123 165.6Z" fill="#DDDBDB"/>
<path d="M137.27 165.6C139.484 165.6 141.28 163.805 141.28 161.59C141.28 159.375 139.484 157.58 137.27 157.58C135.055 157.58 133.26 159.375 133.26 161.59C133.26 163.805 135.055 165.6 137.27 165.6Z" fill="#DDDBDB"/>
<path d="M115.869 175.06C118.084 175.06 119.879 173.265 119.879 171.05C119.879 168.835 118.084 167.04 115.869 167.04C113.655 167.04 111.859 168.835 111.859 171.05C111.859 173.265 113.655 175.06 115.869 175.06Z" fill="#DDDBDB"/>
<path d="M123 184.11C125.215 184.11 127.01 182.315 127.01 180.1C127.01 177.885 125.215 176.09 123 176.09C120.786 176.09 118.99 177.885 118.99 180.1C118.99 182.315 120.786 184.11 123 184.11Z" fill="#DDDBDB"/>
<path d="M137.27 184.11C139.484 184.11 141.28 182.315 141.28 180.1C141.28 177.885 139.484 176.09 137.27 176.09C135.055 176.09 133.26 177.885 133.26 180.1C133.26 182.315 135.055 184.11 137.27 184.11Z" fill="#DDDBDB"/>
<path d="M115.869 193.17C118.084 193.17 119.879 191.375 119.879 189.16C119.879 186.945 118.084 185.15 115.869 185.15C113.655 185.15 111.859 186.945 111.859 189.16C111.859 191.375 113.655 193.17 115.869 193.17Z" fill="#DDDBDB"/>
<path d="M123 202.23C125.215 202.23 127.01 200.435 127.01 198.22C127.01 196.005 125.215 194.21 123 194.21C120.786 194.21 118.99 196.005 118.99 198.22C118.99 200.435 120.786 202.23 123 202.23Z" fill="#DDDBDB"/>
<path d="M137.27 202.23C139.484 202.23 141.28 200.435 141.28 198.22C141.28 196.005 139.484 194.21 137.27 194.21C135.055 194.21 133.26 196.005 133.26 198.22C133.26 200.435 135.055 202.23 137.27 202.23Z" fill="#DDDBDB"/>
<path d="M130.381 202.31C129.551 202.31 128.881 201.64 128.881 200.81V199.31C128.881 198.48 129.551 197.81 130.381 197.81C131.211 197.81 131.881 198.48 131.881 199.31V200.81C131.881 201.64 131.211 202.31 130.381 202.31Z" fill="black"/>
<path d="M130.381 193.83C129.551 193.83 128.881 193.16 128.881 192.33V189.34C128.881 188.51 129.551 187.84 130.381 187.84C131.211 187.84 131.881 188.51 131.881 189.34V192.33C131.881 193.16 131.211 193.83 130.381 193.83ZM130.381 183.87C129.551 183.87 128.881 183.2 128.881 182.37V179.38C128.881 178.55 129.551 177.88 130.381 177.88C131.211 177.88 131.881 178.55 131.881 179.38V182.37C131.881 183.2 131.211 183.87 130.381 183.87ZM130.381 173.91C129.551 173.91 128.881 173.24 128.881 172.41V169.42C128.881 168.59 129.551 167.92 130.381 167.92C131.211 167.92 131.881 168.59 131.881 169.42V172.41C131.881 173.24 131.211 173.91 130.381 173.91ZM130.381 163.95C129.551 163.95 128.881 163.28 128.881 162.45V159.46C128.881 158.63 129.551 157.96 130.381 157.96C131.211 157.96 131.881 158.63 131.881 159.46V162.45C131.881 163.28 131.211 163.95 130.381 163.95ZM130.381 153.98C129.551 153.98 128.881 153.31 128.881 152.48V149.49C128.881 148.66 129.551 147.99 130.381 147.99C131.211 147.99 131.881 148.66 131.881 149.49V152.48C131.881 153.31 131.211 153.98 130.381 153.98ZM130.381 144.02C129.551 144.02 128.881 143.35 128.881 142.52V139.53C128.881 138.7 129.551 138.03 130.381 138.03C131.211 138.03 131.881 138.7 131.881 139.53V142.52C131.881 143.35 131.211 144.02 130.381 144.02ZM130.381 134.06C129.551 134.06 128.881 133.39 128.881 132.56V129.57C128.881 128.74 129.551 128.07 130.381 128.07C131.211 128.07 131.881 128.74 131.881 129.57V132.56C131.881 133.39 131.211 134.06 130.381 134.06ZM130.381 124.1C129.551 124.1 128.881 123.43 128.881 122.6V119.61C128.881 118.78 129.551 118.11 130.381 118.11C131.211 118.11 131.881 118.78 131.881 119.61V122.6C131.881 123.43 131.211 124.1 130.381 124.1ZM130.381 114.14C129.551 114.14 128.881 113.47 128.881 112.64V109.65C128.881 108.82 129.551 108.15 130.381 108.15C131.211 108.15 131.881 108.82 131.881 109.65V112.64C131.881 113.47 131.211 114.14 130.381 114.14ZM130.381 104.18C129.551 104.18 128.881 103.51 128.881 102.68V99.69C128.881 98.86 129.551 98.19 130.381 98.19C131.211 98.19 131.881 98.86 131.881 99.69V102.68C131.881 103.51 131.211 104.18 130.381 104.18ZM130.381 94.22C129.551 94.22 128.881 93.55 128.881 92.72V89.73C128.881 88.9 129.551 88.23 130.381 88.23C131.211 88.23 131.881 88.9 131.881 89.73V92.72C131.881 93.55 131.211 94.22 130.381 94.22ZM130.381 84.26C129.551 84.26 128.881 83.59 128.881 82.76V79.77C128.881 78.94 129.551 78.27 130.381 78.27C131.211 78.27 131.881 78.94 131.881 79.77V82.76C131.881 83.59 131.211 84.26 130.381 84.26ZM130.381 74.29C129.551 74.29 128.881 73.62 128.881 72.79V69.8C128.881 68.97 129.551 68.3 130.381 68.3C131.211 68.3 131.881 68.97 131.881 69.8V72.79C131.881 73.62 131.211 74.29 130.381 74.29ZM130.381 64.33C129.551 64.33 128.881 63.66 128.881 62.83V59.84C128.881 59.01 129.551 58.34 130.381 58.34C131.211 58.34 131.881 59.01 131.881 59.84V62.83C131.881 63.66 131.211 64.33 130.381 64.33ZM130.381 54.37C129.551 54.37 128.881 53.7 128.881 52.87V49.88C128.881 49.05 129.551 48.38 130.381 48.38C131.211 48.38 131.881 49.05 131.881 49.88V52.87C131.881 53.7 131.211 54.37 130.381 54.37ZM130.381 44.41C129.551 44.41 128.881 43.74 128.881 42.91V39.92C128.881 39.09 129.551 38.42 130.381 38.42C131.211 38.42 131.881 39.09 131.881 39.92V42.91C131.881 43.74 131.211 44.41 130.381 44.41ZM130.381 34.45C129.551 34.45 128.881 33.78 128.881 32.95V29.96C128.881 29.13 129.551 28.46 130.381 28.46C131.211 28.46 131.881 29.13 131.881 29.96V32.95C131.881 33.78 131.211 34.45 130.381 34.45ZM130.381 24.49C129.551 24.49 128.881 23.82 128.881 22.99V20C128.881 19.17 129.551 18.5 130.381 18.5C131.211 18.5 131.881 19.17 131.881 20V22.99C131.881 23.82 131.211 24.49 130.381 24.49ZM130.381 14.53C129.551 14.53 128.881 13.86 128.881 13.03V10.04C128.881 9.21004 129.551 8.54004 130.381 8.54004C131.211 8.54004 131.881 9.21004 131.881 10.04V13.03C131.881 13.86 131.211 14.53 130.381 14.53Z" fill="black"/>
<path d="M130.381 4.5C129.551 4.5 128.881 3.83 128.881 3V1.5C128.881 0.67 129.551 0 130.381 0C131.211 0 131.881 0.67 131.881 1.5V3C131.881 3.83 131.211 4.5 130.381 4.5Z" fill="black"/>
<path d="M145.01 202.31C144.18 202.31 143.51 201.64 143.51 200.81V1.5C143.51 0.67 144.18 0 145.01 0C145.84 0 146.51 0.67 146.51 1.5V200.81C146.51 201.64 145.84 202.31 145.01 202.31Z" fill="black"/>
<path d="M171.36 30.0402H157.8L162.67 34.9102L159.86 37.7102L150.23 28.0802L159.86 18.4502L162.67 21.2502L157.85 26.0702H171.41L171.36 30.0402Z" fill="black"/>
<path d="M171.36 102.17H157.8L162.67 107.04L159.86 109.84L150.23 100.21L159.86 90.5801L162.67 93.3801L157.85 98.2001H171.41L171.36 102.17Z" fill="black"/>
<path d="M171.36 176.83H157.8L162.67 181.69L159.86 184.49L150.23 174.86L159.86 165.23L162.67 168.03L157.85 172.85H171.41L171.36 176.83Z" fill="black"/>
</g>
<defs>
<filter id="filter0_d_1015_950" x="0" y="0" width="175.41" height="210.31" filterUnits="userSpaceOnUse" color-interpolation-filters="sRGB">
<feFlood flood-opacity="0" result="BackgroundImageFix"/>
<feColorMatrix in="SourceAlpha" type="matrix" values="0 0 0 0 0 0 0 0 0 0 0 0 0 0 0 0 0 0 127 0" result="hardAlpha"/>
<feOffset dy="4"/>
<feGaussianBlur stdDeviation="2"/>
<feComposite in2="hardAlpha" operator="out"/>
<feColorMatrix type="matrix" values="0 0 0 0 0 0 0 0 0 0 0 0 0 0 0 0 0 0 0.25 0"/>
<feBlend mode="normal" in2="BackgroundImageFix" result="effect1_dropShadow_1015_950"/>
<feBlend mode="normal" in="SourceGraphic" in2="effect1_dropShadow_1015_950" result="shape"/>
</filter>
<clipPath id="clip0_1015_950">
<rect width="167.41" height="202.31" fill="white" transform="translate(4)"/>
</clipPath>
</defs>
</svg>
