<svg width="51" height="72" viewBox="0 0 51 72" fill="none" xmlns="http://www.w3.org/2000/svg">
<g clip-path="url(#clip0_1015_897)">
<path d="M30.7613 18.8762V8.25396C30.7613 8.03412 30.5825 7.85425 30.3639 7.85425H9.2207C9.1114 7.85425 9.01205 7.89422 8.9425 7.97416L0.119586 16.8477C-0.128807 17.0975 0.0500358 17.5272 0.397786 17.5272H9.32005C9.53864 17.5272 9.71748 17.7071 9.71748 17.9269V24.682C9.71748 24.682 9.71748 24.702 9.71748 24.712L9.60819 26.4207C9.55851 27.1902 9.32005 27.9296 8.92262 28.5892L4.28265 36.2436C3.5176 37.5127 3.11023 38.9616 3.11023 40.4405V71.378C3.11023 71.5979 3.28908 71.7777 3.50766 71.7777H23.1804C27.3633 71.7777 30.7613 68.3602 30.7613 64.1533V46.4262C30.7613 44.5875 30.1056 42.8188 28.9033 41.4298L22.2365 33.6954C21.3224 32.6362 20.8256 31.2872 20.8256 29.8882V23.253V19.6756C20.8256 19.4558 21.0044 19.2759 21.223 19.2759H30.3738C30.5924 19.2759 30.7712 19.0961 30.7712 18.8762H30.7613ZM26.6579 43.3884C27.3832 44.2278 27.7806 45.307 27.7806 46.4262V64.1533C27.7806 66.7114 25.7239 68.7799 23.1804 68.7799H6.48838C6.26979 68.7799 6.09095 68.6001 6.09095 68.3802V40.4405C6.09095 39.5112 6.34928 38.6019 6.82619 37.8025L11.4662 30.148C12.112 29.0788 12.4895 27.8697 12.579 26.6306C12.5889 26.4207 12.7677 26.2609 12.9764 26.2609H17.4475C17.666 26.2609 17.8449 26.4407 17.8449 26.6606V29.8982C17.8449 32.0167 18.6099 34.0652 19.991 35.674L26.6579 43.4084V43.3884ZM12.6982 22.8533V14.9291C12.6982 14.7093 12.5194 14.5294 12.3008 14.5294H7.59124C7.23355 14.5294 7.06465 14.0997 7.31304 13.8499L10.1745 10.972C10.2441 10.902 10.3534 10.8521 10.4527 10.8521H27.3832C27.6018 10.8521 27.7806 11.0319 27.7806 11.2518V15.8784C27.7806 16.0983 27.6018 16.2781 27.3832 16.2781H18.2324C18.0138 16.2781 17.835 16.458 17.835 16.6778V22.8633C17.835 23.0832 17.6561 23.263 17.4375 23.263H13.0956C12.877 23.263 12.6982 23.0832 12.6982 22.8633V22.8533Z" fill="black"/>
<path d="M39.4539 13.4102C39.4539 12.8906 39.6228 12.4609 39.9706 12.1212C40.3183 11.7814 40.7455 11.6116 41.2622 11.6116C41.7789 11.6116 42.1862 11.7814 42.534 12.1212C42.8817 12.4609 43.0506 12.8906 43.0506 13.4102C43.0506 13.9299 42.8817 14.3596 42.534 14.6993C42.1862 15.0391 41.7689 15.2089 41.2622 15.2089C40.7555 15.2089 40.3183 15.0391 39.9706 14.6993C39.6228 14.3596 39.4539 13.9299 39.4539 13.4102ZM47.4025 13.4102C47.4025 12.8906 47.5714 12.4609 47.9191 12.1212C48.2669 11.7814 48.6941 11.6116 49.2108 11.6116C49.7274 11.6116 50.1348 11.7814 50.4825 12.1212C50.8303 12.4609 50.9992 12.8906 50.9992 13.4102C50.9992 13.9299 50.8303 14.3596 50.4825 14.6993C50.1348 15.0391 49.7175 15.2089 49.2108 15.2089C48.704 15.2089 48.2669 15.0391 47.9191 14.6993C47.5714 14.3596 47.4025 13.9299 47.4025 13.4102ZM35.5293 19.3759C35.5293 18.8563 35.6982 18.4266 36.036 18.0768C36.3738 17.7271 36.8011 17.5572 37.3177 17.5572C37.8344 17.5572 38.2616 17.7271 38.5994 18.0768C38.9372 18.4266 39.1062 18.8563 39.1062 19.3759C39.1062 19.8955 38.9372 20.3052 38.5994 20.655C38.2616 21.0047 37.8344 21.1746 37.3177 21.1746C36.8011 21.1746 36.3738 21.0047 36.036 20.655C35.6982 20.3052 35.5293 19.8855 35.5293 19.3759ZM41.1927 25.0218C41.1927 24.5022 41.3616 24.0725 41.6994 23.7227C42.0372 23.373 42.4644 23.2031 42.9811 23.2031C43.4977 23.2031 43.925 23.373 44.2628 23.7227C44.6006 24.0725 44.7695 24.5022 44.7695 25.0218C44.7695 25.5414 44.6006 25.9511 44.2628 26.3009C43.925 26.6506 43.4977 26.8205 42.9811 26.8205C42.4644 26.8205 42.0372 26.6506 41.6994 26.3009C41.3616 25.9511 41.1927 25.5314 41.1927 25.0218ZM35.5293 7.44458C35.5293 6.94495 35.6982 6.51526 36.036 6.16551C36.3738 5.81577 36.8011 5.64589 37.3177 5.64589C37.8344 5.64589 38.2616 5.81577 38.5994 6.16551C38.9372 6.51526 39.1062 6.93495 39.1062 7.44458C39.1062 7.95421 38.9372 8.39389 38.5994 8.74364C38.2616 9.09338 37.8344 9.26326 37.3177 9.26326C36.8011 9.26326 36.3738 9.09338 36.036 8.74364C35.6982 8.39389 35.5293 7.96421 35.5293 7.44458ZM41.1927 1.79869C41.1927 1.29905 41.3616 0.869367 41.6994 0.519622C42.0372 0.169876 42.4644 0 42.9811 0C43.4977 0 43.925 0.169876 44.2628 0.519622C44.6006 0.869367 44.7695 1.28906 44.7695 1.79869C44.7695 2.30832 44.6006 2.748 44.2628 3.09775C43.925 3.44749 43.4977 3.61737 42.9811 3.61737C42.4644 3.61737 42.0372 3.44749 41.6994 3.09775C41.3616 2.748 41.1927 2.31831 41.1927 1.79869Z" fill="black"/>
</g>
<defs>
<clipPath id="clip0_1015_897">
<rect width="51" height="71.7778" fill="white"/>
</clipPath>
</defs>
</svg>
