<svg width="51" height="55" viewBox="0 0 51 55" fill="none" xmlns="http://www.w3.org/2000/svg">
<g clip-path="url(#clip0_1015_893)">
<path d="M33.5014 54.3261C33.0183 54.3261 32.5976 54.1553 32.2548 53.8139C31.912 53.4724 31.7406 53.0533 31.7406 52.5721C31.7406 52.0599 31.912 51.6408 32.2548 51.2993C32.5976 50.9734 33.0183 50.8027 33.5014 50.8027C36.6645 50.8027 39.3291 50.1663 41.5105 48.878C43.6764 47.5897 44.7672 46.053 44.7672 44.237C44.7672 42.8866 43.9725 41.5983 42.3676 40.372C40.7626 39.1458 38.5811 38.2145 35.7919 37.5626L38.6123 34.7532C41.9313 35.669 44.3621 36.9883 45.9358 38.6802C47.5096 40.372 48.2887 42.2191 48.2887 44.237C48.2887 47.4655 46.7617 49.949 43.7232 51.7029C40.6847 53.4569 37.2722 54.3261 33.4858 54.3261H33.5014ZM9.11549 31.8972C5.89001 31.1366 3.56829 30.019 2.13474 28.56C0.716774 27.101 0 25.5953 0 24.0587C0 22.3668 0.670027 20.8457 2.01008 19.4798C3.35014 18.1139 6.29514 16.5772 10.8295 14.8543C14.3043 13.535 16.5637 12.4484 17.6544 11.5947C18.7296 10.741 19.275 9.73213 19.275 8.58352C19.275 7.18657 18.6361 5.99139 17.3584 5.01352C16.0807 4.02013 14.1952 3.52343 11.7021 3.52343C10.253 3.52343 8.99084 3.72522 7.88451 4.1443C6.77819 4.56339 5.8121 5.16874 5.00183 5.99139C4.69019 6.30183 4.28506 6.48809 3.78644 6.55017C3.30339 6.61226 2.86709 6.48809 2.47754 6.19317C2.04125 5.88274 1.8231 5.47917 1.80752 5.01352C1.79193 4.54787 1.93217 4.12878 2.22823 3.75626C3.05408 2.68526 4.33181 1.785 6.04583 1.071C7.77544 0.357 9.66086 0 11.7021 0C15.0367 0 17.7168 0.791609 19.758 2.3593C21.7993 3.927 22.8121 6.00691 22.8121 8.58352C22.8121 10.5237 22.0797 12.2001 20.6306 13.597C19.1815 15.0095 16.3923 16.4996 12.2631 18.0828C8.80385 19.4177 6.48213 20.5042 5.31347 21.3579C4.12924 22.2116 3.5527 23.1119 3.5527 24.0587C3.5527 25.0055 4.2539 25.8747 5.6407 26.7129C7.0275 27.5511 9.14666 28.3427 11.9982 29.0722L9.13107 31.8972H9.11549ZM46.6215 18.8434L38.363 10.6169L41.5417 7.45044C42.3364 6.65883 43.209 6.25526 44.1595 6.23974C45.11 6.23974 45.9826 6.62778 46.7773 7.41939L49.8314 10.4617C50.626 11.2533 51.0156 12.1225 51.0156 13.0693C51.0156 14.0161 50.6105 14.8853 49.8002 15.677L46.6215 18.8434ZM7.16774 49.9024H10.3465L37.4592 22.8946L34.2805 19.7281L7.16774 46.736V49.9024ZM3.63061 53.4258V45.2304L34.2805 14.668L42.539 22.8946L11.8579 53.4258H3.63061Z" fill="black"/>
</g>
<defs>
<clipPath id="clip0_1015_893">
<rect width="51" height="54.3261" fill="white"/>
</clipPath>
</defs>
</svg>
