<svg width="212" height="179" viewBox="0 0 212 179" fill="none" xmlns="http://www.w3.org/2000/svg">
<g clip-path="url(#clip0_1583_4300)" filter="url(#filter0_d_1583_4300)">
<path d="M11.29 44.6791C12.9634 44.6791 14.32 43.3226 14.32 41.6491C14.32 39.9757 12.9634 38.6191 11.29 38.6191C9.61659 38.6191 8.26001 39.9757 8.26001 41.6491C8.26001 43.3226 9.61659 44.6791 11.29 44.6791Z" fill="#DDDBDB"/>
<path d="M22.08 44.6791C23.7535 44.6791 25.11 43.3226 25.11 41.6491C25.11 39.9757 23.7535 38.6191 22.08 38.6191C20.4066 38.6191 19.05 39.9757 19.05 41.6491C19.05 43.3226 20.4066 44.6791 22.08 44.6791Z" fill="#DDDBDB"/>
<path d="M16.6899 51.8295C18.3633 51.8295 19.7199 50.473 19.7199 48.7995C19.7199 47.1261 18.3633 45.7695 16.6899 45.7695C15.0165 45.7695 13.6599 47.1261 13.6599 48.7995C13.6599 50.473 15.0165 51.8295 16.6899 51.8295Z" fill="#DDDBDB"/>
<path d="M27.4699 51.8295C29.1434 51.8295 30.4999 50.473 30.4999 48.7995C30.4999 47.1261 29.1434 45.7695 27.4699 45.7695C25.7965 45.7695 24.4399 47.1261 24.4399 48.7995C24.4399 50.473 25.7965 51.8295 27.4699 51.8295Z" fill="#DDDBDB"/>
<path d="M11.29 58.6791C12.9634 58.6791 14.32 57.3226 14.32 55.6491C14.32 53.9757 12.9634 52.6191 11.29 52.6191C9.61659 52.6191 8.26001 53.9757 8.26001 55.6491C8.26001 57.3226 9.61659 58.6791 11.29 58.6791Z" fill="#DDDBDB"/>
<path d="M22.08 58.6791C23.7535 58.6791 25.11 57.3226 25.11 55.6491C25.11 53.9757 23.7535 52.6191 22.08 52.6191C20.4066 52.6191 19.05 53.9757 19.05 55.6491C19.05 57.3226 20.4066 58.6791 22.08 58.6791Z" fill="#DDDBDB"/>
<path d="M32.8601 58.6791C34.5335 58.6791 35.8901 57.3226 35.8901 55.6491C35.8901 53.9757 34.5335 52.6191 32.8601 52.6191C31.1867 52.6191 29.8301 53.9757 29.8301 55.6491C29.8301 57.3226 31.1867 58.6791 32.8601 58.6791Z" fill="#DDDBDB"/>
<path d="M43.6401 58.6791C45.3135 58.6791 46.6701 57.3226 46.6701 55.6491C46.6701 53.9757 45.3135 52.6191 43.6401 52.6191C41.9667 52.6191 40.6101 53.9757 40.6101 55.6491C40.6101 57.3226 41.9667 58.6791 43.6401 58.6791Z" fill="#DDDBDB"/>
<path d="M16.6899 65.8295C18.3633 65.8295 19.7199 64.473 19.7199 62.7995C19.7199 61.1261 18.3633 59.7695 16.6899 59.7695C15.0165 59.7695 13.6599 61.1261 13.6599 62.7995C13.6599 64.473 15.0165 65.8295 16.6899 65.8295Z" fill="#DDDBDB"/>
<path d="M27.4699 65.8295C29.1434 65.8295 30.4999 64.473 30.4999 62.7995C30.4999 61.1261 29.1434 59.7695 27.4699 59.7695C25.7965 59.7695 24.4399 61.1261 24.4399 62.7995C24.4399 64.473 25.7965 65.8295 27.4699 65.8295Z" fill="#DDDBDB"/>
<path d="M38.25 65.8295C39.9234 65.8295 41.28 64.473 41.28 62.7995C41.28 61.1261 39.9234 59.7695 38.25 59.7695C36.5765 59.7695 35.22 61.1261 35.22 62.7995C35.22 64.473 36.5765 65.8295 38.25 65.8295Z" fill="#DDDBDB"/>
<path d="M32.8601 44.3803C34.5335 44.3803 35.8901 43.0237 35.8901 41.3503C35.8901 39.6769 34.5335 38.3203 32.8601 38.3203C31.1867 38.3203 29.8301 39.6769 29.8301 41.3503C29.8301 43.0237 31.1867 44.3803 32.8601 44.3803Z" fill="#DDDBDB"/>
<path d="M43.6401 44.3803C45.3135 44.3803 46.6701 43.0237 46.6701 41.3503C46.6701 39.6769 45.3135 38.3203 43.6401 38.3203C41.9667 38.3203 40.6101 39.6769 40.6101 41.3503C40.6101 43.0237 41.9667 44.3803 43.6401 44.3803Z" fill="#DDDBDB"/>
<path d="M38.25 51.5307C39.9234 51.5307 41.28 50.1741 41.28 48.5007C41.28 46.8273 39.9234 45.4707 38.25 45.4707C36.5765 45.4707 35.22 46.8273 35.22 48.5007C35.22 50.1741 36.5765 51.5307 38.25 51.5307Z" fill="#DDDBDB"/>
<path d="M11.29 72.6791C12.9634 72.6791 14.32 71.3226 14.32 69.6491C14.32 67.9757 12.9634 66.6191 11.29 66.6191C9.61659 66.6191 8.26001 67.9757 8.26001 69.6491C8.26001 71.3226 9.61659 72.6791 11.29 72.6791Z" fill="#DDDBDB"/>
<path d="M22.08 72.6791C23.7535 72.6791 25.11 71.3226 25.11 69.6491C25.11 67.9757 23.7535 66.6191 22.08 66.6191C20.4066 66.6191 19.05 67.9757 19.05 69.6491C19.05 71.3226 20.4066 72.6791 22.08 72.6791Z" fill="#DDDBDB"/>
<path d="M32.8601 72.6791C34.5335 72.6791 35.8901 71.3226 35.8901 69.6491C35.8901 67.9757 34.5335 66.6191 32.8601 66.6191C31.1867 66.6191 29.8301 67.9757 29.8301 69.6491C29.8301 71.3226 31.1867 72.6791 32.8601 72.6791Z" fill="#DDDBDB"/>
<path d="M43.6401 72.6791C45.3135 72.6791 46.6701 71.3226 46.6701 69.6491C46.6701 67.9757 45.3135 66.6191 43.6401 66.6191C41.9667 66.6191 40.6101 67.9757 40.6101 69.6491C40.6101 71.3226 41.9667 72.6791 43.6401 72.6791Z" fill="#DDDBDB"/>
<path d="M16.6899 79.8295C18.3633 79.8295 19.7199 78.473 19.7199 76.7995C19.7199 75.1261 18.3633 73.7695 16.6899 73.7695C15.0165 73.7695 13.6599 75.1261 13.6599 76.7995C13.6599 78.473 15.0165 79.8295 16.6899 79.8295Z" fill="#DDDBDB"/>
<path d="M27.4699 79.8295C29.1434 79.8295 30.4999 78.473 30.4999 76.7995C30.4999 75.1261 29.1434 73.7695 27.4699 73.7695C25.7965 73.7695 24.4399 75.1261 24.4399 76.7995C24.4399 78.473 25.7965 79.8295 27.4699 79.8295Z" fill="#DDDBDB"/>
<path d="M38.25 79.8295C39.9234 79.8295 41.28 78.473 41.28 76.7995C41.28 75.1261 39.9234 73.7695 38.25 73.7695C36.5765 73.7695 35.22 75.1261 35.22 76.7995C35.22 78.473 36.5765 79.8295 38.25 79.8295Z" fill="#DDDBDB"/>
<path d="M11.29 86.6694C12.9634 86.6694 14.32 85.3128 14.32 83.6394C14.32 81.966 12.9634 80.6094 11.29 80.6094C9.61659 80.6094 8.26001 81.966 8.26001 83.6394C8.26001 85.3128 9.61659 86.6694 11.29 86.6694Z" fill="#DDDBDB"/>
<path d="M22.08 86.6694C23.7535 86.6694 25.11 85.3128 25.11 83.6394C25.11 81.966 23.7535 80.6094 22.08 80.6094C20.4066 80.6094 19.05 81.966 19.05 83.6394C19.05 85.3128 20.4066 86.6694 22.08 86.6694Z" fill="#DDDBDB"/>
<path d="M32.8601 86.6694C34.5335 86.6694 35.8901 85.3128 35.8901 83.6394C35.8901 81.966 34.5335 80.6094 32.8601 80.6094C31.1867 80.6094 29.8301 81.966 29.8301 83.6394C29.8301 85.3128 31.1867 86.6694 32.8601 86.6694Z" fill="#DDDBDB"/>
<path d="M43.6401 86.6694C45.3135 86.6694 46.6701 85.3128 46.6701 83.6394C46.6701 81.966 45.3135 80.6094 43.6401 80.6094C41.9667 80.6094 40.6101 81.966 40.6101 83.6394C40.6101 85.3128 41.9667 86.6694 43.6401 86.6694Z" fill="#DDDBDB"/>
<path d="M16.6899 93.8198C18.3633 93.8198 19.7199 92.4632 19.7199 90.7898C19.7199 89.1163 18.3633 87.7598 16.6899 87.7598C15.0165 87.7598 13.6599 89.1163 13.6599 90.7898C13.6599 92.4632 15.0165 93.8198 16.6899 93.8198Z" fill="#DDDBDB"/>
<path d="M27.4699 93.8198C29.1434 93.8198 30.4999 92.4632 30.4999 90.7898C30.4999 89.1163 29.1434 87.7598 27.4699 87.7598C25.7965 87.7598 24.4399 89.1163 24.4399 90.7898C24.4399 92.4632 25.7965 93.8198 27.4699 93.8198Z" fill="#DDDBDB"/>
<path d="M38.25 93.8198C39.9234 93.8198 41.28 92.4632 41.28 90.7898C41.28 89.1163 39.9234 87.7598 38.25 87.7598C36.5765 87.7598 35.22 89.1163 35.22 90.7898C35.22 92.4632 36.5765 93.8198 38.25 93.8198Z" fill="#DDDBDB"/>
<path d="M11.29 100.669C12.9634 100.669 14.32 99.3128 14.32 97.6394C14.32 95.966 12.9634 94.6094 11.29 94.6094C9.61659 94.6094 8.26001 95.966 8.26001 97.6394C8.26001 99.3128 9.61659 100.669 11.29 100.669Z" fill="#DDDBDB"/>
<path d="M22.08 100.669C23.7535 100.669 25.11 99.3128 25.11 97.6394C25.11 95.966 23.7535 94.6094 22.08 94.6094C20.4066 94.6094 19.05 95.966 19.05 97.6394C19.05 99.3128 20.4066 100.669 22.08 100.669Z" fill="#DDDBDB"/>
<path d="M32.8601 100.669C34.5335 100.669 35.8901 99.3128 35.8901 97.6394C35.8901 95.966 34.5335 94.6094 32.8601 94.6094C31.1867 94.6094 29.8301 95.966 29.8301 97.6394C29.8301 99.3128 31.1867 100.669 32.8601 100.669Z" fill="#DDDBDB"/>
<path d="M43.6401 100.669C45.3135 100.669 46.6701 99.3128 46.6701 97.6394C46.6701 95.966 45.3135 94.6094 43.6401 94.6094C41.9667 94.6094 40.6101 95.966 40.6101 97.6394C40.6101 99.3128 41.9667 100.669 43.6401 100.669Z" fill="#DDDBDB"/>
<path d="M16.6899 107.82C18.3633 107.82 19.7199 106.463 19.7199 104.79C19.7199 103.116 18.3633 101.76 16.6899 101.76C15.0165 101.76 13.6599 103.116 13.6599 104.79C13.6599 106.463 15.0165 107.82 16.6899 107.82Z" fill="#DDDBDB"/>
<path d="M27.4699 107.82C29.1434 107.82 30.4999 106.463 30.4999 104.79C30.4999 103.116 29.1434 101.76 27.4699 101.76C25.7965 101.76 24.4399 103.116 24.4399 104.79C24.4399 106.463 25.7965 107.82 27.4699 107.82Z" fill="#DDDBDB"/>
<path d="M38.25 107.82C39.9234 107.82 41.28 106.463 41.28 104.79C41.28 103.116 39.9234 101.76 38.25 101.76C36.5765 101.76 35.22 103.116 35.22 104.79C35.22 106.463 36.5765 107.82 38.25 107.82Z" fill="#DDDBDB"/>
<path d="M11.29 114.669C12.9634 114.669 14.32 113.313 14.32 111.639C14.32 109.966 12.9634 108.609 11.29 108.609C9.61659 108.609 8.26001 109.966 8.26001 111.639C8.26001 113.313 9.61659 114.669 11.29 114.669Z" fill="#DDDBDB"/>
<path d="M22.08 114.669C23.7535 114.669 25.11 113.313 25.11 111.639C25.11 109.966 23.7535 108.609 22.08 108.609C20.4066 108.609 19.05 109.966 19.05 111.639C19.05 113.313 20.4066 114.669 22.08 114.669Z" fill="#DDDBDB"/>
<path d="M32.8601 114.669C34.5335 114.669 35.8901 113.313 35.8901 111.639C35.8901 109.966 34.5335 108.609 32.8601 108.609C31.1867 108.609 29.8301 109.966 29.8301 111.639C29.8301 113.313 31.1867 114.669 32.8601 114.669Z" fill="#DDDBDB"/>
<path d="M43.6401 114.669C45.3135 114.669 46.6701 113.313 46.6701 111.639C46.6701 109.966 45.3135 108.609 43.6401 108.609C41.9667 108.609 40.6101 109.966 40.6101 111.639C40.6101 113.313 41.9667 114.669 43.6401 114.669Z" fill="#DDDBDB"/>
<path d="M16.6899 121.82C18.3633 121.82 19.7199 120.463 19.7199 118.79C19.7199 117.116 18.3633 115.76 16.6899 115.76C15.0165 115.76 13.6599 117.116 13.6599 118.79C13.6599 120.463 15.0165 121.82 16.6899 121.82Z" fill="#DDDBDB"/>
<path d="M27.4699 121.82C29.1434 121.82 30.4999 120.463 30.4999 118.79C30.4999 117.116 29.1434 115.76 27.4699 115.76C25.7965 115.76 24.4399 117.116 24.4399 118.79C24.4399 120.463 25.7965 121.82 27.4699 121.82Z" fill="#DDDBDB"/>
<path d="M38.25 121.82C39.9234 121.82 41.28 120.463 41.28 118.79C41.28 117.116 39.9234 115.76 38.25 115.76C36.5765 115.76 35.22 117.116 35.22 118.79C35.22 120.463 36.5765 121.82 38.25 121.82Z" fill="#DDDBDB"/>
<path d="M11.29 128.669C12.9634 128.669 14.32 127.313 14.32 125.639C14.32 123.966 12.9634 122.609 11.29 122.609C9.61659 122.609 8.26001 123.966 8.26001 125.639C8.26001 127.313 9.61659 128.669 11.29 128.669Z" fill="#DDDBDB"/>
<path d="M22.08 128.669C23.7535 128.669 25.11 127.313 25.11 125.639C25.11 123.966 23.7535 122.609 22.08 122.609C20.4066 122.609 19.05 123.966 19.05 125.639C19.05 127.313 20.4066 128.669 22.08 128.669Z" fill="#DDDBDB"/>
<path d="M32.8601 128.669C34.5335 128.669 35.8901 127.313 35.8901 125.639C35.8901 123.966 34.5335 122.609 32.8601 122.609C31.1867 122.609 29.8301 123.966 29.8301 125.639C29.8301 127.313 31.1867 128.669 32.8601 128.669Z" fill="#DDDBDB"/>
<path d="M43.6401 128.669C45.3135 128.669 46.6701 127.313 46.6701 125.639C46.6701 123.966 45.3135 122.609 43.6401 122.609C41.9667 122.609 40.6101 123.966 40.6101 125.639C40.6101 127.313 41.9667 128.669 43.6401 128.669Z" fill="#DDDBDB"/>
<path d="M16.6899 135.81C18.3633 135.81 19.7199 134.453 19.7199 132.78C19.7199 131.107 18.3633 129.75 16.6899 129.75C15.0165 129.75 13.6599 131.107 13.6599 132.78C13.6599 134.453 15.0165 135.81 16.6899 135.81Z" fill="#DDDBDB"/>
<path d="M27.4699 135.81C29.1434 135.81 30.4999 134.453 30.4999 132.78C30.4999 131.107 29.1434 129.75 27.4699 129.75C25.7965 129.75 24.4399 131.107 24.4399 132.78C24.4399 134.453 25.7965 135.81 27.4699 135.81Z" fill="#DDDBDB"/>
<path d="M38.25 135.81C39.9234 135.81 41.28 134.453 41.28 132.78C41.28 131.107 39.9234 129.75 38.25 129.75C36.5765 129.75 35.22 131.107 35.22 132.78C35.22 134.453 36.5765 135.81 38.25 135.81Z" fill="#DDDBDB"/>
<path d="M11.29 142.66C12.9634 142.66 14.32 141.303 14.32 139.63C14.32 137.956 12.9634 136.6 11.29 136.6C9.61659 136.6 8.26001 137.956 8.26001 139.63C8.26001 141.303 9.61659 142.66 11.29 142.66Z" fill="#DDDBDB"/>
<path d="M22.08 142.66C23.7535 142.66 25.11 141.303 25.11 139.63C25.11 137.956 23.7535 136.6 22.08 136.6C20.4066 136.6 19.05 137.956 19.05 139.63C19.05 141.303 20.4066 142.66 22.08 142.66Z" fill="#DDDBDB"/>
<path d="M32.8601 142.66C34.5335 142.66 35.8901 141.303 35.8901 139.63C35.8901 137.956 34.5335 136.6 32.8601 136.6C31.1867 136.6 29.8301 137.956 29.8301 139.63C29.8301 141.303 31.1867 142.66 32.8601 142.66Z" fill="#DDDBDB"/>
<path d="M43.6401 142.66C45.3135 142.66 46.6701 141.303 46.6701 139.63C46.6701 137.956 45.3135 136.6 43.6401 136.6C41.9667 136.6 40.6101 137.956 40.6101 139.63C40.6101 141.303 41.9667 142.66 43.6401 142.66Z" fill="#DDDBDB"/>
<path d="M16.6899 149.81C18.3633 149.81 19.7199 148.453 19.7199 146.78C19.7199 145.107 18.3633 143.75 16.6899 143.75C15.0165 143.75 13.6599 145.107 13.6599 146.78C13.6599 148.453 15.0165 149.81 16.6899 149.81Z" fill="#DDDBDB"/>
<path d="M27.4699 149.81C29.1434 149.81 30.4999 148.453 30.4999 146.78C30.4999 145.107 29.1434 143.75 27.4699 143.75C25.7965 143.75 24.4399 145.107 24.4399 146.78C24.4399 148.453 25.7965 149.81 27.4699 149.81Z" fill="#DDDBDB"/>
<path d="M38.25 149.81C39.9234 149.81 41.28 148.453 41.28 146.78C41.28 145.107 39.9234 143.75 38.25 143.75C36.5765 143.75 35.22 145.107 35.22 146.78C35.22 148.453 36.5765 149.81 38.25 149.81Z" fill="#DDDBDB"/>
<path d="M11.29 156.66C12.9634 156.66 14.32 155.303 14.32 153.63C14.32 151.956 12.9634 150.6 11.29 150.6C9.61659 150.6 8.26001 151.956 8.26001 153.63C8.26001 155.303 9.61659 156.66 11.29 156.66Z" fill="#DDDBDB"/>
<path d="M22.08 156.66C23.7535 156.66 25.11 155.303 25.11 153.63C25.11 151.956 23.7535 150.6 22.08 150.6C20.4066 150.6 19.05 151.956 19.05 153.63C19.05 155.303 20.4066 156.66 22.08 156.66Z" fill="#DDDBDB"/>
<path d="M32.8601 156.66C34.5335 156.66 35.8901 155.303 35.8901 153.63C35.8901 151.956 34.5335 150.6 32.8601 150.6C31.1867 150.6 29.8301 151.956 29.8301 153.63C29.8301 155.303 31.1867 156.66 32.8601 156.66Z" fill="#DDDBDB"/>
<path d="M43.6401 156.66C45.3135 156.66 46.6701 155.303 46.6701 153.63C46.6701 151.956 45.3135 150.6 43.6401 150.6C41.9667 150.6 40.6101 151.956 40.6101 153.63C40.6101 155.303 41.9667 156.66 43.6401 156.66Z" fill="#DDDBDB"/>
<path d="M16.6899 163.81C18.3633 163.81 19.7199 162.453 19.7199 160.78C19.7199 159.107 18.3633 157.75 16.6899 157.75C15.0165 157.75 13.6599 159.107 13.6599 160.78C13.6599 162.453 15.0165 163.81 16.6899 163.81Z" fill="#DDDBDB"/>
<path d="M27.4699 163.81C29.1434 163.81 30.4999 162.453 30.4999 160.78C30.4999 159.107 29.1434 157.75 27.4699 157.75C25.7965 157.75 24.4399 159.107 24.4399 160.78C24.4399 162.453 25.7965 163.81 27.4699 163.81Z" fill="#DDDBDB"/>
<path d="M38.25 163.81C39.9234 163.81 41.28 162.453 41.28 160.78C41.28 159.107 39.9234 157.75 38.25 157.75C36.5765 157.75 35.22 159.107 35.22 160.78C35.22 162.453 36.5765 163.81 38.25 163.81Z" fill="#DDDBDB"/>
<path d="M11.29 170.66C12.9634 170.66 14.32 169.303 14.32 167.63C14.32 165.956 12.9634 164.6 11.29 164.6C9.61659 164.6 8.26001 165.956 8.26001 167.63C8.26001 169.303 9.61659 170.66 11.29 170.66Z" fill="#DDDBDB"/>
<path d="M22.08 170.66C23.7535 170.66 25.11 169.303 25.11 167.63C25.11 165.956 23.7535 164.6 22.08 164.6C20.4066 164.6 19.05 165.956 19.05 167.63C19.05 169.303 20.4066 170.66 22.08 170.66Z" fill="#DDDBDB"/>
<path d="M32.8601 170.66C34.5335 170.66 35.8901 169.303 35.8901 167.63C35.8901 165.956 34.5335 164.6 32.8601 164.6C31.1867 164.6 29.8301 165.956 29.8301 167.63C29.8301 169.303 31.1867 170.66 32.8601 170.66Z" fill="#DDDBDB"/>
<path d="M43.6401 170.66C45.3135 170.66 46.6701 169.303 46.6701 167.63C46.6701 165.956 45.3135 164.6 43.6401 164.6C41.9667 164.6 40.6101 165.956 40.6101 167.63C40.6101 169.303 41.9667 170.66 43.6401 170.66Z" fill="#DDDBDB"/>
<path d="M61.4099 44.6791C63.0833 44.6791 64.4399 43.3226 64.4399 41.6491C64.4399 39.9757 63.0833 38.6191 61.4099 38.6191C59.7365 38.6191 58.3799 39.9757 58.3799 41.6491C58.3799 43.3226 59.7365 44.6791 61.4099 44.6791Z" fill="#DDDBDB"/>
<path d="M77.5901 51.8295C79.2635 51.8295 80.6201 50.473 80.6201 48.7995C80.6201 47.1261 79.2635 45.7695 77.5901 45.7695C75.9166 45.7695 74.5601 47.1261 74.5601 48.7995C74.5601 50.473 75.9166 51.8295 77.5901 51.8295Z" fill="#DDDBDB"/>
<path d="M88.3701 51.8295C90.0435 51.8295 91.4001 50.473 91.4001 48.7995C91.4001 47.1261 90.0435 45.7695 88.3701 45.7695C86.6967 45.7695 85.3401 47.1261 85.3401 48.7995C85.3401 50.473 86.6967 51.8295 88.3701 51.8295Z" fill="#DDDBDB"/>
<path d="M99.1501 51.8295C100.824 51.8295 102.18 50.473 102.18 48.7995C102.18 47.1261 100.824 45.7695 99.1501 45.7695C97.4767 45.7695 96.1201 47.1261 96.1201 48.7995C96.1201 50.473 97.4767 51.8295 99.1501 51.8295Z" fill="#DDDBDB"/>
<path d="M109.94 51.8295C111.613 51.8295 112.97 50.473 112.97 48.7995C112.97 47.1261 111.613 45.7695 109.94 45.7695C108.266 45.7695 106.91 47.1261 106.91 48.7995C106.91 50.473 108.266 51.8295 109.94 51.8295Z" fill="#DDDBDB"/>
<path d="M120.72 51.8295C122.393 51.8295 123.75 50.473 123.75 48.7995C123.75 47.1261 122.393 45.7695 120.72 45.7695C119.047 45.7695 117.69 47.1261 117.69 48.7995C117.69 50.473 119.047 51.8295 120.72 51.8295Z" fill="#DDDBDB"/>
<path d="M131.5 51.8295C133.173 51.8295 134.53 50.473 134.53 48.7995C134.53 47.1261 133.173 45.7695 131.5 45.7695C129.827 45.7695 128.47 47.1261 128.47 48.7995C128.47 50.473 129.827 51.8295 131.5 51.8295Z" fill="#DDDBDB"/>
<path d="M142.28 51.8295C143.953 51.8295 145.31 50.473 145.31 48.7995C145.31 47.1261 143.953 45.7695 142.28 45.7695C140.607 45.7695 139.25 47.1261 139.25 48.7995C139.25 50.473 140.607 51.8295 142.28 51.8295Z" fill="#DDDBDB"/>
<path d="M153.07 51.8295C154.743 51.8295 156.1 50.473 156.1 48.7995C156.1 47.1261 154.743 45.7695 153.07 45.7695C151.397 45.7695 150.04 47.1261 150.04 48.7995C150.04 50.473 151.397 51.8295 153.07 51.8295Z" fill="#DDDBDB"/>
<path d="M82.98 58.6791C84.6534 58.6791 86.01 57.3226 86.01 55.6491C86.01 53.9757 84.6534 52.6191 82.98 52.6191C81.3065 52.6191 79.95 53.9757 79.95 55.6491C79.95 57.3226 81.3065 58.6791 82.98 58.6791Z" fill="#DDDBDB"/>
<path d="M93.76 58.6791C95.4334 58.6791 96.79 57.3226 96.79 55.6491C96.79 53.9757 95.4334 52.6191 93.76 52.6191C92.0866 52.6191 90.73 53.9757 90.73 55.6491C90.73 57.3226 92.0866 58.6791 93.76 58.6791Z" fill="#DDDBDB"/>
<path d="M104.54 58.6791C106.213 58.6791 107.57 57.3226 107.57 55.6491C107.57 53.9757 106.213 52.6191 104.54 52.6191C102.867 52.6191 101.51 53.9757 101.51 55.6491C101.51 57.3226 102.867 58.6791 104.54 58.6791Z" fill="#DDDBDB"/>
<path d="M115.33 58.6791C117.003 58.6791 118.36 57.3226 118.36 55.6491C118.36 53.9757 117.003 52.6191 115.33 52.6191C113.657 52.6191 112.3 53.9757 112.3 55.6491C112.3 57.3226 113.657 58.6791 115.33 58.6791Z" fill="#DDDBDB"/>
<path d="M126.11 58.6791C127.783 58.6791 129.14 57.3226 129.14 55.6491C129.14 53.9757 127.783 52.6191 126.11 52.6191C124.437 52.6191 123.08 53.9757 123.08 55.6491C123.08 57.3226 124.437 58.6791 126.11 58.6791Z" fill="#DDDBDB"/>
<path d="M136.89 58.6791C138.564 58.6791 139.92 57.3226 139.92 55.6491C139.92 53.9757 138.564 52.6191 136.89 52.6191C135.217 52.6191 133.86 53.9757 133.86 55.6491C133.86 57.3226 135.217 58.6791 136.89 58.6791Z" fill="#DDDBDB"/>
<path d="M147.67 58.6791C149.343 58.6791 150.7 57.3226 150.7 55.6491C150.7 53.9757 149.343 52.6191 147.67 52.6191C145.996 52.6191 144.64 53.9757 144.64 55.6491C144.64 57.3226 145.996 58.6791 147.67 58.6791Z" fill="#DDDBDB"/>
<path d="M158.46 58.6791C160.133 58.6791 161.49 57.3226 161.49 55.6491C161.49 53.9757 160.133 52.6191 158.46 52.6191C156.787 52.6191 155.43 53.9757 155.43 55.6491C155.43 57.3226 156.787 58.6791 158.46 58.6791Z" fill="#DDDBDB"/>
<path d="M77.5901 65.8295C79.2635 65.8295 80.6201 64.473 80.6201 62.7995C80.6201 61.1261 79.2635 59.7695 77.5901 59.7695C75.9166 59.7695 74.5601 61.1261 74.5601 62.7995C74.5601 64.473 75.9166 65.8295 77.5901 65.8295Z" fill="#DDDBDB"/>
<path d="M88.3701 65.8295C90.0435 65.8295 91.4001 64.473 91.4001 62.7995C91.4001 61.1261 90.0435 59.7695 88.3701 59.7695C86.6967 59.7695 85.3401 61.1261 85.3401 62.7995C85.3401 64.473 86.6967 65.8295 88.3701 65.8295Z" fill="#DDDBDB"/>
<path d="M67.1401 51.8295C68.8135 51.8295 70.1701 50.473 70.1701 48.7995C70.1701 47.1261 68.8135 45.7695 67.1401 45.7695C65.4667 45.7695 64.1101 47.1261 64.1101 48.7995C64.1101 50.473 65.4667 51.8295 67.1401 51.8295Z" fill="#DDDBDB"/>
<path d="M61.75 58.6791C63.4234 58.6791 64.78 57.3226 64.78 55.6491C64.78 53.9757 63.4234 52.6191 61.75 52.6191C60.0765 52.6191 58.72 53.9757 58.72 55.6491C58.72 57.3226 60.0765 58.6791 61.75 58.6791Z" fill="#DDDBDB"/>
<path d="M72.54 58.6791C74.2134 58.6791 75.57 57.3226 75.57 55.6491C75.57 53.9757 74.2134 52.6191 72.54 52.6191C70.8666 52.6191 69.51 53.9757 69.51 55.6491C69.51 57.3226 70.8666 58.6791 72.54 58.6791Z" fill="#DDDBDB"/>
<path d="M67.1401 65.8295C68.8135 65.8295 70.1701 64.473 70.1701 62.7995C70.1701 61.1261 68.8135 59.7695 67.1401 59.7695C65.4667 59.7695 64.1101 61.1261 64.1101 62.7995C64.1101 64.473 65.4667 65.8295 67.1401 65.8295Z" fill="#DDDBDB"/>
<path d="M99.1501 65.8295C100.824 65.8295 102.18 64.473 102.18 62.7995C102.18 61.1261 100.824 59.7695 99.1501 59.7695C97.4767 59.7695 96.1201 61.1261 96.1201 62.7995C96.1201 64.473 97.4767 65.8295 99.1501 65.8295Z" fill="#DDDBDB"/>
<path d="M109.94 65.8295C111.613 65.8295 112.97 64.473 112.97 62.7995C112.97 61.1261 111.613 59.7695 109.94 59.7695C108.266 59.7695 106.91 61.1261 106.91 62.7995C106.91 64.473 108.266 65.8295 109.94 65.8295Z" fill="#DDDBDB"/>
<path d="M120.72 65.8295C122.393 65.8295 123.75 64.473 123.75 62.7995C123.75 61.1261 122.393 59.7695 120.72 59.7695C119.047 59.7695 117.69 61.1261 117.69 62.7995C117.69 64.473 119.047 65.8295 120.72 65.8295Z" fill="#DDDBDB"/>
<path d="M131.5 65.8295C133.173 65.8295 134.53 64.473 134.53 62.7995C134.53 61.1261 133.173 59.7695 131.5 59.7695C129.827 59.7695 128.47 61.1261 128.47 62.7995C128.47 64.473 129.827 65.8295 131.5 65.8295Z" fill="#DDDBDB"/>
<path d="M142.28 65.8295C143.953 65.8295 145.31 64.473 145.31 62.7995C145.31 61.1261 143.953 59.7695 142.28 59.7695C140.607 59.7695 139.25 61.1261 139.25 62.7995C139.25 64.473 140.607 65.8295 142.28 65.8295Z" fill="#DDDBDB"/>
<path d="M153.07 65.8295C154.743 65.8295 156.1 64.473 156.1 62.7995C156.1 61.1261 154.743 59.7695 153.07 59.7695C151.397 59.7695 150.04 61.1261 150.04 62.7995C150.04 64.473 151.397 65.8295 153.07 65.8295Z" fill="#DDDBDB"/>
<path d="M61.4099 72.6791C63.0833 72.6791 64.4399 71.3226 64.4399 69.6491C64.4399 67.9757 63.0833 66.6191 61.4099 66.6191C59.7365 66.6191 58.3799 67.9757 58.3799 69.6491C58.3799 71.3226 59.7365 72.6791 61.4099 72.6791Z" fill="#DDDBDB"/>
<path d="M72.1999 72.6791C73.8733 72.6791 75.2299 71.3226 75.2299 69.6491C75.2299 67.9757 73.8733 66.6191 72.1999 66.6191C70.5265 66.6191 69.1699 67.9757 69.1699 69.6491C69.1699 71.3226 70.5265 72.6791 72.1999 72.6791Z" fill="#DDDBDB"/>
<path d="M82.98 72.6791C84.6534 72.6791 86.01 71.3226 86.01 69.6491C86.01 67.9757 84.6534 66.6191 82.98 66.6191C81.3065 66.6191 79.95 67.9757 79.95 69.6491C79.95 71.3226 81.3065 72.6791 82.98 72.6791Z" fill="#DDDBDB"/>
<path d="M93.76 72.6791C95.4334 72.6791 96.79 71.3226 96.79 69.6491C96.79 67.9757 95.4334 66.6191 93.76 66.6191C92.0866 66.6191 90.73 67.9757 90.73 69.6491C90.73 71.3226 92.0866 72.6791 93.76 72.6791Z" fill="#DDDBDB"/>
<path d="M104.54 72.6791C106.213 72.6791 107.57 71.3226 107.57 69.6491C107.57 67.9757 106.213 66.6191 104.54 66.6191C102.867 66.6191 101.51 67.9757 101.51 69.6491C101.51 71.3226 102.867 72.6791 104.54 72.6791Z" fill="#DDDBDB"/>
<path d="M115.33 72.6791C117.003 72.6791 118.36 71.3226 118.36 69.6491C118.36 67.9757 117.003 66.6191 115.33 66.6191C113.657 66.6191 112.3 67.9757 112.3 69.6491C112.3 71.3226 113.657 72.6791 115.33 72.6791Z" fill="#DDDBDB"/>
<path d="M126.11 72.6791C127.783 72.6791 129.14 71.3226 129.14 69.6491C129.14 67.9757 127.783 66.6191 126.11 66.6191C124.437 66.6191 123.08 67.9757 123.08 69.6491C123.08 71.3226 124.437 72.6791 126.11 72.6791Z" fill="#DDDBDB"/>
<path d="M136.89 72.6791C138.564 72.6791 139.92 71.3226 139.92 69.6491C139.92 67.9757 138.564 66.6191 136.89 66.6191C135.217 66.6191 133.86 67.9757 133.86 69.6491C133.86 71.3226 135.217 72.6791 136.89 72.6791Z" fill="#DDDBDB"/>
<path d="M147.67 72.6791C149.343 72.6791 150.7 71.3226 150.7 69.6491C150.7 67.9757 149.343 66.6191 147.67 66.6191C145.996 66.6191 144.64 67.9757 144.64 69.6491C144.64 71.3226 145.996 72.6791 147.67 72.6791Z" fill="#DDDBDB"/>
<path d="M158.46 72.6791C160.133 72.6791 161.49 71.3226 161.49 69.6491C161.49 67.9757 160.133 66.6191 158.46 66.6191C156.787 66.6191 155.43 67.9757 155.43 69.6491C155.43 71.3226 156.787 72.6791 158.46 72.6791Z" fill="#DDDBDB"/>
<path d="M66.81 79.8295C68.4835 79.8295 69.84 78.473 69.84 76.7995C69.84 75.1261 68.4835 73.7695 66.81 73.7695C65.1366 73.7695 63.78 75.1261 63.78 76.7995C63.78 78.473 65.1366 79.8295 66.81 79.8295Z" fill="#DDDBDB"/>
<path d="M77.5901 79.8295C79.2635 79.8295 80.6201 78.473 80.6201 76.7995C80.6201 75.1261 79.2635 73.7695 77.5901 73.7695C75.9166 73.7695 74.5601 75.1261 74.5601 76.7995C74.5601 78.473 75.9166 79.8295 77.5901 79.8295Z" fill="#DDDBDB"/>
<path d="M88.3701 79.8295C90.0435 79.8295 91.4001 78.473 91.4001 76.7995C91.4001 75.1261 90.0435 73.7695 88.3701 73.7695C86.6967 73.7695 85.3401 75.1261 85.3401 76.7995C85.3401 78.473 86.6967 79.8295 88.3701 79.8295Z" fill="#DDDBDB"/>
<path d="M99.1501 79.8295C100.824 79.8295 102.18 78.473 102.18 76.7995C102.18 75.1261 100.824 73.7695 99.1501 73.7695C97.4767 73.7695 96.1201 75.1261 96.1201 76.7995C96.1201 78.473 97.4767 79.8295 99.1501 79.8295Z" fill="#DDDBDB"/>
<path d="M109.94 79.8295C111.613 79.8295 112.97 78.473 112.97 76.7995C112.97 75.1261 111.613 73.7695 109.94 73.7695C108.266 73.7695 106.91 75.1261 106.91 76.7995C106.91 78.473 108.266 79.8295 109.94 79.8295Z" fill="#DDDBDB"/>
<path d="M120.72 79.8295C122.393 79.8295 123.75 78.473 123.75 76.7995C123.75 75.1261 122.393 73.7695 120.72 73.7695C119.047 73.7695 117.69 75.1261 117.69 76.7995C117.69 78.473 119.047 79.8295 120.72 79.8295Z" fill="#DDDBDB"/>
<path d="M131.5 79.8295C133.173 79.8295 134.53 78.473 134.53 76.7995C134.53 75.1261 133.173 73.7695 131.5 73.7695C129.827 73.7695 128.47 75.1261 128.47 76.7995C128.47 78.473 129.827 79.8295 131.5 79.8295Z" fill="#DDDBDB"/>
<path d="M142.28 79.8295C143.953 79.8295 145.31 78.473 145.31 76.7995C145.31 75.1261 143.953 73.7695 142.28 73.7695C140.607 73.7695 139.25 75.1261 139.25 76.7995C139.25 78.473 140.607 79.8295 142.28 79.8295Z" fill="#DDDBDB"/>
<path d="M153.07 79.8295C154.743 79.8295 156.1 78.473 156.1 76.7995C156.1 75.1261 154.743 73.7695 153.07 73.7695C151.397 73.7695 150.04 75.1261 150.04 76.7995C150.04 78.473 151.397 79.8295 153.07 79.8295Z" fill="#DDDBDB"/>
<path d="M61.4099 86.6694C63.0833 86.6694 64.4399 85.3128 64.4399 83.6394C64.4399 81.966 63.0833 80.6094 61.4099 80.6094C59.7365 80.6094 58.3799 81.966 58.3799 83.6394C58.3799 85.3128 59.7365 86.6694 61.4099 86.6694Z" fill="#DDDBDB"/>
<path d="M72.1999 86.6694C73.8733 86.6694 75.2299 85.3128 75.2299 83.6394C75.2299 81.966 73.8733 80.6094 72.1999 80.6094C70.5265 80.6094 69.1699 81.966 69.1699 83.6394C69.1699 85.3128 70.5265 86.6694 72.1999 86.6694Z" fill="#DDDBDB"/>
<path d="M82.98 86.6694C84.6534 86.6694 86.01 85.3128 86.01 83.6394C86.01 81.966 84.6534 80.6094 82.98 80.6094C81.3065 80.6094 79.95 81.966 79.95 83.6394C79.95 85.3128 81.3065 86.6694 82.98 86.6694Z" fill="#DDDBDB"/>
<path d="M93.76 86.6694C95.4334 86.6694 96.79 85.3128 96.79 83.6394C96.79 81.966 95.4334 80.6094 93.76 80.6094C92.0866 80.6094 90.73 81.966 90.73 83.6394C90.73 85.3128 92.0866 86.6694 93.76 86.6694Z" fill="#DDDBDB"/>
<path d="M104.54 86.6694C106.213 86.6694 107.57 85.3128 107.57 83.6394C107.57 81.966 106.213 80.6094 104.54 80.6094C102.867 80.6094 101.51 81.966 101.51 83.6394C101.51 85.3128 102.867 86.6694 104.54 86.6694Z" fill="#DDDBDB"/>
<path d="M115.33 86.6694C117.003 86.6694 118.36 85.3128 118.36 83.6394C118.36 81.966 117.003 80.6094 115.33 80.6094C113.657 80.6094 112.3 81.966 112.3 83.6394C112.3 85.3128 113.657 86.6694 115.33 86.6694Z" fill="#DDDBDB"/>
<path d="M126.11 86.6694C127.783 86.6694 129.14 85.3128 129.14 83.6394C129.14 81.966 127.783 80.6094 126.11 80.6094C124.437 80.6094 123.08 81.966 123.08 83.6394C123.08 85.3128 124.437 86.6694 126.11 86.6694Z" fill="#DDDBDB"/>
<path d="M136.89 86.6694C138.564 86.6694 139.92 85.3128 139.92 83.6394C139.92 81.966 138.564 80.6094 136.89 80.6094C135.217 80.6094 133.86 81.966 133.86 83.6394C133.86 85.3128 135.217 86.6694 136.89 86.6694Z" fill="#DDDBDB"/>
<path d="M147.67 86.6694C149.343 86.6694 150.7 85.3128 150.7 83.6394C150.7 81.966 149.343 80.6094 147.67 80.6094C145.996 80.6094 144.64 81.966 144.64 83.6394C144.64 85.3128 145.996 86.6694 147.67 86.6694Z" fill="#DDDBDB"/>
<path d="M158.46 86.6694C160.133 86.6694 161.49 85.3128 161.49 83.6394C161.49 81.966 160.133 80.6094 158.46 80.6094C156.787 80.6094 155.43 81.966 155.43 83.6394C155.43 85.3128 156.787 86.6694 158.46 86.6694Z" fill="#DDDBDB"/>
<path d="M66.81 93.8198C68.4835 93.8198 69.84 92.4632 69.84 90.7898C69.84 89.1163 68.4835 87.7598 66.81 87.7598C65.1366 87.7598 63.78 89.1163 63.78 90.7898C63.78 92.4632 65.1366 93.8198 66.81 93.8198Z" fill="#DDDBDB"/>
<path d="M77.5901 93.8198C79.2635 93.8198 80.6201 92.4632 80.6201 90.7898C80.6201 89.1163 79.2635 87.7598 77.5901 87.7598C75.9166 87.7598 74.5601 89.1163 74.5601 90.7898C74.5601 92.4632 75.9166 93.8198 77.5901 93.8198Z" fill="#DDDBDB"/>
<path d="M88.3701 93.8198C90.0435 93.8198 91.4001 92.4632 91.4001 90.7898C91.4001 89.1163 90.0435 87.7598 88.3701 87.7598C86.6967 87.7598 85.3401 89.1163 85.3401 90.7898C85.3401 92.4632 86.6967 93.8198 88.3701 93.8198Z" fill="#DDDBDB"/>
<path d="M99.1501 93.8198C100.824 93.8198 102.18 92.4632 102.18 90.7898C102.18 89.1163 100.824 87.7598 99.1501 87.7598C97.4767 87.7598 96.1201 89.1163 96.1201 90.7898C96.1201 92.4632 97.4767 93.8198 99.1501 93.8198Z" fill="#DDDBDB"/>
<path d="M109.94 93.8198C111.613 93.8198 112.97 92.4632 112.97 90.7898C112.97 89.1163 111.613 87.7598 109.94 87.7598C108.266 87.7598 106.91 89.1163 106.91 90.7898C106.91 92.4632 108.266 93.8198 109.94 93.8198Z" fill="#DDDBDB"/>
<path d="M120.72 93.8198C122.393 93.8198 123.75 92.4632 123.75 90.7898C123.75 89.1163 122.393 87.7598 120.72 87.7598C119.047 87.7598 117.69 89.1163 117.69 90.7898C117.69 92.4632 119.047 93.8198 120.72 93.8198Z" fill="#DDDBDB"/>
<path d="M131.5 93.8198C133.173 93.8198 134.53 92.4632 134.53 90.7898C134.53 89.1163 133.173 87.7598 131.5 87.7598C129.827 87.7598 128.47 89.1163 128.47 90.7898C128.47 92.4632 129.827 93.8198 131.5 93.8198Z" fill="#DDDBDB"/>
<path d="M142.28 93.8198C143.953 93.8198 145.31 92.4632 145.31 90.7898C145.31 89.1163 143.953 87.7598 142.28 87.7598C140.607 87.7598 139.25 89.1163 139.25 90.7898C139.25 92.4632 140.607 93.8198 142.28 93.8198Z" fill="#DDDBDB"/>
<path d="M153.07 93.8198C154.743 93.8198 156.1 92.4632 156.1 90.7898C156.1 89.1163 154.743 87.7598 153.07 87.7598C151.397 87.7598 150.04 89.1163 150.04 90.7898C150.04 92.4632 151.397 93.8198 153.07 93.8198Z" fill="#DDDBDB"/>
<path d="M61.4099 100.669C63.0833 100.669 64.4399 99.3128 64.4399 97.6394C64.4399 95.966 63.0833 94.6094 61.4099 94.6094C59.7365 94.6094 58.3799 95.966 58.3799 97.6394C58.3799 99.3128 59.7365 100.669 61.4099 100.669Z" fill="#DDDBDB"/>
<path d="M72.1999 100.669C73.8733 100.669 75.2299 99.3128 75.2299 97.6394C75.2299 95.966 73.8733 94.6094 72.1999 94.6094C70.5265 94.6094 69.1699 95.966 69.1699 97.6394C69.1699 99.3128 70.5265 100.669 72.1999 100.669Z" fill="#DDDBDB"/>
<path d="M82.98 100.669C84.6534 100.669 86.01 99.3128 86.01 97.6394C86.01 95.966 84.6534 94.6094 82.98 94.6094C81.3065 94.6094 79.95 95.966 79.95 97.6394C79.95 99.3128 81.3065 100.669 82.98 100.669Z" fill="#DDDBDB"/>
<path d="M93.76 100.669C95.4334 100.669 96.79 99.3128 96.79 97.6394C96.79 95.966 95.4334 94.6094 93.76 94.6094C92.0866 94.6094 90.73 95.966 90.73 97.6394C90.73 99.3128 92.0866 100.669 93.76 100.669Z" fill="#DDDBDB"/>
<path d="M104.54 100.669C106.213 100.669 107.57 99.3128 107.57 97.6394C107.57 95.966 106.213 94.6094 104.54 94.6094C102.867 94.6094 101.51 95.966 101.51 97.6394C101.51 99.3128 102.867 100.669 104.54 100.669Z" fill="#DDDBDB"/>
<path d="M115.33 100.669C117.003 100.669 118.36 99.3128 118.36 97.6394C118.36 95.966 117.003 94.6094 115.33 94.6094C113.657 94.6094 112.3 95.966 112.3 97.6394C112.3 99.3128 113.657 100.669 115.33 100.669Z" fill="#DDDBDB"/>
<path d="M126.11 100.669C127.783 100.669 129.14 99.3128 129.14 97.6394C129.14 95.966 127.783 94.6094 126.11 94.6094C124.437 94.6094 123.08 95.966 123.08 97.6394C123.08 99.3128 124.437 100.669 126.11 100.669Z" fill="#DDDBDB"/>
<path d="M136.89 100.669C138.564 100.669 139.92 99.3128 139.92 97.6394C139.92 95.966 138.564 94.6094 136.89 94.6094C135.217 94.6094 133.86 95.966 133.86 97.6394C133.86 99.3128 135.217 100.669 136.89 100.669Z" fill="#DDDBDB"/>
<path d="M147.67 100.669C149.343 100.669 150.7 99.3128 150.7 97.6394C150.7 95.966 149.343 94.6094 147.67 94.6094C145.996 94.6094 144.64 95.966 144.64 97.6394C144.64 99.3128 145.996 100.669 147.67 100.669Z" fill="#DDDBDB"/>
<path d="M158.46 100.669C160.133 100.669 161.49 99.3128 161.49 97.6394C161.49 95.966 160.133 94.6094 158.46 94.6094C156.787 94.6094 155.43 95.966 155.43 97.6394C155.43 99.3128 156.787 100.669 158.46 100.669Z" fill="#DDDBDB"/>
<path d="M77.5901 107.82C79.2635 107.82 80.6201 106.463 80.6201 104.79C80.6201 103.116 79.2635 101.76 77.5901 101.76C75.9166 101.76 74.5601 103.116 74.5601 104.79C74.5601 106.463 75.9166 107.82 77.5901 107.82Z" fill="#DDDBDB"/>
<path d="M88.3701 107.82C90.0435 107.82 91.4001 106.463 91.4001 104.79C91.4001 103.116 90.0435 101.76 88.3701 101.76C86.6967 101.76 85.3401 103.116 85.3401 104.79C85.3401 106.463 86.6967 107.82 88.3701 107.82Z" fill="#DDDBDB"/>
<path d="M99.1501 107.82C100.824 107.82 102.18 106.463 102.18 104.79C102.18 103.116 100.824 101.76 99.1501 101.76C97.4767 101.76 96.1201 103.116 96.1201 104.79C96.1201 106.463 97.4767 107.82 99.1501 107.82Z" fill="#DDDBDB"/>
<path d="M109.94 107.82C111.613 107.82 112.97 106.463 112.97 104.79C112.97 103.116 111.613 101.76 109.94 101.76C108.266 101.76 106.91 103.116 106.91 104.79C106.91 106.463 108.266 107.82 109.94 107.82Z" fill="#DDDBDB"/>
<path d="M120.72 107.82C122.393 107.82 123.75 106.463 123.75 104.79C123.75 103.116 122.393 101.76 120.72 101.76C119.047 101.76 117.69 103.116 117.69 104.79C117.69 106.463 119.047 107.82 120.72 107.82Z" fill="#DDDBDB"/>
<path d="M131.5 107.82C133.173 107.82 134.53 106.463 134.53 104.79C134.53 103.116 133.173 101.76 131.5 101.76C129.827 101.76 128.47 103.116 128.47 104.79C128.47 106.463 129.827 107.82 131.5 107.82Z" fill="#DDDBDB"/>
<path d="M142.28 107.82C143.953 107.82 145.31 106.463 145.31 104.79C145.31 103.116 143.953 101.76 142.28 101.76C140.607 101.76 139.25 103.116 139.25 104.79C139.25 106.463 140.607 107.82 142.28 107.82Z" fill="#DDDBDB"/>
<path d="M153.07 107.82C154.743 107.82 156.1 106.463 156.1 104.79C156.1 103.116 154.743 101.76 153.07 101.76C151.397 101.76 150.04 103.116 150.04 104.79C150.04 106.463 151.397 107.82 153.07 107.82Z" fill="#DDDBDB"/>
<path d="M82.98 114.669C84.6534 114.669 86.01 113.313 86.01 111.639C86.01 109.966 84.6534 108.609 82.98 108.609C81.3065 108.609 79.95 109.966 79.95 111.639C79.95 113.313 81.3065 114.669 82.98 114.669Z" fill="#DDDBDB"/>
<path d="M93.76 114.669C95.4334 114.669 96.79 113.313 96.79 111.639C96.79 109.966 95.4334 108.609 93.76 108.609C92.0866 108.609 90.73 109.966 90.73 111.639C90.73 113.313 92.0866 114.669 93.76 114.669Z" fill="#DDDBDB"/>
<path d="M104.54 114.669C106.213 114.669 107.57 113.313 107.57 111.639C107.57 109.966 106.213 108.609 104.54 108.609C102.867 108.609 101.51 109.966 101.51 111.639C101.51 113.313 102.867 114.669 104.54 114.669Z" fill="#DDDBDB"/>
<path d="M115.33 114.669C117.003 114.669 118.36 113.313 118.36 111.639C118.36 109.966 117.003 108.609 115.33 108.609C113.657 108.609 112.3 109.966 112.3 111.639C112.3 113.313 113.657 114.669 115.33 114.669Z" fill="#DDDBDB"/>
<path d="M126.11 114.669C127.783 114.669 129.14 113.313 129.14 111.639C129.14 109.966 127.783 108.609 126.11 108.609C124.437 108.609 123.08 109.966 123.08 111.639C123.08 113.313 124.437 114.669 126.11 114.669Z" fill="#DDDBDB"/>
<path d="M136.89 114.669C138.564 114.669 139.92 113.313 139.92 111.639C139.92 109.966 138.564 108.609 136.89 108.609C135.217 108.609 133.86 109.966 133.86 111.639C133.86 113.313 135.217 114.669 136.89 114.669Z" fill="#DDDBDB"/>
<path d="M147.67 114.669C149.343 114.669 150.7 113.313 150.7 111.639C150.7 109.966 149.343 108.609 147.67 108.609C145.996 108.609 144.64 109.966 144.64 111.639C144.64 113.313 145.996 114.669 147.67 114.669Z" fill="#DDDBDB"/>
<path d="M158.46 114.669C160.133 114.669 161.49 113.313 161.49 111.639C161.49 109.966 160.133 108.609 158.46 108.609C156.787 108.609 155.43 109.966 155.43 111.639C155.43 113.313 156.787 114.669 158.46 114.669Z" fill="#DDDBDB"/>
<path d="M77.5901 121.82C79.2635 121.82 80.6201 120.463 80.6201 118.79C80.6201 117.116 79.2635 115.76 77.5901 115.76C75.9166 115.76 74.5601 117.116 74.5601 118.79C74.5601 120.463 75.9166 121.82 77.5901 121.82Z" fill="#DDDBDB"/>
<path d="M88.3701 121.82C90.0435 121.82 91.4001 120.463 91.4001 118.79C91.4001 117.116 90.0435 115.76 88.3701 115.76C86.6967 115.76 85.3401 117.116 85.3401 118.79C85.3401 120.463 86.6967 121.82 88.3701 121.82Z" fill="#DDDBDB"/>
<path d="M66.81 107.82C68.4835 107.82 69.84 106.463 69.84 104.79C69.84 103.116 68.4835 101.76 66.81 101.76C65.1366 101.76 63.78 103.116 63.78 104.79C63.78 106.463 65.1366 107.82 66.81 107.82Z" fill="#DDDBDB"/>
<path d="M61.4099 114.669C63.0833 114.669 64.4399 113.313 64.4399 111.639C64.4399 109.966 63.0833 108.609 61.4099 108.609C59.7365 108.609 58.3799 109.966 58.3799 111.639C58.3799 113.313 59.7365 114.669 61.4099 114.669Z" fill="#DDDBDB"/>
<path d="M72.1999 114.669C73.8733 114.669 75.2299 113.313 75.2299 111.639C75.2299 109.966 73.8733 108.609 72.1999 108.609C70.5265 108.609 69.1699 109.966 69.1699 111.639C69.1699 113.313 70.5265 114.669 72.1999 114.669Z" fill="#DDDBDB"/>
<path d="M66.81 121.82C68.4835 121.82 69.84 120.463 69.84 118.79C69.84 117.116 68.4835 115.76 66.81 115.76C65.1366 115.76 63.78 117.116 63.78 118.79C63.78 120.463 65.1366 121.82 66.81 121.82Z" fill="#DDDBDB"/>
<path d="M99.1501 121.82C100.824 121.82 102.18 120.463 102.18 118.79C102.18 117.116 100.824 115.76 99.1501 115.76C97.4767 115.76 96.1201 117.116 96.1201 118.79C96.1201 120.463 97.4767 121.82 99.1501 121.82Z" fill="#DDDBDB"/>
<path d="M109.94 121.82C111.613 121.82 112.97 120.463 112.97 118.79C112.97 117.116 111.613 115.76 109.94 115.76C108.266 115.76 106.91 117.116 106.91 118.79C106.91 120.463 108.266 121.82 109.94 121.82Z" fill="#DDDBDB"/>
<path d="M120.72 121.82C122.393 121.82 123.75 120.463 123.75 118.79C123.75 117.116 122.393 115.76 120.72 115.76C119.047 115.76 117.69 117.116 117.69 118.79C117.69 120.463 119.047 121.82 120.72 121.82Z" fill="#DDDBDB"/>
<path d="M131.5 121.82C133.173 121.82 134.53 120.463 134.53 118.79C134.53 117.116 133.173 115.76 131.5 115.76C129.827 115.76 128.47 117.116 128.47 118.79C128.47 120.463 129.827 121.82 131.5 121.82Z" fill="#DDDBDB"/>
<path d="M142.28 121.82C143.953 121.82 145.31 120.463 145.31 118.79C145.31 117.116 143.953 115.76 142.28 115.76C140.607 115.76 139.25 117.116 139.25 118.79C139.25 120.463 140.607 121.82 142.28 121.82Z" fill="#DDDBDB"/>
<path d="M153.07 121.82C154.743 121.82 156.1 120.463 156.1 118.79C156.1 117.116 154.743 115.76 153.07 115.76C151.397 115.76 150.04 117.116 150.04 118.79C150.04 120.463 151.397 121.82 153.07 121.82Z" fill="#DDDBDB"/>
<path d="M61.4099 128.669C63.0833 128.669 64.4399 127.313 64.4399 125.639C64.4399 123.966 63.0833 122.609 61.4099 122.609C59.7365 122.609 58.3799 123.966 58.3799 125.639C58.3799 127.313 59.7365 128.669 61.4099 128.669Z" fill="#DDDBDB"/>
<path d="M72.1999 128.669C73.8733 128.669 75.2299 127.313 75.2299 125.639C75.2299 123.966 73.8733 122.609 72.1999 122.609C70.5265 122.609 69.1699 123.966 69.1699 125.639C69.1699 127.313 70.5265 128.669 72.1999 128.669Z" fill="#DDDBDB"/>
<path d="M82.98 128.669C84.6534 128.669 86.01 127.313 86.01 125.639C86.01 123.966 84.6534 122.609 82.98 122.609C81.3065 122.609 79.95 123.966 79.95 125.639C79.95 127.313 81.3065 128.669 82.98 128.669Z" fill="#DDDBDB"/>
<path d="M93.76 128.669C95.4334 128.669 96.79 127.313 96.79 125.639C96.79 123.966 95.4334 122.609 93.76 122.609C92.0866 122.609 90.73 123.966 90.73 125.639C90.73 127.313 92.0866 128.669 93.76 128.669Z" fill="#DDDBDB"/>
<path d="M104.54 128.669C106.213 128.669 107.57 127.313 107.57 125.639C107.57 123.966 106.213 122.609 104.54 122.609C102.867 122.609 101.51 123.966 101.51 125.639C101.51 127.313 102.867 128.669 104.54 128.669Z" fill="#DDDBDB"/>
<path d="M115.33 128.669C117.003 128.669 118.36 127.313 118.36 125.639C118.36 123.966 117.003 122.609 115.33 122.609C113.657 122.609 112.3 123.966 112.3 125.639C112.3 127.313 113.657 128.669 115.33 128.669Z" fill="#DDDBDB"/>
<path d="M126.11 128.669C127.783 128.669 129.14 127.313 129.14 125.639C129.14 123.966 127.783 122.609 126.11 122.609C124.437 122.609 123.08 123.966 123.08 125.639C123.08 127.313 124.437 128.669 126.11 128.669Z" fill="#DDDBDB"/>
<path d="M136.89 128.669C138.564 128.669 139.92 127.313 139.92 125.639C139.92 123.966 138.564 122.609 136.89 122.609C135.217 122.609 133.86 123.966 133.86 125.639C133.86 127.313 135.217 128.669 136.89 128.669Z" fill="#DDDBDB"/>
<path d="M147.67 128.669C149.343 128.669 150.7 127.313 150.7 125.639C150.7 123.966 149.343 122.609 147.67 122.609C145.996 122.609 144.64 123.966 144.64 125.639C144.64 127.313 145.996 128.669 147.67 128.669Z" fill="#DDDBDB"/>
<path d="M158.46 128.669C160.133 128.669 161.49 127.313 161.49 125.639C161.49 123.966 160.133 122.609 158.46 122.609C156.787 122.609 155.43 123.966 155.43 125.639C155.43 127.313 156.787 128.669 158.46 128.669Z" fill="#DDDBDB"/>
<path d="M66.81 135.81C68.4835 135.81 69.84 134.453 69.84 132.78C69.84 131.107 68.4835 129.75 66.81 129.75C65.1366 129.75 63.78 131.107 63.78 132.78C63.78 134.453 65.1366 135.81 66.81 135.81Z" fill="#DDDBDB"/>
<path d="M77.5901 135.81C79.2635 135.81 80.6201 134.453 80.6201 132.78C80.6201 131.107 79.2635 129.75 77.5901 129.75C75.9166 129.75 74.5601 131.107 74.5601 132.78C74.5601 134.453 75.9166 135.81 77.5901 135.81Z" fill="#DDDBDB"/>
<path d="M88.3701 135.81C90.0435 135.81 91.4001 134.453 91.4001 132.78C91.4001 131.107 90.0435 129.75 88.3701 129.75C86.6967 129.75 85.3401 131.107 85.3401 132.78C85.3401 134.453 86.6967 135.81 88.3701 135.81Z" fill="#DDDBDB"/>
<path d="M99.1501 135.81C100.824 135.81 102.18 134.453 102.18 132.78C102.18 131.107 100.824 129.75 99.1501 129.75C97.4767 129.75 96.1201 131.107 96.1201 132.78C96.1201 134.453 97.4767 135.81 99.1501 135.81Z" fill="#DDDBDB"/>
<path d="M109.94 135.81C111.613 135.81 112.97 134.453 112.97 132.78C112.97 131.107 111.613 129.75 109.94 129.75C108.266 129.75 106.91 131.107 106.91 132.78C106.91 134.453 108.266 135.81 109.94 135.81Z" fill="#DDDBDB"/>
<path d="M120.72 135.81C122.393 135.81 123.75 134.453 123.75 132.78C123.75 131.107 122.393 129.75 120.72 129.75C119.047 129.75 117.69 131.107 117.69 132.78C117.69 134.453 119.047 135.81 120.72 135.81Z" fill="#DDDBDB"/>
<path d="M131.5 135.81C133.173 135.81 134.53 134.453 134.53 132.78C134.53 131.107 133.173 129.75 131.5 129.75C129.827 129.75 128.47 131.107 128.47 132.78C128.47 134.453 129.827 135.81 131.5 135.81Z" fill="#DDDBDB"/>
<path d="M142.28 135.81C143.953 135.81 145.31 134.453 145.31 132.78C145.31 131.107 143.953 129.75 142.28 129.75C140.607 129.75 139.25 131.107 139.25 132.78C139.25 134.453 140.607 135.81 142.28 135.81Z" fill="#DDDBDB"/>
<path d="M153.07 135.81C154.743 135.81 156.1 134.453 156.1 132.78C156.1 131.107 154.743 129.75 153.07 129.75C151.397 129.75 150.04 131.107 150.04 132.78C150.04 134.453 151.397 135.81 153.07 135.81Z" fill="#DDDBDB"/>
<path d="M61.4099 142.66C63.0833 142.66 64.4399 141.303 64.4399 139.63C64.4399 137.956 63.0833 136.6 61.4099 136.6C59.7365 136.6 58.3799 137.956 58.3799 139.63C58.3799 141.303 59.7365 142.66 61.4099 142.66Z" fill="#DDDBDB"/>
<path d="M72.1999 142.66C73.8733 142.66 75.2299 141.303 75.2299 139.63C75.2299 137.956 73.8733 136.6 72.1999 136.6C70.5265 136.6 69.1699 137.956 69.1699 139.63C69.1699 141.303 70.5265 142.66 72.1999 142.66Z" fill="#DDDBDB"/>
<path d="M82.98 142.66C84.6534 142.66 86.01 141.303 86.01 139.63C86.01 137.956 84.6534 136.6 82.98 136.6C81.3065 136.6 79.95 137.956 79.95 139.63C79.95 141.303 81.3065 142.66 82.98 142.66Z" fill="#DDDBDB"/>
<path d="M93.76 142.66C95.4334 142.66 96.79 141.303 96.79 139.63C96.79 137.956 95.4334 136.6 93.76 136.6C92.0866 136.6 90.73 137.956 90.73 139.63C90.73 141.303 92.0866 142.66 93.76 142.66Z" fill="#DDDBDB"/>
<path d="M104.54 142.66C106.213 142.66 107.57 141.303 107.57 139.63C107.57 137.956 106.213 136.6 104.54 136.6C102.867 136.6 101.51 137.956 101.51 139.63C101.51 141.303 102.867 142.66 104.54 142.66Z" fill="#DDDBDB"/>
<path d="M115.33 142.66C117.003 142.66 118.36 141.303 118.36 139.63C118.36 137.956 117.003 136.6 115.33 136.6C113.657 136.6 112.3 137.956 112.3 139.63C112.3 141.303 113.657 142.66 115.33 142.66Z" fill="#DDDBDB"/>
<path d="M126.11 142.66C127.783 142.66 129.14 141.303 129.14 139.63C129.14 137.956 127.783 136.6 126.11 136.6C124.437 136.6 123.08 137.956 123.08 139.63C123.08 141.303 124.437 142.66 126.11 142.66Z" fill="#DDDBDB"/>
<path d="M136.89 142.66C138.564 142.66 139.92 141.303 139.92 139.63C139.92 137.956 138.564 136.6 136.89 136.6C135.217 136.6 133.86 137.956 133.86 139.63C133.86 141.303 135.217 142.66 136.89 142.66Z" fill="#DDDBDB"/>
<path d="M147.67 142.66C149.343 142.66 150.7 141.303 150.7 139.63C150.7 137.956 149.343 136.6 147.67 136.6C145.996 136.6 144.64 137.956 144.64 139.63C144.64 141.303 145.996 142.66 147.67 142.66Z" fill="#DDDBDB"/>
<path d="M158.46 142.66C160.133 142.66 161.49 141.303 161.49 139.63C161.49 137.956 160.133 136.6 158.46 136.6C156.787 136.6 155.43 137.956 155.43 139.63C155.43 141.303 156.787 142.66 158.46 142.66Z" fill="#DDDBDB"/>
<path d="M66.81 149.81C68.4835 149.81 69.84 148.453 69.84 146.78C69.84 145.107 68.4835 143.75 66.81 143.75C65.1366 143.75 63.78 145.107 63.78 146.78C63.78 148.453 65.1366 149.81 66.81 149.81Z" fill="#DDDBDB"/>
<path d="M77.5901 149.81C79.2635 149.81 80.6201 148.453 80.6201 146.78C80.6201 145.107 79.2635 143.75 77.5901 143.75C75.9166 143.75 74.5601 145.107 74.5601 146.78C74.5601 148.453 75.9166 149.81 77.5901 149.81Z" fill="#DDDBDB"/>
<path d="M88.3701 149.81C90.0435 149.81 91.4001 148.453 91.4001 146.78C91.4001 145.107 90.0435 143.75 88.3701 143.75C86.6967 143.75 85.3401 145.107 85.3401 146.78C85.3401 148.453 86.6967 149.81 88.3701 149.81Z" fill="#DDDBDB"/>
<path d="M99.1501 149.81C100.824 149.81 102.18 148.453 102.18 146.78C102.18 145.107 100.824 143.75 99.1501 143.75C97.4767 143.75 96.1201 145.107 96.1201 146.78C96.1201 148.453 97.4767 149.81 99.1501 149.81Z" fill="#DDDBDB"/>
<path d="M109.94 149.81C111.613 149.81 112.97 148.453 112.97 146.78C112.97 145.107 111.613 143.75 109.94 143.75C108.266 143.75 106.91 145.107 106.91 146.78C106.91 148.453 108.266 149.81 109.94 149.81Z" fill="#DDDBDB"/>
<path d="M120.72 149.81C122.393 149.81 123.75 148.453 123.75 146.78C123.75 145.107 122.393 143.75 120.72 143.75C119.047 143.75 117.69 145.107 117.69 146.78C117.69 148.453 119.047 149.81 120.72 149.81Z" fill="#DDDBDB"/>
<path d="M131.5 149.81C133.173 149.81 134.53 148.453 134.53 146.78C134.53 145.107 133.173 143.75 131.5 143.75C129.827 143.75 128.47 145.107 128.47 146.78C128.47 148.453 129.827 149.81 131.5 149.81Z" fill="#DDDBDB"/>
<path d="M142.28 149.81C143.953 149.81 145.31 148.453 145.31 146.78C145.31 145.107 143.953 143.75 142.28 143.75C140.607 143.75 139.25 145.107 139.25 146.78C139.25 148.453 140.607 149.81 142.28 149.81Z" fill="#DDDBDB"/>
<path d="M153.07 149.81C154.743 149.81 156.1 148.453 156.1 146.78C156.1 145.107 154.743 143.75 153.07 143.75C151.397 143.75 150.04 145.107 150.04 146.78C150.04 148.453 151.397 149.81 153.07 149.81Z" fill="#DDDBDB"/>
<path d="M61.4099 156.66C63.0833 156.66 64.4399 155.303 64.4399 153.63C64.4399 151.956 63.0833 150.6 61.4099 150.6C59.7365 150.6 58.3799 151.956 58.3799 153.63C58.3799 155.303 59.7365 156.66 61.4099 156.66Z" fill="#DDDBDB"/>
<path d="M72.1999 156.66C73.8733 156.66 75.2299 155.303 75.2299 153.63C75.2299 151.956 73.8733 150.6 72.1999 150.6C70.5265 150.6 69.1699 151.956 69.1699 153.63C69.1699 155.303 70.5265 156.66 72.1999 156.66Z" fill="#DDDBDB"/>
<path d="M82.98 156.66C84.6534 156.66 86.01 155.303 86.01 153.63C86.01 151.956 84.6534 150.6 82.98 150.6C81.3065 150.6 79.95 151.956 79.95 153.63C79.95 155.303 81.3065 156.66 82.98 156.66Z" fill="#DDDBDB"/>
<path d="M93.76 156.66C95.4334 156.66 96.79 155.303 96.79 153.63C96.79 151.956 95.4334 150.6 93.76 150.6C92.0866 150.6 90.73 151.956 90.73 153.63C90.73 155.303 92.0866 156.66 93.76 156.66Z" fill="#DDDBDB"/>
<path d="M104.54 156.66C106.213 156.66 107.57 155.303 107.57 153.63C107.57 151.956 106.213 150.6 104.54 150.6C102.867 150.6 101.51 151.956 101.51 153.63C101.51 155.303 102.867 156.66 104.54 156.66Z" fill="#DDDBDB"/>
<path d="M115.33 156.66C117.003 156.66 118.36 155.303 118.36 153.63C118.36 151.956 117.003 150.6 115.33 150.6C113.657 150.6 112.3 151.956 112.3 153.63C112.3 155.303 113.657 156.66 115.33 156.66Z" fill="#DDDBDB"/>
<path d="M126.11 156.66C127.783 156.66 129.14 155.303 129.14 153.63C129.14 151.956 127.783 150.6 126.11 150.6C124.437 150.6 123.08 151.956 123.08 153.63C123.08 155.303 124.437 156.66 126.11 156.66Z" fill="#DDDBDB"/>
<path d="M136.89 156.66C138.564 156.66 139.92 155.303 139.92 153.63C139.92 151.956 138.564 150.6 136.89 150.6C135.217 150.6 133.86 151.956 133.86 153.63C133.86 155.303 135.217 156.66 136.89 156.66Z" fill="#DDDBDB"/>
<path d="M147.67 156.66C149.343 156.66 150.7 155.303 150.7 153.63C150.7 151.956 149.343 150.6 147.67 150.6C145.996 150.6 144.64 151.956 144.64 153.63C144.64 155.303 145.996 156.66 147.67 156.66Z" fill="#DDDBDB"/>
<path d="M158.46 156.66C160.133 156.66 161.49 155.303 161.49 153.63C161.49 151.956 160.133 150.6 158.46 150.6C156.787 150.6 155.43 151.956 155.43 153.63C155.43 155.303 156.787 156.66 158.46 156.66Z" fill="#DDDBDB"/>
<path d="M77.5901 163.81C79.2635 163.81 80.6201 162.453 80.6201 160.78C80.6201 159.107 79.2635 157.75 77.5901 157.75C75.9166 157.75 74.5601 159.107 74.5601 160.78C74.5601 162.453 75.9166 163.81 77.5901 163.81Z" fill="#DDDBDB"/>
<path d="M88.3701 163.81C90.0435 163.81 91.4001 162.453 91.4001 160.78C91.4001 159.107 90.0435 157.75 88.3701 157.75C86.6967 157.75 85.3401 159.107 85.3401 160.78C85.3401 162.453 86.6967 163.81 88.3701 163.81Z" fill="#DDDBDB"/>
<path d="M99.1501 163.81C100.824 163.81 102.18 162.453 102.18 160.78C102.18 159.107 100.824 157.75 99.1501 157.75C97.4767 157.75 96.1201 159.107 96.1201 160.78C96.1201 162.453 97.4767 163.81 99.1501 163.81Z" fill="#DDDBDB"/>
<path d="M109.94 163.81C111.613 163.81 112.97 162.453 112.97 160.78C112.97 159.107 111.613 157.75 109.94 157.75C108.266 157.75 106.91 159.107 106.91 160.78C106.91 162.453 108.266 163.81 109.94 163.81Z" fill="#DDDBDB"/>
<path d="M120.72 163.81C122.393 163.81 123.75 162.453 123.75 160.78C123.75 159.107 122.393 157.75 120.72 157.75C119.047 157.75 117.69 159.107 117.69 160.78C117.69 162.453 119.047 163.81 120.72 163.81Z" fill="#DDDBDB"/>
<path d="M131.5 163.81C133.173 163.81 134.53 162.453 134.53 160.78C134.53 159.107 133.173 157.75 131.5 157.75C129.827 157.75 128.47 159.107 128.47 160.78C128.47 162.453 129.827 163.81 131.5 163.81Z" fill="#DDDBDB"/>
<path d="M142.28 163.81C143.953 163.81 145.31 162.453 145.31 160.78C145.31 159.107 143.953 157.75 142.28 157.75C140.607 157.75 139.25 159.107 139.25 160.78C139.25 162.453 140.607 163.81 142.28 163.81Z" fill="#DDDBDB"/>
<path d="M153.07 163.81C154.743 163.81 156.1 162.453 156.1 160.78C156.1 159.107 154.743 157.75 153.07 157.75C151.397 157.75 150.04 159.107 150.04 160.78C150.04 162.453 151.397 163.81 153.07 163.81Z" fill="#DDDBDB"/>
<path d="M82.98 170.66C84.6534 170.66 86.01 169.303 86.01 167.63C86.01 165.956 84.6534 164.6 82.98 164.6C81.3065 164.6 79.95 165.956 79.95 167.63C79.95 169.303 81.3065 170.66 82.98 170.66Z" fill="#DDDBDB"/>
<path d="M93.76 170.66C95.4334 170.66 96.79 169.303 96.79 167.63C96.79 165.956 95.4334 164.6 93.76 164.6C92.0866 164.6 90.73 165.956 90.73 167.63C90.73 169.303 92.0866 170.66 93.76 170.66Z" fill="#DDDBDB"/>
<path d="M104.54 170.66C106.213 170.66 107.57 169.303 107.57 167.63C107.57 165.956 106.213 164.6 104.54 164.6C102.867 164.6 101.51 165.956 101.51 167.63C101.51 169.303 102.867 170.66 104.54 170.66Z" fill="#DDDBDB"/>
<path d="M115.33 170.66C117.003 170.66 118.36 169.303 118.36 167.63C118.36 165.956 117.003 164.6 115.33 164.6C113.657 164.6 112.3 165.956 112.3 167.63C112.3 169.303 113.657 170.66 115.33 170.66Z" fill="#DDDBDB"/>
<path d="M126.11 170.66C127.783 170.66 129.14 169.303 129.14 167.63C129.14 165.956 127.783 164.6 126.11 164.6C124.437 164.6 123.08 165.956 123.08 167.63C123.08 169.303 124.437 170.66 126.11 170.66Z" fill="#DDDBDB"/>
<path d="M136.89 170.66C138.564 170.66 139.92 169.303 139.92 167.63C139.92 165.956 138.564 164.6 136.89 164.6C135.217 164.6 133.86 165.956 133.86 167.63C133.86 169.303 135.217 170.66 136.89 170.66Z" fill="#DDDBDB"/>
<path d="M147.67 170.66C149.343 170.66 150.7 169.303 150.7 167.63C150.7 165.956 149.343 164.6 147.67 164.6C145.996 164.6 144.64 165.956 144.64 167.63C144.64 169.303 145.996 170.66 147.67 170.66Z" fill="#DDDBDB"/>
<path d="M158.46 170.66C160.133 170.66 161.49 169.303 161.49 167.63C161.49 165.956 160.133 164.6 158.46 164.6C156.787 164.6 155.43 165.956 155.43 167.63C155.43 169.303 156.787 170.66 158.46 170.66Z" fill="#DDDBDB"/>
<path d="M66.4699 163.81C68.1434 163.81 69.4999 162.453 69.4999 160.78C69.4999 159.107 68.1434 157.75 66.4699 157.75C64.7965 157.75 63.4399 159.107 63.4399 160.78C63.4399 162.453 64.7965 163.81 66.4699 163.81Z" fill="#DDDBDB"/>
<path d="M61.07 170.66C62.7435 170.66 64.1 169.303 64.1 167.63C64.1 165.956 62.7435 164.6 61.07 164.6C59.3966 164.6 58.04 165.956 58.04 167.63C58.04 169.303 59.3966 170.66 61.07 170.66Z" fill="#DDDBDB"/>
<path d="M71.8601 170.66C73.5335 170.66 74.8901 169.303 74.8901 167.63C74.8901 165.956 73.5335 164.6 71.8601 164.6C70.1867 164.6 68.8301 165.956 68.8301 167.63C68.8301 169.303 70.1867 170.66 71.8601 170.66Z" fill="#DDDBDB"/>
<path d="M187.01 44.6791C188.683 44.6791 190.04 43.3226 190.04 41.6491C190.04 39.9757 188.683 38.6191 187.01 38.6191C185.337 38.6191 183.98 39.9757 183.98 41.6491C183.98 43.3226 185.337 44.6791 187.01 44.6791Z" fill="#DDDBDB"/>
<path d="M197.8 44.6791C199.473 44.6791 200.83 43.3226 200.83 41.6491C200.83 39.9757 199.473 38.6191 197.8 38.6191C196.127 38.6191 194.77 39.9757 194.77 41.6491C194.77 43.3226 196.127 44.6791 197.8 44.6791Z" fill="#DDDBDB"/>
<path d="M192.41 51.8295C194.083 51.8295 195.44 50.473 195.44 48.7995C195.44 47.1261 194.083 45.7695 192.41 45.7695C190.736 45.7695 189.38 47.1261 189.38 48.7995C189.38 50.473 190.736 51.8295 192.41 51.8295Z" fill="#DDDBDB"/>
<path d="M203.19 51.8295C204.863 51.8295 206.22 50.473 206.22 48.7995C206.22 47.1261 204.863 45.7695 203.19 45.7695C201.516 45.7695 200.16 47.1261 200.16 48.7995C200.16 50.473 201.516 51.8295 203.19 51.8295Z" fill="#DDDBDB"/>
<path d="M197.8 58.6791C199.473 58.6791 200.83 57.3226 200.83 55.6491C200.83 53.9757 199.473 52.6191 197.8 52.6191C196.127 52.6191 194.77 53.9757 194.77 55.6491C194.77 57.3226 196.127 58.6791 197.8 58.6791Z" fill="#DDDBDB"/>
<path d="M192.41 65.8295C194.083 65.8295 195.44 64.473 195.44 62.7995C195.44 61.1261 194.083 59.7695 192.41 59.7695C190.736 59.7695 189.38 61.1261 189.38 62.7995C189.38 64.473 190.736 65.8295 192.41 65.8295Z" fill="#DDDBDB"/>
<path d="M203.19 65.8295C204.863 65.8295 206.22 64.473 206.22 62.7995C206.22 61.1261 204.863 59.7695 203.19 59.7695C201.516 59.7695 200.16 61.1261 200.16 62.7995C200.16 64.473 201.516 65.8295 203.19 65.8295Z" fill="#DDDBDB"/>
<path d="M181.96 51.8295C183.633 51.8295 184.99 50.473 184.99 48.7995C184.99 47.1261 183.633 45.7695 181.96 45.7695C180.287 45.7695 178.93 47.1261 178.93 48.7995C178.93 50.473 180.287 51.8295 181.96 51.8295Z" fill="#DDDBDB"/>
<path d="M176.57 58.6791C178.243 58.6791 179.6 57.3226 179.6 55.6491C179.6 53.9757 178.243 52.6191 176.57 52.6191C174.897 52.6191 173.54 53.9757 173.54 55.6491C173.54 57.3226 174.897 58.6791 176.57 58.6791Z" fill="#DDDBDB"/>
<path d="M187.35 58.6791C189.023 58.6791 190.38 57.3226 190.38 55.6491C190.38 53.9757 189.023 52.6191 187.35 52.6191C185.677 52.6191 184.32 53.9757 184.32 55.6491C184.32 57.3226 185.677 58.6791 187.35 58.6791Z" fill="#DDDBDB"/>
<path d="M181.96 65.8295C183.633 65.8295 184.99 64.473 184.99 62.7995C184.99 61.1261 183.633 59.7695 181.96 59.7695C180.287 59.7695 178.93 61.1261 178.93 62.7995C178.93 64.473 180.287 65.8295 181.96 65.8295Z" fill="#DDDBDB"/>
<path d="M176.23 72.6791C177.903 72.6791 179.26 71.3226 179.26 69.6491C179.26 67.9757 177.903 66.6191 176.23 66.6191C174.557 66.6191 173.2 67.9757 173.2 69.6491C173.2 71.3226 174.557 72.6791 176.23 72.6791Z" fill="#DDDBDB"/>
<path d="M187.01 72.6791C188.683 72.6791 190.04 71.3226 190.04 69.6491C190.04 67.9757 188.683 66.6191 187.01 66.6191C185.337 66.6191 183.98 67.9757 183.98 69.6491C183.98 71.3226 185.337 72.6791 187.01 72.6791Z" fill="#DDDBDB"/>
<path d="M197.8 72.6791C199.473 72.6791 200.83 71.3226 200.83 69.6491C200.83 67.9757 199.473 66.6191 197.8 66.6191C196.127 66.6191 194.77 67.9757 194.77 69.6491C194.77 71.3226 196.127 72.6791 197.8 72.6791Z" fill="#DDDBDB"/>
<path d="M181.62 79.8295C183.294 79.8295 184.65 78.473 184.65 76.7995C184.65 75.1261 183.294 73.7695 181.62 73.7695C179.947 73.7695 178.59 75.1261 178.59 76.7995C178.59 78.473 179.947 79.8295 181.62 79.8295Z" fill="#DDDBDB"/>
<path d="M192.41 79.8295C194.083 79.8295 195.44 78.473 195.44 76.7995C195.44 75.1261 194.083 73.7695 192.41 73.7695C190.736 73.7695 189.38 75.1261 189.38 76.7995C189.38 78.473 190.736 79.8295 192.41 79.8295Z" fill="#DDDBDB"/>
<path d="M203.19 79.8295C204.863 79.8295 206.22 78.473 206.22 76.7995C206.22 75.1261 204.863 73.7695 203.19 73.7695C201.516 73.7695 200.16 75.1261 200.16 76.7995C200.16 78.473 201.516 79.8295 203.19 79.8295Z" fill="#DDDBDB"/>
<path d="M176.23 86.6694C177.903 86.6694 179.26 85.3128 179.26 83.6394C179.26 81.966 177.903 80.6094 176.23 80.6094C174.557 80.6094 173.2 81.966 173.2 83.6394C173.2 85.3128 174.557 86.6694 176.23 86.6694Z" fill="#DDDBDB"/>
<path d="M187.01 86.6694C188.683 86.6694 190.04 85.3128 190.04 83.6394C190.04 81.966 188.683 80.6094 187.01 80.6094C185.337 80.6094 183.98 81.966 183.98 83.6394C183.98 85.3128 185.337 86.6694 187.01 86.6694Z" fill="#DDDBDB"/>
<path d="M197.8 86.6694C199.473 86.6694 200.83 85.3128 200.83 83.6394C200.83 81.966 199.473 80.6094 197.8 80.6094C196.127 80.6094 194.77 81.966 194.77 83.6394C194.77 85.3128 196.127 86.6694 197.8 86.6694Z" fill="#DDDBDB"/>
<path d="M181.62 93.8198C183.294 93.8198 184.65 92.4632 184.65 90.7898C184.65 89.1163 183.294 87.7598 181.62 87.7598C179.947 87.7598 178.59 89.1163 178.59 90.7898C178.59 92.4632 179.947 93.8198 181.62 93.8198Z" fill="#DDDBDB"/>
<path d="M192.41 93.8198C194.083 93.8198 195.44 92.4632 195.44 90.7898C195.44 89.1163 194.083 87.7598 192.41 87.7598C190.736 87.7598 189.38 89.1163 189.38 90.7898C189.38 92.4632 190.736 93.8198 192.41 93.8198Z" fill="#DDDBDB"/>
<path d="M203.19 93.8198C204.863 93.8198 206.22 92.4632 206.22 90.7898C206.22 89.1163 204.863 87.7598 203.19 87.7598C201.516 87.7598 200.16 89.1163 200.16 90.7898C200.16 92.4632 201.516 93.8198 203.19 93.8198Z" fill="#DDDBDB"/>
<path d="M176.23 100.669C177.903 100.669 179.26 99.3128 179.26 97.6394C179.26 95.966 177.903 94.6094 176.23 94.6094C174.557 94.6094 173.2 95.966 173.2 97.6394C173.2 99.3128 174.557 100.669 176.23 100.669Z" fill="#DDDBDB"/>
<path d="M187.01 100.669C188.683 100.669 190.04 99.3128 190.04 97.6394C190.04 95.966 188.683 94.6094 187.01 94.6094C185.337 94.6094 183.98 95.966 183.98 97.6394C183.98 99.3128 185.337 100.669 187.01 100.669Z" fill="#DDDBDB"/>
<path d="M197.8 100.669C199.473 100.669 200.83 99.3128 200.83 97.6394C200.83 95.966 199.473 94.6094 197.8 94.6094C196.127 94.6094 194.77 95.966 194.77 97.6394C194.77 99.3128 196.127 100.669 197.8 100.669Z" fill="#DDDBDB"/>
<path d="M192.41 107.82C194.083 107.82 195.44 106.463 195.44 104.79C195.44 103.116 194.083 101.76 192.41 101.76C190.736 101.76 189.38 103.116 189.38 104.79C189.38 106.463 190.736 107.82 192.41 107.82Z" fill="#DDDBDB"/>
<path d="M203.19 107.82C204.863 107.82 206.22 106.463 206.22 104.79C206.22 103.116 204.863 101.76 203.19 101.76C201.516 101.76 200.16 103.116 200.16 104.79C200.16 106.463 201.516 107.82 203.19 107.82Z" fill="#DDDBDB"/>
<path d="M197.8 114.669C199.473 114.669 200.83 113.313 200.83 111.639C200.83 109.966 199.473 108.609 197.8 108.609C196.127 108.609 194.77 109.966 194.77 111.639C194.77 113.313 196.127 114.669 197.8 114.669Z" fill="#DDDBDB"/>
<path d="M192.41 121.82C194.083 121.82 195.44 120.463 195.44 118.79C195.44 117.116 194.083 115.76 192.41 115.76C190.736 115.76 189.38 117.116 189.38 118.79C189.38 120.463 190.736 121.82 192.41 121.82Z" fill="#DDDBDB"/>
<path d="M203.19 121.82C204.863 121.82 206.22 120.463 206.22 118.79C206.22 117.116 204.863 115.76 203.19 115.76C201.516 115.76 200.16 117.116 200.16 118.79C200.16 120.463 201.516 121.82 203.19 121.82Z" fill="#DDDBDB"/>
<path d="M181.62 107.82C183.294 107.82 184.65 106.463 184.65 104.79C184.65 103.116 183.294 101.76 181.62 101.76C179.947 101.76 178.59 103.116 178.59 104.79C178.59 106.463 179.947 107.82 181.62 107.82Z" fill="#DDDBDB"/>
<path d="M176.23 114.669C177.903 114.669 179.26 113.313 179.26 111.639C179.26 109.966 177.903 108.609 176.23 108.609C174.557 108.609 173.2 109.966 173.2 111.639C173.2 113.313 174.557 114.669 176.23 114.669Z" fill="#DDDBDB"/>
<path d="M187.01 114.669C188.683 114.669 190.04 113.313 190.04 111.639C190.04 109.966 188.683 108.609 187.01 108.609C185.337 108.609 183.98 109.966 183.98 111.639C183.98 113.313 185.337 114.669 187.01 114.669Z" fill="#DDDBDB"/>
<path d="M181.62 121.82C183.294 121.82 184.65 120.463 184.65 118.79C184.65 117.116 183.294 115.76 181.62 115.76C179.947 115.76 178.59 117.116 178.59 118.79C178.59 120.463 179.947 121.82 181.62 121.82Z" fill="#DDDBDB"/>
<path d="M176.23 128.669C177.903 128.669 179.26 127.313 179.26 125.639C179.26 123.966 177.903 122.609 176.23 122.609C174.557 122.609 173.2 123.966 173.2 125.639C173.2 127.313 174.557 128.669 176.23 128.669Z" fill="#DDDBDB"/>
<path d="M187.01 128.669C188.683 128.669 190.04 127.313 190.04 125.639C190.04 123.966 188.683 122.609 187.01 122.609C185.337 122.609 183.98 123.966 183.98 125.639C183.98 127.313 185.337 128.669 187.01 128.669Z" fill="#DDDBDB"/>
<path d="M197.8 128.669C199.473 128.669 200.83 127.313 200.83 125.639C200.83 123.966 199.473 122.609 197.8 122.609C196.127 122.609 194.77 123.966 194.77 125.639C194.77 127.313 196.127 128.669 197.8 128.669Z" fill="#DDDBDB"/>
<path d="M181.62 135.81C183.294 135.81 184.65 134.453 184.65 132.78C184.65 131.107 183.294 129.75 181.62 129.75C179.947 129.75 178.59 131.107 178.59 132.78C178.59 134.453 179.947 135.81 181.62 135.81Z" fill="#DDDBDB"/>
<path d="M192.41 135.81C194.083 135.81 195.44 134.453 195.44 132.78C195.44 131.107 194.083 129.75 192.41 129.75C190.736 129.75 189.38 131.107 189.38 132.78C189.38 134.453 190.736 135.81 192.41 135.81Z" fill="#DDDBDB"/>
<path d="M203.19 135.81C204.863 135.81 206.22 134.453 206.22 132.78C206.22 131.107 204.863 129.75 203.19 129.75C201.516 129.75 200.16 131.107 200.16 132.78C200.16 134.453 201.516 135.81 203.19 135.81Z" fill="#DDDBDB"/>
<path d="M176.23 142.66C177.903 142.66 179.26 141.303 179.26 139.63C179.26 137.956 177.903 136.6 176.23 136.6C174.557 136.6 173.2 137.956 173.2 139.63C173.2 141.303 174.557 142.66 176.23 142.66Z" fill="#DDDBDB"/>
<path d="M187.01 142.66C188.683 142.66 190.04 141.303 190.04 139.63C190.04 137.956 188.683 136.6 187.01 136.6C185.337 136.6 183.98 137.956 183.98 139.63C183.98 141.303 185.337 142.66 187.01 142.66Z" fill="#DDDBDB"/>
<path d="M197.8 142.66C199.473 142.66 200.83 141.303 200.83 139.63C200.83 137.956 199.473 136.6 197.8 136.6C196.127 136.6 194.77 137.956 194.77 139.63C194.77 141.303 196.127 142.66 197.8 142.66Z" fill="#DDDBDB"/>
<path d="M181.62 149.81C183.294 149.81 184.65 148.453 184.65 146.78C184.65 145.107 183.294 143.75 181.62 143.75C179.947 143.75 178.59 145.107 178.59 146.78C178.59 148.453 179.947 149.81 181.62 149.81Z" fill="#DDDBDB"/>
<path d="M192.41 149.81C194.083 149.81 195.44 148.453 195.44 146.78C195.44 145.107 194.083 143.75 192.41 143.75C190.736 143.75 189.38 145.107 189.38 146.78C189.38 148.453 190.736 149.81 192.41 149.81Z" fill="#DDDBDB"/>
<path d="M203.19 149.81C204.863 149.81 206.22 148.453 206.22 146.78C206.22 145.107 204.863 143.75 203.19 143.75C201.516 143.75 200.16 145.107 200.16 146.78C200.16 148.453 201.516 149.81 203.19 149.81Z" fill="#DDDBDB"/>
<path d="M176.23 156.66C177.903 156.66 179.26 155.303 179.26 153.63C179.26 151.956 177.903 150.6 176.23 150.6C174.557 150.6 173.2 151.956 173.2 153.63C173.2 155.303 174.557 156.66 176.23 156.66Z" fill="#DDDBDB"/>
<path d="M187.01 156.66C188.683 156.66 190.04 155.303 190.04 153.63C190.04 151.956 188.683 150.6 187.01 150.6C185.337 150.6 183.98 151.956 183.98 153.63C183.98 155.303 185.337 156.66 187.01 156.66Z" fill="#DDDBDB"/>
<path d="M197.8 156.66C199.473 156.66 200.83 155.303 200.83 153.63C200.83 151.956 199.473 150.6 197.8 150.6C196.127 150.6 194.77 151.956 194.77 153.63C194.77 155.303 196.127 156.66 197.8 156.66Z" fill="#DDDBDB"/>
<path d="M192.41 163.81C194.083 163.81 195.44 162.453 195.44 160.78C195.44 159.107 194.083 157.75 192.41 157.75C190.736 157.75 189.38 159.107 189.38 160.78C189.38 162.453 190.736 163.81 192.41 163.81Z" fill="#DDDBDB"/>
<path d="M203.19 163.81C204.863 163.81 206.22 162.453 206.22 160.78C206.22 159.107 204.863 157.75 203.19 157.75C201.516 157.75 200.16 159.107 200.16 160.78C200.16 162.453 201.516 163.81 203.19 163.81Z" fill="#DDDBDB"/>
<path d="M197.8 170.66C199.473 170.66 200.83 169.303 200.83 167.63C200.83 165.956 199.473 164.6 197.8 164.6C196.127 164.6 194.77 165.956 194.77 167.63C194.77 169.303 196.127 170.66 197.8 170.66Z" fill="#DDDBDB"/>
<path d="M181.28 163.81C182.953 163.81 184.31 162.453 184.31 160.78C184.31 159.107 182.953 157.75 181.28 157.75C179.607 157.75 178.25 159.107 178.25 160.78C178.25 162.453 179.607 163.81 181.28 163.81Z" fill="#DDDBDB"/>
<path d="M175.89 170.66C177.564 170.66 178.92 169.303 178.92 167.63C178.92 165.956 177.564 164.6 175.89 164.6C174.217 164.6 172.86 165.956 172.86 167.63C172.86 169.303 174.217 170.66 175.89 170.66Z" fill="#DDDBDB"/>
<path d="M186.68 170.66C188.353 170.66 189.71 169.303 189.71 167.63C189.71 165.956 188.353 164.6 186.68 164.6C185.006 164.6 183.65 165.956 183.65 167.63C183.65 169.303 185.006 170.66 186.68 170.66Z" fill="#DDDBDB"/>
<path d="M147.93 6.50977C148.22 6.21977 148.36 5.87977 148.36 5.47977C148.36 5.07977 148.22 4.73977 147.93 4.45977L143.91 0.439766C143.62 0.149766 143.28 0.00976562 142.88 0.00976562C142.48 0.00976562 142.14 0.149766 141.85 0.439766L126.27 16.0198L132.35 22.0998L147.93 6.51977V6.50977ZM142.9 2.59977L145.77 5.46977L132.35 18.8898L129.48 16.0198L142.9 2.59977Z" fill="black"/>
<path d="M208 28.4995V26.8891H162.98H128.1L131.23 23.7591L124.84 17.3691L122.21 19.9991L120.64 26.8891H4V29.8891H46.07L48.64 32.3891H4V35.3891H50.68V170.659H53.83V35.3891H65.87V46.1891H165.49V170.669H168.49H168.64V46.1791H181.63V35.3791H208V32.3791H181.63H168.49L165.98 29.8791H208V28.4995ZM124.3 21.1491L124.84 20.6091L127.98 23.7491L122.46 29.2691L124.31 21.1491H124.3ZM52.94 32.3791L52.53 31.9791L50.73 29.8791H119.95L119.38 32.3791H65.87H52.93H52.94ZM178.64 43.1791H68.87V35.3791H71.26V39.2791H74.26V35.3791H76.9V39.2791H79.9V35.3791H82.54V39.2791H85.54V35.3791H88.18V39.2791H91.18V35.3791H93.82V41.3391H96.82V35.3791H99.52V39.2791H102.52V35.3791H105.16V39.2791H108.16V35.3791H110.8V39.2791H113.8V35.3791H116.44V39.2791H119.44V35.3791H122.08V41.3391H125.08V35.3791H127.78V39.2791H130.78V35.3791H133.42V39.2791H136.42V35.3791H139.06V39.2791H142.06V35.3791H144.7V39.2791H147.7V35.3791H150.34V41.3391H153.34V35.3791H156.04V39.2791H159.04V35.3791H161.68V39.2791H164.68V35.3791H167.32V39.2791H170.32V35.3791H172.96V39.2791H175.96V35.3791H178.66V43.1791H178.64ZM122.6 32.3791L125.1 29.8791H161.6L164.42 32.3791H122.6Z" fill="black"/>
</g>
<defs>
<filter id="filter0_d_1583_4300" x="0" y="0" width="214" height="178.66" filterUnits="userSpaceOnUse" color-interpolation-filters="sRGB">
<feFlood flood-opacity="0" result="BackgroundImageFix"/>
<feColorMatrix in="SourceAlpha" type="matrix" values="0 0 0 0 0 0 0 0 0 0 0 0 0 0 0 0 0 0 127 0" result="hardAlpha"/>
<feOffset dy="4"/>
<feGaussianBlur stdDeviation="2"/>
<feComposite in2="hardAlpha" operator="out"/>
<feColorMatrix type="matrix" values="0 0 0 0 0 0 0 0 0 0 0 0 0 0 0 0 0 0 0.25 0"/>
<feBlend mode="normal" in2="BackgroundImageFix" result="effect1_dropShadow_1583_4300"/>
<feBlend mode="normal" in="SourceGraphic" in2="effect1_dropShadow_1583_4300" result="shape"/>
</filter>
<clipPath id="clip0_1583_4300">
<rect width="206" height="170.66" fill="white" transform="translate(4)"/>
</clipPath>
</defs>
</svg>
