<svg width="51" height="54" viewBox="0 0 51 54" fill="none" xmlns="http://www.w3.org/2000/svg">
<g clip-path="url(#clip0_1015_2568)">
<path d="M45.2948 32.3524V1.48795C45.2948 0.663203 44.6345 0 43.8134 0H1.48133C0.660249 0 0 0.663203 0 1.48795V52.512C0 53.3368 0.660249 54 1.48133 54H22.7024C23.5235 54 24.1837 53.3368 24.1837 52.512V43.1422C25.0556 43.6523 26.0629 43.9414 27.1379 43.9414H45.2271C48.4098 43.9414 51 41.3396 51 38.1427C51 34.9457 48.4521 32.3864 45.2948 32.3439V32.3524ZM24.1837 38.0066V26.5366H21.2211V51.0326H2.96266V2.97591H21.2211V9.12329H24.1837V2.97591H42.3321V32.3184L27.3241 32.0633C27.2649 32.0633 27.1972 32.0633 27.1379 32.0633C26.3253 32.0633 25.6651 32.718 25.6566 33.5428C25.6481 34.3675 26.2999 35.0307 27.1125 35.0392H27.248C28.8224 35.0987 30.0921 36.4081 30.0921 38.0066C30.0921 39.6051 28.7716 40.974 27.1379 40.974C25.5042 40.974 24.1837 39.6476 24.1837 38.0066ZM45.2271 40.974H32.2591C32.767 40.0983 33.0548 39.0864 33.0548 38.0066C33.0548 36.9268 32.7839 35.983 32.3099 35.1327L43.7881 35.3283C43.7881 35.3283 43.805 35.3283 43.8134 35.3283H45.2186C46.7676 35.3283 48.0289 36.5952 48.0289 38.1512C48.0289 39.7071 46.7676 40.974 45.2186 40.974H45.2271Z" fill="black"/>
<path d="M22.8961 24.2324L29.3293 17.6003L22.8115 11.0533L21.0339 12.8389L24.5891 16.41H16.082V18.9608H24.5891L21.1185 22.4468L22.8961 24.2324Z" fill="black"/>
</g>
<defs>
<clipPath id="clip0_1015_2568">
<rect width="51" height="54" fill="white"/>
</clipPath>
</defs>
</svg>
