<svg width="196" height="193" viewBox="0 0 196 193" fill="none" xmlns="http://www.w3.org/2000/svg">
<g clip-path="url(#clip0_1583_3607)">
<path d="M38.1101 192.249C37.2801 192.249 36.6101 191.579 36.6101 190.749V34.8594H194.18C195.01 34.8594 195.68 35.5294 195.68 36.3594C195.68 37.1894 195.01 37.8594 194.18 37.8594H39.6101V190.749C39.6101 191.579 38.9401 192.249 38.1101 192.249Z" fill="#9E9D9D"/>
<path d="M38.1099 37.8594C37.7399 37.8594 37.3699 37.7194 37.0799 37.4494L0.469887 2.5894C-0.130113 2.0094 -0.160113 1.0694 0.409887 0.469399C0.989887 -0.130601 1.93989 -0.160601 2.52989 0.409399L39.1499 35.2794C39.7499 35.8494 39.7699 36.7994 39.1999 37.3994C38.9099 37.7094 38.5099 37.8694 38.1099 37.8694V37.8594Z" fill="#9E9D9D"/>
<path d="M47.1999 47.1498C48.8733 47.1498 50.2299 45.7933 50.2299 44.1198C50.2299 42.4464 48.8733 41.0898 47.1999 41.0898C45.5265 41.0898 44.1699 42.4464 44.1699 44.1198C44.1699 45.7933 45.5265 47.1498 47.1999 47.1498Z" fill="#DDDBDB"/>
<path d="M57.9799 47.1498C59.6534 47.1498 61.0099 45.7933 61.0099 44.1198C61.0099 42.4464 59.6534 41.0898 57.9799 41.0898C56.3065 41.0898 54.95 42.4464 54.95 44.1198C54.95 45.7933 56.3065 47.1498 57.9799 47.1498Z" fill="#DDDBDB"/>
<path d="M68.76 47.1498C70.4334 47.1498 71.79 45.7933 71.79 44.1198C71.79 42.4464 70.4334 41.0898 68.76 41.0898C67.0866 41.0898 65.73 42.4464 65.73 44.1198C65.73 45.7933 67.0866 47.1498 68.76 47.1498Z" fill="#DDDBDB"/>
<path d="M79.55 47.1498C81.2234 47.1498 82.58 45.7933 82.58 44.1198C82.58 42.4464 81.2234 41.0898 79.55 41.0898C77.8766 41.0898 76.52 42.4464 76.52 44.1198C76.52 45.7933 77.8766 47.1498 79.55 47.1498Z" fill="#DDDBDB"/>
<path d="M90.33 47.1498C92.0035 47.1498 93.36 45.7933 93.36 44.1198C93.36 42.4464 92.0035 41.0898 90.33 41.0898C88.6566 41.0898 87.3 42.4464 87.3 44.1198C87.3 45.7933 88.6566 47.1498 90.33 47.1498Z" fill="#DDDBDB"/>
<path d="M101.11 47.1498C102.783 47.1498 104.14 45.7933 104.14 44.1198C104.14 42.4464 102.783 41.0898 101.11 41.0898C99.4367 41.0898 98.0801 42.4464 98.0801 44.1198C98.0801 45.7933 99.4367 47.1498 101.11 47.1498Z" fill="#DDDBDB"/>
<path d="M111.89 47.1498C113.564 47.1498 114.92 45.7933 114.92 44.1198C114.92 42.4464 113.564 41.0898 111.89 41.0898C110.217 41.0898 108.86 42.4464 108.86 44.1198C108.86 45.7933 110.217 47.1498 111.89 47.1498Z" fill="#DDDBDB"/>
<path d="M122.68 47.1498C124.353 47.1498 125.71 45.7933 125.71 44.1198C125.71 42.4464 124.353 41.0898 122.68 41.0898C121.006 41.0898 119.65 42.4464 119.65 44.1198C119.65 45.7933 121.006 47.1498 122.68 47.1498Z" fill="#DDDBDB"/>
<path d="M133.46 47.1498C135.133 47.1498 136.49 45.7933 136.49 44.1198C136.49 42.4464 135.133 41.0898 133.46 41.0898C131.787 41.0898 130.43 42.4464 130.43 44.1198C130.43 45.7933 131.787 47.1498 133.46 47.1498Z" fill="#DDDBDB"/>
<path d="M144.24 47.1498C145.913 47.1498 147.27 45.7933 147.27 44.1198C147.27 42.4464 145.913 41.0898 144.24 41.0898C142.567 41.0898 141.21 42.4464 141.21 44.1198C141.21 45.7933 142.567 47.1498 144.24 47.1498Z" fill="#DDDBDB"/>
<path d="M52.5901 54.3002C54.2635 54.3002 55.6201 52.9437 55.6201 51.2702C55.6201 49.5968 54.2635 48.2402 52.5901 48.2402C50.9166 48.2402 49.5601 49.5968 49.5601 51.2702C49.5601 52.9437 50.9166 54.3002 52.5901 54.3002Z" fill="#DDDBDB"/>
<path d="M63.3701 54.3002C65.0435 54.3002 66.4001 52.9437 66.4001 51.2702C66.4001 49.5968 65.0435 48.2402 63.3701 48.2402C61.6967 48.2402 60.3401 49.5968 60.3401 51.2702C60.3401 52.9437 61.6967 54.3002 63.3701 54.3002Z" fill="#DDDBDB"/>
<path d="M74.1501 54.3002C75.8235 54.3002 77.1801 52.9437 77.1801 51.2702C77.1801 49.5968 75.8235 48.2402 74.1501 48.2402C72.4767 48.2402 71.1201 49.5968 71.1201 51.2702C71.1201 52.9437 72.4767 54.3002 74.1501 54.3002Z" fill="#DDDBDB"/>
<path d="M84.9399 54.3002C86.6133 54.3002 87.9699 52.9437 87.9699 51.2702C87.9699 49.5968 86.6133 48.2402 84.9399 48.2402C83.2665 48.2402 81.9099 49.5968 81.9099 51.2702C81.9099 52.9437 83.2665 54.3002 84.9399 54.3002Z" fill="#DDDBDB"/>
<path d="M95.7199 54.3002C97.3934 54.3002 98.7499 52.9437 98.7499 51.2702C98.7499 49.5968 97.3934 48.2402 95.7199 48.2402C94.0465 48.2402 92.6899 49.5968 92.6899 51.2702C92.6899 52.9437 94.0465 54.3002 95.7199 54.3002Z" fill="#DDDBDB"/>
<path d="M106.5 54.3002C108.173 54.3002 109.53 52.9437 109.53 51.2702C109.53 49.5968 108.173 48.2402 106.5 48.2402C104.827 48.2402 103.47 49.5968 103.47 51.2702C103.47 52.9437 104.827 54.3002 106.5 54.3002Z" fill="#DDDBDB"/>
<path d="M117.28 54.3002C118.953 54.3002 120.31 52.9437 120.31 51.2702C120.31 49.5968 118.953 48.2402 117.28 48.2402C115.607 48.2402 114.25 49.5968 114.25 51.2702C114.25 52.9437 115.607 54.3002 117.28 54.3002Z" fill="#DDDBDB"/>
<path d="M128.07 54.3002C129.743 54.3002 131.1 52.9437 131.1 51.2702C131.1 49.5968 129.743 48.2402 128.07 48.2402C126.397 48.2402 125.04 49.5968 125.04 51.2702C125.04 52.9437 126.397 54.3002 128.07 54.3002Z" fill="#DDDBDB"/>
<path d="M138.85 54.3002C140.523 54.3002 141.88 52.9437 141.88 51.2702C141.88 49.5968 140.523 48.2402 138.85 48.2402C137.177 48.2402 135.82 49.5968 135.82 51.2702C135.82 52.9437 137.177 54.3002 138.85 54.3002Z" fill="#DDDBDB"/>
<path d="M47.1999 61.1498C48.8733 61.1498 50.2299 59.7933 50.2299 58.1198C50.2299 56.4464 48.8733 55.0898 47.1999 55.0898C45.5265 55.0898 44.1699 56.4464 44.1699 58.1198C44.1699 59.7933 45.5265 61.1498 47.1999 61.1498Z" fill="#DDDBDB"/>
<path d="M57.9799 61.1498C59.6534 61.1498 61.0099 59.7933 61.0099 58.1198C61.0099 56.4464 59.6534 55.0898 57.9799 55.0898C56.3065 55.0898 54.95 56.4464 54.95 58.1198C54.95 59.7933 56.3065 61.1498 57.9799 61.1498Z" fill="#DDDBDB"/>
<path d="M68.76 61.1498C70.4334 61.1498 71.79 59.7933 71.79 58.1198C71.79 56.4464 70.4334 55.0898 68.76 55.0898C67.0866 55.0898 65.73 56.4464 65.73 58.1198C65.73 59.7933 67.0866 61.1498 68.76 61.1498Z" fill="#DDDBDB"/>
<path d="M79.55 61.1498C81.2234 61.1498 82.58 59.7933 82.58 58.1198C82.58 56.4464 81.2234 55.0898 79.55 55.0898C77.8766 55.0898 76.52 56.4464 76.52 58.1198C76.52 59.7933 77.8766 61.1498 79.55 61.1498Z" fill="#DDDBDB"/>
<path d="M90.33 61.1498C92.0035 61.1498 93.36 59.7933 93.36 58.1198C93.36 56.4464 92.0035 55.0898 90.33 55.0898C88.6566 55.0898 87.3 56.4464 87.3 58.1198C87.3 59.7933 88.6566 61.1498 90.33 61.1498Z" fill="#DDDBDB"/>
<path d="M101.11 61.1498C102.783 61.1498 104.14 59.7933 104.14 58.1198C104.14 56.4464 102.783 55.0898 101.11 55.0898C99.4367 55.0898 98.0801 56.4464 98.0801 58.1198C98.0801 59.7933 99.4367 61.1498 101.11 61.1498Z" fill="#DDDBDB"/>
<path d="M111.89 61.1498C113.564 61.1498 114.92 59.7933 114.92 58.1198C114.92 56.4464 113.564 55.0898 111.89 55.0898C110.217 55.0898 108.86 56.4464 108.86 58.1198C108.86 59.7933 110.217 61.1498 111.89 61.1498Z" fill="#DDDBDB"/>
<path d="M122.68 61.1498C124.353 61.1498 125.71 59.7933 125.71 58.1198C125.71 56.4464 124.353 55.0898 122.68 55.0898C121.006 55.0898 119.65 56.4464 119.65 58.1198C119.65 59.7933 121.006 61.1498 122.68 61.1498Z" fill="#DDDBDB"/>
<path d="M133.46 61.1498C135.133 61.1498 136.49 59.7933 136.49 58.1198C136.49 56.4464 135.133 55.0898 133.46 55.0898C131.787 55.0898 130.43 56.4464 130.43 58.1198C130.43 59.7933 131.787 61.1498 133.46 61.1498Z" fill="#DDDBDB"/>
<path d="M144.24 61.1498C145.913 61.1498 147.27 59.7933 147.27 58.1198C147.27 56.4464 145.913 55.0898 144.24 55.0898C142.567 55.0898 141.21 56.4464 141.21 58.1198C141.21 59.7933 142.567 61.1498 144.24 61.1498Z" fill="#DDDBDB"/>
<path d="M52.5901 68.3002C54.2635 68.3002 55.6201 66.9437 55.6201 65.2702C55.6201 63.5968 54.2635 62.2402 52.5901 62.2402C50.9166 62.2402 49.5601 63.5968 49.5601 65.2702C49.5601 66.9437 50.9166 68.3002 52.5901 68.3002Z" fill="#DDDBDB"/>
<path d="M63.3701 68.3002C65.0435 68.3002 66.4001 66.9437 66.4001 65.2702C66.4001 63.5968 65.0435 62.2402 63.3701 62.2402C61.6967 62.2402 60.3401 63.5968 60.3401 65.2702C60.3401 66.9437 61.6967 68.3002 63.3701 68.3002Z" fill="#DDDBDB"/>
<path d="M74.1501 68.3002C75.8235 68.3002 77.1801 66.9437 77.1801 65.2702C77.1801 63.5968 75.8235 62.2402 74.1501 62.2402C72.4767 62.2402 71.1201 63.5968 71.1201 65.2702C71.1201 66.9437 72.4767 68.3002 74.1501 68.3002Z" fill="#DDDBDB"/>
<path d="M84.9399 68.3002C86.6133 68.3002 87.9699 66.9437 87.9699 65.2702C87.9699 63.5968 86.6133 62.2402 84.9399 62.2402C83.2665 62.2402 81.9099 63.5968 81.9099 65.2702C81.9099 66.9437 83.2665 68.3002 84.9399 68.3002Z" fill="#DDDBDB"/>
<path d="M95.7199 68.3002C97.3934 68.3002 98.7499 66.9437 98.7499 65.2702C98.7499 63.5968 97.3934 62.2402 95.7199 62.2402C94.0465 62.2402 92.6899 63.5968 92.6899 65.2702C92.6899 66.9437 94.0465 68.3002 95.7199 68.3002Z" fill="#DDDBDB"/>
<path d="M106.5 68.3002C108.173 68.3002 109.53 66.9437 109.53 65.2702C109.53 63.5968 108.173 62.2402 106.5 62.2402C104.827 62.2402 103.47 63.5968 103.47 65.2702C103.47 66.9437 104.827 68.3002 106.5 68.3002Z" fill="#DDDBDB"/>
<path d="M117.28 68.3002C118.953 68.3002 120.31 66.9437 120.31 65.2702C120.31 63.5968 118.953 62.2402 117.28 62.2402C115.607 62.2402 114.25 63.5968 114.25 65.2702C114.25 66.9437 115.607 68.3002 117.28 68.3002Z" fill="#DDDBDB"/>
<path d="M128.07 68.3002C129.743 68.3002 131.1 66.9437 131.1 65.2702C131.1 63.5968 129.743 62.2402 128.07 62.2402C126.397 62.2402 125.04 63.5968 125.04 65.2702C125.04 66.9437 126.397 68.3002 128.07 68.3002Z" fill="#DDDBDB"/>
<path d="M138.85 68.3002C140.523 68.3002 141.88 66.9437 141.88 65.2702C141.88 63.5968 140.523 62.2402 138.85 62.2402C137.177 62.2402 135.82 63.5968 135.82 65.2702C135.82 66.9437 137.177 68.3002 138.85 68.3002Z" fill="#DDDBDB"/>
<path d="M47.1999 75.1498C48.8733 75.1498 50.2299 73.7933 50.2299 72.1199C50.2299 70.4464 48.8733 69.0898 47.1999 69.0898C45.5265 69.0898 44.1699 70.4464 44.1699 72.1199C44.1699 73.7933 45.5265 75.1498 47.1999 75.1498Z" fill="#DDDBDB"/>
<path d="M57.9799 75.1498C59.6534 75.1498 61.0099 73.7933 61.0099 72.1199C61.0099 70.4464 59.6534 69.0898 57.9799 69.0898C56.3065 69.0898 54.95 70.4464 54.95 72.1199C54.95 73.7933 56.3065 75.1498 57.9799 75.1498Z" fill="#DDDBDB"/>
<path d="M68.76 75.1498C70.4334 75.1498 71.79 73.7933 71.79 72.1199C71.79 70.4464 70.4334 69.0898 68.76 69.0898C67.0866 69.0898 65.73 70.4464 65.73 72.1199C65.73 73.7933 67.0866 75.1498 68.76 75.1498Z" fill="#DDDBDB"/>
<path d="M79.55 75.1498C81.2234 75.1498 82.58 73.7933 82.58 72.1199C82.58 70.4464 81.2234 69.0898 79.55 69.0898C77.8766 69.0898 76.52 70.4464 76.52 72.1199C76.52 73.7933 77.8766 75.1498 79.55 75.1498Z" fill="#DDDBDB"/>
<path d="M90.33 75.1498C92.0035 75.1498 93.36 73.7933 93.36 72.1199C93.36 70.4464 92.0035 69.0898 90.33 69.0898C88.6566 69.0898 87.3 70.4464 87.3 72.1199C87.3 73.7933 88.6566 75.1498 90.33 75.1498Z" fill="#DDDBDB"/>
<path d="M101.11 75.1498C102.783 75.1498 104.14 73.7933 104.14 72.1199C104.14 70.4464 102.783 69.0898 101.11 69.0898C99.4367 69.0898 98.0801 70.4464 98.0801 72.1199C98.0801 73.7933 99.4367 75.1498 101.11 75.1498Z" fill="#DDDBDB"/>
<path d="M111.89 75.1498C113.564 75.1498 114.92 73.7933 114.92 72.1199C114.92 70.4464 113.564 69.0898 111.89 69.0898C110.217 69.0898 108.86 70.4464 108.86 72.1199C108.86 73.7933 110.217 75.1498 111.89 75.1498Z" fill="#DDDBDB"/>
<path d="M122.68 75.1498C124.353 75.1498 125.71 73.7933 125.71 72.1199C125.71 70.4464 124.353 69.0898 122.68 69.0898C121.006 69.0898 119.65 70.4464 119.65 72.1199C119.65 73.7933 121.006 75.1498 122.68 75.1498Z" fill="#DDDBDB"/>
<path d="M133.46 75.1498C135.133 75.1498 136.49 73.7933 136.49 72.1199C136.49 70.4464 135.133 69.0898 133.46 69.0898C131.787 69.0898 130.43 70.4464 130.43 72.1199C130.43 73.7933 131.787 75.1498 133.46 75.1498Z" fill="#DDDBDB"/>
<path d="M144.24 75.1498C145.913 75.1498 147.27 73.7933 147.27 72.1199C147.27 70.4464 145.913 69.0898 144.24 69.0898C142.567 69.0898 141.21 70.4464 141.21 72.1199C141.21 73.7933 142.567 75.1498 144.24 75.1498Z" fill="#DDDBDB"/>
<path d="M52.5901 82.3002C54.2635 82.3002 55.6201 80.9437 55.6201 79.2702C55.6201 77.5968 54.2635 76.2402 52.5901 76.2402C50.9166 76.2402 49.5601 77.5968 49.5601 79.2702C49.5601 80.9437 50.9166 82.3002 52.5901 82.3002Z" fill="#DDDBDB"/>
<path d="M63.3701 82.3002C65.0435 82.3002 66.4001 80.9437 66.4001 79.2702C66.4001 77.5968 65.0435 76.2402 63.3701 76.2402C61.6967 76.2402 60.3401 77.5968 60.3401 79.2702C60.3401 80.9437 61.6967 82.3002 63.3701 82.3002Z" fill="#DDDBDB"/>
<path d="M74.1501 82.3002C75.8235 82.3002 77.1801 80.9437 77.1801 79.2702C77.1801 77.5968 75.8235 76.2402 74.1501 76.2402C72.4767 76.2402 71.1201 77.5968 71.1201 79.2702C71.1201 80.9437 72.4767 82.3002 74.1501 82.3002Z" fill="#DDDBDB"/>
<path d="M84.9399 82.3002C86.6133 82.3002 87.9699 80.9437 87.9699 79.2702C87.9699 77.5968 86.6133 76.2402 84.9399 76.2402C83.2665 76.2402 81.9099 77.5968 81.9099 79.2702C81.9099 80.9437 83.2665 82.3002 84.9399 82.3002Z" fill="#DDDBDB"/>
<path d="M95.7199 82.3002C97.3934 82.3002 98.7499 80.9437 98.7499 79.2702C98.7499 77.5968 97.3934 76.2402 95.7199 76.2402C94.0465 76.2402 92.6899 77.5968 92.6899 79.2702C92.6899 80.9437 94.0465 82.3002 95.7199 82.3002Z" fill="#DDDBDB"/>
<path d="M106.5 82.3002C108.173 82.3002 109.53 80.9437 109.53 79.2702C109.53 77.5968 108.173 76.2402 106.5 76.2402C104.827 76.2402 103.47 77.5968 103.47 79.2702C103.47 80.9437 104.827 82.3002 106.5 82.3002Z" fill="#DDDBDB"/>
<path d="M117.28 82.3002C118.953 82.3002 120.31 80.9437 120.31 79.2702C120.31 77.5968 118.953 76.2402 117.28 76.2402C115.607 76.2402 114.25 77.5968 114.25 79.2702C114.25 80.9437 115.607 82.3002 117.28 82.3002Z" fill="#DDDBDB"/>
<path d="M128.07 82.3002C129.743 82.3002 131.1 80.9437 131.1 79.2702C131.1 77.5968 129.743 76.2402 128.07 76.2402C126.397 76.2402 125.04 77.5968 125.04 79.2702C125.04 80.9437 126.397 82.3002 128.07 82.3002Z" fill="#DDDBDB"/>
<path d="M138.85 82.3002C140.523 82.3002 141.88 80.9437 141.88 79.2702C141.88 77.5968 140.523 76.2402 138.85 76.2402C137.177 76.2402 135.82 77.5968 135.82 79.2702C135.82 80.9437 137.177 82.3002 138.85 82.3002Z" fill="#DDDBDB"/>
<path d="M47.1999 89.1498C48.8733 89.1498 50.2299 87.7933 50.2299 86.1199C50.2299 84.4464 48.8733 83.0898 47.1999 83.0898C45.5265 83.0898 44.1699 84.4464 44.1699 86.1199C44.1699 87.7933 45.5265 89.1498 47.1999 89.1498Z" fill="#DDDBDB"/>
<path d="M57.9799 89.1498C59.6534 89.1498 61.0099 87.7933 61.0099 86.1199C61.0099 84.4464 59.6534 83.0898 57.9799 83.0898C56.3065 83.0898 54.95 84.4464 54.95 86.1199C54.95 87.7933 56.3065 89.1498 57.9799 89.1498Z" fill="#DDDBDB"/>
<path d="M68.76 89.1498C70.4334 89.1498 71.79 87.7933 71.79 86.1199C71.79 84.4464 70.4334 83.0898 68.76 83.0898C67.0866 83.0898 65.73 84.4464 65.73 86.1199C65.73 87.7933 67.0866 89.1498 68.76 89.1498Z" fill="#DDDBDB"/>
<path d="M79.55 89.1498C81.2234 89.1498 82.58 87.7933 82.58 86.1199C82.58 84.4464 81.2234 83.0898 79.55 83.0898C77.8766 83.0898 76.52 84.4464 76.52 86.1199C76.52 87.7933 77.8766 89.1498 79.55 89.1498Z" fill="#DDDBDB"/>
<path d="M90.33 89.1498C92.0035 89.1498 93.36 87.7933 93.36 86.1199C93.36 84.4464 92.0035 83.0898 90.33 83.0898C88.6566 83.0898 87.3 84.4464 87.3 86.1199C87.3 87.7933 88.6566 89.1498 90.33 89.1498Z" fill="#DDDBDB"/>
<path d="M101.11 89.1498C102.783 89.1498 104.14 87.7933 104.14 86.1199C104.14 84.4464 102.783 83.0898 101.11 83.0898C99.4367 83.0898 98.0801 84.4464 98.0801 86.1199C98.0801 87.7933 99.4367 89.1498 101.11 89.1498Z" fill="#DDDBDB"/>
<path d="M111.89 89.1498C113.564 89.1498 114.92 87.7933 114.92 86.1199C114.92 84.4464 113.564 83.0898 111.89 83.0898C110.217 83.0898 108.86 84.4464 108.86 86.1199C108.86 87.7933 110.217 89.1498 111.89 89.1498Z" fill="#DDDBDB"/>
<path d="M122.68 89.1498C124.353 89.1498 125.71 87.7933 125.71 86.1199C125.71 84.4464 124.353 83.0898 122.68 83.0898C121.006 83.0898 119.65 84.4464 119.65 86.1199C119.65 87.7933 121.006 89.1498 122.68 89.1498Z" fill="#DDDBDB"/>
<path d="M133.46 89.1498C135.133 89.1498 136.49 87.7933 136.49 86.1199C136.49 84.4464 135.133 83.0898 133.46 83.0898C131.787 83.0898 130.43 84.4464 130.43 86.1199C130.43 87.7933 131.787 89.1498 133.46 89.1498Z" fill="#DDDBDB"/>
<path d="M144.24 89.1498C145.913 89.1498 147.27 87.7933 147.27 86.1199C147.27 84.4464 145.913 83.0898 144.24 83.0898C142.567 83.0898 141.21 84.4464 141.21 86.1199C141.21 87.7933 142.567 89.1498 144.24 89.1498Z" fill="#DDDBDB"/>
<path d="M52.5901 96.3002C54.2635 96.3002 55.6201 94.9437 55.6201 93.2702C55.6201 91.5968 54.2635 90.2402 52.5901 90.2402C50.9166 90.2402 49.5601 91.5968 49.5601 93.2702C49.5601 94.9437 50.9166 96.3002 52.5901 96.3002Z" fill="#DDDBDB"/>
<path d="M63.3701 96.3002C65.0435 96.3002 66.4001 94.9437 66.4001 93.2702C66.4001 91.5968 65.0435 90.2402 63.3701 90.2402C61.6967 90.2402 60.3401 91.5968 60.3401 93.2702C60.3401 94.9437 61.6967 96.3002 63.3701 96.3002Z" fill="#DDDBDB"/>
<path d="M74.1501 96.3002C75.8235 96.3002 77.1801 94.9437 77.1801 93.2702C77.1801 91.5968 75.8235 90.2402 74.1501 90.2402C72.4767 90.2402 71.1201 91.5968 71.1201 93.2702C71.1201 94.9437 72.4767 96.3002 74.1501 96.3002Z" fill="#DDDBDB"/>
<path d="M84.9399 96.3002C86.6133 96.3002 87.9699 94.9437 87.9699 93.2702C87.9699 91.5968 86.6133 90.2402 84.9399 90.2402C83.2665 90.2402 81.9099 91.5968 81.9099 93.2702C81.9099 94.9437 83.2665 96.3002 84.9399 96.3002Z" fill="#DDDBDB"/>
<path d="M95.7199 96.3002C97.3934 96.3002 98.7499 94.9437 98.7499 93.2702C98.7499 91.5968 97.3934 90.2402 95.7199 90.2402C94.0465 90.2402 92.6899 91.5968 92.6899 93.2702C92.6899 94.9437 94.0465 96.3002 95.7199 96.3002Z" fill="#DDDBDB"/>
<path d="M106.5 96.3002C108.173 96.3002 109.53 94.9437 109.53 93.2702C109.53 91.5968 108.173 90.2402 106.5 90.2402C104.827 90.2402 103.47 91.5968 103.47 93.2702C103.47 94.9437 104.827 96.3002 106.5 96.3002Z" fill="#DDDBDB"/>
<path d="M117.28 96.3002C118.953 96.3002 120.31 94.9437 120.31 93.2702C120.31 91.5968 118.953 90.2402 117.28 90.2402C115.607 90.2402 114.25 91.5968 114.25 93.2702C114.25 94.9437 115.607 96.3002 117.28 96.3002Z" fill="#DDDBDB"/>
<path d="M128.07 96.3002C129.743 96.3002 131.1 94.9437 131.1 93.2702C131.1 91.5968 129.743 90.2402 128.07 90.2402C126.397 90.2402 125.04 91.5968 125.04 93.2702C125.04 94.9437 126.397 96.3002 128.07 96.3002Z" fill="#DDDBDB"/>
<path d="M138.85 96.3002C140.523 96.3002 141.88 94.9437 141.88 93.2702C141.88 91.5968 140.523 90.2402 138.85 90.2402C137.177 90.2402 135.82 91.5968 135.82 93.2702C135.82 94.9437 137.177 96.3002 138.85 96.3002Z" fill="#DDDBDB"/>
<path d="M47.1999 103.14C48.8733 103.14 50.2299 101.783 50.2299 100.11C50.2299 98.4367 48.8733 97.0801 47.1999 97.0801C45.5265 97.0801 44.1699 98.4367 44.1699 100.11C44.1699 101.783 45.5265 103.14 47.1999 103.14Z" fill="#DDDBDB"/>
<path d="M57.9799 103.14C59.6534 103.14 61.0099 101.783 61.0099 100.11C61.0099 98.4367 59.6534 97.0801 57.9799 97.0801C56.3065 97.0801 54.95 98.4367 54.95 100.11C54.95 101.783 56.3065 103.14 57.9799 103.14Z" fill="#DDDBDB"/>
<path d="M68.76 103.14C70.4334 103.14 71.79 101.783 71.79 100.11C71.79 98.4367 70.4334 97.0801 68.76 97.0801C67.0866 97.0801 65.73 98.4367 65.73 100.11C65.73 101.783 67.0866 103.14 68.76 103.14Z" fill="#DDDBDB"/>
<path d="M79.55 103.14C81.2234 103.14 82.58 101.783 82.58 100.11C82.58 98.4367 81.2234 97.0801 79.55 97.0801C77.8766 97.0801 76.52 98.4367 76.52 100.11C76.52 101.783 77.8766 103.14 79.55 103.14Z" fill="#DDDBDB"/>
<path d="M90.33 103.14C92.0035 103.14 93.36 101.783 93.36 100.11C93.36 98.4367 92.0035 97.0801 90.33 97.0801C88.6566 97.0801 87.3 98.4367 87.3 100.11C87.3 101.783 88.6566 103.14 90.33 103.14Z" fill="#DDDBDB"/>
<path d="M101.11 103.14C102.783 103.14 104.14 101.783 104.14 100.11C104.14 98.4367 102.783 97.0801 101.11 97.0801C99.4367 97.0801 98.0801 98.4367 98.0801 100.11C98.0801 101.783 99.4367 103.14 101.11 103.14Z" fill="#DDDBDB"/>
<path d="M111.89 103.14C113.564 103.14 114.92 101.783 114.92 100.11C114.92 98.4367 113.564 97.0801 111.89 97.0801C110.217 97.0801 108.86 98.4367 108.86 100.11C108.86 101.783 110.217 103.14 111.89 103.14Z" fill="#DDDBDB"/>
<path d="M122.68 103.14C124.353 103.14 125.71 101.783 125.71 100.11C125.71 98.4367 124.353 97.0801 122.68 97.0801C121.006 97.0801 119.65 98.4367 119.65 100.11C119.65 101.783 121.006 103.14 122.68 103.14Z" fill="#DDDBDB"/>
<path d="M133.46 103.14C135.133 103.14 136.49 101.783 136.49 100.11C136.49 98.4367 135.133 97.0801 133.46 97.0801C131.787 97.0801 130.43 98.4367 130.43 100.11C130.43 101.783 131.787 103.14 133.46 103.14Z" fill="#DDDBDB"/>
<path d="M144.24 103.14C145.913 103.14 147.27 101.783 147.27 100.11C147.27 98.4367 145.913 97.0801 144.24 97.0801C142.567 97.0801 141.21 98.4367 141.21 100.11C141.21 101.783 142.567 103.14 144.24 103.14Z" fill="#DDDBDB"/>
<path d="M52.5901 110.29C54.2635 110.29 55.6201 108.934 55.6201 107.26C55.6201 105.587 54.2635 104.23 52.5901 104.23C50.9166 104.23 49.5601 105.587 49.5601 107.26C49.5601 108.934 50.9166 110.29 52.5901 110.29Z" fill="#DDDBDB"/>
<path d="M63.3701 110.29C65.0435 110.29 66.4001 108.934 66.4001 107.26C66.4001 105.587 65.0435 104.23 63.3701 104.23C61.6967 104.23 60.3401 105.587 60.3401 107.26C60.3401 108.934 61.6967 110.29 63.3701 110.29Z" fill="#DDDBDB"/>
<path d="M74.1501 110.29C75.8235 110.29 77.1801 108.934 77.1801 107.26C77.1801 105.587 75.8235 104.23 74.1501 104.23C72.4767 104.23 71.1201 105.587 71.1201 107.26C71.1201 108.934 72.4767 110.29 74.1501 110.29Z" fill="#DDDBDB"/>
<path d="M84.9399 110.29C86.6133 110.29 87.9699 108.934 87.9699 107.26C87.9699 105.587 86.6133 104.23 84.9399 104.23C83.2665 104.23 81.9099 105.587 81.9099 107.26C81.9099 108.934 83.2665 110.29 84.9399 110.29Z" fill="#DDDBDB"/>
<path d="M95.7199 110.29C97.3934 110.29 98.7499 108.934 98.7499 107.26C98.7499 105.587 97.3934 104.23 95.7199 104.23C94.0465 104.23 92.6899 105.587 92.6899 107.26C92.6899 108.934 94.0465 110.29 95.7199 110.29Z" fill="#DDDBDB"/>
<path d="M106.5 110.29C108.173 110.29 109.53 108.934 109.53 107.26C109.53 105.587 108.173 104.23 106.5 104.23C104.827 104.23 103.47 105.587 103.47 107.26C103.47 108.934 104.827 110.29 106.5 110.29Z" fill="#DDDBDB"/>
<path d="M117.28 110.29C118.953 110.29 120.31 108.934 120.31 107.26C120.31 105.587 118.953 104.23 117.28 104.23C115.607 104.23 114.25 105.587 114.25 107.26C114.25 108.934 115.607 110.29 117.28 110.29Z" fill="#DDDBDB"/>
<path d="M128.07 110.29C129.743 110.29 131.1 108.934 131.1 107.26C131.1 105.587 129.743 104.23 128.07 104.23C126.397 104.23 125.04 105.587 125.04 107.26C125.04 108.934 126.397 110.29 128.07 110.29Z" fill="#DDDBDB"/>
<path d="M138.85 110.29C140.523 110.29 141.88 108.934 141.88 107.26C141.88 105.587 140.523 104.23 138.85 104.23C137.177 104.23 135.82 105.587 135.82 107.26C135.82 108.934 137.177 110.29 138.85 110.29Z" fill="#DDDBDB"/>
<path d="M47.1999 117.14C48.8733 117.14 50.2299 115.783 50.2299 114.11C50.2299 112.437 48.8733 111.08 47.1999 111.08C45.5265 111.08 44.1699 112.437 44.1699 114.11C44.1699 115.783 45.5265 117.14 47.1999 117.14Z" fill="#DDDBDB"/>
<path d="M57.9799 117.14C59.6534 117.14 61.0099 115.783 61.0099 114.11C61.0099 112.437 59.6534 111.08 57.9799 111.08C56.3065 111.08 54.95 112.437 54.95 114.11C54.95 115.783 56.3065 117.14 57.9799 117.14Z" fill="#DDDBDB"/>
<path d="M68.76 117.14C70.4334 117.14 71.79 115.783 71.79 114.11C71.79 112.437 70.4334 111.08 68.76 111.08C67.0866 111.08 65.73 112.437 65.73 114.11C65.73 115.783 67.0866 117.14 68.76 117.14Z" fill="#DDDBDB"/>
<path d="M79.55 117.14C81.2234 117.14 82.58 115.783 82.58 114.11C82.58 112.437 81.2234 111.08 79.55 111.08C77.8766 111.08 76.52 112.437 76.52 114.11C76.52 115.783 77.8766 117.14 79.55 117.14Z" fill="#DDDBDB"/>
<path d="M90.33 117.14C92.0035 117.14 93.36 115.783 93.36 114.11C93.36 112.437 92.0035 111.08 90.33 111.08C88.6566 111.08 87.3 112.437 87.3 114.11C87.3 115.783 88.6566 117.14 90.33 117.14Z" fill="#DDDBDB"/>
<path d="M101.11 117.14C102.783 117.14 104.14 115.783 104.14 114.11C104.14 112.437 102.783 111.08 101.11 111.08C99.4367 111.08 98.0801 112.437 98.0801 114.11C98.0801 115.783 99.4367 117.14 101.11 117.14Z" fill="#DDDBDB"/>
<path d="M111.89 117.14C113.564 117.14 114.92 115.783 114.92 114.11C114.92 112.437 113.564 111.08 111.89 111.08C110.217 111.08 108.86 112.437 108.86 114.11C108.86 115.783 110.217 117.14 111.89 117.14Z" fill="#DDDBDB"/>
<path d="M122.68 117.14C124.353 117.14 125.71 115.783 125.71 114.11C125.71 112.437 124.353 111.08 122.68 111.08C121.006 111.08 119.65 112.437 119.65 114.11C119.65 115.783 121.006 117.14 122.68 117.14Z" fill="#DDDBDB"/>
<path d="M133.46 117.14C135.133 117.14 136.49 115.783 136.49 114.11C136.49 112.437 135.133 111.08 133.46 111.08C131.787 111.08 130.43 112.437 130.43 114.11C130.43 115.783 131.787 117.14 133.46 117.14Z" fill="#DDDBDB"/>
<path d="M144.24 117.14C145.913 117.14 147.27 115.783 147.27 114.11C147.27 112.437 145.913 111.08 144.24 111.08C142.567 111.08 141.21 112.437 141.21 114.11C141.21 115.783 142.567 117.14 144.24 117.14Z" fill="#DDDBDB"/>
<path d="M52.5901 124.29C54.2635 124.29 55.6201 122.934 55.6201 121.26C55.6201 119.587 54.2635 118.23 52.5901 118.23C50.9166 118.23 49.5601 119.587 49.5601 121.26C49.5601 122.934 50.9166 124.29 52.5901 124.29Z" fill="#DDDBDB"/>
<path d="M63.3701 124.29C65.0435 124.29 66.4001 122.934 66.4001 121.26C66.4001 119.587 65.0435 118.23 63.3701 118.23C61.6967 118.23 60.3401 119.587 60.3401 121.26C60.3401 122.934 61.6967 124.29 63.3701 124.29Z" fill="#DDDBDB"/>
<path d="M74.1501 124.29C75.8235 124.29 77.1801 122.934 77.1801 121.26C77.1801 119.587 75.8235 118.23 74.1501 118.23C72.4767 118.23 71.1201 119.587 71.1201 121.26C71.1201 122.934 72.4767 124.29 74.1501 124.29Z" fill="#DDDBDB"/>
<path d="M84.9399 124.29C86.6133 124.29 87.9699 122.934 87.9699 121.26C87.9699 119.587 86.6133 118.23 84.9399 118.23C83.2665 118.23 81.9099 119.587 81.9099 121.26C81.9099 122.934 83.2665 124.29 84.9399 124.29Z" fill="#DDDBDB"/>
<path d="M95.7199 124.29C97.3934 124.29 98.7499 122.934 98.7499 121.26C98.7499 119.587 97.3934 118.23 95.7199 118.23C94.0465 118.23 92.6899 119.587 92.6899 121.26C92.6899 122.934 94.0465 124.29 95.7199 124.29Z" fill="#DDDBDB"/>
<path d="M106.5 124.29C108.173 124.29 109.53 122.934 109.53 121.26C109.53 119.587 108.173 118.23 106.5 118.23C104.827 118.23 103.47 119.587 103.47 121.26C103.47 122.934 104.827 124.29 106.5 124.29Z" fill="#DDDBDB"/>
<path d="M117.28 124.29C118.953 124.29 120.31 122.934 120.31 121.26C120.31 119.587 118.953 118.23 117.28 118.23C115.607 118.23 114.25 119.587 114.25 121.26C114.25 122.934 115.607 124.29 117.28 124.29Z" fill="#DDDBDB"/>
<path d="M128.07 124.29C129.743 124.29 131.1 122.934 131.1 121.26C131.1 119.587 129.743 118.23 128.07 118.23C126.397 118.23 125.04 119.587 125.04 121.26C125.04 122.934 126.397 124.29 128.07 124.29Z" fill="#DDDBDB"/>
<path d="M138.85 124.29C140.523 124.29 141.88 122.934 141.88 121.26C141.88 119.587 140.523 118.23 138.85 118.23C137.177 118.23 135.82 119.587 135.82 121.26C135.82 122.934 137.177 124.29 138.85 124.29Z" fill="#DDDBDB"/>
<path d="M47.1999 131.14C48.8733 131.14 50.2299 129.783 50.2299 128.11C50.2299 126.437 48.8733 125.08 47.1999 125.08C45.5265 125.08 44.1699 126.437 44.1699 128.11C44.1699 129.783 45.5265 131.14 47.1999 131.14Z" fill="#DDDBDB"/>
<path d="M57.9799 131.14C59.6534 131.14 61.0099 129.783 61.0099 128.11C61.0099 126.437 59.6534 125.08 57.9799 125.08C56.3065 125.08 54.95 126.437 54.95 128.11C54.95 129.783 56.3065 131.14 57.9799 131.14Z" fill="#DDDBDB"/>
<path d="M68.76 131.14C70.4334 131.14 71.79 129.783 71.79 128.11C71.79 126.437 70.4334 125.08 68.76 125.08C67.0866 125.08 65.73 126.437 65.73 128.11C65.73 129.783 67.0866 131.14 68.76 131.14Z" fill="#DDDBDB"/>
<path d="M79.55 131.14C81.2234 131.14 82.58 129.783 82.58 128.11C82.58 126.437 81.2234 125.08 79.55 125.08C77.8766 125.08 76.52 126.437 76.52 128.11C76.52 129.783 77.8766 131.14 79.55 131.14Z" fill="#DDDBDB"/>
<path d="M90.33 131.14C92.0035 131.14 93.36 129.783 93.36 128.11C93.36 126.437 92.0035 125.08 90.33 125.08C88.6566 125.08 87.3 126.437 87.3 128.11C87.3 129.783 88.6566 131.14 90.33 131.14Z" fill="#DDDBDB"/>
<path d="M101.11 131.14C102.783 131.14 104.14 129.783 104.14 128.11C104.14 126.437 102.783 125.08 101.11 125.08C99.4367 125.08 98.0801 126.437 98.0801 128.11C98.0801 129.783 99.4367 131.14 101.11 131.14Z" fill="#DDDBDB"/>
<path d="M111.89 131.14C113.564 131.14 114.92 129.783 114.92 128.11C114.92 126.437 113.564 125.08 111.89 125.08C110.217 125.08 108.86 126.437 108.86 128.11C108.86 129.783 110.217 131.14 111.89 131.14Z" fill="#DDDBDB"/>
<path d="M122.68 131.14C124.353 131.14 125.71 129.783 125.71 128.11C125.71 126.437 124.353 125.08 122.68 125.08C121.006 125.08 119.65 126.437 119.65 128.11C119.65 129.783 121.006 131.14 122.68 131.14Z" fill="#DDDBDB"/>
<path d="M133.46 131.14C135.133 131.14 136.49 129.783 136.49 128.11C136.49 126.437 135.133 125.08 133.46 125.08C131.787 125.08 130.43 126.437 130.43 128.11C130.43 129.783 131.787 131.14 133.46 131.14Z" fill="#DDDBDB"/>
<path d="M144.24 131.14C145.913 131.14 147.27 129.783 147.27 128.11C147.27 126.437 145.913 125.08 144.24 125.08C142.567 125.08 141.21 126.437 141.21 128.11C141.21 129.783 142.567 131.14 144.24 131.14Z" fill="#DDDBDB"/>
<path d="M52.5901 138.29C54.2635 138.29 55.6201 136.934 55.6201 135.26C55.6201 133.587 54.2635 132.23 52.5901 132.23C50.9166 132.23 49.5601 133.587 49.5601 135.26C49.5601 136.934 50.9166 138.29 52.5901 138.29Z" fill="#DDDBDB"/>
<path d="M63.3701 138.29C65.0435 138.29 66.4001 136.934 66.4001 135.26C66.4001 133.587 65.0435 132.23 63.3701 132.23C61.6967 132.23 60.3401 133.587 60.3401 135.26C60.3401 136.934 61.6967 138.29 63.3701 138.29Z" fill="#DDDBDB"/>
<path d="M74.1501 138.29C75.8235 138.29 77.1801 136.934 77.1801 135.26C77.1801 133.587 75.8235 132.23 74.1501 132.23C72.4767 132.23 71.1201 133.587 71.1201 135.26C71.1201 136.934 72.4767 138.29 74.1501 138.29Z" fill="#DDDBDB"/>
<path d="M84.9399 138.29C86.6133 138.29 87.9699 136.934 87.9699 135.26C87.9699 133.587 86.6133 132.23 84.9399 132.23C83.2665 132.23 81.9099 133.587 81.9099 135.26C81.9099 136.934 83.2665 138.29 84.9399 138.29Z" fill="#DDDBDB"/>
<path d="M95.7199 138.29C97.3934 138.29 98.7499 136.934 98.7499 135.26C98.7499 133.587 97.3934 132.23 95.7199 132.23C94.0465 132.23 92.6899 133.587 92.6899 135.26C92.6899 136.934 94.0465 138.29 95.7199 138.29Z" fill="#DDDBDB"/>
<path d="M106.5 138.29C108.173 138.29 109.53 136.934 109.53 135.26C109.53 133.587 108.173 132.23 106.5 132.23C104.827 132.23 103.47 133.587 103.47 135.26C103.47 136.934 104.827 138.29 106.5 138.29Z" fill="#DDDBDB"/>
<path d="M117.28 138.29C118.953 138.29 120.31 136.934 120.31 135.26C120.31 133.587 118.953 132.23 117.28 132.23C115.607 132.23 114.25 133.587 114.25 135.26C114.25 136.934 115.607 138.29 117.28 138.29Z" fill="#DDDBDB"/>
<path d="M128.07 138.29C129.743 138.29 131.1 136.934 131.1 135.26C131.1 133.587 129.743 132.23 128.07 132.23C126.397 132.23 125.04 133.587 125.04 135.26C125.04 136.934 126.397 138.29 128.07 138.29Z" fill="#DDDBDB"/>
<path d="M138.85 138.29C140.523 138.29 141.88 136.934 141.88 135.26C141.88 133.587 140.523 132.23 138.85 132.23C137.177 132.23 135.82 133.587 135.82 135.26C135.82 136.934 137.177 138.29 138.85 138.29Z" fill="#DDDBDB"/>
<path d="M47.1999 145.14C48.8733 145.14 50.2299 143.783 50.2299 142.11C50.2299 140.437 48.8733 139.08 47.1999 139.08C45.5265 139.08 44.1699 140.437 44.1699 142.11C44.1699 143.783 45.5265 145.14 47.1999 145.14Z" fill="#DDDBDB"/>
<path d="M57.9799 145.14C59.6534 145.14 61.0099 143.783 61.0099 142.11C61.0099 140.437 59.6534 139.08 57.9799 139.08C56.3065 139.08 54.95 140.437 54.95 142.11C54.95 143.783 56.3065 145.14 57.9799 145.14Z" fill="#DDDBDB"/>
<path d="M68.76 145.14C70.4334 145.14 71.79 143.783 71.79 142.11C71.79 140.437 70.4334 139.08 68.76 139.08C67.0866 139.08 65.73 140.437 65.73 142.11C65.73 143.783 67.0866 145.14 68.76 145.14Z" fill="#DDDBDB"/>
<path d="M79.55 145.14C81.2234 145.14 82.58 143.783 82.58 142.11C82.58 140.437 81.2234 139.08 79.55 139.08C77.8766 139.08 76.52 140.437 76.52 142.11C76.52 143.783 77.8766 145.14 79.55 145.14Z" fill="#DDDBDB"/>
<path d="M90.33 145.14C92.0035 145.14 93.36 143.783 93.36 142.11C93.36 140.437 92.0035 139.08 90.33 139.08C88.6566 139.08 87.3 140.437 87.3 142.11C87.3 143.783 88.6566 145.14 90.33 145.14Z" fill="#DDDBDB"/>
<path d="M101.11 145.14C102.783 145.14 104.14 143.783 104.14 142.11C104.14 140.437 102.783 139.08 101.11 139.08C99.4367 139.08 98.0801 140.437 98.0801 142.11C98.0801 143.783 99.4367 145.14 101.11 145.14Z" fill="#DDDBDB"/>
<path d="M111.89 145.14C113.564 145.14 114.92 143.783 114.92 142.11C114.92 140.437 113.564 139.08 111.89 139.08C110.217 139.08 108.86 140.437 108.86 142.11C108.86 143.783 110.217 145.14 111.89 145.14Z" fill="#DDDBDB"/>
<path d="M122.68 145.14C124.353 145.14 125.71 143.783 125.71 142.11C125.71 140.437 124.353 139.08 122.68 139.08C121.006 139.08 119.65 140.437 119.65 142.11C119.65 143.783 121.006 145.14 122.68 145.14Z" fill="#DDDBDB"/>
<path d="M133.46 145.14C135.133 145.14 136.49 143.783 136.49 142.11C136.49 140.437 135.133 139.08 133.46 139.08C131.787 139.08 130.43 140.437 130.43 142.11C130.43 143.783 131.787 145.14 133.46 145.14Z" fill="#DDDBDB"/>
<path d="M144.24 145.14C145.913 145.14 147.27 143.783 147.27 142.11C147.27 140.437 145.913 139.08 144.24 139.08C142.567 139.08 141.21 140.437 141.21 142.11C141.21 143.783 142.567 145.14 144.24 145.14Z" fill="#DDDBDB"/>
<path d="M52.5901 152.29C54.2635 152.29 55.6201 150.934 55.6201 149.26C55.6201 147.587 54.2635 146.23 52.5901 146.23C50.9166 146.23 49.5601 147.587 49.5601 149.26C49.5601 150.934 50.9166 152.29 52.5901 152.29Z" fill="#DDDBDB"/>
<path d="M63.3701 152.29C65.0435 152.29 66.4001 150.934 66.4001 149.26C66.4001 147.587 65.0435 146.23 63.3701 146.23C61.6967 146.23 60.3401 147.587 60.3401 149.26C60.3401 150.934 61.6967 152.29 63.3701 152.29Z" fill="#DDDBDB"/>
<path d="M74.1501 152.29C75.8235 152.29 77.1801 150.934 77.1801 149.26C77.1801 147.587 75.8235 146.23 74.1501 146.23C72.4767 146.23 71.1201 147.587 71.1201 149.26C71.1201 150.934 72.4767 152.29 74.1501 152.29Z" fill="#DDDBDB"/>
<path d="M84.9399 152.29C86.6133 152.29 87.9699 150.934 87.9699 149.26C87.9699 147.587 86.6133 146.23 84.9399 146.23C83.2665 146.23 81.9099 147.587 81.9099 149.26C81.9099 150.934 83.2665 152.29 84.9399 152.29Z" fill="#DDDBDB"/>
<path d="M95.7199 152.29C97.3934 152.29 98.7499 150.934 98.7499 149.26C98.7499 147.587 97.3934 146.23 95.7199 146.23C94.0465 146.23 92.6899 147.587 92.6899 149.26C92.6899 150.934 94.0465 152.29 95.7199 152.29Z" fill="#DDDBDB"/>
<path d="M106.5 152.29C108.173 152.29 109.53 150.934 109.53 149.26C109.53 147.587 108.173 146.23 106.5 146.23C104.827 146.23 103.47 147.587 103.47 149.26C103.47 150.934 104.827 152.29 106.5 152.29Z" fill="#DDDBDB"/>
<path d="M117.28 152.29C118.953 152.29 120.31 150.934 120.31 149.26C120.31 147.587 118.953 146.23 117.28 146.23C115.607 146.23 114.25 147.587 114.25 149.26C114.25 150.934 115.607 152.29 117.28 152.29Z" fill="#DDDBDB"/>
<path d="M128.07 152.29C129.743 152.29 131.1 150.934 131.1 149.26C131.1 147.587 129.743 146.23 128.07 146.23C126.397 146.23 125.04 147.587 125.04 149.26C125.04 150.934 126.397 152.29 128.07 152.29Z" fill="#DDDBDB"/>
<path d="M138.85 152.29C140.523 152.29 141.88 150.934 141.88 149.26C141.88 147.587 140.523 146.23 138.85 146.23C137.177 146.23 135.82 147.587 135.82 149.26C135.82 150.934 137.177 152.29 138.85 152.29Z" fill="#DDDBDB"/>
<path d="M47.1999 159.13C48.8733 159.13 50.2299 157.774 50.2299 156.1C50.2299 154.427 48.8733 153.07 47.1999 153.07C45.5265 153.07 44.1699 154.427 44.1699 156.1C44.1699 157.774 45.5265 159.13 47.1999 159.13Z" fill="#DDDBDB"/>
<path d="M57.9799 159.13C59.6534 159.13 61.0099 157.774 61.0099 156.1C61.0099 154.427 59.6534 153.07 57.9799 153.07C56.3065 153.07 54.95 154.427 54.95 156.1C54.95 157.774 56.3065 159.13 57.9799 159.13Z" fill="#DDDBDB"/>
<path d="M68.76 159.13C70.4334 159.13 71.79 157.774 71.79 156.1C71.79 154.427 70.4334 153.07 68.76 153.07C67.0866 153.07 65.73 154.427 65.73 156.1C65.73 157.774 67.0866 159.13 68.76 159.13Z" fill="#DDDBDB"/>
<path d="M79.55 159.13C81.2234 159.13 82.58 157.774 82.58 156.1C82.58 154.427 81.2234 153.07 79.55 153.07C77.8766 153.07 76.52 154.427 76.52 156.1C76.52 157.774 77.8766 159.13 79.55 159.13Z" fill="#DDDBDB"/>
<path d="M90.33 159.13C92.0035 159.13 93.36 157.774 93.36 156.1C93.36 154.427 92.0035 153.07 90.33 153.07C88.6566 153.07 87.3 154.427 87.3 156.1C87.3 157.774 88.6566 159.13 90.33 159.13Z" fill="#DDDBDB"/>
<path d="M101.11 159.13C102.783 159.13 104.14 157.774 104.14 156.1C104.14 154.427 102.783 153.07 101.11 153.07C99.4367 153.07 98.0801 154.427 98.0801 156.1C98.0801 157.774 99.4367 159.13 101.11 159.13Z" fill="#DDDBDB"/>
<path d="M111.89 159.13C113.564 159.13 114.92 157.774 114.92 156.1C114.92 154.427 113.564 153.07 111.89 153.07C110.217 153.07 108.86 154.427 108.86 156.1C108.86 157.774 110.217 159.13 111.89 159.13Z" fill="#DDDBDB"/>
<path d="M122.68 159.13C124.353 159.13 125.71 157.774 125.71 156.1C125.71 154.427 124.353 153.07 122.68 153.07C121.006 153.07 119.65 154.427 119.65 156.1C119.65 157.774 121.006 159.13 122.68 159.13Z" fill="#DDDBDB"/>
<path d="M133.46 159.13C135.133 159.13 136.49 157.774 136.49 156.1C136.49 154.427 135.133 153.07 133.46 153.07C131.787 153.07 130.43 154.427 130.43 156.1C130.43 157.774 131.787 159.13 133.46 159.13Z" fill="#DDDBDB"/>
<path d="M144.24 159.13C145.913 159.13 147.27 157.774 147.27 156.1C147.27 154.427 145.913 153.07 144.24 153.07C142.567 153.07 141.21 154.427 141.21 156.1C141.21 157.774 142.567 159.13 144.24 159.13Z" fill="#DDDBDB"/>
<path d="M52.5901 166.281C54.2635 166.281 55.6201 164.924 55.6201 163.251C55.6201 161.577 54.2635 160.221 52.5901 160.221C50.9166 160.221 49.5601 161.577 49.5601 163.251C49.5601 164.924 50.9166 166.281 52.5901 166.281Z" fill="#DDDBDB"/>
<path d="M63.3701 166.281C65.0435 166.281 66.4001 164.924 66.4001 163.251C66.4001 161.577 65.0435 160.221 63.3701 160.221C61.6967 160.221 60.3401 161.577 60.3401 163.251C60.3401 164.924 61.6967 166.281 63.3701 166.281Z" fill="#DDDBDB"/>
<path d="M74.1501 166.281C75.8235 166.281 77.1801 164.924 77.1801 163.251C77.1801 161.577 75.8235 160.221 74.1501 160.221C72.4767 160.221 71.1201 161.577 71.1201 163.251C71.1201 164.924 72.4767 166.281 74.1501 166.281Z" fill="#DDDBDB"/>
<path d="M84.9399 166.281C86.6133 166.281 87.9699 164.924 87.9699 163.251C87.9699 161.577 86.6133 160.221 84.9399 160.221C83.2665 160.221 81.9099 161.577 81.9099 163.251C81.9099 164.924 83.2665 166.281 84.9399 166.281Z" fill="#DDDBDB"/>
<path d="M95.7199 166.281C97.3934 166.281 98.7499 164.924 98.7499 163.251C98.7499 161.577 97.3934 160.221 95.7199 160.221C94.0465 160.221 92.6899 161.577 92.6899 163.251C92.6899 164.924 94.0465 166.281 95.7199 166.281Z" fill="#DDDBDB"/>
<path d="M106.5 166.281C108.173 166.281 109.53 164.924 109.53 163.251C109.53 161.577 108.173 160.221 106.5 160.221C104.827 160.221 103.47 161.577 103.47 163.251C103.47 164.924 104.827 166.281 106.5 166.281Z" fill="#DDDBDB"/>
<path d="M117.28 166.281C118.953 166.281 120.31 164.924 120.31 163.251C120.31 161.577 118.953 160.221 117.28 160.221C115.607 160.221 114.25 161.577 114.25 163.251C114.25 164.924 115.607 166.281 117.28 166.281Z" fill="#DDDBDB"/>
<path d="M128.07 166.281C129.743 166.281 131.1 164.924 131.1 163.251C131.1 161.577 129.743 160.221 128.07 160.221C126.397 160.221 125.04 161.577 125.04 163.251C125.04 164.924 126.397 166.281 128.07 166.281Z" fill="#DDDBDB"/>
<path d="M138.85 166.281C140.523 166.281 141.88 164.924 141.88 163.251C141.88 161.577 140.523 160.221 138.85 160.221C137.177 160.221 135.82 161.577 135.82 163.251C135.82 164.924 137.177 166.281 138.85 166.281Z" fill="#DDDBDB"/>
<path d="M47.1999 173.13C48.8733 173.13 50.2299 171.774 50.2299 170.1C50.2299 168.427 48.8733 167.07 47.1999 167.07C45.5265 167.07 44.1699 168.427 44.1699 170.1C44.1699 171.774 45.5265 173.13 47.1999 173.13Z" fill="#DDDBDB"/>
<path d="M57.9799 173.13C59.6534 173.13 61.0099 171.774 61.0099 170.1C61.0099 168.427 59.6534 167.07 57.9799 167.07C56.3065 167.07 54.95 168.427 54.95 170.1C54.95 171.774 56.3065 173.13 57.9799 173.13Z" fill="#DDDBDB"/>
<path d="M68.76 173.13C70.4334 173.13 71.79 171.774 71.79 170.1C71.79 168.427 70.4334 167.07 68.76 167.07C67.0866 167.07 65.73 168.427 65.73 170.1C65.73 171.774 67.0866 173.13 68.76 173.13Z" fill="#DDDBDB"/>
<path d="M79.55 173.13C81.2234 173.13 82.58 171.774 82.58 170.1C82.58 168.427 81.2234 167.07 79.55 167.07C77.8766 167.07 76.52 168.427 76.52 170.1C76.52 171.774 77.8766 173.13 79.55 173.13Z" fill="#DDDBDB"/>
<path d="M90.33 173.13C92.0035 173.13 93.36 171.774 93.36 170.1C93.36 168.427 92.0035 167.07 90.33 167.07C88.6566 167.07 87.3 168.427 87.3 170.1C87.3 171.774 88.6566 173.13 90.33 173.13Z" fill="#DDDBDB"/>
<path d="M101.11 173.13C102.783 173.13 104.14 171.774 104.14 170.1C104.14 168.427 102.783 167.07 101.11 167.07C99.4367 167.07 98.0801 168.427 98.0801 170.1C98.0801 171.774 99.4367 173.13 101.11 173.13Z" fill="#DDDBDB"/>
<path d="M111.89 173.13C113.564 173.13 114.92 171.774 114.92 170.1C114.92 168.427 113.564 167.07 111.89 167.07C110.217 167.07 108.86 168.427 108.86 170.1C108.86 171.774 110.217 173.13 111.89 173.13Z" fill="#DDDBDB"/>
<path d="M122.68 173.13C124.353 173.13 125.71 171.774 125.71 170.1C125.71 168.427 124.353 167.07 122.68 167.07C121.006 167.07 119.65 168.427 119.65 170.1C119.65 171.774 121.006 173.13 122.68 173.13Z" fill="#DDDBDB"/>
<path d="M133.46 173.13C135.133 173.13 136.49 171.774 136.49 170.1C136.49 168.427 135.133 167.07 133.46 167.07C131.787 167.07 130.43 168.427 130.43 170.1C130.43 171.774 131.787 173.13 133.46 173.13Z" fill="#DDDBDB"/>
<path d="M144.24 173.13C145.913 173.13 147.27 171.774 147.27 170.1C147.27 168.427 145.913 167.07 144.24 167.07C142.567 167.07 141.21 168.427 141.21 170.1C141.21 171.774 142.567 173.13 144.24 173.13Z" fill="#DDDBDB"/>
<path d="M52.5901 180.281C54.2635 180.281 55.6201 178.924 55.6201 177.251C55.6201 175.577 54.2635 174.221 52.5901 174.221C50.9166 174.221 49.5601 175.577 49.5601 177.251C49.5601 178.924 50.9166 180.281 52.5901 180.281Z" fill="#DDDBDB"/>
<path d="M63.3701 180.281C65.0435 180.281 66.4001 178.924 66.4001 177.251C66.4001 175.577 65.0435 174.221 63.3701 174.221C61.6967 174.221 60.3401 175.577 60.3401 177.251C60.3401 178.924 61.6967 180.281 63.3701 180.281Z" fill="#DDDBDB"/>
<path d="M74.1501 180.281C75.8235 180.281 77.1801 178.924 77.1801 177.251C77.1801 175.577 75.8235 174.221 74.1501 174.221C72.4767 174.221 71.1201 175.577 71.1201 177.251C71.1201 178.924 72.4767 180.281 74.1501 180.281Z" fill="#DDDBDB"/>
<path d="M84.9399 180.281C86.6133 180.281 87.9699 178.924 87.9699 177.251C87.9699 175.577 86.6133 174.221 84.9399 174.221C83.2665 174.221 81.9099 175.577 81.9099 177.251C81.9099 178.924 83.2665 180.281 84.9399 180.281Z" fill="#DDDBDB"/>
<path d="M95.7199 180.281C97.3934 180.281 98.7499 178.924 98.7499 177.251C98.7499 175.577 97.3934 174.221 95.7199 174.221C94.0465 174.221 92.6899 175.577 92.6899 177.251C92.6899 178.924 94.0465 180.281 95.7199 180.281Z" fill="#DDDBDB"/>
<path d="M106.5 180.281C108.173 180.281 109.53 178.924 109.53 177.251C109.53 175.577 108.173 174.221 106.5 174.221C104.827 174.221 103.47 175.577 103.47 177.251C103.47 178.924 104.827 180.281 106.5 180.281Z" fill="#DDDBDB"/>
<path d="M117.28 180.281C118.953 180.281 120.31 178.924 120.31 177.251C120.31 175.577 118.953 174.221 117.28 174.221C115.607 174.221 114.25 175.577 114.25 177.251C114.25 178.924 115.607 180.281 117.28 180.281Z" fill="#DDDBDB"/>
<path d="M128.07 180.281C129.743 180.281 131.1 178.924 131.1 177.251C131.1 175.577 129.743 174.221 128.07 174.221C126.397 174.221 125.04 175.577 125.04 177.251C125.04 178.924 126.397 180.281 128.07 180.281Z" fill="#DDDBDB"/>
<path d="M138.85 180.281C140.523 180.281 141.88 178.924 141.88 177.251C141.88 175.577 140.523 174.221 138.85 174.221C137.177 174.221 135.82 175.577 135.82 177.251C135.82 178.924 137.177 180.281 138.85 180.281Z" fill="#DDDBDB"/>
<path d="M47.1999 187.13C48.8733 187.13 50.2299 185.774 50.2299 184.1C50.2299 182.427 48.8733 181.07 47.1999 181.07C45.5265 181.07 44.1699 182.427 44.1699 184.1C44.1699 185.774 45.5265 187.13 47.1999 187.13Z" fill="#DDDBDB"/>
<path d="M57.9799 187.13C59.6534 187.13 61.0099 185.774 61.0099 184.1C61.0099 182.427 59.6534 181.07 57.9799 181.07C56.3065 181.07 54.95 182.427 54.95 184.1C54.95 185.774 56.3065 187.13 57.9799 187.13Z" fill="#DDDBDB"/>
<path d="M68.76 187.13C70.4334 187.13 71.79 185.774 71.79 184.1C71.79 182.427 70.4334 181.07 68.76 181.07C67.0866 181.07 65.73 182.427 65.73 184.1C65.73 185.774 67.0866 187.13 68.76 187.13Z" fill="#DDDBDB"/>
<path d="M79.55 187.13C81.2234 187.13 82.58 185.774 82.58 184.1C82.58 182.427 81.2234 181.07 79.55 181.07C77.8766 181.07 76.52 182.427 76.52 184.1C76.52 185.774 77.8766 187.13 79.55 187.13Z" fill="#DDDBDB"/>
<path d="M90.33 187.13C92.0035 187.13 93.36 185.774 93.36 184.1C93.36 182.427 92.0035 181.07 90.33 181.07C88.6566 181.07 87.3 182.427 87.3 184.1C87.3 185.774 88.6566 187.13 90.33 187.13Z" fill="#DDDBDB"/>
<path d="M101.11 187.13C102.783 187.13 104.14 185.774 104.14 184.1C104.14 182.427 102.783 181.07 101.11 181.07C99.4367 181.07 98.0801 182.427 98.0801 184.1C98.0801 185.774 99.4367 187.13 101.11 187.13Z" fill="#DDDBDB"/>
<path d="M111.89 187.13C113.564 187.13 114.92 185.774 114.92 184.1C114.92 182.427 113.564 181.07 111.89 181.07C110.217 181.07 108.86 182.427 108.86 184.1C108.86 185.774 110.217 187.13 111.89 187.13Z" fill="#DDDBDB"/>
<path d="M122.68 187.13C124.353 187.13 125.71 185.774 125.71 184.1C125.71 182.427 124.353 181.07 122.68 181.07C121.006 181.07 119.65 182.427 119.65 184.1C119.65 185.774 121.006 187.13 122.68 187.13Z" fill="#DDDBDB"/>
<path d="M133.46 187.13C135.133 187.13 136.49 185.774 136.49 184.1C136.49 182.427 135.133 181.07 133.46 181.07C131.787 181.07 130.43 182.427 130.43 184.1C130.43 185.774 131.787 187.13 133.46 187.13Z" fill="#DDDBDB"/>
<path d="M144.24 187.13C145.913 187.13 147.27 185.774 147.27 184.1C147.27 182.427 145.913 181.07 144.24 181.07C142.567 181.07 141.21 182.427 141.21 184.1C141.21 185.774 142.567 187.13 144.24 187.13Z" fill="#DDDBDB"/>
<path d="M153.92 35.3891L149.21 29.8891C148.93 29.5591 148.51 29.3691 148.07 29.3691H32.46C31.85 29.3691 31.3 29.7391 31.07 30.3091C30.84 30.8791 30.98 31.5191 31.41 31.9491L36.61 37.0091V190.749C36.61 191.579 37.28 192.249 38.11 192.249C38.94 192.249 39.61 191.579 39.61 190.749V37.8591H151.28V190.749C151.28 191.579 151.95 192.249 152.78 192.249C153.61 192.249 154.28 191.579 154.28 190.749V36.3591C154.28 35.9991 154.15 35.6591 153.92 35.3791V35.3891ZM38.72 34.8691L36.15 32.3691H147.37L149.51 34.8691H38.72Z" fill="black"/>
<path d="M174.975 106.9L171.907 116H170.893L168.228 108.239L165.55 116H164.549L161.481 106.9H162.469L165.095 114.726L167.812 106.9H168.709L171.387 114.765L174.052 106.9H174.975ZM178.285 109.11C179.178 109.11 179.863 109.335 180.339 109.786C180.816 110.228 181.054 110.887 181.054 111.762V116H180.17V114.934C179.962 115.289 179.655 115.567 179.247 115.766C178.849 115.965 178.372 116.065 177.817 116.065C177.055 116.065 176.448 115.883 175.997 115.519C175.547 115.155 175.321 114.674 175.321 114.076C175.321 113.495 175.529 113.027 175.945 112.672C176.37 112.317 177.042 112.139 177.96 112.139H180.131V111.723C180.131 111.134 179.967 110.687 179.637 110.384C179.308 110.072 178.827 109.916 178.194 109.916C177.761 109.916 177.345 109.99 176.946 110.137C176.548 110.276 176.205 110.471 175.919 110.722L175.503 110.033C175.85 109.738 176.266 109.513 176.751 109.357C177.237 109.192 177.748 109.11 178.285 109.11ZM177.96 115.337C178.48 115.337 178.927 115.22 179.299 114.986C179.672 114.743 179.949 114.397 180.131 113.946V112.828H177.986C176.816 112.828 176.231 113.235 176.231 114.05C176.231 114.449 176.383 114.765 176.686 114.999C176.99 115.224 177.414 115.337 177.96 115.337ZM183.431 106.354H184.354V116H183.431V106.354ZM186.793 106.354H187.716V116H186.793V106.354Z" fill="black" fill-opacity="0.5"/>
<path d="M77.434 19.078C76.5327 19.078 75.718 18.8787 74.99 18.48C74.2707 18.0813 73.703 17.531 73.287 16.829C72.8797 16.1183 72.676 15.3253 72.676 14.45C72.676 13.5747 72.8797 12.786 73.287 12.084C73.703 11.3733 74.275 10.8187 75.003 10.42C75.731 10.0213 76.5457 9.822 77.447 9.822C78.123 9.822 78.747 9.93467 79.319 10.16C79.891 10.3853 80.3763 10.7147 80.775 11.148L80.164 11.759C79.4533 11.0397 78.5563 10.68 77.473 10.68C76.7537 10.68 76.0993 10.8447 75.51 11.174C74.9207 11.5033 74.457 11.954 74.119 12.526C73.7897 13.098 73.625 13.7393 73.625 14.45C73.625 15.1607 73.7897 15.802 74.119 16.374C74.457 16.946 74.9207 17.3967 75.51 17.726C76.0993 18.0553 76.7537 18.22 77.473 18.22C78.565 18.22 79.462 17.856 80.164 17.128L80.775 17.739C80.3763 18.1723 79.8867 18.506 79.306 18.74C78.734 18.9653 78.11 19.078 77.434 19.078ZM88.1501 15.867H82.4301C82.4821 16.5777 82.7551 17.154 83.2491 17.596C83.7431 18.0293 84.3671 18.246 85.1211 18.246C85.5457 18.246 85.9357 18.1723 86.2911 18.025C86.6464 17.869 86.9541 17.6437 87.2141 17.349L87.7341 17.947C87.4307 18.311 87.0494 18.5883 86.5901 18.779C86.1394 18.9697 85.6411 19.065 85.0951 19.065C84.3931 19.065 83.7691 18.9177 83.2231 18.623C82.6857 18.3197 82.2654 17.9037 81.9621 17.375C81.6587 16.8463 81.5071 16.2483 81.5071 15.581C81.5071 14.9137 81.6501 14.3157 81.9361 13.787C82.2307 13.2583 82.6294 12.8467 83.1321 12.552C83.6434 12.2573 84.2154 12.11 84.8481 12.11C85.4807 12.11 86.0484 12.2573 86.5511 12.552C87.0537 12.8467 87.4481 13.2583 87.7341 13.787C88.0201 14.307 88.1631 14.905 88.1631 15.581L88.1501 15.867ZM84.8481 12.903C84.1894 12.903 83.6347 13.1153 83.1841 13.54C82.7421 13.956 82.4907 14.502 82.4301 15.178H87.2791C87.2184 14.502 86.9627 13.956 86.5121 13.54C86.0701 13.1153 85.5154 12.903 84.8481 12.903ZM89.9118 12.162H90.8348V19H89.9118V12.162ZM90.3798 10.667C90.1891 10.667 90.0288 10.602 89.8988 10.472C89.7688 10.342 89.7038 10.186 89.7038 10.004C89.7038 9.83067 89.7688 9.679 89.8988 9.549C90.0288 9.419 90.1891 9.354 90.3798 9.354C90.5704 9.354 90.7308 9.419 90.8608 9.549C90.9908 9.67033 91.0558 9.81767 91.0558 9.991C91.0558 10.1817 90.9908 10.342 90.8608 10.472C90.7308 10.602 90.5704 10.667 90.3798 10.667ZM93.273 9.354H94.196V19H93.273V9.354ZM96.6342 12.162H97.5572V19H96.6342V12.162ZM97.1022 10.667C96.9115 10.667 96.7512 10.602 96.6212 10.472C96.4912 10.342 96.4262 10.186 96.4262 10.004C96.4262 9.83067 96.4912 9.679 96.6212 9.549C96.7512 9.419 96.9115 9.354 97.1022 9.354C97.2929 9.354 97.4532 9.419 97.5832 9.549C97.7132 9.67033 97.7782 9.81767 97.7782 9.991C97.7782 10.1817 97.7132 10.342 97.5832 10.472C97.4532 10.602 97.2929 10.667 97.1022 10.667ZM103.479 12.11C104.337 12.11 105.018 12.3613 105.52 12.864C106.032 13.358 106.287 14.0817 106.287 15.035V19H105.364V15.126C105.364 14.4153 105.187 13.8737 104.831 13.501C104.476 13.1283 103.969 12.942 103.31 12.942C102.574 12.942 101.989 13.163 101.555 13.605C101.131 14.0383 100.918 14.6407 100.918 15.412V19H99.9954V12.162H100.879V13.423C101.131 13.007 101.477 12.6863 101.919 12.461C102.37 12.227 102.89 12.11 103.479 12.11ZM115.02 12.162V18.168C115.02 19.3293 114.734 20.1873 114.162 20.742C113.598 21.3053 112.745 21.587 111.601 21.587C110.968 21.587 110.366 21.4917 109.794 21.301C109.23 21.119 108.771 20.8633 108.416 20.534L108.884 19.832C109.213 20.1267 109.612 20.3563 110.08 20.521C110.556 20.6857 111.055 20.768 111.575 20.768C112.441 20.768 113.078 20.5643 113.486 20.157C113.893 19.7583 114.097 19.1343 114.097 18.285V17.414C113.811 17.8473 113.434 18.1767 112.966 18.402C112.506 18.6273 111.995 18.74 111.432 18.74C110.79 18.74 110.205 18.6013 109.677 18.324C109.157 18.038 108.745 17.6437 108.442 17.141C108.147 16.6297 108 16.0533 108 15.412C108 14.7707 108.147 14.1987 108.442 13.696C108.745 13.1933 109.157 12.8033 109.677 12.526C110.197 12.2487 110.782 12.11 111.432 12.11C112.012 12.11 112.537 12.227 113.005 12.461C113.473 12.695 113.85 13.033 114.136 13.475V12.162H115.02ZM111.523 17.921C112.017 17.921 112.463 17.817 112.862 17.609C113.26 17.3923 113.568 17.0933 113.785 16.712C114.01 16.3307 114.123 15.8973 114.123 15.412C114.123 14.9267 114.01 14.4977 113.785 14.125C113.568 13.7437 113.26 13.449 112.862 13.241C112.472 13.0243 112.025 12.916 111.523 12.916C111.029 12.916 110.582 13.02 110.184 13.228C109.794 13.436 109.486 13.7307 109.261 14.112C109.044 14.4933 108.936 14.9267 108.936 15.412C108.936 15.8973 109.044 16.3307 109.261 16.712C109.486 17.0933 109.794 17.3923 110.184 17.609C110.582 17.817 111.029 17.921 111.523 17.921Z" fill="black" fill-opacity="0.5"/>
</g>
<defs>
<clipPath id="clip0_1583_3607">
<rect width="195.68" height="192.25" fill="white"/>
</clipPath>
</defs>
</svg>
