<svg width="118" height="179" viewBox="0 0 118 179" fill="none" xmlns="http://www.w3.org/2000/svg">
<g clip-path="url(#clip0_1583_5080)">
<path d="M110.62 5.31055H7.04998C6.04482 5.31055 5.22998 6.12539 5.22998 7.13055V71.7105C5.22998 72.7157 6.04482 73.5305 7.04998 73.5305H110.62C111.625 73.5305 112.44 72.7157 112.44 71.7105V7.13055C112.44 6.12539 111.625 5.31055 110.62 5.31055Z" fill="#DDDBDB"/>
<path d="M1.5 178.14V1.5H116.17V178.14" stroke="black" stroke-width="3" stroke-miterlimit="10"/>
<path d="M66.7199 58.8301H66.4199C64.0506 58.8301 62.1299 60.7508 62.1299 63.1201V88.9101C62.1299 91.2794 64.0506 93.2001 66.4199 93.2001H66.7199C69.0892 93.2001 71.0099 91.2794 71.0099 88.9101V63.1201C71.0099 60.7508 69.0892 58.8301 66.7199 58.8301Z" fill="#DDDBDB"/>
<path d="M68.6699 69.5901V104.96C68.6699 107.39 70.6399 109.36 73.0699 109.36C75.4999 109.36 77.4699 107.39 77.4699 104.96C77.4699 107.39 79.4399 109.36 81.8699 109.36C84.2999 109.36 86.2699 107.39 86.2699 104.96C86.2699 107.39 88.2399 109.36 90.6699 109.36C93.0999 109.36 95.0699 107.39 95.0699 104.96V69.5901C95.0699 67.1601 68.6499 67.1601 68.6499 69.5901H68.6699Z" fill="#DDDBDB"/>
<path d="M85.1601 144.07H79.3201C78.8801 144.07 78.5101 143.92 78.2101 143.62C77.9201 143.32 77.7701 142.95 77.7701 142.53V130.93C77.7701 130.49 77.9201 130.12 78.2101 129.82C78.5001 129.53 78.8701 129.38 79.3201 129.38H81.0801V121.98C81.0801 121.8 81.0201 121.65 80.9101 121.54C80.7901 121.42 80.6501 121.37 80.4701 121.37H65.4401C64.6501 121.37 63.9801 121.09 63.4101 120.52C62.8401 119.95 62.5601 119.27 62.5601 118.49V110.24C62.5601 109.44 62.8401 108.76 63.4101 108.2C63.9801 107.64 64.6601 107.36 65.4401 107.36H68.7401V105.55C68.7401 105.12 68.8901 104.76 69.1801 104.46C69.4701 104.16 69.8401 104.01 70.2901 104.01H94.2001C94.6301 104.01 94.9901 104.16 95.2901 104.46C95.5901 104.76 95.7401 105.13 95.7401 105.55V111.73C95.7401 112.16 95.5901 112.52 95.2901 112.82C94.9901 113.12 94.6201 113.27 94.2001 113.27H70.2901C69.8501 113.27 69.4801 113.12 69.1801 112.82C68.8901 112.52 68.7401 112.15 68.7401 111.73V109.63H65.4401C65.2601 109.63 65.1101 109.69 65.0001 109.8C64.8801 109.92 64.8301 110.06 64.8301 110.24V118.49C64.8301 118.66 64.8901 118.8 65.0001 118.92C65.1201 119.04 65.2601 119.1 65.4401 119.1H80.4701C81.2701 119.1 81.9501 119.38 82.5101 119.94C83.0701 120.5 83.3501 121.18 83.3501 121.98V129.38H85.1601C85.6001 129.38 85.9701 129.53 86.2701 129.82C86.5601 130.11 86.7101 130.48 86.7101 130.93V142.53C86.7101 142.96 86.5601 143.32 86.2701 143.62C85.9801 143.92 85.6101 144.07 85.1601 144.07ZM80.0401 141.8H84.4401V131.65H80.0401V141.8ZM71.0101 110.99H93.4801V106.26H71.0101V110.99Z" fill="black"/>
</g>
<defs>
<clipPath id="clip0_1583_5080">
<rect width="117.67" height="178.14" fill="white"/>
</clipPath>
</defs>
</svg>
