<svg width="52" height="62" viewBox="0 0 52 62" fill="none" xmlns="http://www.w3.org/2000/svg">
<g clip-path="url(#clip0_1583_3576)">
<path d="M51.88 25.9304C51.88 24.2804 50.54 22.9304 48.88 22.9304H47.06V19.2704H35.02L24.4 11.6204C24.31 11.3704 24.22 11.1004 24.13 10.8204C22.92 7.22043 21.1 1.77043 17.34 0.340433C15.66 -0.299567 13.86 -0.0695668 11.98 1.01043C9.96 2.17043 8.78 3.67043 8.45 5.48043C8.05 7.69043 9.02 10.2104 11.32 12.9704C11.57 13.2704 12.03 13.7904 12.56 14.3904C13.1 15.0004 13.74 15.7304 14.3 16.3804V19.2704H5.1V22.9304H3C1.35 22.9304 0 24.2704 0 25.9304V30.0904C0 35.7804 1.91 41.1604 5.1 45.5704V58.2404C5.1 59.9004 6.45 61.2404 8.1 61.2404H44.06C45.72 61.2404 47.06 59.8904 47.06 58.2404V45.7104C50.19 41.3504 51.88 36.1404 51.88 30.6504V25.9404V25.9304ZM21.21 33.0204C18.8 33.0204 16.84 34.9804 16.84 37.3904V41.0804C16.84 41.8304 16.23 42.4504 15.47 42.4504H15.33C14.58 42.4504 13.96 41.8404 13.96 41.0804V37.3904C13.96 34.9804 12 33.0204 9.59 33.0204H8.08V30.1404H28.6V47.0604C28.6 47.8104 27.99 48.4304 27.23 48.4304H26.95C26.2 48.4304 25.58 47.8204 25.58 47.0604V37.3904C25.58 34.9804 23.62 33.0204 21.21 33.0204ZM8.09 36.0204H9.6C10.35 36.0204 10.97 36.6304 10.97 37.3904V41.0804C10.97 43.4904 12.93 45.4504 15.34 45.4504H15.48C17.89 45.4504 19.85 43.4904 19.85 41.0804V37.3904C19.85 36.6404 20.46 36.0204 21.22 36.0204C21.98 36.0204 22.59 36.6304 22.59 37.3904V47.0604C22.59 49.4704 24.55 51.4304 26.96 51.4304H27.24C29.65 51.4304 31.61 49.4704 31.61 47.0604V30.1504H44.07V44.7204C43.43 45.5504 42.72 46.3404 41.96 47.0804C37.49 51.4304 31.6 53.7504 25.34 53.5804C18.49 53.4004 12.24 49.8804 8.1 44.6004V36.0204H8.09ZM11.4 6.02043C11.56 5.11043 12.24 4.33043 13.47 3.62043C14.55 3.00043 15.46 2.85043 16.27 3.15043C18.71 4.08043 20.32 8.90043 21.28 11.7704C21.29 11.8004 21.3 11.8304 21.31 11.8604L16.62 14.4804C16.05 13.8104 15.38 13.0604 14.8 12.4004C14.29 11.8304 13.86 11.3304 13.62 11.0504C11.94 9.03043 11.17 7.29043 11.39 6.01043L11.4 6.02043ZM17.3 17.5604L23.03 14.3504L29.88 19.2804H17.3V17.5604ZM44.06 22.2804V27.1504H8.1V22.2804H44.06ZM3 30.0904V25.9304H5.1V39.6504C3.76 36.7004 3 33.4504 3 30.0804V30.0904ZM44.06 58.2404H8.1V49.0604C12.64 53.5404 18.71 56.4104 25.26 56.5804C25.49 56.5804 25.72 56.5804 25.95 56.5804C32.76 56.5804 39.16 53.9804 44.05 49.2204C44.05 49.2204 44.05 49.2104 44.06 49.2004V58.2304V58.2404ZM48.88 30.6404C48.88 33.7904 48.25 36.8304 47.06 39.6304V25.9304H48.88V30.6404Z" fill="black"/>
<path d="M16.47 6.42008C16.47 5.68008 15.87 5.08008 15.13 5.08008C14.39 5.08008 13.79 5.68008 13.79 6.42008C13.79 7.16008 14.39 7.76008 15.13 7.76008C15.87 7.76008 16.47 7.16008 16.47 6.42008Z" fill="black"/>
</g>
<defs>
<clipPath id="clip0_1583_3576">
<rect width="51.88" height="61.24" fill="white"/>
</clipPath>
</defs>
</svg>
