<svg width="55" height="54" viewBox="0 0 55 54" fill="none" xmlns="http://www.w3.org/2000/svg">
<path d="M30.8562 0H23.2705V3.6H30.8562V0Z" fill="black"/>
<path d="M3.6 0H3.21429C2.31429 0 1.67143 0.385714 1.02857 1.02857C0.385714 1.67143 0 2.31429 0 3.21429V3.6H3.6V0Z" fill="black"/>
<path d="M17.2278 0H9.64209V3.6H17.2278V0Z" fill="black"/>
<path d="M3.6 9.64258H0V17.2283H3.6V9.64258Z" fill="black"/>
<path d="M44.3562 50.3994H36.7705V53.9994H44.3562V50.3994Z" fill="black"/>
<path d="M0 47.4426C0 49.2426 0.642857 50.7854 1.92857 52.0711C3.21429 53.3569 4.75714 53.9997 6.55714 53.9997H30.8571V23.1426H0V47.4426ZM26.2286 46.2854H4.62857L9.9 39.0854L14.0143 44.3569L19.5429 37.1569L26.2286 46.2854Z" fill="black"/>
<path d="M54.0004 9.64258H50.4004V17.2283H54.0004V9.64258Z" fill="black"/>
<path d="M52.9718 1.02857C52.329 0.385714 51.6861 0 50.7861 0H50.4004V3.6H54.0004V3.21429C54.0004 2.31429 53.6147 1.67143 52.9718 1.02857Z" fill="black"/>
<path d="M54.0004 23.1426H50.4004V30.7283H54.0004V23.1426Z" fill="black"/>
<path d="M44.3562 0H36.7705V3.6H44.3562V0Z" fill="black"/>
<path d="M54.0004 36.7715H50.4004V44.3572H54.0004V36.7715Z" fill="black"/>
<path d="M50.4004 53.9994H50.7861C51.6861 53.9994 52.4575 53.7423 53.1004 53.0994C53.7432 52.4566 54.129 51.6851 54.129 50.7851V50.3994H50.529V53.9994H50.4004Z" fill="black"/>
</svg>
