<svg width="51" height="39" viewBox="0 0 51 39" fill="none" xmlns="http://www.w3.org/2000/svg">
<g clip-path="url(#clip0_1015_903)">
<path d="M51 6.99642C51 3.14125 47.8435 0 43.9697 0H7.0303C3.15646 0 0 3.14125 0 6.99642C0 9.05032 0.904999 10.8955 2.32872 12.1806V30.5009H5.62865V35.74C5.62865 37.4314 7.00822 38.8043 8.70786 38.8043H39.1357C40.8353 38.8043 42.2149 37.4314 42.2149 35.74V30.5009H45.5148V13.8281C48.6492 13.1252 51 10.3354 51 7.00741V6.99642ZM7.0303 3.29502H37.8996C37.2264 4.37139 36.818 5.63448 36.818 6.99642C36.818 8.35837 37.2153 9.62146 37.8996 10.6978H7.0303C4.97749 10.6978 3.31097 9.03934 3.31097 6.99642C3.31097 4.95351 4.97749 3.29502 7.0303 3.29502ZM42.2039 14.0038V27.2169H5.63969V14.0038H42.2039ZM38.9039 35.5203H8.93962V30.5119H38.9039V35.5203ZM43.9697 10.7088H43.8593C41.8065 10.7088 40.14 9.05032 40.14 7.00741C40.14 4.9645 41.8065 3.306 43.8593 3.306H43.9697C46.0225 3.306 47.689 4.9645 47.689 7.00741C47.689 9.05032 46.0225 10.7088 43.9697 10.7088Z" fill="black"/>
</g>
<defs>
<clipPath id="clip0_1015_903">
<rect width="51" height="38.8043" fill="white"/>
</clipPath>
</defs>
</svg>
