<svg width="49" height="64" viewBox="0 0 49 64" fill="none" xmlns="http://www.w3.org/2000/svg">
<g clip-path="url(#clip0_1583_3588)">
<path d="M48.4494 7.73845C48.0824 7.36819 47.6297 7.18306 47.1159 7.18306H43.4087V2.46841C43.4087 1.11078 42.3076 0 40.9618 0H2.44694C1.10112 0 0 1.11078 0 2.46841V61.3522C0 62.7098 1.10112 63.8206 2.44694 63.8206H40.9618C42.3076 63.8206 43.4087 62.7098 43.4087 61.3522V20.6359H40.9618V60.1057C40.9618 60.7845 40.4112 61.3399 39.7383 61.3399H3.67041C2.9975 61.3399 2.44694 60.7845 2.44694 60.1057V3.70261C2.44694 3.0238 2.9975 2.46841 3.67041 2.46841H39.7383C40.4112 2.46841 40.9618 3.0238 40.9618 3.70261V7.17072H17.8504C17.3121 7.17072 16.8594 7.35585 16.4924 7.72611C16.1376 8.09637 15.9541 8.55302 15.9541 9.07139V11.3053H11.9166C10.9501 11.3053 10.1303 11.6509 9.43296 12.342C8.73558 13.0332 8.39301 13.8724 8.39301 14.8598V25.042C8.39301 26.017 8.73558 26.8439 9.43296 27.5474C10.1303 28.2509 10.9623 28.5965 11.9166 28.5965H30.3054C30.5256 28.5965 30.7091 28.6705 30.8437 28.8063C30.9783 28.9421 31.0517 29.1272 31.0517 29.3493V38.4824H28.8984C28.3601 38.4824 27.9074 38.6676 27.5403 39.0255C27.1855 39.3834 27.002 39.8401 27.002 40.3955V54.7122C27.002 55.2429 27.1855 55.6872 27.5403 56.0575C27.8951 56.4277 28.3478 56.6129 28.8984 56.6129H36.0434C36.5818 56.6129 37.0345 56.4277 37.4015 56.0575C37.7563 55.6872 37.9398 55.2306 37.9398 54.7122V40.3955C37.9398 39.8524 37.7563 39.3957 37.4015 39.0255C37.0467 38.6676 36.594 38.4824 36.0434 38.4824H33.829V29.3493C33.829 28.362 33.4864 27.5227 32.8012 26.8316C32.1161 26.1404 31.2841 25.7948 30.3054 25.7948H11.9166C11.6964 25.7948 11.5129 25.7208 11.3783 25.5727C11.2315 25.4246 11.1703 25.2394 11.1703 25.042V14.8845C11.1703 14.6623 11.2437 14.4772 11.3783 14.3414C11.5129 14.2057 11.6964 14.1316 11.9166 14.1316H15.9541V16.7234C15.9541 17.2542 16.1376 17.6985 16.4924 18.0687C16.8472 18.439 17.2999 18.6241 17.8504 18.6241H47.1036C47.6297 18.6241 48.0702 18.439 48.4372 18.0687C48.8042 17.6985 48.9878 17.2418 48.9878 16.7234V9.08373C48.9878 8.55302 48.8042 8.10871 48.4372 7.73845H48.4494ZM35.1748 41.3088V53.8359H29.7915V41.3088H35.1748ZM46.2227 15.8101H18.7313V9.97236H46.2227V15.8101Z" fill="black"/>
<path d="M22.5731 39.9395H9.09041C8.41751 39.9395 7.86694 40.495 7.86694 41.1739C7.86694 41.8529 8.41751 42.4084 9.09041 42.4084H22.5731C23.246 42.4084 23.7965 41.8529 23.7965 41.1739C23.7965 40.495 23.246 39.9395 22.5731 39.9395Z" fill="black"/>
<path d="M22.5731 46.0859H9.09041C8.41751 46.0859 7.86694 46.6414 7.86694 47.3204C7.86694 47.9993 8.41751 48.5549 9.09041 48.5549H22.5731C23.246 48.5549 23.7965 47.9993 23.7965 47.3204C23.7965 46.6414 23.246 46.0859 22.5731 46.0859Z" fill="black"/>
<path d="M22.5731 52.2441H9.09041C8.41751 52.2441 7.86694 52.7996 7.86694 53.4786C7.86694 54.1575 8.41751 54.7131 9.09041 54.7131H22.5731C23.246 54.7131 23.7965 54.1575 23.7965 53.4786C23.7965 52.7996 23.246 52.2441 22.5731 52.2441Z" fill="black"/>
</g>
<defs>
<clipPath id="clip0_1583_3588">
<rect width="49" height="63.8206" fill="white"/>
</clipPath>
</defs>
</svg>
