<svg width="59" height="52" viewBox="0 0 59 52" fill="none" xmlns="http://www.w3.org/2000/svg">
<g clip-path="url(#clip0_1583_3535)" filter="url(#filter0_d_1583_3535)">
<path d="M11.1644 44V22C11.1644 15.8813 13.2877 10.67 17.5479 6.4075C21.7945 2.13125 26.9726 0 33.0822 0C39.1781 0 44.3562 2.13125 48.6164 6.4075C52.8767 10.6837 55 15.8675 55 22C55 28.1187 52.8767 33.3162 48.6164 37.5925C44.3562 41.8688 39.1781 44 33.0822 44H11.1644ZM14.274 40.8787H33.0822C38.2877 40.8787 42.726 39.0362 46.3973 35.365C50.0685 31.6937 51.8904 27.2388 51.8904 22.0138C51.8904 16.7887 50.0548 12.3337 46.3973 8.64875C42.7397 4.96375 38.3014 3.12125 33.0959 3.12125C27.8904 3.12125 23.4521 4.96375 19.7808 8.635C16.1096 12.32 14.274 16.7612 14.274 22V40.8787ZM33.0822 30.9375C35.5616 30.9375 37.6575 30.0713 39.3836 28.325C41.1096 26.5925 41.9863 24.475 41.9863 22C41.9863 19.525 41.1233 17.4075 39.3836 15.675C37.6575 13.9425 35.5479 13.0625 33.0822 13.0625C30.6164 13.0625 28.5068 13.9287 26.7808 15.675C25.0548 17.4075 24.1781 19.525 24.1781 22C24.1781 24.475 25.0411 26.5925 26.7808 28.325C28.5068 30.0575 30.6164 30.9375 33.0822 30.9375ZM33.0822 27.8162C31.4658 27.8162 30.0822 27.2525 28.9589 26.1388C27.8356 25.0112 27.274 23.65 27.274 22.0138C27.274 20.3775 27.8356 19.0025 28.9452 17.875C30.0548 16.7475 31.4247 16.1838 33.0548 16.1838C34.6849 16.1838 36.0548 16.7475 37.1781 17.8612C38.3014 18.9888 38.863 20.35 38.863 21.9862C38.863 23.6225 38.3014 24.9975 37.1918 26.125C36.0822 27.2525 34.7123 27.8162 33.0822 27.8162ZM4 44V31.625H7.10959V44H4Z" fill="black"/>
</g>
<defs>
<filter id="filter0_d_1583_3535" x="0" y="0" width="59" height="52" filterUnits="userSpaceOnUse" color-interpolation-filters="sRGB">
<feFlood flood-opacity="0" result="BackgroundImageFix"/>
<feColorMatrix in="SourceAlpha" type="matrix" values="0 0 0 0 0 0 0 0 0 0 0 0 0 0 0 0 0 0 127 0" result="hardAlpha"/>
<feOffset dy="4"/>
<feGaussianBlur stdDeviation="2"/>
<feComposite in2="hardAlpha" operator="out"/>
<feColorMatrix type="matrix" values="0 0 0 0 0 0 0 0 0 0 0 0 0 0 0 0 0 0 0.25 0"/>
<feBlend mode="normal" in2="BackgroundImageFix" result="effect1_dropShadow_1583_3535"/>
<feBlend mode="normal" in="SourceGraphic" in2="effect1_dropShadow_1583_3535" result="shape"/>
</filter>
<clipPath id="clip0_1583_3535">
<rect width="51" height="44" fill="white" transform="translate(4)"/>
</clipPath>
</defs>
</svg>
