<svg width="51" height="54" viewBox="0 0 51 54" fill="none" xmlns="http://www.w3.org/2000/svg">
<g clip-path="url(#clip0_1015_2566)">
<path d="M45.2594 35.4594H42.7174V1.47818C42.7174 0.658846 42.0609 0 41.2444 0H1.47302C0.656544 0 0 0.658846 0 1.47818V41.0765C0 41.1272 0 41.1694 0 41.2201V52.5218C0 53.3412 0.656544 54 1.47302 54H41.2444C42.0609 54 42.7174 53.3412 42.7174 52.5218V46.9808H45.2594C48.4243 46.9808 51 44.3961 51 41.2201C51 38.0441 48.4243 35.4594 45.2594 35.4594ZM2.94603 2.95636H39.7714V35.4425L5.96782 35.1722C5.96782 35.1722 5.9089 35.1722 5.88364 35.1722C5.07559 35.1722 4.41063 35.8311 4.41063 36.642C4.41063 37.4528 5.05876 38.1201 5.87523 38.1286H5.94256C7.53342 38.1539 8.82126 39.4716 8.82126 41.0765C8.82126 42.6814 7.50817 44.0244 5.88364 44.0244C4.25912 44.0244 2.94603 42.7067 2.94603 41.0765V2.95636ZM39.7714 51.0436H2.94603V46.1783C3.81301 46.6851 4.81466 46.9723 5.88364 46.9723H39.7714V51.0352V51.0436ZM45.2594 44.0244H10.9677C11.4727 43.1544 11.7589 42.1492 11.7589 41.0765C11.7589 40.0038 11.4811 39.0324 10.9929 38.1708L41.2276 38.4073H45.251C46.7914 38.4073 48.0456 39.6659 48.0456 41.2116C48.0456 42.7574 46.7914 44.016 45.251 44.016L45.2594 44.0244Z" fill="black"/>
</g>
<defs>
<clipPath id="clip0_1015_2566">
<rect width="51" height="54" fill="white"/>
</clipPath>
</defs>
</svg>
