<svg width="136" height="174" viewBox="0 0 136 174" fill="none" xmlns="http://www.w3.org/2000/svg">
<g clip-path="url(#clip0_1015_1160)">
<path d="M134.959 22.2401L127.709 29.4901H132.909V32.4901H122.609V22.1901H125.609V27.3401L132.859 20.0901L134.959 22.2401Z" fill="black"/>
<path d="M10.5905 12.29C12.264 12.29 13.6205 10.9334 13.6205 9.25998C13.6205 7.58656 12.264 6.22998 10.5905 6.22998C8.91712 6.22998 7.56055 7.58656 7.56055 9.25998C7.56055 10.9334 8.91712 12.29 10.5905 12.29Z" fill="#DDDBDB"/>
<path d="M21.3698 12.29C23.0433 12.29 24.3998 10.9334 24.3998 9.25998C24.3998 7.58656 23.0433 6.22998 21.3698 6.22998C19.6964 6.22998 18.3398 7.58656 18.3398 9.25998C18.3398 10.9334 19.6964 12.29 21.3698 12.29Z" fill="#DDDBDB"/>
<path d="M32.1491 12.29C33.8226 12.29 35.1791 10.9334 35.1791 9.25998C35.1791 7.58656 33.8226 6.22998 32.1491 6.22998C30.4757 6.22998 29.1191 7.58656 29.1191 9.25998C29.1191 10.9334 30.4757 12.29 32.1491 12.29Z" fill="#DDDBDB"/>
<path d="M42.9304 12.29C44.6038 12.29 45.9604 10.9334 45.9604 9.25998C45.9604 7.58656 44.6038 6.22998 42.9304 6.22998C41.257 6.22998 39.9004 7.58656 39.9004 9.25998C39.9004 10.9334 41.257 12.29 42.9304 12.29Z" fill="#DDDBDB"/>
<path d="M53.7195 12.29C55.3929 12.29 56.7495 10.9334 56.7495 9.25998C56.7495 7.58656 55.3929 6.22998 53.7195 6.22998C52.046 6.22998 50.6895 7.58656 50.6895 9.25998C50.6895 10.9334 52.046 12.29 53.7195 12.29Z" fill="#DDDBDB"/>
<path d="M64.5007 12.29C66.1741 12.29 67.5307 10.9334 67.5307 9.25998C67.5307 7.58656 66.1741 6.22998 64.5007 6.22998C62.8273 6.22998 61.4707 7.58656 61.4707 9.25998C61.4707 10.9334 62.8273 12.29 64.5007 12.29Z" fill="#DDDBDB"/>
<path d="M75.28 12.29C76.9534 12.29 78.31 10.9334 78.31 9.25998C78.31 7.58656 76.9534 6.22998 75.28 6.22998C73.6066 6.22998 72.25 7.58656 72.25 9.25998C72.25 10.9334 73.6066 12.29 75.28 12.29Z" fill="#DDDBDB"/>
<path d="M86.0593 12.29C87.7327 12.29 89.0893 10.9334 89.0893 9.25998C89.0893 7.58656 87.7327 6.22998 86.0593 6.22998C84.3859 6.22998 83.0293 7.58656 83.0293 9.25998C83.0293 10.9334 84.3859 12.29 86.0593 12.29Z" fill="#DDDBDB"/>
<path d="M96.8503 12.29C98.5237 12.29 99.8803 10.9334 99.8803 9.25998C99.8803 7.58656 98.5237 6.22998 96.8503 6.22998C95.1769 6.22998 93.8203 7.58656 93.8203 9.25998C93.8203 10.9334 95.1769 12.29 96.8503 12.29Z" fill="#DDDBDB"/>
<path d="M107.63 12.29C109.303 12.29 110.66 10.9334 110.66 9.25998C110.66 7.58656 109.303 6.22998 107.63 6.22998C105.956 6.22998 104.6 7.58656 104.6 9.25998C104.6 10.9334 105.956 12.29 107.63 12.29Z" fill="#DDDBDB"/>
<path d="M15.9792 19.4399C17.6526 19.4399 19.0092 18.0833 19.0092 16.4099C19.0092 14.7365 17.6526 13.3799 15.9792 13.3799C14.3058 13.3799 12.9492 14.7365 12.9492 16.4099C12.9492 18.0833 14.3058 19.4399 15.9792 19.4399Z" fill="#DDDBDB"/>
<path d="M26.7605 19.4399C28.4339 19.4399 29.7905 18.0833 29.7905 16.4099C29.7905 14.7365 28.4339 13.3799 26.7605 13.3799C25.087 13.3799 23.7305 14.7365 23.7305 16.4099C23.7305 18.0833 25.087 19.4399 26.7605 19.4399Z" fill="#DDDBDB"/>
<path d="M37.5398 19.4399C39.2132 19.4399 40.5698 18.0833 40.5698 16.4099C40.5698 14.7365 39.2132 13.3799 37.5398 13.3799C35.8663 13.3799 34.5098 14.7365 34.5098 16.4099C34.5098 18.0833 35.8663 19.4399 37.5398 19.4399Z" fill="#DDDBDB"/>
<path d="M48.3308 19.4399C50.0042 19.4399 51.3608 18.0833 51.3608 16.4099C51.3608 14.7365 50.0042 13.3799 48.3308 13.3799C46.6574 13.3799 45.3008 14.7365 45.3008 16.4099C45.3008 18.0833 46.6574 19.4399 48.3308 19.4399Z" fill="#DDDBDB"/>
<path d="M59.1101 19.4399C60.7835 19.4399 62.1401 18.0833 62.1401 16.4099C62.1401 14.7365 60.7835 13.3799 59.1101 13.3799C57.4367 13.3799 56.0801 14.7365 56.0801 16.4099C56.0801 18.0833 57.4367 19.4399 59.1101 19.4399Z" fill="#DDDBDB"/>
<path d="M69.8894 19.4399C71.5628 19.4399 72.9194 18.0833 72.9194 16.4099C72.9194 14.7365 71.5628 13.3799 69.8894 13.3799C68.216 13.3799 66.8594 14.7365 66.8594 16.4099C66.8594 18.0833 68.216 19.4399 69.8894 19.4399Z" fill="#DDDBDB"/>
<path d="M80.6706 19.4399C82.344 19.4399 83.7006 18.0833 83.7006 16.4099C83.7006 14.7365 82.344 13.3799 80.6706 13.3799C78.9972 13.3799 77.6406 14.7365 77.6406 16.4099C77.6406 18.0833 78.9972 19.4399 80.6706 19.4399Z" fill="#DDDBDB"/>
<path d="M91.4597 19.4399C93.1331 19.4399 94.4897 18.0833 94.4897 16.4099C94.4897 14.7365 93.1331 13.3799 91.4597 13.3799C89.7863 13.3799 88.4297 14.7365 88.4297 16.4099C88.4297 18.0833 89.7863 19.4399 91.4597 19.4399Z" fill="#DDDBDB"/>
<path d="M102.241 19.4399C103.914 19.4399 105.271 18.0833 105.271 16.4099C105.271 14.7365 103.914 13.3799 102.241 13.3799C100.568 13.3799 99.2109 14.7365 99.2109 16.4099C99.2109 18.0833 100.568 19.4399 102.241 19.4399Z" fill="#DDDBDB"/>
<path d="M10.5905 26.29C12.264 26.29 13.6205 24.9334 13.6205 23.26C13.6205 21.5866 12.264 20.23 10.5905 20.23C8.91712 20.23 7.56055 21.5866 7.56055 23.26C7.56055 24.9334 8.91712 26.29 10.5905 26.29Z" fill="#DDDBDB"/>
<path d="M21.3698 26.29C23.0433 26.29 24.3998 24.9334 24.3998 23.26C24.3998 21.5866 23.0433 20.23 21.3698 20.23C19.6964 20.23 18.3398 21.5866 18.3398 23.26C18.3398 24.9334 19.6964 26.29 21.3698 26.29Z" fill="#DDDBDB"/>
<path d="M32.1491 26.29C33.8226 26.29 35.1791 24.9334 35.1791 23.26C35.1791 21.5866 33.8226 20.23 32.1491 20.23C30.4757 20.23 29.1191 21.5866 29.1191 23.26C29.1191 24.9334 30.4757 26.29 32.1491 26.29Z" fill="#DDDBDB"/>
<path d="M42.9304 26.29C44.6038 26.29 45.9604 24.9334 45.9604 23.26C45.9604 21.5866 44.6038 20.23 42.9304 20.23C41.257 20.23 39.9004 21.5866 39.9004 23.26C39.9004 24.9334 41.257 26.29 42.9304 26.29Z" fill="#DDDBDB"/>
<path d="M53.7195 26.29C55.3929 26.29 56.7495 24.9334 56.7495 23.26C56.7495 21.5866 55.3929 20.23 53.7195 20.23C52.046 20.23 50.6895 21.5866 50.6895 23.26C50.6895 24.9334 52.046 26.29 53.7195 26.29Z" fill="#DDDBDB"/>
<path d="M64.5007 26.29C66.1741 26.29 67.5307 24.9334 67.5307 23.26C67.5307 21.5866 66.1741 20.23 64.5007 20.23C62.8273 20.23 61.4707 21.5866 61.4707 23.26C61.4707 24.9334 62.8273 26.29 64.5007 26.29Z" fill="#DDDBDB"/>
<path d="M75.28 26.29C76.9534 26.29 78.31 24.9334 78.31 23.26C78.31 21.5866 76.9534 20.23 75.28 20.23C73.6066 20.23 72.25 21.5866 72.25 23.26C72.25 24.9334 73.6066 26.29 75.28 26.29Z" fill="#DDDBDB"/>
<path d="M86.0593 26.29C87.7327 26.29 89.0893 24.9334 89.0893 23.26C89.0893 21.5866 87.7327 20.23 86.0593 20.23C84.3859 20.23 83.0293 21.5866 83.0293 23.26C83.0293 24.9334 84.3859 26.29 86.0593 26.29Z" fill="#DDDBDB"/>
<path d="M96.8503 26.29C98.5237 26.29 99.8803 24.9334 99.8803 23.26C99.8803 21.5866 98.5237 20.23 96.8503 20.23C95.1769 20.23 93.8203 21.5866 93.8203 23.26C93.8203 24.9334 95.1769 26.29 96.8503 26.29Z" fill="#DDDBDB"/>
<path d="M107.63 26.29C109.303 26.29 110.66 24.9334 110.66 23.26C110.66 21.5866 109.303 20.23 107.63 20.23C105.956 20.23 104.6 21.5866 104.6 23.26C104.6 24.9334 105.956 26.29 107.63 26.29Z" fill="#DDDBDB"/>
<path d="M15.9792 33.4399C17.6526 33.4399 19.0092 32.0833 19.0092 30.4099C19.0092 28.7365 17.6526 27.3799 15.9792 27.3799C14.3058 27.3799 12.9492 28.7365 12.9492 30.4099C12.9492 32.0833 14.3058 33.4399 15.9792 33.4399Z" fill="#DDDBDB"/>
<path d="M26.7605 33.4399C28.4339 33.4399 29.7905 32.0833 29.7905 30.4099C29.7905 28.7365 28.4339 27.3799 26.7605 27.3799C25.087 27.3799 23.7305 28.7365 23.7305 30.4099C23.7305 32.0833 25.087 33.4399 26.7605 33.4399Z" fill="#DDDBDB"/>
<path d="M37.5398 33.4399C39.2132 33.4399 40.5698 32.0833 40.5698 30.4099C40.5698 28.7365 39.2132 27.3799 37.5398 27.3799C35.8663 27.3799 34.5098 28.7365 34.5098 30.4099C34.5098 32.0833 35.8663 33.4399 37.5398 33.4399Z" fill="#DDDBDB"/>
<path d="M48.3308 33.4399C50.0042 33.4399 51.3608 32.0833 51.3608 30.4099C51.3608 28.7365 50.0042 27.3799 48.3308 27.3799C46.6574 27.3799 45.3008 28.7365 45.3008 30.4099C45.3008 32.0833 46.6574 33.4399 48.3308 33.4399Z" fill="#DDDBDB"/>
<path d="M59.1101 33.4399C60.7835 33.4399 62.1401 32.0833 62.1401 30.4099C62.1401 28.7365 60.7835 27.3799 59.1101 27.3799C57.4367 27.3799 56.0801 28.7365 56.0801 30.4099C56.0801 32.0833 57.4367 33.4399 59.1101 33.4399Z" fill="#DDDBDB"/>
<path d="M69.8894 33.4399C71.5628 33.4399 72.9194 32.0833 72.9194 30.4099C72.9194 28.7365 71.5628 27.3799 69.8894 27.3799C68.216 27.3799 66.8594 28.7365 66.8594 30.4099C66.8594 32.0833 68.216 33.4399 69.8894 33.4399Z" fill="#DDDBDB"/>
<path d="M80.6706 33.4399C82.344 33.4399 83.7006 32.0833 83.7006 30.4099C83.7006 28.7365 82.344 27.3799 80.6706 27.3799C78.9972 27.3799 77.6406 28.7365 77.6406 30.4099C77.6406 32.0833 78.9972 33.4399 80.6706 33.4399Z" fill="#DDDBDB"/>
<path d="M91.4597 33.4399C93.1331 33.4399 94.4897 32.0833 94.4897 30.4099C94.4897 28.7365 93.1331 27.3799 91.4597 27.3799C89.7863 27.3799 88.4297 28.7365 88.4297 30.4099C88.4297 32.0833 89.7863 33.4399 91.4597 33.4399Z" fill="#DDDBDB"/>
<path d="M102.241 33.4399C103.914 33.4399 105.271 32.0833 105.271 30.4099C105.271 28.7365 103.914 27.3799 102.241 27.3799C100.568 27.3799 99.2109 28.7365 99.2109 30.4099C99.2109 32.0833 100.568 33.4399 102.241 33.4399Z" fill="#DDDBDB"/>
<path d="M10.5905 40.29C12.264 40.29 13.6205 38.9334 13.6205 37.26C13.6205 35.5866 12.264 34.23 10.5905 34.23C8.91712 34.23 7.56055 35.5866 7.56055 37.26C7.56055 38.9334 8.91712 40.29 10.5905 40.29Z" fill="#DDDBDB"/>
<path d="M21.3698 40.29C23.0433 40.29 24.3998 38.9334 24.3998 37.26C24.3998 35.5866 23.0433 34.23 21.3698 34.23C19.6964 34.23 18.3398 35.5866 18.3398 37.26C18.3398 38.9334 19.6964 40.29 21.3698 40.29Z" fill="#DDDBDB"/>
<path d="M32.1491 40.29C33.8226 40.29 35.1791 38.9334 35.1791 37.26C35.1791 35.5866 33.8226 34.23 32.1491 34.23C30.4757 34.23 29.1191 35.5866 29.1191 37.26C29.1191 38.9334 30.4757 40.29 32.1491 40.29Z" fill="#DDDBDB"/>
<path d="M42.9304 40.29C44.6038 40.29 45.9604 38.9334 45.9604 37.26C45.9604 35.5866 44.6038 34.23 42.9304 34.23C41.257 34.23 39.9004 35.5866 39.9004 37.26C39.9004 38.9334 41.257 40.29 42.9304 40.29Z" fill="#DDDBDB"/>
<path d="M53.7195 40.29C55.3929 40.29 56.7495 38.9334 56.7495 37.26C56.7495 35.5866 55.3929 34.23 53.7195 34.23C52.046 34.23 50.6895 35.5866 50.6895 37.26C50.6895 38.9334 52.046 40.29 53.7195 40.29Z" fill="#DDDBDB"/>
<path d="M64.5007 40.29C66.1741 40.29 67.5307 38.9334 67.5307 37.26C67.5307 35.5866 66.1741 34.23 64.5007 34.23C62.8273 34.23 61.4707 35.5866 61.4707 37.26C61.4707 38.9334 62.8273 40.29 64.5007 40.29Z" fill="#DDDBDB"/>
<path d="M75.28 40.29C76.9534 40.29 78.31 38.9334 78.31 37.26C78.31 35.5866 76.9534 34.23 75.28 34.23C73.6066 34.23 72.25 35.5866 72.25 37.26C72.25 38.9334 73.6066 40.29 75.28 40.29Z" fill="#DDDBDB"/>
<path d="M86.0593 40.29C87.7327 40.29 89.0893 38.9334 89.0893 37.26C89.0893 35.5866 87.7327 34.23 86.0593 34.23C84.3859 34.23 83.0293 35.5866 83.0293 37.26C83.0293 38.9334 84.3859 40.29 86.0593 40.29Z" fill="#DDDBDB"/>
<path d="M96.8503 40.29C98.5237 40.29 99.8803 38.9334 99.8803 37.26C99.8803 35.5866 98.5237 34.23 96.8503 34.23C95.1769 34.23 93.8203 35.5866 93.8203 37.26C93.8203 38.9334 95.1769 40.29 96.8503 40.29Z" fill="#DDDBDB"/>
<path d="M107.63 40.29C109.303 40.29 110.66 38.9334 110.66 37.26C110.66 35.5866 109.303 34.23 107.63 34.23C105.956 34.23 104.6 35.5866 104.6 37.26C104.6 38.9334 105.956 40.29 107.63 40.29Z" fill="#DDDBDB"/>
<path d="M15.9792 47.4399C17.6526 47.4399 19.0092 46.0833 19.0092 44.4099C19.0092 42.7365 17.6526 41.3799 15.9792 41.3799C14.3058 41.3799 12.9492 42.7365 12.9492 44.4099C12.9492 46.0833 14.3058 47.4399 15.9792 47.4399Z" fill="#DDDBDB"/>
<path d="M26.7605 47.4399C28.4339 47.4399 29.7905 46.0833 29.7905 44.4099C29.7905 42.7365 28.4339 41.3799 26.7605 41.3799C25.087 41.3799 23.7305 42.7365 23.7305 44.4099C23.7305 46.0833 25.087 47.4399 26.7605 47.4399Z" fill="#DDDBDB"/>
<path d="M37.5398 47.4399C39.2132 47.4399 40.5698 46.0833 40.5698 44.4099C40.5698 42.7365 39.2132 41.3799 37.5398 41.3799C35.8663 41.3799 34.5098 42.7365 34.5098 44.4099C34.5098 46.0833 35.8663 47.4399 37.5398 47.4399Z" fill="#DDDBDB"/>
<path d="M48.3308 47.4399C50.0042 47.4399 51.3608 46.0833 51.3608 44.4099C51.3608 42.7365 50.0042 41.3799 48.3308 41.3799C46.6574 41.3799 45.3008 42.7365 45.3008 44.4099C45.3008 46.0833 46.6574 47.4399 48.3308 47.4399Z" fill="#DDDBDB"/>
<path d="M59.1101 47.4399C60.7835 47.4399 62.1401 46.0833 62.1401 44.4099C62.1401 42.7365 60.7835 41.3799 59.1101 41.3799C57.4367 41.3799 56.0801 42.7365 56.0801 44.4099C56.0801 46.0833 57.4367 47.4399 59.1101 47.4399Z" fill="#DDDBDB"/>
<path d="M69.8894 47.4399C71.5628 47.4399 72.9194 46.0833 72.9194 44.4099C72.9194 42.7365 71.5628 41.3799 69.8894 41.3799C68.216 41.3799 66.8594 42.7365 66.8594 44.4099C66.8594 46.0833 68.216 47.4399 69.8894 47.4399Z" fill="#DDDBDB"/>
<path d="M80.6706 47.4399C82.344 47.4399 83.7006 46.0833 83.7006 44.4099C83.7006 42.7365 82.344 41.3799 80.6706 41.3799C78.9972 41.3799 77.6406 42.7365 77.6406 44.4099C77.6406 46.0833 78.9972 47.4399 80.6706 47.4399Z" fill="#DDDBDB"/>
<path d="M91.4597 47.4399C93.1331 47.4399 94.4897 46.0833 94.4897 44.4099C94.4897 42.7365 93.1331 41.3799 91.4597 41.3799C89.7863 41.3799 88.4297 42.7365 88.4297 44.4099C88.4297 46.0833 89.7863 47.4399 91.4597 47.4399Z" fill="#DDDBDB"/>
<path d="M102.241 47.4399C103.914 47.4399 105.271 46.0833 105.271 44.4099C105.271 42.7365 103.914 41.3799 102.241 41.3799C100.568 41.3799 99.2109 42.7365 99.2109 44.4099C99.2109 46.0833 100.568 47.4399 102.241 47.4399Z" fill="#DDDBDB"/>
<path d="M10.5905 54.28C12.264 54.28 13.6205 52.9234 13.6205 51.25C13.6205 49.5765 12.264 48.22 10.5905 48.22C8.91712 48.22 7.56055 49.5765 7.56055 51.25C7.56055 52.9234 8.91712 54.28 10.5905 54.28Z" fill="#DDDBDB"/>
<path d="M21.3698 54.28C23.0433 54.28 24.3998 52.9234 24.3998 51.25C24.3998 49.5765 23.0433 48.22 21.3698 48.22C19.6964 48.22 18.3398 49.5765 18.3398 51.25C18.3398 52.9234 19.6964 54.28 21.3698 54.28Z" fill="#DDDBDB"/>
<path d="M32.1491 54.28C33.8226 54.28 35.1791 52.9234 35.1791 51.25C35.1791 49.5765 33.8226 48.22 32.1491 48.22C30.4757 48.22 29.1191 49.5765 29.1191 51.25C29.1191 52.9234 30.4757 54.28 32.1491 54.28Z" fill="#DDDBDB"/>
<path d="M42.9304 54.28C44.6038 54.28 45.9604 52.9234 45.9604 51.25C45.9604 49.5765 44.6038 48.22 42.9304 48.22C41.257 48.22 39.9004 49.5765 39.9004 51.25C39.9004 52.9234 41.257 54.28 42.9304 54.28Z" fill="#DDDBDB"/>
<path d="M53.7195 54.28C55.3929 54.28 56.7495 52.9234 56.7495 51.25C56.7495 49.5765 55.3929 48.22 53.7195 48.22C52.046 48.22 50.6895 49.5765 50.6895 51.25C50.6895 52.9234 52.046 54.28 53.7195 54.28Z" fill="#DDDBDB"/>
<path d="M64.5007 54.28C66.1741 54.28 67.5307 52.9234 67.5307 51.25C67.5307 49.5765 66.1741 48.22 64.5007 48.22C62.8273 48.22 61.4707 49.5765 61.4707 51.25C61.4707 52.9234 62.8273 54.28 64.5007 54.28Z" fill="#DDDBDB"/>
<path d="M75.28 54.28C76.9534 54.28 78.31 52.9234 78.31 51.25C78.31 49.5765 76.9534 48.22 75.28 48.22C73.6066 48.22 72.25 49.5765 72.25 51.25C72.25 52.9234 73.6066 54.28 75.28 54.28Z" fill="#DDDBDB"/>
<path d="M86.0593 54.28C87.7327 54.28 89.0893 52.9234 89.0893 51.25C89.0893 49.5765 87.7327 48.22 86.0593 48.22C84.3859 48.22 83.0293 49.5765 83.0293 51.25C83.0293 52.9234 84.3859 54.28 86.0593 54.28Z" fill="#DDDBDB"/>
<path d="M96.8503 54.28C98.5237 54.28 99.8803 52.9234 99.8803 51.25C99.8803 49.5765 98.5237 48.22 96.8503 48.22C95.1769 48.22 93.8203 49.5765 93.8203 51.25C93.8203 52.9234 95.1769 54.28 96.8503 54.28Z" fill="#DDDBDB"/>
<path d="M107.63 54.28C109.303 54.28 110.66 52.9234 110.66 51.25C110.66 49.5765 109.303 48.22 107.63 48.22C105.956 48.22 104.6 49.5765 104.6 51.25C104.6 52.9234 105.956 54.28 107.63 54.28Z" fill="#DDDBDB"/>
<path d="M15.9792 61.4301C17.6526 61.4301 19.0092 60.0735 19.0092 58.4001C19.0092 56.7267 17.6526 55.3701 15.9792 55.3701C14.3058 55.3701 12.9492 56.7267 12.9492 58.4001C12.9492 60.0735 14.3058 61.4301 15.9792 61.4301Z" fill="#DDDBDB"/>
<path d="M26.7605 61.4301C28.4339 61.4301 29.7905 60.0735 29.7905 58.4001C29.7905 56.7267 28.4339 55.3701 26.7605 55.3701C25.087 55.3701 23.7305 56.7267 23.7305 58.4001C23.7305 60.0735 25.087 61.4301 26.7605 61.4301Z" fill="#DDDBDB"/>
<path d="M37.5398 61.4301C39.2132 61.4301 40.5698 60.0735 40.5698 58.4001C40.5698 56.7267 39.2132 55.3701 37.5398 55.3701C35.8663 55.3701 34.5098 56.7267 34.5098 58.4001C34.5098 60.0735 35.8663 61.4301 37.5398 61.4301Z" fill="#DDDBDB"/>
<path d="M48.3308 61.4301C50.0042 61.4301 51.3608 60.0735 51.3608 58.4001C51.3608 56.7267 50.0042 55.3701 48.3308 55.3701C46.6574 55.3701 45.3008 56.7267 45.3008 58.4001C45.3008 60.0735 46.6574 61.4301 48.3308 61.4301Z" fill="#DDDBDB"/>
<path d="M59.1101 61.4301C60.7835 61.4301 62.1401 60.0735 62.1401 58.4001C62.1401 56.7267 60.7835 55.3701 59.1101 55.3701C57.4367 55.3701 56.0801 56.7267 56.0801 58.4001C56.0801 60.0735 57.4367 61.4301 59.1101 61.4301Z" fill="#DDDBDB"/>
<path d="M69.8894 61.4301C71.5628 61.4301 72.9194 60.0735 72.9194 58.4001C72.9194 56.7267 71.5628 55.3701 69.8894 55.3701C68.216 55.3701 66.8594 56.7267 66.8594 58.4001C66.8594 60.0735 68.216 61.4301 69.8894 61.4301Z" fill="#DDDBDB"/>
<path d="M80.6706 61.4301C82.344 61.4301 83.7006 60.0735 83.7006 58.4001C83.7006 56.7267 82.344 55.3701 80.6706 55.3701C78.9972 55.3701 77.6406 56.7267 77.6406 58.4001C77.6406 60.0735 78.9972 61.4301 80.6706 61.4301Z" fill="#DDDBDB"/>
<path d="M91.4597 61.4301C93.1331 61.4301 94.4897 60.0735 94.4897 58.4001C94.4897 56.7267 93.1331 55.3701 91.4597 55.3701C89.7863 55.3701 88.4297 56.7267 88.4297 58.4001C88.4297 60.0735 89.7863 61.4301 91.4597 61.4301Z" fill="#DDDBDB"/>
<path d="M102.241 61.4301C103.914 61.4301 105.271 60.0735 105.271 58.4001C105.271 56.7267 103.914 55.3701 102.241 55.3701C100.568 55.3701 99.2109 56.7267 99.2109 58.4001C99.2109 60.0735 100.568 61.4301 102.241 61.4301Z" fill="#DDDBDB"/>
<path d="M10.5905 68.28C12.264 68.28 13.6205 66.9234 13.6205 65.25C13.6205 63.5765 12.264 62.22 10.5905 62.22C8.91712 62.22 7.56055 63.5765 7.56055 65.25C7.56055 66.9234 8.91712 68.28 10.5905 68.28Z" fill="#DDDBDB"/>
<path d="M21.3698 68.28C23.0433 68.28 24.3998 66.9234 24.3998 65.25C24.3998 63.5765 23.0433 62.22 21.3698 62.22C19.6964 62.22 18.3398 63.5765 18.3398 65.25C18.3398 66.9234 19.6964 68.28 21.3698 68.28Z" fill="#DDDBDB"/>
<path d="M32.1491 68.28C33.8226 68.28 35.1791 66.9234 35.1791 65.25C35.1791 63.5765 33.8226 62.22 32.1491 62.22C30.4757 62.22 29.1191 63.5765 29.1191 65.25C29.1191 66.9234 30.4757 68.28 32.1491 68.28Z" fill="#DDDBDB"/>
<path d="M42.9304 68.28C44.6038 68.28 45.9604 66.9234 45.9604 65.25C45.9604 63.5765 44.6038 62.22 42.9304 62.22C41.257 62.22 39.9004 63.5765 39.9004 65.25C39.9004 66.9234 41.257 68.28 42.9304 68.28Z" fill="#DDDBDB"/>
<path d="M53.7195 68.28C55.3929 68.28 56.7495 66.9234 56.7495 65.25C56.7495 63.5765 55.3929 62.22 53.7195 62.22C52.046 62.22 50.6895 63.5765 50.6895 65.25C50.6895 66.9234 52.046 68.28 53.7195 68.28Z" fill="#DDDBDB"/>
<path d="M64.5007 68.28C66.1741 68.28 67.5307 66.9234 67.5307 65.25C67.5307 63.5765 66.1741 62.22 64.5007 62.22C62.8273 62.22 61.4707 63.5765 61.4707 65.25C61.4707 66.9234 62.8273 68.28 64.5007 68.28Z" fill="#DDDBDB"/>
<path d="M75.28 68.28C76.9534 68.28 78.31 66.9234 78.31 65.25C78.31 63.5765 76.9534 62.22 75.28 62.22C73.6066 62.22 72.25 63.5765 72.25 65.25C72.25 66.9234 73.6066 68.28 75.28 68.28Z" fill="#DDDBDB"/>
<path d="M86.0593 68.28C87.7327 68.28 89.0893 66.9234 89.0893 65.25C89.0893 63.5765 87.7327 62.22 86.0593 62.22C84.3859 62.22 83.0293 63.5765 83.0293 65.25C83.0293 66.9234 84.3859 68.28 86.0593 68.28Z" fill="#DDDBDB"/>
<path d="M96.8503 68.28C98.5237 68.28 99.8803 66.9234 99.8803 65.25C99.8803 63.5765 98.5237 62.22 96.8503 62.22C95.1769 62.22 93.8203 63.5765 93.8203 65.25C93.8203 66.9234 95.1769 68.28 96.8503 68.28Z" fill="#DDDBDB"/>
<path d="M107.63 68.28C109.303 68.28 110.66 66.9234 110.66 65.25C110.66 63.5765 109.303 62.22 107.63 62.22C105.956 62.22 104.6 63.5765 104.6 65.25C104.6 66.9234 105.956 68.28 107.63 68.28Z" fill="#DDDBDB"/>
<path d="M15.9792 75.4301C17.6526 75.4301 19.0092 74.0735 19.0092 72.4001C19.0092 70.7267 17.6526 69.3701 15.9792 69.3701C14.3058 69.3701 12.9492 70.7267 12.9492 72.4001C12.9492 74.0735 14.3058 75.4301 15.9792 75.4301Z" fill="#DDDBDB"/>
<path d="M26.7605 75.4301C28.4339 75.4301 29.7905 74.0735 29.7905 72.4001C29.7905 70.7267 28.4339 69.3701 26.7605 69.3701C25.087 69.3701 23.7305 70.7267 23.7305 72.4001C23.7305 74.0735 25.087 75.4301 26.7605 75.4301Z" fill="#DDDBDB"/>
<path d="M37.5398 75.4301C39.2132 75.4301 40.5698 74.0735 40.5698 72.4001C40.5698 70.7267 39.2132 69.3701 37.5398 69.3701C35.8663 69.3701 34.5098 70.7267 34.5098 72.4001C34.5098 74.0735 35.8663 75.4301 37.5398 75.4301Z" fill="#DDDBDB"/>
<path d="M48.3308 75.4301C50.0042 75.4301 51.3608 74.0735 51.3608 72.4001C51.3608 70.7267 50.0042 69.3701 48.3308 69.3701C46.6574 69.3701 45.3008 70.7267 45.3008 72.4001C45.3008 74.0735 46.6574 75.4301 48.3308 75.4301Z" fill="#DDDBDB"/>
<path d="M59.1101 75.4301C60.7835 75.4301 62.1401 74.0735 62.1401 72.4001C62.1401 70.7267 60.7835 69.3701 59.1101 69.3701C57.4367 69.3701 56.0801 70.7267 56.0801 72.4001C56.0801 74.0735 57.4367 75.4301 59.1101 75.4301Z" fill="#DDDBDB"/>
<path d="M69.8894 75.4301C71.5628 75.4301 72.9194 74.0735 72.9194 72.4001C72.9194 70.7267 71.5628 69.3701 69.8894 69.3701C68.216 69.3701 66.8594 70.7267 66.8594 72.4001C66.8594 74.0735 68.216 75.4301 69.8894 75.4301Z" fill="#DDDBDB"/>
<path d="M80.6706 75.4301C82.344 75.4301 83.7006 74.0735 83.7006 72.4001C83.7006 70.7267 82.344 69.3701 80.6706 69.3701C78.9972 69.3701 77.6406 70.7267 77.6406 72.4001C77.6406 74.0735 78.9972 75.4301 80.6706 75.4301Z" fill="#DDDBDB"/>
<path d="M91.4597 75.4301C93.1331 75.4301 94.4897 74.0735 94.4897 72.4001C94.4897 70.7267 93.1331 69.3701 91.4597 69.3701C89.7863 69.3701 88.4297 70.7267 88.4297 72.4001C88.4297 74.0735 89.7863 75.4301 91.4597 75.4301Z" fill="#DDDBDB"/>
<path d="M102.241 75.4301C103.914 75.4301 105.271 74.0735 105.271 72.4001C105.271 70.7267 103.914 69.3701 102.241 69.3701C100.568 69.3701 99.2109 70.7267 99.2109 72.4001C99.2109 74.0735 100.568 75.4301 102.241 75.4301Z" fill="#DDDBDB"/>
<path d="M10.5905 82.28C12.264 82.28 13.6205 80.9234 13.6205 79.25C13.6205 77.5765 12.264 76.22 10.5905 76.22C8.91712 76.22 7.56055 77.5765 7.56055 79.25C7.56055 80.9234 8.91712 82.28 10.5905 82.28Z" fill="#DDDBDB"/>
<path d="M21.3698 82.28C23.0433 82.28 24.3998 80.9234 24.3998 79.25C24.3998 77.5765 23.0433 76.22 21.3698 76.22C19.6964 76.22 18.3398 77.5765 18.3398 79.25C18.3398 80.9234 19.6964 82.28 21.3698 82.28Z" fill="#DDDBDB"/>
<path d="M32.1491 82.28C33.8226 82.28 35.1791 80.9234 35.1791 79.25C35.1791 77.5765 33.8226 76.22 32.1491 76.22C30.4757 76.22 29.1191 77.5765 29.1191 79.25C29.1191 80.9234 30.4757 82.28 32.1491 82.28Z" fill="#DDDBDB"/>
<path d="M42.9304 82.28C44.6038 82.28 45.9604 80.9234 45.9604 79.25C45.9604 77.5765 44.6038 76.22 42.9304 76.22C41.257 76.22 39.9004 77.5765 39.9004 79.25C39.9004 80.9234 41.257 82.28 42.9304 82.28Z" fill="#DDDBDB"/>
<path d="M53.7195 82.28C55.3929 82.28 56.7495 80.9234 56.7495 79.25C56.7495 77.5765 55.3929 76.22 53.7195 76.22C52.046 76.22 50.6895 77.5765 50.6895 79.25C50.6895 80.9234 52.046 82.28 53.7195 82.28Z" fill="#DDDBDB"/>
<path d="M64.5007 82.28C66.1741 82.28 67.5307 80.9234 67.5307 79.25C67.5307 77.5765 66.1741 76.22 64.5007 76.22C62.8273 76.22 61.4707 77.5765 61.4707 79.25C61.4707 80.9234 62.8273 82.28 64.5007 82.28Z" fill="#DDDBDB"/>
<path d="M75.28 82.28C76.9534 82.28 78.31 80.9234 78.31 79.25C78.31 77.5765 76.9534 76.22 75.28 76.22C73.6066 76.22 72.25 77.5765 72.25 79.25C72.25 80.9234 73.6066 82.28 75.28 82.28Z" fill="#DDDBDB"/>
<path d="M86.0593 82.28C87.7327 82.28 89.0893 80.9234 89.0893 79.25C89.0893 77.5765 87.7327 76.22 86.0593 76.22C84.3859 76.22 83.0293 77.5765 83.0293 79.25C83.0293 80.9234 84.3859 82.28 86.0593 82.28Z" fill="#DDDBDB"/>
<path d="M96.8503 82.28C98.5237 82.28 99.8803 80.9234 99.8803 79.25C99.8803 77.5765 98.5237 76.22 96.8503 76.22C95.1769 76.22 93.8203 77.5765 93.8203 79.25C93.8203 80.9234 95.1769 82.28 96.8503 82.28Z" fill="#DDDBDB"/>
<path d="M107.63 82.28C109.303 82.28 110.66 80.9234 110.66 79.25C110.66 77.5765 109.303 76.22 107.63 76.22C105.956 76.22 104.6 77.5765 104.6 79.25C104.6 80.9234 105.956 82.28 107.63 82.28Z" fill="#DDDBDB"/>
<path d="M15.9792 89.4301C17.6526 89.4301 19.0092 88.0735 19.0092 86.4001C19.0092 84.7267 17.6526 83.3701 15.9792 83.3701C14.3058 83.3701 12.9492 84.7267 12.9492 86.4001C12.9492 88.0735 14.3058 89.4301 15.9792 89.4301Z" fill="#DDDBDB"/>
<path d="M26.7605 89.4301C28.4339 89.4301 29.7905 88.0735 29.7905 86.4001C29.7905 84.7267 28.4339 83.3701 26.7605 83.3701C25.087 83.3701 23.7305 84.7267 23.7305 86.4001C23.7305 88.0735 25.087 89.4301 26.7605 89.4301Z" fill="#DDDBDB"/>
<path d="M37.5398 89.4301C39.2132 89.4301 40.5698 88.0735 40.5698 86.4001C40.5698 84.7267 39.2132 83.3701 37.5398 83.3701C35.8663 83.3701 34.5098 84.7267 34.5098 86.4001C34.5098 88.0735 35.8663 89.4301 37.5398 89.4301Z" fill="#DDDBDB"/>
<path d="M48.3308 89.4301C50.0042 89.4301 51.3608 88.0735 51.3608 86.4001C51.3608 84.7267 50.0042 83.3701 48.3308 83.3701C46.6574 83.3701 45.3008 84.7267 45.3008 86.4001C45.3008 88.0735 46.6574 89.4301 48.3308 89.4301Z" fill="#DDDBDB"/>
<path d="M59.1101 89.4301C60.7835 89.4301 62.1401 88.0735 62.1401 86.4001C62.1401 84.7267 60.7835 83.3701 59.1101 83.3701C57.4367 83.3701 56.0801 84.7267 56.0801 86.4001C56.0801 88.0735 57.4367 89.4301 59.1101 89.4301Z" fill="#DDDBDB"/>
<path d="M69.8894 89.4301C71.5628 89.4301 72.9194 88.0735 72.9194 86.4001C72.9194 84.7267 71.5628 83.3701 69.8894 83.3701C68.216 83.3701 66.8594 84.7267 66.8594 86.4001C66.8594 88.0735 68.216 89.4301 69.8894 89.4301Z" fill="#DDDBDB"/>
<path d="M80.6706 89.4301C82.344 89.4301 83.7006 88.0735 83.7006 86.4001C83.7006 84.7267 82.344 83.3701 80.6706 83.3701C78.9972 83.3701 77.6406 84.7267 77.6406 86.4001C77.6406 88.0735 78.9972 89.4301 80.6706 89.4301Z" fill="#DDDBDB"/>
<path d="M91.4597 89.4301C93.1331 89.4301 94.4897 88.0735 94.4897 86.4001C94.4897 84.7267 93.1331 83.3701 91.4597 83.3701C89.7863 83.3701 88.4297 84.7267 88.4297 86.4001C88.4297 88.0735 89.7863 89.4301 91.4597 89.4301Z" fill="#DDDBDB"/>
<path d="M102.241 89.4301C103.914 89.4301 105.271 88.0735 105.271 86.4001C105.271 84.7267 103.914 83.3701 102.241 83.3701C100.568 83.3701 99.2109 84.7267 99.2109 86.4001C99.2109 88.0735 100.568 89.4301 102.241 89.4301Z" fill="#DDDBDB"/>
<path d="M10.5905 96.28C12.264 96.28 13.6205 94.9234 13.6205 93.25C13.6205 91.5765 12.264 90.22 10.5905 90.22C8.91712 90.22 7.56055 91.5765 7.56055 93.25C7.56055 94.9234 8.91712 96.28 10.5905 96.28Z" fill="#DDDBDB"/>
<path d="M21.3698 96.28C23.0433 96.28 24.3998 94.9234 24.3998 93.25C24.3998 91.5765 23.0433 90.22 21.3698 90.22C19.6964 90.22 18.3398 91.5765 18.3398 93.25C18.3398 94.9234 19.6964 96.28 21.3698 96.28Z" fill="#DDDBDB"/>
<path d="M32.1491 96.28C33.8226 96.28 35.1791 94.9234 35.1791 93.25C35.1791 91.5765 33.8226 90.22 32.1491 90.22C30.4757 90.22 29.1191 91.5765 29.1191 93.25C29.1191 94.9234 30.4757 96.28 32.1491 96.28Z" fill="#DDDBDB"/>
<path d="M42.9304 96.28C44.6038 96.28 45.9604 94.9234 45.9604 93.25C45.9604 91.5765 44.6038 90.22 42.9304 90.22C41.257 90.22 39.9004 91.5765 39.9004 93.25C39.9004 94.9234 41.257 96.28 42.9304 96.28Z" fill="#DDDBDB"/>
<path d="M53.7195 96.28C55.3929 96.28 56.7495 94.9234 56.7495 93.25C56.7495 91.5765 55.3929 90.22 53.7195 90.22C52.046 90.22 50.6895 91.5765 50.6895 93.25C50.6895 94.9234 52.046 96.28 53.7195 96.28Z" fill="#DDDBDB"/>
<path d="M64.5007 96.28C66.1741 96.28 67.5307 94.9234 67.5307 93.25C67.5307 91.5765 66.1741 90.22 64.5007 90.22C62.8273 90.22 61.4707 91.5765 61.4707 93.25C61.4707 94.9234 62.8273 96.28 64.5007 96.28Z" fill="#DDDBDB"/>
<path d="M75.28 96.28C76.9534 96.28 78.31 94.9234 78.31 93.25C78.31 91.5765 76.9534 90.22 75.28 90.22C73.6066 90.22 72.25 91.5765 72.25 93.25C72.25 94.9234 73.6066 96.28 75.28 96.28Z" fill="#DDDBDB"/>
<path d="M86.0593 96.28C87.7327 96.28 89.0893 94.9234 89.0893 93.25C89.0893 91.5765 87.7327 90.22 86.0593 90.22C84.3859 90.22 83.0293 91.5765 83.0293 93.25C83.0293 94.9234 84.3859 96.28 86.0593 96.28Z" fill="#DDDBDB"/>
<path d="M96.8503 96.28C98.5237 96.28 99.8803 94.9234 99.8803 93.25C99.8803 91.5765 98.5237 90.22 96.8503 90.22C95.1769 90.22 93.8203 91.5765 93.8203 93.25C93.8203 94.9234 95.1769 96.28 96.8503 96.28Z" fill="#DDDBDB"/>
<path d="M107.63 96.28C109.303 96.28 110.66 94.9234 110.66 93.25C110.66 91.5765 109.303 90.22 107.63 90.22C105.956 90.22 104.6 91.5765 104.6 93.25C104.6 94.9234 105.956 96.28 107.63 96.28Z" fill="#DDDBDB"/>
<path d="M15.9792 103.43C17.6526 103.43 19.0092 102.074 19.0092 100.4C19.0092 98.7267 17.6526 97.3701 15.9792 97.3701C14.3058 97.3701 12.9492 98.7267 12.9492 100.4C12.9492 102.074 14.3058 103.43 15.9792 103.43Z" fill="#DDDBDB"/>
<path d="M26.7605 103.43C28.4339 103.43 29.7905 102.074 29.7905 100.4C29.7905 98.7267 28.4339 97.3701 26.7605 97.3701C25.087 97.3701 23.7305 98.7267 23.7305 100.4C23.7305 102.074 25.087 103.43 26.7605 103.43Z" fill="#DDDBDB"/>
<path d="M37.5398 103.43C39.2132 103.43 40.5698 102.074 40.5698 100.4C40.5698 98.7267 39.2132 97.3701 37.5398 97.3701C35.8663 97.3701 34.5098 98.7267 34.5098 100.4C34.5098 102.074 35.8663 103.43 37.5398 103.43Z" fill="#DDDBDB"/>
<path d="M48.3308 103.43C50.0042 103.43 51.3608 102.074 51.3608 100.4C51.3608 98.7267 50.0042 97.3701 48.3308 97.3701C46.6574 97.3701 45.3008 98.7267 45.3008 100.4C45.3008 102.074 46.6574 103.43 48.3308 103.43Z" fill="#DDDBDB"/>
<path d="M59.1101 103.43C60.7835 103.43 62.1401 102.074 62.1401 100.4C62.1401 98.7267 60.7835 97.3701 59.1101 97.3701C57.4367 97.3701 56.0801 98.7267 56.0801 100.4C56.0801 102.074 57.4367 103.43 59.1101 103.43Z" fill="#DDDBDB"/>
<path d="M69.8894 103.43C71.5628 103.43 72.9194 102.074 72.9194 100.4C72.9194 98.7267 71.5628 97.3701 69.8894 97.3701C68.216 97.3701 66.8594 98.7267 66.8594 100.4C66.8594 102.074 68.216 103.43 69.8894 103.43Z" fill="#DDDBDB"/>
<path d="M80.6706 103.43C82.344 103.43 83.7006 102.074 83.7006 100.4C83.7006 98.7267 82.344 97.3701 80.6706 97.3701C78.9972 97.3701 77.6406 98.7267 77.6406 100.4C77.6406 102.074 78.9972 103.43 80.6706 103.43Z" fill="#DDDBDB"/>
<path d="M91.4597 103.43C93.1331 103.43 94.4897 102.074 94.4897 100.4C94.4897 98.7267 93.1331 97.3701 91.4597 97.3701C89.7863 97.3701 88.4297 98.7267 88.4297 100.4C88.4297 102.074 89.7863 103.43 91.4597 103.43Z" fill="#DDDBDB"/>
<path d="M102.241 103.43C103.914 103.43 105.271 102.074 105.271 100.4C105.271 98.7267 103.914 97.3701 102.241 97.3701C100.568 97.3701 99.2109 98.7267 99.2109 100.4C99.2109 102.074 100.568 103.43 102.241 103.43Z" fill="#DDDBDB"/>
<path d="M10.5905 110.27C12.264 110.27 13.6205 108.913 13.6205 107.24C13.6205 105.567 12.264 104.21 10.5905 104.21C8.91712 104.21 7.56055 105.567 7.56055 107.24C7.56055 108.913 8.91712 110.27 10.5905 110.27Z" fill="#DDDBDB"/>
<path d="M21.3698 110.27C23.0433 110.27 24.3998 108.913 24.3998 107.24C24.3998 105.567 23.0433 104.21 21.3698 104.21C19.6964 104.21 18.3398 105.567 18.3398 107.24C18.3398 108.913 19.6964 110.27 21.3698 110.27Z" fill="#DDDBDB"/>
<path d="M32.1491 110.27C33.8226 110.27 35.1791 108.913 35.1791 107.24C35.1791 105.567 33.8226 104.21 32.1491 104.21C30.4757 104.21 29.1191 105.567 29.1191 107.24C29.1191 108.913 30.4757 110.27 32.1491 110.27Z" fill="#DDDBDB"/>
<path d="M42.9304 110.27C44.6038 110.27 45.9604 108.913 45.9604 107.24C45.9604 105.567 44.6038 104.21 42.9304 104.21C41.257 104.21 39.9004 105.567 39.9004 107.24C39.9004 108.913 41.257 110.27 42.9304 110.27Z" fill="#DDDBDB"/>
<path d="M53.7195 110.27C55.3929 110.27 56.7495 108.913 56.7495 107.24C56.7495 105.567 55.3929 104.21 53.7195 104.21C52.046 104.21 50.6895 105.567 50.6895 107.24C50.6895 108.913 52.046 110.27 53.7195 110.27Z" fill="#DDDBDB"/>
<path d="M64.5007 110.27C66.1741 110.27 67.5307 108.913 67.5307 107.24C67.5307 105.567 66.1741 104.21 64.5007 104.21C62.8273 104.21 61.4707 105.567 61.4707 107.24C61.4707 108.913 62.8273 110.27 64.5007 110.27Z" fill="#DDDBDB"/>
<path d="M75.28 110.27C76.9534 110.27 78.31 108.913 78.31 107.24C78.31 105.567 76.9534 104.21 75.28 104.21C73.6066 104.21 72.25 105.567 72.25 107.24C72.25 108.913 73.6066 110.27 75.28 110.27Z" fill="#DDDBDB"/>
<path d="M86.0593 110.27C87.7327 110.27 89.0893 108.913 89.0893 107.24C89.0893 105.567 87.7327 104.21 86.0593 104.21C84.3859 104.21 83.0293 105.567 83.0293 107.24C83.0293 108.913 84.3859 110.27 86.0593 110.27Z" fill="#DDDBDB"/>
<path d="M96.8503 110.27C98.5237 110.27 99.8803 108.913 99.8803 107.24C99.8803 105.567 98.5237 104.21 96.8503 104.21C95.1769 104.21 93.8203 105.567 93.8203 107.24C93.8203 108.913 95.1769 110.27 96.8503 110.27Z" fill="#DDDBDB"/>
<path d="M107.63 110.27C109.303 110.27 110.66 108.913 110.66 107.24C110.66 105.567 109.303 104.21 107.63 104.21C105.956 104.21 104.6 105.567 104.6 107.24C104.6 108.913 105.956 110.27 107.63 110.27Z" fill="#DDDBDB"/>
<path d="M15.9792 117.42C17.6526 117.42 19.0092 116.064 19.0092 114.39C19.0092 112.717 17.6526 111.36 15.9792 111.36C14.3058 111.36 12.9492 112.717 12.9492 114.39C12.9492 116.064 14.3058 117.42 15.9792 117.42Z" fill="#DDDBDB"/>
<path d="M26.7605 117.42C28.4339 117.42 29.7905 116.064 29.7905 114.39C29.7905 112.717 28.4339 111.36 26.7605 111.36C25.087 111.36 23.7305 112.717 23.7305 114.39C23.7305 116.064 25.087 117.42 26.7605 117.42Z" fill="#DDDBDB"/>
<path d="M37.5398 117.42C39.2132 117.42 40.5698 116.064 40.5698 114.39C40.5698 112.717 39.2132 111.36 37.5398 111.36C35.8663 111.36 34.5098 112.717 34.5098 114.39C34.5098 116.064 35.8663 117.42 37.5398 117.42Z" fill="#DDDBDB"/>
<path d="M48.3308 117.42C50.0042 117.42 51.3608 116.064 51.3608 114.39C51.3608 112.717 50.0042 111.36 48.3308 111.36C46.6574 111.36 45.3008 112.717 45.3008 114.39C45.3008 116.064 46.6574 117.42 48.3308 117.42Z" fill="#DDDBDB"/>
<path d="M59.1101 117.42C60.7835 117.42 62.1401 116.064 62.1401 114.39C62.1401 112.717 60.7835 111.36 59.1101 111.36C57.4367 111.36 56.0801 112.717 56.0801 114.39C56.0801 116.064 57.4367 117.42 59.1101 117.42Z" fill="#DDDBDB"/>
<path d="M69.8894 117.42C71.5628 117.42 72.9194 116.064 72.9194 114.39C72.9194 112.717 71.5628 111.36 69.8894 111.36C68.216 111.36 66.8594 112.717 66.8594 114.39C66.8594 116.064 68.216 117.42 69.8894 117.42Z" fill="#DDDBDB"/>
<path d="M80.6706 117.42C82.344 117.42 83.7006 116.064 83.7006 114.39C83.7006 112.717 82.344 111.36 80.6706 111.36C78.9972 111.36 77.6406 112.717 77.6406 114.39C77.6406 116.064 78.9972 117.42 80.6706 117.42Z" fill="#DDDBDB"/>
<path d="M91.4597 117.42C93.1331 117.42 94.4897 116.064 94.4897 114.39C94.4897 112.717 93.1331 111.36 91.4597 111.36C89.7863 111.36 88.4297 112.717 88.4297 114.39C88.4297 116.064 89.7863 117.42 91.4597 117.42Z" fill="#DDDBDB"/>
<path d="M102.241 117.42C103.914 117.42 105.271 116.064 105.271 114.39C105.271 112.717 103.914 111.36 102.241 111.36C100.568 111.36 99.2109 112.717 99.2109 114.39C99.2109 116.064 100.568 117.42 102.241 117.42Z" fill="#DDDBDB"/>
<path d="M10.5905 124.27C12.264 124.27 13.6205 122.913 13.6205 121.24C13.6205 119.567 12.264 118.21 10.5905 118.21C8.91712 118.21 7.56055 119.567 7.56055 121.24C7.56055 122.913 8.91712 124.27 10.5905 124.27Z" fill="#DDDBDB"/>
<path d="M21.3698 124.27C23.0433 124.27 24.3998 122.913 24.3998 121.24C24.3998 119.567 23.0433 118.21 21.3698 118.21C19.6964 118.21 18.3398 119.567 18.3398 121.24C18.3398 122.913 19.6964 124.27 21.3698 124.27Z" fill="#DDDBDB"/>
<path d="M32.1491 124.27C33.8226 124.27 35.1791 122.913 35.1791 121.24C35.1791 119.567 33.8226 118.21 32.1491 118.21C30.4757 118.21 29.1191 119.567 29.1191 121.24C29.1191 122.913 30.4757 124.27 32.1491 124.27Z" fill="#DDDBDB"/>
<path d="M42.9304 124.27C44.6038 124.27 45.9604 122.913 45.9604 121.24C45.9604 119.567 44.6038 118.21 42.9304 118.21C41.257 118.21 39.9004 119.567 39.9004 121.24C39.9004 122.913 41.257 124.27 42.9304 124.27Z" fill="#DDDBDB"/>
<path d="M53.7195 124.27C55.3929 124.27 56.7495 122.913 56.7495 121.24C56.7495 119.567 55.3929 118.21 53.7195 118.21C52.046 118.21 50.6895 119.567 50.6895 121.24C50.6895 122.913 52.046 124.27 53.7195 124.27Z" fill="#DDDBDB"/>
<path d="M64.5007 124.27C66.1741 124.27 67.5307 122.913 67.5307 121.24C67.5307 119.567 66.1741 118.21 64.5007 118.21C62.8273 118.21 61.4707 119.567 61.4707 121.24C61.4707 122.913 62.8273 124.27 64.5007 124.27Z" fill="#DDDBDB"/>
<path d="M75.28 124.27C76.9534 124.27 78.31 122.913 78.31 121.24C78.31 119.567 76.9534 118.21 75.28 118.21C73.6066 118.21 72.25 119.567 72.25 121.24C72.25 122.913 73.6066 124.27 75.28 124.27Z" fill="#DDDBDB"/>
<path d="M86.0593 124.27C87.7327 124.27 89.0893 122.913 89.0893 121.24C89.0893 119.567 87.7327 118.21 86.0593 118.21C84.3859 118.21 83.0293 119.567 83.0293 121.24C83.0293 122.913 84.3859 124.27 86.0593 124.27Z" fill="#DDDBDB"/>
<path d="M96.8503 124.27C98.5237 124.27 99.8803 122.913 99.8803 121.24C99.8803 119.567 98.5237 118.21 96.8503 118.21C95.1769 118.21 93.8203 119.567 93.8203 121.24C93.8203 122.913 95.1769 124.27 96.8503 124.27Z" fill="#DDDBDB"/>
<path d="M107.63 124.27C109.303 124.27 110.66 122.913 110.66 121.24C110.66 119.567 109.303 118.21 107.63 118.21C105.956 118.21 104.6 119.567 104.6 121.24C104.6 122.913 105.956 124.27 107.63 124.27Z" fill="#DDDBDB"/>
<path d="M15.9792 131.42C17.6526 131.42 19.0092 130.064 19.0092 128.39C19.0092 126.717 17.6526 125.36 15.9792 125.36C14.3058 125.36 12.9492 126.717 12.9492 128.39C12.9492 130.064 14.3058 131.42 15.9792 131.42Z" fill="#DDDBDB"/>
<path d="M26.7605 131.42C28.4339 131.42 29.7905 130.064 29.7905 128.39C29.7905 126.717 28.4339 125.36 26.7605 125.36C25.087 125.36 23.7305 126.717 23.7305 128.39C23.7305 130.064 25.087 131.42 26.7605 131.42Z" fill="#DDDBDB"/>
<path d="M37.5398 131.42C39.2132 131.42 40.5698 130.064 40.5698 128.39C40.5698 126.717 39.2132 125.36 37.5398 125.36C35.8663 125.36 34.5098 126.717 34.5098 128.39C34.5098 130.064 35.8663 131.42 37.5398 131.42Z" fill="#DDDBDB"/>
<path d="M48.3308 131.42C50.0042 131.42 51.3608 130.064 51.3608 128.39C51.3608 126.717 50.0042 125.36 48.3308 125.36C46.6574 125.36 45.3008 126.717 45.3008 128.39C45.3008 130.064 46.6574 131.42 48.3308 131.42Z" fill="#DDDBDB"/>
<path d="M59.1101 131.42C60.7835 131.42 62.1401 130.064 62.1401 128.39C62.1401 126.717 60.7835 125.36 59.1101 125.36C57.4367 125.36 56.0801 126.717 56.0801 128.39C56.0801 130.064 57.4367 131.42 59.1101 131.42Z" fill="#DDDBDB"/>
<path d="M69.8894 131.42C71.5628 131.42 72.9194 130.064 72.9194 128.39C72.9194 126.717 71.5628 125.36 69.8894 125.36C68.216 125.36 66.8594 126.717 66.8594 128.39C66.8594 130.064 68.216 131.42 69.8894 131.42Z" fill="#DDDBDB"/>
<path d="M80.6706 131.42C82.344 131.42 83.7006 130.064 83.7006 128.39C83.7006 126.717 82.344 125.36 80.6706 125.36C78.9972 125.36 77.6406 126.717 77.6406 128.39C77.6406 130.064 78.9972 131.42 80.6706 131.42Z" fill="#DDDBDB"/>
<path d="M91.4597 131.42C93.1331 131.42 94.4897 130.064 94.4897 128.39C94.4897 126.717 93.1331 125.36 91.4597 125.36C89.7863 125.36 88.4297 126.717 88.4297 128.39C88.4297 130.064 89.7863 131.42 91.4597 131.42Z" fill="#DDDBDB"/>
<path d="M102.241 131.42C103.914 131.42 105.271 130.064 105.271 128.39C105.271 126.717 103.914 125.36 102.241 125.36C100.568 125.36 99.2109 126.717 99.2109 128.39C99.2109 130.064 100.568 131.42 102.241 131.42Z" fill="#DDDBDB"/>
<path d="M10.5905 138.27C12.264 138.27 13.6205 136.913 13.6205 135.24C13.6205 133.567 12.264 132.21 10.5905 132.21C8.91712 132.21 7.56055 133.567 7.56055 135.24C7.56055 136.913 8.91712 138.27 10.5905 138.27Z" fill="#DDDBDB"/>
<path d="M21.3698 138.27C23.0433 138.27 24.3998 136.913 24.3998 135.24C24.3998 133.567 23.0433 132.21 21.3698 132.21C19.6964 132.21 18.3398 133.567 18.3398 135.24C18.3398 136.913 19.6964 138.27 21.3698 138.27Z" fill="#DDDBDB"/>
<path d="M32.1491 138.27C33.8226 138.27 35.1791 136.913 35.1791 135.24C35.1791 133.567 33.8226 132.21 32.1491 132.21C30.4757 132.21 29.1191 133.567 29.1191 135.24C29.1191 136.913 30.4757 138.27 32.1491 138.27Z" fill="#DDDBDB"/>
<path d="M42.9304 138.27C44.6038 138.27 45.9604 136.913 45.9604 135.24C45.9604 133.567 44.6038 132.21 42.9304 132.21C41.257 132.21 39.9004 133.567 39.9004 135.24C39.9004 136.913 41.257 138.27 42.9304 138.27Z" fill="#DDDBDB"/>
<path d="M53.7195 138.27C55.3929 138.27 56.7495 136.913 56.7495 135.24C56.7495 133.567 55.3929 132.21 53.7195 132.21C52.046 132.21 50.6895 133.567 50.6895 135.24C50.6895 136.913 52.046 138.27 53.7195 138.27Z" fill="#DDDBDB"/>
<path d="M64.5007 138.27C66.1741 138.27 67.5307 136.913 67.5307 135.24C67.5307 133.567 66.1741 132.21 64.5007 132.21C62.8273 132.21 61.4707 133.567 61.4707 135.24C61.4707 136.913 62.8273 138.27 64.5007 138.27Z" fill="#DDDBDB"/>
<path d="M75.28 138.27C76.9534 138.27 78.31 136.913 78.31 135.24C78.31 133.567 76.9534 132.21 75.28 132.21C73.6066 132.21 72.25 133.567 72.25 135.24C72.25 136.913 73.6066 138.27 75.28 138.27Z" fill="#DDDBDB"/>
<path d="M86.0593 138.27C87.7327 138.27 89.0893 136.913 89.0893 135.24C89.0893 133.567 87.7327 132.21 86.0593 132.21C84.3859 132.21 83.0293 133.567 83.0293 135.24C83.0293 136.913 84.3859 138.27 86.0593 138.27Z" fill="#DDDBDB"/>
<path d="M96.8503 138.27C98.5237 138.27 99.8803 136.913 99.8803 135.24C99.8803 133.567 98.5237 132.21 96.8503 132.21C95.1769 132.21 93.8203 133.567 93.8203 135.24C93.8203 136.913 95.1769 138.27 96.8503 138.27Z" fill="#DDDBDB"/>
<path d="M107.63 138.27C109.303 138.27 110.66 136.913 110.66 135.24C110.66 133.567 109.303 132.21 107.63 132.21C105.956 132.21 104.6 133.567 104.6 135.24C104.6 136.913 105.956 138.27 107.63 138.27Z" fill="#DDDBDB"/>
<path d="M15.9792 145.42C17.6526 145.42 19.0092 144.064 19.0092 142.39C19.0092 140.717 17.6526 139.36 15.9792 139.36C14.3058 139.36 12.9492 140.717 12.9492 142.39C12.9492 144.064 14.3058 145.42 15.9792 145.42Z" fill="#DDDBDB"/>
<path d="M26.7605 145.42C28.4339 145.42 29.7905 144.064 29.7905 142.39C29.7905 140.717 28.4339 139.36 26.7605 139.36C25.087 139.36 23.7305 140.717 23.7305 142.39C23.7305 144.064 25.087 145.42 26.7605 145.42Z" fill="#DDDBDB"/>
<path d="M37.5398 145.42C39.2132 145.42 40.5698 144.064 40.5698 142.39C40.5698 140.717 39.2132 139.36 37.5398 139.36C35.8663 139.36 34.5098 140.717 34.5098 142.39C34.5098 144.064 35.8663 145.42 37.5398 145.42Z" fill="#DDDBDB"/>
<path d="M48.3308 145.42C50.0042 145.42 51.3608 144.064 51.3608 142.39C51.3608 140.717 50.0042 139.36 48.3308 139.36C46.6574 139.36 45.3008 140.717 45.3008 142.39C45.3008 144.064 46.6574 145.42 48.3308 145.42Z" fill="#DDDBDB"/>
<path d="M59.1101 145.42C60.7835 145.42 62.1401 144.064 62.1401 142.39C62.1401 140.717 60.7835 139.36 59.1101 139.36C57.4367 139.36 56.0801 140.717 56.0801 142.39C56.0801 144.064 57.4367 145.42 59.1101 145.42Z" fill="#DDDBDB"/>
<path d="M69.8894 145.42C71.5628 145.42 72.9194 144.064 72.9194 142.39C72.9194 140.717 71.5628 139.36 69.8894 139.36C68.216 139.36 66.8594 140.717 66.8594 142.39C66.8594 144.064 68.216 145.42 69.8894 145.42Z" fill="#DDDBDB"/>
<path d="M80.6706 145.42C82.344 145.42 83.7006 144.064 83.7006 142.39C83.7006 140.717 82.344 139.36 80.6706 139.36C78.9972 139.36 77.6406 140.717 77.6406 142.39C77.6406 144.064 78.9972 145.42 80.6706 145.42Z" fill="#DDDBDB"/>
<path d="M91.4597 145.42C93.1331 145.42 94.4897 144.064 94.4897 142.39C94.4897 140.717 93.1331 139.36 91.4597 139.36C89.7863 139.36 88.4297 140.717 88.4297 142.39C88.4297 144.064 89.7863 145.42 91.4597 145.42Z" fill="#DDDBDB"/>
<path d="M102.241 145.42C103.914 145.42 105.271 144.064 105.271 142.39C105.271 140.717 103.914 139.36 102.241 139.36C100.568 139.36 99.2109 140.717 99.2109 142.39C99.2109 144.064 100.568 145.42 102.241 145.42Z" fill="#DDDBDB"/>
<path d="M10.5905 152.27C12.264 152.27 13.6205 150.913 13.6205 149.24C13.6205 147.567 12.264 146.21 10.5905 146.21C8.91712 146.21 7.56055 147.567 7.56055 149.24C7.56055 150.913 8.91712 152.27 10.5905 152.27Z" fill="#DDDBDB"/>
<path d="M21.3698 152.27C23.0433 152.27 24.3998 150.913 24.3998 149.24C24.3998 147.567 23.0433 146.21 21.3698 146.21C19.6964 146.21 18.3398 147.567 18.3398 149.24C18.3398 150.913 19.6964 152.27 21.3698 152.27Z" fill="#DDDBDB"/>
<path d="M32.1491 152.27C33.8226 152.27 35.1791 150.913 35.1791 149.24C35.1791 147.567 33.8226 146.21 32.1491 146.21C30.4757 146.21 29.1191 147.567 29.1191 149.24C29.1191 150.913 30.4757 152.27 32.1491 152.27Z" fill="#DDDBDB"/>
<path d="M42.9304 152.27C44.6038 152.27 45.9604 150.913 45.9604 149.24C45.9604 147.567 44.6038 146.21 42.9304 146.21C41.257 146.21 39.9004 147.567 39.9004 149.24C39.9004 150.913 41.257 152.27 42.9304 152.27Z" fill="#DDDBDB"/>
<path d="M53.7195 152.27C55.3929 152.27 56.7495 150.913 56.7495 149.24C56.7495 147.567 55.3929 146.21 53.7195 146.21C52.046 146.21 50.6895 147.567 50.6895 149.24C50.6895 150.913 52.046 152.27 53.7195 152.27Z" fill="#DDDBDB"/>
<path d="M64.5007 152.27C66.1741 152.27 67.5307 150.913 67.5307 149.24C67.5307 147.567 66.1741 146.21 64.5007 146.21C62.8273 146.21 61.4707 147.567 61.4707 149.24C61.4707 150.913 62.8273 152.27 64.5007 152.27Z" fill="#DDDBDB"/>
<path d="M75.28 152.27C76.9534 152.27 78.31 150.913 78.31 149.24C78.31 147.567 76.9534 146.21 75.28 146.21C73.6066 146.21 72.25 147.567 72.25 149.24C72.25 150.913 73.6066 152.27 75.28 152.27Z" fill="#DDDBDB"/>
<path d="M86.0593 152.27C87.7327 152.27 89.0893 150.913 89.0893 149.24C89.0893 147.567 87.7327 146.21 86.0593 146.21C84.3859 146.21 83.0293 147.567 83.0293 149.24C83.0293 150.913 84.3859 152.27 86.0593 152.27Z" fill="#DDDBDB"/>
<path d="M96.8503 152.27C98.5237 152.27 99.8803 150.913 99.8803 149.24C99.8803 147.567 98.5237 146.21 96.8503 146.21C95.1769 146.21 93.8203 147.567 93.8203 149.24C93.8203 150.913 95.1769 152.27 96.8503 152.27Z" fill="#DDDBDB"/>
<path d="M107.63 152.27C109.303 152.27 110.66 150.913 110.66 149.24C110.66 147.567 109.303 146.21 107.63 146.21C105.956 146.21 104.6 147.567 104.6 149.24C104.6 150.913 105.956 152.27 107.63 152.27Z" fill="#DDDBDB"/>
<path d="M15.9792 158.95C17.6526 158.95 19.0092 157.593 19.0092 155.92C19.0092 154.246 17.6526 152.89 15.9792 152.89C14.3058 152.89 12.9492 154.246 12.9492 155.92C12.9492 157.593 14.3058 158.95 15.9792 158.95Z" fill="#DDDBDB"/>
<path d="M26.7605 158.95C28.4339 158.95 29.7905 157.593 29.7905 155.92C29.7905 154.246 28.4339 152.89 26.7605 152.89C25.087 152.89 23.7305 154.246 23.7305 155.92C23.7305 157.593 25.087 158.95 26.7605 158.95Z" fill="#DDDBDB"/>
<path d="M37.5398 158.95C39.2132 158.95 40.5698 157.593 40.5698 155.92C40.5698 154.246 39.2132 152.89 37.5398 152.89C35.8663 152.89 34.5098 154.246 34.5098 155.92C34.5098 157.593 35.8663 158.95 37.5398 158.95Z" fill="#DDDBDB"/>
<path d="M48.3308 158.95C50.0042 158.95 51.3608 157.593 51.3608 155.92C51.3608 154.246 50.0042 152.89 48.3308 152.89C46.6574 152.89 45.3008 154.246 45.3008 155.92C45.3008 157.593 46.6574 158.95 48.3308 158.95Z" fill="#DDDBDB"/>
<path d="M59.1101 158.95C60.7835 158.95 62.1401 157.593 62.1401 155.92C62.1401 154.246 60.7835 152.89 59.1101 152.89C57.4367 152.89 56.0801 154.246 56.0801 155.92C56.0801 157.593 57.4367 158.95 59.1101 158.95Z" fill="#DDDBDB"/>
<path d="M69.8894 158.95C71.5628 158.95 72.9194 157.593 72.9194 155.92C72.9194 154.246 71.5628 152.89 69.8894 152.89C68.216 152.89 66.8594 154.246 66.8594 155.92C66.8594 157.593 68.216 158.95 69.8894 158.95Z" fill="#DDDBDB"/>
<path d="M80.6706 158.95C82.344 158.95 83.7006 157.593 83.7006 155.92C83.7006 154.246 82.344 152.89 80.6706 152.89C78.9972 152.89 77.6406 154.246 77.6406 155.92C77.6406 157.593 78.9972 158.95 80.6706 158.95Z" fill="#DDDBDB"/>
<path d="M91.4597 158.95C93.1331 158.95 94.4897 157.593 94.4897 155.92C94.4897 154.246 93.1331 152.89 91.4597 152.89C89.7863 152.89 88.4297 154.246 88.4297 155.92C88.4297 157.593 89.7863 158.95 91.4597 158.95Z" fill="#DDDBDB"/>
<path d="M102.241 158.95C103.914 158.95 105.271 157.593 105.271 155.92C105.271 154.246 103.914 152.89 102.241 152.89C100.568 152.89 99.2109 154.246 99.2109 155.92C99.2109 157.593 100.568 158.95 102.241 158.95Z" fill="#DDDBDB"/>
<path d="M10.5905 165.79C12.264 165.79 13.6205 164.433 13.6205 162.76C13.6205 161.087 12.264 159.73 10.5905 159.73C8.91712 159.73 7.56055 161.087 7.56055 162.76C7.56055 164.433 8.91712 165.79 10.5905 165.79Z" fill="#DDDBDB"/>
<path d="M21.3698 165.79C23.0433 165.79 24.3998 164.433 24.3998 162.76C24.3998 161.087 23.0433 159.73 21.3698 159.73C19.6964 159.73 18.3398 161.087 18.3398 162.76C18.3398 164.433 19.6964 165.79 21.3698 165.79Z" fill="#DDDBDB"/>
<path d="M32.1491 165.79C33.8226 165.79 35.1791 164.433 35.1791 162.76C35.1791 161.087 33.8226 159.73 32.1491 159.73C30.4757 159.73 29.1191 161.087 29.1191 162.76C29.1191 164.433 30.4757 165.79 32.1491 165.79Z" fill="#DDDBDB"/>
<path d="M42.9304 165.79C44.6038 165.79 45.9604 164.433 45.9604 162.76C45.9604 161.087 44.6038 159.73 42.9304 159.73C41.257 159.73 39.9004 161.087 39.9004 162.76C39.9004 164.433 41.257 165.79 42.9304 165.79Z" fill="#DDDBDB"/>
<path d="M53.7195 165.79C55.3929 165.79 56.7495 164.433 56.7495 162.76C56.7495 161.087 55.3929 159.73 53.7195 159.73C52.046 159.73 50.6895 161.087 50.6895 162.76C50.6895 164.433 52.046 165.79 53.7195 165.79Z" fill="#DDDBDB"/>
<path d="M64.5007 165.79C66.1741 165.79 67.5307 164.433 67.5307 162.76C67.5307 161.087 66.1741 159.73 64.5007 159.73C62.8273 159.73 61.4707 161.087 61.4707 162.76C61.4707 164.433 62.8273 165.79 64.5007 165.79Z" fill="#DDDBDB"/>
<path d="M75.28 165.79C76.9534 165.79 78.31 164.433 78.31 162.76C78.31 161.087 76.9534 159.73 75.28 159.73C73.6066 159.73 72.25 161.087 72.25 162.76C72.25 164.433 73.6066 165.79 75.28 165.79Z" fill="#DDDBDB"/>
<path d="M86.0593 165.79C87.7327 165.79 89.0893 164.433 89.0893 162.76C89.0893 161.087 87.7327 159.73 86.0593 159.73C84.3859 159.73 83.0293 161.087 83.0293 162.76C83.0293 164.433 84.3859 165.79 86.0593 165.79Z" fill="#DDDBDB"/>
<path d="M96.8503 165.79C98.5237 165.79 99.8803 164.433 99.8803 162.76C99.8803 161.087 98.5237 159.73 96.8503 159.73C95.1769 159.73 93.8203 161.087 93.8203 162.76C93.8203 164.433 95.1769 165.79 96.8503 165.79Z" fill="#DDDBDB"/>
<path d="M107.63 165.79C109.303 165.79 110.66 164.433 110.66 162.76C110.66 161.087 109.303 159.73 107.63 159.73C105.956 159.73 104.6 161.087 104.6 162.76C104.6 164.433 105.956 165.79 107.63 165.79Z" fill="#DDDBDB"/>
<path d="M15.9792 172.94C17.6526 172.94 19.0092 171.583 19.0092 169.91C19.0092 168.236 17.6526 166.88 15.9792 166.88C14.3058 166.88 12.9492 168.236 12.9492 169.91C12.9492 171.583 14.3058 172.94 15.9792 172.94Z" fill="#DDDBDB"/>
<path d="M26.7605 172.94C28.4339 172.94 29.7905 171.583 29.7905 169.91C29.7905 168.236 28.4339 166.88 26.7605 166.88C25.087 166.88 23.7305 168.236 23.7305 169.91C23.7305 171.583 25.087 172.94 26.7605 172.94Z" fill="#DDDBDB"/>
<path d="M37.5398 172.94C39.2132 172.94 40.5698 171.583 40.5698 169.91C40.5698 168.236 39.2132 166.88 37.5398 166.88C35.8663 166.88 34.5098 168.236 34.5098 169.91C34.5098 171.583 35.8663 172.94 37.5398 172.94Z" fill="#DDDBDB"/>
<path d="M48.3308 172.94C50.0042 172.94 51.3608 171.583 51.3608 169.91C51.3608 168.236 50.0042 166.88 48.3308 166.88C46.6574 166.88 45.3008 168.236 45.3008 169.91C45.3008 171.583 46.6574 172.94 48.3308 172.94Z" fill="#DDDBDB"/>
<path d="M59.1101 172.94C60.7835 172.94 62.1401 171.583 62.1401 169.91C62.1401 168.236 60.7835 166.88 59.1101 166.88C57.4367 166.88 56.0801 168.236 56.0801 169.91C56.0801 171.583 57.4367 172.94 59.1101 172.94Z" fill="#DDDBDB"/>
<path d="M69.8894 172.94C71.5628 172.94 72.9194 171.583 72.9194 169.91C72.9194 168.236 71.5628 166.88 69.8894 166.88C68.216 166.88 66.8594 168.236 66.8594 169.91C66.8594 171.583 68.216 172.94 69.8894 172.94Z" fill="#DDDBDB"/>
<path d="M80.6706 172.94C82.344 172.94 83.7006 171.583 83.7006 169.91C83.7006 168.236 82.344 166.88 80.6706 166.88C78.9972 166.88 77.6406 168.236 77.6406 169.91C77.6406 171.583 78.9972 172.94 80.6706 172.94Z" fill="#DDDBDB"/>
<path d="M91.4597 172.94C93.1331 172.94 94.4897 171.583 94.4897 169.91C94.4897 168.236 93.1331 166.88 91.4597 166.88C89.7863 166.88 88.4297 168.236 88.4297 169.91C88.4297 171.583 89.7863 172.94 91.4597 172.94Z" fill="#DDDBDB"/>
<path d="M102.241 172.94C103.914 172.94 105.271 171.583 105.271 169.91C105.271 168.236 103.914 166.88 102.241 166.88C100.568 166.88 99.2109 168.236 99.2109 169.91C99.2109 171.583 100.568 172.94 102.241 172.94Z" fill="#DDDBDB"/>
<path d="M135.46 48.68C135.46 48.32 135.44 47.97 135.4 47.63C134.86 42.43 130.44 38.36 125.1 38.36H117.66V0H0V173.34H3V3H114.67V39.65C114.64 39.71 114.62 39.78 114.62 39.86C114.62 39.94 114.64 40 114.67 40.07V173.34H117.67V74.55H135.44V71.82C135.45 67.71 135.48 54.45 135.46 48.68ZM132.44 71.55H117.66V48.71C117.66 47.04 118.22 45.51 119.17 44.27C119.99 45.57 120.46 47.08 120.47 48.69C120.47 48.97 120.69 49.19 120.97 49.19C121.25 49.19 121.47 48.96 121.47 48.69C121.47 46.79 120.87 45 119.85 43.5C120.16 43.19 120.5 42.92 120.86 42.67C122.46 44.18 123.47 46.32 123.48 48.69C123.48 48.97 123.7 49.19 123.98 49.19C124.26 49.19 124.48 48.96 124.48 48.69C124.48 46.14 123.42 43.84 121.75 42.15C122.05 42 122.37 41.87 122.69 41.76C124.96 43.25 126.47 45.79 126.48 48.69C126.48 48.97 126.7 49.19 126.98 49.19C127.26 49.19 127.48 48.96 127.48 48.69C127.48 45.76 126.09 43.16 123.97 41.45C124.34 41.39 124.72 41.36 125.11 41.36C125.16 41.36 125.21 41.36 125.26 41.36C127.87 42.77 129.66 45.52 129.67 48.69C129.67 48.97 129.89 49.19 130.17 49.19C130.45 49.19 130.67 48.96 130.67 48.69C130.67 45.96 129.47 43.51 127.59 41.8C128.29 42.05 128.95 42.41 129.53 42.85C129.53 42.85 129.54 42.85 129.55 42.86C130.12 43.29 130.63 43.81 131.05 44.39C131.07 44.41 131.08 44.43 131.1 44.46C131.3 44.74 131.48 45.03 131.64 45.34C131.66 45.38 131.68 45.42 131.7 45.47C131.84 45.75 131.97 46.05 132.07 46.35C132.08 46.38 132.1 46.41 132.11 46.45C132.21 46.77 132.29 47.1 132.35 47.43C132.36 47.5 132.37 47.58 132.38 47.65C132.43 47.99 132.46 48.34 132.47 48.69C132.49 54.33 132.46 67.16 132.45 71.55H132.44Z" fill="black"/>
</g>
<defs>
<clipPath id="clip0_1015_1160">
<rect width="135.47" height="173.34" fill="white"/>
</clipPath>
</defs>
</svg>
