<svg width="51" height="54" viewBox="0 0 51 54" fill="none" xmlns="http://www.w3.org/2000/svg">
<g clip-path="url(#clip0_1015_887)">
<path d="M43.9567 54C43.6874 54 43.4449 53.9594 43.2295 53.8646C43.014 53.7698 42.7985 53.6209 42.5965 53.4178L27.1497 37.8867C26.9477 37.6835 26.7861 37.4669 26.6918 37.2502C26.5976 37.0336 26.5437 36.7899 26.5437 36.5326C26.5437 36.2753 26.5976 36.0316 26.6918 35.8149C26.7861 35.5983 26.9477 35.3816 27.1497 35.1785L32.2538 30.0466C32.4558 29.8435 32.6712 29.681 32.8867 29.5863C33.1022 29.4915 33.3446 29.4373 33.6139 29.4373C33.8833 29.4373 34.1122 29.4915 34.3277 29.5863C34.5432 29.681 34.7586 29.8435 34.9876 30.0466L50.4344 45.5777C50.6364 45.7808 50.7845 45.9975 50.8788 46.2141C50.9731 46.4308 51.0135 46.6745 51.0135 46.9453C51.0135 47.2161 50.9731 47.4599 50.8788 47.6765C50.7845 47.8932 50.6364 48.1098 50.4344 48.3129L45.3303 53.4178C45.1283 53.6209 44.9129 53.7698 44.6974 53.8646C44.4819 53.9594 44.2395 54 43.9702 54H43.9567ZM43.9567 50.5065L47.4986 46.9453L33.587 32.9579L30.0452 36.5191L43.9567 50.5065ZM7.04331 54C6.77396 54 6.53156 53.9594 6.30261 53.8646C6.07367 53.7698 5.8582 53.6209 5.64273 53.4178L0.579086 48.3536C0.377079 48.1504 0.228941 47.9203 0.134671 47.6901C0.0404014 47.4599 0 47.2026 0 46.9318C0 46.661 0.0404014 46.4172 0.134671 46.1871C0.228941 45.9569 0.377079 45.7402 0.579086 45.5371L15.2987 30.7372H20.9683L23.352 28.3405L11.5817 16.5466H7.7436L0.0808027 8.84203L6.07367 2.81645L13.7365 10.5211V14.3801L25.4933 26.2011L34.1392 17.508L29.0351 12.3761L32.4423 8.95035H25.5875L24.5775 7.96188L32.4962 0L33.4793 0.988465V7.90772L36.8865 4.48195L48.347 15.9509C48.9799 16.5873 49.4782 17.3185 49.8284 18.1444C50.1785 18.9704 50.3536 19.8641 50.3536 20.7984C50.3536 21.516 50.2458 22.2337 50.0169 22.9378C49.788 23.6419 49.4782 24.2919 49.0877 24.8741L43.4719 19.2277L39.6741 23.0461L36.3343 19.6881L23.1096 32.985V38.6991L8.41695 53.4448C8.21495 53.6479 7.99947 53.7969 7.784 53.8917C7.56852 53.9865 7.32612 54.0271 7.05677 54.0271L7.04331 54ZM7.04331 50.4794L20.874 36.5732V33.012H17.3322L3.50145 46.9183L7.04331 50.4794ZM7.04331 50.4794L3.50145 46.9183L5.29258 48.6785L7.04331 50.4794Z" fill="black"/>
</g>
<defs>
<clipPath id="clip0_1015_887">
<rect width="51" height="54" fill="white"/>
</clipPath>
</defs>
</svg>
