<svg width="51" height="54" viewBox="0 0 51 54" fill="none" xmlns="http://www.w3.org/2000/svg">
<g clip-path="url(#clip0_1015_2591)">
<path d="M16.3039 31.2784C15.4285 31.2784 14.6709 30.9585 14.0312 30.3272C13.3999 29.6959 13.0801 28.93 13.0801 28.0546V12.2975C13.0801 11.439 13.3999 10.6814 14.0312 10.0417C14.6625 9.402 15.4285 9.07373 16.3039 9.07373H47.5991C48.4745 9.07373 49.2405 9.402 49.8718 10.0417C50.5031 10.6814 50.8229 11.439 50.8229 12.2975V28.063C50.8229 28.9384 50.5031 29.7044 49.8718 30.3357C49.2405 30.9669 48.4745 31.2868 47.5991 31.2868H16.3039V31.2784ZM16.3039 12.1208C16.3039 12.1208 16.2534 12.1208 16.1945 12.1881C16.1355 12.2554 16.1271 12.2891 16.1271 12.2975V28.063C16.1271 28.063 16.1271 28.1135 16.1945 28.1724C16.2618 28.2313 16.2955 28.2398 16.3039 28.2398H47.5991C47.5991 28.2398 47.6496 28.2398 47.7086 28.1724C47.7675 28.1051 47.7759 28.0714 47.7759 28.063V12.2975C47.7759 12.2975 47.7759 12.247 47.717 12.1881C47.6581 12.1292 47.616 12.1208 47.5991 12.1208H41.9512V19.8562H38.9041V12.1208H33.4666V19.8562H30.4196V12.1208H24.982V19.8562H21.935V12.1208H16.287H16.3039Z" fill="black"/>
<path d="M45.2594 42.3303H42.7174V34.2413H39.7714V42.3134L5.96782 42.0441C5.13451 42.0104 4.41063 42.6669 4.40221 43.5087C4.40221 44.3167 5.05034 44.9817 5.86681 44.9901H5.93415C7.53342 45.0154 8.82126 46.3284 8.82126 47.9277C8.82126 49.527 7.50817 50.8653 5.88364 50.8653C4.25912 50.8653 2.94603 49.5522 2.94603 47.9277V2.94603H39.7714V6.18666H42.7174V1.47302C42.7174 0.656544 42.0609 0 41.2444 0H1.47302C0.656544 0 0 0.656544 0 1.47302V47.9277C0 51.1683 2.63459 53.8114 5.88364 53.8114H45.2594C48.4243 53.8114 51 51.2357 51 48.0708C51 44.9059 48.4243 42.3303 45.2594 42.3303ZM45.2594 50.8653H10.9677C11.4727 49.9984 11.7589 48.9967 11.7589 47.9277C11.7589 46.8587 11.4811 45.8907 10.9929 45.0322L41.2276 45.2763C41.2276 45.2763 41.2276 45.2763 41.236 45.2763H45.251C46.7914 45.2763 48.0456 46.5305 48.0456 48.0708C48.0456 49.6112 46.7914 50.8653 45.251 50.8653H45.2594Z" fill="black"/>
</g>
<defs>
<clipPath id="clip0_1015_2591">
<rect width="51" height="53.8114" fill="white"/>
</clipPath>
</defs>
</svg>
