<svg width="51" height="62" viewBox="0 0 51 62" fill="none" xmlns="http://www.w3.org/2000/svg">
<g clip-path="url(#clip0_1015_900)">
<path d="M49.7747 18.9565C48.9619 18.1014 47.9429 17.6678 46.7298 17.6678C46.1353 17.6678 45.5652 17.8003 45.0193 18.0532C44.7524 18.1857 44.5219 18.3423 44.3278 18.5229V1.80653C44.3278 0.806915 43.515 0 42.5081 0H1.8197C0.812797 0 0 0.806915 0 1.80653V42.0559C0 43.0556 0.812797 43.8625 1.8197 43.8625H14.1815L16.2802 49.6072C17.6753 53.5575 19.8953 56.6045 22.9403 58.7603C25.9853 60.9161 29.6004 61.988 33.8099 61.988C39.1477 61.988 43.3451 60.4705 46.4144 57.4235C49.4715 54.3885 51.0121 50.2094 51.0121 44.9103V22.0517C51.0121 20.8473 50.5997 19.8116 49.7869 18.9565H49.7747ZM3.03283 40.8516V3.01088H41.295V11.0198C40.7854 10.791 40.2153 10.6706 39.5966 10.6706C39.0143 10.6706 38.4562 10.7669 37.9346 10.9596C37.4129 11.1523 37.0369 11.4413 36.8064 11.8267C36.7093 10.6706 36.2726 9.68298 35.4962 8.85198C34.7198 8.02098 33.725 7.6115 32.524 7.6115C31.2502 7.6115 30.1827 8.05711 29.3335 8.93629C28.4843 9.81546 28.0597 10.8873 28.084 12.1278V14.0427C27.7928 13.6453 27.4289 13.3201 26.9922 13.0793C26.5554 12.8263 26.0095 12.7059 25.3544 12.7059C24.1413 12.7059 23.1223 13.1395 22.3095 13.9946C21.4967 14.8497 21.0842 15.8854 21.0842 17.0897V35.4922C20.3806 34.0831 19.774 33.1076 19.2766 32.5777C18.7793 32.0478 18.015 31.5179 16.9717 31.012L15.6858 30.6026C15.4795 30.4701 15.2369 30.3858 14.9458 30.3376C14.6546 30.2894 14.3756 30.2653 14.1208 30.2653C13.2353 30.2653 12.471 30.6026 11.7916 31.265C11.1123 31.9273 10.7847 32.6981 10.7847 33.5773C10.7847 33.9025 10.8211 34.2277 10.8818 34.5528C10.9424 34.878 11.0274 35.1791 11.1365 35.4922L13.1018 40.8636H3.03283V40.8516ZM48.2462 44.9343C48.2462 49.4386 46.9845 52.9553 44.4491 55.4845C41.9137 58.0136 38.3713 59.2782 33.8099 59.2782C30.1099 59.2782 27.0043 58.3629 24.5052 56.5322C22.0062 54.7016 20.138 52.0882 18.9006 48.6799L13.5992 34.2999C13.4172 33.8784 13.4172 33.5532 13.5749 33.3244C13.7448 33.0956 14.0238 32.9992 14.4241 33.0594C15.3582 33.1919 16.2317 33.5773 17.0324 34.2156C17.833 34.8539 18.5609 35.974 19.1917 37.5517L20.9508 41.9837H23.8137V17.0897C23.8137 16.596 23.9472 16.2106 24.202 15.8974C24.4567 15.5963 24.8328 15.4398 25.3302 15.4398C25.8275 15.4398 26.2036 15.5963 26.4705 15.8974C26.7374 16.1985 26.8708 16.596 26.8708 17.0897V34.8539H30.9348V11.9953C30.9348 11.5016 31.0683 11.1162 31.323 10.803C31.5778 10.4899 31.966 10.3454 32.4755 10.3454C32.985 10.3454 33.3368 10.5019 33.6037 10.803C33.8585 11.1041 33.9919 11.5016 33.9919 11.9953V34.8539H38.0802V15.0544C38.0802 14.5606 38.2136 14.1752 38.4684 13.8621C38.7231 13.549 39.0992 13.4044 39.5966 13.4044C40.094 13.4044 40.47 13.561 40.7369 13.8621C41.0038 14.1632 41.1372 14.5606 41.1372 15.0544V34.8539H45.2012V22.0517C45.2012 21.5579 45.3347 21.1725 45.5894 20.8594C45.8442 20.5583 46.2324 20.4017 46.7419 20.4017C47.2514 20.4017 47.6032 20.5583 47.8701 20.8594C48.1249 21.1604 48.2583 21.5579 48.2583 22.0517V44.9343H48.2462Z" fill="black"/>
<path d="M12.0583 56.2914C12.0583 58.6158 10.1537 60.5066 7.81236 60.5066C5.47102 60.5066 3.56641 58.6158 3.56641 56.2914C3.56641 53.967 7.81236 46.7529 7.81236 46.7529C7.81236 46.7529 12.0583 53.955 12.0583 56.2914Z" fill="black"/>
</g>
<defs>
<clipPath id="clip0_1015_900">
<rect width="51" height="62" fill="white"/>
</clipPath>
</defs>
</svg>
