<svg width="63" height="66" viewBox="0 0 63 66" fill="none" xmlns="http://www.w3.org/2000/svg">
<g clip-path="url(#clip0_1583_3579)" filter="url(#filter0_d_1583_3579)">
<path d="M26.2336 11.9713C26.9295 11.9713 27.531 11.7265 28.0146 11.2253C28.4982 10.7241 28.7459 10.1413 28.7459 9.48858C28.7459 8.80088 28.4982 8.20642 28.0146 7.72853C27.531 7.25063 26.9413 7.00586 26.2572 7.00586C25.5731 7.00586 24.9715 7.25063 24.4644 7.72853C23.9572 8.20642 23.7095 8.78922 23.7095 9.46526C23.7095 10.1413 23.9572 10.7358 24.4644 11.237C24.9715 11.7382 25.5613 11.9829 26.2218 11.9829L26.2336 11.9713Z" fill="black"/>
<path d="M14.4385 9.63941C15.8067 9.63941 16.9626 9.16151 17.9062 8.21738C18.8498 7.27325 19.3216 6.14262 19.3216 4.81384C19.3216 3.48507 18.8498 2.31947 17.918 1.387C16.9744 0.454519 15.8303 -0.0117188 14.4739 -0.0117188C13.1174 -0.0117188 11.9615 0.454519 11.0061 1.37534C10.0507 2.29616 9.56714 3.43844 9.56714 4.77888C9.56714 6.11931 10.0507 7.26159 11.0061 8.20573C11.9615 9.14986 13.1056 9.62775 14.4503 9.62775L14.4385 9.63941Z" fill="black"/>
<path d="M22.5299 26.8319C22.5299 27.776 22.2114 28.5686 21.5627 29.2097C20.914 29.8508 20.1119 30.1655 19.1683 30.1655C18.2247 30.1655 17.4109 29.8508 16.7622 29.2097C16.1134 28.5686 15.7832 27.776 15.7832 26.8319V23.1836H13.1057V26.8319C13.1057 28.4987 13.6955 29.9091 14.875 31.0747C16.0545 32.2403 17.4817 32.8231 19.1683 32.8231C20.855 32.8231 22.2822 32.2403 23.4617 31.0747C24.6412 29.9091 25.2192 28.4987 25.2192 26.8319V23.1836H22.5417V26.8319H22.5299Z" fill="black"/>
<path d="M50.0712 33.2779H32.0367L34.3249 16.3418H4L8.01029 46.0645C8.11645 46.892 8.49389 47.5914 9.15441 48.1392C9.81493 48.6987 10.5698 48.9785 11.419 48.9785H19.2627V49.1766C19.2627 54.0371 23.2612 58.0002 28.1915 58.0002H50.083C55.0015 58.0002 59.0118 54.0488 59.0118 49.1766V42.1014C59.0118 37.2409 55.0133 33.2779 50.083 33.2779H50.0712ZM19.2627 42.1014V46.3326H11.3955C11.2185 46.3326 11.0534 46.2743 10.9119 46.1577C10.7703 46.0412 10.6878 45.8896 10.676 45.7148L7.04311 18.9877H31.2346L29.3356 33.2779H28.1915C23.273 33.2779 19.2627 37.2293 19.2627 42.1014ZM22.2115 49.1766V42.1014C22.2115 38.8494 24.8889 36.1919 28.1915 36.1919H44.6101C47.9009 36.1919 50.5902 38.8378 50.5902 42.1014V49.1766C50.5902 52.4286 47.9127 55.0862 44.6101 55.0862H28.1915C24.9007 55.0862 22.2115 52.4403 22.2115 49.1766ZM56.0513 49.1766C56.0513 51.9973 54.0343 54.3635 51.3451 54.9346C52.7015 53.3844 53.5271 51.3796 53.5271 49.1766V42.1014C53.5271 39.8985 52.7015 37.882 51.3451 36.3434C54.0225 36.9262 56.0513 39.2807 56.0513 42.1014V49.1766Z" fill="black"/>
<path d="M45.9075 42.137C45.9075 41.4493 45.6599 40.8549 45.1763 40.377C44.6927 39.8991 44.1029 39.6543 43.4188 39.6543C42.7347 39.6543 42.1332 39.8991 41.626 40.377C41.1188 40.8549 40.8711 41.4377 40.8711 42.1137C40.8711 42.7897 41.1188 43.3842 41.626 43.8854C42.1332 44.3866 42.7229 44.6314 43.3834 44.6314C44.0793 44.6314 44.6809 44.3866 45.1645 43.8854C45.6481 43.3842 45.8958 42.8014 45.8958 42.1487L45.9075 42.137Z" fill="black"/>
<path d="M29.1115 42.4867C29.4417 42.1487 29.6068 41.764 29.6068 41.3211C29.6068 40.8549 29.4417 40.4586 29.1115 40.1438C28.7812 39.8175 28.392 39.6543 27.932 39.6543C27.4719 39.6543 27.0709 39.8175 26.7289 40.1438C26.3868 40.4702 26.2217 40.8549 26.2217 41.3094C26.2217 41.764 26.3868 42.1603 26.7289 42.4983C27.0709 42.8364 27.4602 42.9996 27.9084 42.9996C28.3802 42.9996 28.7812 42.8364 29.0997 42.4983L29.1115 42.4867Z" fill="black"/>
<path d="M29.3592 46.2734C28.8992 46.2734 28.4982 46.4366 28.1561 46.763C27.8141 47.0894 27.6489 47.474 27.6489 47.9286C27.6489 48.3832 27.8141 48.7795 28.1561 49.1175C28.4982 49.4555 28.8874 49.6187 29.3356 49.6187C29.8074 49.6187 30.2084 49.4555 30.5269 49.1175C30.8572 48.7795 31.0223 48.3948 31.0223 47.9519C31.0223 47.4857 30.8572 47.0894 30.5269 46.7746C30.1966 46.4483 29.8074 46.2851 29.3474 46.2851L29.3592 46.2734Z" fill="black"/>
<path d="M36.554 45.5273C35.5986 45.5273 34.773 45.8654 34.0771 46.5298C33.3812 47.1941 33.0273 47.9984 33.0273 48.9425C33.0273 49.8867 33.3812 50.7026 34.0771 51.3903C34.7848 52.078 35.5869 52.4277 36.5187 52.4277C37.4858 52.4277 38.3115 52.078 38.9838 51.3903C39.6561 50.6909 39.9982 49.8983 39.9982 48.9775C39.9982 48.0217 39.6561 47.2058 38.9838 46.5414C38.3115 45.877 37.4976 45.539 36.5422 45.539L36.554 45.5273Z" fill="black"/>
</g>
<defs>
<filter id="filter0_d_1583_3579" x="0" y="0" width="63" height="66" filterUnits="userSpaceOnUse" color-interpolation-filters="sRGB">
<feFlood flood-opacity="0" result="BackgroundImageFix"/>
<feColorMatrix in="SourceAlpha" type="matrix" values="0 0 0 0 0 0 0 0 0 0 0 0 0 0 0 0 0 0 127 0" result="hardAlpha"/>
<feOffset dy="4"/>
<feGaussianBlur stdDeviation="2"/>
<feComposite in2="hardAlpha" operator="out"/>
<feColorMatrix type="matrix" values="0 0 0 0 0 0 0 0 0 0 0 0 0 0 0 0 0 0 0.25 0"/>
<feBlend mode="normal" in2="BackgroundImageFix" result="effect1_dropShadow_1583_3579"/>
<feBlend mode="normal" in="SourceGraphic" in2="effect1_dropShadow_1583_3579" result="shape"/>
</filter>
<clipPath id="clip0_1583_3579">
<rect width="55" height="58" fill="white" transform="translate(4)"/>
</clipPath>
</defs>
</svg>
