<svg width="46" height="49" viewBox="0 0 46 49" fill="none" xmlns="http://www.w3.org/2000/svg">
<g clip-path="url(#clip0_1583_3541)">
<path d="M30.2169 49C29.7812 49 29.4018 48.846 29.0926 48.538C28.7834 48.23 28.6288 47.852 28.6288 47.418C28.6288 46.956 28.7834 46.578 29.0926 46.27C29.4018 45.976 29.7812 45.822 30.2169 45.822C33.07 45.822 35.4733 45.248 37.4409 44.086C39.3944 42.924 40.3783 41.538 40.3783 39.9C40.3783 38.682 39.6615 37.52 38.2139 36.414C36.7663 35.308 34.7987 34.468 32.2829 33.88L34.8268 31.346C37.8204 32.172 40.0128 33.362 41.4323 34.888C42.8518 36.414 43.5545 38.08 43.5545 39.9C43.5545 42.812 42.1772 45.052 39.4366 46.634C36.696 48.216 33.6181 49 30.2029 49H30.2169ZM8.22182 28.77C5.31256 28.084 3.21845 27.076 1.92545 25.76C0.646502 24.444 0 23.086 0 21.7C0 20.174 0.604339 18.802 1.81302 17.57C3.02169 16.338 5.67797 14.952 9.7678 13.398C12.9019 12.208 14.9398 11.228 15.9236 10.458C16.8934 9.688 17.3853 8.778 17.3853 7.742C17.3853 6.482 16.809 5.404 15.6566 4.522C14.5041 3.626 12.8035 3.178 10.5548 3.178C9.24779 3.178 8.10938 3.36 7.11152 3.738C6.11366 4.116 5.24229 4.662 4.51146 5.404C4.23037 5.684 3.86496 5.852 3.41522 5.908C2.97953 5.964 2.58601 5.852 2.23465 5.586C1.84112 5.306 1.64436 4.942 1.63031 4.522C1.61625 4.102 1.74274 3.724 2.00978 3.388C2.75466 2.422 3.90712 1.61 5.4531 0.966C7.01314 0.322 8.71372 0 10.5548 0C13.5625 0 15.9798 0.714 17.821 2.128C19.6621 3.542 20.5756 5.418 20.5756 7.742C20.5756 9.492 19.9151 11.004 18.608 12.264C17.3009 13.538 14.7852 14.882 11.0608 16.31C7.94073 17.514 5.84662 18.494 4.79255 19.264C3.72441 20.034 3.2044 20.846 3.2044 21.7C3.2044 22.554 3.83685 23.338 5.08769 24.094C6.33853 24.85 8.24992 25.564 10.8219 26.222L8.23587 28.77H8.22182ZM42.0507 16.996L34.6019 9.576L37.469 6.72C38.1858 6.006 38.9728 5.642 39.8301 5.628C40.6874 5.628 41.4745 5.978 42.1913 6.692L44.9459 9.436C45.6627 10.15 46.0141 10.934 46.0141 11.788C46.0141 12.642 45.6486 13.426 44.9178 14.14L42.0507 16.996ZM6.46502 45.01H9.33211L33.7867 20.65L30.9196 17.794L6.46502 42.154V45.01ZM3.27467 48.188V40.796L30.9196 13.23L38.3685 20.65L10.6954 48.188H3.27467Z" fill="black"/>
</g>
<defs>
<clipPath id="clip0_1583_3541">
<rect width="46" height="49" fill="white"/>
</clipPath>
</defs>
</svg>
