<svg width="18" height="18" viewBox="0 0 18 18" fill="none" xmlns="http://www.w3.org/2000/svg">
<path fill-rule="evenodd" clip-rule="evenodd" d="M4.82838 1.62746C3.97623 1.62746 3.158 1.97178 2.55396 2.58625C1.94976 3.20089 1.60946 4.03554 1.60946 4.90687V13.0931C1.60946 13.9645 1.94976 14.7991 2.55396 15.4137C3.158 16.0282 3.97623 16.3725 4.82838 16.3725H12.8757C13.7278 16.3725 14.546 16.0282 15.1501 15.4137C15.7543 14.7991 16.0946 13.9645 16.0946 13.0931V4.90687C16.0946 4.03554 15.7543 3.20089 15.1501 2.58625C14.546 1.97178 13.7278 1.62746 12.8757 1.62746H4.82838ZM1.41249 1.43892C2.31761 0.518165 3.54625 0 4.82838 0H12.8757C14.1578 0 15.3864 0.518165 16.2916 1.43892C17.1965 2.3595 17.704 3.60705 17.704 4.90687V13.0931C17.704 14.3929 17.1965 15.6405 16.2916 16.5611C15.3864 17.4818 14.1578 18 12.8757 18H4.82838C3.54625 18 2.31761 17.4818 1.41249 16.5611C0.507537 15.6405 0 14.3929 0 13.0931V4.90687C0 3.60705 0.507537 2.3595 1.41249 1.43892ZM6.14743 6.25562C6.8639 5.52677 7.83668 5.11642 8.85202 5.11642C9.86737 5.11642 10.8401 5.52677 11.5566 6.25562C12.2729 6.9843 12.6745 7.97158 12.6745 9C12.6745 10.0284 12.2729 11.0157 11.5566 11.7444C10.8401 12.4732 9.86737 12.8836 8.85202 12.8836C7.83668 12.8836 6.8639 12.4732 6.14743 11.7444C5.43112 11.0157 5.02956 10.0284 5.02956 9C5.02956 7.97158 5.43112 6.9843 6.14743 6.25562ZM8.85202 6.74388C8.26666 6.74388 7.70429 6.98039 7.2889 7.40296C6.87334 7.82569 6.63902 8.40007 6.63902 9C6.63902 9.59993 6.87334 10.1743 7.2889 10.597C7.70429 11.0196 8.26666 11.2561 8.85202 11.2561C9.43739 11.2561 9.99976 11.0196 10.4152 10.597C10.8307 10.1743 11.065 9.59993 11.065 9C11.065 8.40007 10.8307 7.82569 10.4152 7.40296C9.99976 6.98039 9.43739 6.74388 8.85202 6.74388Z" fill="black"/>
<path d="M14.4849 4.08718C14.4849 4.5393 14.1247 4.90581 13.6802 4.90581C13.2358 4.90581 12.8755 4.5393 12.8755 4.08718C12.8755 3.63507 13.2358 3.26855 13.6802 3.26855C14.1247 3.26855 14.4849 3.63507 14.4849 4.08718Z" fill="black"/>
</svg>
