<svg width="76" height="76" viewBox="0 0 76 76" fill="none" xmlns="http://www.w3.org/2000/svg">
<path d="M30.0835 49.3497V26.651C30.084 26.367 30.1608 26.0884 30.306 25.8443C30.4512 25.6002 30.6593 25.3996 30.9086 25.2636C31.158 25.1277 31.4393 25.0612 31.7231 25.0713C32.0069 25.0814 32.2828 25.1676 32.5218 25.321L50.1792 36.6672C50.4027 36.8104 50.5867 37.0076 50.7141 37.2406C50.8415 37.4735 50.9083 37.7348 50.9083 38.0003C50.9083 38.2659 50.8415 38.5271 50.7141 38.7601C50.5867 38.9931 50.4027 39.1903 50.1792 39.3335L32.5218 50.6828C32.2828 50.8362 32.0069 50.9225 31.7231 50.9325C31.4393 50.9426 31.158 50.8762 30.9086 50.7402C30.6593 50.6042 30.4512 50.4037 30.306 50.1596C30.1608 49.9155 30.084 49.6368 30.0835 49.3528V49.3497Z" fill="white"/>
<path d="M3.1665 38.0003C3.1665 18.7628 18.7623 3.16699 37.9998 3.16699C57.2373 3.16699 72.8332 18.7628 72.8332 38.0003C72.8332 57.2378 57.2373 72.8337 37.9998 72.8337C18.7623 72.8337 3.1665 57.2378 3.1665 38.0003ZM37.9998 7.91699C30.0212 7.91699 22.3694 11.0865 16.7277 16.7282C11.086 22.3699 7.9165 30.0217 7.9165 38.0003C7.9165 45.9789 11.086 53.6307 16.7277 59.2724C22.3694 64.9142 30.0212 68.0837 37.9998 68.0837C45.9784 68.0837 53.6302 64.9142 59.272 59.2724C64.9137 53.6307 68.0832 45.9789 68.0832 38.0003C68.0832 30.0217 64.9137 22.3699 59.272 16.7282C53.6302 11.0865 45.9784 7.91699 37.9998 7.91699Z" fill="white"/>
</svg>
